<svg xmlns="http://www.w3.org/2000/svg" xmlns:xlink="http://www.w3.org/1999/xlink" viewBox="0 0 810 1080"><defs><style>.cls-1{fill:none;}.cls-2{isolation:isolate;}.cls-3{fill:url(#Degradado_sin_nombre_2);}.cls-4{clip-path:url(#clip-path);}.cls-12,.cls-13,.cls-14,.cls-15,.cls-18,.cls-19,.cls-20,.cls-21,.cls-24,.cls-25,.cls-26,.cls-29,.cls-30,.cls-31,.cls-32,.cls-36,.cls-37,.cls-38,.cls-39,.cls-40,.cls-45,.cls-5,.cls-6{mix-blend-mode:overlay;}.cls-5{fill:url(#linear-gradient);}.cls-6{fill:url(#linear-gradient-2);}.cls-7{fill:#0571bf;}.cls-8{fill:#2b2e8d;}.cls-9{fill:#3ee3de;}.cls-10{fill:#0592f7;}.cls-11{fill:url(#linear-gradient-3);}.cls-12{fill:url(#linear-gradient-4);}.cls-13{fill:url(#linear-gradient-5);}.cls-14{fill:url(#linear-gradient-6);}.cls-15{fill:url(#linear-gradient-7);}.cls-16,.cls-17,.cls-45{fill:#fff;}.cls-17{opacity:0.57;}.cls-18{fill:url(#linear-gradient-8);}.cls-19{fill:url(#linear-gradient-9);}.cls-20{fill:url(#linear-gradient-10);}.cls-21{fill:url(#linear-gradient-11);}.cls-22{fill:url(#radial-gradient);}.cls-23{fill:url(#linear-gradient-12);}.cls-24{fill:url(#linear-gradient-13);}.cls-25{fill:url(#linear-gradient-14);}.cls-26{fill:url(#linear-gradient-15);}.cls-27{fill:url(#radial-gradient-2);}.cls-28{fill:url(#linear-gradient-16);}.cls-29{fill:url(#linear-gradient-17);}.cls-30{fill:url(#linear-gradient-18);}.cls-31{fill:url(#linear-gradient-19);}.cls-32{fill:url(#linear-gradient-20);}.cls-33{fill:url(#linear-gradient-21);}.cls-34{fill:url(#radial-gradient-3);}.cls-35{fill:url(#linear-gradient-22);}.cls-36{fill:url(#linear-gradient-23);}.cls-37{fill:url(#linear-gradient-24);}.cls-38{fill:url(#linear-gradient-25);}.cls-39{fill:url(#linear-gradient-26);}.cls-40{fill:url(#linear-gradient-27);}.cls-41{fill:url(#radial-gradient-4);}.cls-42{fill:url(#linear-gradient-28);}.cls-43{opacity:0.53;}.cls-44{fill:url(#linear-gradient-29);}.cls-45{opacity:0.48;}.cls-46{fill:#1034a3;opacity:0.7;mix-blend-mode:multiply;}.cls-47{fill:url(#linear-gradient-30);}.cls-48{fill:url(#linear-gradient-31);}.cls-49{fill:url(#linear-gradient-32);}.cls-50{fill:url(#linear-gradient-33);}.cls-51{fill:url(#linear-gradient-34);}</style><linearGradient id="Degradado_sin_nombre_2" x1="-114.66" y1="447.66" x2="655.69" y2="1218.01" gradientUnits="userSpaceOnUse"><stop offset="0" stop-color="#2b2e8d"/><stop offset="1" stop-color="#09c7f5"/></linearGradient><clipPath id="clip-path"><path class="cls-1" d="M-1.3,1080h686c-11.47-41.12-42.61-80.22-90.41-99.4-30.1-12.09-67.28-17-87.72-38.12-17.14-17.7-17.3-42.47-9.42-63.81s22.78-40.61,33.94-61c17.47-31.86,25.81-67.83,15.22-101.5s-42.45-64.28-85.21-73.39c-46.25-9.83-102.7,4.35-139-20.22-40.57-27.47-24.69-83.61-61.62-114.08C237,489,198.38,486.06,164.47,490.06s-81.09.61-101.09-11.84C40.93,464.24,16.55,404.09-1.3,394Z"/></clipPath><linearGradient id="linear-gradient" x1="668.29" y1="1159.61" x2="258.83" y2="923.8" gradientUnits="userSpaceOnUse"><stop offset="0" stop-color="#fff"/><stop offset="0.09" stop-color="#fff" stop-opacity="0.94"/><stop offset="0.28" stop-color="#fff" stop-opacity="0.78"/><stop offset="0.53" stop-color="#fff" stop-opacity="0.53"/><stop offset="0.84" stop-color="#fff" stop-opacity="0.19"/><stop offset="1" stop-color="#fff" stop-opacity="0"/></linearGradient><linearGradient id="linear-gradient-2" x1="-1.45" y1="1325.09" x2="451.09" y2="872.55" gradientTransform="matrix(0, -1, -1, 0, 1439.56, 775.56)" gradientUnits="userSpaceOnUse"><stop offset="0" stop-color="#fff" stop-opacity="0"/><stop offset="0.28" stop-color="#fff" stop-opacity="0.26"/><stop offset="0.91" stop-color="#fff" stop-opacity="0.91"/><stop offset="1" stop-color="#fff"/></linearGradient><linearGradient id="linear-gradient-3" x1="502.21" y1="970.89" x2="516.7" y2="970.89" gradientUnits="userSpaceOnUse"><stop offset="0" stop-color="#06c2cc"/><stop offset="0.11" stop-color="#19c4c9"/><stop offset="0.33" stop-color="#4acac2"/><stop offset="0.65" stop-color="#98d4b6"/><stop offset="1" stop-color="#f8dfa7"/></linearGradient><linearGradient id="linear-gradient-4" x1="748.59" y1="1148.84" x2="748.59" y2="1099.53" gradientTransform="translate(498.53 -524.32) rotate(45)" gradientUnits="userSpaceOnUse"><stop offset="0" stop-color="#fff" stop-opacity="0.78"/><stop offset="1" stop-color="#fff" stop-opacity="0"/></linearGradient><linearGradient id="linear-gradient-5" x1="897.76" y1="1089.95" x2="897.76" y2="1058.87" xlink:href="#linear-gradient-4"/><linearGradient id="linear-gradient-6" x1="1077.28" y1="1165.14" x2="1077.28" y2="1115.83" xlink:href="#linear-gradient-4"/><linearGradient id="linear-gradient-7" x1="804.11" y1="1431.41" x2="804.11" y2="1382.1" xlink:href="#linear-gradient-4"/><linearGradient id="linear-gradient-8" x1="649.13" y1="1083.04" x2="649.13" y2="1033.73" xlink:href="#linear-gradient-4"/><linearGradient id="linear-gradient-9" x1="887.04" y1="938.45" x2="887.04" y2="907.37" xlink:href="#linear-gradient-4"/><linearGradient id="linear-gradient-10" x1="443.27" y1="1066.99" x2="443.27" y2="1035.91" xlink:href="#linear-gradient-4"/><linearGradient id="linear-gradient-11" x1="618.95" y1="1255.43" x2="618.95" y2="1206.12" xlink:href="#linear-gradient-4"/><radialGradient id="radial-gradient" cx="153.71" cy="881.23" r="85" gradientTransform="translate(976.05 529.17) rotate(76.72)" gradientUnits="userSpaceOnUse"><stop offset="0" stop-color="#fac40f"/><stop offset="1" stop-color="#fac40f" stop-opacity="0"/></radialGradient><linearGradient id="linear-gradient-12" x1="198.79" y1="931.32" x2="117.53" y2="844.51" gradientUnits="userSpaceOnUse"><stop offset="0" stop-color="#fac40f"/><stop offset="1" stop-color="#e72ae3"/></linearGradient><linearGradient id="linear-gradient-13" x1="138.53" y1="881.11" x2="98.32" y2="845.16" gradientTransform="matrix(1, 0, 0, 1, 0, 0)" xlink:href="#linear-gradient-4"/><linearGradient id="linear-gradient-14" x1="115.91" y1="921.01" x2="190.44" y2="921.01" gradientTransform="matrix(1, 0, 0, 1, 0, 0)" xlink:href="#linear-gradient-4"/><linearGradient id="linear-gradient-15" x1="148.33" y1="857.5" x2="215.33" y2="857.5" gradientTransform="matrix(1, 0, 0, 1, 0, 0)" xlink:href="#linear-gradient-4"/><radialGradient id="radial-gradient-2" cx="413.42" cy="979.36" r="97.17" gradientUnits="userSpaceOnUse"><stop offset="0" stop-color="#63ffff"/><stop offset="0.12" stop-color="#63ffff" stop-opacity="0.82"/><stop offset="0.3" stop-color="#63ffff" stop-opacity="0.58"/><stop offset="0.47" stop-color="#63ffff" stop-opacity="0.37"/><stop offset="0.64" stop-color="#63ffff" stop-opacity="0.21"/><stop offset="0.78" stop-color="#63ffff" stop-opacity="0.09"/><stop offset="0.91" stop-color="#63ffff" stop-opacity="0.02"/><stop offset="1" stop-color="#63ffff" stop-opacity="0"/></radialGradient><linearGradient id="linear-gradient-16" x1="519.87" y1="1122.82" x2="461.66" y2="1024.32" gradientTransform="matrix(0.97, 0.24, -0.24, 0.97, 185.87, -188.17)" gradientUnits="userSpaceOnUse"><stop offset="0" stop-color="#3ee3de"/><stop offset="1" stop-color="#0592f7"/></linearGradient><linearGradient id="linear-gradient-17" x1="521.21" y1="1037.38" x2="422" y2="1036.93" gradientTransform="matrix(0.97, 0.24, -0.24, 0.97, 185.87, -188.17)" gradientUnits="userSpaceOnUse"><stop offset="0" stop-color="#fff" stop-opacity="0"/><stop offset="1" stop-color="#fff" stop-opacity="0.78"/></linearGradient><linearGradient id="linear-gradient-18" x1="552.53" y1="1143.88" x2="473.24" y2="1036.05" gradientTransform="matrix(0.97, 0.24, -0.24, 0.97, 185.87, -188.17)" xlink:href="#linear-gradient-4"/><linearGradient id="linear-gradient-19" x1="553.83" y1="1104.92" x2="408.41" y2="1085.44" xlink:href="#linear-gradient-17"/><linearGradient id="linear-gradient-20" x1="523.19" y1="1165.45" x2="443.9" y2="1057.62" gradientTransform="matrix(0.97, 0.24, -0.24, 0.97, 185.87, -188.17)" xlink:href="#linear-gradient-4"/><linearGradient id="linear-gradient-21" x1="499.28" y1="1134.14" x2="499.28" y2="1053.53" gradientTransform="matrix(0.97, 0.24, -0.24, 0.97, 185.87, -188.17)" gradientUnits="userSpaceOnUse"><stop offset="0" stop-color="#f8dfa7"/><stop offset="0.12" stop-color="#e3ddaa"/><stop offset="0.36" stop-color="#aed6b2"/><stop offset="0.69" stop-color="#58ccbf"/><stop offset="1" stop-color="#06c2cc"/></linearGradient><radialGradient id="radial-gradient-3" cx="100.45" cy="692.13" r="91.23" gradientUnits="userSpaceOnUse"><stop offset="0" stop-color="#fdefd2"/><stop offset="0.69" stop-color="#fdefd2" stop-opacity="0.3"/><stop offset="1" stop-color="#fdefd2" stop-opacity="0"/></radialGradient><linearGradient id="linear-gradient-22" x1="177.02" y1="753.5" x2="55.55" y2="657.86" gradientUnits="userSpaceOnUse"><stop offset="0.14" stop-color="#06c2cc"/><stop offset="0.23" stop-color="#19c4c9"/><stop offset="0.42" stop-color="#4acac2"/><stop offset="0.7" stop-color="#98d4b6"/><stop offset="1" stop-color="#f8dfa7"/></linearGradient><linearGradient id="linear-gradient-23" x1="23.74" y1="652.61" x2="156.43" y2="652.61" gradientTransform="matrix(1, 0, 0, 1, 0, 0)" xlink:href="#linear-gradient-4"/><linearGradient id="linear-gradient-24" x1="22.44" y1="692" x2="171.55" y2="692" gradientTransform="matrix(1, 0, 0, 1, 0, 0)" xlink:href="#linear-gradient-4"/><linearGradient id="linear-gradient-25" x1="37.15" y1="721.63" x2="173.43" y2="721.63" gradientTransform="matrix(1, 0, 0, 1, 0, 0)" xlink:href="#linear-gradient-4"/><linearGradient id="linear-gradient-26" x1="53.52" y1="623.03" x2="119.59" y2="623.03" gradientTransform="matrix(1, 0, 0, 1, 0, 0)" xlink:href="#linear-gradient-4"/><linearGradient id="linear-gradient-27" x1="85.45" y1="752.42" x2="157.16" y2="752.42" gradientTransform="matrix(1, 0, 0, 1, 0, 0)" xlink:href="#linear-gradient-4"/><radialGradient id="radial-gradient-4" cx="192.21" cy="515.93" r="77.21" xlink:href="#radial-gradient-2"/><linearGradient id="linear-gradient-28" x1="214.38" y1="556.4" x2="170.82" y2="479.98" gradientTransform="translate(421.89 15.7) rotate(45)" xlink:href="#linear-gradient-16"/><linearGradient id="linear-gradient-29" x1="188.06" y1="555.18" x2="171.42" y2="538.54" gradientUnits="userSpaceOnUse"><stop offset="0" stop-color="#183bbb"/><stop offset="1" stop-color="#3ee3de" stop-opacity="0.78"/></linearGradient><linearGradient id="linear-gradient-30" x1="180.98" y1="484.6" x2="172.52" y2="476.14" xlink:href="#linear-gradient-29"/><linearGradient id="linear-gradient-31" x1="212.19" y1="506.46" x2="197.76" y2="492.02" xlink:href="#linear-gradient-29"/><linearGradient id="linear-gradient-32" x1="233.73" y1="527.79" x2="221.29" y2="515.35" xlink:href="#linear-gradient-29"/><linearGradient id="linear-gradient-33" x1="216.83" y1="553.68" x2="210.79" y2="547.63" xlink:href="#linear-gradient-29"/><linearGradient id="linear-gradient-34" x1="164.12" y1="520.38" x2="149.98" y2="506.24" xlink:href="#linear-gradient-29"/></defs><g class="cls-2"><g id="圖層_1" data-name="圖層 1"><path class="cls-3" d="M-3,1082H791.7c-13.28-44.71-49.37-87.24-104.73-108.09-34.88-13.14-77.94-18.5-101.62-41.45-19.85-19.25-20-46.19-10.91-69.39s26.38-44.16,39.32-66.36c20.23-34.65,29.9-73.78,17.63-110.38s-49.18-69.9-98.71-79.81c-53.59-10.69-119,4.73-161-22-47-29.87-28.6-90.92-71.38-124.06-27.33-21.18-72-24.34-111.29-20s-93.94.66-117.1-12.88C45.92,412.4,17.67,347-3,336Z"/><g class="cls-4"><path class="cls-5" d="M518.33,916.11c23.93-34.43-50.77-68.23,34.12-75.55,31.75-2.72,39.93-19.52,41.73-30.36H581.67c-6.39,10.67-27.31,23.54-89.75,26.3-110.49,4.89,57.68,239.26-130,208.79s-234-75.55-313.19-19.5c-15.73,11.13-33.08,20.48-50,28.71v26.21H606.82C595.91,999.8,435.85,1034.73,518.33,916.11Z"/><path class="cls-6" d="M1.63,532v549.21H156.7c57.83-34.39,101.11-80.89,20.76-122.18C26.94,881.7,102.19,712.77,217.32,771.79,372.47,851.34,452.47,694.43,493,696.87V572.06c-58.89,10.12-106.45,34.86-116,63.65-5,15-.63,30.34-1.85,45.54s-9.16,31.32-33.34,41.69-68.16,11.7-87.81-.54c-14.67-9.11-11.4-21.59-11.44-32.92s-7.94-24.87-31.57-28.16c-44-6.09-56.57,36-123.16,19.91C20.3,664.93,88.89,564.87,1.63,532Z"/></g><circle class="cls-7" cx="545.34" cy="966.08" r="16.45" transform="translate(-326.88 280.56) rotate(-22.39)"/><path class="cls-8" d="M592.56,887.18A11.58,11.58,0,1,1,581,875.6,11.57,11.57,0,0,1,592.56,887.18Z"/><circle class="cls-9" cx="605.66" cy="1032.5" r="9.14"/><polygon class="cls-10" points="593.23 982.09 594.82 988.63 601.36 990.22 594.82 991.8 593.23 998.35 591.65 991.8 585.1 990.22 591.65 988.63 593.23 982.09"/><polygon class="cls-7" points="552.6 852.6 554.37 859.89 561.66 861.66 554.37 863.43 552.6 870.72 550.83 863.43 543.54 861.66 550.83 859.89 552.6 852.6"/><polygon class="cls-11" points="509.46 963.65 510.87 969.48 516.7 970.89 510.87 972.3 509.46 978.13 508.04 972.3 502.21 970.89 508.04 969.48 509.46 963.65"/><path class="cls-12" d="M230,812.33c-5.76,5.76-12.55,8.31-15.16,5.7s-.06-9.4,5.7-15.16S262.3,765.35,264.91,768,235.76,806.57,230,812.33Z"/><path class="cls-13" d="M371.76,878c-3.63,3.63-7.91,5.24-9.55,3.6s0-5.93,3.59-9.56,26.32-23.64,28-22S375.39,874.38,371.76,878Z"/><path class="cls-14" d="M450.89,1056.26c-5.76,5.76-12.54,8.32-15.16,5.71s-.05-9.4,5.71-15.16,41.75-37.52,44.36-34.91S456.65,1050.5,450.89,1056.26Z"/><path class="cls-15" d="M69.46,1051.39c-5.76,5.76-12.55,8.31-15.16,5.7s-.06-9.4,5.7-15.16,41.75-37.52,44.36-34.9S75.22,1045.63,69.46,1051.39Z"/><circle class="cls-16" cx="23.15" cy="838.13" r="4.87"/><circle class="cls-16" cx="134.86" cy="1007.52" r="2.03"/><path class="cls-16" d="M282.62,876.21a3.25,3.25,0,1,1-3.25-3.25A3.26,3.26,0,0,1,282.62,876.21Z"/><path class="cls-17" d="M408.24,935.62a2.44,2.44,0,1,1-2.44-2.44A2.44,2.44,0,0,1,408.24,935.62Z"/><path class="cls-16" d="M434.24,838.13a4.07,4.07,0,1,1-4.06-4.07A4.06,4.06,0,0,1,434.24,838.13Z"/><path class="cls-17" d="M523.61,1051.39a3.66,3.66,0,1,1-3.66-3.66A3.66,3.66,0,0,1,523.61,1051.39Z"/><path class="cls-16" d="M383.87,1065.2a1.22,1.22,0,1,1-1.22-1.22A1.22,1.22,0,0,1,383.87,1065.2Z"/><circle class="cls-17" cx="28.83" cy="1055.86" r="1.62"/><path class="cls-16" d="M37,988.83A2.85,2.85,0,1,1,34.12,986,2.85,2.85,0,0,1,37,988.83Z"/><path class="cls-16" d="M134.45,838.53a2,2,0,1,1-2-2A2,2,0,0,1,134.45,838.53Z"/><path class="cls-16" d="M193,903.53a2,2,0,1,1-2-2A2,2,0,0,1,193,903.53Z"/><path class="cls-16" d="M318.06,837.31a2.44,2.44,0,1,1-2.44-2.43A2.44,2.44,0,0,1,318.06,837.31Z"/><path class="cls-17" d="M217.32,1057.08a2,2,0,1,1-2-2A2,2,0,0,1,217.32,1057.08Z"/><path class="cls-17" d="M426.93,978.68a1.63,1.63,0,1,1-1.63-1.63A1.63,1.63,0,0,1,426.93,978.68Z"/><circle class="cls-16" cx="530.51" cy="824.72" r="2.03"/><path class="cls-16" d="M342.43,902.31a1.63,1.63,0,0,1-3.25,0,1.63,1.63,0,1,1,3.25,0Z"/><polygon class="cls-16" points="228.69 899.01 229.97 904.28 235.24 905.56 229.97 906.84 228.69 912.11 227.41 906.84 222.14 905.56 227.41 904.28 228.69 899.01"/><polygon class="cls-16" points="252.25 830.76 253.38 835.38 258 836.5 253.38 837.62 252.25 842.25 251.13 837.62 246.51 836.5 251.13 835.38 252.25 830.76"/><polygon class="cls-16" points="491.11 1014.58 492.35 1019.68 497.45 1020.92 492.35 1022.16 491.11 1027.27 489.87 1022.16 484.76 1020.92 489.87 1019.68 491.11 1014.58"/><polygon class="cls-16" points="125.51 1054.72 126.53 1058.9 130.72 1059.92 126.53 1060.93 125.51 1065.12 124.5 1060.93 120.31 1059.92 124.5 1058.9 125.51 1054.72"/><polygon class="cls-17" points="12.59 870.36 13.59 874.5 17.73 875.5 13.59 876.5 12.59 880.64 11.58 876.5 7.45 875.5 11.58 874.5 12.59 870.36"/><polygon class="cls-16" points="79.21 826.09 80.44 831.2 85.55 832.44 80.44 833.68 79.21 838.78 77.97 833.68 72.86 832.44 77.97 831.2 79.21 826.09"/><polygon class="cls-16" points="413.12 895 413.91 898.26 417.18 899.06 413.91 899.85 413.12 903.12 412.32 899.85 409.05 899.06 412.32 898.26 413.12 895"/><path class="cls-16" d="M179.13,1020.11a2.44,2.44,0,1,1-2.43-2.44A2.43,2.43,0,0,1,179.13,1020.11Z"/><circle class="cls-16" cx="9.74" cy="962.83" r="1.22"/><circle class="cls-17" cx="167.35" cy="824.72" r="2.03"/><path class="cls-16" d="M378.18,824.72a2,2,0,1,1-2-2A2,2,0,0,1,378.18,824.72Z"/><path class="cls-18" d="M206.2,695.46c-5.76,5.76-12.55,8.32-15.16,5.71s-.06-9.4,5.7-15.16,41.75-37.52,44.36-34.91S212,689.7,206.2,695.46Z"/><path class="cls-19" d="M471.31,763.32c-3.63,3.63-7.91,5.23-9.55,3.59s0-5.92,3.59-9.55,26.32-23.65,28-22S474.94,759.68,471.31,763.32Z"/><path class="cls-20" d="M66.62,540.41c-3.63,3.63-7.9,5.24-9.55,3.6s0-5.93,3.59-9.56,26.32-23.64,28-22S70.26,536.78,66.62,540.41Z"/><path class="cls-21" d="M63,796c-5.76,5.76-12.54,8.31-15.15,5.7s-.06-9.4,5.7-15.16,41.75-37.52,44.36-34.91S68.72,790.26,63,796Z"/><circle class="cls-16" cx="46.95" cy="526.5" r="4.87"/><circle class="cls-16" cx="128.36" cy="752.15" r="2.03"/><path class="cls-16" d="M276.13,620.85a3.25,3.25,0,1,1-3.25-3.25A3.25,3.25,0,0,1,276.13,620.85Z"/><path class="cls-17" d="M401.75,680.25a2.44,2.44,0,1,1-2.44-2.43A2.44,2.44,0,0,1,401.75,680.25Z"/><path class="cls-16" d="M427.75,582.76a4.07,4.07,0,1,1-4.07-4.06A4.06,4.06,0,0,1,427.75,582.76Z"/><path class="cls-16" d="M377.37,809.84a1.22,1.22,0,1,1-1.21-1.22A1.22,1.22,0,0,1,377.37,809.84Z"/><circle class="cls-17" cx="22.34" cy="800.49" r="1.62"/><path class="cls-16" d="M30.47,733.47a2.85,2.85,0,1,1-2.85-2.85A2.85,2.85,0,0,1,30.47,733.47Z"/><path class="cls-16" d="M128,583.17a2,2,0,1,1-2-2A2,2,0,0,1,128,583.17Z"/><path class="cls-16" d="M186.45,648.16a2,2,0,1,1-2-2A2,2,0,0,1,186.45,648.16Z"/><path class="cls-16" d="M311.57,582a2.44,2.44,0,1,1-2.44-2.44A2.44,2.44,0,0,1,311.57,582Z"/><path class="cls-17" d="M210.83,801.71a2,2,0,1,1-2-2A2,2,0,0,1,210.83,801.71Z"/><path class="cls-17" d="M420.43,723.31a1.63,1.63,0,1,1-1.62-1.62A1.62,1.62,0,0,1,420.43,723.31Z"/><path class="cls-16" d="M335.94,646.94a1.63,1.63,0,1,1-1.62-1.62A1.63,1.63,0,0,1,335.94,646.94Z"/><polygon class="cls-16" points="222.2 643.64 223.48 648.91 228.75 650.19 223.48 651.47 222.2 656.74 220.92 651.47 215.65 650.19 220.92 648.91 222.2 643.64"/><polygon class="cls-16" points="245.76 575.39 246.88 580.02 251.51 581.14 246.88 582.26 245.76 586.88 244.64 582.26 240.02 581.14 244.64 580.02 245.76 575.39"/><polygon class="cls-16" points="119.02 799.35 120.04 803.54 124.22 804.56 120.04 805.57 119.02 809.76 118.01 805.57 113.82 804.56 118.01 803.54 119.02 799.35"/><polygon class="cls-17" points="6.09 615 7.1 619.13 11.23 620.13 7.1 621.14 6.09 625.27 5.09 621.14 0.96 620.13 5.09 619.13 6.09 615"/><polygon class="cls-16" points="72.71 570.73 73.95 575.84 79.06 577.08 73.95 578.31 72.71 583.42 71.47 578.31 66.37 577.08 71.47 575.84 72.71 570.73"/><polygon class="cls-16" points="406.62 639.63 407.42 642.9 410.68 643.7 407.42 644.49 406.62 647.76 405.83 644.49 402.56 643.7 405.83 642.9 406.62 639.63"/><path class="cls-16" d="M172.64,764.75a2.44,2.44,0,1,1-2.43-2.44A2.43,2.43,0,0,1,172.64,764.75Z"/><circle class="cls-16" cx="3.25" cy="707.47" r="1.22"/><circle class="cls-17" cx="160.86" cy="569.36" r="2.03"/><path class="cls-16" d="M371.69,569.36a2,2,0,1,1-2-2A2,2,0,0,1,371.69,569.36Z"/><path class="cls-16" d="M436.68,1018.08a3.66,3.66,0,1,1-3.66-3.66A3.66,3.66,0,0,1,436.68,1018.08Z"/><path class="cls-16" d="M479.73,981.11a3.25,3.25,0,1,1-3.25-3.25A3.24,3.24,0,0,1,479.73,981.11Z"/><polygon class="cls-16" points="484.31 686.72 482.08 695.94 472.86 698.18 482.08 700.42 484.31 709.64 486.55 700.42 495.77 698.18 486.55 695.94 484.31 686.72"/><polygon class="cls-16" points="112.09 520.09 109.85 529.31 100.63 531.54 109.85 533.78 112.09 543 114.33 533.78 123.55 531.54 114.33 529.31 112.09 520.09"/><circle class="cls-9" cx="328.66" cy="571.55" r="9.14"/><polygon class="cls-10" points="316.23 521.13 317.82 527.68 324.36 529.26 317.82 530.85 316.23 537.39 314.64 530.85 308.1 529.26 314.64 527.68 316.23 521.13"/><circle class="cls-22" cx="153.71" cy="881.23" r="85" transform="translate(-739.26 828.36) rotate(-76.72)"/><path class="cls-23" d="M215.33,882.91c0,.36,0,.71,0,1.05V884c0,.75-.06,1.49-.1,2.22s-.11,1.52-.18,2.27A62.29,62.29,0,0,1,211,905.44a60.33,60.33,0,0,1-6.48,12.2,61,61,0,0,1-7.37,8.89,62.16,62.16,0,0,1-81.2,5.84,60.34,60.34,0,0,1-6.73-5.82,61.91,61.91,0,0,1-13.8-21,0,0,0,0,1,0,0A62.51,62.51,0,0,1,92,871.36a61.84,61.84,0,0,1,10-24.21,63.14,63.14,0,0,1,7.15-8.53,62.15,62.15,0,0,1,65.62-14.34,61.35,61.35,0,0,1,16,8.8c.38.3.77.59,1.13.9a56.74,56.74,0,0,1,5.2,4.64,61.63,61.63,0,0,1,14.64,23.2l.24.7c.17.54.35,1.07.51,1.6s.27.85.39,1.28c.08.26.16.53.23.79s.07.27.1.39.14.48.2.73c.13.53.26,1.08.38,1.62a1.31,1.31,0,0,0,.06.27c.29,1.33.53,2.67.73,4,0,.11,0,.23,0,.34.11.77.22,1.54.3,2.32,0,.16,0,.33,0,.5.07.73.14,1.46.19,2.2s.1,1.78.12,2.68C215.33,881.79,215.33,882.35,215.33,882.91Z"/><path class="cls-24" d="M109.21,838.62a61.76,61.76,0,0,1,33-17.24c-2.45,15,22.84,29.14,1.8,29.54-26.12.49-25.63,13.8-24.15,40.91.83,15.28-12.57,16-24.43,13.71,0,0,0,0,0,0a62.23,62.23,0,0,1,6.66-58.38A63.72,63.72,0,0,1,109.21,838.62Z"/><path class="cls-25" d="M189.33,927.81q.64,2.31,1.11,4.53a60.37,60.37,0,0,1-5.63,3.74,62.23,62.23,0,0,1-54.88,4.17,61.39,61.39,0,0,1-14-7.88c16.73,1.7,36.72.63,33.5-14.92C144,891.33,177.5,886.41,189.33,927.81Z"/><path class="cls-26" d="M215.33,882.91v.47c0,.19,0,.39,0,.58V884c0,.75-.06,1.49-.1,2.22s-.11,1.52-.18,2.27c-11.8,6-26.69-1.22-43-9.85-9.54-5.06-23.93.47-23.75-4.91.22-7,9.46-12.85,17.84-18.73,8.22-5.79,7-19.5,8.65-30.75a61.35,61.35,0,0,1,16,8.8c0,.39.35.68,1.13.9a56.74,56.74,0,0,1,5.2,4.64,61.63,61.63,0,0,1,14.64,23.2c-1.06,1.06-1,1.86.75,2.3.14.43.27.85.39,1.28.08.26.16.53.23.79s.07.27.1.39l.18.73c.15.55.27,1.08.4,1.62a1.31,1.31,0,0,0,.06.27c.1.5.2,1,.29,1.5a62.6,62.6,0,0,1,1.15,10.55C215.33,881.79,215.33,882.35,215.33,882.91Z"/><circle class="cls-27" cx="413.42" cy="979.36" r="97.17"/><path class="cls-28" d="M477.47,996.51a70.15,70.15,0,0,1-2.58,8.26,67.81,67.81,0,0,1-18,26.28,65.82,65.82,0,0,1-7.43,5.79,68.26,68.26,0,0,1-84.48-6.2h0A68.5,68.5,0,0,1,343,985.74a66.76,66.76,0,0,1,.12-12.07,69.3,69.3,0,0,1,3.89-17,67.82,67.82,0,0,1,14.59-23.45,68.26,68.26,0,0,1,110.29,16,67.85,67.85,0,0,1,7,39.16A70.51,70.51,0,0,1,477.47,996.51Z"/><path class="cls-29" d="M471.92,949.22c-26.1-4.15-72.95-11.41-110.29-16A68.28,68.28,0,0,1,386,916.84c27.29,10.07,59.28,21,82.53,26.47A67.94,67.94,0,0,1,471.92,949.22Z"/><path class="cls-30" d="M478.94,988.38c-32.18-8-99.34-24.5-131.9-31.67a66.91,66.91,0,0,1,5.35-11.26c34.11,2.29,90.56,6.55,122.9,11.46A67.8,67.8,0,0,1,478.94,988.38Z"/><path class="cls-31" d="M474.89,1004.77a67.81,67.81,0,0,1-18,26.28c-14.47-8.48-33.43-18.76-52.73-26.78-22.6-9.4-45.8-15.24-61.1-18.53a66.76,66.76,0,0,1,.12-12.07c16.08,1.38,43.06,2.67,69.24,10.23C433.34,990,455.15,998.41,474.89,1004.77Z"/><path class="cls-32" d="M449.43,1036.84a68.12,68.12,0,0,1-12.89,6.87c-19.22-3.89-48.06-9.5-71.59-13.07h0A68.4,68.4,0,0,1,347,1003.89C376.52,1012.49,427.22,1027.69,449.43,1036.84Z"/><path class="cls-33" d="M477.2,963a67.49,67.49,0,0,1,1.79,9.44c26.67,10.42,43.25,21.06,41.53,28.11-1.65,6.77-19.79,8.72-46.41,6.17-17.95-1.69-39.77-5.44-63-11.1-26.54-6.48-50.3-14.33-67.93-22-20.69-9-33-17.84-31.48-24,1.56-6.4,17.88-8.48,42.19-6.54a66.16,66.16,0,0,1,5.8-7.69c-38.84-3.79-66.56.1-69.37,11.64-2.72,11.17,18.63,26.75,52.93,40.92a454.56,454.56,0,0,0,64.69,20.69,467.85,467.85,0,0,0,59.29,10.66c41,4.48,70.56.72,73.47-11.21C543.69,995.81,517.6,978.2,477.2,963Z"/><circle class="cls-34" cx="100.45" cy="692.13" r="91.23"/><path class="cls-35" d="M173.45,691.21a74.57,74.57,0,0,1-.76,10.73v0a75.39,75.39,0,0,1-8.77,26,76.85,76.85,0,0,1-6.76,10.12,75.56,75.56,0,0,1-71.71,27.67,68.88,68.88,0,0,1-8.9-2,74.23,74.23,0,0,1-21.89-10.53c-1.16-.8-2.3-1.65-3.4-2.51a75.79,75.79,0,0,1-13-13c-.39-.49-.76-1-1.13-1.51A75.34,75.34,0,0,1,23.57,705a78.6,78.6,0,0,1-1.13-9.79c-.07-1.32-.11-2.65-.11-4a77.88,77.88,0,0,1,.58-9.36c.22-1.75.49-3.47.83-5.18v0a75.33,75.33,0,0,1,9.87-25.17q1.61-2.6,3.42-5a76.06,76.06,0,0,1,16.49-16.39,75.55,75.55,0,0,1,66.07-11.23,74.2,74.2,0,0,1,20.54,9.75c1.32.88,2.63,1.81,3.89,2.78a74.09,74.09,0,0,1,12.41,12.11c.9,1.09,1.77,2.19,2.58,3.33a73.35,73.35,0,0,1,7.26,12.27c1,2.07,1.88,4.21,2.68,6.38a78.75,78.75,0,0,1,2.6,8.83v0a75.33,75.33,0,0,1,1.39,8.15,74.44,74.44,0,0,1,.49,7.65C173.45,690.46,173.45,690.83,173.45,691.21Z"/><path class="cls-36" d="M156.43,643.46c-12.09,5.1-27.5,9.33-43.55,7.9-28-2.5-65.83,4.81-89.14,25.29a75.33,75.33,0,0,1,9.87-25.17q1.61-2.6,3.42-5c15.44-2.59,34-5.15,50.34-5.93a156.41,156.41,0,0,0,52.76-11.94c1.32.88,2.63,1.81,3.89,2.78A74.09,74.09,0,0,1,156.43,643.46Z"/><path class="cls-37" d="M171.55,674.27v0a144.37,144.37,0,0,1-20.42,9.65c-13.31,5.16-37.64,9.8-55.47,15-7.49,2.17-25.21-3.65-31.88-1.65-13,3.86-25,15.73-33.51,27.67a75.18,75.18,0,0,1-6.7-20,78.6,78.6,0,0,1-1.13-9.79c9.63-12.38,27-25.75,56-22.18,31.1,3.82,65.42-5.74,87.83-13.94,1,2.07,1.88,4.21,2.68,6.38A78.75,78.75,0,0,1,171.55,674.27Z"/><path class="cls-38" d="M173.43,690.09l-.74,11.85v0c-5.63,3.12-12.47,6.79-20.25,10.68-17.17,8.58-34,34.3-58.06,32.44-14-1.08-28.53,3.35-39.72,8.09-1.16-.8-2.3-1.65-3.4-2.51a75.79,75.79,0,0,1-13-13c-.39-.49-.76-1-1.13-1.51,19.34-11.92,49.12-27.07,71.89-28a148.15,148.15,0,0,0,50-11.2A150.92,150.92,0,0,0,173.43,690.09Z"/><path class="cls-39" d="M119.59,618.82c-21.18,11.75-49.07,12.3-66.07,11.23a75.55,75.55,0,0,1,66.07-11.23Z"/><path class="cls-40" d="M157.16,738.07a75.56,75.56,0,0,1-71.71,27.67c5.91-4.25,19.89-13.08,36.67-15.24C134.06,749,147.36,743.15,157.16,738.07Z"/><circle class="cls-41" cx="192.21" cy="515.93" r="77.21"/><circle class="cls-42" cx="191.99" cy="517.12" r="54.13" transform="translate(-309.43 287.22) rotate(-45)"/><g class="cls-43"><path class="cls-44" d="M189.32,546.13A10.32,10.32,0,1,1,179,535.81,10.32,10.32,0,0,1,189.32,546.13Z"/><path class="cls-45" d="M188.65,542.52a10,10,0,0,1,.67,3.61,10.31,10.31,0,0,1-19,5.57,10.31,10.31,0,0,0,20-3.61A10.18,10.18,0,0,0,188.65,542.52Z"/><path class="cls-46" d="M169.87,547.89a10.31,10.31,0,0,1,18.25-6.58,10.31,10.31,0,1,0-17.06,11.4A10.3,10.3,0,0,1,169.87,547.89Z"/></g><g class="cls-43"><path class="cls-47" d="M181.62,480a5.25,5.25,0,1,1-5.24-5.24A5.25,5.25,0,0,1,181.62,480Z"/><path class="cls-45" d="M181.29,478.16a5.3,5.3,0,0,1,.33,1.83,5.24,5.24,0,0,1-9.65,2.84,5.24,5.24,0,1,0,9.32-4.67Z"/><path class="cls-46" d="M171.73,480.89a5.24,5.24,0,0,1,9.28-3.34,5.24,5.24,0,1,0-8.67,5.79A5.17,5.17,0,0,1,171.73,480.89Z"/></g><g class="cls-43"><path class="cls-48" d="M213.28,498.6a8.95,8.95,0,1,1-8.95-9A8.95,8.95,0,0,1,213.28,498.6Z"/><path class="cls-45" d="M212.71,495.47a8.94,8.94,0,0,1-15.9,8,8.94,8.94,0,1,0,15.9-8Z"/><path class="cls-46" d="M196.41,500.13a8.95,8.95,0,0,1,15.83-5.71,8.94,8.94,0,1,0-14.79,9.89A8.92,8.92,0,0,1,196.41,500.13Z"/></g><g class="cls-43"><path class="cls-49" d="M234.67,521a7.71,7.71,0,1,1-7.71-7.71A7.71,7.71,0,0,1,234.67,521Z"/><path class="cls-45" d="M234.17,518.32a7.57,7.57,0,0,1,.5,2.7,7.7,7.7,0,0,1-14.19,4.16,7.7,7.7,0,1,0,13.69-6.86Z"/><path class="cls-46" d="M220.13,522.34a7.71,7.71,0,0,1,13.65-4.92A7.71,7.71,0,1,0,221,525.94,7.67,7.67,0,0,1,220.13,522.34Z"/></g><g class="cls-43"><path class="cls-50" d="M217.29,550.39a3.75,3.75,0,1,1-3.75-3.75A3.74,3.74,0,0,1,217.29,550.39Z"/><path class="cls-45" d="M217.05,549.07a3.82,3.82,0,0,1,.24,1.32,3.75,3.75,0,0,1-6.9,2,3.75,3.75,0,1,0,6.66-3.34Z"/><path class="cls-46" d="M210.22,551a3.75,3.75,0,0,1,6.64-2.39,3.75,3.75,0,1,0-6.2,4.14A3.72,3.72,0,0,1,210.22,551Z"/></g><g class="cls-43"><path class="cls-51" d="M165.19,512.68a8.77,8.77,0,1,1-8.77-8.76A8.77,8.77,0,0,1,165.19,512.68Z"/><path class="cls-45" d="M164.62,509.62a8.62,8.62,0,0,1,.57,3.06,8.76,8.76,0,0,1-16.13,4.74,8.75,8.75,0,1,0,15.56-7.8Z"/><path class="cls-46" d="M148.66,514.19a8.76,8.76,0,0,1,15.51-5.59,8.76,8.76,0,1,0-14.49,9.67A8.66,8.66,0,0,1,148.66,514.19Z"/></g><rect class="cls-1" x="-1.3" y="-2.05" width="1623.07" height="1082.05"/></g></g></svg>