<svg xmlns="http://www.w3.org/2000/svg" xmlns:xlink="http://www.w3.org/1999/xlink" viewBox="0 0 659 1080"><defs><style>.cls-1{isolation:isolate;}.cls-2{fill:url(#linear-gradient);}.cls-10,.cls-14,.cls-15,.cls-16,.cls-22,.cls-3,.cls-31,.cls-4,.cls-5,.cls-8,.cls-9{mix-blend-mode:overlay;}.cls-3{fill:url(#linear-gradient-2);}.cls-4{fill:url(#linear-gradient-3);}.cls-5{fill:url(#linear-gradient-4);}.cls-6{fill:#0571bf;}.cls-7{fill:#2b2e8d;}.cls-8{fill:url(#linear-gradient-5);}.cls-9{fill:url(#linear-gradient-6);}.cls-10{fill:url(#linear-gradient-7);}.cls-11,.cls-13,.cls-22,.cls-31{fill:#fff;}.cls-12{fill:#09c7f5;}.cls-13{opacity:0.57;}.cls-14{fill:url(#linear-gradient-8);}.cls-15{fill:url(#linear-gradient-9);}.cls-16{fill:url(#linear-gradient-10);}.cls-17{fill:#3ee3de;}.cls-18{fill:url(#radial-gradient);}.cls-19{fill:url(#linear-gradient-11);}.cls-20{opacity:0.53;}.cls-21{fill:url(#linear-gradient-12);}.cls-22{opacity:0.48;}.cls-23{fill:#1034a3;opacity:0.7;mix-blend-mode:multiply;}.cls-24{fill:url(#linear-gradient-13);}.cls-25{fill:url(#linear-gradient-14);}.cls-26{fill:url(#linear-gradient-15);}.cls-27{fill:url(#linear-gradient-16);}.cls-28{fill:url(#linear-gradient-17);}.cls-29{fill:url(#radial-gradient-2);}.cls-30{fill:url(#linear-gradient-18);}.cls-31{opacity:0.38;}.cls-32{fill:url(#linear-gradient-19);}.cls-33{fill:url(#radial-gradient-3);}.cls-34{fill:url(#linear-gradient-20);}.cls-35{fill:#0592f7;}.cls-36{fill:url(#linear-gradient-21);}.cls-37{fill:url(#linear-gradient-22);}.cls-38{fill:url(#radial-gradient-4);}.cls-39{fill:url(#linear-gradient-23);}.cls-40{fill:url(#linear-gradient-24);}.cls-41{fill:#b816b8;}.cls-42{fill:url(#linear-gradient-25);}.cls-43{fill:url(#linear-gradient-26);}.cls-44{fill:url(#linear-gradient-27);}.cls-45{fill:url(#linear-gradient-28);}.cls-46{fill:url(#linear-gradient-29);}.cls-47{fill:url(#linear-gradient-30);}.cls-48{fill:url(#linear-gradient-31);}.cls-49{fill:url(#linear-gradient-32);}</style><linearGradient id="linear-gradient" x1="223.47" y1="620.97" x2="677.75" y2="1075.25" gradientUnits="userSpaceOnUse"><stop offset="0" stop-color="#09c7f5"/><stop offset="1" stop-color="#2b2e8d"/></linearGradient><linearGradient id="linear-gradient-2" x1="59.46" y1="-525.3" x2="346.46" y2="-238.3" gradientTransform="translate(1022.79 775.56) rotate(-90)" gradientUnits="userSpaceOnUse"><stop offset="0" stop-color="#fff" stop-opacity="0"/><stop offset="0.28" stop-color="#fff" stop-opacity="0.26"/><stop offset="0.91" stop-color="#fff" stop-opacity="0.91"/><stop offset="1" stop-color="#fff"/></linearGradient><linearGradient id="linear-gradient-3" x1="527.03" y1="1056.13" x2="363.55" y2="753.61" gradientTransform="matrix(-1, 0, 0, 1, 915.91, 0)" xlink:href="#linear-gradient-2"/><linearGradient id="linear-gradient-4" x1="668.29" y1="1159.61" x2="258.83" y2="923.8" gradientUnits="userSpaceOnUse"><stop offset="0" stop-color="#fff"/><stop offset="0.09" stop-color="#fff" stop-opacity="0.94"/><stop offset="0.28" stop-color="#fff" stop-opacity="0.78"/><stop offset="0.53" stop-color="#fff" stop-opacity="0.53"/><stop offset="0.84" stop-color="#fff" stop-opacity="0.19"/><stop offset="1" stop-color="#fff" stop-opacity="0"/></linearGradient><linearGradient id="linear-gradient-5" x1="1046.35" y1="989.79" x2="1046.35" y2="923.31" gradientTransform="matrix(-0.71, 0.71, 0.71, 0.71, 417.38, -524.32)" gradientUnits="userSpaceOnUse"><stop offset="0" stop-color="#fff" stop-opacity="0.78"/><stop offset="1" stop-color="#fff" stop-opacity="0"/></linearGradient><linearGradient id="linear-gradient-6" x1="1232.33" y1="1038.42" x2="1232.33" y2="989.11" xlink:href="#linear-gradient-5"/><linearGradient id="linear-gradient-7" x1="998.88" y1="1253.01" x2="998.88" y2="1193.39" xlink:href="#linear-gradient-5"/><linearGradient id="linear-gradient-8" x1="781.61" y1="930.11" x2="781.61" y2="863.63" xlink:href="#linear-gradient-5"/><linearGradient id="linear-gradient-9" x1="967.6" y1="978.74" x2="967.6" y2="929.43" xlink:href="#linear-gradient-5"/><linearGradient id="linear-gradient-10" x1="619.37" y1="897.99" x2="619.37" y2="838.37" xlink:href="#linear-gradient-5"/><radialGradient id="radial-gradient" cx="328.54" cy="892.19" r="71.54" gradientTransform="matrix(-1, 0, 0, 1, 915.91, 0)" gradientUnits="userSpaceOnUse"><stop offset="0" stop-color="#63ffff"/><stop offset="0.12" stop-color="#63ffff" stop-opacity="0.82"/><stop offset="0.3" stop-color="#63ffff" stop-opacity="0.58"/><stop offset="0.47" stop-color="#63ffff" stop-opacity="0.37"/><stop offset="0.64" stop-color="#63ffff" stop-opacity="0.21"/><stop offset="0.78" stop-color="#63ffff" stop-opacity="0.09"/><stop offset="0.91" stop-color="#63ffff" stop-opacity="0.02"/><stop offset="1" stop-color="#63ffff" stop-opacity="0"/></radialGradient><linearGradient id="linear-gradient-11" x1="349.08" y1="929.69" x2="308.72" y2="858.89" gradientTransform="matrix(-0.71, -0.71, -0.71, 0.71, 1451.4, 493.81)" gradientUnits="userSpaceOnUse"><stop offset="0" stop-color="#3ee3de"/><stop offset="1" stop-color="#0592f7"/></linearGradient><linearGradient id="linear-gradient-12" x1="324.7" y1="928.56" x2="309.28" y2="913.14" gradientTransform="matrix(-1, 0, 0, 1, 915.91, 0)" gradientUnits="userSpaceOnUse"><stop offset="0" stop-color="#183bbb"/><stop offset="1" stop-color="#3ee3de" stop-opacity="0.78"/></linearGradient><linearGradient id="linear-gradient-13" x1="318.14" y1="863.16" x2="310.3" y2="855.32" xlink:href="#linear-gradient-12"/><linearGradient id="linear-gradient-14" x1="347.05" y1="883.41" x2="333.68" y2="870.04" xlink:href="#linear-gradient-12"/><linearGradient id="linear-gradient-15" x1="367.01" y1="903.18" x2="355.48" y2="891.65" xlink:href="#linear-gradient-12"/><linearGradient id="linear-gradient-16" x1="351.35" y1="927.16" x2="345.75" y2="921.56" xlink:href="#linear-gradient-12"/><linearGradient id="linear-gradient-17" x1="302.51" y1="896.31" x2="289.42" y2="883.22" xlink:href="#linear-gradient-12"/><radialGradient id="radial-gradient-2" cx="504.62" cy="982.87" r="91.2" gradientTransform="matrix(-1, 0, 0, 1, 915.91, 0)" gradientUnits="userSpaceOnUse"><stop offset="0" stop-color="#fac40f"/><stop offset="1" stop-color="#fac40f" stop-opacity="0"/></radialGradient><linearGradient id="linear-gradient-18" x1="470.13" y1="974.45" x2="373.21" y2="877.53" gradientTransform="matrix(-0.99, -0.16, -0.16, 0.99, 968.87, 140.48)" gradientUnits="userSpaceOnUse"><stop offset="0" stop-color="#fac40f"/><stop offset="1" stop-color="#e72ae3"/></linearGradient><linearGradient id="linear-gradient-19" x1="501.9" y1="1020.9" x2="503.52" y2="976.22" gradientTransform="matrix(-1, 0, 0, 1, 915.91, 0)" gradientUnits="userSpaceOnUse"><stop offset="0" stop-color="#fac40f"/><stop offset="0.04" stop-color="#fac61b"/><stop offset="0.19" stop-color="#f9ce46"/><stop offset="0.35" stop-color="#f9d469"/><stop offset="0.51" stop-color="#f8d984"/><stop offset="0.67" stop-color="#f8dc98"/><stop offset="0.83" stop-color="#f8dea3"/><stop offset="1" stop-color="#f8dfa7"/></linearGradient><radialGradient id="radial-gradient-3" cx="583.22" cy="674.02" r="71.13" gradientUnits="userSpaceOnUse"><stop offset="0" stop-color="#63ffff"/><stop offset="0.34" stop-color="#63ffff" stop-opacity="0.68"/><stop offset="1" stop-color="#63ffff" stop-opacity="0"/></radialGradient><linearGradient id="linear-gradient-20" x1="601.58" y1="713.19" x2="564.88" y2="624.6" gradientTransform="matrix(1, 0, 0, 1, 0, 0)" xlink:href="#linear-gradient-11"/><linearGradient id="linear-gradient-21" x1="587.23" y1="722.63" x2="587.53" y2="692.5" gradientTransform="matrix(1, 0, 0, 1, 0, 0)" xlink:href="#linear-gradient-11"/><linearGradient id="linear-gradient-22" x1="587.15" y1="646.88" x2="581.18" y2="617.05" gradientTransform="matrix(1, 0, 0, 1, 0, 0)" xlink:href="#linear-gradient-11"/><radialGradient id="radial-gradient-4" cx="346.13" cy="522.5" r="38.77" gradientTransform="translate(223.54 -92.14) rotate(22.24)" xlink:href="#radial-gradient-2"/><linearGradient id="linear-gradient-23" x1="317.07" y1="522.72" x2="376.9" y2="522.72" gradientTransform="matrix(1, 0, 0, 1, 0, 0)" xlink:href="#linear-gradient-18"/><linearGradient id="linear-gradient-24" x1="355.94" y1="546.57" x2="344.64" y2="535.27" gradientUnits="userSpaceOnUse"><stop offset="0" stop-color="#e72ae3"/><stop offset="1" stop-color="#fac40f"/></linearGradient><linearGradient id="linear-gradient-25" x1="333.48" y1="521.28" x2="327.32" y2="515.12" xlink:href="#linear-gradient-24"/><linearGradient id="linear-gradient-26" x1="370.66" y1="520.4" x2="362.23" y2="511.98" xlink:href="#linear-gradient-24"/><linearGradient id="linear-gradient-27" x1="349.83" y1="521.63" x2="345.96" y2="517.76" xlink:href="#linear-gradient-24"/><linearGradient id="linear-gradient-28" x1="327.44" y1="499.89" x2="327.41" y2="499.86" xlink:href="#linear-gradient-24"/><linearGradient id="linear-gradient-29" x1="335.61" y1="500.91" x2="331.04" y2="496.34" xlink:href="#linear-gradient-24"/><linearGradient id="linear-gradient-30" x1="348.28" y1="501.95" x2="359.3" y2="501.95" gradientTransform="matrix(1, 0, 0, 1, 0, 0)" xlink:href="#linear-gradient-18"/><linearGradient id="linear-gradient-31" x1="370.23" y1="533.86" x2="361.94" y2="525.87" xlink:href="#linear-gradient-24"/><linearGradient id="linear-gradient-32" x1="335.62" y1="542.05" x2="326.97" y2="533.03" xlink:href="#linear-gradient-24"/></defs><g class="cls-1"><g id="圖層_1" data-name="圖層 1"><path class="cls-2" d="M667,1086V395c-38.84,11.55-75.78,42.93-93.89,91.07-11.42,30.32-16.07,67.76-36,88.36-16.72,17.26-40.11,17.42-60.27,9.48S438.47,561,419.18,549.73c-30.09-17.59-64.08-26-95.87-15.33S262.59,577.16,254,620.22c-9.29,46.6,4.11,103.45-19.11,140-25.95,40.86-79,24.87-107.76,62.06C108.72,846,106,884.87,109.76,919s.57,81.68-11.19,101.82C85.36,1043.46,28.55,1068,19,1086Z"/><path class="cls-3" d="M659.78,508.35V996.48H523.18c-50.93-30.56-89.06-71.89-18.28-108.59C637.48,819.16,571.19,669,469.79,721.47,333.12,792.17,262.66,652.71,227,654.88V544c51.87,9,93.76,31,102.18,56.57,4.4,13.35.55,27,1.63,40.47s8.06,27.84,29.36,37.06,60,10.39,77.35-.48c12.92-8.1,10-19.2,10.08-29.27s7-22.1,27.8-25c38.78-5.41,49.83,32,108.48,17.7C643.33,626.5,582.91,537.57,659.78,508.35Z"/><path class="cls-4" d="M302.38,831.42c10.32,18.13,11.66,51.13-.54,65.88-9.08,11-21.53,8.55-32.83,8.58s-24.79,6-28.07,23.68c-6.08,33,35.89,42.43,19.85,92.39-16.25,50.66-116-.8-148.79,64.67H659.58V970.28c-34.28-43.38-80.64-75.84-121.82-15.57-77.09,112.92-245.53,56.46-186.68-29.9C430.39,808.42,279,750,272,741l-13,26"/><path class="cls-5" d="M518.33,916.11c23.93-34.43-50.77-68.23,34.12-75.55,31.75-2.72,39.93-19.52,41.73-30.36H581.67c-6.39,10.67-27.31,23.54-89.75,26.3-110.49,4.89,57.68,239.26-130,208.79s-234-75.55-313.19-19.5c-15.73,11.13-33.08,20.48-50,28.71v26.21H606.82C595.91,999.8,435.85,1034.73,518.33,916.11Z"/><circle class="cls-6" cx="146.07" cy="935.97" r="14.01"/><circle class="cls-6" cx="70.72" cy="1010.91" r="24.37"/><path class="cls-7" d="M30.92,937.76a7.68,7.68,0,1,1,7.68,7.68A7.67,7.67,0,0,1,30.92,937.76Z"/><path class="cls-8" d="M357.85,908.65c7.77,7.76,16.92,11.2,20.44,7.68s.08-12.67-7.69-20.43-56.29-50.59-59.81-47.07S350.09,900.88,357.85,908.65Z"/><path class="cls-9" d="M265.77,1076.3c5.77,5.76,12.55,8.31,15.16,5.7s.06-9.4-5.7-15.16-41.75-37.52-44.36-34.91S260,1070.54,265.77,1076.3Z"/><path class="cls-10" d="M579.56,1061.91c7,7,15.17,10,18.32,6.89s.07-11.36-6.89-18.33-50.48-45.35-53.63-42.2S572.59,1054.94,579.56,1061.91Z"/><polygon class="cls-11" points="207.81 1051.86 206.29 1058.13 200.01 1059.66 206.29 1061.18 207.81 1067.46 209.34 1061.18 215.62 1059.66 209.34 1058.13 207.81 1051.86"/><polygon class="cls-11" points="164.15 856.79 163.24 860.52 159.51 861.43 163.24 862.33 164.15 866.06 165.05 862.33 168.78 861.43 165.05 860.52 164.15 856.79"/><polygon class="cls-11" points="346.13 949.89 344.45 956.83 337.51 958.51 344.45 960.19 346.13 967.13 347.81 960.19 354.75 958.51 347.81 956.83 346.13 949.89"/><polygon class="cls-11" points="533.8 1063.55 531.94 1071.21 524.28 1073.06 531.94 1074.92 533.8 1082.58 535.66 1074.92 543.32 1073.06 535.66 1071.21 533.8 1063.55"/><polygon class="cls-11" points="599 980.56 596.77 989.78 587.55 992.02 596.77 994.26 599 1003.48 601.24 994.26 610.46 992.02 601.24 989.78 599 980.56"/><polygon class="cls-11" points="462.51 857.36 461.32 862.27 456.42 863.46 461.32 864.65 462.51 869.55 463.7 864.65 468.61 863.46 463.7 862.27 462.51 857.36"/><polygon class="cls-12" points="94.51 907.74 93.29 912.78 88.25 914 93.29 915.22 94.51 920.27 95.73 915.22 100.78 914 95.73 912.78 94.51 907.74"/><polygon class="cls-7" points="118.45 1035.9 117.53 1039.65 113.78 1040.57 117.53 1041.48 118.45 1045.24 119.36 1041.48 123.12 1040.57 119.36 1039.65 118.45 1035.9"/><polygon class="cls-7" points="17.1 990.18 15.07 998.53 6.72 1000.55 15.07 1002.58 17.1 1010.93 19.12 1002.58 27.47 1000.55 19.12 998.53 17.1 990.18"/><circle class="cls-11" cx="455.81" cy="928.05" r="3.05"/><circle class="cls-13" cx="249.86" cy="850.66" r="3.05"/><circle class="cls-11" cx="304.09" cy="860.41" r="1.22"/><path class="cls-11" d="M284.59,1000.55a1.83,1.83,0,1,0,1.83-1.82A1.83,1.83,0,0,0,284.59,1000.55Z"/><path class="cls-13" d="M197.46,1027.06a2.13,2.13,0,1,0,2.13-2.13A2.13,2.13,0,0,0,197.46,1027.06Z"/><path class="cls-11" d="M156,996a2.14,2.14,0,1,0,2.13-2.13A2.14,2.14,0,0,0,156,996Z"/><path class="cls-13" d="M335.16,1079.16a2.44,2.44,0,1,0,2.44-2.44A2.43,2.43,0,0,0,335.16,1079.16Z"/><circle class="cls-11" cx="542.33" cy="1005.43" r="1.22"/><path class="cls-13" d="M613.62,1080.07a2.14,2.14,0,1,0,2.14-2.13A2.13,2.13,0,0,0,613.62,1080.07Z"/><path class="cls-11" d="M608.14,851.88a1.83,1.83,0,1,0,1.83-1.83A1.83,1.83,0,0,0,608.14,851.88Z"/><path class="cls-11" d="M544.16,847a1.22,1.22,0,1,0,1.22-1.22A1.22,1.22,0,0,0,544.16,847Z"/><path class="cls-11" d="M387.57,846.7a.91.91,0,1,0,1.82,0,.91.91,0,0,0-1.82,0Z"/><path class="cls-11" d="M410.11,898.49a.92.92,0,1,0,.91-.91A.92.92,0,0,0,410.11,898.49Z"/><path class="cls-11" d="M616,946.93a.64.64,0,1,0,.64-.63A.64.64,0,0,0,616,946.93Z"/><path class="cls-13" d="M80.87,847.21a1.63,1.63,0,1,0,1.63-1.63A1.62,1.62,0,0,0,80.87,847.21Z"/><path class="cls-11" d="M504,967a2.44,2.44,0,1,0,2.43-2.44A2.43,2.43,0,0,0,504,967Z"/><circle class="cls-13" cx="500.59" cy="857.06" r="1.52"/><path class="cls-14" d="M502.85,679.25c7.76,7.77,16.91,11.21,20.43,7.69s.08-12.67-7.68-20.44-56.29-50.58-59.81-47.06S495.08,671.48,502.85,679.25Z"/><path class="cls-15" d="M410.77,846.9c5.76,5.76,12.55,8.32,15.16,5.71s.06-9.4-5.7-15.16-41.76-37.52-44.37-34.91S405,841.14,410.77,846.9Z"/><path class="cls-16" d="M596.87,542.52c7,7,15.17,10.05,18.33,6.9s.07-11.37-6.9-18.33-50.47-45.36-53.63-42.2S589.91,535.56,596.87,542.52Z"/><polygon class="cls-11" points="352.81 822.46 351.29 828.74 345.01 830.26 351.29 831.79 352.81 838.07 354.33 831.79 360.61 830.26 354.33 828.74 352.81 822.46"/><polygon class="cls-11" points="309.14 627.4 308.24 631.13 304.51 632.03 308.24 632.94 309.14 636.66 310.05 632.94 313.77 632.03 310.05 631.13 309.14 627.4"/><polygon class="cls-11" points="491.13 720.5 489.44 727.43 482.51 729.12 489.44 730.8 491.13 737.73 492.81 730.8 499.74 729.12 492.81 727.43 491.13 720.5"/><polygon class="cls-11" points="289.26 580.95 287.4 588.61 279.74 590.47 287.4 592.33 289.26 599.99 291.12 592.33 298.78 590.47 291.12 588.61 289.26 580.95"/><polygon class="cls-11" points="226.78 742.51 224.54 751.73 215.32 753.97 224.54 756.21 226.78 765.43 229.02 756.21 238.24 753.97 229.02 751.73 226.78 742.51"/><polygon class="cls-11" points="607.51 627.97 606.32 632.87 601.41 634.06 606.32 635.25 607.51 640.16 608.7 635.25 613.6 634.06 608.7 632.87 607.51 627.97"/><polygon class="cls-12" points="239.51 678.34 238.28 683.38 233.24 684.61 238.28 685.83 239.51 690.87 240.73 685.83 245.77 684.61 240.73 683.38 239.51 678.34"/><polygon class="cls-7" points="263.44 806.5 262.53 810.26 258.77 811.17 262.53 812.09 263.44 815.84 264.35 812.09 268.11 811.17 264.35 810.26 263.44 806.5"/><circle class="cls-11" cx="600.8" cy="698.65" r="3.05"/><circle class="cls-13" cx="394.85" cy="621.27" r="3.05"/><circle class="cls-11" cx="449.08" cy="631.02" r="1.22"/><path class="cls-11" d="M429.58,771.16a1.83,1.83,0,1,0,1.83-1.83A1.83,1.83,0,0,0,429.58,771.16Z"/><path class="cls-13" d="M342.45,797.67a2.14,2.14,0,1,0,2.13-2.14A2.14,2.14,0,0,0,342.45,797.67Z"/><path class="cls-11" d="M301,766.59a2.13,2.13,0,1,0,2.13-2.13A2.13,2.13,0,0,0,301,766.59Z"/><path class="cls-13" d="M480.16,849.76a2.44,2.44,0,1,0,2.44-2.43A2.44,2.44,0,0,0,480.16,849.76Z"/><circle class="cls-11" cx="641.32" cy="853.11" r="1.52"/><path class="cls-13" d="M576.83,578a2.14,2.14,0,1,0,2.14-2.13A2.13,2.13,0,0,0,576.83,578Z"/><path class="cls-11" d="M532.56,617.31a.92.92,0,1,0,.91-.92A.91.91,0,0,0,532.56,617.31Z"/><path class="cls-11" d="M555.1,669.1a.92.92,0,1,0,.92-.92A.92.92,0,0,0,555.1,669.1Z"/><path class="cls-13" d="M225.87,617.81a1.63,1.63,0,1,0,1.62-1.62A1.62,1.62,0,0,0,225.87,617.81Z"/><path class="cls-11" d="M648.94,737.65a2.44,2.44,0,1,0,2.44-2.44A2.43,2.43,0,0,0,648.94,737.65Z"/><circle class="cls-13" cx="645.59" cy="627.66" r="1.52"/><polygon class="cls-6" points="491.08 535.59 492.66 542.13 499.21 543.72 492.66 545.3 491.08 551.84 489.49 545.3 482.95 543.72 489.49 542.13 491.08 535.59"/><polygon class="cls-6" points="179.43 726.79 181.08 733.58 187.87 735.23 181.08 736.88 179.43 743.66 177.78 736.88 171 735.23 177.78 733.58 179.43 726.79"/><path class="cls-17" d="M187.76,814.17a14.37,14.37,0,1,0-14.37,14.37A14.37,14.37,0,0,0,187.76,814.17Z"/><circle class="cls-7" cx="455.57" cy="572.6" r="10.17"/><circle class="cls-18" cx="587.37" cy="892.19" r="71.54"/><circle class="cls-19" cx="587.57" cy="893.29" r="50.15" transform="translate(-459.56 677.12) rotate(-45)"/><g class="cls-20"><path class="cls-21" d="M590.05,920.17a9.56,9.56,0,1,0,9.56-9.56A9.55,9.55,0,0,0,590.05,920.17Z"/><path class="cls-22" d="M590.66,916.82a9.55,9.55,0,0,0,17,8.51,9.55,9.55,0,1,1-17-8.51Z"/><path class="cls-23" d="M608.07,921.81a9.55,9.55,0,0,0-16.91-6.1A9.55,9.55,0,1,1,607,926.27,9.48,9.48,0,0,0,608.07,921.81Z"/></g><g class="cls-20"><circle class="cls-24" cx="602.04" cy="858.9" r="4.86"/><path class="cls-22" d="M597.49,857.2a4.79,4.79,0,0,0-.31,1.7,4.85,4.85,0,0,0,8.94,2.62,4.85,4.85,0,0,1-9.4-1.7A4.77,4.77,0,0,1,597.49,857.2Z"/><path class="cls-23" d="M606.34,859.73a4.86,4.86,0,0,0-8.6-3.1,4.86,4.86,0,1,1,8,5.37A4.83,4.83,0,0,0,606.34,859.73Z"/></g><g class="cls-20"><path class="cls-25" d="M567.85,876.13a8.29,8.29,0,1,0,8.29-8.29A8.29,8.29,0,0,0,567.85,876.13Z"/><path class="cls-22" d="M568.38,873.23a8.28,8.28,0,0,0,14.72,7.38,8.28,8.28,0,1,1-14.72-7.38Z"/><path class="cls-23" d="M583.48,877.55a8.29,8.29,0,0,0-14.67-5.28,8.29,8.29,0,1,1,13.71,9.15A8.24,8.24,0,0,0,583.48,877.55Z"/></g><g class="cls-20"><circle class="cls-26" cx="555.18" cy="896.91" r="7.14"/><path class="cls-22" d="M548.49,894.4a7.14,7.14,0,0,0,12.69,6.37,7.14,7.14,0,1,1-12.69-6.37Z"/><path class="cls-23" d="M561.5,898.13a7.14,7.14,0,0,0-12.64-4.56,7.14,7.14,0,1,1,11.82,7.89A7.16,7.16,0,0,0,561.5,898.13Z"/></g><g class="cls-20"><circle class="cls-27" cx="567.61" cy="924.11" r="3.47"/><path class="cls-22" d="M564.36,922.9a3.29,3.29,0,0,0-.23,1.21,3.47,3.47,0,0,0,6.39,1.88,3.47,3.47,0,1,1-6.16-3.09Z"/><path class="cls-23" d="M570.68,924.71a3.47,3.47,0,0,0-6.14-2.22,3.47,3.47,0,1,1,5.74,3.84A3.5,3.5,0,0,0,570.68,924.71Z"/></g><g class="cls-20"><path class="cls-28" d="M612.41,889.18a8.12,8.12,0,1,0,8.12-8.11A8.11,8.11,0,0,0,612.41,889.18Z"/><path class="cls-22" d="M612.93,886.34a8.11,8.11,0,0,0,14.42,7.23,8.11,8.11,0,1,1-14.42-7.23Z"/><path class="cls-23" d="M627.72,890.58a8.12,8.12,0,0,0-14.37-5.18,8.11,8.11,0,1,1,13.42,9A8.06,8.06,0,0,0,627.72,890.58Z"/></g><circle class="cls-29" cx="411.29" cy="982.87" r="91.2"/><path class="cls-30" d="M345.27,973.28a65,65,0,0,0-.83,11.66,65.77,65.77,0,0,0,6,26.46,68.31,68.31,0,0,0,5.41,9.54,66.07,66.07,0,0,0,119.92-26.63c.25-1.55.43-3.08.58-4.62.17-1.92.27-3.84.27-5.75a64.76,64.76,0,0,0-1.32-13.26,66.1,66.1,0,0,0-101-42.19,72.52,72.52,0,0,0-6.71,5,65.94,65.94,0,0,0-22.33,39.75Z"/><path class="cls-31" d="M367.6,933.53c10.86,3.54,25,8.35,37.91,13.36,15.06,5.86,46.6,16.27,69.8,23.79A65.93,65.93,0,0,0,463,943.6c-10.12-3.25-21.47-5.57-32.25-5-17.48,1-40.26-4.94-56.45-10.12A72.52,72.52,0,0,0,367.6,933.53Z"/><path class="cls-31" d="M476.63,983.94c-4.19-2.05-40.39-8.81-61.73-16.23-15.77-5.5-40.88-19-54.7-26.78a65.84,65.84,0,0,0-14.93,32.35,65,65,0,0,0-.83,11.66c19.38-.88,45.5-2.39,64.95-4.62,27.33-3.14,55.8,5.46,67,9.37Z"/><path class="cls-31" d="M350.45,1011.4a68.31,68.31,0,0,0,5.41,9.54l47.34,7.36L437.88,1044a66.24,66.24,0,0,0,31.22-29.5c-5.72-2.63-15-4.72-30.17-4.31-36.83,1-80.91,1.62-80.91,1.62Z"/><path class="cls-32" d="M352.85,951.49a64.54,64.54,0,0,0-4.24,9.15c-14.7-.19-23.89,1.18-24.39,4.25s7.35,7,20.66,11.33c15.85,5.09,39.44,10.48,66,14.77,25,4,47.79,6.29,64.25,6.67,15.78.34,25.74-1,26.26-4.22s-9-7.87-24.83-12.61a68.28,68.28,0,0,0-1.23-10.06c30.47,9.14,50,19.71,48.65,28-1.3,8.07-22.17,12-52.81,11.32A462.87,462.87,0,0,1,408.8,1004a457.7,457.7,0,0,1-64.16-14.78c-27.53-8.76-44.79-18.61-43.53-26.39C302.39,954.86,322.81,950.93,352.85,951.49Z"/><circle class="cls-33" cx="583.22" cy="674.02" r="71.13"/><path class="cls-34" d="M629.26,696.74A51.46,51.46,0,0,1,542,700.83c-.78-1.15-1.53-2.32-2.21-3.51a51.63,51.63,0,0,1-6.63-30.92,50.13,50.13,0,0,1,2.42-11.17A51.46,51.46,0,1,1,633,688.32,52.45,52.45,0,0,1,629.26,696.74Z"/><path class="cls-35" d="M635.58,666.78a59.37,59.37,0,0,1-19.11,1.7c-25.83-1.35-58.62-29.28-80.9-13.26a51.45,51.45,0,0,1,73.91-28.52,53.35,53.35,0,0,1,6.26,4.13A51.4,51.4,0,0,1,635.58,666.78Z"/><path class="cls-36" d="M629.26,696.74A51.47,51.47,0,0,1,542,700.83c11.29-12.44,31.24-17.3,44.45-12.89,16,5.33,33.66,3.36,46.59.38A52.45,52.45,0,0,1,629.26,696.74Z"/><path class="cls-37" d="M596.3,641.23c-19.89-2.1-32.57-8.53-44-9.85a51.47,51.47,0,0,1,57.23-4.68,53.35,53.35,0,0,1,6.26,4.13C613.79,637,608.66,642.54,596.3,641.23Z"/><circle class="cls-38" cx="346.13" cy="522.5" r="38.77" transform="translate(-172.03 169.9) rotate(-22.24)"/><path class="cls-39" d="M376.9,522.73a29.92,29.92,0,1,1-49.5-22.61.53.53,0,0,1,.14-.12,29.61,29.61,0,0,1,9-5.32h0a29.91,29.91,0,0,1,40.32,28.05Z"/><g class="cls-20"><path class="cls-40" d="M356.8,540.42a7,7,0,1,1-7-7A7,7,0,0,1,356.8,540.42Z"/><path class="cls-22" d="M356.35,538a7.1,7.1,0,0,1,.45,2.45,7,7,0,0,1-12.89,3.78A7,7,0,1,0,356.35,538Z"/><path class="cls-41" d="M343.59,541.62A7,7,0,0,1,356,537.15a7,7,0,1,0-11.58,7.74A7.07,7.07,0,0,1,343.59,541.62Z"/></g><g class="cls-20"><path class="cls-42" d="M333.94,517.93a3.81,3.81,0,1,1-3.81-3.82A3.82,3.82,0,0,1,333.94,517.93Z"/><path class="cls-22" d="M333.7,516.59a4,4,0,0,1,.24,1.34,3.81,3.81,0,0,1-7,2.06,3.81,3.81,0,1,0,6.78-3.4Z"/><path class="cls-41" d="M326.75,518.58a3.81,3.81,0,0,1,6.75-2.43,3.81,3.81,0,1,0-6.31,4.21A3.81,3.81,0,0,1,326.75,518.58Z"/></g><g class="cls-20"><path class="cls-43" d="M371.29,515.82a5.23,5.23,0,1,1-5.22-5.23A5.22,5.22,0,0,1,371.29,515.82Z"/><path class="cls-22" d="M371,514a5.22,5.22,0,0,1-9.28,4.65A5.22,5.22,0,1,0,371,514Z"/><path class="cls-41" d="M361.44,516.71a5.23,5.23,0,0,1,9.25-3.33,5.23,5.23,0,0,0-9.85,2.44,5.15,5.15,0,0,0,1.21,3.33A5.16,5.16,0,0,1,361.44,516.71Z"/></g><g class="cls-20"><path class="cls-44" d="M350.12,519.52a2.4,2.4,0,1,1-2.4-2.4A2.39,2.39,0,0,1,350.12,519.52Z"/><path class="cls-22" d="M350,518.68a2.65,2.65,0,0,1,.15.84,2.4,2.4,0,0,1-4.42,1.3,2.4,2.4,0,1,0,4.27-2.14Z"/><path class="cls-41" d="M345.59,519.94a2.41,2.41,0,0,1,4.25-1.54,2.4,2.4,0,0,0-4.52,1.12,2.43,2.43,0,0,0,.55,1.54A2.51,2.51,0,0,1,345.59,519.94Z"/></g><g class="cls-20"><path class="cls-45" d="M327.41,499.86l0,0h0Z"/><path class="cls-46" d="M336.88,496.46a5.34,5.34,0,0,1-5.34,5.35,3.31,3.31,0,0,1-.55,0,3.93,3.93,0,0,1-.48-.06l-.39-.1-.26-.08-.47-.17-.31-.16a3.92,3.92,0,0,1-.56-.33,2.72,2.72,0,0,1-.38-.29h0a3.89,3.89,0,0,1-.36-.34,2.4,2.4,0,0,1-.22-.24,29.61,29.61,0,0,1,9-5.32c0,.12.08.24.11.36a4.35,4.35,0,0,1,.11.46c0,.14,0,.28.06.42A4.89,4.89,0,0,1,336.88,496.46Z"/><path class="cls-22" d="M336.58,494.68a5.19,5.19,0,0,1,.81,2.81,5.34,5.34,0,0,1-10,2.63l.14-.12a2.4,2.4,0,0,0,.22.24c.11.12.24.23.36.34h0a3.47,3.47,0,0,0,.38.29,3.92,3.92,0,0,0,.56.33l.31.16.47.17.26.08.39.1a3.93,3.93,0,0,0,.48.06,3.31,3.31,0,0,0,.55,0,5.34,5.34,0,0,0,5.34-5.35,4.89,4.89,0,0,0,0-.54c0-.14,0-.28-.06-.42a4.35,4.35,0,0,0-.11-.46c0-.12-.07-.24-.11-.36Z"/></g><ellipse class="cls-47" cx="353.79" cy="501.95" rx="5.51" ry="5.53"/><path class="cls-48" d="M372.6,531.12a5.23,5.23,0,1,1-5.21-4.77A5,5,0,0,1,372.6,531.12Z"/><path class="cls-49" d="M335.09,535.94a5.34,5.34,0,1,1-5.33-5A5.16,5.16,0,0,1,335.09,535.94Z"/></g></g></svg>