<svg xmlns="http://www.w3.org/2000/svg" viewBox="0 0 1200 811.3"><defs><style>.cls-1{fill:#5bc4e3;}</style></defs><g id="圖層_2" data-name="圖層 2"><g id="圖層_1-2" data-name="圖層 1"><path class="cls-1" d="M1195.58,528.2V171.46L1180,155.89l-.26.27V94.76l.26.27,15-15V11.47l-10-10h-64.59L1105.26,16.6H454.77L448.18,10H428.11a6.08,6.08,0,0,1-.61,0,6,6,0,0,1-.87-.07h-.3c-.17,0-.32,0-.47,0a5,5,0,0,1-.68,0,5.52,5.52,0,0,1-.71-.05l-.23,0a5.24,5.24,0,0,1-.7,0,5.71,5.71,0,0,1-.73,0,4.07,4.07,0,0,1-.5,0h0a4.1,4.1,0,0,1-.62.05l0,0H376.17L371.36,5.2H342.5a6.23,6.23,0,0,1-.77,0l-.52,0-.4,0a5.35,5.35,0,0,1-1.08-.1,4.41,4.41,0,0,1-.52,0,5.55,5.55,0,0,1-.72,0,5.58,5.58,0,0,1-.73,0,6,6,0,0,1-.75-.07,5.73,5.73,0,0,1-.85.07l-.39,0,0,0H307.79l-.07-.07h-.24c-1,0-2,.12-3,.1h-.09a3.75,3.75,0,0,1-.58,0h-.09a4.4,4.4,0,0,1-.73-.06h-.76a5.68,5.68,0,0,1-.59,0h-.17l0,0H199.26L194.16.1H133.39l0,0-.32,0H133a3.82,3.82,0,0,1-.68,0h-.11c-.14,0-.28,0-.42,0a4.63,4.63,0,0,1-.54,0,5.36,5.36,0,0,1-.7,0A4.93,4.93,0,0,1,130,0H130a6.08,6.08,0,0,1-.61,0l-.23,0a3.54,3.54,0,0,1-.73.05h0c-.21,0-.42,0-.64,0s-.43,0-.64,0l0,0H28.78L10,18.9V146L0,156V278.66l4.41,4.41V639.82L20,655.39l.27-.27v61.41l-.27-.27-15,15v68.55l10,10H79.59l15.15-15.14H745.23l6.59,6.59H772v0l.28,0a5.54,5.54,0,0,1,.59,0c.1,0,.2,0,.3,0h.22a2,2,0,0,1,.35,0h.75c.12,0,.22,0,.34,0a5.12,5.12,0,0,1,.56,0,3.82,3.82,0,0,1,.68,0h.07c.19,0,.37,0,.54,0h.22a3.44,3.44,0,0,1,.46,0c.15,0,.29,0,.44,0h.52l0,0h45.54l4.81,4.82h29.28a4.41,4.41,0,0,1,.52,0,5,5,0,0,1,.88.08h.25l.39,0a5.49,5.49,0,0,1,.58,0,4.14,4.14,0,0,1,.79,0h.3c.12,0,.22,0,.34,0a5.17,5.17,0,0,1,.57,0c.12,0,.24,0,.37,0h.15l.32,0h.26l.3,0h.29l0,0h28l0,0h.49a5.57,5.57,0,0,1,.83.07c.21,0,.41,0,.63,0h.18l.35,0,.32,0h.9l.54,0h1c.14,0,.26,0,.4,0s.44,0,.65,0l0,0h102.23l5.09,5.09h60.68a4.2,4.2,0,0,1,1.12.08h.24a3.64,3.64,0,0,1,.48,0h.09l.3,0,.29,0a5.17,5.17,0,0,1,.57,0,4.07,4.07,0,0,1,.5,0l.47,0a4.29,4.29,0,0,1,.81-.06h.28l.22,0h.07l.38,0,.57,0v0h98.3l18.8-18.8V665.23l10-10V532.62ZM1122.26,5.92h60.89l7.41,7.4V78.18L1179.76,89V16.6h-68.19ZM369.51,9.66l1.79,1.79-6.14,5.15h-46l-6.94-6.94Zm-63.57,0,6.94,6.94H210.66l-6.94-6.94ZM24.71,77.24,80.89,21.05h69.72L144.69,27H85.1L30.41,81.66v80.26l-5.7,5.7ZM8.87,638V287.53l6.23,6.23V361.3l5.15,5.15v282.9ZM77.75,805.36H16.85L9.44,798V733.1l10.81-10.81v72.39H88.43Zm752.74-3.73-1.79-1.79,6.14-5.16h46l7,7Zm63.57,0-6.95-7H989.34l6.95,7ZM1175.3,734l-56.18,56.18h-69.73l5.91-5.91h59.61L1169.27,730l.33-.33V649.36l5.7-5.7Zm0-93.53-7.93,7.93v80.25L1114,782.08h-59.6l-8.15,8.14H24.71V170.77l7.92-7.93V82.58L86,29.2h59.6l8.14-8.15H1175.3Zm15.82-116.77-6.22-6.22V450l-5.14-5.15V161.94l11.36,11.37Z"/><polygon class="cls-1" points="20.25 276.62 20.25 277.41 20.23 277.39 20.25 276.62"/></g></g></svg>