<svg id="Capa_1" enable-background="new 0 0 512 512" height="512" viewBox="0 0 512 512" width="512" xmlns="http://www.w3.org/2000/svg"><g><g><path d="m15 503.5c-8.291 0-15-6.709-15-15v-270c0-8.291 6.709-15 15-15h181c8.291 0 15 6.709 15 15v45h106c8.291 0 15 6.709 15 15v180c0 8.291-6.709 15-15 15h-272c-8.262 0-15 6.724-15 15 0 8.291-6.709 15-15 15z" fill="#80a3ff"/></g><path d="m317 263.5h-106v-45c0-8.291-6.709-15-15-15h-30v270h151c8.291 0 15-6.709 15-15v-180c0-8.291-6.709-15-15-15z" fill="#5c75e6"/><g><path d="m196 293.5h-121c-8.291 0-15-6.709-15-15s6.709-15 15-15h121c8.291 0 15 6.709 15 15s-6.709 15-15 15z" fill="#f3f5f9"/></g><path d="m196 263.5h-30v30h30c8.291 0 15-6.709 15-15s-6.709-15-15-15z" fill="#e2dff4"/><g><path d="m497 323.5c-8.291 0-15-6.709-15-15 0-8.276-6.738-15-15-15h-271c-8.291 0-15-6.709-15-15v-255c0-8.291 6.709-15 15-15h301c8.291 0 15 6.709 15 15v285c0 8.291-6.709 15-15 15z" fill="#ff6680"/></g><path d="m497 8.5h-150v285h120c8.262 0 15 6.724 15 15 0 8.291 6.709 15 15 15s15-6.709 15-15v-285c0-8.291-6.709-15-15-15z" fill="#e62e6b"/><g id="Question_Message_1_"><g><path d="m392 113.5c0 15.899-8.699 30.899-22.5 39-4.501 2.701-7.5 7.5-7.5 12.9 0 8.401-6.599 15-15 15s-15-6.599-15-15c0-12.599 5.7-24.901 15-33.3 3.958-3.958 7.276-5.7 7.5-5.7 4.501-2.701 7.5-7.5 7.5-12.9 0-8.401-6.599-15-15-15s-15 6.599-15 15c0 8.399-6.599 15-15 15s-15-6.601-15-15c0-24.901 20.099-45 45-45s45 20.099 45 45z" fill="#f3f5f9"/></g><g><circle cx="347" cy="218.5" fill="#f3f5f9" r="15"/></g><g><path d="m257 413.5h-182c-8.291 0-15-6.709-15-15s6.709-15 15-15h182c8.291 0 15 6.709 15 15s-6.709 15-15 15z" fill="#f3f5f9"/></g><g><path d="m257 353.5h-182c-8.291 0-15-6.709-15-15s6.709-15 15-15h182c8.291 0 15 6.709 15 15s-6.709 15-15 15z" fill="#f3f5f9"/></g></g><g fill="#e2dff4"><path d="m362 218.5c0-8.286-6.716-15-15-15v30c8.284 0 15-6.716 15-15z"/><path d="m392 113.5c0 15.899-8.699 30.899-22.5 39-4.501 2.701-7.5 7.5-7.5 12.9 0 8.401-6.599 15-15 15v-48.3c3.958-3.958 7.276-5.7 7.5-5.7 4.501-2.701 7.5-7.5 7.5-12.9 0-8.401-6.599-15-15-15v-30c24.901 0 45 20.099 45 45z"/><path d="m257 383.5h-91v30h91c8.291 0 15-6.709 15-15s-6.709-15-15-15z"/><path d="m257 323.5h-91v30h91c8.291 0 15-6.709 15-15s-6.709-15-15-15z"/></g></g></svg>