<svg xmlns="http://www.w3.org/2000/svg" viewBox="0 0 360.4 157.09"><defs><style>.cls-1{fill:#fff;}</style></defs><g id="圖層_2" data-name="圖層 2"><g id="OBJECTS"><polygon class="cls-1" points="54.81 47.37 27.46 0 0.12 47.37 0 47.37 0 157.09 360.4 157.09 360.4 47.37 54.81 47.37"/><path d="M28.28,111.93a10.18,10.18,0,0,1-2.92.32c-5.71,0-6.36-4.43-6.36-6.15,0-4.78,1.74-8,4-10a9.76,9.76,0,0,1,6.49-2.32,7.07,7.07,0,0,1,2.52.41l-1.27,3.48a4.93,4.93,0,0,0-1.87-.27,4.1,4.1,0,0,0-2.82,1.46,9.76,9.76,0,0,0-2.14,6.45c0,2,.68,3.4,2.51,3.4a8.32,8.32,0,0,0,2.11-.27Z"/><path d="M30,112.09l2-9c.31-1.41.56-2.89.81-4.24H36.7c-.06.7-.13,1.4-.22,2.1h.12a4.68,4.68,0,0,1,3.76-2.32,3.11,3.11,0,0,1,.72.08l-.87,4a5.67,5.67,0,0,0-.78,0c-1.55,0-3.1,1.37-3.6,3.72l-1.24,5.78Z"/><path d="M54.15,98.81l-2,9c-.31,1.4-.56,2.89-.81,4.24H47.44l.09-1.65-.06,0a5,5,0,0,1-3.94,1.91c-2.11,0-3-1.35-3-3.21a14.28,14.28,0,0,1,.4-3l1.58-7.26h4.6L45.52,106a10.73,10.73,0,0,0-.32,2.16c0,.57.25.92.81.92.75,0,1.52-.86,1.9-2.56l1.64-7.72Z"/><path d="M54,112.09l2.92-13.28h4.6l-2.92,13.28Zm3.73-16.66a2.41,2.41,0,0,1,2.45-2.37,1.91,1.91,0,0,1,2.11,2,2.37,2.37,0,0,1-2.51,2.4A1.84,1.84,0,0,1,57.69,95.43Z"/><path d="M62,108.82a5.34,5.34,0,0,0,2.49.51c1,0,1.46-.51,1.46-1.16s-.31-1-1.46-1.72a3.85,3.85,0,0,1-1.9-3.24c0-2.51,2.33-4.62,6-4.62a7.33,7.33,0,0,1,3.07.51L70.76,102a4.53,4.53,0,0,0-1.83-.41c-1.09,0-1.84.43-1.84,1.22,0,.51.35.86,1.06,1.32,1.93,1.24,2.33,2.56,2.33,3.48,0,2.94-2.42,4.67-6.21,4.67A7.53,7.53,0,0,1,61,111.6Z"/><path d="M82.37,111.55a14.19,14.19,0,0,1-4.75.7c-4,0-5.59-2.16-5.59-5.1,0-4,2.52-8.56,7.61-8.56,3,0,4.41,2,4.44,3.89,0,3.8-3.39,5.15-7.67,5a1.28,1.28,0,0,0,.47,1.06,3,3,0,0,0,2,.64,8.16,8.16,0,0,0,3.26-.64Zm-3.29-9.77c-1.12,0-2,1.24-2.27,2.75,1.9.11,3.26-.59,3.26-1.65C80.07,102.18,79.76,101.78,79.08,101.78Z"/><path d="M98.83,111.93a10.27,10.27,0,0,1-2.92.32c-5.71,0-6.37-4.43-6.37-6.15,0-4.78,1.74-8,4-10A9.72,9.72,0,0,1,100,93.73a7,7,0,0,1,2.51.41l-1.27,3.48a4.87,4.87,0,0,0-1.86-.27,4.14,4.14,0,0,0-2.83,1.46,9.76,9.76,0,0,0-2.14,6.45c0,2,.68,3.4,2.51,3.4a8.34,8.34,0,0,0,2.12-.27Z"/><path d="M113.76,103.4c0,4.5-2.82,8.9-7.45,8.9-4.28,0-5.09-2.83-5.09-4.61,0-4.86,3.1-9.1,7.76-9.1C113.17,98.59,113.76,101.51,113.76,103.4Zm-8,4.15c0,.73,0,1.76,1.06,1.76,1.49,0,2.48-4,2.48-6.45,0-.68-.25-1.27-1-1.27C106.9,101.59,105.69,105.39,105.72,107.55Z"/><path d="M129.5,93.41l-3.16,14.44c-.31,1.4-.56,2.83-.78,4.24h-3.73l.19-1.89H122a4.75,4.75,0,0,1-3.66,2.1c-2.33,0-3.61-1.7-3.61-4.21,0-4.69,2.92-9.5,7.74-9.5a3.63,3.63,0,0,1,1.3.24l1.18-5.42Zm-6.33,8.37a1.33,1.33,0,0,0-.78-.22c-1.92,0-3.16,3.86-3.16,5.83,0,1,.31,1.65,1.11,1.65s1.31-1,1.68-1.84Z"/><path d="M139.07,111.55a14.23,14.23,0,0,1-4.75.7c-4,0-5.59-2.16-5.59-5.1,0-4,2.51-8.56,7.61-8.56,3,0,4.4,2,4.44,3.89,0,3.8-3.39,5.15-7.67,5a1.3,1.3,0,0,0,.46,1.06,3,3,0,0,0,2,.64,8.16,8.16,0,0,0,3.26-.64Zm-3.29-9.77c-1.12,0-2,1.24-2.27,2.75,1.89.11,3.26-.59,3.26-1.65C136.77,102.18,136.46,101.78,135.78,101.78Z"/><path d="M140.59,112.09l2-9c.31-1.41.55-2.89.8-4.24h3.92c-.07.7-.13,1.4-.22,2.1h.12A4.68,4.68,0,0,1,151,98.59a3,3,0,0,1,.71.08l-.87,4a5.41,5.41,0,0,0-.77,0c-1.55,0-3.11,1.37-3.6,3.72l-1.25,5.78Z"/><path d="M151.08,108.82a5.36,5.36,0,0,0,2.49.51c1,0,1.46-.51,1.46-1.16s-.31-1-1.46-1.72a3.85,3.85,0,0,1-1.9-3.24c0-2.51,2.33-4.62,6-4.62a7.33,7.33,0,0,1,3.07.51l-.93,2.87a4.53,4.53,0,0,0-1.83-.41c-1.09,0-1.83.43-1.83,1.22,0,.51.34.86,1,1.32,1.93,1.24,2.33,2.56,2.33,3.48,0,2.94-2.42,4.67-6.21,4.67a7.53,7.53,0,0,1-3.32-.65Z"/><path d="M165.33,110a2.94,2.94,0,0,1,2.77-2.64,2.31,2.31,0,0,1,2.58,2.26,2.77,2.77,0,0,1-2.86,2.7A2.3,2.3,0,0,1,165.33,110Zm1.53-4.18,2.08-11.91h5.15l-3.2,11.91Z"/><path d="M178.87,112.09l.9-18.2h4.78l-.83,7c-.25,2.11-.53,4.24-.81,6.4H183a50,50,0,0,1,2.14-6l3.11-7.48h4.16l-.47,7c-.12,2-.31,4.21-.59,6.45h.07c.59-2.16,1.27-4.27,1.89-6.16l2.39-7.29h4.47l-7.23,18.2H188l0-4.29a51.78,51.78,0,0,1,.47-6.54h-.06c-.75,1.89-1.62,4.27-3.05,7.1l-1.86,3.73Z"/><path d="M208.31,111.55a14.23,14.23,0,0,1-4.75.7c-4,0-5.59-2.16-5.59-5.1,0-4,2.51-8.56,7.61-8.56,3,0,4.4,2,4.44,3.89,0,3.8-3.39,5.15-7.67,5a1.3,1.3,0,0,0,.46,1.06,3,3,0,0,0,2,.64,8.16,8.16,0,0,0,3.26-.64ZM205,101.78c-1.12,0-2,1.24-2.27,2.75,1.89.11,3.26-.59,3.26-1.65C206,102.18,205.7,101.78,205,101.78Z"/><path d="M209.83,112.09l4.1-18.68h4.59l-4.1,18.68Z"/><path d="M225.63,111.9a10.27,10.27,0,0,1-2.82.35,4.63,4.63,0,0,1-5-4.78,8.46,8.46,0,0,1,8.44-8.82,6.72,6.72,0,0,1,2.11.24l-1.11,3.24a6.67,6.67,0,0,0-1.12-.14c-1.9,0-3.73,2.11-3.73,4.89,0,1.32.72,2.13,1.77,2.13a9.89,9.89,0,0,0,1.9-.27Z"/><path d="M240.16,103.4c0,4.5-2.82,8.9-7.45,8.9-4.28,0-5.09-2.83-5.09-4.61,0-4.86,3.1-9.1,7.76-9.1C239.57,98.59,240.16,101.51,240.16,103.4Zm-8,4.15c0,.73,0,1.76,1.06,1.76,1.49,0,2.48-4,2.48-6.45,0-.68-.25-1.27-1-1.27C233.3,101.59,232.09,105.39,232.12,107.55Z"/><path d="M240.54,112.09l2-9c.31-1.41.56-2.89.81-4.24h3.91l-.12,1.7h.06a5.18,5.18,0,0,1,4.22-1.92,2.46,2.46,0,0,1,2.61,1.92,5.59,5.59,0,0,1,4.26-1.92,2.67,2.67,0,0,1,2.91,3,16.19,16.19,0,0,1-.4,2.78l-1.71,7.72h-4.53l1.68-7.61a10.6,10.6,0,0,0,.25-2,.7.7,0,0,0-.78-.75c-.62,0-1.58.81-2.17,3.4L252,112.09h-4.41l1.68-7.61a8.22,8.22,0,0,0,.25-1.84c0-.51-.19-.86-.72-.86s-1.67.91-2.2,3.4l-1.49,6.91Z"/><path d="M272.7,111.55a14.19,14.19,0,0,1-4.75.7c-4,0-5.59-2.16-5.59-5.1,0-4,2.52-8.56,7.61-8.56,3,0,4.41,2,4.44,3.89,0,3.8-3.38,5.15-7.67,5a1.31,1.31,0,0,0,.47,1.06,3,3,0,0,0,2,.64,8.24,8.24,0,0,0,3.26-.64Zm-3.29-9.77c-1.12,0-2,1.24-2.26,2.75,1.89.11,3.26-.59,3.26-1.65C270.41,102.18,270.1,101.78,269.41,101.78Z"/><path d="M283,94.16a25.68,25.68,0,0,1,4.35-.35c1.83,0,3.79.22,5.12,1.35a3.62,3.62,0,0,1,1.31,3c0,2.21-1.87,4-3.95,4.56v.11a3.77,3.77,0,0,1,2.74,3.83,5,5,0,0,1-2.24,3.89c-1.58,1.1-3.76,1.67-7.05,1.67a28,28,0,0,1-4.19-.22Zm1.06,14.91c.25,0,.53,0,.81,0a2.9,2.9,0,0,0,3.16-2.89,2,2,0,0,0-2.2-2.21h-.62Zm1.8-8h.43c2.08,0,3.08-1.07,3.08-2.59a1.6,1.6,0,0,0-1.65-1.78,3.78,3.78,0,0,0-1,.08Z"/><path d="M301.58,112.09l.09-2.11h-.12a5,5,0,0,1-3.85,2.32c-2.42,0-3.51-1.78-3.51-4.07,0-4,2.24-9.64,9.07-9.64a16.79,16.79,0,0,1,4.53.6l-1.68,7.31a31.27,31.27,0,0,0-.62,5.59Zm1.18-10.5a4.24,4.24,0,0,0-.74-.08c-2.21,0-3.36,4.26-3.36,5.8,0,1,.13,1.73,1.06,1.73s1.58-1,2.11-3.35Z"/><path d="M316,111.9a10.3,10.3,0,0,1-2.83.35,4.63,4.63,0,0,1-5-4.78,8.47,8.47,0,0,1,8.45-8.82,6.77,6.77,0,0,1,2.11.24l-1.12,3.24a6.55,6.55,0,0,0-1.12-.14c-1.89,0-3.72,2.11-3.72,4.89,0,1.32.71,2.13,1.77,2.13a9.77,9.77,0,0,0,1.89-.27Z"/><path d="M317.32,112.09l4.1-18.68h4.47l-2.36,10.8h.06c.41-.6.75-1.16,1.12-1.73L327,98.81h4.85l-4.76,6,2,7.29h-4.69l-.93-5.37-.81,1.1-.93,4.27Z"/><path d="M335,110a2.93,2.93,0,0,1,2.76-2.64,2.31,2.31,0,0,1,2.58,2.26,2.77,2.77,0,0,1-2.86,2.7A2.29,2.29,0,0,1,335,110Zm1.52-4.18,2.08-11.91h5.15l-3.19,11.91Z"/></g></g></svg>