<svg xmlns="http://www.w3.org/2000/svg" viewBox="0 0 360.4 157.09"><defs><style>.cls-1{fill:#fff;}</style></defs><g id="圖層_2" data-name="圖層 2"><g id="OBJECTS"><rect class="cls-1" y="47.37" width="360.4" height="109.72"/><polygon class="cls-1" points="27.46 0 0.12 47.37 54.81 47.37 27.46 0"/><path d="M42.69,106.37l-.21.79c-.72,2.57-1.43,5.2-6.07,5.2-3.77,0-5.17-1.76-4.28-5.26l2-8.16c.88-3.44,2.25-5.13,5.89-5.13,5,0,5,3,4.37,5.1l-.18.7h-4l.33-1.3c.29-1.15.14-1.71-.74-1.71s-1.1.51-1.43,1.8l-2.32,9.28c-.28,1.18-.29,1.89.65,1.89s1.18-.55,1.54-1.9l.34-1.3Z"/><path d="M45.45,102.7c.59-2.44,1-3.9,1.15-4.83h3.83a14.91,14.91,0,0,1-.39,2A4.14,4.14,0,0,1,54,97.66l-1,4c-2.47-.08-3.43.8-4,3.16l-1.78,7.25h-4Z"/><path d="M63.23,107.58c-.6,2.37-.95,3.71-1.07,4.51H58.22c0-.3.09-.74.17-1.14a3.65,3.65,0,0,1-3.18,1.36c-1.44,0-3.23-.7-2.39-4l2.6-10.39h4L56.89,108c-.25,1-.07,1.46.7,1.46s1.31-.63,1.63-1.91l2.41-9.65h4Z"/><path d="M68.08,97.87h4l-3.57,14.22h-4Zm1.15-4.59h4l-.79,3.14h-4Z"/><path d="M75.35,107.56l-.18.7c-.21.84-.13,1.51.7,1.51.63,0,.92-.36,1.1-1,.32-1.13,0-1.89-1.35-2.92-2.28-1.74-2.83-2.86-2.36-4.93s2-3.25,4.78-3.25c3.67,0,4.71,1.91,4.18,4.1l-.12.54H78.43l.15-.68c.23-1,.12-1.45-.55-1.45s-.82.34-.94.93-.09,1.16,1.12,2.11c2.62,2,3.24,3.24,2.72,5.49s-1.89,3.61-5.23,3.61c-4.17,0-4.84-2.14-4.2-4.47l.08-.28Z"/><path d="M87.12,105.87l-.54,2.23c-.24.91-.1,1.54.74,1.54s1.15-.71,1.33-1.44l.15-.61h3.91l-.08.41c-.57,2.39-1.66,4.31-5.67,4.31-4.44,0-4.83-2.52-4.15-5.24L84,102.33c.63-2.52,1.8-4.66,5.8-4.66,4.35,0,4.9,2.25,4.21,5l-.8,3.17Zm2.8-2.46.39-1.58c.23-.94.21-1.61-.74-1.61s-1.15.45-1.42,1.6l-.4,1.59Z"/><path d="M109.24,106.37l-.21.79c-.72,2.57-1.42,5.2-6.07,5.2-3.76,0-5.16-1.76-4.27-5.26l2-8.16c.87-3.44,2.25-5.13,5.88-5.13,5,0,5,3,4.37,5.1l-.18.7h-4l.32-1.3c.3-1.15.14-1.71-.73-1.71s-1.11.51-1.44,1.8l-2.31,9.28c-.29,1.18-.3,1.89.65,1.89s1.18-.55,1.54-1.9l.33-1.3Z"/><path d="M122.28,102.61,121,107.79c-.77,3.1-2.31,4.52-5.92,4.52s-5.1-1.71-4.34-4.81l1.38-5.5c.76-3.06,2.57-4.34,5.81-4.34C121.34,97.66,123.08,99.36,122.28,102.61Zm-6.09-.75-1.56,6.26c-.23.89,0,1.48.87,1.48s1.17-.63,1.39-1.52l1.57-6.25c.2-.8.16-1.49-.86-1.49S116.42,101,116.19,101.86Z"/><path d="M136.71,93.28,133,108.11c-.51,2-.78,3.2-.93,4h-3.91a6.72,6.72,0,0,1,.16-1.12,3.61,3.61,0,0,1-3.06,1.34c-2.71,0-3.12-2.07-2.48-4.63l1.42-5.63c.57-2.23,1.55-4.39,4.55-4.39a2.94,2.94,0,0,1,2.58,1l1.33-5.4Zm-8.49,8.83-1.44,5.68c-.2.79-.2,1.64.74,1.64s1.34-.65,1.66-1.91l1.29-5.15c.31-1.23.25-1.92-.78-1.92C128.86,100.45,128.48,101.06,128.22,102.11Z"/><path d="M139.65,105.87l-.54,2.23c-.23.91-.09,1.54.75,1.54s1.15-.71,1.33-1.44l.15-.61h3.91l-.09.41c-.56,2.39-1.66,4.31-5.67,4.31-4.43,0-4.83-2.52-4.14-5.24l1.19-4.74c.63-2.52,1.8-4.66,5.79-4.66,4.35,0,4.9,2.25,4.21,5l-.79,3.17Zm2.81-2.46.39-1.58c.23-.94.21-1.61-.74-1.61s-1.15.45-1.43,1.6l-.4,1.59Z"/><path d="M148.61,102.7c.59-2.44,1-3.9,1.15-4.83h3.83a14.91,14.91,0,0,1-.39,2,4.14,4.14,0,0,1,3.91-2.22l-1,4c-2.47-.08-3.43.8-4,3.16l-1.78,7.25h-4Z"/><path d="M159.75,107.56l-.18.7c-.22.84-.14,1.51.69,1.51.63,0,.93-.36,1.11-1,.31-1.13,0-1.89-1.36-2.92-2.28-1.74-2.82-2.86-2.35-4.93s2-3.25,4.77-3.25c3.67,0,4.72,1.91,4.19,4.1l-.13.54h-3.66l.15-.68c.22-1,.12-1.45-.56-1.45s-.81.34-.94.93-.08,1.16,1.12,2.11c2.63,2,3.25,3.24,2.72,5.49s-1.88,3.61-5.23,3.61c-4.17,0-4.84-2.14-4.2-4.47l.08-.28Z"/><path d="M171.2,112.09l1.05-4.24h3.91l-1,4.24Zm1.79-6.58,1.81-8.77.72-2.91h4.34l-.71,2.86-2.59,8.82Z"/><path d="M183.18,112.09l2.16-18h4c-.52,3.22-1.75,9.5-2.36,12.35h.14c1.3-3.44,3.22-8.46,4.63-12.35h3.39c-.48,3.52-1.27,9.06-1.79,12.51h.16c.93-3.3,2.85-9.53,3.85-12.51h4.06l-7.15,18h-4.18c.37-3,.68-6.28,1.25-10h-.14c-1.32,3.67-2.62,6.75-3.86,10Z"/><path d="M203.4,105.87l-.54,2.23c-.23.91-.09,1.54.75,1.54s1.15-.71,1.33-1.44l.15-.61H209l-.09.41c-.56,2.39-1.65,4.31-5.66,4.31-4.44,0-4.83-2.52-4.15-5.24l1.19-4.74c.63-2.52,1.8-4.66,5.79-4.66,4.35,0,4.91,2.25,4.21,5l-.79,3.17Zm2.81-2.46.39-1.58c.23-.94.21-1.61-.74-1.61s-1.15.45-1.43,1.6l-.4,1.59Z"/><path d="M210,112.09l4.7-18.81h4L214,112.09Z"/><path d="M227,107.12l-.16.64c-.59,2.54-1.45,4.55-5.6,4.55s-4.65-2.39-4-5.13l1.25-5c.55-2.25,1.62-4.49,5.49-4.49,4.4,0,4.7,2.42,4.2,4.56l-.18.72h-3.83l.27-1.2c.19-.85.22-1.42-.58-1.42s-1,.64-1.23,1.48L221,108.26c-.2.74-.14,1.35.64,1.35s1-.65,1.25-1.59l.23-.9Z"/><path d="M240.19,102.61l-1.28,5.18c-.77,3.1-2.3,4.52-5.91,4.52s-5.11-1.71-4.35-4.81L230,102c.76-3.06,2.57-4.34,5.82-4.34C239.26,97.66,241,99.36,240.19,102.61Zm-6.08-.75-1.57,6.26c-.23.89,0,1.48.87,1.48s1.17-.63,1.4-1.52l1.56-6.25c.2-.8.17-1.49-.85-1.49S234.33,101,234.11,101.86Z"/><path d="M242.35,102.21c.79-3.09.9-3.73,1.05-4.34h3.87a9.85,9.85,0,0,1-.19,1,4.12,4.12,0,0,1,3.06-1.23c1.52,0,2.14.66,2.36,1.3a4.72,4.72,0,0,1,3.43-1.3c2.25,0,3.21,1.4,2.64,3.65l-2.68,10.78h-4l2.6-10.38c.19-.82.07-1.26-.65-1.26s-1.19.52-1.48,1.66l-2.49,10h-4l2.58-10.37c.27-1-.06-1.27-.64-1.27-.83,0-1.19.53-1.46,1.6l-2.5,10h-4Z"/><path d="M263.49,105.87,263,108.1c-.23.91-.09,1.54.74,1.54s1.15-.71,1.33-1.44l.16-.61h3.91L269,108c-.57,2.39-1.66,4.31-5.67,4.31-4.43,0-4.83-2.52-4.14-5.24l1.18-4.74c.63-2.52,1.81-4.66,5.8-4.66,4.35,0,4.9,2.25,4.21,5l-.8,3.17Zm2.81-2.46.39-1.58c.22-.94.2-1.61-.75-1.61s-1.14.45-1.42,1.6l-.4,1.59Z"/><path d="M278.58,94.08h4.93c3.41,0,4.85,1.52,4.15,4.57l-.2.88a3.7,3.7,0,0,1-2.87,3.12c1.37.56,2.08,1.73,1.61,3.66l-.31,1.3c-.75,3.18-2.13,4.48-6.28,4.48h-5.54Zm.07,15.35h1c1.43,0,1.79-.58,2.13-2l.41-1.75c.28-1.24.14-1.84-1.47-1.84h-.66Zm2.94-8.2c1.2,0,1.61-.37,2-1.79l.25-1c.24-1.08.11-1.64-1.38-1.64h-.58l-1.11,4.47Z"/><path d="M297.82,108.36c-.26,1-.8,3.24-.87,3.73h-3.9c0-.27.09-.68.18-1.09a3.75,3.75,0,0,1-3,1.31c-2.54,0-3.12-2-2.49-4.48.84-3.25,2.68-4.19,6.73-4.63l.68-.07.39-1.54c.22-.9.15-1.4-.63-1.4s-1,.51-1.23,1.38l-.14.55h-3.87l.09-.34c.57-2.24,1.52-4.12,5.44-4.12,3.49,0,5,1.31,4.28,4.1Zm-3.27-2.77-.44.07a2.45,2.45,0,0,0-2.36,2.08c-.22.89-.21,1.69.69,1.69s1.33-.73,1.66-2Z"/><path d="M309.89,107.12l-.15.64c-.59,2.54-1.45,4.55-5.6,4.55s-4.65-2.39-3.95-5.13l1.25-5c.55-2.25,1.62-4.49,5.49-4.49,4.4,0,4.7,2.42,4.19,4.56l-.17.72h-3.83l.27-1.2c.19-.85.22-1.42-.58-1.42s-1,.64-1.23,1.48L304,108.26c-.2.74-.14,1.35.64,1.35s1-.65,1.25-1.59l.23-.9Z"/><path d="M316.56,103.62h.1c1.06-1.64,2.76-4.12,3.83-5.75h4.2c-1.38,1.83-2.92,3.64-4.21,5.38,0,1,.83,7.77.83,8.84h-4c0-.58-.34-5.38-.34-5.84-.46.63-1.19,1.49-1.53,1.88l-1,4h-3.95l4.71-18.81h3.94Z"/><path d="M327.35,112.09l1-4.24h3.9l-1.05,4.24Zm1.78-6.58,1.81-8.77.72-2.91H336l-.71,2.86-2.59,8.82Z"/></g></g></svg>