<svg xmlns="http://www.w3.org/2000/svg" viewBox="0 0 532.81 532.81"><defs><style>.cls-1{fill:#edf2f4;}</style></defs><g id="圖層_2" data-name="圖層 2"><g id="_1" data-name=" 1"><path class="cls-1" d="M266.41,532.81c-1.88,0-3.75,0-5.62-.06a2.21,2.21,0,1,1,.09-4.42c6.73.14,13.57,0,20.33-.36a2.15,2.15,0,0,1,2.33,2.09,2.21,2.21,0,0,1-2.08,2.33C276.46,532.67,271.4,532.81,266.41,532.81Zm-26-1.27h-.22c-6.83-.66-13.72-1.61-20.47-2.8a2.21,2.21,0,1,1,.77-4.36c6.64,1.17,13.41,2.1,20.13,2.76a2.21,2.21,0,0,1-.21,4.41Zm61.36-1.07a2.21,2.21,0,0,1-.29-4.41c6.69-.89,13.43-2.06,20-3.47a2.21,2.21,0,0,1,.93,4.33c-6.71,1.43-13.56,2.62-20.37,3.53ZM200,524.41a2.13,2.13,0,0,1-.55-.07c-6.64-1.72-13.3-3.73-19.8-6a2.21,2.21,0,0,1,1.44-4.18c6.39,2.19,12.94,4.16,19.47,5.85a2.22,2.22,0,0,1-.56,4.36Zm141.75-2.51a2.22,2.22,0,0,1-.63-4.34c6.48-1.92,12.95-4.12,19.25-6.54a2.21,2.21,0,1,1,1.59,4.13c-6.41,2.46-13,4.7-19.57,6.66A2.41,2.41,0,0,1,341.79,521.9Zm-180.5-10.83a2.23,2.23,0,0,1-.88-.18c-6.31-2.74-12.58-5.76-18.64-9a2.22,2.22,0,0,1,2.07-3.92c6,3.17,12.13,6.14,18.33,8.83a2.21,2.21,0,0,1-.88,4.24ZM380,507.21a2.21,2.21,0,0,1-.95-4.21c6.09-2.91,12.14-6.09,18-9.46a2.22,2.22,0,0,1,2.21,3.84C393.31,500.8,387.16,504,381,507A2.13,2.13,0,0,1,380,507.21ZM125.07,491.87a2.14,2.14,0,0,1-1.18-.35c-5.78-3.67-11.51-7.62-17-11.74a2.22,2.22,0,0,1,2.65-3.55c5.42,4.06,11,7.95,16.74,11.55a2.22,2.22,0,0,1-1.19,4.09Zm290.42-5.11a2.21,2.21,0,0,1-1.25-4c5.56-3.81,11.05-7.89,16.31-12.12a2.21,2.21,0,1,1,2.78,3.44c-5.35,4.31-10.93,8.46-16.59,12.33A2.22,2.22,0,0,1,415.49,486.76ZM92.27,467.3a2.24,2.24,0,0,1-1.46-.54c-5.15-4.52-10.2-9.31-15-14.23A2.21,2.21,0,0,1,79,449.44c4.73,4.84,9.69,9.55,14.76,14a2.21,2.21,0,0,1-1.46,3.87Zm355.13-6.23a2.21,2.21,0,0,1-1.52-3.82c4.92-4.63,9.72-9.5,14.26-14.49a2.21,2.21,0,1,1,3.27,3c-4.61,5.07-9.49,10-14.49,14.73A2.23,2.23,0,0,1,447.4,461.07ZM63.64,438a2.23,2.23,0,0,1-1.7-.79c-4.4-5.27-8.65-10.77-12.63-16.35a2.21,2.21,0,1,1,3.6-2.57c3.92,5.49,8.1,10.9,12.43,16.08a2.22,2.22,0,0,1-.28,3.12A2.18,2.18,0,0,1,63.64,438ZM475,430.78a2.24,2.24,0,0,1-1.36-.47,2.21,2.21,0,0,1-.39-3.1c4.15-5.33,8.14-10.88,11.87-16.52a2.21,2.21,0,1,1,3.69,2.44c-3.79,5.73-7.85,11.38-12.06,16.79A2.23,2.23,0,0,1,475,430.78ZM39.88,404.64a2.21,2.21,0,0,1-1.9-1.07c-3.54-5.88-6.89-12-10-18.11a2.21,2.21,0,0,1,4-2c3,6,6.31,12,9.79,17.81a2.21,2.21,0,0,1-.75,3A2.17,2.17,0,0,1,39.88,404.64Zm457.71-8.05a2.19,2.19,0,0,1-1.07-.28,2.22,2.22,0,0,1-.86-3c3.28-5.91,6.36-12,9.17-18.16a2.21,2.21,0,1,1,4,1.84c-2.85,6.25-6,12.46-9.32,18.47A2.24,2.24,0,0,1,497.59,396.59ZM21.55,368a2.22,2.22,0,0,1-2.05-1.38c-2.58-6.37-4.95-12.91-7-19.44a2.21,2.21,0,1,1,4.21-1.34c2,6.42,4.37,12.85,6.91,19.11a2.21,2.21,0,0,1-1.21,2.88A2.29,2.29,0,0,1,21.55,368Zm493.07-8.73a2.2,2.2,0,0,1-2.07-3c2.31-6.34,4.41-12.85,6.22-19.35a2.21,2.21,0,1,1,4.26,1.19c-1.84,6.61-4,13.23-6.33,19.68A2.22,2.22,0,0,1,514.62,359.3ZM9.14,329A2.22,2.22,0,0,1,7,327.28c-1.57-6.69-2.88-13.52-3.92-20.3a2.21,2.21,0,0,1,4.38-.66c1,6.66,2.31,13.38,3.85,19.95A2.22,2.22,0,0,1,9.14,329Zm516.5-9.15a3.28,3.28,0,0,1-.43,0,2.21,2.21,0,0,1-1.74-2.6c1.3-6.62,2.35-13.37,3.14-20.08a2.21,2.21,0,0,1,4.39.51c-.79,6.82-1.87,13.69-3.19,20.42A2.21,2.21,0,0,1,525.64,319.84ZM3,288.5a2.22,2.22,0,0,1-2.21-2.05C.25,279.82,0,273.08,0,266.4c0-6.88.27-13.82.79-20.64a2.21,2.21,0,0,1,4.41.33c-.51,6.71-.77,13.55-.77,20.31,0,6.57.24,13.2.73,19.72a2.22,2.22,0,0,1-2.05,2.37Zm527.45-9.34h-.09a2.21,2.21,0,0,1-2.13-2.29c.14-3.47.21-7,.21-10.46,0-3.27-.07-6.59-.19-9.87a2.23,2.23,0,0,1,2.13-2.3,2.2,2.2,0,0,1,2.29,2.13c.13,3.34.19,6.72.19,10,0,3.53-.07,7.1-.21,10.63A2.21,2.21,0,0,1,530.4,279.16Zm-1.53-40.94a2.22,2.22,0,0,1-2.2-2c-.77-6.71-1.81-13.47-3.09-20.09a2.21,2.21,0,0,1,4.34-.84c1.31,6.73,2.37,13.6,3.15,20.43a2.21,2.21,0,0,1-2,2.44A1.1,1.1,0,0,1,528.87,238.22ZM5.35,227.78l-.34,0a2.22,2.22,0,0,1-1.85-2.53c1.06-6.77,2.39-13.6,4-20.28a2.21,2.21,0,0,1,4.31,1c-1.55,6.57-2.86,13.28-3.89,19.94A2.22,2.22,0,0,1,5.35,227.78ZM521.06,198a2.21,2.21,0,0,1-2.13-1.62c-1.81-6.51-3.89-13-6.19-19.36a2.22,2.22,0,0,1,4.17-1.51c2.33,6.44,4.45,13.07,6.28,19.69a2.2,2.2,0,0,1-1.54,2.72A2,2,0,0,1,521.06,198ZM14.77,187.91A2.2,2.2,0,0,1,12.66,185c2.09-6.53,4.47-13.07,7.08-19.44a2.22,2.22,0,1,1,4.1,1.68c-2.57,6.26-4.91,12.69-7,19.11A2.21,2.21,0,0,1,14.77,187.91Zm492.32-28.39a2.2,2.2,0,0,1-2-1.3c-2.8-6.14-5.86-12.25-9.12-18.15a2.22,2.22,0,1,1,3.88-2.14c3.31,6,6.43,12.21,9.27,18.46a2.22,2.22,0,0,1-1.1,2.93A2.15,2.15,0,0,1,507.09,159.52ZM30.29,150a2.2,2.2,0,0,1-2-3.2c3.08-6.13,6.45-12.22,10-18.1A2.21,2.21,0,0,1,42.12,131c-3.5,5.78-6.82,11.77-9.85,17.8A2.21,2.21,0,0,1,30.29,150Zm457-26.29a2.21,2.21,0,0,1-1.85-1c-3.7-5.63-7.68-11.2-11.81-16.54a2.21,2.21,0,0,1,3.5-2.71c4.2,5.44,8.24,11.09,12,16.82a2.22,2.22,0,0,1-1.85,3.43ZM51.51,114.9a2.22,2.22,0,0,1-1.8-3.5c4-5.59,8.28-11.09,12.69-16.33a2.21,2.21,0,0,1,3.39,2.85c-4.34,5.15-8.54,10.56-12.48,16A2.19,2.19,0,0,1,51.51,114.9ZM462.24,91.28a2.18,2.18,0,0,1-1.64-.72c-4.54-5-9.33-9.9-14.22-14.53a2.21,2.21,0,0,1,3-3.22c5,4.71,9.84,9.68,14.46,14.77a2.21,2.21,0,0,1-1.64,3.7ZM77.88,83.53a2.19,2.19,0,0,1-1.54-.63,2.21,2.21,0,0,1,0-3.13c4.81-4.9,9.88-9.67,15-14.18a2.21,2.21,0,0,1,2.91,3.33c-5.09,4.44-10.07,9.13-14.8,14A2.19,2.19,0,0,1,77.88,83.53Zm354.59-20.4a2.21,2.21,0,0,1-1.39-.49c-5.26-4.25-10.74-8.35-16.29-12.17a2.21,2.21,0,1,1,2.51-3.65c5.65,3.89,11.22,8,16.56,12.38a2.21,2.21,0,0,1-1.39,3.93ZM108.76,56.6a2.22,2.22,0,0,1-1.33-4c5.51-4.1,11.25-8,17-11.69a2.21,2.21,0,0,1,2.36,3.74c-5.7,3.59-11.33,7.46-16.75,11.5A2.2,2.2,0,0,1,108.76,56.6Zm290-16.71a2.23,2.23,0,0,1-1.11-.3c-5.85-3.39-11.9-6.59-18-9.51a2.21,2.21,0,0,1,1.91-4c6.19,3,12.34,6.23,18.29,9.67a2.22,2.22,0,0,1-1.11,4.13ZM143.39,34.75a2.21,2.21,0,0,1-1-4.17c6.08-3.2,12.35-6.2,18.63-8.91a2.21,2.21,0,0,1,1.76,4.06c-6.19,2.67-12.35,5.62-18.33,8.77A2.24,2.24,0,0,1,143.39,34.75ZM361.75,22.16A2.22,2.22,0,0,1,361,22c-6.29-2.44-12.76-4.66-19.23-6.6A2.21,2.21,0,0,1,343,11.18c6.58,2,13.16,4.22,19.56,6.7a2.22,2.22,0,0,1-.8,4.28ZM181,18.54a2.21,2.21,0,0,1-.71-4.3c6.5-2.22,13.16-4.21,19.81-5.91a2.21,2.21,0,1,1,1.09,4.28c-6.53,1.68-13.08,3.63-19.47,5.81A2,2,0,0,1,181,18.54Zm141.54-8.15a2.56,2.56,0,0,1-.47,0c-6.58-1.43-13.32-2.61-20-3.52a2.21,2.21,0,1,1,.59-4.39C309.43,3.37,316.28,4.57,323,6a2.21,2.21,0,0,1-.47,4.37Zm-101.86-2A2.21,2.21,0,0,1,220.27,4C227,2.8,233.91,1.87,240.76,1.22a2.21,2.21,0,1,1,.41,4.4c-6.72.65-13.5,1.56-20.14,2.72A2.34,2.34,0,0,1,220.65,8.37Zm61.27-3.5h-.13c-5.09-.29-10.27-.44-15.38-.44-1.6,0-3.3,0-4.94,0h0a2.22,2.22,0,0,1,0-4.43c1.67,0,3.28,0,5,0,5.19,0,10.46.15,15.64.45a2.21,2.21,0,0,1-.13,4.42Z"/></g></g></svg>