<svg xmlns="http://www.w3.org/2000/svg" viewBox="0 0 955.19 628.25"><defs><style>.cls-1{fill:#fcc93d;}.cls-2{fill:none;}.cls-3{fill:#fff;}</style></defs><g id="圖層_2" data-name="圖層 2"><g id="_1" data-name=" 1"><g id="Group_152" data-name="Group 152"><path id="Path_121" data-name="Path 121" class="cls-1" d="M953.45,285.56a95,95,0,0,0-81.1-93.94,53.58,53.58,0,0,0,6.44-26.46c-2.18-61.19-58.26-66.73-82.72-51.9-14.24,8.63-26.36,20.82-30.66,37.25a123.9,123.9,0,0,0-37.35-11.1,30.55,30.55,0,0,0,1.06-16.14,31,31,0,0,0-61.32,5.6,95.89,95.89,0,0,0-86.14,13.89,58.49,58.49,0,0,0-47.35-82,59.3,59.3,0,0,0-14.94.36A105.84,105.84,0,0,0,492.43,26.6C452.18-7.35,392.2-6.2,353.27,29.24a105.58,105.58,0,0,0-28.73,43.32A246.43,246.43,0,0,0,243.65,60.5C110.35,62.87,2.35,172.35,1.74,305.68c-.63,136.6,109.92,247.53,246.37,247.53a246.78,246.78,0,0,0,64.82-8.63A221.63,221.63,0,0,0,601,566.53a154.92,154.92,0,0,0,126.53,59.93c80.73-2,147.06-66.64,151-147.3a154.65,154.65,0,0,0-29.46-99.1c3.08.3,6.2.47,9.36.47A95,95,0,0,0,953.45,285.56Z"/><path id="Path_122" data-name="Path 122" class="cls-2" d="M723.58,628.25A156,156,0,0,1,600.7,568.92a223.37,223.37,0,0,1-288.28-22.41A248.15,248.15,0,0,1,0,305.67c.3-64.94,25.76-126.35,71.69-172.91s107-72.84,171.92-74A247.09,247.09,0,0,1,323.47,70.4a107.48,107.48,0,0,1,196.9-11.16,61.75,61.75,0,0,1,14.12-.2,60.21,60.21,0,0,1,50.83,79.09,97.67,97.67,0,0,1,80.87-11.57,32.87,32.87,0,0,1,32.57-29.87c.94,0,1.9,0,2.85.12a32.88,32.88,0,0,1,29.21,26.12,32.32,32.32,0,0,1-.5,15,125.67,125.67,0,0,1,34,10.09c4.36-14.31,14.74-26.51,30.88-36.3,7.5-4.55,17.75-7.15,28.15-7.15,25.39,0,55.61,15.83,57.2,60.47A54,54,0,0,1,875,190.27c45.91,7.89,80.24,48.44,80.24,95.29a96.81,96.81,0,0,1-96.7,96.7c-1.91,0-3.85-.06-5.8-.18a155.4,155.4,0,0,1,27.63,97.16c-4,81.49-71.1,146.92-152.73,149C726.25,628.23,724.92,628.25,723.58,628.25ZM601.36,564.13l1,1.33a152.6,152.6,0,0,0,121.19,59.32c1.31,0,2.61,0,3.93,0,79.82-2,145.42-66,149.35-145.66a152.06,152.06,0,0,0-29.14-98L845.44,378l3.85.38c3.09.3,6.18.45,9.2.45a93.33,93.33,0,0,0,93.23-93.23c0-45.94-34.23-85.59-79.62-92.23l-2.41-.35,1.12-2.16c4.44-8.58,6.54-17.2,6.24-25.6-1.5-42.12-28.73-57.13-53.73-57.13-9.78,0-19.38,2.43-26.35,6.65-16.09,9.76-26.15,21.94-29.88,36.21l-.54,2-1.89-.9a122,122,0,0,0-36.83-11l-2.1-.28.68-2a28.7,28.7,0,0,0,1-15.23,29.23,29.23,0,0,0-57.88,5.28l0,2.35-2.23-.72a94.16,94.16,0,0,0-84.58,13.63L577.41,148l2.66-6a56.76,56.76,0,0,0-45.94-79.56,58.16,58.16,0,0,0-14.5.35l-1.26.19-.56-1.14A104,104,0,0,0,326.17,73.13l-.56,1.6L324,74.21a244.12,244.12,0,0,0-80.32-12C111.84,64.57,4.08,173.78,3.47,305.68,2.83,440.79,111.84,550.83,247,551.47h1.16a245.4,245.4,0,0,0,64.36-8.58l1-.26.71.71A219.9,219.9,0,0,0,600,565.13Z"/></g><g id="Group_153" data-name="Group 153"><g id="Group_144" data-name="Group 144"><path id="Path_114" data-name="Path 114" class="cls-3" d="M224.08,267.57a2.5,2.5,0,0,1-.38-.06,1.78,1.78,0,0,1-1.23-2.17A71.18,71.18,0,0,1,302.82,214a53.35,53.35,0,0,1,99.47,13.36,45.91,45.91,0,0,1,57.51,30.13c.11.36.22.72.32,1.08a1.77,1.77,0,0,1-3.39,1v0a42.37,42.37,0,0,0-52.38-29.1c-.94.27-1.88.57-2.8.91a1.77,1.77,0,0,1-2.26-1.06c0-.1-.06-.2-.08-.3a49.82,49.82,0,0,0-93.81-13.25,1.78,1.78,0,0,1-1.9,1,67.71,67.71,0,0,0-77.62,48.59A1.77,1.77,0,0,1,224.08,267.57Z"/></g><g id="Group_145" data-name="Group 145"><path id="Path_115" data-name="Path 115" class="cls-3" d="M774.74,374.54a1.77,1.77,0,0,1-1.65-1.47,45.5,45.5,0,0,0-42.26-37.73,43.82,43.82,0,0,0-5.84.09,1.8,1.8,0,0,1-1.79-1.16,33.08,33.08,0,0,0-62.86,2.24,1.77,1.77,0,0,1-2.19,1.21,1.15,1.15,0,0,1-.29-.11,28,28,0,0,0-37.48,13c-.29.58-.55,1.17-.79,1.76a1.76,1.76,0,0,1-3.27-1.31,31.58,31.58,0,0,1,41.1-17.49l.13.06A36.61,36.61,0,0,1,726,331.82a46,46,0,0,1,5,0,49,49,0,0,1,45.55,40.67,1.77,1.77,0,0,1-1.45,2A1.64,1.64,0,0,1,774.74,374.54Z"/></g><g id="Group_146" data-name="Group 146"><path id="Path_116" data-name="Path 116" class="cls-3" d="M471.23,123.61a1.78,1.78,0,0,1-1.36-.76A90.53,90.53,0,0,0,367.6,88.23a1.76,1.76,0,0,1-1.08-3.36,94.15,94.15,0,0,1,106.26,36,1.77,1.77,0,0,1-1.55,2.77Z"/></g><g id="Group_147" data-name="Group 147"><path id="Path_117" data-name="Path 117" class="cls-3" d="M386.8,231.51a1.76,1.76,0,0,1-1.58-1.2A41,41,0,0,0,337.4,203.5a1.77,1.77,0,0,1-.77-3.45,44.56,44.56,0,0,1,51.93,29.13,1.77,1.77,0,0,1-1.1,2.24A1.82,1.82,0,0,1,386.8,231.51Z"/></g><g id="Group_148" data-name="Group 148"><path id="Path_118" data-name="Path 118" class="cls-3" d="M836.89,268.51a1.81,1.81,0,0,1-.56-.12,1.75,1.75,0,0,1-1-2.28h0a41,41,0,0,0-19.17-51.37,1.76,1.76,0,1,1,1.54-3.17l.09,0a44.6,44.6,0,0,1,20.83,55.79A1.75,1.75,0,0,1,836.89,268.51Z"/></g><g id="Group_149" data-name="Group 149"><path id="Path_119" data-name="Path 119" class="cls-3" d="M713.48,335a1.78,1.78,0,0,1-1.4-.81,24.35,24.35,0,0,0-25.33-10.74,1.76,1.76,0,0,1-.7-3.45,27.85,27.85,0,0,1,29,12.29,1.75,1.75,0,0,1-.54,2.43A1.73,1.73,0,0,1,713.48,335Z"/></g></g></g></g></svg>