<svg xmlns="http://www.w3.org/2000/svg" xmlns:xlink="http://www.w3.org/1999/xlink" viewBox="0 0 206.85 203.33"><defs><style>.cls-1{fill:none;}.cls-2{isolation:isolate;}.cls-11,.cls-3,.cls-6{fill:#fff;}.cls-3{stroke:#111a5c;stroke-miterlimit:10;stroke-width:3px;}.cls-4{fill:#111a5c;}.cls-5{fill:#ffae26;}.cls-7{clip-path:url(#clip-path);}.cls-8{fill:#853a08;}.cls-9{clip-path:url(#clip-path-2);}.cls-10{fill:#eb6e00;}.cls-11{opacity:0.4;mix-blend-mode:overlay;}.cls-12,.cls-13{fill:#d9d9d9;}.cls-13{opacity:0.3;}.cls-14{fill:#261919;}.cls-15{fill:#22cde2;}</style><clipPath id="clip-path" transform="translate(11.82)"><polygon class="cls-1" points="97.25 9.3 39.76 30.23 9.16 83.22 19.79 143.48 66.66 182.81 127.84 182.81 174.72 143.48 185.34 83.22 154.75 30.23 97.25 9.3"/></clipPath><clipPath id="clip-path-2" transform="translate(11.82)"><circle class="cls-1" cx="40.13" cy="46.64" r="27.03" transform="translate(-9.7 10.55) rotate(-13.38)"/></clipPath></defs><g class="cls-2"><g id="圖層_2" data-name="圖層 2"><g id="OBJECTS"><polygon class="cls-3" points="109.07 1.6 46.62 24.33 13.39 81.88 24.93 147.33 75.84 190.05 142.3 190.05 193.21 147.33 204.75 81.88 171.52 24.33 109.07 1.6"/><polygon class="cls-4" points="109.07 9.3 51.58 30.23 20.98 83.22 31.61 143.48 78.48 182.81 139.67 182.81 186.54 143.48 197.16 83.22 166.57 30.23 109.07 9.3"/><polygon class="cls-5" points="169.63 79.2 164.85 80.88 163.37 88.3 161.76 80.56 157.11 79.2 161.76 77.63 163.37 70.11 164.78 77.66 169.63 79.2"/><polygon class="cls-5" points="156.65 149.42 152.35 150.92 151.03 157.58 149.58 150.63 145.4 149.42 149.58 148 151.03 141.25 152.29 148.03 156.65 149.42"/><polygon class="cls-5" points="142.23 37.85 137.62 39.46 136.2 46.6 134.65 39.15 130.17 37.85 134.65 36.34 136.2 29.1 137.56 36.37 142.23 37.85"/><polygon class="cls-6" points="74.46 116.75 69.62 118.44 68.12 123.71 66.5 118.12 61.79 116.75 66.5 115.16 68.12 109.79 69.56 115.19 74.46 116.75"/><polygon class="cls-6" points="86.3 129.92 80.27 132.02 78.41 138.58 76.39 131.62 70.52 129.92 76.39 127.94 78.41 121.26 80.19 127.98 86.3 129.92"/><polygon class="cls-6" points="160.82 64.14 156.83 65.53 155.59 69.88 154.25 65.27 150.36 64.14 154.25 62.83 155.59 58.4 156.77 62.85 160.82 64.14"/><polygon class="cls-6" points="45.74 102.5 39.36 104.73 37.39 111.68 35.25 104.3 29.04 102.5 35.25 100.4 37.39 93.33 39.28 100.44 45.74 102.5"/><polygon class="cls-6" points="186.28 76.7 181.6 78.33 180.16 83.42 178.59 78.02 174.04 76.7 178.59 75.16 180.16 69.98 181.54 75.19 186.28 76.7"/><g class="cls-7"><path class="cls-8" d="M-11.67,64.14c-.63-1.86,0-3.93,14.63-10.42,9.3-4.14,21.88-9,35.43-13.57S64.85,31.69,74.74,29.3c15.53-3.74,17.31-2.51,18-.65l-3.26,1.11a1.11,1.11,0,0,0,.53.65c-2.44-.92-21.33,3.09-50.47,13S-7.06,61.66-8.44,63.87a1.06,1.06,0,0,0,0-.84Z" transform="translate(11.82)"/><g class="cls-9"><circle class="cls-10" cx="40.13" cy="46.64" r="27.03" transform="translate(2.12 10.55) rotate(-13.38)"/><path class="cls-5" d="M9.13,48.2c11-3.14,22.12-6.31,32.47-11.24s20-11.74,26.78-21c.83,9.65-5.5,18.78-13.61,24.07S37,47.49,27.51,49.58l-31.45,7a3.65,3.65,0,0,1-2.61-.08c-.77-.45-1-1.82-.12-2.14" transform="translate(11.82)"/><path class="cls-5" d="M88.59,24.74C77,36.61,68.93,49.79,54.46,59,44.54,65.25,22,75.32,10.51,68.8c2.47-4.84,10-6.33,14.7-8C33,58,40.67,55,48.19,51.6,63,44.89,77.17,36.43,88.59,24.74Z" transform="translate(11.82)"/><path class="cls-5" d="M37.76,26c8.88-3.38,18-7.36,24-14.74A69.35,69.35,0,0,1,20.69,39.47c-4.47,1.06-21.06,3-10.49-3.82C17.64,30.84,29.41,29.16,37.76,26Z" transform="translate(11.82)"/><path class="cls-11" d="M43.43,22.42c2.81-.11,6.3.67,7.71,3.83.84,1.89-16.35,34.28-22.9,35.94C14.3,65.72,13.38,41.87,20.71,32.28,25.61,25.87,35.63,22.73,43.43,22.42Z" transform="translate(11.82)"/></g><path class="cls-8" d="M-7.89,65.92c-2.79,0-3.44-.8-3.78-1.78L-8.41,63a1.11,1.11,0,0,0-.53-.65c2.44.92,21.33-3.09,50.47-13S88.08,31.13,89.46,28.92a1.12,1.12,0,0,0,0,.84l3.26-1.11c.63,1.86,0,3.93-14.63,10.43-9.29,4.14-21.88,9-35.43,13.56S16.17,61.1,6.28,63.49C-1.09,65.27-5.36,65.92-7.89,65.92Z" transform="translate(11.82)"/><path class="cls-12" d="M195,129.78c-.85,4.89-14.06,8-30.8,6.53-2.72-.23-5.54-.6-8.4-1.1-20.52-3.58-36.06-12.68-35.07-18.37a44.19,44.19,0,0,1,20.16-3.27c2.58.16,10.53,5.11,17.11,6.26,5.42.94,14-1.48,18.44.23A100.32,100.32,0,0,1,195,129.78Z" transform="translate(11.82)"/><path d="M129,118.27a1.9,1.9,0,1,1-1.55-2.2A1.91,1.91,0,0,1,129,118.27Z" transform="translate(11.82)"/><path d="M137,123.53a1.9,1.9,0,0,1-3.75-.65,1.9,1.9,0,1,1,3.75.65Z" transform="translate(11.82)"/><path d="M146.28,128.5a1.9,1.9,0,1,1-1.55-2.2A1.91,1.91,0,0,1,146.28,128.5Z" transform="translate(11.82)"/><path d="M186.81,128.35A1.9,1.9,0,1,0,189,126.8,1.9,1.9,0,0,0,186.81,128.35Z" transform="translate(11.82)"/><path d="M177.45,130.58a1.9,1.9,0,1,0,2.21-1.55A1.9,1.9,0,0,0,177.45,130.58Z" transform="translate(11.82)"/><path d="M167.06,132.12a1.9,1.9,0,1,0,2.2-1.54A1.91,1.91,0,0,0,167.06,132.12Z" transform="translate(11.82)"/><path d="M158.21,131.9a1.9,1.9,0,1,1-1.54-2.2A1.9,1.9,0,0,1,158.21,131.9Z" transform="translate(11.82)"/><path class="cls-11" d="M164.22,136.31c-2.72-.23-5.54-.6-8.4-1.1-20.52-3.58-36.06-12.68-35.07-18.37a87.1,87.1,0,0,1,20.16-3.27,20.58,20.58,0,0,0,3.13,4.48c3.42,3.75,7.85,6.4,12,9.34,1.61,1.15,5.15,2,5.9,3.84C162.52,132.7,163.44,134.56,164.22,136.31Z" transform="translate(11.82)"/><path class="cls-13" d="M177.27,119c-1.4,8-25.15,5.51-33.41-1-2-1.56-3.09-3.37-2.75-5.31,1.74-10,7.74-21.77,22-19.29a20,20,0,0,1,5.57,1.78C177.77,99.71,178.75,110.48,177.27,119Z" transform="translate(11.82)"/><path class="cls-12" d="M149.12,100.93c1.36.66,5.62-3.08,5.11-4.89C153.63,93.91,147.42,99.8,149.12,100.93Z" transform="translate(11.82)"/><path class="cls-12" d="M144.89,105.21c-1.31,3.52,6-1.56,3.16-3.13C146.46,101.22,145.21,104.34,144.89,105.21Z" transform="translate(11.82)"/><path class="cls-11" d="M168.67,95.16c-6.28,1.66-12.4,4.43-16.54,9.37-2.48,3-4.1,6.52-5.95,9.9a22.35,22.35,0,0,1-2.32,3.55c-2-1.56-3.09-3.37-2.75-5.31,1.74-10,7.74-21.77,22-19.29A20,20,0,0,1,168.67,95.16Z" transform="translate(11.82)"/><path class="cls-14" d="M178.43,118.84l-.86,4.94c-4.65,1-11.82.9-19.68-.47s-14.64-3.71-18.69-6.22l.86-4.93S157.83,121.61,178.43,118.84Z" transform="translate(11.82)"/><path class="cls-12" d="M143.76,116.41a1.12,1.12,0,1,1-.92-1.3A1.14,1.14,0,0,1,143.76,116.41Z" transform="translate(11.82)"/><path class="cls-12" d="M176.25,122.07a1.12,1.12,0,1,1-.91-1.29A1.11,1.11,0,0,1,176.25,122.07Z" transform="translate(11.82)"/><path class="cls-12" d="M149.42,118.53a1.12,1.12,0,0,1-1.3.91,1.11,1.11,0,0,1-.91-1.29,1.12,1.12,0,0,1,2.21.38Z" transform="translate(11.82)"/><path class="cls-12" d="M170,122.11a1.14,1.14,0,0,1-1.3.92,1.12,1.12,0,1,1,1.3-.92Z" transform="translate(11.82)"/><path class="cls-12" d="M156.06,120.33a1.12,1.12,0,1,1-.92-1.3A1.14,1.14,0,0,1,156.06,120.33Z" transform="translate(11.82)"/><path class="cls-12" d="M163,121.53a1.12,1.12,0,1,1-.91-1.29A1.11,1.11,0,0,1,163,121.53Z" transform="translate(11.82)"/><path class="cls-15" d="M80.06,142.79a21.83,21.83,0,0,1-.74,4.9c-.82,3.33-2.06,6.84-2.26,9.83-24.68-2.59-34.63-5.06-40-9.19a15.26,15.26,0,0,1-2.77-2.73,5.22,5.22,0,0,1-.41-.57c-3.8-5.93-1.72-21.6,1.46-35.73.67-3.07,1.41-6,2.14-8.85.17-.66.34-1.3.51-1.94.68-.05,1.71-.08,2.85-.08h3.77l2.18,0c0,.42-.07.83-.11,1.25v0c-.07.73-.12,1.43-.17,2.13h0c-.1,1.3-.19,2.54-.27,3.76-1.5,23,.5,32.78.5,32.78.21.15.42.29.64.42C50.67,140.78,55.3,140.47,80.06,142.79Z" transform="translate(11.82)"/><polygon class="cls-15" points="53.48 102.52 52.34 102.71 52.3 102.72 49.79 103.16 49.32 100.45 47.95 92.56 47.14 87.89 47.02 87.18 50.71 86.54 50.84 87.25 51.16 89.08 52.71 98.06 52.71 98.07 52.78 98.42 53.26 101.17 53.26 101.18 53.48 102.52"/><path class="cls-15" d="M40.24,84.55v0A3.63,3.63,0,0,1,39,87.25a3.57,3.57,0,0,1-1.76.84,3.83,3.83,0,0,1-1.94-.19,3.6,3.6,0,1,1,4.86-4A4.2,4.2,0,0,1,40.24,84.55Z" transform="translate(11.82)"/><polygon class="cls-15" points="57.34 87.03 57.28 87.76 56.66 95.63 56.45 98.44 56.07 103.14 56.07 103.2 55.98 103.19 52.33 102.9 52.34 102.71 52.35 102.64 52.35 102.63 52.69 98.43 52.71 98.07 52.71 98.06 53.54 87.46 53.6 86.73 57.34 87.03"/><path class="cls-15" d="M47.42,84.83a3.59,3.59,0,0,1-2,2.93,3.41,3.41,0,0,1-1.9.37,3.54,3.54,0,0,1-1.84-.67,3.39,3.39,0,0,1-.67-.64,3.45,3.45,0,0,1-.81-2.25v0a2.62,2.62,0,0,1,0-.28A3.59,3.59,0,0,1,44.11,81a2.11,2.11,0,0,1,.35.05h0A3.6,3.6,0,0,1,47.42,84.83Z" transform="translate(11.82)"/><rect class="cls-15" x="43.94" y="89.51" width="3.75" height="16.22" transform="translate(69.77 -9.53) rotate(31.6)"/><path class="cls-15" d="M54.35,90.6a3.59,3.59,0,1,1-1.18-4.94A3.59,3.59,0,0,1,54.35,90.6Z" transform="translate(11.82)"/><rect class="cls-15" x="46.96" y="95.73" width="3.17" height="13.74" transform="translate(126.98 10.7) rotate(61.26)"/><path class="cls-15" d="M57.77,101A3,3,0,1,1,59,96.88,3.05,3.05,0,0,1,57.77,101Z" transform="translate(11.82)"/><path class="cls-11" d="M44.46,81a38.43,38.43,0,0,1-3.41,5.81,3.45,3.45,0,0,1-.81-2.25A3.63,3.63,0,0,1,39,87.25l.32,1.83a39.14,39.14,0,0,1-3.21,3.48l-.81-4.66a3.6,3.6,0,1,1,4.86-4,4.2,4.2,0,0,1,.06.61,2.62,2.62,0,0,1,0-.28A3.59,3.59,0,0,1,44.11,81,2.11,2.11,0,0,1,44.46,81Z" transform="translate(11.82)"/><path class="cls-11" d="M34.26,133c-.2,5.6,3.48,9.77,2.82,15.33a15.26,15.26,0,0,1-2.77-2.73,5.22,5.22,0,0,1-.41-.57c-3.8-5.93-1.72-21.6,1.46-35.73.67-3.07,1.41-6,2.14-8.85C35.42,124.09,34.47,127.32,34.26,133Z" transform="translate(11.82)"/><path class="cls-15" d="M129.53,156.55v46.78H67.92V156.55A26.88,26.88,0,0,1,94.8,129.66h7.85A26.88,26.88,0,0,1,129.53,156.55Z" transform="translate(11.82)"/><path class="cls-11" d="M89.93,203.33h-22V156.55s2.91,27.1,11.13,36.13A113.85,113.85,0,0,0,89.93,203.33Z" transform="translate(11.82)"/><rect class="cls-15" x="101.62" y="110.72" width="17.85" height="31.59"/><path class="cls-15" d="M126.61,81.65a62.32,62.32,0,0,1-1.49,13.7c-3.74,16.72-14.14,28.74-26.39,28.74a18.94,18.94,0,0,1-7.87-1.72c-8.89-4-15.93-14.47-18.71-27.87,0,0,0,0,0,0a63.27,63.27,0,0,1-1.3-12.83c0-.61,0-1.2,0-1.79.35-22.62,7.72-40.67,27.87-40.67,7.44,0,13.13,2.46,17.37,6.7,7.32,7.32,10.33,20,10.5,34.4C126.61,80.74,126.61,81.19,126.61,81.65Z" transform="translate(11.82)"/><path d="M109.58,97.62c0,.6-4.86,1.09-10.85,1.09s-10.86-.49-10.86-1.09,4.86-1.1,10.86-1.1S109.58,97,109.58,97.62Z" transform="translate(11.82)"/><path d="M95.72,83.48S89,88.85,83.16,87.11s-9.63-6.17-8.51-9.92,6.74-5.37,12.56-3.63S95.72,83.48,95.72,83.48Z" transform="translate(11.82)"/><path class="cls-6" d="M84.18,77.59c0,.89-1.18,1.62-2.63,1.62s-2.63-.73-2.63-1.62S80.1,76,81.55,76,84.18,76.7,84.18,77.59Z" transform="translate(11.82)"/><path d="M102.7,83.48s6.73,5.37,12.55,3.63,9.63-6.17,8.51-9.92-6.74-5.37-12.55-3.63S102.7,83.48,102.7,83.48Z" transform="translate(11.82)"/><path class="cls-6" d="M114.84,77.59c0,.89-1.18,1.62-2.63,1.62s-2.63-.73-2.63-1.62S110.75,76,112.21,76,114.84,76.7,114.84,77.59Z" transform="translate(11.82)"/><path class="cls-15" d="M124,84.55s7.1-12,9.55-12.73S125,98.54,122.77,98.43,124,84.55,124,84.55Z" transform="translate(11.82)"/><path class="cls-15" d="M75,98.42c-.53,0-1.57-1.54-2.81-3.92,0,0,0,0,0,0-3.9-7.54-9.76-23.19-7.9-22.65,1.42.4,4.37,4.57,6.63,8,1.65,2.54,2.92,4.69,2.92,4.69S77.19,98.31,75,98.42Z" transform="translate(11.82)"/><path class="cls-11" d="M116.1,45.89c0,.14-.15.55-.11.41.11-.41-23.06-2.45-32.8,26.59a31.79,31.79,0,0,0-1.37,4.17,25.89,25.89,0,0,0,.31,9.72c.13.75.29,1.49.45,2.22,1.71,7.92,9.06,32.2,8.28,33.37-8.89-4-15.93-14.47-18.71-27.87,0,0,0,0,0,0-3.9-7.54-9.76-23.19-7.9-22.65,1.42.4,4.37,4.57,6.63,8,.35-22.62,7.72-40.67,27.87-40.67C106.17,39.19,111.86,41.65,116.1,45.89Z" transform="translate(11.82)"/></g></g></g></g></svg>