<svg xmlns="http://www.w3.org/2000/svg" viewBox="0 0 947.81 956.32"><defs><style>.cls-1{fill:#fff;}.cls-2{fill:#80d8ff;}.cls-3{fill:#37474f;}.cls-4{fill:#ffe57f;}.cls-5{fill:#82b1ff;}</style></defs><g id="圖層_2" data-name="圖層 2"><g id="_1" data-name=" 1"><g id="Group_89" data-name="Group 89"><g id="Group_9" data-name="Group 9"><path id="Path_29" data-name="Path 29" class="cls-1" d="M28.84,672.69A2.61,2.61,0,0,1,26.38,671c-63.11-172.12-10.46-366,131-482.41a2.62,2.62,0,0,1,3.43,4l-.1.07C21,307.62-31,499.14,31.3,669.17a2.62,2.62,0,0,1-1.56,3.36,2.51,2.51,0,0,1-.9.16Z"/></g><g id="Group_10" data-name="Group 10"><path id="Path_30" data-name="Path 30" class="cls-1" d="M885.13,459.51a2.61,2.61,0,0,1-2.6-2.34C859.49,239.8,677,75.89,458.14,75.89a2.62,2.62,0,0,1,0-5.24h0c220.77,0,406,166.45,429.6,386a2.62,2.62,0,0,1-2.32,2.88h0A1.27,1.27,0,0,1,885.13,459.51Z"/></g><g id="Group_11" data-name="Group 11"><path id="Path_31" data-name="Path 31" class="cls-1" d="M646,907.19a2.62,2.62,0,0,1-1.24-4.93c71.82-38.47,130.54-95.87,169.82-166a2.62,2.62,0,0,1,4.56,2.56c-39.76,71-99.2,129.1-171.9,168A2.68,2.68,0,0,1,646,907.19Z"/></g><g id="Group_15" data-name="Group 15"><g id="Group_13" data-name="Group 13"><path id="Path_33" data-name="Path 33" class="cls-2" d="M370.88,277.11a11.47,11.47,0,1,0-11.47,11.47,11.46,11.46,0,0,0,11.47-11.47Z"/></g><g id="Group_14" data-name="Group 14"><path id="Path_34" data-name="Path 34" class="cls-3" d="M352.8,291.2a14.1,14.1,0,1,1,14.1-14.09A14.1,14.1,0,0,1,352.8,291.2Zm0-22.95a8.86,8.86,0,1,0,8.85,8.86,8.86,8.86,0,0,0-8.85-8.86Z"/></g></g><g id="Group_28" data-name="Group 28"><path id="Path_42" data-name="Path 42" class="cls-1" d="M198.81,649.34a2.62,2.62,0,0,1-2.3-1.36,290.83,290.83,0,0,1-35.07-138.55c0-158.94,128-288.24,285.35-288.24a2.62,2.62,0,0,1,0,5.24h0c-154.45,0-280.11,127-280.11,283a285.48,285.48,0,0,0,34.43,136,2.62,2.62,0,0,1-2.3,3.87Z"/></g><g id="Group_29" data-name="Group 29"><path id="Path_43" data-name="Path 43" class="cls-1" d="M446.79,797.66c-9.06,0-18.22-.44-27.21-1.3a2.61,2.61,0,0,1-2.36-2.84h0a2.58,2.58,0,0,1,2.77-2.37h.08c8.83.84,17.82,1.27,26.72,1.27a275.61,275.61,0,0,0,115.05-24.9,2.62,2.62,0,1,1,2.17,4.77A280.84,280.84,0,0,1,446.79,797.66Z"/></g><g id="Group_42" data-name="Group 42"><g id="Group_143" data-name="Group 143"><g id="Group_137" data-name="Group 137"><g id="Group_136" data-name="Group 136"><path id="Path_110" data-name="Path 110" class="cls-4" d="M289.05,681s8.36,56.12,63.6,69.71c10.41,2.56,18,9.43,15.54,19.62-2.69,11.17-13.8,17.34-26.69,13C312.87,773.8,277.68,715,289.05,681Z"/></g></g><g id="Group_142" data-name="Group 142"><g id="Group_138" data-name="Group 138"><path id="Path_111" data-name="Path 111" class="cls-1" d="M348.87,789.4a27.24,27.24,0,0,1-8.68-1.48c-14.28-4.77-30.47-21.21-42.26-42.9-12.42-22.83-16.66-45.93-11.35-61.78a1.85,1.85,0,0,1,1.9-1.24,1.83,1.83,0,0,1,1.65,1.55c.08.55,8.85,55.07,62.23,68.2,12.69,3.12,19.31,11.69,16.87,21.83C366.91,783.19,358.92,789.4,348.87,789.4Zm-60.5-97.47c-1.82,14.3,2.71,32.84,12.77,51.35,11.2,20.59,27,36.75,40.2,41.17a23.81,23.81,0,0,0,7.52,1.29c8.3,0,14.9-5.11,16.8-13,2.34-9.7-5.8-15.35-14.19-17.42-43.21-10.63-58.41-47.17-63.1-63.37Z"/></g><g id="Group_139" data-name="Group 139"><path id="Path_112" data-name="Path 112" class="cls-1" d="M349.78,782.08c-3.5,0-13.12-1.07-19.08-12.11a1.83,1.83,0,1,1,3.22-1.73c6,11.16,16.32,10.2,16.76,10.15a1.83,1.83,0,1,1,.41,3.63h0A9.65,9.65,0,0,1,349.78,782.08Z"/></g></g></g></g><g id="Group_85" data-name="Group 85"><g id="Group_62" data-name="Group 62"><g id="Group_47" data-name="Group 47"><path id="Path_58" data-name="Path 58" class="cls-5" d="M728,323.13a64,64,0,0,0,64-64H664A64,64,0,0,0,728,323.13Z"/></g><g id="Group_48" data-name="Group 48"><path id="Path_59" data-name="Path 59" class="cls-5" d="M728,222.27a36.86,36.86,0,0,0-36.85,36.84h73.69A36.85,36.85,0,0,0,728,222.27Z"/></g><g id="Group_52" data-name="Group 52"><g id="Group_49" data-name="Group 49"><path id="Path_60" data-name="Path 60" class="cls-5" d="M701.71,280a8.22,8.22,0,1,1-8.22-8.22h0A8.22,8.22,0,0,1,701.71,280Z"/></g><g id="Group_50" data-name="Group 50"><path id="Path_61" data-name="Path 61" class="cls-5" d="M736.21,280a8.22,8.22,0,1,1-8.22-8.22h0a8.22,8.22,0,0,1,8.22,8.21Z"/></g><g id="Group_51" data-name="Group 51"><path id="Path_62" data-name="Path 62" class="cls-5" d="M770.71,280a8.22,8.22,0,1,1-8.21-8.22h0A8.22,8.22,0,0,1,770.71,280Z"/></g></g><g id="Group_60" data-name="Group 60"><g id="Group_54" data-name="Group 54"><g id="Group_53" data-name="Group 53"><path id="Path_63" data-name="Path 63" class="cls-5" d="M736.21,369.47a8.22,8.22,0,1,1-8.22-8.22h0A8.22,8.22,0,0,1,736.21,369.47Z"/></g></g><g id="Group_59" data-name="Group 59"><g id="Group_56" data-name="Group 56"><g id="Group_55" data-name="Group 55"><path id="Path_64" data-name="Path 64" class="cls-5" d="M777.26,357.18a8.22,8.22,0,1,1-11.11-3.4,8.22,8.22,0,0,1,11.11,3.4Z"/></g></g><g id="Group_58" data-name="Group 58"><g id="Group_57" data-name="Group 57"><path id="Path_65" data-name="Path 65" class="cls-5" d="M678.73,357.18a8.21,8.21,0,1,0,11.12-3.4,8.21,8.21,0,0,0-11.12,3.4Z"/></g></g></g></g></g><g id="Group_63" data-name="Group 63"><path id="Path_67" data-name="Path 67" class="cls-1" d="M722.09,327.1a66.73,66.73,0,0,1-66.65-66.65,2.62,2.62,0,0,1,2.62-2.62H786.12a2.62,2.62,0,0,1,2.62,2.62A66.73,66.73,0,0,1,722.09,327.1Zm-61.35-64a61.41,61.41,0,0,0,122.7,0Z"/></g><g id="Group_64" data-name="Group 64"><path id="Path_68" data-name="Path 68" class="cls-1" d="M758.93,263.08H685.25a2.62,2.62,0,0,1-2.62-2.62h0a39.46,39.46,0,0,1,78.92,0h0a2.62,2.62,0,0,1-2.62,2.62Zm-71-5.24h68.25a34.23,34.23,0,0,0-68.25,0Z"/></g><g id="Group_68" data-name="Group 68"><g id="Group_65" data-name="Group 65"><circle id="Ellipse_1" data-name="Ellipse 1" class="cls-1" cx="692.15" cy="280.87" r="8.22"/></g><g id="Group_66" data-name="Group 66"><circle id="Ellipse_2" data-name="Ellipse 2" class="cls-1" cx="726.66" cy="280.87" r="8.22"/></g><g id="Group_67" data-name="Group 67"><circle id="Ellipse_3" data-name="Ellipse 3" class="cls-1" cx="761.16" cy="280.87" r="8.22"/></g></g><g id="Group_79" data-name="Group 79"><g id="Group_71" data-name="Group 71"><g id="Group_69" data-name="Group 69"><path id="Path_69" data-name="Path 69" class="cls-1" d="M722.09,365.21a2.61,2.61,0,0,1-2.62-2.61V324.48a2.62,2.62,0,0,1,5.24,0V362.6a2.62,2.62,0,0,1-2.62,2.61Z"/></g><g id="Group_70" data-name="Group 70"><path id="Path_70" data-name="Path 70" class="cls-1" d="M722.09,381.64a10.83,10.83,0,1,1,10.83-10.83A10.83,10.83,0,0,1,722.09,381.64Zm0-16.43a5.6,5.6,0,1,0,5.6,5.6,5.6,5.6,0,0,0-5.6-5.6Z"/></g></g><g id="Group_78" data-name="Group 78"><g id="Group_74" data-name="Group 74"><g id="Group_72" data-name="Group 72"><path id="Path_71" data-name="Path 71" class="cls-1" d="M760.24,357.74a2.6,2.6,0,0,1-2.31-1.39L740,322.7a2.62,2.62,0,1,1,4.62-2.46h0l17.9,33.65a2.62,2.62,0,0,1-1.08,3.54h0A2.53,2.53,0,0,1,760.24,357.74Z"/></g><g id="Group_73" data-name="Group 73"><path id="Path_72" data-name="Path 72" class="cls-1" d="M764.1,373.21a10.84,10.84,0,1,1,5.08-1.27A10.84,10.84,0,0,1,764.1,373.21Zm0-16.43a5.53,5.53,0,0,0-2.62.65,5.61,5.61,0,0,0-2.32,7.57,5.71,5.71,0,0,0,7.57,2.32,5.6,5.6,0,0,0-2.63-10.54Z"/></g></g><g id="Group_77" data-name="Group 77"><g id="Group_75" data-name="Group 75"><path id="Path_73" data-name="Path 73" class="cls-1" d="M683.94,357.74a2.62,2.62,0,0,1-2.31-3.85l17.9-33.65a2.62,2.62,0,0,1,4.62,2.46h0l-17.9,33.65A2.6,2.6,0,0,1,683.94,357.74Z"/></g><g id="Group_76" data-name="Group 76"><path id="Path_74" data-name="Path 74" class="cls-1" d="M680.07,373.21h0a10.83,10.83,0,1,1,9.57-5.73,10.8,10.8,0,0,1-9.57,5.73Zm0-16.43a5.6,5.6,0,0,0-2.64,10.54A5.72,5.72,0,0,0,685,365a5.59,5.59,0,0,0-4.93-8.22Z"/></g></g></g></g><g id="Group_80" data-name="Group 80"><path id="Path_75" data-name="Path 75" class="cls-1" d="M722.09,226.23a2.62,2.62,0,0,1-2.62-2.62V202.79a2.62,2.62,0,0,1,5.24,0h0v20.83a2.62,2.62,0,0,1-2.62,2.61Z"/></g><g id="Group_84" data-name="Group 84"><g id="Group_81" data-name="Group 81"><path id="Path_76" data-name="Path 76" class="cls-3" d="M687.59,292.18a10.84,10.84,0,1,1,10.83-10.83h0A10.84,10.84,0,0,1,687.59,292.18Zm0-16.43a5.6,5.6,0,1,0,5.6,5.6,5.6,5.6,0,0,0-5.6-5.6Z"/></g><g id="Group_82" data-name="Group 82"><path id="Path_77" data-name="Path 77" class="cls-3" d="M722.09,292.18a10.84,10.84,0,1,1,10.83-10.83A10.82,10.82,0,0,1,722.09,292.18Zm0-16.43a5.6,5.6,0,1,0,5.6,5.6,5.6,5.6,0,0,0-5.6-5.6Z"/></g><g id="Group_83" data-name="Group 83"><path id="Path_78" data-name="Path 78" class="cls-3" d="M756.59,292.18a10.84,10.84,0,1,1,10.84-10.83h0A10.85,10.85,0,0,1,756.59,292.18Zm0-16.43a5.6,5.6,0,1,0,5.6,5.6,5.6,5.6,0,0,0-5.6-5.6Z"/></g></g></g><g id="Group_135" data-name="Group 135"><g id="Group_126" data-name="Group 126"><circle id="Ellipse_6" data-name="Ellipse 6" class="cls-5" cx="579.98" cy="919.13" r="34.8"/></g><g id="Group_134" data-name="Group 134"><g id="Group_127" data-name="Group 127"><path id="Path_103" data-name="Path 103" class="cls-1" d="M575.14,956.32a37.4,37.4,0,1,1,35-24.3A37.4,37.4,0,0,1,575.14,956.32Zm0-71.15a33.77,33.77,0,1,0,11.76,2.13,33.48,33.48,0,0,0-11.76-2.13Z"/></g><g id="Group_128" data-name="Group 128"><path id="Path_104" data-name="Path 104" class="cls-1" d="M577.13,940.27h-2.31c-14.55-.22-28.23-2.5-38.51-6.41-10.86-4.13-16.79-9.74-16.7-15.77.11-7.14,8.64-13.38,23.4-17.11l.9,3.55c-12.65,3.2-20.56,8.41-20.64,13.61-.07,4.33,5.16,8.8,14.34,12.3,9.9,3.77,23.13,6,37.27,6.17s27.43-1.57,37.43-5C621.59,928.35,627,924,627,919.7c.08-5.32-7.94-10.84-20.92-14.43l1-3.52c15.11,4.17,23.72,10.73,23.6,18-.09,6-6.19,11.46-17.16,15.26C603.66,938.42,590.82,940.27,577.13,940.27Z"/></g><g id="Group_129" data-name="Group 129"><path id="Path_105" data-name="Path 105" class="cls-1" d="M552.08,923.43H539.85a1.83,1.83,0,0,1,0-3.66h12.23a1.83,1.83,0,0,1,0,3.66Z"/></g><g id="Group_130" data-name="Group 130"><path id="Path_106" data-name="Path 106" class="cls-1" d="M575.15,923.43h-14.9a1.82,1.82,0,0,1-1.87-1.78,1.85,1.85,0,0,1,1.79-1.88h15a1.85,1.85,0,0,1,1.79,1.88,1.83,1.83,0,0,1-1.79,1.78Z"/></g><g id="Group_131" data-name="Group 131"><path id="Path_107" data-name="Path 107" class="cls-1" d="M555.58,913.36H542.84a1.83,1.83,0,0,1,0-3.66h12.74a1.83,1.83,0,0,1,0,3.66Z"/></g><g id="Group_132" data-name="Group 132"><path id="Path_108" data-name="Path 108" class="cls-1" d="M599.82,895.7H584.56a1.83,1.83,0,1,1-.08-3.66h15.34a1.83,1.83,0,0,1,0,3.66Z"/></g><g id="Group_133" data-name="Group 133"><path id="Path_109" data-name="Path 109" class="cls-1" d="M600.6,904.57H588.79a1.83,1.83,0,0,1,0-3.66h11.82a1.83,1.83,0,1,1,.08,3.66h-.09Z"/></g></g></g></g><g id="Group_111" data-name="Group 111"><g id="Group_92" data-name="Group 92"><g id="Group_90" data-name="Group 90"><path id="Path_81" data-name="Path 81" class="cls-2" d="M840.71,720.27l-1.31-.5c-6.79-2.62-10.06-10.53-7.3-17.66l28.95-72.49L887.5,634,858,712.12C855.23,719.24,847.49,722.89,840.71,720.27Z"/></g><g id="Group_91" data-name="Group 91"><path id="Path_82" data-name="Path 82" class="cls-1" d="M854.32,701.32a2.46,2.46,0,0,1-.85-.16l-21.9-8.62a2.33,2.33,0,0,1,1.6-4.37l.1,0,21.9,8.61a2.33,2.33,0,0,1-.86,4.5Z"/></g></g><g id="Group_95" data-name="Group 95"><g id="Group_93" data-name="Group 93"><path id="Path_83" data-name="Path 83" class="cls-2" d="M803.42,706.05l-1.31-.51c-6.78-2.62-10.05-10.53-7.3-17.66l32.68-83.83,21.41,20.58-28.21,73.26C817.94,705,810.21,708.67,803.42,706.05Z"/></g><g id="Group_94" data-name="Group 94"><path id="Path_84" data-name="Path 84" class="cls-1" d="M820,688.27a2.25,2.25,0,0,1-.85-.16l-24.89-9.79A2.33,2.33,0,0,1,796,674l24.89,9.79a2.32,2.32,0,0,1-.85,4.49Z"/></g></g><g id="Group_96" data-name="Group 96"><path id="Path_85" data-name="Path 85" class="cls-2" d="M933.75,548.86l14.06-36.34-8.94-3.46a39.85,39.85,0,0,0-25.45-36c-15.42-6-37.65-1.87-48.44,9.33l-4.26-1.46-13.35,34.53a14.82,14.82,0,0,0-15.83,9.33l-28.26,73.1a12.71,12.71,0,0,0,7.27,16.44h0c4.32,1.67,10.57-6.25,14-8.9l23.41,24.19,10.82,2.18,2-.36,23.84,9.17c.74,4.26,5.56,4.51,9.88,6.18a12.7,12.7,0,0,0,16.43-7.27h0l28.26-73.1A14.82,14.82,0,0,0,933.75,548.86ZM828.83,604.05l-.59-.23.13-.35Z"/></g><g id="Group_97" data-name="Group 97"><path id="Path_86" data-name="Path 86" class="cls-3" d="M841.52,517.87a2.2,2.2,0,0,1-.84-.16,2.32,2.32,0,0,1-1.33-3h0l13.93-36a2.32,2.32,0,0,1,3-1.33l7.92,3.06a2.33,2.33,0,0,1-1.68,4.34l-5.74-2.22-13.09,33.84A2.33,2.33,0,0,1,841.52,517.87Z"/></g><g id="Group_98" data-name="Group 98"><path id="Path_87" data-name="Path 87" class="cls-3" d="M893.07,552.78a42.16,42.16,0,1,1,39.32-27A42.19,42.19,0,0,1,893.07,552.78Zm0-79.67a37.51,37.51,0,1,0,13.47,2.51,37.5,37.5,0,0,0-13.47-2.51Z"/></g><g id="Group_99" data-name="Group 99"><circle id="Ellipse_4" data-name="Ellipse 4" class="cls-1" cx="897.16" cy="512.21" r="25.45"/></g><g id="Group_100" data-name="Group 100"><rect id="Rectangle_28" data-name="Rectangle 28" class="cls-1" x="854.95" y="559" width="31.53" height="40.94" transform="translate(16.09 1182.42) rotate(-68.85)"/></g><g id="Group_101" data-name="Group 101"><path id="Path_88" data-name="Path 88" class="cls-3" d="M893.07,538.39A27.75,27.75,0,1,1,919,520.63,27.78,27.78,0,0,1,893.07,538.39Zm0-50.89a23.12,23.12,0,1,0,8.33,1.56,23.13,23.13,0,0,0-8.33-1.56Z"/></g><g id="Group_102" data-name="Group 102"><path id="Path_89" data-name="Path 89" class="cls-3" d="M852.78,634.54a2.41,2.41,0,0,1-.84-.16l-11.53-4.46a2.33,2.33,0,0,1,1.67-4.35L853,629.8l28.24-5.07a2.33,2.33,0,0,1,.83,4.59l-28.89,5.18A2.71,2.71,0,0,1,852.78,634.54Z"/></g><g id="Group_103" data-name="Group 103"><path id="Path_90" data-name="Path 90" class="cls-1" d="M827.44,592.24a2.09,2.09,0,0,1-.86-.16L803,582.67a2.33,2.33,0,1,1,1.73-4.32h0l23.61,9.4a2.33,2.33,0,0,1-.86,4.49Z"/></g><g id="Group_106" data-name="Group 106"><g id="Group_104" data-name="Group 104"><path id="Path_91" data-name="Path 91" class="cls-3" d="M803.19,708.2a14.82,14.82,0,0,1-5.39-1l-1.31-.5c-8-3.08-11.84-12.35-8.63-20.67l32.69-83.84a2.31,2.31,0,0,1,1.85-1.46,2.29,2.29,0,0,1,2.17.9l18.73,24.8a2.31,2.31,0,0,1,.32,2.21l-25.52,69A16.23,16.23,0,0,1,803.19,708.2Zm20.18-100.45-31.17,80c-2.28,5.91.39,12.48,6,14.64l1.31.5a10,10,0,0,0,3.71.69A11.54,11.54,0,0,0,813.75,696l25.07-67.82Z"/></g><g id="Group_105" data-name="Group 105"><path id="Path_92" data-name="Path 92" class="cls-3" d="M838.68,722a13.5,13.5,0,0,1-4.91-.92l-1.17-.45c-7.27-2.81-10.79-11.25-7.87-18.82l27.45-71a2.34,2.34,0,0,1,1.71-1.44l28.26-5.72a2.33,2.33,0,0,1,2.74,1.82,2.36,2.36,0,0,1-.1,1.29l-32.54,85.67A14.75,14.75,0,0,1,838.68,722Zm17.38-88.31-27,69.8c-2,5.18.33,10.92,5.2,12.8l1.17.45a8.91,8.91,0,0,0,3.23.61,10.1,10.1,0,0,0,9.23-6.58l31-81.71Z"/></g></g><g id="Group_109" data-name="Group 109"><g id="Group_107" data-name="Group 107"><path id="Path_93" data-name="Path 93" class="cls-3" d="M809.15,617.93a15,15,0,0,1-15-15,15.23,15.23,0,0,1,1-5.42l28.27-73.1a17.16,17.16,0,0,1,22.18-9.82l9.88,3.82a2.34,2.34,0,0,1,1.34,3l-33.62,86.93A15.13,15.13,0,0,1,809.15,617.93Zm30.25-99.88a12.58,12.58,0,0,0-11.67,8l-28.26,73.1a10.38,10.38,0,1,0,19.37,7.49l32.77-84.76-7.7-3a12.45,12.45,0,0,0-4.51-.85Z"/></g><g id="Group_108" data-name="Group 108"><path id="Path_94" data-name="Path 94" class="cls-3" d="M893.08,650.39h0a15,15,0,0,1-14-20.47L912.67,543a2.34,2.34,0,0,1,3-1.33l9.88,3.82a17.16,17.16,0,0,1,9.82,22.19h0l-28.26,73.1A15.14,15.14,0,0,1,893.08,650.39Zm23.09-103.55L883.4,631.6a10.39,10.39,0,0,0,6,13.44,10.39,10.39,0,0,0,13.41-5.95L931,566a12.51,12.51,0,0,0-7.15-16.17h0Z"/></g></g><g id="Group_110" data-name="Group 110"><path id="Path_95" data-name="Path 95" class="cls-3" d="M828.62,590.12a2.16,2.16,0,0,1-.84-.15l-23.71-9.17a2.33,2.33,0,0,1,1.68-4.34h0l23.71,9.17a2.33,2.33,0,0,1-.84,4.5Z"/></g></g><g id="Group_125" data-name="Group 125"><g id="Group_112" data-name="Group 112"><circle id="Ellipse_5" data-name="Ellipse 5" class="cls-2" cx="247.29" cy="143.6" r="40.62"/></g><g id="Group_124" data-name="Group 124"><g id="Group_115" data-name="Group 115"><g id="Group_113" data-name="Group 113"><path id="Path_96" data-name="Path 96" class="cls-1" d="M278.05,153.88a2.58,2.58,0,0,1-.25-5.14l159.59-15.8a2.57,2.57,0,0,1,.51,5.12h0l-159.59,15.8Z"/></g><g id="Group_114" data-name="Group 114"><path id="Path_97" data-name="Path 97" class="cls-1" d="M279.15,145.32a2.57,2.57,0,0,1-.68-5l101.61-28.08a2.57,2.57,0,0,1,1.37,5L279.84,145.23A2.72,2.72,0,0,1,279.15,145.32Z"/></g></g><g id="Group_118" data-name="Group 118"><g id="Group_116" data-name="Group 116"><path id="Path_98" data-name="Path 98" class="cls-1" d="M256.86,111.21a2.57,2.57,0,0,1-2.57-2.57,2.62,2.62,0,0,1,.87-1.93L375.48.67A2.57,2.57,0,0,1,379,4.47l-.07.06-120.31,106A2.51,2.51,0,0,1,256.86,111.21Z"/></g><g id="Group_117" data-name="Group 117"><path id="Path_99" data-name="Path 99" class="cls-1" d="M263.88,116.24a2.57,2.57,0,0,1-1.36-4.76l89.8-55.24a2.57,2.57,0,0,1,2.7,4.38l-89.8,55.24A2.54,2.54,0,0,1,263.88,116.24Z"/></g></g><g id="Group_123" data-name="Group 123"><g id="Group_119" data-name="Group 119"><path id="Path_100" data-name="Path 100" class="cls-1" d="M238,187.62a43.21,43.21,0,1,1,17.21-3.6A43.22,43.22,0,0,1,238,187.62Zm0-81.24a38,38,0,1,0,34.9,22.86A38,38,0,0,0,238,106.38Z"/></g><g id="Group_122" data-name="Group 122"><g id="Group_120" data-name="Group 120"><path id="Path_101" data-name="Path 101" class="cls-1" d="M236.44,173.5a30.63,30.63,0,0,1-8.61-1.23,2.57,2.57,0,1,1,1.45-4.94h0A25.57,25.57,0,0,0,261,150c.17-.58.32-1.16.44-1.75a2.58,2.58,0,0,1,5.05,1s0,.05,0,.07a30.7,30.7,0,0,1-30,24.21Z"/></g><g id="Group_121" data-name="Group 121"><path id="Path_102" data-name="Path 102" class="cls-1" d="M235,162.66a21.32,21.32,0,0,1-6-.86,2.57,2.57,0,0,1,1.45-4.94h0a16.21,16.21,0,0,0,20.11-11c.11-.36.2-.74.28-1.11a2.58,2.58,0,1,1,5.05,1s0,.05,0,.07A21.34,21.34,0,0,1,235,162.65Z"/></g></g></g></g></g></g></g></svg>