<svg xmlns="http://www.w3.org/2000/svg" xmlns:xlink="http://www.w3.org/1999/xlink" viewBox="0 0 250 160"><defs><style>.cls-1{fill:url(#radial-gradient);}.cls-2{fill:#a7a9ac;}.cls-3{fill:url(#radial-gradient-2);}.cls-4{fill:url(#radial-gradient-3);}.cls-5{fill:url(#radial-gradient-4);}.cls-6{fill:url(#radial-gradient-5);}.cls-7{fill:url(#radial-gradient-6);}.cls-8{fill:url(#radial-gradient-7);}.cls-9{fill:url(#radial-gradient-8);}.cls-10{fill:url(#radial-gradient-9);}.cls-11{fill:url(#radial-gradient-10);}.cls-12{fill:url(#radial-gradient-11);}.cls-13{fill:url(#radial-gradient-12);}.cls-14{fill:url(#radial-gradient-13);}.cls-15{fill:url(#radial-gradient-14);}.cls-16{fill:url(#radial-gradient-15);}.cls-17{fill:url(#radial-gradient-16);}.cls-18{fill:url(#radial-gradient-17);}.cls-19{fill:url(#radial-gradient-18);}.cls-20{fill:url(#radial-gradient-19);}.cls-21{fill:url(#radial-gradient-20);}.cls-22{fill:url(#radial-gradient-21);}.cls-23{fill:url(#radial-gradient-22);}.cls-24{fill:url(#radial-gradient-23);}.cls-25{fill:url(#radial-gradient-24);}.cls-26{fill:url(#radial-gradient-25);}.cls-27{fill:url(#radial-gradient-26);}.cls-28{isolation:isolate;}.cls-29{fill:url(#linear-gradient);}.cls-30,.cls-63{fill:#e6e7e8;}.cls-30,.cls-51{mix-blend-mode:multiply;}.cls-31{fill:#070707;}.cls-31,.cls-38,.cls-58{mix-blend-mode:screen;}.cls-32{mask:url(#mask);}.cls-33{fill:#c3d6f3;}.cls-34{fill:#b9cbe6;}.cls-35{fill:#afc0d9;}.cls-36{fill:#a5b5cc;}.cls-37{fill:#cfdef5;}.cls-38{fill:#231f20;}.cls-39{mask:url(#mask-2);}.cls-40{fill:#00e8eb;}.cls-41{fill:#00e0e3;}.cls-42{fill:#00d1d4;}.cls-43{fill:#00bdbf;}.cls-44{mask:url(#mask-3);}.cls-45{fill:#66f1f3;}.cls-46{mask:url(#mask-4);}.cls-47{fill:#50315d;}.cls-48{fill:#e885d8;}.cls-49{fill:#472655;}.cls-50{fill:#914785;}.cls-52{fill:#d1d3d4;}.cls-53{fill:#573f34;}.cls-54{fill:#9a8c85;}.cls-55{fill:#bcb2ae;}.cls-56{fill:#31221b;}.cls-57{fill:#30143c;}.cls-58{fill:#0f0e0e;}.cls-59{fill:#f1f2f2;}.cls-60{fill:#230e2b;}.cls-61{fill:#2b1236;}.cls-62{fill:#3c2147;}.cls-64{fill:#441c56;}.cls-65{fill:#e0bf8c;}.cls-66{fill:#424a50;}.cls-67{fill:#582470;}.cls-68{fill:#6c2c8a;}.cls-69{mask:url(#mask-5);}.cls-70{fill:#fff;}.cls-71{mask:url(#mask-6);}.cls-72{mask:url(#mask-7);}.cls-73{mask:url(#mask-8);}.cls-74{mask:url(#mask-9);}.cls-75{mask:url(#mask-10);}.cls-76{mask:url(#mask-11);}.cls-77{mask:url(#mask-12);}.cls-78{mask:url(#mask-13);}.cls-79{mask:url(#mask-14);}.cls-80{mask:url(#mask-15);}.cls-81{mask:url(#mask-16);}.cls-82{mask:url(#mask-17);}.cls-83{mask:url(#mask-18);}.cls-84{mask:url(#mask-19);}.cls-85{mask:url(#mask-20);}.cls-86{mask:url(#mask-21);}.cls-87{mask:url(#mask-22);}.cls-88{mask:url(#mask-23);}.cls-89{mask:url(#mask-24);}.cls-90{mask:url(#mask-25);}.cls-91{mask:url(#mask-26);}.cls-92{fill:#fdc534;}.cls-93{mask:url(#mask-27);}.cls-94{fill:#fee39e;}.cls-95{fill:#fdd15d;}.cls-96{fill:#f79537;}</style><radialGradient id="radial-gradient" cx="55" cy="42.67" r="10.69" gradientTransform="translate(85.92 -17.04) rotate(76.72)" gradientUnits="userSpaceOnUse"><stop offset="0.88"/><stop offset="0.88" stop-color="#050506"/><stop offset="0.9" stop-color="#353637"/><stop offset="0.91" stop-color="#5f6061"/><stop offset="0.93" stop-color="#808283"/><stop offset="0.95" stop-color="#9b9c9e"/><stop offset="0.96" stop-color="#adafb1"/><stop offset="0.98" stop-color="#b8babc"/><stop offset="1" stop-color="#bcbec0"/></radialGradient><radialGradient id="radial-gradient-2" cx="76.25" cy="65.64" r="0.49" gradientUnits="userSpaceOnUse"><stop offset="0.31" stop-color="#fff"/><stop offset="0.59" stop-color="#414141"/><stop offset="0.91"/></radialGradient><radialGradient id="radial-gradient-3" cx="30.75" cy="59.31" r="0.49" xlink:href="#radial-gradient-2"/><radialGradient id="radial-gradient-4" cx="170.63" cy="5.14" r="0.49" xlink:href="#radial-gradient-2"/><radialGradient id="radial-gradient-5" cx="221.12" cy="31.02" r="0.49" xlink:href="#radial-gradient-2"/><radialGradient id="radial-gradient-6" cx="206.42" cy="13.27" r="0.49" xlink:href="#radial-gradient-2"/><radialGradient id="radial-gradient-7" cx="225.99" cy="53.82" r="0.49" xlink:href="#radial-gradient-2"/><radialGradient id="radial-gradient-8" cx="147.5" cy="79.32" r="0.49" xlink:href="#radial-gradient-2"/><radialGradient id="radial-gradient-9" cx="188.81" cy="96.96" r="0.49" xlink:href="#radial-gradient-2"/><radialGradient id="radial-gradient-10" cx="47.55" cy="83.96" r="0.49" xlink:href="#radial-gradient-2"/><radialGradient id="radial-gradient-11" cx="66.23" cy="23.13" r="1.89" xlink:href="#radial-gradient-2"/><radialGradient id="radial-gradient-12" cx="91.11" cy="98.85" r="19.53" gradientUnits="userSpaceOnUse"><stop offset="0" stop-color="#fff"/><stop offset="0.81" stop-color="#414141"/><stop offset="0.91"/></radialGradient><radialGradient id="radial-gradient-13" cx="9.75" cy="41.17" r="0.99" xlink:href="#radial-gradient-2"/><radialGradient id="radial-gradient-14" cx="238.83" cy="41.17" r="0.99" xlink:href="#radial-gradient-2"/><radialGradient id="radial-gradient-15" cx="236.99" cy="6.99" r="1.85" xlink:href="#radial-gradient-2"/><radialGradient id="radial-gradient-16" cx="132" cy="11.22" r="0.99" xlink:href="#radial-gradient-2"/><radialGradient id="radial-gradient-17" cx="18.67" cy="7.75" r="0.99" xlink:href="#radial-gradient-2"/><radialGradient id="radial-gradient-18" cx="153.19" cy="51.12" r="33.3" gradientUnits="userSpaceOnUse"><stop offset="0" stop-color="#414042"/><stop offset="0.91"/></radialGradient><radialGradient id="radial-gradient-19" cx="177.59" cy="33.15" r="34.19" gradientUnits="userSpaceOnUse"><stop offset="0.88"/><stop offset="0.88" stop-color="#0f0f0f"/><stop offset="0.9" stop-color="#373839"/><stop offset="0.92" stop-color="#58595b"/><stop offset="0.94" stop-color="#727476"/><stop offset="0.96" stop-color="#848689"/><stop offset="0.98" stop-color="#8f9194"/><stop offset="1" stop-color="#939598"/></radialGradient><radialGradient id="radial-gradient-20" cx="47.06" cy="33.08" r="21.69" xlink:href="#radial-gradient-18"/><radialGradient id="radial-gradient-21" cx="104.67" cy="51.12" r="1.73" xlink:href="#radial-gradient-2"/><radialGradient id="radial-gradient-22" cx="88.87" cy="31.02" r="0.49" xlink:href="#radial-gradient-2"/><radialGradient id="radial-gradient-23" cx="39.07" cy="19.98" r="0.49" xlink:href="#radial-gradient-2"/><radialGradient id="radial-gradient-24" cx="101" cy="10.73" r="0.49" xlink:href="#radial-gradient-2"/><radialGradient id="radial-gradient-25" cx="121.77" cy="32.15" r="0.49" xlink:href="#radial-gradient-2"/><radialGradient id="radial-gradient-26" cx="127.75" cy="59.81" r="0.49" xlink:href="#radial-gradient-2"/><linearGradient id="linear-gradient" x1="125.35" y1="93" x2="125.35" y2="-30.13" gradientTransform="translate(-0.34)" gradientUnits="userSpaceOnUse"><stop offset="0" stop-color="#a2639c"/><stop offset="1" stop-color="#2a0b11"/></linearGradient><mask id="mask" x="43.12" y="35.16" width="21.2" height="21.2" maskUnits="userSpaceOnUse"><circle class="cls-1" cx="53.72" cy="45.76" r="10.6" transform="translate(-3.15 87.53) rotate(-76.72)"/></mask><mask id="mask-2" x="78.21" y="85.95" width="25.87" height="25.87" maskUnits="userSpaceOnUse"><circle class="cls-2" cx="91.14" cy="98.89" r="12.93" transform="translate(-43.23 93.41) rotate(-45)"/></mask><mask id="mask-3" x="71.58" y="79.32" width="39.07" height="39.07" maskUnits="userSpaceOnUse"><circle class="cls-13" cx="91.11" cy="98.85" r="19.53"/></mask><mask id="mask-4" x="25.37" y="11.39" width="43.38" height="43.38" maskUnits="userSpaceOnUse"><circle class="cls-21" cx="47.06" cy="33.08" r="21.69"/></mask><mask id="mask-5" x="102.94" y="49.38" width="3.47" height="3.47" maskUnits="userSpaceOnUse"><path class="cls-22" d="M102.94,51.12a1.73,1.73,0,1,1,1.73,1.73A1.73,1.73,0,0,1,102.94,51.12Z"/></mask><mask id="mask-6" x="88.37" y="30.53" width="0.99" height="0.99" maskUnits="userSpaceOnUse"><circle class="cls-23" cx="88.87" cy="31.02" r="0.49"/></mask><mask id="mask-7" x="38.58" y="19.48" width="0.99" height="0.99" maskUnits="userSpaceOnUse"><path class="cls-24" d="M38.58,20a.49.49,0,0,1,.49-.5.5.5,0,1,1,0,1A.49.49,0,0,1,38.58,20Z"/></mask><mask id="mask-8" x="100.51" y="10.24" width="0.99" height="0.99" maskUnits="userSpaceOnUse"><circle class="cls-25" cx="101" cy="10.73" r="0.49"/></mask><mask id="mask-9" x="121.28" y="31.66" width="0.99" height="0.99" maskUnits="userSpaceOnUse"><path class="cls-26" d="M121.28,32.15a.5.5,0,1,1,.49.5A.49.49,0,0,1,121.28,32.15Z"/></mask><mask id="mask-10" x="127.26" y="59.31" width="0.99" height="0.99" maskUnits="userSpaceOnUse"><circle class="cls-27" cx="127.75" cy="59.81" r="0.49"/></mask><mask id="mask-11" x="75.76" y="65.14" width="0.99" height="0.99" maskUnits="userSpaceOnUse"><path class="cls-3" d="M75.76,65.64a.49.49,0,1,1,.49.49A.49.49,0,0,1,75.76,65.64Z"/></mask><mask id="mask-12" x="30.25" y="58.82" width="0.99" height="0.99" maskUnits="userSpaceOnUse"><path class="cls-4" d="M30.25,59.31a.5.5,0,1,1,.5.5A.49.49,0,0,1,30.25,59.31Z"/></mask><mask id="mask-13" x="170.14" y="4.65" width="0.99" height="0.99" maskUnits="userSpaceOnUse"><circle class="cls-5" cx="170.63" cy="5.14" r="0.49"/></mask><mask id="mask-14" x="220.62" y="30.53" width="0.99" height="0.99" maskUnits="userSpaceOnUse"><path class="cls-6" d="M220.62,31a.5.5,0,1,1,.5.5A.49.49,0,0,1,220.62,31Z"/></mask><mask id="mask-15" x="205.92" y="12.77" width="0.99" height="0.99" maskUnits="userSpaceOnUse"><circle class="cls-7" cx="206.42" cy="13.27" r="0.49"/></mask><mask id="mask-16" x="225.49" y="53.33" width="0.99" height="0.99" maskUnits="userSpaceOnUse"><path class="cls-8" d="M225.49,53.82a.5.5,0,0,1,.5-.49.5.5,0,0,1,0,1A.5.5,0,0,1,225.49,53.82Z"/></mask><mask id="mask-17" x="147.01" y="78.82" width="0.99" height="0.99" maskUnits="userSpaceOnUse"><path class="cls-9" d="M147,79.32a.5.5,0,1,1,1,0,.5.5,0,0,1-1,0Z"/></mask><mask id="mask-18" x="188.31" y="96.47" width="0.99" height="0.99" maskUnits="userSpaceOnUse"><path class="cls-10" d="M188.31,97a.5.5,0,1,1,.5.49A.49.49,0,0,1,188.31,97Z"/></mask><mask id="mask-19" x="47.06" y="83.47" width="0.99" height="0.99" maskUnits="userSpaceOnUse"><path class="cls-11" d="M47.06,84a.5.5,0,1,1,.49.5A.49.49,0,0,1,47.06,84Z"/></mask><mask id="mask-20" x="64.34" y="21.24" width="3.78" height="3.78" maskUnits="userSpaceOnUse"><path class="cls-12" d="M64.34,23.13A1.89,1.89,0,1,1,66.23,25,1.89,1.89,0,0,1,64.34,23.13Z"/></mask><mask id="mask-21" x="8.76" y="40.18" width="1.98" height="1.98" maskUnits="userSpaceOnUse"><path class="cls-14" d="M8.76,41.17a1,1,0,1,1,1,1A1,1,0,0,1,8.76,41.17Z"/></mask><mask id="mask-22" x="237.84" y="40.18" width="1.98" height="1.98" maskUnits="userSpaceOnUse"><path class="cls-15" d="M237.84,41.17a1,1,0,1,1,2,0,1,1,0,1,1-2,0Z"/></mask><mask id="mask-23" x="235.14" y="5.14" width="3.69" height="3.69" maskUnits="userSpaceOnUse"><circle class="cls-16" cx="236.99" cy="6.99" r="1.85"/></mask><mask id="mask-24" x="131.01" y="10.24" width="1.98" height="1.98" maskUnits="userSpaceOnUse"><circle class="cls-17" cx="132" cy="11.22" r="0.99"/></mask><mask id="mask-25" x="17.68" y="6.76" width="1.98" height="1.98" maskUnits="userSpaceOnUse"><path class="cls-18" d="M17.68,7.75a1,1,0,0,1,2,0,1,1,0,0,1-2,0Z"/></mask><mask id="mask-26" x="119.89" y="17.82" width="66.59" height="66.59" maskUnits="userSpaceOnUse"><circle class="cls-19" cx="153.19" cy="51.12" r="33.3"/></mask><mask id="mask-27" x="139.61" y="9.13" width="67.92" height="67.92" maskUnits="userSpaceOnUse"><circle class="cls-20" cx="173.52" cy="43.05" r="33.91"/></mask></defs><g class="cls-28"><g id="圖層_2" data-name="圖層 2"><g id="Layer_1" data-name="Layer 1"><rect class="cls-29" width="249.99" height="160"/><path class="cls-30" d="M.05,61.16V40.08S15.85,52.71,63.71,44,127.14,9.66,180.53,26.06c44.83,13.76,69.4,11.82,69.4,11.82v48s-23.71,15-59.12-1.84C149,64.19,86,63.09,50.55,71,19.67,77.81.05,61.16.05,61.16Z"/><path class="cls-31" d="M7.06,56.88C5.26,59.77,2.29,66,0,68.54V79.23c2.44-5.08,5-9.79,6.72-12.66C12.43,57.26,23.88,37.87,0,53.74v4C3.25,56.14,9.14,53.56,7.06,56.88Z"/><path class="cls-31" d="M250,48.2c-43.14,48.21-27.26-26.42-16.78-40.38A44.62,44.62,0,0,0,238.07,0H226.14c-1.21,1-2.5,2.18-3.88,3.49-8.3,7.87-8.93,4-6.54-3.49h-8.41c.45,1.54.19,3.84-1,6.91-6.16,16.39,2.16,8.94,8,15.05s-25.94,34.64,2.07,51.69A27.18,27.18,0,0,0,230.91,78c10.38-8.62,14.56-10.7,12.64-3.53A42.25,42.25,0,0,0,250,70ZM218.54,13.31s-.63-3.06,3.29-4.81,10.35-7.75,7.76-2.25S225,18.63,223.12,22.44,222.08,14.62,218.54,13.31Z"/><path class="cls-31" d="M193.7,110.19C150.07,147.39,181.33,90.33,198,68s-12-2.71-16.93,5.38-15.1,5.91-7.54-3.32,30.11-36.43,25.95-42.92S197,22.67,144.82,87.66,109.67,70.67,120.7,56s7-21.3-11-4.33-.08-20.64,6.61-31.57,21.31-35.74-22.52-1.18C62.26,43.79,80.35,17,92.94,0H72.17C60.23,9.89,48,22.92,40.07,29.81c-15.6,13.47-10.64,23.28,11,11.68S67.33,45.33,59,57.92,50.33,91.67,65.45,68s34.55-29.37,28.39-13,2.16,9,8,15c4.11,4.28-10.23,19.52-9.62,34.14,1.42-.08,1.82,1,.49,3.65,1.15,5,4.42,9.79,11.19,13.91,28,17.06,47.07-20.8,54.4-27.33s8.34-5.8-3.68,17.23,2.51,38.17,31.35,40.72,41-38.75,53.67-67.72a79.89,79.89,0,0,0,3.88-10.21A26.28,26.28,0,0,1,230.91,78C222.54,85,210.16,96.16,193.7,110.19ZM177.75,53.13s0-4,6-6.88,1,4.25-2.39,9.13S172.26,58.13,177.75,53.13ZM68.63,22.34c-7.88,6.29-12.25,11.12-17,13.27s-5.75-2-.75-5.09c0,0,6.62-11.68,12.12-11.79S76.5,16.05,68.63,22.34ZM93.35,35.61c-3.85,4.39-2.85-1.89-1-3.94a2.87,2.87,0,0,1,2.37-3.12C97.5,27.75,97.21,31.21,93.35,35.61Z"/><g class="cls-32"><circle class="cls-33" cx="53.72" cy="45.76" r="10.6" transform="translate(-3.15 87.53) rotate(-76.72)"/><path class="cls-34" d="M64.33,45.76a10.6,10.6,0,0,0-10.6-10.6,10.71,10.71,0,0,0-3,.42h0s3.82-.25,4,1.83,1.08,3.17-.51,3.84-2,.55-2.19,2-.82,2.85-2.67,2.55-3.49,1.84-4-.07c-.3-1.15-1.34-1.65-2-2.45a10.46,10.46,0,0,0-.29,2.45,10.61,10.61,0,0,0,21.21,0Z"/><path class="cls-35" d="M55.5,35.31c.48.8,2.72,4.61,1.74,6.11-1.08,1.67.26,3.12-2.26,4.41s.32,2-2.94,2.12-.66,1.76-3.92,1.42c-1.77-.18-3.22-.24-4.48-.35A10.6,10.6,0,1,0,55.5,35.31Z"/><path class="cls-36" d="M56.75,35.6c.53,1.48,1.8,4.79,2.84,5.28,1.34.62.67,3.74,0,4.95s-1.85.74-2.06,2.89.3,4-1.79,3.92-3.18-.49-4.11,0-.71,1.76-3,.38a17.25,17.25,0,0,0-4.28-2.24A10.6,10.6,0,1,0,56.75,35.6Z"/><path class="cls-30" d="M55.4,35.29a10.6,10.6,0,0,1-5,19.93,11.66,11.66,0,0,1-1.68-.13,10.6,10.6,0,1,0,6.72-19.8Z"/><path class="cls-37" d="M43.94,41.68c.92.59,2.47.68,2.53,0,.12-1.11,1.45-.34,1.51,1.28s1.84.22,1.58-2.1.6-1.19,2,0,1.28-1.25,1.39-2.25-.78-.73-2.45-.82-.71-1.91-.71-1.92A10.64,10.64,0,0,0,43.94,41.68Z"/><path class="cls-38" d="M58.17,47.27c-1.49,4.27-5.44,6.77-8.82,5.58S44.43,47.26,45.92,43s5.44-6.76,8.82-5.58S59.66,43,58.17,47.27Z"/></g><g class="cls-39"><circle class="cls-40" cx="91.11" cy="98.85" r="12.9" transform="translate(-21.06 172.95) rotate(-80.78)"/><path class="cls-41" d="M91.11,86a12.81,12.81,0,0,0-7.88,2.7c2.31-.27,5.46-.1,7.33,2.2,3.22,4,3,5.82,2.2,7.63-.69,1.63-11.86,8.07-14.54.5A12.9,12.9,0,1,0,91.11,86Z"/><path class="cls-42" d="M80.4,106a12.9,12.9,0,1,0,6-19.2c2.15,0,5.34.37,7.1,2.42,2.83,3.29,4.17,10.32.47,13.46C91.51,104.82,84.73,106.55,80.4,106Z"/><path class="cls-43" d="M91.11,111.75a12.9,12.9,0,0,0,4.31-25.06c2.35,3.44,6.42,10.8,2.43,16a17,17,0,0,1-13.58,7.08A12.86,12.86,0,0,0,91.11,111.75Z"/><path class="cls-30" d="M93.15,86.11A12.9,12.9,0,0,1,87,110.36a12.57,12.57,0,0,1-2-.16,12.9,12.9,0,1,0,8.18-24.09Z"/><path class="cls-38" d="M96.52,100.69c-1.81,5.19-6.62,8.23-10.74,6.79s-6-6.81-4.17-12,6.62-8.23,10.74-6.79S98.33,95.5,96.52,100.69Z"/></g><g class="cls-44"><circle class="cls-45" cx="91.11" cy="98.85" r="19.53"/></g><g class="cls-46"><circle class="cls-37" cx="47.06" cy="33.08" r="21.69"/></g><polygon class="cls-47" points="249.99 99.31 249.99 135.82 0 135.82 0 87.82 3.55 87.82 7.37 82.55 10.24 82.55 10.24 85.9 12.64 90.21 19.14 93.38 27.49 96.44 52.39 96.44 54.78 93.38 54.78 90.69 57.17 93.38 60.9 98.83 67.28 98.83 74.9 102.85 102.65 102.85 104.98 107.35 107.44 107.35 113.68 109.84 120.86 109.84 123.73 107.35 127.57 102.66 127.57 107.35 129.48 109.84 137.14 113.2 145.77 114.15 163.95 114.15 176.89 111.28 175.92 115.12 184.55 113.2 201.31 112.23 204.18 107.35 204.18 101.7 207.54 96.2 207.54 80.16 213.75 72.97 213.75 59.09 219.98 66.27 219.98 72.5 231 83.98 231 93.38 234.82 95.96 239.61 99.31 249.99 99.31"/><path class="cls-48" d="M250,99.31v1.28l-5.41.07-4.4.09-.76-.46-2.08,10.41s-2.39-5.53-2.39-5.88-1.8-6.59-1.8-6.59l-1.26-2.83-2-1.48V87.63L229.41,84,227,82l-.8,2.44-.71,5.26-1.2,5.87V84.1l-3.35-6.58L220.46,75l-1.55-1.44v-6.1l-1.26-2.52-2.79-2.87-.45,7.36v4.13l-.45.65,1.59,9.91-1.8,3.48v12.57l-1.91,2.15-1.31-7.53.47-9.41-1.79-2.69-.72,6.5v7.18l-2.33,6v3.84l-1.37,3.49,1,4.29-1,5L204.3,115l-2-1.87-4.81.52-5.05.48-7.09.87-3.15.9-6.46,1.1-1.53-1-.89-2.86-4.08,1.6-3.74,1.08.87,1,1.07,3.11-4.3-2.28-1-1.35c-1.78.12-4,.26-4.37.23h-1.33c-1,0-2.37,0-3.53.06-.55,0-1.06,0-1.46,0a2.69,2.69,0,0,1-.9-.06c-.05-.08-2.38-.56-4.58-1l-.2,0c-1.89-.39-3.63-.71-3.63-.71h-4l-1.81-.56-1.19,1.4-2.87,3.35v-3L130,113.32l-.27-2-3.53-2.57s-2,2.34-2.78,2.55a30.31,30.31,0,0,1-4.41,0l-5.92-.58-3.38-1.25-.9-.09,2.27,3.43,3.47,5.42c-.3-.17-5-2.89-5.5-3.82a13.28,13.28,0,0,0-2.55-2.63l-1-2.9-.65.24-1.65-1.65-.63-1.56-1.71-1.55-9.25.23-5.92-.78H81c-.45,0-5,0-5.73,0a10.86,10.86,0,0,1-2.77-1.24l-.43-.2-.06,0-2.77-1.22-2.61-1.17H65.24l-.16.09-1.92,2.52-1.08,3.34V104.1l-.47-2.64-.42-1.52h-.84l-1.61-2.52-3-3.41-1.53,2.43L53,98H51.66l-.23.51L48.32,100l-.72,2.52-2.34-3.06L46.33,98H30.81l-5-1-3,1L18,103.62l-1-1.79V97.64L14,92.48l-4-2.27-.81-4.1V83.5l-1.52.72-2.07,3.6-2.11.61-.29,2.35S1.6,91,0,91.28V87.82H3.55l3.82-5.27h2.87V85.9l2.4,4.31,6.5,3.17,8.35,3.06h24.9l2.39-3.06V90.69l2.39,2.69,3.73,5.45h6.38l7.62,4h27.75l2.33,4.5h2.46l6.24,2.49h7.18l2.87-2.49,3.84-4.69v4.69l1.91,2.49,7.66,3.36,8.63,1H164l12.94-2.87-1,3.84,8.63-1.92,16.76-1,2.87-4.88V101.7l3.36-5.5v-16L213.75,73V59.09L220,66.27V72.5L231,84v9.4L234.82,96l4.79,3.35Z"/><path class="cls-49" d="M250,121.77v14H0V119.88l2.59,3h9.1V110L16,115.47v2.15l6.46-2.15H34.67l4.79-3.11,23.47,3.11.07,0s0,0,0,0l0,0,.08,0,.09,0,.18-.06.15-.06.21-.08.19-.08.25-.1.22-.09.28-.11.22-.1.38-.16.27-.13.45-.21a1.51,1.51,0,0,0,.22-.11l.12-.06a1.77,1.77,0,0,0,.31-.15l.17-.09a3.07,3.07,0,0,1,.31-.17l.25-.14.29-.17.24-.15.26-.19a.41.41,0,0,1,.11-.07l.1-.07.26-.2.17-.14c.09-.08.17-.17.25-.25l.09-.09a1.6,1.6,0,0,0,.42-.72c.19-.76.61-2.05,1-3.34.65-1.93,1.34-3.84,1.34-3.84v-2.39a4,4,0,0,0,.06.52c.5,3.16,4.74,12.88,4.74,12.88l10.06.48,3.34,1,9.7,6.23h2.74l16.29,6.21H138.1l7.67-4.31v-9.66l.2.36,2.19,4s2.87,1.92,2.87-.48a11.67,11.67,0,0,1,.42-2.5c.18-.76.4-1.58.65-2.41.81-2.8,1.8-5.62,1.8-5.62l1.92-5.27,1.32,10.89.28,2.34.32,2.57,3.34,10.05h8.14l6.7-6.21,8.63-1.92v4.31l1.92,3.82h22l5.26-5.26v-8.71l2.87,4.4,7.67,1.44,4.32-5.84,6.69,6.32,9.1,2.39h4.79Z"/><path class="cls-50" d="M249.19,125v1.71l.8,1.55v4.31h-4.27l-2.15-5.86-4-2.39-2.08-1.39-2.23-.41-1.94-1.65-4.45-4.22-1.08,1.82s-2.51,3.47-2.91,3.47l-.78-.07-.38,2.32-4.25,2.52v4.19l-2.17-7.3-.52-3L215,118.77v4.66l-.94,1.8-1.66,2.15-3.86,3.18s-1,0-2.29-.06l-1.66,1-.84,2.76-6.11-2.76h-4.66l-3.81-1.4L186,129.9l-1-1.22-1.88-2.82.22-3.5-3.09.26-3.55,1.48-2.47,2.25-4.53,3.9-1.28.08-2,3L164,131l-.79-.51h-1.87l-.77-1.47-2.51-1.89-1.18-6.24-.46-4.42-.15-1.47-.11-.88-.62-5.26-1.07,2.29-1.36,3,0,.08-.18,2.33-.27,3.45-.63.61,1.89,3v3.48l2.15,4.42-3.82-4.79-3.12-4.54-.47-1.3-.75-.32-1.67-.23.9,6.07-1.24.44.12,2.27,1.32,4.19-2.52-1.55-3.59-1.67-.86-.27-3.37.71h-11l-5.2-.81h-3.46l-3.46-2-5.79-1.6-5-1.9.19.62,2.28,2.88,4.21,4.79-7.2-2.76-1.92-3-.5-2.67h-.22l-4.23-2.29-5.57-4-3.72-1.16-.4,0-.2.2-2.39,3.78L79,124l-1.07,3.47v-4.31L79,119.84l-.53-2.22-1-1.52L75.88,116l-1.44-2.88-1-4.26-1.26-3.1-1.35,3.77-.45,2.8-.92.6.38,1.19,2.64,4.33-3.83-1.4-.84,2.1.84,6.82-2.75,4.2.6-3.48-.6-4.07-1.56-5-1-1.56-2,.14-3.18-.13-4.22-.84L49,114.72l-6.15-1-3.09-.39-.62.41-1,4,2.4,5.51-1,5.51-1.91-6-1.92-3.35-.86-3.16-.4.21-3.63-.27-6.25-.13-2.28.4L22,119.18v4.07s-1.44,7.06-1.92,6.94-.84-4.29-.84-4.29l-1.79-5.33-1-2.14-.93-.15v-1.9L14.74,115l-2.43-3,.19,3,.31,7.8L12,124.29l-.41,0-.07,2v7.06l-1-2.27-4.43-4.91L3.84,124c-.65.13-1.25.27-1.25.27L0,121.38v-1.5l2.59,3h9.1V110L16,115.47v2.15l6.46-2.15H34.67l4.79-3.11,23.47,3.11.07,0s0,0,0,0l0,0h0l.08,0,.09,0,.18-.06.15-.06.21-.08.19-.08.25-.1.22-.09.28-.11.22-.1.38-.16.27-.13.45-.21a1.51,1.51,0,0,0,.22-.11l.12-.06.23-.1.08-.05.17-.09a3.07,3.07,0,0,1,.31-.17l.25-.14.29-.17.24-.15.26-.19a.41.41,0,0,1,.11-.07l.1-.07.26-.2.17-.14c.09-.08.17-.17.25-.25l.09-.09a1.6,1.6,0,0,0,.42-.72c.19-.76.61-2.05,1-3.34.65-1.93,1.34-3.84,1.34-3.84v-2.39a4,4,0,0,0,.06.52c.5,3.16,4.74,12.88,4.74,12.88l10.06.48,3.34,1,9.7,6.23h2.74l16.29,6.21H138.1l7.67-4.31v-9.66l.2.36,2.19,4s2.87,1.92,2.87-.48a11.67,11.67,0,0,1,.42-2.5c.18-.76.4-1.58.65-2.41.81-2.8,1.8-5.62,1.8-5.62l1.92-5.27,1.32,10.89.28,2.34.32,2.57,3.34,10.05h8.14l6.7-6.21,8.63-1.92v4.31l1.92,3.82h22l5.26-5.26v-8.71l2.87,4.4,7.67,1.44,4.32-5.84,6.69,6.32,9.1,2.39h4.79l.8-2.08v2.31C249.55,124.57,249.19,125,249.19,125Z"/><g class="cls-51"><path class="cls-52" d="M34.22,144.76a2.17,2.17,0,0,1-.44.09,9.65,9.65,0,0,1-2.29-.06c-.63-.13.08-.13.46-.17a6.47,6.47,0,0,1,1.14.07Z"/></g><path class="cls-53" d="M34.22,144.76a11.83,11.83,0,0,1-1.83.09c-.7,0-.86-.18-.86-.18a2.37,2.37,0,0,1,.73-.2,11.67,11.67,0,0,0,1.36,0A1.18,1.18,0,0,1,34.22,144.76Z"/><path class="cls-54" d="M33.62,144.5a11.67,11.67,0,0,1-1.36,0,5,5,0,0,1,.87,0C33.67,144.48,33.62,144.5,33.62,144.5Z"/><path class="cls-55" d="M33.65,144.51c.16.07.42.21.3.29l.27,0A1.25,1.25,0,0,0,33.65,144.51Z"/><path class="cls-55" d="M32.76,144.47a2.27,2.27,0,0,0,.55,0h-.18c-.33,0-.55,0-.69,0Z"/><path class="cls-56" d="M33.78,144.82a5.16,5.16,0,0,1-1.75-.14c-.13-.08,0-.15.1-.19a1.83,1.83,0,0,0-.6.18s.16.15.86.18C32.39,144.85,33.14,144.87,33.78,144.82Z"/><rect class="cls-57" y="136.83" width="250" height="23.17"/><path class="cls-58" d="M0,144s42.25-.66,48.5,0,38.75,1.65,49.5,1.82,49.5,1.16,57.25,1.16-1.5,1.82-30.25,1.49-27.83.44-27,1,17.33,2,24.33,1.76,15.34.56,12.17,1.55,8.5,4,15.33,3.75,57.17,1.1,53.17,1.65,27.83-.66,29.33,1.88H0Z"/><g class="cls-51"><path class="cls-59" d="M60.5,139c3.67.35,27.17.75,28.83,1.63s45.84.89,49.17,1.22-15.33.44-11.83,2,48,.11,54.5-.09,19.16.31,28.66,0,23.84-.2,26.84,0,13.33-.53,13.33-.53v-6.29H53.22C43.33,138.41,57.13,138.63,60.5,139Z"/></g><path class="cls-58" d="M0,136.83v4c5.88-.56,20.89,2,24.17,1.76,3.5-.28,22.66.66,25.54.27s31.46,1.6,38,1.59,19.92-.1,19.81-.32-3.31-.8-8.93-.52-23.38,0-32.5-2S40,140.39,44.63,139s-19.38-1.37-19.38-1.37l1.43-.75Z"/><g class="cls-51"><path class="cls-59" d="M250,144.51c-3.25.09-17.64.49-23.83.49-7,0-57.31.38-55.17,1.21,2.38.92.17,3.42-11.67,3.75s-16,.53-16.16,1.87,21.83,1,24.83.89,40,1,38.49,2.21,9,1.21,14.51,1.43c5.16.21,14.28,1.77,29,1.42Z"/></g><polygon class="cls-57" points="4.67 151.86 7.87 151.82 10.45 151.51 11.88 151.5 15.07 151.74 21.06 151.98 15.1 151.86 15.97 152.04 11.85 151.79 10.1 151.81 8.05 151.95 4.67 151.86"/><polygon class="cls-57" points="18.41 156.9 21.28 156.87 23.61 156.66 24.9 156.64 27.77 156.79 33.16 156.94 27.8 156.87 28.58 156.99 24.87 156.84 23.29 156.85 21.45 156.95 18.41 156.9"/><polygon class="cls-58" points="153.19 154.98 157.16 154.94 160.37 154.6 162.15 154.58 166.11 154.84 173.56 155.1 166.16 154.97 167.24 155.17 162.28 155.08 159.92 155.07 157.39 155.08 153.19 154.98"/><polygon class="cls-57" points="110.69 155.96 114.59 155.91 117.75 155.63 119.49 155.61 123.38 155.81 130.7 156.01 123.42 155.92 124.49 156.08 119.46 155.87 117.32 155.9 114.82 156.03 110.69 155.96"/><path class="cls-57" d="M59.67,147.59h29.2s-13.24-.91-20.37-.78-20.85.78-20.85.78Z"/><path class="cls-57" d="M45.83,160h5.92l1.33-1.29,2.67-1.89,5.25-1,6.58-.67s5.59,1.54,6.5,1.65,8.58.47,9.84.47,7.19-.16,7.19-.16L83.65,157s-5.32-.88-5.57-.91-4.75-.24-4.75-.24l-3.5-1.31-3.41-.74,1.66-1.35,7.25-.95,8.79-.56h-9s-2.75.38-3.33.52-5,.38-5,.38l-2.33.81-2,1.15-4.59.19H55.08l-3.5.28,1.84.27h3.23l-.4.38-3.75.55-1.75.15v1.21l-5.25.35H38.27l-3.5.08s7.54.88,7.88.88a16.42,16.42,0,0,0,2.85-.21,12.93,12.93,0,0,1,3.33-.58c1.5,0,3-.13,3-.13l1.34-.94.08.55-.83.72-3.25.75Z"/><path class="cls-60" d="M55,155.75l1.65-.29,2.23-.7,2.93-.23,2.25-.4,2.32-1.41L65,154.53l2.88.23H64.56l-3.56.41s-3.4.43-3.67.58-3.11.79-3.11.79Z"/><polygon class="cls-57" points="0 149.57 0 150.93 2.88 150.31 7.88 150.31 12.87 150.31 19.88 151.19 24.03 151.19 30.49 150.38 39.25 150.93 45.5 150.93 39.87 150.38 33.62 149.92 29.2 149.57 25.78 150.31 21.06 150.38 16.5 149.92 17.98 149.9 19.88 149.45 22.13 149.25 19.81 149.25 17.13 149.5 14.34 149.59 9.38 149.85 6.66 149.84 4.06 149.81 2.53 149.78 0.91 149.85 0 149.57"/><path class="cls-57" d="M109.13,150.22H95.75l-4.88.95h5.69l5.31-.48,5.26.5,9.75,1.53,13.82.25s-3.11-.47-3.59-.53-9-.84-9-.84l-4-.2Z"/><path class="cls-58" d="M250,145.89v2.53h-2.75l-4.12-.53-3.5-1.15-5.09-.56s-5.29-.1-5.66-.29-10.25-.25-10.25-.25H211l15.25-.31h4.88l6.25.5,5.25.63,4.62.9Z"/><path class="cls-58" d="M205,155.17l6-1h13.36c.39,0,6-.74,6.77-.52s7.09-.61,7.09-.61l-4.09,1.05-5.88.76-1.5.3s4.92,1.05,5.58,1.1,4.21,0,4.21,0l-4.83.68-4.52-.38-5.9-1-5.74-.44H211l-6,.67Z"/><polygon class="cls-58" points="148.04 150 152.58 150.7 157.63 150.7 166.75 150.93 178.38 150.22 173.56 150.93 166.75 151.36 159.5 151.36 154.65 151.83 153.19 152.44 146 151.36 143.17 151.83 138.44 151.83 143.01 150 148.04 150"/><path class="cls-61" d="M250,136.83v-2.56a57,57,0,0,0-9.87,0c-5.25.48-9.63,1.17-9.63,1.17h-8.69l-4.5-.63s-6.06.52-8,.63-9.81.39-11.37,0-6.81.14-8.94,0-3.69,0-4.69,0-10.56-.13-12.68-.63-8.75.89-10.75.63a149.82,149.82,0,0,0-16.75-.44c-4.25.31-12.94.58-14.82.44a108.12,108.12,0,0,0-11.56-.56c-4.75.12-12.19-.13-15.31.06s-10.06,1.06-17.06.19a128.8,128.8,0,0,0-21.07-.32c-2.43.32-2.18-.37-8.56-.06s-14.94-.17-18.25.69-6.26-1.27-10.82,1.39l16.76.36,57.94,1.31H168l41.5.63h30.13Z"/><path class="cls-62" d="M0,138.69v-4.42a29,29,0,0,0,3.94,0,31.36,31.36,0,0,1,6.56.79h3.69c3.5,0,5.62-.25,7.37-.25s5.44.57,6.5.57a2.41,2.41,0,0,1,1.44.31,12.74,12.74,0,0,0-3.25,1.37l-4.45.66-14,.34H2.17Z"/><g class="cls-51"><path class="cls-63" d="M67.65,148.66s-7.34,2.88-13.87,1.27-6.12-1.34-7.36-1.27-20.37,1.25-17.21-1.07a11.39,11.39,0,0,1,7-2l16.83,1.44h8.15Z"/></g><path class="cls-57" d="M53.85,138.56l-4.69,5.08-1.7,3.78h-.1c-1,.23-9.75,2.17-15.15-.29L37.3,138l8,1.11,7.84-.54h0l.43,0h.07l.2,0Z"/><path class="cls-64" d="M53.85,138.56l-.2,0h-.07l-.43,0h0l-7.84.54a7.83,7.83,0,0,1-.65,5.57c-.57,1.16-1.2,2.39-1.75,3.46a36.85,36.85,0,0,0,4.45-.73h.1l1.7-3.78,4.69-5.08Z"/><path class="cls-65" d="M53.85,138.56l-.2,0h-.07l.15,0,.05,0,.06,0h0Z"/><path class="cls-64" d="M51.48,148.19c-1.71-.45-4-.18-3.92-.6h0s0-.05,0-.08l.08-.09.11-.09.08-.06s2.15-3.81,3.42-4.59a3.74,3.74,0,0,0,.86-.87l.11-.14a18,18,0,0,1,1.43-1.85l.12-.13.4-.34.17-.12.17-.11a.56.56,0,0,1,.17-.09l0,0,.14-.07h0l.2-.07a1.64,1.64,0,0,1,.38-.1,3.88,3.88,0,0,1,.48,0c2.33,0,6.51-.43,7.31-.09h0a.23.23,0,0,1,.12.08A8.3,8.3,0,0,1,66,144.62c.15,3.86,1.27,2.61,1.86,3.77S53.54,148.73,51.48,148.19Z"/><path class="cls-65" d="M53.85,138.56l-.2,0h-.07l.15,0a.2.2,0,0,1,.11,0Z"/><path class="cls-66" d="M53.85,138.56l-.2,0h-.07l.15,0a.2.2,0,0,1,.11,0Z"/><path class="cls-57" d="M55.5,138.75a1.64,1.64,0,0,0-.38.1l-.2.07h0l-.14.07,0,0a.56.56,0,0,0-.17.09l-.17.11-.17.12-.4.34-.12.13a18,18,0,0,0-1.43,1.85l-.11.14a3.74,3.74,0,0,1-.86.87c-1.27.78-3.42,4.59-3.42,4.59l-.08.06-.11.09-.08.09s0,.05,0,.07v0a.54.54,0,0,1-.2-.14h.1l1.7-3.78,4.69-5.08h0l.06,0,.1,0A5.79,5.79,0,0,0,55.5,138.75Z"/><path class="cls-67" d="M63.29,138.62c-.8-.34-5,.09-7.31.09a3.88,3.88,0,0,0-.48,0,5.79,5.79,0,0,1-1.49-.13l-.1,0-.06,0h0l-.05,0c-.23-.16-1.12-.74-.9-.93h0a.55.55,0,0,1,.34-.05c1.15,0,7.6,0,8.66.22S63.37,138.32,63.29,138.62Z"/><path class="cls-67" d="M53.78,138.53l-.05,0-.15,0h0l-.43,0h0l-7.84.54-8-1.11A6,6,0,0,1,41,136.38s7.17-.1,8.93.49l2.84,1.23Z"/><path class="cls-66" d="M53.73,138.55l-.08,0h-.07Z"/><path class="cls-57" d="M53.79,138.53h0l-1-.43c-.06-.42.08-.5.11-.5C52.67,137.79,53.56,138.37,53.79,138.53Z"/><path class="cls-68" d="M66,144.62a8.3,8.3,0,0,0-2.59-5.91.23.23,0,0,0-.12-.08h0a7.4,7.4,0,0,0-2-.12s3.36,1.68,3.29,5.24.34,4.34-1.23,4.34a3.41,3.41,0,0,0-2,.87c3.64.1,6.81,0,6.54-.56C67.27,147.23,66.15,148.48,66,144.62Z"/><path class="cls-68" d="M50.07,138c.46-.2-.17-.79-.93-1.35a71,71,0,0,0-8.13-.31,6.66,6.66,0,0,0-2.43.73C39.18,138.45,49.25,138.41,50.07,138Z"/><path class="cls-68" d="M53.24,137.54a.55.55,0,0,0-.34.05h0a.1.1,0,0,0,0,.12,18.18,18.18,0,0,0,4.42.34,14.42,14.42,0,0,0,4.17-.37C59.66,137.51,54.28,137.58,53.24,137.54Z"/><path class="cls-57" d="M44.4,140.57c.07-1.2-3.42-1.47-5.5-1.82a3.11,3.11,0,0,0-2.21.38l-4.48,8a18.8,18.8,0,0,0,8.31,1.2C43.16,146.48,44.34,141.55,44.4,140.57Z"/><g class="cls-51"><path class="cls-63" d="M183.55,149.27a12.32,12.32,0,0,1-3,1.25c-1.56.41-10.46,1.49-15.31-.51-4.27-1.77.46-1.85,3-2.39s7.63.83,7.63.83Z"/></g><path class="cls-64" d="M183.55,149.27c-4.32,1.62-12.27,1.42-12.27,1.42-4.69-.43-5.78-2.3-5.78-2.3,1.16-1.81,4.85-2.88,4.85-2.88a38.81,38.81,0,0,0,9.13.34A7.79,7.79,0,0,1,183.55,149.27Z"/><path class="cls-68" d="M179.48,145.85a38.81,38.81,0,0,1-9.13-.34,17.64,17.64,0,0,1,5.82-.23C179.78,145.56,179.48,145.85,179.48,145.85Z"/><path class="cls-68" d="M179.68,145.92c1,.9,2.81,2.7,2,3.89a18,18,0,0,0,1.82-.54A7.85,7.85,0,0,0,179.68,145.92Z"/><path class="cls-68" d="M173.7,145.55c2.87.19,3.6,0,3.7-.16l-1.23-.11a24.34,24.34,0,0,0-4.66,0C172.11,145.4,172.83,145.49,173.7,145.55Z"/><path class="cls-57" d="M180.61,150c-3.76.66-10.28.07-11.74-1.63-.92-1.06-.11-2,.62-2.61-1.16.43-3.18,1.33-4,2.59,0,0,1.09,1.87,5.78,2.3A53.35,53.35,0,0,0,180.61,150Z"/><g class="cls-51"><path class="cls-63" d="M121.77,142.6a6.82,6.82,0,0,1-1.63.69c-.87.23-5.8.83-8.49-.28-2.36-1,.26-1,1.67-1.32a12.83,12.83,0,0,1,4.23.45Z"/></g><path class="cls-64" d="M121.77,142.6c-2.39.9-6.8.78-6.8.78-2.59-.23-3.2-1.27-3.2-1.27a5.85,5.85,0,0,1,2.69-1.59,21.2,21.2,0,0,0,5.06.18A4.32,4.32,0,0,1,121.77,142.6Z"/><path class="cls-68" d="M119.52,140.7a21.2,21.2,0,0,1-5.06-.18,9.75,9.75,0,0,1,3.22-.13C119.68,140.55,119.52,140.7,119.52,140.7Z"/><path class="cls-68" d="M119.63,140.74c.57.5,1.55,1.5,1.14,2.16a10,10,0,0,0,1-.3A4.38,4.38,0,0,0,119.63,140.74Z"/><path class="cls-68" d="M116.32,140.54c1.58.1,2,0,2-.09l-.68-.06a14,14,0,0,0-2.58,0C115.44,140.46,115.84,140.5,116.32,140.54Z"/><path class="cls-57" d="M120.14,143c-2.08.37-5.69,0-6.5-.9-.51-.59-.06-1.12.34-1.44a4.89,4.89,0,0,0-2.21,1.43s.61,1,3.2,1.27A28.7,28.7,0,0,0,120.14,143Z"/><g class="cls-69"><path class="cls-70" d="M102.94,51.12a1.73,1.73,0,1,1,1.73,1.73A1.73,1.73,0,0,1,102.94,51.12Z"/></g><path class="cls-70" d="M104.67,49.5a1.91,1.91,0,0,0,1.68,1.62,1.9,1.9,0,0,0-1.68,1.62A1.91,1.91,0,0,0,103,51.12,1.92,1.92,0,0,0,104.67,49.5Z"/><g class="cls-71"><circle class="cls-70" cx="88.87" cy="31.02" r="0.49"/></g><path class="cls-70" d="M88.87,30.56a.54.54,0,0,0,.48.46.56.56,0,0,0-.48.47.56.56,0,0,0-.48-.47A.54.54,0,0,0,88.87,30.56Z"/><g class="cls-72"><path class="cls-70" d="M38.58,20a.49.49,0,0,1,.49-.5.5.5,0,1,1,0,1A.49.49,0,0,1,38.58,20Z"/></g><path class="cls-70" d="M39.07,19.52a.56.56,0,0,0,.48.46.54.54,0,0,0-.48.46.54.54,0,0,0-.48-.46A.56.56,0,0,0,39.07,19.52Z"/><g class="cls-73"><circle class="cls-70" cx="101" cy="10.73" r="0.49"/></g><path class="cls-70" d="M101,10.27a.54.54,0,0,0,.48.46.54.54,0,0,0-.48.46.54.54,0,0,0-.48-.46A.54.54,0,0,0,101,10.27Z"/><g class="cls-74"><path class="cls-70" d="M121.28,32.15a.5.5,0,1,1,.49.5A.49.49,0,0,1,121.28,32.15Z"/></g><path class="cls-70" d="M121.77,31.69a.54.54,0,0,0,.48.46.48.48,0,0,1-1,0A.54.54,0,0,0,121.77,31.69Z"/><g class="cls-75"><circle class="cls-70" cx="127.75" cy="59.81" r="0.49"/></g><path class="cls-70" d="M127.75,59.35a.54.54,0,0,0,.48.46.48.48,0,0,1-1,0A.54.54,0,0,0,127.75,59.35Z"/><g class="cls-76"><path class="cls-70" d="M75.76,65.64a.49.49,0,1,1,.49.49A.49.49,0,0,1,75.76,65.64Z"/></g><path class="cls-70" d="M76.25,65.18a.56.56,0,0,0,.48.46.54.54,0,0,0-.48.46.54.54,0,0,0-.48-.46A.56.56,0,0,0,76.25,65.18Z"/><g class="cls-77"><path class="cls-70" d="M30.25,59.31a.5.5,0,1,1,.5.5A.49.49,0,0,1,30.25,59.31Z"/></g><path class="cls-70" d="M30.75,58.85a.54.54,0,0,0,.48.46.56.56,0,0,0-.48.47.56.56,0,0,0-.48-.47A.54.54,0,0,0,30.75,58.85Z"/><g class="cls-78"><circle class="cls-70" cx="170.63" cy="5.14" r="0.49"/></g><path class="cls-70" d="M170.63,4.68a.54.54,0,0,0,.48.46.56.56,0,0,0-.48.46.55.55,0,0,0-.47-.46A.53.53,0,0,0,170.63,4.68Z"/><g class="cls-79"><path class="cls-70" d="M220.62,31a.5.5,0,1,1,.5.5A.49.49,0,0,1,220.62,31Z"/></g><path class="cls-70" d="M221.12,30.56a.53.53,0,0,0,.47.46.55.55,0,0,0-.47.47.56.56,0,0,0-.48-.47A.54.54,0,0,0,221.12,30.56Z"/><g class="cls-80"><circle class="cls-70" cx="206.42" cy="13.27" r="0.49"/></g><path class="cls-70" d="M206.42,12.81a.56.56,0,0,0,.48.46.48.48,0,0,1-1,0A.56.56,0,0,0,206.42,12.81Z"/><g class="cls-81"><path class="cls-70" d="M225.49,53.82a.5.5,0,0,1,.5-.49.5.5,0,0,1,0,1A.5.5,0,0,1,225.49,53.82Z"/></g><path class="cls-70" d="M226,53.36a.54.54,0,0,0,.48.46.48.48,0,0,1-1,0A.54.54,0,0,0,226,53.36Z"/><g class="cls-82"><path class="cls-70" d="M147,79.32a.5.5,0,1,1,1,0,.5.5,0,0,1-1,0Z"/></g><path class="cls-70" d="M147.5,78.86a.55.55,0,0,0,.48.46.55.55,0,0,0-.48.46.53.53,0,0,0-.47-.46A.53.53,0,0,0,147.5,78.86Z"/><g class="cls-83"><path class="cls-70" d="M188.31,97a.5.5,0,1,1,.5.49A.49.49,0,0,1,188.31,97Z"/></g><path class="cls-70" d="M188.81,96.5a.53.53,0,0,0,.47.46.53.53,0,0,0-.47.46.54.54,0,0,0-.48-.46A.54.54,0,0,0,188.81,96.5Z"/><g class="cls-84"><path class="cls-70" d="M47.06,84a.5.5,0,1,1,.49.5A.49.49,0,0,1,47.06,84Z"/></g><path class="cls-70" d="M47.55,83.5A.54.54,0,0,0,48,84a.54.54,0,0,0-.48.46.53.53,0,0,0-.47-.46A.53.53,0,0,0,47.55,83.5Z"/><g class="cls-85"><path class="cls-70" d="M64.34,23.13A1.89,1.89,0,1,1,66.23,25,1.89,1.89,0,0,1,64.34,23.13Z"/></g><path class="cls-70" d="M66.23,21.36a2.07,2.07,0,0,0,1.82,1.77,2.07,2.07,0,0,0-1.82,1.76,2.09,2.09,0,0,0-1.83-1.76A2.09,2.09,0,0,0,66.23,21.36Z"/><g class="cls-86"><path class="cls-70" d="M8.76,41.17a1,1,0,1,1,1,1A1,1,0,0,1,8.76,41.17Z"/></g><path class="cls-70" d="M9.75,40.25a1.08,1.08,0,0,0,1,.92,1.1,1.1,0,0,0-1,.93,1.1,1.1,0,0,0-1-.93A1.08,1.08,0,0,0,9.75,40.25Z"/><g class="cls-87"><path class="cls-70" d="M237.84,41.17a1,1,0,1,1,2,0,1,1,0,1,1-2,0Z"/></g><path class="cls-70" d="M238.83,40.25a1.08,1.08,0,0,0,1,.92,1,1,0,0,1-1.91,0A1.07,1.07,0,0,0,238.83,40.25Z"/><g class="cls-88"><circle class="cls-70" cx="236.99" cy="6.99" r="1.85"/></g><path class="cls-70" d="M237,5.26A2,2,0,0,0,238.77,7,2,2,0,0,0,237,8.71,2,2,0,0,0,235.2,7,2,2,0,0,0,237,5.26Z"/><g class="cls-89"><circle class="cls-70" cx="132" cy="11.22" r="0.99"/></g><path class="cls-70" d="M132,10.3a1.08,1.08,0,0,0,1,.92,1.1,1.1,0,0,0-1,.93,1.1,1.1,0,0,0-1-.93A1.08,1.08,0,0,0,132,10.3Z"/><g class="cls-90"><path class="cls-70" d="M17.68,7.75a1,1,0,0,1,2,0,1,1,0,0,1-2,0Z"/></g><path class="cls-70" d="M18.67,6.82a1.09,1.09,0,0,0,.95.93,1.07,1.07,0,0,0-.95.92,1.08,1.08,0,0,0-1-.92A1.1,1.1,0,0,0,18.67,6.82Z"/><g class="cls-91"><circle class="cls-92" cx="153.19" cy="51.12" r="33.3"/></g><g class="cls-93"><circle class="cls-94" cx="173.56" cy="43.09" r="33.96" transform="translate(-0.16 0.65) rotate(-0.21)"/><circle class="cls-95" cx="173.56" cy="43.09" r="32.36" transform="translate(20.37 135.35) rotate(-45)"/><path class="cls-92" d="M202,39.7c1.2.23,2.39.73,3.82,1a32.32,32.32,0,0,0-2.7-10.77,15.22,15.22,0,0,1-2.55,1.77c-2.76,1.29-2,1.05-4.44-1.46s-7.07-2-6.71.59-3,.84-3.6-1.61-3.71-2.46-5.87-5.46-6.71-1.91-9-3.35-7.31,1.08-2.39,2.39,3.83,2.76,2.75,5.16-1.08,5.87,2.76,9-1.44,1.2-1.92,4.79-7.31.84-10.07-3-3,.47-8.51,0-5.51,1-5.51-3.24c0-3-2.8-4.25-4.45-4.75a32.37,32.37,0,0,0,17.7,42.3,29.05,29.05,0,0,1,1.49-3.49c1.08-2.13,5.64-.26,7.31-4.34s4.56-3.47,5.28.12,4.91,6.35,7.07,6,1.32-7,1.32-9.12,3.95-1.68,4.31-4.56,3.24-2.4,5.51-.6-.24,2.88-.36,8.87a12.43,12.43,0,0,0,.21,2.65A32.45,32.45,0,0,0,201.77,59a18.58,18.58,0,0,1-1.66-3.43c-1.3-4.06,1.79-4,1.31-8.86S200.11,39.34,202,39.7Z"/><path class="cls-96" d="M155.91,25.83a2.24,2.24,0,0,0,2.52,0c1.62-.81,2.33.27,1,1.89s-2.17,1.53-1.4,3.68-3,4.14-4.18,2.52-.63-2.07-2.78-3-3.78-4.4,0-3.59S152.76,24.57,155.91,25.83Z"/><path class="cls-96" d="M163.91,29.22s3.6-.9,3.12,1.55-1,1.68,1.08,3.06,3,3.9.65,3.12-1.67-1.5-3.71-.54-3.66-.31-2.76-1.9S160.32,29.64,163.91,29.22Z"/><path class="cls-96" d="M176,15.55c1.33-.14,1,1.56,2.75,1.56s1.62,1.14,2.34,2.1,0,3.18-1.38,1.74-2.46-2.58-3.71-1.86-4.14-.6-4.74-1.14-5.69-1.38-6.71-.12-5,2-3.9.24,2.1-3.77,5.16-3.42,3.71,1.54,4.73,0,3.18-1.63,3.48-.85S173.68,15.79,176,15.55Z"/><path class="cls-96" d="M186.56,17.34s4.44-1.25,4.92,1.75,2.51,3.71,4,4.79-4.91,1.92-6.23,0-2.88-1.2-4.55-1.2S184.17,17,186.56,17.34Z"/><path class="cls-96" d="M179.23,32.15s1.28-2.53,2.1,0-.15,2.39,2.53,3.33,5.89,3.72,4.69,4.39-3.6-2.6-5.73-1.43-2.53.76-2.93-2.3S175.5,34.68,179.23,32.15Z"/><path class="cls-96" d="M158.46,43.29c-.16,2.38,2.79-1.16,4.39,1.64s2.66,2.66,5.46,2.66,4.36-.4,1.85,1.2-1-.67-6.64,0-8.12,5.72-9.72,2.4,2.39-5.35-3.86-4.67-8.66-4.71-3.33-5.35,4.65-.42,7.85,0S158.59,41.26,158.46,43.29Z"/><path class="cls-96" d="M160.12,57.31a3,3,0,0,1-3.79-2c-.67-2-2.53-1.06-6.13-1.19s-1.57-1.34-2.53-1.81c-4.66-2.29-4.8-1.47-4.87.84a32.44,32.44,0,0,0,12.47,16.63,31.05,31.05,0,0,0,.79-3.55c.93-5.59,4.53.8,6-4.53S161.12,56.78,160.12,57.31Z"/><path class="cls-96" d="M170.88,52.92s3.55,2,5.55-.61,0-5.38,2.93-4.19,2.93,1.6,5.86.4,7.2-.62,4.53,2.22-5.05-.63-6.52,2.9.12,7.13-3.74,5.93-7.09-4.12-8.07-2.39S165.33,53.52,170.88,52.92Z"/><path class="cls-96" d="M193.21,42.13s-1.47-4,0-4.12,2.49-2.9,3.09-.5-1,2,.95,3.26,2.25,1.43.9,3.13S193,45.06,193.21,42.13Z"/><path class="cls-30" d="M178.68,11.13A32.37,32.37,0,0,1,163.28,72a33,33,0,0,1-5.11-.4,32.36,32.36,0,1,0,20.51-60.43Z"/><ellipse class="cls-38" cx="168.43" cy="41.17" rx="24.97" ry="19.81" transform="translate(74.02 186.61) rotate(-70.75)"/></g></g></g></g></svg>