<svg xmlns="http://www.w3.org/2000/svg" xmlns:xlink="http://www.w3.org/1999/xlink" viewBox="0 0 250 160"><defs><style>.cls-1{fill:url(#radial-gradient);}.cls-2{fill:url(#radial-gradient-2);}.cls-3{fill:url(#radial-gradient-3);}.cls-4{fill:url(#radial-gradient-4);}.cls-5{fill:url(#radial-gradient-5);}.cls-6{fill:url(#radial-gradient-6);}.cls-7{fill:url(#radial-gradient-7);}.cls-8{fill:url(#radial-gradient-8);}.cls-9{fill:url(#radial-gradient-9);}.cls-10{fill:url(#radial-gradient-10);}.cls-11{fill:url(#radial-gradient-11);}.cls-12{fill:url(#radial-gradient-12);}.cls-13{fill:url(#radial-gradient-13);}.cls-14{fill:url(#radial-gradient-14);}.cls-15{fill:url(#radial-gradient-15);}.cls-16{fill:url(#radial-gradient-16);}.cls-17{fill:url(#radial-gradient-17);}.cls-18{fill:url(#radial-gradient-18);}.cls-19{fill:url(#linear-gradient);}.cls-20{fill:url(#radial-gradient-19);}.cls-21{fill:url(#radial-gradient-20);}.cls-22{fill:url(#radial-gradient-21);}.cls-23{fill:url(#radial-gradient-22);}.cls-24{fill:url(#radial-gradient-23);}.cls-25{fill:url(#radial-gradient-24);}.cls-26{fill:url(#radial-gradient-25);}.cls-27{fill:url(#radial-gradient-26);}.cls-28{fill:url(#radial-gradient-27);}.cls-29{fill:url(#radial-gradient-28);}.cls-30{fill:url(#radial-gradient-29);}.cls-31{fill:url(#radial-gradient-30);}.cls-32{fill:url(#radial-gradient-31);}.cls-33{isolation:isolate;}.cls-34{fill:url(#linear-gradient-2);}.cls-35,.cls-83{mix-blend-mode:screen;}.cls-36{fill:#414042;}.cls-37{mask:url(#mask);}.cls-38{fill:#fabb7f;}.cls-39{fill:#f9aa5f;}.cls-40{fill:#f79537;}.cls-41{mask:url(#mask-2);}.cls-42{fill:#fbb040;}.cls-43{mask:url(#mask-3);}.cls-44{mask:url(#mask-4);}.cls-45{mask:url(#mask-5);}.cls-46{fill:#fff;}.cls-47{mask:url(#mask-6);}.cls-48{mask:url(#mask-7);}.cls-49{mask:url(#mask-8);}.cls-50{mask:url(#mask-9);}.cls-51{mask:url(#mask-10);}.cls-52{mask:url(#mask-11);}.cls-53{mask:url(#mask-12);}.cls-54{mask:url(#mask-13);}.cls-55{mask:url(#mask-14);}.cls-56{mask:url(#mask-15);}.cls-57{mask:url(#mask-16);}.cls-58{mask:url(#mask-17);}.cls-59{mask:url(#mask-18);}.cls-60{mask:url(#mask-19);}.cls-61{mask:url(#mask-20);}.cls-62{mask:url(#mask-21);}.cls-63{fill:#f1f2f2;}.cls-64{mask:url(#mask-22);}.cls-65{mask:url(#mask-23);}.cls-66{mask:url(#mask-24);}.cls-67{mask:url(#mask-25);}.cls-68{fill:#1a1f32;}.cls-69{fill:#29314f;}.cls-70{fill:#3e4976;}.cls-71{fill:#d0d4d9;}.cls-71,.cls-74{mix-blend-mode:multiply;}.cls-72{fill:#32216e;}.cls-73{fill:#222942;}.cls-74{fill:#e6e7e8;}.cls-75{fill:#3a4670;}.cls-76{fill:#30385c;}.cls-77{fill:#282f4d;}.cls-78{fill:#212840;}.cls-79{fill:#4d3298;}.cls-80{mask:url(#mask-26);}.cls-81{fill:#ffd037;}.cls-82{fill:#f9a303;}.cls-83{fill:#231f20;}.cls-84{fill:#d88002;}.cls-85{fill:#bf7102;}.cls-86{fill:#8a5100;}.cls-87{mask:url(#mask-27);}.cls-88{mask:url(#mask-28);}.cls-89{mask:url(#mask-29);}.cls-90{mask:url(#mask-30);}.cls-91{mask:url(#mask-31);}.cls-92{mask:url(#mask-32);}</style><radialGradient id="radial-gradient" cx="322.04" cy="-122.44" r="45.01" gradientTransform="translate(419.6 198.96) rotate(-135.32)" gradientUnits="userSpaceOnUse"><stop offset="0.45" stop-color="#939598"/><stop offset="0.65" stop-color="#606163"/><stop offset="1"/></radialGradient><radialGradient id="radial-gradient-2" cx="24.34" cy="45.17" r="5.49" gradientUnits="userSpaceOnUse"><stop offset="0" stop-color="#58595b"/><stop offset="0.87"/></radialGradient><radialGradient id="radial-gradient-3" cx="36.73" cy="13.95" r="1.25" xlink:href="#radial-gradient-2"/><radialGradient id="radial-gradient-4" cx="86.59" cy="5.03" r="1.25" xlink:href="#radial-gradient-2"/><radialGradient id="radial-gradient-5" cx="180.63" cy="13.24" r="1.25" xlink:href="#radial-gradient-2"/><radialGradient id="radial-gradient-6" cx="3.86" cy="33.93" r="1.25" xlink:href="#radial-gradient-2"/><radialGradient id="radial-gradient-7" cx="54.32" cy="104.17" r="1.96" xlink:href="#radial-gradient-2"/><radialGradient id="radial-gradient-8" cx="80.92" cy="16.57" r="0.96" xlink:href="#radial-gradient-2"/><radialGradient id="radial-gradient-9" cx="31.28" cy="4.27" r="0.96" xlink:href="#radial-gradient-2"/><radialGradient id="radial-gradient-10" cx="234.91" cy="9.61" r="0.96" xlink:href="#radial-gradient-2"/><radialGradient id="radial-gradient-11" cx="238.13" cy="74.03" r="0.96" xlink:href="#radial-gradient-2"/><radialGradient id="radial-gradient-12" cx="228.43" cy="108.97" r="0.96" xlink:href="#radial-gradient-2"/><radialGradient id="radial-gradient-13" cx="131.95" cy="15.11" r="5.49" xlink:href="#radial-gradient-2"/><radialGradient id="radial-gradient-14" cx="133.7" cy="143.2" r="108.13" gradientUnits="userSpaceOnUse"><stop offset="0.41"/><stop offset="0.46" stop-color="#040404"/><stop offset="0.51" stop-color="#0f1111"/><stop offset="0.57" stop-color="#222527"/><stop offset="0.62" stop-color="#3d4345"/><stop offset="0.68" stop-color="#5f686c"/><stop offset="0.74" stop-color="#8a969b"/><stop offset="0.79" stop-color="#bacbd2"/><stop offset="0.82" stop-color="#d3e6ee"/><stop offset="1" stop-color="#fff"/></radialGradient><radialGradient id="radial-gradient-15" cx="61.21" cy="32.29" r="19.71" gradientTransform="translate(83.22 -33.32) rotate(80.73)" gradientUnits="userSpaceOnUse"><stop offset="0" stop-color="#231f20"/><stop offset="0.91"/></radialGradient><radialGradient id="radial-gradient-16" cx="156.85" cy="71.24" r="41.12" gradientTransform="matrix(1, 0, 0, 1, 0, 0)" xlink:href="#radial-gradient-15"/><radialGradient id="radial-gradient-17" cx="34.71" cy="91.75" r="17.22" gradientTransform="matrix(1, 0, 0, 1, 0, 0)" xlink:href="#radial-gradient-15"/><radialGradient id="radial-gradient-18" cx="222.04" cy="33.07" r="17.22" gradientTransform="matrix(1, 0, 0, 1, 0, 0)" xlink:href="#radial-gradient-15"/><linearGradient id="linear-gradient" x1="182.01" y1="20.78" x2="131.53" y2="45.61" gradientUnits="userSpaceOnUse"><stop offset="0" stop-color="#fff"/><stop offset="0.05" stop-color="#e6e6e6"/><stop offset="0.19" stop-color="#a1a1a1"/><stop offset="0.33" stop-color="#686868"/><stop offset="0.45" stop-color="#3b3b3b"/><stop offset="0.56" stop-color="#1b1b1b"/><stop offset="0.65" stop-color="#070707"/><stop offset="0.71"/></linearGradient><radialGradient id="radial-gradient-19" cx="-235.33" cy="-8034.44" r="4.86" gradientTransform="translate(-219.29 1384.51) rotate(45) scale(2.88 0.15)" gradientUnits="userSpaceOnUse"><stop offset="0" stop-color="#6d6e71"/><stop offset="0.59"/></radialGradient><radialGradient id="radial-gradient-20" cx="-231.05" cy="-7843.23" r="4.86" gradientTransform="translate(-1148.23 -254.83) rotate(135) scale(2.88 0.15)" xlink:href="#radial-gradient-19"/><radialGradient id="radial-gradient-21" cx="-210.02" cy="-8455.66" r="2.21" gradientTransform="translate(-241.23 1315.12) rotate(45) scale(2.88 0.15)" xlink:href="#radial-gradient-19"/><radialGradient id="radial-gradient-22" cx="-252.32" cy="-8344.44" r="2.21" gradientTransform="translate(-1170.17 -324.22) rotate(135) scale(2.88 0.15)" xlink:href="#radial-gradient-19"/><radialGradient id="radial-gradient-23" cx="211.88" cy="66.77" r="5.49" xlink:href="#radial-gradient-2"/><radialGradient id="radial-gradient-24" cx="-242.76" cy="-7723.91" r="2.74" gradientTransform="translate(-241.23 1315.12) rotate(45) scale(2.88 0.15)" xlink:href="#radial-gradient-19"/><radialGradient id="radial-gradient-25" cx="-215.37" cy="-7696.01" r="2.74" gradientTransform="translate(-1170.17 -324.22) rotate(135) scale(2.88 0.15)" xlink:href="#radial-gradient-19"/><radialGradient id="radial-gradient-26" cx="176.62" cy="52" r="1.96" xlink:href="#radial-gradient-2"/><radialGradient id="radial-gradient-27" cx="206.59" cy="13.95" r="1.96" xlink:href="#radial-gradient-2"/><radialGradient id="radial-gradient-28" cx="13.72" cy="86.09" r="1.25" xlink:href="#radial-gradient-2"/><radialGradient id="radial-gradient-29" cx="76.92" cy="90.63" r="1.25" xlink:href="#radial-gradient-2"/><radialGradient id="radial-gradient-30" cx="232.13" cy="96.05" r="1.25" xlink:href="#radial-gradient-2"/><radialGradient id="radial-gradient-31" cx="122.15" cy="46.33" r="1.25" xlink:href="#radial-gradient-2"/><linearGradient id="linear-gradient-2" x1="125" y1="123.5" x2="125" y2="2.8" gradientUnits="userSpaceOnUse"><stop offset="0" stop-color="#a96535"/><stop offset="0.04" stop-color="#9b5733"/><stop offset="0.13" stop-color="#854130"/><stop offset="0.22" stop-color="#75312e"/><stop offset="0.33" stop-color="#6b272c"/><stop offset="0.47" stop-color="#68242c"/><stop offset="1" stop-color="#141726"/></linearGradient><mask id="mask" x="36.52" y="25.45" width="69.47" height="69.47" maskUnits="userSpaceOnUse"><circle class="cls-1" cx="71.26" cy="60.19" r="34.73" transform="translate(-20.45 43.15) rotate(-29.66)"/></mask><mask id="mask-2" x="18.85" y="39.67" width="10.99" height="10.99" maskUnits="userSpaceOnUse"><circle class="cls-2" cx="24.34" cy="45.17" r="5.49"/></mask><mask id="mask-3" x="126.45" y="9.61" width="10.99" height="10.99" maskUnits="userSpaceOnUse"><path class="cls-13" d="M126.45,15.11A5.5,5.5,0,1,1,132,20.6,5.5,5.5,0,0,1,126.45,15.11Z"/></mask><mask id="mask-4" x="206.39" y="61.27" width="10.99" height="10.99" maskUnits="userSpaceOnUse"><circle class="cls-24" cx="211.88" cy="66.77" r="5.49"/></mask><mask id="mask-5" x="174.66" y="50.04" width="3.92" height="3.92" maskUnits="userSpaceOnUse"><circle class="cls-27" cx="176.62" cy="52" r="1.96"/></mask><mask id="mask-6" x="204.63" y="11.99" width="3.92" height="3.92" maskUnits="userSpaceOnUse"><path class="cls-28" d="M204.63,14a2,2,0,1,1,2,2A2,2,0,0,1,204.63,14Z"/></mask><mask id="mask-7" x="12.47" y="84.84" width="2.49" height="2.49" maskUnits="userSpaceOnUse"><path class="cls-29" d="M12.47,86.09a1.25,1.25,0,1,1,1.25,1.25A1.25,1.25,0,0,1,12.47,86.09Z"/></mask><mask id="mask-8" x="75.67" y="89.38" width="2.49" height="2.49" maskUnits="userSpaceOnUse"><path class="cls-30" d="M75.67,90.63a1.25,1.25,0,1,1,1.25,1.24A1.25,1.25,0,0,1,75.67,90.63Z"/></mask><mask id="mask-9" x="230.89" y="94.8" width="2.49" height="2.49" maskUnits="userSpaceOnUse"><path class="cls-31" d="M230.89,96.05a1.25,1.25,0,1,1,1.24,1.25A1.24,1.24,0,0,1,230.89,96.05Z"/></mask><mask id="mask-10" x="120.9" y="45.08" width="2.49" height="2.49" maskUnits="userSpaceOnUse"><path class="cls-32" d="M120.9,46.33a1.25,1.25,0,1,1,1.25,1.24A1.25,1.25,0,0,1,120.9,46.33Z"/></mask><mask id="mask-11" x="35.48" y="12.7" width="2.49" height="2.49" maskUnits="userSpaceOnUse"><path class="cls-3" d="M35.48,14a1.25,1.25,0,1,1,1.25,1.25A1.25,1.25,0,0,1,35.48,14Z"/></mask><mask id="mask-12" x="85.34" y="3.79" width="2.49" height="2.49" maskUnits="userSpaceOnUse"><path class="cls-4" d="M85.34,5a1.25,1.25,0,1,1,1.25,1.25A1.24,1.24,0,0,1,85.34,5Z"/></mask><mask id="mask-13" x="179.38" y="11.99" width="2.49" height="2.49" maskUnits="userSpaceOnUse"><path class="cls-5" d="M179.38,13.24a1.25,1.25,0,1,1,1.25,1.25A1.25,1.25,0,0,1,179.38,13.24Z"/></mask><mask id="mask-14" x="2.61" y="32.68" width="2.49" height="2.49" maskUnits="userSpaceOnUse"><path class="cls-6" d="M2.61,33.93a1.25,1.25,0,1,1,1.25,1.24A1.25,1.25,0,0,1,2.61,33.93Z"/></mask><mask id="mask-15" x="52.36" y="102.2" width="3.92" height="3.92" maskUnits="userSpaceOnUse"><path class="cls-7" d="M52.36,104.17a2,2,0,1,1,2,2A2,2,0,0,1,52.36,104.17Z"/></mask><mask id="mask-16" x="79.96" y="15.61" width="1.92" height="1.92" maskUnits="userSpaceOnUse"><path class="cls-8" d="M80,16.57a1,1,0,1,1,1,1A1,1,0,0,1,80,16.57Z"/></mask><mask id="mask-17" x="30.31" y="3.31" width="1.92" height="1.92" maskUnits="userSpaceOnUse"><circle class="cls-9" cx="31.28" cy="4.27" r="0.96"/></mask><mask id="mask-18" x="233.95" y="8.65" width="1.92" height="1.92" maskUnits="userSpaceOnUse"><path class="cls-10" d="M234,9.61a1,1,0,1,1,1,1A1,1,0,0,1,234,9.61Z"/></mask><mask id="mask-19" x="237.17" y="73.07" width="1.92" height="1.92" maskUnits="userSpaceOnUse"><path class="cls-11" d="M237.17,74a1,1,0,1,1,1,1A1,1,0,0,1,237.17,74Z"/></mask><mask id="mask-20" x="227.47" y="108.01" width="1.92" height="1.92" maskUnits="userSpaceOnUse"><path class="cls-12" d="M227.47,109a1,1,0,1,1,1,1A1,1,0,0,1,227.47,109Z"/></mask><mask id="mask-21" x="97.33" y="73.64" width="114.56" height="86.36" maskUnits="userSpaceOnUse"><path class="cls-14" d="M211.88,130.92A56.92,56.92,0,0,1,204,160H105.25a57.28,57.28,0,1,1,106.63-29.08Z"/></mask><mask id="mask-22" x="41.51" y="12.59" width="39.41" height="39.41" maskUnits="userSpaceOnUse"><circle class="cls-15" cx="61.21" cy="32.29" r="19.71" transform="translate(19.47 87.5) rotate(-80.73)"/></mask><mask id="mask-23" x="115.73" y="30.12" width="82.24" height="82.24" maskUnits="userSpaceOnUse"><circle class="cls-16" cx="156.85" cy="71.24" r="41.12"/></mask><mask id="mask-24" x="17.49" y="74.53" width="34.44" height="34.44" maskUnits="userSpaceOnUse"><circle class="cls-17" cx="34.71" cy="91.75" r="17.22"/></mask><mask id="mask-25" x="204.82" y="15.85" width="34.44" height="34.44" maskUnits="userSpaceOnUse"><circle class="cls-18" cx="222.04" cy="33.07" r="17.22"/></mask><mask id="mask-26" x="126.43" y="17.3" width="56.35" height="34" maskUnits="userSpaceOnUse"><path class="cls-19" d="M182.69,22.37c-.82-2-6.89-1.51-15.32.82A17,17,0,0,0,137.52,34.3c0,.41,0,.82,0,1.22-7.39,4.18-11.85,8-11,10s6.58,1.54,14.67-.64A17,17,0,0,0,171.51,34.3a15.78,15.78,0,0,0-.1-1.83C178.94,28.23,183.5,24.34,182.69,22.37Zm-12.43,5.54c-.14-.36-.29-.71-.46-1.05a.77.77,0,0,1,.6.38A.74.74,0,0,1,170.26,27.91Z"/></mask><mask id="mask-27" x="117.32" y="70.85" width="19.78" height="19.78" maskUnits="userSpaceOnUse"><path class="cls-20" d="M137.08,90.61c-.27.28-4.92-3.92-10.37-9.38s-9.65-10.1-9.38-10.37,4.92,3.92,10.38,9.38S137.36,90.34,137.08,90.61Z"/></mask><mask id="mask-28" x="117.32" y="70.85" width="19.78" height="19.78" maskUnits="userSpaceOnUse"><path class="cls-21" d="M117.33,90.61c-.27-.27,3.92-4.92,9.38-10.37s10.1-9.66,10.37-9.38-3.92,4.92-9.37,10.37S117.61,90.89,117.33,90.61Z"/></mask><mask id="mask-29" x="195.5" y="15.05" width="9.01" height="9.01" maskUnits="userSpaceOnUse"><path class="cls-22" d="M204.5,24.06c-.12.12-2.24-1.79-4.73-4.27s-4.39-4.61-4.27-4.73,2.24,1.79,4.73,4.27S204.63,23.93,204.5,24.06Z"/></mask><mask id="mask-30" x="195.5" y="15.05" width="9.01" height="9.01" maskUnits="userSpaceOnUse"><path class="cls-23" d="M195.5,24.06c-.12-.13,1.79-2.24,4.27-4.73s4.61-4.4,4.73-4.27-1.79,2.24-4.27,4.73S195.63,24.18,195.5,24.06Z"/></mask><mask id="mask-31" x="52.68" y="22.53" width="11.17" height="11.17" maskUnits="userSpaceOnUse"><path class="cls-25" d="M63.83,33.69c-.15.16-2.77-2.21-5.85-5.29s-5.45-5.7-5.3-5.86,2.78,2.22,5.86,5.3S64,33.54,63.83,33.69Z"/></mask><mask id="mask-32" x="52.68" y="22.53" width="11.17" height="11.17" maskUnits="userSpaceOnUse"><path class="cls-26" d="M52.68,33.69c-.15-.15,2.22-2.78,5.3-5.85s5.7-5.45,5.85-5.3-2.21,2.78-5.29,5.86S52.84,33.85,52.68,33.69Z"/></mask></defs><g class="cls-33"><g id="圖層_2" data-name="圖層 2"><g id="Layer_1" data-name="Layer 1"><rect class="cls-34" width="250" height="160"/><g class="cls-35"><path class="cls-36" d="M60.21,24.74A.29.29,0,0,0,60,25a.28.28,0,0,0-.24-.25.27.27,0,0,0,.24-.25A.28.28,0,0,0,60.21,24.74Z"/><path class="cls-36" d="M91.88,105.48a.24.24,0,1,1-.48,0,.24.24,0,1,1,.48,0Z"/><path class="cls-36" d="M74.61,120.87a.27.27,0,0,0-.24.25.28.28,0,0,0-.24-.25.29.29,0,0,0,.24-.25A.28.28,0,0,0,74.61,120.87Z"/><path class="cls-36" d="M50.06,105.23a.28.28,0,0,0-.24.25.25.25,0,0,1,0-.5A.28.28,0,0,0,50.06,105.23Z"/><path class="cls-36" d="M31.52,102.7a.27.27,0,0,0-.24.25.28.28,0,0,0-.25-.25.29.29,0,0,0,.25-.25A.28.28,0,0,0,31.52,102.7Z"/><path class="cls-36" d="M22.77,101.45a.28.28,0,0,0-.24.25.25.25,0,0,1,0-.5A.28.28,0,0,0,22.77,101.45Z"/><path class="cls-36" d="M17.73,77.6a.29.29,0,0,0-.24.25.29.29,0,0,0-.24-.25.28.28,0,0,0,.24-.25A.28.28,0,0,0,17.73,77.6Z"/><path class="cls-36" d="M50.06,89.1a.27.27,0,0,0-.24.25.28.28,0,0,0-.24-.25.29.29,0,0,0,.24-.25A.28.28,0,0,0,50.06,89.1Z"/><path class="cls-36" d="M31.28,63.86a.29.29,0,0,0-.25.25.25.25,0,0,1,0-.5A.29.29,0,0,0,31.28,63.86Z"/><path class="cls-36" d="M29,79.92a.29.29,0,0,0-.24.25.29.29,0,0,0-.24-.25.28.28,0,0,0,.24-.25A.28.28,0,0,0,29,79.92Z"/><path class="cls-36" d="M10.71,41.67a.28.28,0,0,0-.24.25.28.28,0,0,0-.24-.25.29.29,0,0,0,.24-.25A.29.29,0,0,0,10.71,41.67Z"/><path class="cls-36" d="M7.51,57.62a.28.28,0,0,0-.24.25A.28.28,0,0,0,7,57.62a.29.29,0,0,0,.24-.25A.29.29,0,0,0,7.51,57.62Z"/><path class="cls-36" d="M28.53,55.68a.28.28,0,0,0-.24.25.29.29,0,0,0-.24-.25.29.29,0,0,0,.24-.25A.28.28,0,0,0,28.53,55.68Z"/><path class="cls-36" d="M22.77,42.61a.29.29,0,0,0-.24.25.29.29,0,0,0-.24-.25.29.29,0,0,0,.24-.25A.29.29,0,0,0,22.77,42.61Z"/><path class="cls-36" d="M19.15,36.31a.29.29,0,0,0-.25.25.28.28,0,0,0-.24-.25.28.28,0,0,0,.24-.25A.29.29,0,0,0,19.15,36.31Z"/><path class="cls-36" d="M16.15,27.56a.28.28,0,0,0-.24.25.29.29,0,0,0-.25-.25.28.28,0,0,0,.25-.25A.27.27,0,0,0,16.15,27.56Z"/><path class="cls-36" d="M23,11.89a.28.28,0,0,0-.24.25.27.27,0,0,0-.24-.25.28.28,0,0,0,.24-.25A.29.29,0,0,0,23,11.89Z"/><path class="cls-36" d="M30.71,25a.29.29,0,0,0-.24.25.29.29,0,0,0-.24-.25.28.28,0,0,0,.24-.25A.28.28,0,0,0,30.71,25Z"/><path class="cls-36" d="M33.57,19.78a.28.28,0,0,0-.24.25.29.29,0,0,0-.24-.25.28.28,0,0,0,.24-.25A.27.27,0,0,0,33.57,19.78Z"/><path class="cls-36" d="M14.2,16.82a.29.29,0,0,0-.24.25.29.29,0,0,0-.24-.25.28.28,0,0,0,.24-.25A.28.28,0,0,0,14.2,16.82Z"/><path class="cls-36" d="M6,11.64a.28.28,0,0,0-.24.25.28.28,0,0,0-.24-.25.29.29,0,0,0,.24-.25A.29.29,0,0,0,6,11.64Z"/><path class="cls-36" d="M54.32,119.19a.28.28,0,0,0-.24.25.29.29,0,0,0-.25-.25.28.28,0,0,0,.25-.25A.27.27,0,0,0,54.32,119.19Z"/><path class="cls-36" d="M39.28,119.19a.45.45,0,0,0-.39.41.41.41,0,0,1,0-.82A.45.45,0,0,0,39.28,119.19Z"/><path class="cls-36" d="M42.72,6.66a.47.47,0,0,0-.4.41.47.47,0,0,0-.4-.41.48.48,0,0,0,.4-.42A.48.48,0,0,0,42.72,6.66Z"/><path class="cls-36" d="M80.35,23a.45.45,0,0,0-.39.41.47.47,0,0,0-.4-.41.47.47,0,0,0,.4-.41A.45.45,0,0,0,80.35,23Z"/><path class="cls-36" d="M42.72,38.06a.47.47,0,0,0-.4.41.47.47,0,0,0-.4-.41.48.48,0,0,0,.4-.42A.48.48,0,0,0,42.72,38.06Z"/><path class="cls-36" d="M8.05,26a.94.94,0,0,0-.8.82A.92.92,0,0,0,6.46,26a.93.93,0,0,0,.79-.83A1,1,0,0,0,8.05,26Z"/><path class="cls-36" d="M16.7,5.48a.92.92,0,0,0-.79.82.94.94,0,0,0-.8-.82,1,1,0,0,0,.8-.83A.93.93,0,0,0,16.7,5.48Z"/><path class="cls-36" d="M51.54,17.65a.94.94,0,0,0-.8.82.94.94,0,0,0-.8-.82,1,1,0,0,0,.8-.83A1,1,0,0,0,51.54,17.65Z"/><path class="cls-36" d="M66.28,5.86a.43.43,0,0,0-.37.38.44.44,0,0,0-.37-.38.44.44,0,0,0,.37-.38A.43.43,0,0,0,66.28,5.86Z"/><path class="cls-36" d="M34,33.07a.43.43,0,0,0-.37.38.43.43,0,0,0-.37-.38.45.45,0,0,0,.37-.39A.45.45,0,0,0,34,33.07Z"/><path class="cls-36" d="M50,26.77a.43.43,0,0,0-.37.39.45.45,0,0,0-.37-.39.43.43,0,0,0,.37-.38A.42.42,0,0,0,50,26.77Z"/><path class="cls-36" d="M51.91,4.65a.43.43,0,0,0-.37.39.45.45,0,0,0-.37-.39.43.43,0,0,0,.37-.38A.42.42,0,0,0,51.91,4.65Z"/><path class="cls-36" d="M36,7.07a.42.42,0,0,0-.37.38.43.43,0,0,0-.37-.38.45.45,0,0,0,.37-.39A.43.43,0,0,0,36,7.07Z"/><path class="cls-36" d="M80.33,6.24a.43.43,0,0,0-.37.39.45.45,0,0,0-.37-.39A.43.43,0,0,0,80,5.86.42.42,0,0,0,80.33,6.24Z"/><path class="cls-36" d="M10.47,70.92a.43.43,0,0,0-.37.38.42.42,0,0,0-.37-.38.43.43,0,0,0,.37-.39A.45.45,0,0,0,10.47,70.92Z"/><path class="cls-36" d="M8.45,93.8a.47.47,0,0,0-.4.41.47.47,0,0,0-.4-.41.48.48,0,0,0,.4-.42A.48.48,0,0,0,8.45,93.8Z"/><path class="cls-36" d="M59,11.64a.47.47,0,0,0-.39.41.47.47,0,0,0-.4-.41.48.48,0,0,0,.4-.42A.48.48,0,0,0,59,11.64Z"/><path class="cls-36" d="M30.63,47.89a.47.47,0,0,0-.4.41.47.47,0,0,0-.4-.41.47.47,0,0,0,.4-.41A.47.47,0,0,0,30.63,47.89Z"/><path class="cls-36" d="M141.66,24.74a.24.24,0,1,1-.48,0,.24.24,0,1,1,.48,0Z"/><path class="cls-36" d="M147,66.27a.29.29,0,0,0-.24.25.25.25,0,0,1,0-.5A.29.29,0,0,0,147,66.27Z"/><path class="cls-36" d="M117.76,84.67a.24.24,0,1,1-.48,0,.24.24,0,1,1,.48,0Z"/><path class="cls-36" d="M115,83a.29.29,0,0,0-.25.25.28.28,0,0,0-.24-.25.27.27,0,0,0,.24-.25A.28.28,0,0,0,115,83Z"/><path class="cls-36" d="M115.26,64.11a.28.28,0,0,0-.24.25.25.25,0,0,1,0-.5A.28.28,0,0,0,115.26,64.11Z"/><path class="cls-36" d="M127.69,54.11a.24.24,0,1,1-.48,0,.24.24,0,1,1,.48,0Z"/><path class="cls-36" d="M132.43,77.85a.28.28,0,0,0-.24.25.29.29,0,0,0-.24-.25.28.28,0,0,0,.24-.25A.27.27,0,0,0,132.43,77.85Z"/><path class="cls-36" d="M110.46,79.92a.29.29,0,0,0-.25.25.28.28,0,0,0-.24-.25.27.27,0,0,0,.24-.25A.28.28,0,0,0,110.46,79.92Z"/><path class="cls-36" d="M102.34,88.2a.24.24,0,1,1-.48,0,.24.24,0,1,1,.48,0Z"/><path class="cls-36" d="M100.59,36.31a.24.24,0,1,1-.48,0,.24.24,0,1,1,.48,0Z"/><path class="cls-36" d="M97.59,27.56a.29.29,0,0,0-.24.25.28.28,0,0,0-.24-.25.27.27,0,0,0,.24-.25A.28.28,0,0,0,97.59,27.56Z"/><path class="cls-36" d="M104.46,11.89a.24.24,0,1,1-.48,0,.24.24,0,1,1,.48,0Z"/><path class="cls-36" d="M107.18,18.72a.28.28,0,0,0-.24.25.29.29,0,0,0-.24-.25.29.29,0,0,0,.24-.25A.28.28,0,0,0,107.18,18.72Z"/><path class="cls-36" d="M112.16,25a.24.24,0,1,1-.48,0,.24.24,0,1,1,.48,0Z"/><path class="cls-36" d="M95.65,16.82a.24.24,0,1,1-.48,0,.24.24,0,1,1,.48,0Z"/><path class="cls-36" d="M87.49,11.64a.28.28,0,0,0-.25.25.27.27,0,0,0-.24-.25.28.28,0,0,0,.24-.25A.29.29,0,0,0,87.49,11.64Z"/><path class="cls-36" d="M127.93,66.52a.24.24,0,1,1-.48,0,.24.24,0,1,1,.48,0Z"/><path class="cls-36" d="M140.07,53.7a.45.45,0,0,0-.39.41.47.47,0,0,0-.4-.41.47.47,0,0,0,.4-.41A.45.45,0,0,0,140.07,53.7Z"/><path class="cls-36" d="M124.17,6.66a.4.4,0,1,1-.8,0,.4.4,0,1,1,.8,0Z"/><path class="cls-36" d="M122.83,19.53a.4.4,0,1,1-.79,0,.4.4,0,1,1,.79,0Z"/><path class="cls-36" d="M118.55,40a.4.4,0,1,1-.79,0,.4.4,0,1,1,.79,0Z"/><path class="cls-36" d="M157.32,14.77a1,1,0,0,0-.8.83.93.93,0,0,0-.79-.83.92.92,0,0,0,.79-.82A.94.94,0,0,0,157.32,14.77Z"/><path class="cls-36" d="M161.83,63.28a1,1,0,0,0-.8.83.93.93,0,0,0-.79-.83.92.92,0,0,0,.79-.82A.94.94,0,0,0,161.83,63.28Z"/><path class="cls-36" d="M89.5,26a.94.94,0,0,0-.8.82.94.94,0,0,0-.8-.82,1,1,0,0,0,.8-.83A1,1,0,0,0,89.5,26Z"/><path class="cls-36" d="M98.15,5.48a.94.94,0,0,0-.8.82.92.92,0,0,0-.79-.82.93.93,0,0,0,.79-.83A1,1,0,0,0,98.15,5.48Z"/><path class="cls-36" d="M133.78,40.46a.94.94,0,0,0-.8.82.92.92,0,0,0-.79-.82.93.93,0,0,0,.79-.83A1,1,0,0,0,133.78,40.46Z"/><path class="cls-36" d="M147.72,5.86a.44.44,0,0,0-.37.38.43.43,0,0,0-.37-.38.43.43,0,0,0,.37-.38A.44.44,0,0,0,147.72,5.86Z"/><path class="cls-36" d="M135.89,29.25a.45.45,0,0,0-.37.39.43.43,0,0,0-.37-.39.42.42,0,0,0,.37-.38A.43.43,0,0,0,135.89,29.25Z"/><path class="cls-36" d="M122.8,29.55a.45.45,0,0,0-.37.39.43.43,0,0,0-.37-.39.42.42,0,0,0,.37-.38A.43.43,0,0,0,122.8,29.55Z"/><path class="cls-36" d="M133.35,4.65A.45.45,0,0,0,133,5a.43.43,0,0,0-.37-.39.42.42,0,0,0,.37-.38A.43.43,0,0,0,133.35,4.65Z"/><path class="cls-36" d="M117.41,7.07a.43.43,0,0,0-.37.38.42.42,0,0,0-.37-.38.43.43,0,0,0,.37-.39A.45.45,0,0,0,117.41,7.07Z"/><path class="cls-36" d="M161.77,6.24a.45.45,0,0,0-.37.39.43.43,0,0,0-.37-.39.42.42,0,0,0,.37-.38A.43.43,0,0,0,161.77,6.24Z"/><path class="cls-36" d="M140.47,11.64a.47.47,0,0,0-.4.41.45.45,0,0,0-.39-.41.46.46,0,0,0,.39-.42A.48.48,0,0,0,140.47,11.64Z"/><path class="cls-36" d="M157.32,47.48a.4.4,0,1,1-.8,0,.4.4,0,1,1,.8,0Z"/><path class="cls-36" d="M113.36,51.44a.4.4,0,1,1-.79,0,.4.4,0,1,1,.79,0Z"/><path class="cls-36" d="M106.74,48.69a.4.4,0,1,1-.79,0,.4.4,0,1,1,.79,0Z"/><path class="cls-36" d="M223.11,24.74a.28.28,0,0,0-.24.25.29.29,0,0,0-.24-.25.28.28,0,0,0,.24-.25A.27.27,0,0,0,223.11,24.74Z"/><path class="cls-36" d="M224.56,49.45a.24.24,0,1,1-.48,0,.24.24,0,1,1,.48,0Z"/><path class="cls-36" d="M232.13,75.92a.24.24,0,1,1-.48,0,.24.24,0,1,1,.48,0Z"/><path class="cls-36" d="M238.37,85.84a.24.24,0,1,1-.48,0,.24.24,0,1,1,.48,0Z"/><path class="cls-36" d="M237.5,120.87a.24.24,0,1,1-.48,0,.24.24,0,1,1,.48,0Z"/><path class="cls-36" d="M213,105.23a.24.24,0,1,1-.48,0,.24.24,0,1,1,.48,0Z"/><path class="cls-36" d="M180.63,77.6a.28.28,0,0,0-.24.25.29.29,0,0,0-.25-.25.28.28,0,0,0,.25-.25A.27.27,0,0,0,180.63,77.6Z"/><path class="cls-36" d="M199.21,84.67a.28.28,0,0,0-.24.25.29.29,0,0,0-.24-.25.28.28,0,0,0,.24-.25A.27.27,0,0,0,199.21,84.67Z"/><path class="cls-36" d="M196.7,64.11a.29.29,0,0,0-.24.25.25.25,0,0,1,0-.5A.29.29,0,0,0,196.7,64.11Z"/><path class="cls-36" d="M209.14,54.11a.28.28,0,0,0-.24.25.29.29,0,0,0-.25-.25.29.29,0,0,0,.25-.25A.28.28,0,0,0,209.14,54.11Z"/><path class="cls-36" d="M191.9,79.92a.24.24,0,1,1-.48,0,.24.24,0,1,1,.48,0Z"/><path class="cls-36" d="M181.39,60.9a.24.24,0,1,1-.48,0,.24.24,0,1,1,.48,0Z"/><path class="cls-36" d="M179.19,46.08a.24.24,0,1,1-.48,0,.24.24,0,1,1,.48,0Z"/><path class="cls-36" d="M170.4,57.62a.28.28,0,0,0-.24.25.27.27,0,0,0-.24-.25.28.28,0,0,0,.24-.25A.29.29,0,0,0,170.4,57.62Z"/><path class="cls-36" d="M185.67,42.61a.28.28,0,0,0-.24.25.29.29,0,0,0-.25-.25.29.29,0,0,0,.25-.25A.28.28,0,0,0,185.67,42.61Z"/><path class="cls-36" d="M185.91,11.89a.27.27,0,0,0-.24.25.28.28,0,0,0-.24-.25.29.29,0,0,0,.24-.25A.28.28,0,0,0,185.91,11.89Z"/><path class="cls-36" d="M177.1,16.82a.28.28,0,0,0-.24.25.29.29,0,0,0-.25-.25.28.28,0,0,0,.25-.25A.27.27,0,0,0,177.1,16.82Z"/><path class="cls-36" d="M168.93,11.64a.24.24,0,1,1-.48,0,.24.24,0,1,1,.48,0Z"/><path class="cls-36" d="M209.38,66.52a.27.27,0,0,0-.24.25.28.28,0,0,0-.24-.25.29.29,0,0,0,.24-.25A.28.28,0,0,0,209.38,66.52Z"/><path class="cls-36" d="M225.89,103.1a.27.27,0,0,0-.24.25.28.28,0,0,0-.24-.25.29.29,0,0,0,.24-.25A.28.28,0,0,0,225.89,103.1Z"/><path class="cls-36" d="M241.58,95.8a.28.28,0,0,0-.24.25.25.25,0,0,1,0-.5A.28.28,0,0,0,241.58,95.8Z"/><path class="cls-36" d="M215.47,88a.27.27,0,0,0-.24.25A.28.28,0,0,0,215,88a.29.29,0,0,0,.24-.25A.28.28,0,0,0,215.47,88Z"/><path class="cls-36" d="M241.34,36.56a.29.29,0,0,0-.25.25.28.28,0,0,0-.24-.25.28.28,0,0,0,.24-.25A.29.29,0,0,0,241.34,36.56Z"/><path class="cls-36" d="M217.21,119.19a.24.24,0,1,1-.48,0,.24.24,0,1,1,.48,0Z"/><path class="cls-36" d="M221.52,53.7a.4.4,0,1,1-.79,0,.4.4,0,1,1,.79,0Z"/><path class="cls-36" d="M235.71,30.34a.4.4,0,1,1-.8,0,.4.4,0,1,1,.8,0Z"/><path class="cls-36" d="M205.61,6.66a.45.45,0,0,0-.39.41.47.47,0,0,0-.4-.41.48.48,0,0,0,.4-.42A.46.46,0,0,0,205.61,6.66Z"/><path class="cls-36" d="M243.25,23a.4.4,0,1,1-.8,0,.4.4,0,1,1,.8,0Z"/><path class="cls-36" d="M204.28,19.53a.4.4,0,1,1-.8,0,.4.4,0,1,1,.8,0Z"/><path class="cls-36" d="M200,40a.49.49,0,0,0-.4.42.47.47,0,0,0-.39-.42.45.45,0,0,0,.39-.41A.47.47,0,0,0,200,40Z"/><path class="cls-36" d="M238.77,14.77a1,1,0,0,0-.8.83.93.93,0,0,0-.79-.83A.92.92,0,0,0,238,14,.94.94,0,0,0,238.77,14.77Z"/><path class="cls-36" d="M244.44,64.11a.92.92,0,0,0-.79.82.94.94,0,0,0-.8-.82,1,1,0,0,0,.8-.83A.93.93,0,0,0,244.44,64.11Z"/><path class="cls-36" d="M179.6,5.48a.94.94,0,0,0-.8.82.94.94,0,0,0-.8-.82,1,1,0,0,0,.8-.83A1,1,0,0,0,179.6,5.48Z"/><path class="cls-36" d="M214.43,17.65a.94.94,0,0,0-.8.82.92.92,0,0,0-.79-.82.93.93,0,0,0,.79-.83A1,1,0,0,0,214.43,17.65Z"/><path class="cls-36" d="M215.23,40.46a.8.8,0,1,1-1.6,0,.8.8,0,1,1,1.6,0Z"/><path class="cls-36" d="M229.17,5.86a.37.37,0,1,1-.74,0,.37.37,0,1,1,.74,0Z"/><path class="cls-36" d="M217.34,29.25a.37.37,0,1,1-.74,0,.37.37,0,1,1,.74,0Z"/><path class="cls-36" d="M195.24,48.69a.37.37,0,1,1-.74,0,.37.37,0,1,1,.74,0Z"/><path class="cls-36" d="M204.25,29.55a.37.37,0,1,1-.74,0,.37.37,0,1,1,.74,0Z"/><path class="cls-36" d="M214.8,4.65a.37.37,0,1,1-.74,0,.37.37,0,1,1,.74,0Z"/><path class="cls-36" d="M198.86,7.07a.37.37,0,1,1-.74,0,.37.37,0,1,1,.74,0Z"/><path class="cls-36" d="M243.22,6.24a.37.37,0,1,1-.74,0,.37.37,0,1,1,.74,0Z"/><path class="cls-36" d="M221.92,11.64a.4.4,0,1,1-.8,0,.4.4,0,1,1,.8,0Z"/><path class="cls-36" d="M238.77,47.48a.4.4,0,1,1-.8,0,.4.4,0,1,1,.8,0Z"/></g><g class="cls-37"><circle class="cls-38" cx="71.26" cy="60.19" r="34.73" transform="translate(-20.84 45.43) rotate(-31.08)"/><path class="cls-39" d="M37.72,51.19A34.7,34.7,0,0,0,72,94.9h0S59.68,92.47,61,85.74,60.23,74.79,65.83,74s6.88,0,8.64-4.57,5-8.31,10.61-5.78,12.63-2.87,12.63,3.61c0,3.9,2.86,6.38,4.1,9.41a34.72,34.72,0,1,0-64.09-25.5Z"/><path class="cls-40" d="M56.78,91.75c-.86-2.94-4.69-16.91-.34-20.82,4.86-4.37,1.85-10.08,10.89-12s.73-6.72,11.1-4.23,3.59-5,13.63-1.17c5.45,2.08,10,3.5,13.88,4.91A34.73,34.73,0,1,0,56.78,91.75Z"/><path class="cls-38" d="M98.75,81.4c-2.41-2.64-7.23-4.23-8-2.22-1.31,3.43-4.88-.16-3.68-5.33s-5.64-2.27-6.8,5.32-2.88,3.25-6.47-1.73-5.11,2.84-6.32,5.92,1.86,3,7.08,4.66.61,6.65.6,6.67A34.79,34.79,0,0,0,98.75,81.4Z"/></g><g class="cls-41"><circle class="cls-42" cx="24.34" cy="45.17" r="5.49"/></g><path class="cls-42" d="M24.85,45A14.85,14.85,0,0,1,24.44,42,13.5,13.5,0,0,1,24,45a17.45,17.45,0,0,1-2.94.29,16.46,16.46,0,0,1,2.94.29,12.72,12.72,0,0,1,.41,2.86,14,14,0,0,1,.41-2.86,14.6,14.6,0,0,1,2.74-.29A15.49,15.49,0,0,1,24.85,45Z"/><g class="cls-43"><path class="cls-42" d="M126.45,15.11A5.5,5.5,0,1,1,132,20.6,5.5,5.5,0,0,1,126.45,15.11Z"/></g><path class="cls-42" d="M132.46,14.92a13.5,13.5,0,0,1-.41-2.94,14.15,14.15,0,0,1-.41,2.94,17.55,17.55,0,0,1-2.95.29,16.56,16.56,0,0,1,2.95.29,13.32,13.32,0,0,1,.41,2.86,12.72,12.72,0,0,1,.41-2.86,14.52,14.52,0,0,1,2.74-.29A15.4,15.4,0,0,1,132.46,14.92Z"/><g class="cls-44"><circle class="cls-42" cx="211.88" cy="66.77" r="5.49"/></g><path class="cls-42" d="M212.39,66.58a14.21,14.21,0,0,1-.4-2.94,14.85,14.85,0,0,1-.41,2.94,16.65,16.65,0,0,1-3,.29,17.65,17.65,0,0,1,3,.29A14,14,0,0,1,212,70a13.38,13.38,0,0,1,.4-2.86,15.59,15.59,0,0,1,2.75-.29A14.69,14.69,0,0,1,212.39,66.58Z"/><g class="cls-45"><circle class="cls-46" cx="176.62" cy="52" r="1.96"/></g><path class="cls-46" d="M176.8,51.93a5.5,5.5,0,0,1-.15-1,4.86,4.86,0,0,1-.14,1,5.68,5.68,0,0,1-1.06.11,6.52,6.52,0,0,1,1.06.1,4.65,4.65,0,0,1,.14,1,5.27,5.27,0,0,1,.15-1,5.59,5.59,0,0,1,1-.1A4.87,4.87,0,0,1,176.8,51.93Z"/><g class="cls-47"><path class="cls-46" d="M204.63,14a2,2,0,1,1,2,2A2,2,0,0,1,204.63,14Z"/></g><path class="cls-46" d="M206.77,13.88a5.5,5.5,0,0,1-.15-1.05,4.86,4.86,0,0,1-.14,1.05,5.51,5.51,0,0,1-1,.11,6.32,6.32,0,0,1,1,.1,4.56,4.56,0,0,1,.14,1,5.15,5.15,0,0,1,.15-1,5.59,5.59,0,0,1,1-.1A4.87,4.87,0,0,1,206.77,13.88Z"/><g class="cls-48"><path class="cls-46" d="M12.47,86.09a1.25,1.25,0,1,1,1.25,1.25A1.25,1.25,0,0,1,12.47,86.09Z"/></g><path class="cls-46" d="M13.84,86.05a3.67,3.67,0,0,1-.1-.67,3,3,0,0,1-.09.67,3.51,3.51,0,0,1-.67.06,3.63,3.63,0,0,1,.67.07,2.83,2.83,0,0,1,.09.65,3.43,3.43,0,0,1,.1-.65,3.16,3.16,0,0,1,.62-.07A3.05,3.05,0,0,1,13.84,86.05Z"/><g class="cls-49"><path class="cls-46" d="M75.67,90.63a1.25,1.25,0,1,1,1.25,1.24A1.25,1.25,0,0,1,75.67,90.63Z"/></g><path class="cls-46" d="M77,90.58a2.92,2.92,0,0,1-.09-.66,2.92,2.92,0,0,1-.09.66,3.63,3.63,0,0,1-.67.07,3.63,3.63,0,0,1,.67.07,2.73,2.73,0,0,1,.09.64,2.73,2.73,0,0,1,.09-.64,3.16,3.16,0,0,1,.62-.07A3.16,3.16,0,0,1,77,90.58Z"/><g class="cls-50"><path class="cls-46" d="M230.89,96.05a1.25,1.25,0,1,1,1.24,1.25A1.24,1.24,0,0,1,230.89,96.05Z"/></g><path class="cls-46" d="M232.25,96a3,3,0,0,1-.09-.67,3.67,3.67,0,0,1-.1.67,4.58,4.58,0,0,1-.67.06,3.63,3.63,0,0,1,.67.07,3.43,3.43,0,0,1,.1.65,2.83,2.83,0,0,1,.09-.65,3.16,3.16,0,0,1,.62-.07A4,4,0,0,1,232.25,96Z"/><g class="cls-51"><path class="cls-46" d="M120.9,46.33a1.25,1.25,0,1,1,1.25,1.24A1.25,1.25,0,0,1,120.9,46.33Z"/></g><path class="cls-46" d="M122.27,46.28a3.55,3.55,0,0,1-.1-.66,2.92,2.92,0,0,1-.09.66,3.63,3.63,0,0,1-.67.07,3.63,3.63,0,0,1,.67.07,2.73,2.73,0,0,1,.09.64,3.31,3.31,0,0,1,.1-.64,3.16,3.16,0,0,1,.62-.07A3.16,3.16,0,0,1,122.27,46.28Z"/><g class="cls-52"><path class="cls-46" d="M35.48,14a1.25,1.25,0,1,1,1.25,1.25A1.25,1.25,0,0,1,35.48,14Z"/></g><path class="cls-46" d="M36.84,13.91a3,3,0,0,1-.09-.67,3.75,3.75,0,0,1-.09.67A4.58,4.58,0,0,1,36,14a3.63,3.63,0,0,1,.67.07,3.51,3.51,0,0,1,.09.65,2.83,2.83,0,0,1,.09-.65,3.16,3.16,0,0,1,.62-.07A4,4,0,0,1,36.84,13.91Z"/><g class="cls-53"><path class="cls-46" d="M85.34,5a1.25,1.25,0,1,1,1.25,1.25A1.24,1.24,0,0,1,85.34,5Z"/></g><path class="cls-46" d="M86.7,5a3,3,0,0,1-.09-.67,3,3,0,0,1-.09.67,3.63,3.63,0,0,1-.67.07,4.58,4.58,0,0,1,.67.06,2.83,2.83,0,0,1,.09.65,2.83,2.83,0,0,1,.09-.65,4,4,0,0,1,.62-.06A3.16,3.16,0,0,1,86.7,5Z"/><g class="cls-54"><path class="cls-46" d="M179.38,13.24a1.25,1.25,0,1,1,1.25,1.25A1.25,1.25,0,0,1,179.38,13.24Z"/></g><path class="cls-46" d="M180.74,13.2a3,3,0,0,1-.09-.67,3.75,3.75,0,0,1-.09.67,4.58,4.58,0,0,1-.67.06,3.63,3.63,0,0,1,.67.07,3.51,3.51,0,0,1,.09.65,2.83,2.83,0,0,1,.09-.65,3.16,3.16,0,0,1,.62-.07A4,4,0,0,1,180.74,13.2Z"/><g class="cls-55"><path class="cls-46" d="M2.61,33.93a1.25,1.25,0,1,1,1.25,1.24A1.25,1.25,0,0,1,2.61,33.93Z"/></g><path class="cls-46" d="M4,33.89a3.81,3.81,0,0,1-.1-.67,3.1,3.1,0,0,1-.09.67,4.58,4.58,0,0,1-.67.06,3.63,3.63,0,0,1,.67.07,2.83,2.83,0,0,1,.09.65A3.43,3.43,0,0,1,4,34,3.16,3.16,0,0,1,4.6,34,4,4,0,0,1,4,33.89Z"/><g class="cls-56"><path class="cls-46" d="M52.36,104.17a2,2,0,1,1,2,2A2,2,0,0,1,52.36,104.17Z"/></g><path class="cls-46" d="M54.5,104.1a5.62,5.62,0,0,1-.15-1,5,5,0,0,1-.14,1,6.42,6.42,0,0,1-1.05.1,5.59,5.59,0,0,1,1.05.11,4.48,4.48,0,0,1,.14,1,5,5,0,0,1,.15-1,4.87,4.87,0,0,1,1-.11A5.59,5.59,0,0,1,54.5,104.1Z"/><g class="cls-57"><path class="cls-46" d="M80,16.57a1,1,0,1,1,1,1A1,1,0,0,1,80,16.57Z"/></g><path class="cls-46" d="M81,16.54a3,3,0,0,1-.08-.51,2.32,2.32,0,0,1-.07.51,2.56,2.56,0,0,1-.51.05,3.62,3.62,0,0,1,.51.05,2.32,2.32,0,0,1,.07.5,3.08,3.08,0,0,1,.08-.5,3.26,3.26,0,0,1,.48-.05A2.3,2.3,0,0,1,81,16.54Z"/><g class="cls-58"><circle class="cls-46" cx="31.28" cy="4.27" r="0.96"/></g><path class="cls-46" d="M31.36,4.23a3,3,0,0,1-.07-.51,2.24,2.24,0,0,1-.07.51,2.67,2.67,0,0,1-.51.06,2.56,2.56,0,0,1,.51,0,2.14,2.14,0,0,1,.07.5,2.86,2.86,0,0,1,.07-.5,2.36,2.36,0,0,1,.48,0A2.49,2.49,0,0,1,31.36,4.23Z"/><g class="cls-59"><path class="cls-46" d="M234,9.61a1,1,0,1,1,1,1A1,1,0,0,1,234,9.61Z"/></g><path class="cls-46" d="M235,9.58a2.34,2.34,0,0,1-.07-.52,2.34,2.34,0,0,1-.07.52,2.65,2.65,0,0,1-.52.05,3.75,3.75,0,0,1,.52,0,2.32,2.32,0,0,1,.07.5,2.32,2.32,0,0,1,.07-.5,3.26,3.26,0,0,1,.48,0A2.3,2.3,0,0,1,235,9.58Z"/><g class="cls-60"><path class="cls-46" d="M237.17,74a1,1,0,1,1,1,1A1,1,0,0,1,237.17,74Z"/></g><path class="cls-46" d="M238.22,74a2.32,2.32,0,0,1-.07-.51,4.86,4.86,0,0,1-.07.51,2.72,2.72,0,0,1-.52,0,3.89,3.89,0,0,1,.52,0,5,5,0,0,1,.07.5,2.32,2.32,0,0,1,.07-.5,3.26,3.26,0,0,1,.48,0A2.3,2.3,0,0,1,238.22,74Z"/><g class="cls-61"><path class="cls-46" d="M227.47,109a1,1,0,1,1,1,1A1,1,0,0,1,227.47,109Z"/></g><path class="cls-46" d="M228.52,108.94a2.42,2.42,0,0,1-.07-.52,2.42,2.42,0,0,1-.07.52,3.75,3.75,0,0,1-.52,0,2.65,2.65,0,0,1,.52.05,2.14,2.14,0,0,1,.07.5,2.14,2.14,0,0,1,.07-.5A2.3,2.3,0,0,1,229,109,3.26,3.26,0,0,1,228.52,108.94Z"/><g class="cls-62"><path class="cls-63" d="M211.88,130.92A56.92,56.92,0,0,1,204,160H105.25a57.28,57.28,0,1,1,106.63-29.08Z"/></g><g class="cls-64"><circle class="cls-40" cx="61.21" cy="32.29" r="19.71" transform="translate(19.47 87.5) rotate(-80.73)"/></g><g class="cls-65"><circle class="cls-46" cx="156.85" cy="71.24" r="41.12"/></g><g class="cls-66"><circle class="cls-46" cx="34.71" cy="91.75" r="17.22"/></g><g class="cls-67"><circle class="cls-40" cx="222.04" cy="33.07" r="17.22"/></g><path class="cls-68" d="M250,143.78V160H0V138.72a290.32,290.32,0,0,1,42.61-8.36h0q3.14-.39,6.35-.74c3.49-.39,7.05-.73,10.66-1h0q13.09-1.09,27.17-1.45h0A616.42,616.42,0,0,1,157,129.57h0q7.77.69,15.68,1.58h0c2.75.3,5.53.62,8.31,1h0c14.29,1.75,28.89,4,43.71,6.65l.1,0c4.89.88,9.79,1.83,14.73,2.82h0l.2,0Q244.94,142.69,250,143.78Z"/><polygon class="cls-69" points="42.61 130.36 34.34 133.15 23.51 137.01 11.63 140.52 1.96 144.02 0 143.96 0 124.83 0.5 125.02 5.72 127.03 8.79 130.33 15.54 131.38 20.08 130.65 25.96 130.19 28.03 129.31 42.61 130.36"/><path class="cls-70" d="M28,129.31l-2.07.88-5.88.46-4.54.73-6.75-1L5.72,127,.5,125l-.5-.19v5.42c.44.63,3.13,1.38,3.88,1.65a16.36,16.36,0,0,1,2.87,2.52,53.86,53.86,0,0,0,5.81-1c.82-.36,5.69-.7,7.5-.89a26.68,26.68,0,0,0,5.07-1.44c.18-.06,3.12-.56,3.12-.56l6.46-.12,4.87.37,1.71-.49Z"/><path class="cls-69" d="M250,153v7H197.49l-4.93-.77c-.36,0-1-.13-1.82-.21l4.38-.86,3.41-.57,3.78.59,5.47-.81,3.24.51-.38-.11-5.09-1.48-4.34.06-6.21-1-7.83.56-6.86,1.45-6.63,2.35L159,158.16l-14.58-2.27s18-1.91,27.19-4.17,14.94-.06,17.89-1.26,9.12-1.71,9.12-1.71l15.11,2.36,9.18,1.43s11.9,1.68,15.16,2.08a38.76,38.76,0,0,1,4.32.67l6.25-1.07Z"/><path class="cls-70" d="M242.39,155.29a38.76,38.76,0,0,0-4.32-.67c-3.26-.4-15.16-2.08-15.16-2.08l-9.18-1.43-15.11-2.36s-6.16.51-9.12,1.71-8.69-1-17.89,1.26c-7.44,1.83-20.63,3.43-25.4,4l6.79.84,9.34-.66,4.58-.66,4.47-1.74,5.78-.81h6.16l3.84-.18,4.25-.63,4.91-1.08a41.17,41.17,0,0,1,5.34,0c.5.23,7,1.18,7,1.18l10.87,2.55,8.93.92,10.27,1.11,3.85,1.3s4.78.17,6.12,0c.28,0,.76-.11,1.33-.22V153l-1.36,1.23Z"/><path class="cls-71" d="M231.67,159s3.55.68,5.42,1H222.57c-2.67-.91-6.55-2.27-6.55-2.27l-3.4-.07-2,.11-5.09-1.48-4.34.06-6.21-1-7.83.56,2.26-2.08,6.76-.79s6.33.81,6.73.59,7.78,1.49,8.55,1.34,8.18,1.27,8.18,1.27Z"/><polygon class="cls-72" points="250 159.13 250 160 245.47 160 250 159.13"/><path class="cls-71" d="M250,146v2.78c-4.87.5-11.42,1.1-12,.84-.9-.41-13.9-2.17-13.9-2.17L208.33,145l-21.56-2.68-3.85,1.62-7.25-.45s-3.38-.13-7.13-.3h0c-1.27,0-2.58-.11-3.82-.18,0,0,0,0-.05,0-2.86-.13-5.3-.27-5.85-.35-1.48-.23-19.82-1.39-19.82-1.39l-5-.78-12.5-4.05,23.92,0-3.29-1.07-3.72-.93-3.59-.9-15.3-.32-7.82,1.41s-10.48.71-12.78.37-9.23-1-10.39-1.59-13.92-.28-14.81.13-10.83-.59-12.16-.65l-3-.14h0l-1.76-.08-6.3-.3h0l-3-.15-1.62-.07,12.42-2.54,27.6-2.33,1-.08h0l21.58-1.79,25.23,1.31,23.19,2.88.14,0h0l14,1.91,8.27,1.12,45.42,6.17.1,0,11.86,1.61,2.87,1.21h0Z"/><path class="cls-69" d="M250,127.38v20l-20.62-3.22c-3.6-.56-12.18-2.28-12.18-2.28L202,140.24l-20.15-3.14-5,1.07-8.61.87s-17.25-.48-19.83-.47-18.31-.81-18.31-.81l-8.64-1.35s5-1.5,5.83-1.93,7-.06,7-.06l4.07,0,2.4,0s6.38.45,6.92.53a48.58,48.58,0,0,0,5.58-1.52l-6.65-1-4.11.27-3.77-.59-15.61-.41s-13.47.11-15.27-.17a19.84,19.84,0,0,0-4.43.05l-5.4-.84-7.15,1-5.77-.9-8.56.62s-12.1-.42-13.61-.29-7.06.38-7.06.38l-1,.07a0,0,0,0,0,0,0l-5.11.33-3.9.25L49,129.62l10.66-1h0l14.4-2.43,23-3.41,10-2.6,17.63,2.76,9.85-1.68s22.45.18,23.81-1.44,14.76,2.3,14.76,2.3l2.87.45,11.19-.84,5.08-1.78,19.37,3.39,16.16,5.11,8.14-.22,4.47-2.62,2.16.34S246.8,126.77,250,127.38Z"/><path class="cls-70" d="M57.42,129.73l5.91-.65,5.92-1.16s4.8-.72,5.36-.94,5.89-.48,6.22-.56l6.34-1.59,7.25-.58h3.29l5.37-1.67,4.92-.91,11.08,1.41,5.92.75,3.08-.16s2.75-.59,3.34-.67,3.91-.33,3.91-.33l5.17-.34,5,.09c.42,0,8.5-.75,8.5-.75l6.83-1.42s6.59,1.33,6.84,1.42,5.33,2.08,5.33,2.08h5.83c.59,0,5.59-.75,5.59-.75l4.41-.33,3.92-.59a19.37,19.37,0,0,1,3.17,0c1.16.17,6.25.59,6.25.59l4.42.5s3.58.75,4.33,1.08,5.16,1.92,5.16,1.92l8.48,2.58,1.86,1.13,3,.54c.53.08,4.78.25,5.11.25s4.2-.79,4.2-.79l2.39-2a23,23,0,0,1,3.33-.47c.16.09,3.36.53,5.58.86v-.93c-3.2-.61-7.45-1.45-7.45-1.45l-2.16-.34-4.47,2.62-8.14.22-16.16-5.11-19.37-3.39-5.08,1.78-11.19.84-2.87-.45s-13.4-3.94-14.76-2.3-23.81,1.44-23.81,1.44l-9.85,1.68-17.63-2.76-10,2.6-23,3.41-14.4,2.43h0l-10.66,1-3.13,2.48,4-1.93Z"/><path class="cls-73" d="M107.87,131.45c1.8.28,15.27.17,15.27.17l15.61.41,3.77.59,4.11-.28,6.65,1a50.71,50.71,0,0,1-5.58,1.52L158,136.41l10.77-.8,12.28-3.5,14.36.19,12.11.33,17.07-1.3-12.95-2-20.73-1.85L168.33,132l-19.94-1.54-19.19-1.06L115,130l-17,.67,5.4.85A19.84,19.84,0,0,1,107.87,131.45Z"/><path class="cls-74" d="M13.91,155.42l7.1,1.11,3.24.51,14.57-2.34,7.26,1.83,7.21,2.25,13.56-1.85a67.21,67.21,0,0,1,7.21-.16c2.37.18,7.81-.44,8.82-1a33.5,33.5,0,0,0,2.91-2.1s7.68,1.58,8.46,1.32,4.68.73,4.68.73l2-1-4.24-1.76-7.92-.44-7.12-1.32-8.17.54L60,150.77l-11,.6-7.06.1-9.41-1.26L23.43,153l-2.75,1.24Z"/><path class="cls-69" d="M102.35,153.82l-13.19-.52L81,152.19s-6.69,2.16-8.6,2-10.32-1.22-11.21-.81-6.39.2-8.06.3-6.75.69-7.83.53-10.41-.61-10.41-.61-10.08.85-11,1.34-10,.51-10,.51l5.79-1.71,2.49-1.78L25.1,151a6.58,6.58,0,0,0,1.72-2.13A21.47,21.47,0,0,1,29,145.55l2-4.11,2-2.1,2,1.43,2,2.85,3.55,5.57a11,11,0,0,1,5.94.93l3.25-1.33a21.84,21.84,0,0,1,5.07-2.38l1.62.25,4.05.63,3,2.16s3.11-.44,4.32.68.92,1.15,4.58.71,5.66-.81,5.66-.81l3.78.59,4.86.76s4.48,1.39,5.4.84,4.58.72,4.58.72Z"/><path class="cls-70" d="M91.64,153a31.22,31.22,0,0,0,3.3.13l1.23-.36c-1-.32-3.37-1-4.07-.55-.92.55-5.4-.84-5.4-.84l-4.86-.76L78.06,150s-2,.38-5.66.81-3.38.4-4.58-.71-4.32-.68-4.32-.68l-3-2.16-4.05-.63-1.62-.25a21.84,21.84,0,0,0-5.07,2.38l-3.25,1.33a11,11,0,0,0-5.94-.93L37,143.62l-2-2.85-2-1.43-2,2.1-2,4.11a21.47,21.47,0,0,0-2.18,3.34A6.58,6.58,0,0,1,25.1,151l-2.91.91-2.49,1.78-5.08,1.5,2.69-.33,2.63-.5,2-1.19,2.5-.94,3.31-1.12s.88-2.54,1.19-3,1.25-2,1.81-2.77,1.57-2.19,1.57-2.19l2.39-.2a19.25,19.25,0,0,1,1.95,1.46,10.48,10.48,0,0,1,1.39,2.18c.45.94,1.44,2.86,1.44,2.86l1.07.79a22,22,0,0,1,2.57,0c.18.1,2.24.73,2.71.85s4.29.38,4.29.38A20.18,20.18,0,0,0,52,150.21a25.62,25.62,0,0,1,4-1.76c.5-.14,1.88-.32,1.88-.32a3.75,3.75,0,0,1,2.06.64c.87.67,2.81,1.16,3.12,1.44a18.76,18.76,0,0,0,3.62.56,1.23,1.23,0,0,1,1.07.29,8.67,8.67,0,0,0,2.44,1,8.67,8.67,0,0,1,2.06-.68c.56,0,5.06-.61,5.06-.61a20.59,20.59,0,0,1,2.5.36c.19.12,3.38.43,3.38.43l3.4.32,2.77.65S91.28,152.88,91.64,153Z"/><path class="cls-74" d="M76.92,147.91l3.92,1.44,1.89.29,6.39,1,4.53-.11,7.74,1.2h6.45l4.5.7,6.31.29,4.92-.8a36,36,0,0,1,5.94.34l5.31.82,3.5.55,5.17,0,2.15-.77,2.43-.27h3.23l3.15-1.3s3-.19,3.71-.16,3.89-.37,4.17-.36-8.6-1.35-8.6-1.35l-10.08.82s-9.1-.76-10.07-.41-15.08-.25-15.08-.25l-9.36-1.46-8.69.21-8.61.22L84.09,148Z"/><path class="cls-69" d="M145.08,151.64l-6.85,2.56-2.6-2.22-5.4-.85-8.44-.2-8.22.67-10.2-.74s-2.15-.42-5-.79-5.76-.9-5.76-.9l-12-.69-3.6-.57L82.74,146l12,1.23,4.49-2.78,3.52-1.29,5.83-4.25,2.52.39,1.08,3.12,7.54,3h11.8L141.56,147s-.77.25,2.52.39a19.08,19.08,0,0,0,6.07-.75l16.2,4.23-12.78-.52-6.5,1.54Z"/><path class="cls-70" d="M162.4,149.87l-12.25-3.2a19.08,19.08,0,0,1-6.07.75c-3.29-.14-2.52-.39-2.52-.39l-10.07-1.57h-11.8l-7.54-3-1.08-3.12-2.52-.39-5.83,4.25-3.52,1.29-4.49,2.78-12-1.23-5.41,1.76,4.75-.22,1.34-1,4.92,1,5.16.4,3.08-.12,1.84-1.27,3-1.39,3.25-1.17,3.41-2.31s.34-.63.59-.58,2.91,2.38,2.91,2.38.59.18,1,.34a16.61,16.61,0,0,1,3.58,1.5,11.09,11.09,0,0,0,4,1.23c.39.11,6.56,0,6.56,0a6.29,6.29,0,0,1,2.33,0c1.92.19,7.75.46,7.75.46s1.58.28,2.75.63,5.83.8,5.83.8l3.09.19,1.25-.19h1.83l7.75,1Z"/><path class="cls-69" d="M36.35,137.16a2.54,2.54,0,0,1-.48,1.26s-.52.83.07.36.83-.53.6-.22.05.7.37.12.54-.26.6.61.21.49.31-.24.38-.73.54-.34.49.42.28-.14,0-.49.16-.09.56.66.47.31-.13-.75.25-.28a1.42,1.42,0,0,0,1.46.29c.2-.13-.41.07-.88-.27s.64.15,1-.21-.59,0-1.08-.61a2.25,2.25,0,0,1-.26-.62c-.08-.36-.7-.55-1.76-.4S36.47,136.89,36.35,137.16Z"/><path class="cls-75" d="M39.55,137.42c.32-.09.19-.44.18-.46-.2-.27-.79-.4-1.7-.27s-1.56.2-1.68.47a2.54,2.54,0,0,1-.48,1.26s-.52.83.07.36a2,2,0,0,1,.33-.25c.25-.35.53-.75.49-.53s.06.26.22.12a.46.46,0,0,1,.73.12c.24.36-.16-.48.5-.5A4.21,4.21,0,0,0,39.55,137.42Z"/><path class="cls-76" d="M39.58,137.07c0,.21-.65.45-1.49.52s-1.55,0-1.57-.25.65-.45,1.49-.53S39.56,136.85,39.58,137.07Z"/><path class="cls-77" d="M39.49,137.21a3.3,3.3,0,0,0-1.42-.11,3.18,3.18,0,0,0-1.41.38,3.21,3.21,0,0,0,1.43.11A3,3,0,0,0,39.49,137.21Z"/><path class="cls-68" d="M37,137.57a4.33,4.33,0,0,0,1.1,0,4.72,4.72,0,0,0,1.11-.22,4.35,4.35,0,0,0-1.1,0A4.51,4.51,0,0,0,37,137.57Z"/><path class="cls-78" d="M41.13,138.32c.23-.21,0-.18-.32-.23a.75.75,0,0,1-.58-.08c-.44-.25-.82-.43-.56-.17s0,.45-.17.2-.8-.3-.54.11-.72-.74-.55.22a1.45,1.45,0,0,1,0,.48c.17.24.38.2.2-.28s0-.49.16-.09.56.66.47.31-.13-.75.25-.28a1.42,1.42,0,0,0,1.46.29c.2-.13-.41.07-.88-.27S40.74,138.68,41.13,138.32Z"/><path class="cls-69" d="M120.4,160h-6.83a4.31,4.31,0,0,0,1-1.82c.26-.4,1.1-.36,2.84-.33h.28l.21,0,.45.05.22,0,.18,0,.1,0,.23.06a1.75,1.75,0,0,1,.44.17l.13.07.12.07a.39.39,0,0,1,.1.08l.07.06a.52.52,0,0,1,.14.19.73.73,0,0,1,.07.24A3.71,3.71,0,0,0,120.4,160Z"/><path class="cls-75" d="M119.69,159.43a7.09,7.09,0,0,1-2.26.16.58.58,0,0,0-.71.41h-.39a.77.77,0,0,0-1-.12c-.28.18-.44.14-.31-.25s-.21,0-.57.37h-.89a4.31,4.31,0,0,0,1-1.82c.26-.4,1.1-.36,2.84-.33h.28l.21,0,.45.05.22,0,.18,0,.1,0,.23.06a2,2,0,0,1,.44.17l.13.07.12.07a.39.39,0,0,1,.1.08l.07.06a1.15,1.15,0,0,1,.14.19S120.22,159.35,119.69,159.43Z"/><path class="cls-76" d="M119.82,158.86c0,.35-1.16.56-2.55.47s-2.48-.47-2.46-.82,1.17-.56,2.55-.46S119.84,158.51,119.82,158.86Z"/><path class="cls-77" d="M119.65,159.07a5.45,5.45,0,0,0-2.28-.54,5,5,0,0,0-2.37.25,5.52,5.52,0,0,0,2.27.55A5.07,5.07,0,0,0,119.65,159.07Z"/><path class="cls-68" d="M115.5,159a7.51,7.51,0,0,0,1.77.32,7.6,7.6,0,0,0,1.86-.08,7.5,7.5,0,0,0-1.78-.32A7.08,7.08,0,0,0,115.5,159Z"/><path class="cls-79" d="M118.81,160h-.17A.33.33,0,0,1,118.81,160Z"/><path class="cls-79" d="M119.87,160h-.19C119.62,159.87,119.7,159.89,119.87,160Z"/><path class="cls-69" d="M1.93,159.64l-.05.06,0,0h0c-.31.27-1.12-.06-.95.11l0,0s0,0,0,0l.18.1H.62a.81.81,0,0,1-.14-.12c-.27-.35-.29-.14-.24.12H0v-1.7H.14l.12,0,.11,0a.71.71,0,0,1,.23.12l0,0h0l0,0a.34.34,0,0,1,.06.12,1.86,1.86,0,0,0,.21.52,1,1,0,0,0,.64.33h.07l.18,0C1.9,159.58,1.94,159.59,1.93,159.64Z"/><path class="cls-75" d="M.52,159l-.52.17v-.83H.14l.12,0,.11,0a.71.71,0,0,1,.23.12l0,0h0l0,0S.79,158.88.52,159Z"/><path class="cls-76" d="M.55,158.65a.17.17,0,0,1-.08.13l0,0-.1,0-.18.08L0,159v-.54C.32,158.47.54,158.55.55,158.65Z"/><path class="cls-77" d="M.47,158.78l0,0-.1,0-.18.08L0,159v-.3A1.41,1.41,0,0,1,.47,158.78Z"/><path class="cls-77" d="M.22,158.91l-.06,0L0,159v-.09A1.46,1.46,0,0,1,.22,158.91Z"/><path class="cls-78" d="M1.93,159.64l-.05.06,0,0h0c-.31.27-1.12-.06-.95.11l0,0s0,0,0,0l.18.1H.62a.81.81,0,0,1-.14-.12c-.27-.35-.29-.14-.24.12H0v-.37c.06,0,.07,0,0-.06s0,0,0,0v-.2a.44.44,0,0,1,.47.14c.17.21.37.06.15-.17s.1-.06.47.15a.65.65,0,0,0,.49.07h.07l.18,0C1.9,159.58,1.94,159.59,1.93,159.64Z"/><path class="cls-69" d="M170.72,147.29a2,2,0,0,0,.47,1s.47.63,0,.29-.7-.36-.49-.13,0,.56-.29.12-.44-.17-.43.53-.14.4-.27-.17-.35-.56-.45-.24-.36.37-.23-.08,0-.4-.13-.07-.4.57-.35.28,0-.6-.22-.21a1.13,1.13,0,0,1-1.15.34c-.16-.09.34,0,.69-.28s-.5.17-.84-.09.47,0,.82-.56a1.65,1.65,0,0,0,.16-.51c0-.29.52-.49,1.37-.44S170.61,147.08,170.72,147.29Z"/><path class="cls-75" d="M168.2,147.71c-.26-.05-.18-.34-.18-.35.14-.23.6-.37,1.33-.33s1.26.05,1.37.26a2,2,0,0,0,.47,1s.47.63,0,.29l-.28-.17c-.22-.26-.47-.56-.43-.39s0,.21-.16.11a.37.37,0,0,0-.57.15c-.17.3.09-.39-.43-.37A3.09,3.09,0,0,1,168.2,147.71Z"/><path class="cls-76" d="M168.15,147.43c0,.18.55.32,1.22.32s1.23-.14,1.23-.31-.55-.31-1.22-.31S168.15,147.26,168.15,147.43Z"/><path class="cls-77" d="M168.23,147.54a2.65,2.65,0,0,1,1.12-.18,2.58,2.58,0,0,1,1.15.2,2.64,2.64,0,0,1-1.13.19A2.4,2.4,0,0,1,168.23,147.54Z"/><path class="cls-68" d="M170.24,147.66a3.52,3.52,0,0,1-.87.09,3.58,3.58,0,0,1-.89-.1,3.1,3.1,0,0,1,.87-.09A3.58,3.58,0,0,1,170.24,147.66Z"/><path class="cls-78" d="M167,148.54c-.19-.15,0-.15.24-.21a.61.61,0,0,0,.46-.1c.33-.23.62-.4.43-.17s0,.36.15.15.61-.3.44,0,.52-.65.45.13a1.14,1.14,0,0,0,0,.39c-.12.2-.29.18-.18-.21s0-.4-.13-.07-.4.57-.35.28,0-.6-.22-.21a1.13,1.13,0,0,1-1.15.34c-.16-.09.34,0,.69-.28S167.34,148.8,167,148.54Z"/><path class="cls-69" d="M244.8,152.11a1.94,1.94,0,0,0,.47,1s.47.63,0,.3-.7-.37-.5-.14,0,.57-.28.12-.45-.16-.43.53-.14.41-.27-.17-.35-.55-.45-.23-.36.37-.23-.09,0-.39-.13-.06-.41.56-.35.28.05-.61-.22-.21a1.15,1.15,0,0,1-1.15.34c-.16-.1.34,0,.69-.28s-.5.16-.84-.1.47,0,.82-.56a1.65,1.65,0,0,0,.16-.51c0-.29.52-.48,1.37-.44S244.69,151.91,244.8,152.11Z"/><path class="cls-75" d="M242.27,152.54c-.25-.06-.17-.34-.17-.36.14-.22.6-.36,1.33-.33s1.26.06,1.37.26a1.94,1.94,0,0,0,.47,1s.47.63,0,.3l-.28-.18c-.22-.26-.47-.56-.43-.39s0,.21-.16.11a.38.38,0,0,0-.58.15c-.16.31.1-.39-.43-.36A3.75,3.75,0,0,1,242.27,152.54Z"/><path class="cls-76" d="M242.23,152.26c0,.17.54.31,1.22.31s1.23-.13,1.23-.3-.55-.32-1.23-.32S242.23,152.09,242.23,152.26Z"/><path class="cls-77" d="M242.31,152.37a2.59,2.59,0,0,1,1.12-.19,2.45,2.45,0,0,1,1.15.21,2.55,2.55,0,0,1-1.13.18A2.4,2.4,0,0,1,242.31,152.37Z"/><path class="cls-68" d="M244.32,152.48a3.1,3.1,0,0,1-.87.09,3.67,3.67,0,0,1-.9-.1,4.17,4.17,0,0,1,1.77,0Z"/><path class="cls-78" d="M241.08,153.36c-.19-.15,0-.14.24-.2a.62.62,0,0,0,.46-.11c.33-.22.62-.4.43-.17s0,.36.15.15.61-.3.44.05.52-.64.45.14a1.52,1.52,0,0,0,0,.38c-.11.2-.28.18-.17-.21s0-.39-.13-.06-.41.56-.35.28.05-.61-.22-.21a1.15,1.15,0,0,1-1.15.34c-.16-.1.34,0,.69-.28S241.42,153.62,241.08,153.36Z"/><path class="cls-69" d="M118.4,133.09a2,2,0,0,0,.48,1s.46.63,0,.29-.7-.36-.5-.13,0,.56-.29.12-.44-.17-.43.52-.13.41-.27-.17-.34-.55-.45-.23-.35.37-.22-.09,0-.39-.14-.06-.4.57-.35.28,0-.6-.22-.21a1.12,1.12,0,0,1-1.14.34c-.17-.1.33,0,.68-.28s-.49.17-.83-.1.47,0,.82-.56a1.68,1.68,0,0,0,.15-.5c0-.29.53-.49,1.38-.44S118.29,132.88,118.4,133.09Z"/><path class="cls-75" d="M115.88,133.51c-.26,0-.18-.34-.17-.36.14-.22.59-.36,1.33-.32s1.25,0,1.36.26a2,2,0,0,0,.48,1s.46.63,0,.29l-.28-.17c-.22-.26-.48-.57-.43-.39s0,.21-.17.11a.37.37,0,0,0-.57.14c-.17.31.09-.39-.43-.36A3.13,3.13,0,0,1,115.88,133.51Z"/><path class="cls-76" d="M115.83,133.23c0,.17.55.32,1.23.32s1.22-.14,1.22-.31-.54-.31-1.22-.32S115.84,133.06,115.83,133.23Z"/><path class="cls-77" d="M115.91,133.34a2.52,2.52,0,0,1,1.13-.18,2.43,2.43,0,0,1,1.14.2,2.62,2.62,0,0,1-1.12.19A2.42,2.42,0,0,1,115.91,133.34Z"/><path class="cls-68" d="M117.93,133.46a4.08,4.08,0,0,1-.87.09,3.15,3.15,0,0,1-.9-.11,4.08,4.08,0,0,1,.87-.09A3.2,3.2,0,0,1,117.93,133.46Z"/><path class="cls-78" d="M114.69,134.33c-.2-.15,0-.14.24-.2a.6.6,0,0,0,.45-.11c.34-.22.62-.39.43-.17s0,.37.15.15.62-.3.44.05.52-.64.45.14a1.38,1.38,0,0,0,0,.38c-.12.21-.28.18-.17-.21s0-.39-.14-.06-.4.57-.35.28,0-.6-.22-.21a1.12,1.12,0,0,1-1.14.34c-.17-.1.33,0,.68-.28S115,134.6,114.69,134.33Z"/><path class="cls-69" d="M33.91,156.48a2.43,2.43,0,0,0,.56,1.14s.56.74,0,.34-.83-.42-.59-.15,0,.67-.34.14-.52-.2-.51.62-.16.49-.32-.2-.41-.65-.53-.27-.42.43-.27-.11,0-.46-.16-.07-.47.67-.41.33.06-.72-.26-.25a1.33,1.33,0,0,1-1.36.4c-.19-.11.4,0,.82-.33s-.59.2-1-.11.56-.05,1-.66a2.2,2.2,0,0,0,.18-.6c0-.35.62-.58,1.63-.52S33.78,156.24,33.91,156.48Z"/><path class="cls-75" d="M30.93,157c-.31-.06-.21-.4-.21-.42.17-.26.71-.43,1.58-.38s1.48.06,1.61.3a2.43,2.43,0,0,0,.56,1.14s.56.74,0,.34l-.33-.2c-.27-.31-.57-.67-.51-.46s0,.25-.19.13a.45.45,0,0,0-.69.17c-.19.36.12-.46-.5-.43A3.85,3.85,0,0,1,30.93,157Z"/><path class="cls-76" d="M30.87,156.65c0,.21.65.37,1.45.38s1.45-.16,1.45-.37-.65-.37-1.45-.37S30.87,156.45,30.87,156.65Z"/><path class="cls-77" d="M31,156.78a3.19,3.19,0,0,1,1.34-.22,3,3,0,0,1,1.35.25,3.13,3.13,0,0,1-1.33.22A2.93,2.93,0,0,1,31,156.78Z"/><path class="cls-68" d="M33.35,156.92a4.21,4.21,0,0,1-1,.11,4.3,4.3,0,0,1-1.06-.12,4.15,4.15,0,0,1,1-.11A3.87,3.87,0,0,1,33.35,156.92Z"/><path class="cls-78" d="M29.51,158c-.23-.18,0-.17.29-.24a.75.75,0,0,0,.54-.13c.39-.26.73-.47.51-.2s0,.43.18.18.72-.36.51.06.62-.77.54.16a1.21,1.21,0,0,0,0,.45c-.14.24-.34.22-.21-.25s0-.46-.16-.07-.47.67-.41.33.06-.72-.26-.25a1.33,1.33,0,0,1-1.36.4c-.19-.11.4,0,.82-.33S29.92,158.27,29.51,158Z"/><path class="cls-69" d="M90.88,139.23a2.25,2.25,0,0,0,.54,1.09s.53.71,0,.32-.79-.4-.56-.15,0,.64-.32.14-.5-.19-.49.6-.15.46-.3-.2-.39-.62-.51-.26-.41.42-.26-.1,0-.44-.15-.07-.46.64-.4.32.06-.69-.25-.24a1.27,1.27,0,0,1-1.29.38c-.18-.1.38,0,.78-.31s-.57.19-.95-.11.53,0,.93-.63a2.06,2.06,0,0,0,.18-.58c0-.32.59-.55,1.55-.49S90.76,139,90.88,139.23Z"/><path class="cls-75" d="M88,139.71c-.29-.06-.2-.38-.19-.4.15-.26.67-.42,1.5-.37s1.42.06,1.54.29a2.25,2.25,0,0,0,.54,1.09s.53.71,0,.32l-.31-.19c-.25-.29-.54-.64-.49-.44s0,.24-.18.12a.42.42,0,0,0-.65.17c-.19.34.1-.44-.49-.41A3.85,3.85,0,0,1,88,139.71Z"/><path class="cls-76" d="M88,139.39c0,.2.61.36,1.38.36s1.38-.15,1.38-.35-.61-.35-1.38-.36S88,139.2,88,139.39Z"/><path class="cls-77" d="M88.06,139.52a3,3,0,0,1,1.28-.21,2.8,2.8,0,0,1,1.29.23,2.88,2.88,0,0,1-1.27.21A2.85,2.85,0,0,1,88.06,139.52Z"/><path class="cls-68" d="M90.34,139.65a4.35,4.35,0,0,1-1,.1,4.07,4.07,0,0,1-1-.12,4.51,4.51,0,0,1,1-.1A3.93,3.93,0,0,1,90.34,139.65Z"/><path class="cls-78" d="M86.68,140.64c-.22-.17,0-.16.27-.23a.74.74,0,0,0,.52-.12c.37-.25.7-.45.48-.19s0,.4.17.17.7-.34.5,0,.59-.73.51.16a1.37,1.37,0,0,0,0,.43c-.13.23-.32.2-.2-.24s0-.44-.15-.07-.46.64-.4.32.06-.69-.25-.24a1.27,1.27,0,0,1-1.29.38c-.18-.1.38,0,.78-.31S87.06,140.94,86.68,140.64Z"/><path class="cls-69" d="M66.25,135.8a1.32,1.32,0,0,0,.3.62s.3.4,0,.18-.44-.23-.31-.08,0,.36-.19.08-.28-.11-.27.33-.09.26-.17-.11-.22-.35-.29-.14-.23.23-.14-.06,0-.25-.09,0-.26.36-.22.18,0-.39-.14-.13a.73.73,0,0,1-.73.21c-.11-.06.21,0,.43-.18s-.31.11-.53-.06.3,0,.52-.36a.83.83,0,0,0,.1-.32c0-.18.34-.31.88-.28S66.18,135.67,66.25,135.8Z"/><path class="cls-75" d="M64.64,136.08c-.16,0-.11-.22-.11-.23s.38-.23.85-.21.8,0,.87.16a1.32,1.32,0,0,0,.3.62s.3.4,0,.18l-.18-.11c-.14-.16-.3-.35-.27-.24s0,.13-.1.07a.23.23,0,0,0-.37.09c-.11.19.06-.25-.27-.23A2.55,2.55,0,0,1,64.64,136.08Z"/><path class="cls-76" d="M64.61,135.9c0,.11.35.2.78.2s.78-.09.78-.2-.35-.2-.78-.2S64.61,135.79,64.61,135.9Z"/><path class="cls-77" d="M64.66,136a1.7,1.7,0,0,1,.72-.12,1.65,1.65,0,0,1,.73.13,1.7,1.7,0,0,1-.72.12A1.65,1.65,0,0,1,64.66,136Z"/><path class="cls-68" d="M66,136a2.23,2.23,0,0,1-.56.06,2.15,2.15,0,0,1-.57-.07,2.23,2.23,0,0,1,.56-.05A2.32,2.32,0,0,1,66,136Z"/><path class="cls-78" d="M63.88,136.6c-.12-.09,0-.09.16-.13a.39.39,0,0,0,.29-.07c.21-.14.39-.25.27-.11s0,.23.1.1.39-.19.27,0,.34-.41.29.09a.55.55,0,0,0,0,.24c-.08.13-.19.12-.11-.13s0-.25-.09,0-.26.36-.22.18,0-.39-.14-.13a.73.73,0,0,1-.73.21c-.11-.06.21,0,.43-.18S64.1,136.77,63.88,136.6Z"/><path class="cls-69" d="M53.74,142.06a1.26,1.26,0,0,0,.3.61s.3.4,0,.19-.44-.23-.32-.09,0,.36-.18.08-.28-.11-.27.34-.09.25-.17-.11-.22-.35-.29-.15-.23.23-.15-.06,0-.25-.08,0-.26.36-.22.18,0-.38-.14-.13a.73.73,0,0,1-.73.21c-.11-.06.21,0,.43-.18s-.31.11-.53-.06.3,0,.52-.35a.93.93,0,0,0,.1-.33c0-.18.34-.3.88-.28S53.67,141.93,53.74,142.06Z"/><path class="cls-75" d="M52.13,142.33c-.16,0-.11-.22-.11-.23s.38-.23.85-.21.8,0,.87.17a1.26,1.26,0,0,0,.3.61s.3.4,0,.19a1,1,0,0,0-.18-.11c-.14-.17-.3-.36-.27-.25s0,.13-.1.07a.24.24,0,0,0-.37.09c-.11.2.06-.25-.28-.23A1.93,1.93,0,0,1,52.13,142.33Z"/><path class="cls-76" d="M52.1,142.15c0,.11.35.2.78.2s.78-.08.78-.19-.35-.2-.78-.2S52.1,142,52.1,142.15Z"/><path class="cls-77" d="M52.15,142.22a1.7,1.7,0,0,1,.72-.12,1.5,1.5,0,0,1,.73.14,1.73,1.73,0,0,1-.72.11A1.52,1.52,0,0,1,52.15,142.22Z"/><path class="cls-68" d="M53.44,142.29a2.23,2.23,0,0,1-.56.06,2.21,2.21,0,0,1-.57-.06,2.15,2.15,0,0,1,.55-.06A3,3,0,0,1,53.44,142.29Z"/><path class="cls-78" d="M51.37,142.85c-.12-.09,0-.09.15-.13a.4.4,0,0,0,.3-.06c.21-.15.39-.26.27-.11s0,.23.09.09.4-.19.28,0,.34-.41.29.08a.62.62,0,0,0,0,.25c-.08.13-.19.11-.12-.14s0-.25-.08,0-.26.36-.22.18,0-.38-.14-.13a.73.73,0,0,1-.73.21c-.11-.06.21,0,.43-.18S51.59,143,51.37,142.85Z"/><path class="cls-69" d="M207.24,146.52a1.3,1.3,0,0,0,.3.61s.3.4,0,.19-.45-.23-.32-.09,0,.36-.18.08-.28-.11-.27.33-.09.26-.17-.1-.23-.36-.29-.15-.23.23-.15-.06,0-.25-.08,0-.26.36-.23.18,0-.39-.14-.13a.71.71,0,0,1-.72.21c-.11-.06.21,0,.43-.18s-.31.11-.53-.06.3,0,.52-.35a.93.93,0,0,0,.1-.33c0-.18.34-.31.88-.28S207.17,146.39,207.24,146.52Z"/><path class="cls-75" d="M205.63,146.79c-.16,0-.11-.22-.11-.23s.38-.23.85-.21.8,0,.87.17a1.3,1.3,0,0,0,.3.61s.3.4,0,.19a1,1,0,0,0-.18-.11c-.14-.17-.3-.36-.27-.25s0,.13-.11.07a.23.23,0,0,0-.36.09c-.11.2.06-.25-.28-.23A2.19,2.19,0,0,1,205.63,146.79Z"/><path class="cls-76" d="M205.6,146.61c0,.11.35.2.78.2s.78-.08.78-.19-.35-.2-.78-.21S205.6,146.5,205.6,146.61Z"/><path class="cls-77" d="M205.65,146.68a1.7,1.7,0,0,1,.72-.12,1.65,1.65,0,0,1,.73.13,1.7,1.7,0,0,1-.72.12A1.49,1.49,0,0,1,205.65,146.68Z"/><path class="cls-68" d="M206.93,146.75a2.09,2.09,0,0,1-.55.06,2.21,2.21,0,0,1-.57-.06,2.15,2.15,0,0,1,.55-.06A2.21,2.21,0,0,1,206.93,146.75Z"/><path class="cls-78" d="M204.87,147.31c-.12-.09,0-.09.15-.13a.37.37,0,0,0,.29-.06c.22-.15.4-.26.28-.11s0,.23.09.09.39-.19.28,0,.34-.41.29.09a1,1,0,0,0,0,.25c-.07.12-.18.11-.11-.14s0-.25-.08,0-.26.36-.23.18,0-.39-.14-.13a.71.71,0,0,1-.72.21c-.11-.06.21,0,.43-.18S205.09,147.48,204.87,147.31Z"/><path class="cls-69" d="M124.57,140.5a1.32,1.32,0,0,0,.3.62s.3.4,0,.18-.44-.23-.31-.08,0,.36-.18.08-.29-.11-.28.33-.09.26-.17-.11-.22-.35-.29-.14-.22.23-.14-.06,0-.25-.09,0-.25.36-.22.18,0-.39-.14-.14a.72.72,0,0,1-.73.22c-.1-.06.21,0,.44-.18s-.32.11-.54-.06.3,0,.53-.36a1.1,1.1,0,0,0,.1-.32c0-.18.33-.31.87-.28S124.5,140.37,124.57,140.5Z"/><path class="cls-75" d="M123,140.78c-.16,0-.11-.22-.1-.23s.37-.23.84-.21.8,0,.87.16a1.32,1.32,0,0,0,.3.62s.3.4,0,.18l-.17-.11c-.14-.16-.31-.35-.28-.25s0,.14-.1.07a.24.24,0,0,0-.37.1c-.1.19.06-.25-.27-.23A2.55,2.55,0,0,1,123,140.78Z"/><path class="cls-76" d="M122.94,140.6c0,.11.34.2.77.2s.78-.09.78-.2-.34-.2-.77-.2S122.94,140.49,122.94,140.6Z"/><path class="cls-77" d="M123,140.67a1.7,1.7,0,0,1,.72-.12,1.62,1.62,0,0,1,.73.13,1.7,1.7,0,0,1-.72.12A1.65,1.65,0,0,1,123,140.67Z"/><path class="cls-68" d="M124.27,140.74a2.18,2.18,0,0,1-.56.06,2.21,2.21,0,0,1-.57-.07,2.23,2.23,0,0,1,.56,0A2.26,2.26,0,0,1,124.27,140.74Z"/><path class="cls-78" d="M122.2,141.3c-.12-.09,0-.09.16-.13a.39.39,0,0,0,.29-.07c.21-.14.39-.25.27-.11s0,.23.1.1.39-.19.28,0,.33-.41.28.09a.78.78,0,0,0,0,.24c-.08.13-.18.12-.11-.13s0-.25-.09,0-.25.36-.22.18,0-.39-.14-.14a.72.72,0,0,1-.73.22c-.1-.06.21,0,.44-.18S122.42,141.47,122.2,141.3Z"/><path class="cls-69" d="M9.49,148a1.32,1.32,0,0,0,.3.62s.3.4,0,.18-.44-.23-.31-.08,0,.36-.18.07-.29-.1-.28.34-.09.26-.17-.11-.22-.35-.29-.15-.22.24-.14-.05,0-.25-.09,0-.25.36-.22.18,0-.39-.14-.14a.74.74,0,0,1-.73.22c-.1-.06.21,0,.44-.18s-.32.11-.54-.06.3,0,.53-.36a1.26,1.26,0,0,0,.1-.32c0-.19.33-.31.87-.28S9.42,147.9,9.49,148Z"/><path class="cls-75" d="M7.88,148.3c-.16,0-.11-.21-.11-.22s.38-.24.85-.21.8,0,.87.16a1.32,1.32,0,0,0,.3.62s.3.4,0,.18l-.17-.11c-.15-.16-.31-.36-.28-.25s0,.14-.1.07a.24.24,0,0,0-.37.1c-.1.19.06-.25-.27-.24A2,2,0,0,1,7.88,148.3Z"/><path class="cls-76" d="M7.85,148.13c0,.11.35.2.78.2s.78-.09.78-.2-.34-.2-.77-.2S7.86,148,7.85,148.13Z"/><path class="cls-77" d="M7.9,148.2a1.7,1.7,0,0,1,.72-.12,1.49,1.49,0,0,1,.73.13,1.7,1.7,0,0,1-.72.12A1.65,1.65,0,0,1,7.9,148.2Z"/><path class="cls-68" d="M9.19,148.27a2.18,2.18,0,0,1-.56.06,2.21,2.21,0,0,1-.57-.07,2.18,2.18,0,0,1,.56-.06A2.21,2.21,0,0,1,9.19,148.27Z"/><path class="cls-78" d="M7.12,148.83c-.12-.1,0-.09.16-.13a.39.39,0,0,0,.29-.07c.21-.14.39-.25.27-.11s0,.23.1.1.39-.19.28,0,.33-.41.28.09a.78.78,0,0,0,0,.24c-.08.13-.18.12-.11-.13s0-.25-.09,0-.25.36-.22.18,0-.39-.14-.14a.74.74,0,0,1-.73.22c-.1-.06.21,0,.44-.18S7.34,149,7.12,148.83Z"/><g class="cls-80"><path class="cls-81" d="M142,31.28a12.84,12.84,0,1,1,9.45,15.5A12.84,12.84,0,0,1,142,31.28Z"/><path class="cls-82" d="M142.15,37.74a47.81,47.81,0,0,0,17.33-6.22,33.2,33.2,0,0,0,5.68-4.39,12.81,12.81,0,0,0-1.31-1.63,31,31,0,0,1-5.58,4.33,45.67,45.67,0,0,1-16.52,5.87A12.91,12.91,0,0,0,142.15,37.74Z"/><path class="cls-82" d="M158.2,22a18.59,18.59,0,0,1-3.06,2.37,28.37,28.37,0,0,1-11.94,3.87,11.59,11.59,0,0,0-.75,1.68,30.41,30.41,0,0,0,13.64-4.26,19,19,0,0,0,3.74-3.05A12.7,12.7,0,0,0,158.2,22Z"/><path class="cls-82" d="M167,37.32a12.7,12.7,0,0,0,.35-2.57A20.05,20.05,0,0,1,146.16,44,12.82,12.82,0,0,0,167,37.32Z"/><path class="cls-74" d="M159.42,22.45a12.83,12.83,0,0,1-11.61,22,12.11,12.11,0,0,1-1.93-.63,12.83,12.83,0,1,0,13.54-21.38Z"/><ellipse class="cls-83" cx="152.67" cy="33.07" rx="9.9" ry="7.86" transform="translate(42.04 143.36) rotate(-57.13)"/><path class="cls-84" d="M182.69,22.37c-1-2.32-9.11-1.28-19.83,2.18a11.8,11.8,0,0,1,1,1l.36.39c.19.22.37.45.54.68s.35.49.52.74c2.9-.68,4.83-.76,5.1-.1s-1.1,1.92-3.57,3.44a78.66,78.66,0,0,1-11,5.4,72.53,72.53,0,0,1-12.77,4.11c-2.16.4-3.55.37-3.78-.19s.78-1.59,2.67-2.86c-.06-.26-.11-.52-.16-.79a11.7,11.7,0,0,1-.13-1.19c0-.18,0-.35,0-.53a12.07,12.07,0,0,1,0-1.34c-9.81,5-16.14,9.91-15.2,12.19s8.74,1.34,19.09-1.94c3.52-1.11,7.32-2.49,11.26-4.11,3.77-1.55,7.3-3.18,10.48-4.79C177.24,29.61,183.63,24.67,182.69,22.37Z"/><path class="cls-85" d="M173.17,26.05c-.43-1-3.69-.74-8.39.55.18.24.35.49.52.74,2.9-.68,4.83-.76,5.1-.1s-1.1,1.92-3.57,3.44a78.66,78.66,0,0,1-11,5.4,72.53,72.53,0,0,1-12.77,4.11c-2.16.4-3.55.37-3.78-.19s.78-1.59,2.67-2.86c-.06-.26-.11-.52-.16-.79-3.6,2.19-5.67,4-5.27,5s3.1.79,7.08-.2a90.48,90.48,0,0,0,12.53-4.29,95.63,95.63,0,0,0,10.87-5.31C171.17,29.15,173.6,27.07,173.17,26.05Z"/><path class="cls-86" d="M179.64,23.76c-.64-1.58-5.07-1-8.68-.16-2.13.47-4.52,1.13-7.08,1.93l.36.39c2.46-.77,4.76-1.39,6.83-1.85,4.2-.93,6.24-.92,7.23-.68.65.16.84.41.9.55.15.36.15,1.83-5.92,5.58-1.75,1.09-3.78,2.21-6,3.35-3.26,1.66-7,3.34-10.86,4.93-4.23,1.71-8.36,3.18-12.09,4.31-2.07.62-4,1.13-5.78,1.53-7,1.54-8,.48-8.13.12s-.16-1.83,5.91-5.58c1.59-1,3.4-2,5.39-3,0-.18,0-.35,0-.53-2.07,1.07-4,2.12-5.61,3.14-3.14,1.94-6.75,4.59-6.11,6.17a1.6,1.6,0,0,0,1.22.83c1.7.41,4.81-.08,7.46-.67,1.84-.4,3.86-.94,6-1.59,3.69-1.12,7.77-2.58,11.94-4.27,3.84-1.56,7.49-3.22,10.73-4.86,2.31-1.17,4.41-2.33,6.21-3.45C176.68,28,180.29,25.35,179.64,23.76Z"/></g><g class="cls-87"><path class="cls-46" d="M137.08,90.61c-.27.28-4.92-3.92-10.37-9.38s-9.65-10.1-9.38-10.37,4.92,3.92,10.38,9.38S137.36,90.34,137.08,90.61Z"/></g><g class="cls-88"><path class="cls-46" d="M117.33,90.61c-.27-.27,3.92-4.92,9.38-10.37s10.1-9.66,10.37-9.38-3.92,4.92-9.37,10.37S117.61,90.89,117.33,90.61Z"/></g><g class="cls-89"><path class="cls-46" d="M204.5,24.06c-.12.12-2.24-1.79-4.73-4.27s-4.39-4.61-4.27-4.73,2.24,1.79,4.73,4.27S204.63,23.93,204.5,24.06Z"/></g><g class="cls-90"><path class="cls-46" d="M195.5,24.06c-.12-.13,1.79-2.24,4.27-4.73s4.61-4.4,4.73-4.27-1.79,2.24-4.27,4.73S195.63,24.18,195.5,24.06Z"/></g><g class="cls-91"><path class="cls-46" d="M63.83,33.69c-.15.16-2.77-2.21-5.85-5.29s-5.45-5.7-5.3-5.86,2.78,2.22,5.86,5.3S64,33.54,63.83,33.69Z"/></g><g class="cls-92"><path class="cls-46" d="M52.68,33.69c-.15-.15,2.22-2.78,5.3-5.85s5.7-5.45,5.85-5.3-2.21,2.78-5.29,5.86S52.84,33.85,52.68,33.69Z"/></g></g></g></g></svg>