<svg xmlns="http://www.w3.org/2000/svg" xmlns:xlink="http://www.w3.org/1999/xlink" viewBox="0 0 250 160"><defs><style>.cls-1{fill:url(#radial-gradient);}.cls-2{fill:url(#radial-gradient-2);}.cls-3{fill:url(#radial-gradient-3);}.cls-4{fill:url(#radial-gradient-4);}.cls-5{fill:url(#radial-gradient-5);}.cls-6{fill:url(#radial-gradient-6);}.cls-7{fill:url(#linear-gradient);}.cls-8{fill:url(#radial-gradient-7);}.cls-9{fill:url(#radial-gradient-8);}.cls-10{fill:url(#radial-gradient-9);}.cls-11{isolation:isolate;}.cls-12{fill:url(#linear-gradient-2);}.cls-13,.cls-15,.cls-33{mix-blend-mode:screen;}.cls-14{fill:#414042;}.cls-15{fill:#808285;}.cls-16{mask:url(#mask);}.cls-17{fill:url(#radial-gradient-10);}.cls-18{mask:url(#mask-2);}.cls-19{fill:url(#radial-gradient-11);}.cls-20{mask:url(#mask-3);}.cls-21{fill:#00d3c9;}.cls-22{fill:#00c6bd;}.cls-23{fill:#00b9b1;}.cls-24{fill:#00e0d5;}.cls-25{mask:url(#mask-4);}.cls-26{fill:#da6d99;}.cls-27{mask:url(#mask-5);}.cls-28{mask:url(#mask-6);}.cls-29{mask:url(#mask-7);}.cls-30{fill:#ffd037;}.cls-31{fill:#f9a303;}.cls-32,.cls-42{fill:#e6e7e8;}.cls-32,.cls-41{mix-blend-mode:multiply;}.cls-33{fill:#231f20;}.cls-34{fill:#d88002;}.cls-35{fill:#bf7102;}.cls-36{fill:#8a5100;}.cls-37{mask:url(#mask-8);}.cls-38{mask:url(#mask-9);}.cls-39{mask:url(#mask-10);}.cls-40{fill:#1f3c61;}.cls-43{fill:#162a45;}.cls-44{fill:#1a3252;}.cls-45{fill:#2a5082;}.cls-46{fill:#264875;}.cls-47{fill:#0e1a2b;}.cls-48{fill:#32609c;}.cls-49{fill:#315e99;}</style><radialGradient id="radial-gradient" cx="40.75" cy="56.46" r="15.64" gradientTransform="translate(92.66 -17.03) rotate(91.8)" gradientUnits="userSpaceOnUse"><stop offset="0.45" stop-color="#58595b"/><stop offset="0.78" stop-color="#252626"/><stop offset="1"/></radialGradient><radialGradient id="radial-gradient-2" cx="224.61" cy="125.85" r="10.88" gradientTransform="translate(-2.51 -21.09) rotate(3.85)" xlink:href="#radial-gradient"/><radialGradient id="radial-gradient-3" cx="259.57" cy="-82.65" r="27.19" gradientTransform="translate(416.04 154.54) rotate(-135.34)" gradientUnits="userSpaceOnUse"><stop offset="0.45" stop-color="#939598"/><stop offset="0.65" stop-color="#606163"/><stop offset="1"/></radialGradient><radialGradient id="radial-gradient-4" cx="74.31" cy="85" r="41.12" gradientTransform="translate(81.87 -27.65) rotate(45)" gradientUnits="userSpaceOnUse"><stop offset="0" stop-color="#414042"/><stop offset="0.91"/></radialGradient><radialGradient id="radial-gradient-5" cx="150.6" cy="11.02" r="7.6" gradientUnits="userSpaceOnUse"><stop offset="0" stop-color="#231f20"/><stop offset="0.91"/></radialGradient><radialGradient id="radial-gradient-6" cx="165.8" cy="45.5" r="7.6" gradientTransform="translate(184.09 -125.45) rotate(80.76)" xlink:href="#radial-gradient-5"/><linearGradient id="linear-gradient" x1="190.87" y1="56.62" x2="24.54" y2="138.42" gradientUnits="userSpaceOnUse"><stop offset="0" stop-color="#fff"/><stop offset="0.05" stop-color="#e6e6e6"/><stop offset="0.19" stop-color="#a1a1a1"/><stop offset="0.33" stop-color="#686868"/><stop offset="0.45" stop-color="#3b3b3b"/><stop offset="0.56" stop-color="#1b1b1b"/><stop offset="0.65" stop-color="#070707"/><stop offset="0.71"/></linearGradient><radialGradient id="radial-gradient-7" cx="-271.59" cy="-8631.03" r="20.73" gradientTransform="translate(1588.74 1316.43) scale(5.34 0.15)" gradientUnits="userSpaceOnUse"><stop offset="0" stop-color="#6d6e71"/><stop offset="0.59"/></radialGradient><radialGradient id="radial-gradient-8" cx="-261.25" cy="-7553.67" r="20.73" gradientTransform="translate(-908.44 814.68) rotate(90) scale(2.88 0.15)" xlink:href="#radial-gradient-7"/><radialGradient id="radial-gradient-9" cx="187.11" cy="62.32" r="47.65" gradientTransform="translate(98.87 -114.05) rotate(45)" gradientUnits="userSpaceOnUse"><stop offset="0.31" stop-color="#6d6e71"/><stop offset="0.35" stop-color="#626366"/><stop offset="0.46" stop-color="#3f4041"/><stop offset="0.58" stop-color="#232425"/><stop offset="0.69" stop-color="#101010"/><stop offset="0.8" stop-color="#040404"/><stop offset="0.91"/></radialGradient><linearGradient id="linear-gradient-2" x1="125" y1="133" x2="125" y2="12.33" gradientUnits="userSpaceOnUse"><stop offset="0" stop-color="#64164c"/><stop offset="0.07" stop-color="#5a1648"/><stop offset="0.33" stop-color="#39183b"/><stop offset="0.58" stop-color="#211932"/><stop offset="0.81" stop-color="#131a2d"/><stop offset="1" stop-color="#0e1a2b"/></linearGradient><mask id="mask" x="30.9" y="18.2" width="24.14" height="24.14" maskUnits="userSpaceOnUse"><circle class="cls-1" cx="42.97" cy="30.26" r="12.07" transform="translate(11.18 72.12) rotate(-87.94)"/></mask><radialGradient id="radial-gradient-10" cx="42.97" cy="30.26" r="12.07" gradientUnits="userSpaceOnUse"><stop offset="0.58" stop-color="#1a152a"/><stop offset="0.63" stop-color="#1f1a2f"/><stop offset="0.68" stop-color="#2f2a3d"/><stop offset="0.74" stop-color="#484455"/><stop offset="0.81" stop-color="#6b6875"/><stop offset="0.87" stop-color="#98969f"/><stop offset="0.94" stop-color="#cfcdd2"/><stop offset="1" stop-color="#fff"/></radialGradient><mask id="mask-2" x="210.72" y="105.8" width="16.79" height="16.79" maskUnits="userSpaceOnUse"><path class="cls-2" d="M210.74,113.63a8.4,8.4,0,1,1,7.82,8.94A8.4,8.4,0,0,1,210.74,113.63Z"/></mask><radialGradient id="radial-gradient-11" cx="219.12" cy="114.19" r="8.4" gradientUnits="userSpaceOnUse"><stop offset="0.58" stop-color="#571646"/><stop offset="0.64" stop-color="#581b46"/><stop offset="0.71" stop-color="#5c2b44"/><stop offset="0.78" stop-color="#614542"/><stop offset="0.87" stop-color="#69693f"/><stop offset="0.95" stop-color="#73963b"/><stop offset="1" stop-color="#7ab439"/></radialGradient><mask id="mask-3" x="132.25" y="10.24" width="41.97" height="41.97" maskUnits="userSpaceOnUse"><circle class="cls-3" cx="153.23" cy="31.22" r="20.98" transform="translate(4.62 79.89) rotate(-29.65)"/></mask><mask id="mask-4" x="33.19" y="43.88" width="82.24" height="82.24" maskUnits="userSpaceOnUse"><circle class="cls-4" cx="74.31" cy="85" r="41.12" transform="translate(-38.34 77.44) rotate(-45)"/></mask><mask id="mask-5" x="142.99" y="3.42" width="15.2" height="15.2" maskUnits="userSpaceOnUse"><circle class="cls-5" cx="150.6" cy="11.02" r="7.6"/></mask><mask id="mask-6" x="158.2" y="37.9" width="15.2" height="15.2" maskUnits="userSpaceOnUse"><circle class="cls-6" cx="165.8" cy="45.5" r="7.6" transform="translate(94.26 201.85) rotate(-80.76)"/></mask><mask id="mask-7" x="7.74" y="45.16" width="185.68" height="112.02" maskUnits="userSpaceOnUse"><path class="cls-7" d="M193.11,61.86c-2.69-6.53-22.68-5-50.46,2.7a56,56,0,0,0-98.38,36.61c0,1.35.06,2.69.16,4C20.1,119,5.4,131.6,8,138s21.67,5.08,48.32-2.11a56,56,0,0,0,99.93-34.73,55.06,55.06,0,0,0-.33-6C180.75,81.18,195.78,68.34,193.11,61.86ZM152.18,80.1c-.48-1.17-1-2.33-1.53-3.45a2.56,2.56,0,0,1,2,1.26A2.51,2.51,0,0,1,152.18,80.1Z"/></mask><mask id="mask-8" x="26.33" y="60.2" width="221.67" height="6.02" maskUnits="userSpaceOnUse"><ellipse class="cls-8" cx="137.17" cy="63.21" rx="110.83" ry="3.01"/></mask><mask id="mask-9" x="185.34" y="3.56" width="6.02" height="119.29" maskUnits="userSpaceOnUse"><ellipse class="cls-9" cx="188.35" cy="63.21" rx="3.01" ry="59.65"/></mask><mask id="mask-10" x="139.46" y="14.68" width="95.29" height="95.29" maskUnits="userSpaceOnUse"><circle class="cls-10" cx="187.11" cy="62.32" r="47.65" transform="translate(10.73 150.56) rotate(-45)"/></mask></defs><g class="cls-11"><g id="圖層_2" data-name="圖層 2"><g id="Layer_1" data-name="Layer 1"><rect class="cls-12" width="250" height="160"/><g class="cls-13"><path class="cls-14" d="M77.18,36.15a.46.46,0,0,0,.4.38.46.46,0,0,0-.4.39.46.46,0,0,0-.4-.39A.46.46,0,0,0,77.18,36.15Z"/><path class="cls-14" d="M96.26,23.64a.45.45,0,0,0,.4.39.44.44,0,0,0-.4.38.44.44,0,0,0-.4-.38A.46.46,0,0,0,96.26,23.64Z"/><path class="cls-14" d="M99.32,47.12a.46.46,0,0,0,.4.39.44.44,0,0,0-.4.38.43.43,0,0,0-.39-.38A.45.45,0,0,0,99.32,47.12Z"/><path class="cls-14" d="M17.46,55.12a.46.46,0,0,0,.4.38.46.46,0,0,0-.4.39.46.46,0,0,0-.4-.39A.46.46,0,0,0,17.46,55.12Z"/><path class="cls-14" d="M4.42,75.08a.44.44,0,0,0,.4.38.46.46,0,0,0-.4.39.46.46,0,0,0-.4-.39A.44.44,0,0,0,4.42,75.08Z"/><path class="cls-14" d="M3.11,114.08a.39.39,0,1,1,0,.77.39.39,0,1,1,0-.77Z"/><path class="cls-14" d="M12.24,134.11a.39.39,0,1,1,0,.77.39.39,0,1,1,0-.77Z"/><path class="cls-14" d="M202.61,130.06a.46.46,0,0,0,.4.39.4.4,0,0,1-.8,0A.46.46,0,0,0,202.61,130.06Z"/><path class="cls-14" d="M119.56,24a.45.45,0,0,0,.4.38.45.45,0,0,0-.4.39.46.46,0,0,0-.4-.39A.46.46,0,0,0,119.56,24Z"/><path class="cls-14" d="M135.43,14a.46.46,0,0,0,.4.39.4.4,0,0,1-.8,0A.46.46,0,0,0,135.43,14Z"/><path class="cls-14" d="M191.49,15.43a.45.45,0,0,0,.39.39.43.43,0,0,0-.39.38.44.44,0,0,0-.4-.38A.46.46,0,0,0,191.49,15.43Z"/><path class="cls-14" d="M178.35,37.61a.46.46,0,0,0,.4.39.4.4,0,0,1-.8,0A.46.46,0,0,0,178.35,37.61Z"/><path class="cls-14" d="M166.46,54.73a.46.46,0,0,0,.4.39.4.4,0,0,1-.8,0A.46.46,0,0,0,166.46,54.73Z"/><path class="cls-14" d="M217.1,72.17a.46.46,0,0,0,.4.38.46.46,0,0,0-.4.39.45.45,0,0,0-.4-.39A.45.45,0,0,0,217.1,72.17Z"/><path class="cls-14" d="M160.41,98.42a.39.39,0,1,1,0,.77.39.39,0,1,1,0-.77Z"/><path class="cls-14" d="M42.16,109a.39.39,0,1,1,0,.77.39.39,0,1,1,0-.77Z"/><path class="cls-14" d="M17.06,98a.44.44,0,0,0,.4.38.46.46,0,0,0-.4.39.46.46,0,0,0-.4-.39A.44.44,0,0,0,17.06,98Z"/><path class="cls-14" d="M28,93.68a.44.44,0,0,0,.4.38.46.46,0,0,0-.4.39.46.46,0,0,0-.4-.39A.44.44,0,0,0,28,93.68Z"/><path class="cls-14" d="M38,85.7a.46.46,0,0,0,.4.39.46.46,0,0,0-.4.39.46.46,0,0,0-.4-.39A.46.46,0,0,0,38,85.7Z"/><path class="cls-14" d="M29.7,81.13a.46.46,0,0,0,.4.39.44.44,0,0,0-.4.38.44.44,0,0,0-.4-.38A.45.45,0,0,0,29.7,81.13Z"/><path class="cls-14" d="M19.48,116.51a.46.46,0,0,0,.4.39.44.44,0,0,0-.4.38.44.44,0,0,0-.4-.38A.46.46,0,0,0,19.48,116.51Z"/><path class="cls-14" d="M178,38.86a.44.44,0,0,0,.4.38.4.4,0,0,1-.8,0A.44.44,0,0,0,178,38.86Z"/><path class="cls-14" d="M188.81,47.91a.45.45,0,0,0,.4.39.45.45,0,0,0-.4.39.46.46,0,0,0-.4-.39A.46.46,0,0,0,188.81,47.91Z"/><path class="cls-14" d="M203,40.63a.44.44,0,0,0,.4.38.4.4,0,0,1-.8,0A.44.44,0,0,0,203,40.63Z"/><path class="cls-14" d="M214.17,32.58a.46.46,0,0,0,.4.39.4.4,0,0,1-.8,0A.46.46,0,0,0,214.17,32.58Z"/><path class="cls-14" d="M222.66,23.25a.46.46,0,0,0,.4.39.4.4,0,0,1-.8,0A.46.46,0,0,0,222.66,23.25Z"/><path class="cls-14" d="M228.68,29.51a.44.44,0,0,0,.4.38.4.4,0,0,1-.8,0A.44.44,0,0,0,228.68,29.51Z"/><path class="cls-14" d="M206.77,47.51a.73.73,0,0,0,.65.63.75.75,0,0,0-.65.64.76.76,0,0,0-.66-.64A.74.74,0,0,0,206.77,47.51Z"/><path class="cls-14" d="M191.09,87.16a.73.73,0,0,0,.65.63.75.75,0,0,0-.65.64.76.76,0,0,0-.66-.64A.74.74,0,0,0,191.09,87.16Z"/><path class="cls-14" d="M121.44,32a.74.74,0,0,0,.66.63.76.76,0,0,0-.66.64.75.75,0,0,0-.65-.64A.73.73,0,0,0,121.44,32Z"/><path class="cls-14" d="M84,41a.76.76,0,0,0,.66.64.76.76,0,0,0-.66.64.76.76,0,0,0-.66-.64A.76.76,0,0,0,84,41Z"/><path class="cls-14" d="M46.6,18.31a.74.74,0,0,0,.66.63.76.76,0,0,0-.66.64.75.75,0,0,0-.66-.64A.74.74,0,0,0,46.6,18.31Z"/><path class="cls-14" d="M29.3,68.62a.76.76,0,0,0,.66.64.74.74,0,0,0-.66.63.73.73,0,0,0-.65-.63A.75.75,0,0,0,29.3,68.62Z"/><path class="cls-14" d="M62.13,75.46a.76.76,0,0,0,.66.64.76.76,0,0,0-.66.64.76.76,0,0,0-.66-.64A.76.76,0,0,0,62.13,75.46Z"/><path class="cls-14" d="M209,100.26a1.5,1.5,0,0,0,1.32,1.27A1.5,1.5,0,0,0,209,102.8a1.5,1.5,0,0,0-1.32-1.27A1.5,1.5,0,0,0,209,100.26Z"/><path class="cls-14" d="M238.32,49.82a1.5,1.5,0,0,0,1.32,1.27,1.5,1.5,0,0,0-1.32,1.28A1.5,1.5,0,0,0,237,51.09,1.5,1.5,0,0,0,238.32,49.82Z"/><path class="cls-14" d="M131.21,49.82a1.5,1.5,0,0,0,1.32,1.27,1.5,1.5,0,0,0-1.32,1.28,1.51,1.51,0,0,0-1.33-1.28A1.51,1.51,0,0,0,131.21,49.82Z"/><path class="cls-14" d="M21.69,13.4A1.5,1.5,0,0,0,23,14.68,1.5,1.5,0,0,0,21.69,16a1.5,1.5,0,0,0-1.32-1.27A1.51,1.51,0,0,0,21.69,13.4Z"/><path class="cls-14" d="M100.65,4.32A1.5,1.5,0,0,0,102,5.59a1.5,1.5,0,0,0-1.32,1.28,1.51,1.51,0,0,0-1.33-1.28A1.51,1.51,0,0,0,100.65,4.32Z"/><path class="cls-14" d="M210.65,9.29A1.5,1.5,0,0,0,212,10.57a1.5,1.5,0,0,0-1.32,1.27,1.5,1.5,0,0,0-1.32-1.27A1.5,1.5,0,0,0,210.65,9.29Z"/><path class="cls-15" d="M239.6,4.32a1.5,1.5,0,0,0,1.32,1.27,1.5,1.5,0,0,0-1.32,1.28,1.5,1.5,0,0,0-1.32-1.28A1.5,1.5,0,0,0,239.6,4.32Z"/><path class="cls-15" d="M143.93,46.64a1.5,1.5,0,0,0,1.32,1.27,1.51,1.51,0,0,0-1.32,1.28,1.51,1.51,0,0,0-1.32-1.28A1.5,1.5,0,0,0,143.93,46.64Z"/><path class="cls-15" d="M64.11,19.58a1.5,1.5,0,0,0,1.32,1.27,1.5,1.5,0,0,0-1.32,1.28,1.5,1.5,0,0,0-1.32-1.28A1.5,1.5,0,0,0,64.11,19.58Z"/><path class="cls-15" d="M47.26,73.8a1.5,1.5,0,0,0,1.32,1.28,1.5,1.5,0,0,0-1.32,1.27,1.5,1.5,0,0,0-1.32-1.27A1.5,1.5,0,0,0,47.26,73.8Z"/><path class="cls-15" d="M11.36,87.79a1.5,1.5,0,0,0,1.32,1.28,1.5,1.5,0,0,0-1.32,1.27A1.51,1.51,0,0,0,10,89.07,1.51,1.51,0,0,0,11.36,87.79Z"/><path class="cls-15" d="M189.21,111.21a1.51,1.51,0,0,0,1.32,1.28,1.5,1.5,0,0,0-1.32,1.27,1.51,1.51,0,0,0-1.33-1.27A1.53,1.53,0,0,0,189.21,111.21Z"/><path class="cls-15" d="M232.43,67.34a1.5,1.5,0,0,0,1.32,1.28,1.5,1.5,0,0,0-1.32,1.27,1.5,1.5,0,0,0-1.32-1.27A1.5,1.5,0,0,0,232.43,67.34Z"/><path class="cls-14" d="M171.9,121.35a1.5,1.5,0,0,0,1.32,1.27,1.5,1.5,0,0,0-1.32,1.28,1.5,1.5,0,0,0-1.32-1.28A1.5,1.5,0,0,0,171.9,121.35Z"/><path class="cls-14" d="M39.57,122a1.5,1.5,0,0,0,1.32,1.27,1.51,1.51,0,0,0-1.32,1.28,1.5,1.5,0,0,0-1.32-1.28A1.5,1.5,0,0,0,39.57,122Z"/><path class="cls-14" d="M62.79,51.09a1.51,1.51,0,0,0,1.32,1.28,1.5,1.5,0,0,0-1.32,1.27,1.5,1.5,0,0,0-1.32-1.27A1.51,1.51,0,0,0,62.79,51.09Z"/><path class="cls-14" d="M7.42,28.77a.69.69,0,0,0,.61.59.69.69,0,0,0-.61.59.69.69,0,0,0-.61-.59A.69.69,0,0,0,7.42,28.77Z"/><path class="cls-14" d="M38.44,3a.69.69,0,0,0,.61.59.69.69,0,0,0-.61.59.69.69,0,0,0-.61-.59A.69.69,0,0,0,38.44,3Z"/><path class="cls-14" d="M236.4,5.59a.71.71,0,0,0,.61.6.69.69,0,0,0-.61.59.7.7,0,0,0-.62-.59A.72.72,0,0,0,236.4,5.59Z"/><path class="cls-14" d="M7.42,6.87A.69.69,0,0,0,8,7.46a.69.69,0,0,0-.61.59.69.69,0,0,0-.61-.59A.69.69,0,0,0,7.42,6.87Z"/><path class="cls-14" d="M240.92,68a.69.69,0,0,0,.61.59.61.61,0,0,1-1.22,0A.69.69,0,0,0,240.92,68Z"/><path class="cls-14" d="M84,54.52a.72.72,0,0,0,.62.6.7.7,0,0,0-.62.59.69.69,0,0,0-.61-.59A.71.71,0,0,0,84,54.52Z"/><path class="cls-14" d="M44.86,47.71a.69.69,0,0,0,.61.59.69.69,0,0,0-.61.59.69.69,0,0,0-.61-.59A.69.69,0,0,0,44.86,47.71Z"/><path class="cls-14" d="M179.53,5a.7.7,0,0,0,.62.59.7.7,0,0,0-.62.6.69.69,0,0,0-.61-.6A.69.69,0,0,0,179.53,5Z"/><path class="cls-14" d="M236.4,108.43a.69.69,0,0,0,.61.59.69.69,0,0,0-.61.6.7.7,0,0,0-.62-.6A.7.7,0,0,0,236.4,108.43Z"/><path class="cls-14" d="M246.67,122.72a.7.7,0,0,0,.62.59.7.7,0,0,0-.62.59.69.69,0,0,0-.61-.59A.69.69,0,0,0,246.67,122.72Z"/><path class="cls-14" d="M223.62,114.46a.76.76,0,0,0,.66.64.74.74,0,0,0-.66.63.74.74,0,0,0-.66-.63A.75.75,0,0,0,223.62,114.46Z"/><path class="cls-14" d="M237.66,87.79a.76.76,0,0,0,.66.64.76.76,0,0,0-.66.64.75.75,0,0,0-.66-.64A.75.75,0,0,0,237.66,87.79Z"/><path class="cls-14" d="M148.16,121.35a.76.76,0,0,0,.66.64.66.66,0,0,1-1.32,0A.76.76,0,0,0,148.16,121.35Z"/><path class="cls-14" d="M16.66,40.38a.74.74,0,0,0,.66.63.76.76,0,0,0-.66.64A.75.75,0,0,0,16,41,.74.74,0,0,0,16.66,40.38Z"/><path class="cls-14" d="M74,13.4a.75.75,0,0,0,.66.64.76.76,0,0,0-.66.64.75.75,0,0,0-.66-.64A.74.74,0,0,0,74,13.4Z"/><path class="cls-14" d="M236.4,25.65a.44.44,0,0,0,.4.38.4.4,0,0,1-.8,0A.44.44,0,0,0,236.4,25.65Z"/></g><g class="cls-16"><circle class="cls-17" cx="42.97" cy="30.26" r="12.07"/></g><g class="cls-18"><circle class="cls-19" cx="219.12" cy="114.19" r="8.4"/></g><g class="cls-20"><circle class="cls-21" cx="153.23" cy="31.22" r="20.98" transform="translate(4.56 79.71) rotate(-29.58)"/><path class="cls-22" d="M133,25.79a21,21,0,0,0,14.83,25.7,21.34,21.34,0,0,0,5.89.71h0s-7.45-1.48-6.68-5.54-.44-6.62,3-7.08,4.15,0,5.21-2.76,3.05-5,6.41-3.49,7.64-1.74,7.63,2.18c0,2.36,1.73,3.85,2.48,5.68a21.22,21.22,0,0,0,1.81-4.53A21,21,0,0,0,133,25.79Z"/><path class="cls-23" d="M144.49,50.29c-.52-1.77-2.83-10.22-.21-12.58,2.94-2.64,1.12-6.09,6.58-7.26s.44-4.06,6.71-2.55,2.16-3,8.23-.71c3.29,1.26,6,2.11,8.39,3a21,21,0,1,0-29.7,20.13Z"/><path class="cls-24" d="M169.84,44c-1.46-1.6-4.36-2.56-4.83-1.34-.78,2.07-2.94-.1-2.22-3.22s-3.4-1.37-4.11,3.21-1.74,2-3.9-1-3.09,1.72-3.82,3.58S152.08,47,155.23,48s.37,4,.36,4A21,21,0,0,0,169.84,44Z"/></g><g class="cls-25"><circle class="cls-26" cx="74.31" cy="85" r="41.12" transform="translate(-38.34 77.44) rotate(-45)"/></g><g class="cls-27"><circle class="cls-23" cx="150.6" cy="11.02" r="7.6"/></g><g class="cls-28"><circle class="cls-23" cx="165.8" cy="45.5" r="7.6" transform="translate(94.26 201.85) rotate(-80.76)"/></g><g class="cls-29"><circle class="cls-30" cx="100.28" cy="101.17" r="42.29" transform="translate(-41.4 115.89) rotate(-51.18)"/><path class="cls-31" d="M59.53,112.49c26.39-4.43,45.09-13,57.12-20.49a107.69,107.69,0,0,0,18.7-14.47A42.69,42.69,0,0,0,131,72.15a100.5,100.5,0,0,1-18.37,14.27c-11.45,7-29.25,15.16-54.44,19.35A42,42,0,0,0,59.53,112.49Z"/><path class="cls-31" d="M112.41,60.65a60.31,60.31,0,0,1-10.08,7.84C94.44,73.43,81.72,79.08,63,81.21a42.33,42.33,0,0,0-2.45,5.54c21.58-2,36.09-8.41,44.93-14a63.55,63.55,0,0,0,12.35-10.05A43.52,43.52,0,0,0,112.41,60.65Z"/><path class="cls-31" d="M141.39,111.12a43.48,43.48,0,0,0,1.17-8.46c-7.82,12.29-29.23,37.62-69.81,30.61a42.3,42.3,0,0,0,68.64-22.15Z"/><path class="cls-32" d="M116.46,62.11a42.3,42.3,0,0,1-38.27,72.54,42.79,42.79,0,0,1-6.37-2.09,42.3,42.3,0,1,0,44.64-70.45Z"/><ellipse class="cls-33" cx="94.2" cy="97.12" rx="32.63" ry="25.88" transform="matrix(0.54, -0.84, 0.84, 0.54, -38.49, 123.54)"/><path class="cls-34" d="M193.11,61.86c-3.15-7.65-30-4.24-65.32,7.17a41,41,0,0,1,3.36,3.23q.6.63,1.17,1.29c.62.73,1.22,1.47,1.79,2.23s1.16,1.61,1.7,2.45c9.58-2.23,15.92-2.52,16.83-.32S149,84.22,140.86,89.24C132.18,94.63,119.39,101,104.77,107c-16.63,6.83-31.93,11.64-42.07,13.54-7.11,1.33-11.69,1.23-12.45-.61s2.56-5.26,8.78-9.41c-.19-.86-.36-1.73-.5-2.61-.22-1.3-.37-2.62-.46-3.94,0-.58-.07-1.16-.08-1.74a43.67,43.67,0,0,1,.13-4.42C25.8,114.33,4.94,130.47,8,138s28.8,4.4,62.89-6.38C82.52,128,95.07,123.4,108,118.07c12.42-5.11,24.06-10.47,34.53-15.79C175.17,85.71,196.24,69.44,193.11,61.86Z"/><path class="cls-35" d="M161.75,74c-1.41-3.4-12.17-2.45-27.64,1.79.6.8,1.16,1.61,1.7,2.45,9.58-2.23,15.92-2.52,16.83-.32S149,84.22,140.86,89.24C132.18,94.63,119.39,101,104.77,107c-16.63,6.83-31.93,11.64-42.07,13.54-7.11,1.33-11.69,1.23-12.45-.61s2.56-5.26,8.78-9.41c-.19-.86-.36-1.73-.5-2.61-11.87,7.19-18.7,13.33-17.4,16.45s10.22,2.58,23.36-.68a297.52,297.52,0,0,0,41.28-14.15,315.6,315.6,0,0,0,35.82-17.47C155.15,84.18,163.16,77.34,161.75,74Z"/><path class="cls-36" d="M183.08,66.44c-2.11-5.21-16.72-3.16-28.6-.53-7,1.56-14.91,3.71-23.33,6.35q.6.63,1.17,1.29c8.11-2.53,15.7-4.59,22.5-6.1,13.87-3.07,20.58-3,23.84-2.23,2.13.51,2.77,1.34,3,1.82.48,1.19.51,6-19.5,18.39-5.77,3.57-12.45,7.28-19.8,11-10.76,5.48-23,11-35.81,16.24C92.6,118.34,79,123.18,66.7,126.88c-6.82,2.06-13.23,3.76-19.06,5.05-23,5.08-26.32,1.6-26.8.41s-.51-6,19.49-18.39c5.23-3.23,11.21-6.58,17.74-10,0-.58-.07-1.16-.08-1.74-6.82,3.51-13.05,7-18.48,10.36C29.15,119,17.26,127.72,19.37,132.94c.56,1.37,2,2.24,4,2.72C29,137,39.23,135.41,48,133.47c6-1.33,12.69-3.11,19.78-5.26,12.18-3.69,25.62-8.48,39.34-14.05,12.68-5.15,24.71-10.61,35.38-16,7.6-3.85,14.51-7.69,20.47-11.37C173.31,80.38,185.2,71.66,183.08,66.44Z"/></g><g class="cls-37"><ellipse class="cls-34" cx="137.17" cy="63.21" rx="110.83" ry="3.01"/></g><g class="cls-38"><ellipse class="cls-34" cx="188.35" cy="63.21" rx="3.01" ry="59.65"/></g><g class="cls-39"><circle class="cls-34" cx="187.11" cy="62.32" r="47.65" transform="translate(10.73 150.56) rotate(-45)"/></g><polygon class="cls-40" points="249.93 148.84 249.93 160 0 160 0 133.63 0.1 133.58 30.49 133.58 36.11 134.75 46.42 133.58 55.51 134.83 68.27 136.59 54.31 138.59 124.28 138.59 116.97 136.09 141.96 136.09 159.63 140.94 175.45 136.09 192.69 139.4 211.15 142.94 202.41 145.95 233.93 145.95 249.93 148.84"/><g class="cls-41"><polygon class="cls-42" points="249.93 155.21 218.28 156.66 208.8 157.8 205.1 160 249.93 160 249.93 155.21"/><path class="cls-42" d="M165.46,155.6l25.42-5.86h-17.3L144,154H117.62l-55.32.89,25.18-6,18.72-4.4H84.54l-24.76-1.51S36,144.62,33.49,144.45,14.83,146,14.83,146L0,144.7V160H161.08Z"/></g><polygon class="cls-43" points="68.27 136.59 68.27 138.59 54.31 138.59 68.27 136.59"/><polygon class="cls-43" points="124.28 138.59 116.97 138.59 116.97 136.09 124.28 138.59"/><polygon class="cls-43" points="211.15 142.94 211.15 145.95 202.41 145.95 211.15 142.94"/><polygon class="cls-44" points="175.45 136.09 162.95 145.95 132 150.3 59.78 156.66 104.18 148.84 152 142.94 141.96 136.09 159.63 140.94 175.45 136.09"/><polygon class="cls-44" points="46.42 133.58 37.99 136.09 22.99 139.77 3.75 139.77 21.99 137.59 32.49 134.92 30.49 133.58 36.11 134.75 46.42 133.58"/><polygon class="cls-44" points="0 160 0 151.14 10.25 151.14 29.49 147.96 46.42 147.96 68.27 148.85 42.99 149.63 25.08 150.47 14.75 153.98 0 160"/><polygon class="cls-44" points="159.62 160 171.95 156.66 187.28 155.09 203.94 150.86 224.94 149.74 239.6 150.86 224.27 151.53 205.28 153.98 194.94 156.66 183.62 157.99 193.95 160 159.62 160"/><polygon class="cls-43" points="170.14 137.71 159.63 140.94 151.87 138.81 156.79 142.94 153.29 144.45 111.47 149.74 126.8 149.74 140.63 147.96 159.62 144.95 166.95 139.77 170.14 137.71"/><polygon class="cls-43" points="36.11 134.75 33.51 134.21 33.51 134.21 34.13 135.17 29.49 136.59 23.56 138.22 32.55 136.67 35.62 135.79 42.12 134.07 36.11 134.75"/><polygon class="cls-43" points="11.58 152.98 5.5 153.2 0 154.25 0 157.44 3.25 156.66 11 154.43 17.58 151.03 11.58 152.98"/><path class="cls-43" d="M174.37,157.44l-4.23,1.39L167.53,160h16.2c-2.46-.95-5.7-2.23-5.7-2.23l5.67-.89L193,155.6l-11.58.78Z"/><path class="cls-43" d="M40.73,139.83s4.71-1.71,6.44-1.15a24,24,0,0,0,5.46,1.59c2.44.3,0,1.45-3.69,1s-2.75.44-6.85.4-10,.5-7.22-.87S37.58,140.76,40.73,139.83Z"/><path class="cls-44" d="M47.11,139.56c-1.74-.55-6.44,1.15-6.44,1.15-3.14.92-3.06-.33-5.83,1,1.41.18,4.68,0,7.25,0,4.1,0,3.14-.79,6.85-.4a11.29,11.29,0,0,0,3.75-.15l-.13,0A23.89,23.89,0,0,1,47.11,139.56Z"/><path class="cls-43" d="M18,157.09s4.71-1.7,6.44-1.15a24,24,0,0,0,5.45,1.59c2.45.3,0,1.46-3.68,1.06s-2.75.44-6.85.4-10,.49-7.22-.87S14.8,158,18,157.09Z"/><path class="cls-44" d="M24.33,156.83c-1.74-.56-6.44,1.15-6.44,1.15-3.14.92-3.06-.33-5.83,1,1.41.18,4.68,0,7.25,0,4.1,0,3.14-.8,6.85-.4a11.57,11.57,0,0,0,3.75-.15l-.13,0A24.44,24.44,0,0,1,24.33,156.83Z"/><path class="cls-43" d="M125.26,141.44s4.7-1.7,6.43-1.15a24.14,24.14,0,0,0,5.46,1.59c2.44.3,0,1.46-3.69,1.06s-2.74.44-6.85.4-10,.49-7.22-.87S122.1,142.37,125.26,141.44Z"/><path class="cls-44" d="M131.63,141.18c-1.73-.56-6.44,1.15-6.44,1.15-3.14.92-3.06-.33-5.83,1,1.41.18,4.68,0,7.25,0,4.11,0,3.14-.8,6.85-.4a11.65,11.65,0,0,0,3.76-.15l-.14,0A24.44,24.44,0,0,1,131.63,141.18Z"/><path class="cls-43" d="M175.48,146.44s4.7-1.71,6.44-1.15a25,25,0,0,0,5.45,1.59c2.44.3,0,1.45-3.69,1.05s-2.74.44-6.85.4-10,.5-7.22-.87S172.33,147.36,175.48,146.44Z"/><path class="cls-44" d="M181.85,146.17c-1.73-.56-6.44,1.15-6.44,1.15-3.13.92-3.06-.33-5.83,1,1.41.18,4.69,0,7.25,0,4.11,0,3.14-.8,6.85-.4a11.37,11.37,0,0,0,3.76-.15l-.14,0A23.89,23.89,0,0,1,181.85,146.17Z"/><polygon class="cls-43" points="28.66 111.06 20.6 124.49 21.1 132.72 27.95 142.04 34.13 130.94 33.38 120.52 28.66 111.06"/><polygon class="cls-45" points="34.13 130.94 33.38 120.52 28.66 111.06 27.37 120.38 28.91 127.54 27.95 142.04 34.13 130.94"/><polygon class="cls-46" points="34.13 130.94 32.33 127.1 30.75 122.3 30.75 117.5 29.62 122.71 29.92 127.1 31.16 131.76 30.59 137.29 34.13 130.94"/><polygon class="cls-47" points="21.1 132.72 23.19 129.97 23.97 126.55 24.8 130.66 23.54 133.4 24.8 137.75 21.1 132.72"/><polygon class="cls-43" points="181.5 122.59 179 126.76 179.16 129.31 181.28 132.2 183.21 128.76 182.97 125.53 181.5 122.59"/><polygon class="cls-45" points="183.21 128.76 182.97 125.53 181.5 122.59 181.1 125.48 181.58 127.7 181.28 132.2 183.21 128.76"/><polygon class="cls-46" points="183.21 128.76 182.64 127.57 182.16 126.08 182.16 124.59 181.8 126.21 181.9 127.57 182.28 129.01 182.11 130.73 183.21 128.76"/><polygon class="cls-47" points="179.16 129.31 179.81 128.46 180.05 127.4 180.31 128.67 179.92 129.52 180.31 130.87 179.16 129.31"/><polygon class="cls-48" points="188.39 134.22 194 131.91 207.54 133.06 197.23 134.88 188.39 134.22"/><polygon class="cls-43" points="197.23 134.88 188.39 134.22 189.59 138.95 194.84 145.75 197.67 154.3 201.85 143.35 206.06 138.47 207.54 133.06 197.23 134.88"/><polygon class="cls-47" points="194.84 145.75 194.97 142.51 194.48 139.77 195.2 136.78 192.95 138.34 192.68 141.41 192.78 143.07 194.84 145.75"/><polygon class="cls-45" points="206.06 138.47 207.54 133.06 197.23 134.88 198.28 138.88 198.12 142.95 197.17 148.84 197.67 154.3 201.85 143.35 206.06 138.47"/><polygon class="cls-46" points="201.85 143.35 202.52 137.77 203.79 135.18 203.95 137.74 203.92 140.95 201.85 143.35"/><polygon class="cls-33" points="198.27 132.27 194 131.91 188.39 134.22 188.82 134.25 193.17 133.54 196.79 133.71 199.95 133.13 198.27 132.27"/><g class="cls-41"><path class="cls-42" d="M95.85,143.9a5.45,5.45,0,0,1-1.34.57c-.71.19-4.77.68-7-.23-1.94-.81.21-.85,1.37-1.09a10.67,10.67,0,0,1,3.48.38Z"/></g><path class="cls-45" d="M95.85,143.9a19.37,19.37,0,0,1-5.59.65c-2.14-.2-2.64-1.05-2.64-1.05a4.88,4.88,0,0,1,2.22-1.31,17.57,17.57,0,0,0,4.16.15A3.54,3.54,0,0,1,95.85,143.9Z"/><path class="cls-49" d="M94,142.34a17.57,17.57,0,0,1-4.16-.15,7.8,7.8,0,0,1,2.65-.1C94.13,142.21,94,142.34,94,142.34Z"/><path class="cls-49" d="M94.09,142.37c.47.42,1.28,1.24.93,1.78a5.81,5.81,0,0,0,.83-.25A3.65,3.65,0,0,0,94.09,142.37Z"/><path class="cls-49" d="M91.36,142.21c1.31.08,1.64,0,1.69-.07l-.56,0a11.17,11.17,0,0,0-2.13,0C90.64,142.14,91,142.18,91.36,142.21Z"/><path class="cls-43" d="M94.51,144.25c-1.71.3-4.69,0-5.35-.74-.42-.49,0-.93.29-1.19a4,4,0,0,0-1.83,1.18s.5.85,2.64,1.05A24,24,0,0,0,94.51,144.25Z"/><g class="cls-41"><path class="cls-42" d="M159.74,152.32a15.33,15.33,0,0,1-3.54,1.51c-1.87.48-12.52,1.78-18.33-.62-5.1-2.11.56-2.22,3.59-2.86s9.14,1,9.14,1Z"/></g><path class="cls-45" d="M159.74,152.32c-5.19,2-14.7,1.7-14.7,1.7-5.61-.51-6.92-2.75-6.92-2.75,1.4-2.16,5.81-3.45,5.81-3.45,4.18,1,10.93.41,10.93.41A9.33,9.33,0,0,1,159.74,152.32Z"/><path class="cls-49" d="M154.86,148.23s-6.75.54-10.93-.41c0,0,2.09-.64,7-.26C155.22,147.89,154.86,148.23,154.86,148.23Z"/><path class="cls-49" d="M155.1,148.31c1.24,1.08,3.36,3.24,2.46,4.66a17.51,17.51,0,0,0,2.18-.65A9.52,9.52,0,0,0,155.1,148.31Z"/><path class="cls-49" d="M147.94,147.87c3.43.23,4.31,0,4.42-.18-.41-.05-.9-.09-1.47-.13a28.74,28.74,0,0,0-5.57,0C146,147.7,146.9,147.8,147.94,147.87Z"/><path class="cls-43" d="M156.22,153.25c-4.51.79-12.32.08-14.07-1.95-1.09-1.28-.13-2.43.75-3.13-1.39.52-3.81,1.6-4.78,3.1,0,0,1.31,2.24,6.92,2.75A64,64,0,0,0,156.22,153.25Z"/><g class="cls-41"><path class="cls-42" d="M96.3,159.17h0c-.09,0-.63.37-1.49.82H39.14c-4.79-2.65-.82-3.67,4.35-4.5h0c2.5-.4,5.26-.75,7.47-1.22l.55-.1c7.68-1.29,22.13,2.56,22.13,2.56l17.78,1.91Z"/></g><path class="cls-45" d="M96.3,159.17h0l-1,.34-.74.24c-.25.09-.51.17-.77.24H46.93c-3.25-1.74-4.24-3.44-4.24-3.44l.35-.51c.1-.12.19-.24.3-.36l.15-.19h0a13.72,13.72,0,0,1,1.64-1.58l.3-.24a22.83,22.83,0,0,1,2-1.37c.55-.34,1.11-.67,1.67-1l.85-.44c.63-.32,1.26-.62,1.86-.89l.61-.26c.37-.16.72-.31,1.06-.44l1.11-.43c1.52-.57,2.54-.87,2.54-.87,10.36,2.36,27.1,1,27.1,1a19.43,19.43,0,0,1,8.35,5.28l.21.22c.2.2.39.41.56.61l.35.4.34.4.31.38.29.37c.56.72,1,1.34,1.26,1.78l.13.21C96.2,159,96.3,159.17,96.3,159.17Z"/><path class="cls-49" d="M84.21,149s-16.75,1.35-27.1-1c0,0,5.19-1.6,17.26-.66C85.1,148.17,84.21,149,84.21,149Z"/><path class="cls-49" d="M96.3,159.17h0l-1,.34-.74.24c-.25.09-.51.17-.77.24H91.27a3.61,3.61,0,0,0,.16-1.35c-.17-3.29-4.13-7.24-6.62-9.42a20.11,20.11,0,0,1,7.74,5.07l.21.22.56.61.35.4.34.4.31.38.29.37c.56.72,1,1.34,1.26,1.78l.13.21C96.2,159,96.3,159.17,96.3,159.17Z"/><path class="cls-49" d="M67.06,148.13c8.5.57,10.69.09,11-.46-1-.11-2.24-.21-3.65-.32a72.57,72.57,0,0,0-13.83.05C62.34,147.7,64.48,148,67.06,148.13Z"/><path class="cls-43" d="M59.08,160H46.93c-3.25-1.74-4.24-3.44-4.24-3.44l.35-.51c.1-.12.19-.24.3-.36l.15-.19h0a13.72,13.72,0,0,1,1.64-1.58l.3-.24a22.83,22.83,0,0,1,2-1.37c.55-.34,1.11-.67,1.67-1l.85-.44c.63-.32,1.26-.62,1.86-.89l.61-.26c.37-.16.72-.31,1.06-.44l1.11-.43c-1.61,1.25-3.32,3.13-3,5.3a4.54,4.54,0,0,0,1.18,2.45C53.88,158,56.16,159.12,59.08,160Z"/></g></g></g></svg>