<svg xmlns="http://www.w3.org/2000/svg" xmlns:xlink="http://www.w3.org/1999/xlink" viewBox="0 0 250 160"><defs><style>.cls-1{fill:url(#radial-gradient);}.cls-2{fill:url(#radial-gradient-2);}.cls-3{fill:url(#radial-gradient-3);}.cls-4{fill:url(#radial-gradient-4);}.cls-5{fill:url(#radial-gradient-5);}.cls-6{fill:url(#radial-gradient-6);}.cls-7{fill:url(#radial-gradient-7);}.cls-8{fill:url(#radial-gradient-8);}.cls-9{fill:url(#radial-gradient-9);}.cls-10{fill:url(#radial-gradient-10);}.cls-11{fill:url(#radial-gradient-11);}.cls-12{fill:url(#radial-gradient-12);}.cls-13{fill:url(#radial-gradient-13);}.cls-14{fill:url(#radial-gradient-14);}.cls-15{fill:url(#radial-gradient-15);}.cls-16{fill:url(#radial-gradient-16);}.cls-17{fill:url(#radial-gradient-17);}.cls-18{fill:url(#radial-gradient-18);}.cls-19{fill:url(#radial-gradient-19);}.cls-20{isolation:isolate;}.cls-21{fill:url(#linear-gradient);}.cls-22{mix-blend-mode:screen;}.cls-23{fill:#414042;}.cls-24{mask:url(#mask);}.cls-25{fill:#6d6e71;}.cls-26{fill:#808285;}.cls-27{fill:#555457;}.cls-28{mask:url(#mask-2);}.cls-29{fill:#b4619e;}.cls-30{fill:#fff;}.cls-31{mask:url(#mask-3);}.cls-32{mask:url(#mask-4);}.cls-33{mask:url(#mask-5);}.cls-34{mask:url(#mask-6);}.cls-35{mask:url(#mask-7);}.cls-36{mask:url(#mask-8);}.cls-37{mask:url(#mask-9);}.cls-38{mask:url(#mask-10);}.cls-39{mask:url(#mask-11);}.cls-40{mask:url(#mask-12);}.cls-41{mask:url(#mask-13);}.cls-42{mask:url(#mask-14);}.cls-43{mask:url(#mask-15);}.cls-44{mask:url(#mask-16);}.cls-45{mask:url(#mask-17);}.cls-46{mask:url(#mask-18);}.cls-47{mask:url(#mask-19);}.cls-48{fill:#61398f;}.cls-49{fill:#693e9a;}.cls-50{fill:#5c3687;}.cls-51{fill:#5e378a;}.cls-52{fill:#55327d;}.cls-53{fill:#422761;}.cls-54{fill:#492b6b;}.cls-55{fill:#f1f2f2;}.cls-55,.cls-59{mix-blend-mode:multiply;}.cls-56{fill:#40265e;}.cls-57{fill:#36204f;}.cls-58{fill:#4b2c6e;}.cls-60{fill:#e6e7e8;}</style><radialGradient id="radial-gradient" cx="273.59" cy="-119.4" r="94.59" gradientTransform="matrix(-0.5, -0.87, 0.87, -0.5, 393.56, 271.63)" gradientUnits="userSpaceOnUse"><stop offset="0.48" stop-color="#bcbec0"/><stop offset="0.64" stop-color="#88898b"/><stop offset="0.98" stop-color="#060606"/><stop offset="1"/></radialGradient><radialGradient id="radial-gradient-2" cx="169.12" cy="40.88" r="12.48" gradientUnits="userSpaceOnUse"><stop offset="0" stop-color="#414042"/><stop offset="0.77" stop-color="#020202"/><stop offset="0.99"/></radialGradient><radialGradient id="radial-gradient-3" cx="139.43" cy="99.42" r="6.61" xlink:href="#radial-gradient-2"/><radialGradient id="radial-gradient-4" cx="-227.71" cy="-8002.61" r="1.6" gradientTransform="translate(-219.29 1384.51) rotate(45) scale(2.88 0.15)" gradientUnits="userSpaceOnUse"><stop offset="0" stop-color="#6d6e71"/><stop offset="0.59"/></radialGradient><radialGradient id="radial-gradient-5" cx="-229.44" cy="-7994.1" r="1.6" gradientTransform="translate(-1148.23 -254.83) rotate(135) scale(2.88 0.15)" xlink:href="#radial-gradient-4"/><radialGradient id="radial-gradient-6" cx="102.33" cy="10.94" r="6.61" xlink:href="#radial-gradient-2"/><radialGradient id="radial-gradient-7" cx="-258.58" cy="-8252.78" r="1.6" xlink:href="#radial-gradient-4"/><radialGradient id="radial-gradient-8" cx="-242.08" cy="-7382.69" r="1.6" gradientTransform="translate(-1148.23 -254.83) rotate(135) scale(2.88 0.15)" xlink:href="#radial-gradient-4"/><radialGradient id="radial-gradient-9" cx="233.2" cy="20.34" r="6.61" xlink:href="#radial-gradient-2"/><radialGradient id="radial-gradient-10" cx="-224.1" cy="-8844.16" r="1.6" xlink:href="#radial-gradient-4"/><radialGradient id="radial-gradient-11" cx="-271.94" cy="-8065.62" r="1.6" gradientTransform="translate(-1148.23 -254.83) rotate(135) scale(2.88 0.15)" xlink:href="#radial-gradient-4"/><radialGradient id="radial-gradient-12" cx="30.56" cy="74.98" r="20.64" xlink:href="#radial-gradient-2"/><radialGradient id="radial-gradient-13" cx="-234.82" cy="-8432.53" r="16.1" gradientTransform="matrix(0, 2.88, -0.15, 0, -1055.62, 716.32)" xlink:href="#radial-gradient-4"/><radialGradient id="radial-gradient-14" cx="-251.15" cy="-7853.25" r="16.1" gradientTransform="translate(-1148.23 -254.83) rotate(135) scale(2.88 0.15)" xlink:href="#radial-gradient-4"/><radialGradient id="radial-gradient-15" cx="-260.34" cy="-7591.62" r="6.54" xlink:href="#radial-gradient-4"/><radialGradient id="radial-gradient-16" cx="-208.69" cy="-7347.93" r="6.54" gradientTransform="translate(-1148.23 -254.83) rotate(135) scale(2.88 0.15)" xlink:href="#radial-gradient-4"/><radialGradient id="radial-gradient-17" cx="190.86" cy="57.66" r="20.64" xlink:href="#radial-gradient-2"/><radialGradient id="radial-gradient-18" cx="-225.3" cy="-8455.55" r="5.01" gradientTransform="matrix(0, 2.88, -0.15, 0, -1037.22, 705.93)" xlink:href="#radial-gradient-4"/><radialGradient id="radial-gradient-19" cx="-252.32" cy="-8041.9" r="5.01" gradientTransform="translate(-534.89 -1110.11) rotate(180) scale(2.88 0.15)" xlink:href="#radial-gradient-4"/><linearGradient id="linear-gradient" x1="125" y1="126.4" x2="125" y2="0.38" gradientUnits="userSpaceOnUse"><stop offset="0.05" stop-color="#c3689f"/><stop offset="0.08" stop-color="#b15f9e"/><stop offset="0.13" stop-color="#96539d"/><stop offset="0.19" stop-color="#81499b"/><stop offset="0.26" stop-color="#72429b"/><stop offset="0.34" stop-color="#6a3e9a"/><stop offset="0.47" stop-color="#673d9a"/><stop offset="0.54" stop-color="#623a93"/><stop offset="0.64" stop-color="#55337f"/><stop offset="0.75" stop-color="#40265f"/><stop offset="0.89" stop-color="#221533"/><stop offset="1" stop-color="#040406"/></linearGradient><mask id="mask" x="43.18" y="23.61" width="114.33" height="114.33" maskUnits="userSpaceOnUse"><circle class="cls-1" cx="100.34" cy="80.77" r="57.15" transform="translate(-27.72 94.61) rotate(-45)"/></mask><mask id="mask-2" x="156.64" y="28.4" width="24.96" height="24.96" maskUnits="userSpaceOnUse"><circle class="cls-2" cx="169.12" cy="40.88" r="12.48"/></mask><mask id="mask-3" x="9.92" y="54.34" width="41.29" height="41.29" maskUnits="userSpaceOnUse"><circle class="cls-12" cx="30.56" cy="74.98" r="20.64"/></mask><mask id="mask-4" x="136.32" y="8.09" width="65.59" height="65.59" maskUnits="userSpaceOnUse"><ellipse class="cls-13" cx="169.12" cy="40.88" rx="2.34" ry="46.32" transform="translate(20.63 131.56) rotate(-45)"/></mask><mask id="mask-5" x="136.32" y="8.09" width="65.59" height="65.59" maskUnits="userSpaceOnUse"><path class="cls-14" d="M136.37,73.63c-.92-.91,13-16.31,31.1-34.4s33.49-32,34.4-31.1-13,16.31-31.1,34.4S137.28,74.55,136.37,73.63Z"/></mask><mask id="mask-6" x="17.53" y="62.02" width="26.66" height="26.66" maskUnits="userSpaceOnUse"><path class="cls-15" d="M44.17,88.66c-.37.37-6.63-5.29-14-12.64s-13-13.61-12.64-14,6.63,5.29,14,12.64S44.54,88.29,44.17,88.66Z"/></mask><mask id="mask-7" x="17.53" y="62.02" width="26.66" height="26.66" maskUnits="userSpaceOnUse"><path class="cls-16" d="M17.55,88.66c-.37-.37,5.29-6.63,12.64-14s13.61-13,14-12.64-5.28,6.64-12.64,14S17.92,89,17.55,88.66Z"/></mask><mask id="mask-8" x="170.21" y="37.01" width="41.29" height="41.29" maskUnits="userSpaceOnUse"><circle class="cls-17" cx="190.86" cy="57.66" r="20.64"/></mask><mask id="mask-9" x="180.66" y="47.69" width="20.4" height="20.4" maskUnits="userSpaceOnUse"><ellipse class="cls-18" cx="190.86" cy="57.89" rx="0.73" ry="14.41" transform="translate(14.97 151.91) rotate(-45)"/></mask><mask id="mask-10" x="180.66" y="47.69" width="20.4" height="20.4" maskUnits="userSpaceOnUse"><ellipse class="cls-19" cx="190.86" cy="57.89" rx="14.41" ry="0.73" transform="translate(14.97 151.91) rotate(-45)"/></mask><mask id="mask-11" x="132.83" y="92.82" width="13.21" height="13.21" maskUnits="userSpaceOnUse"><path class="cls-3" d="M132.83,99.42a6.61,6.61,0,1,1,6.6,6.61A6.6,6.6,0,0,1,132.83,99.42Z"/></mask><mask id="mask-12" x="136.17" y="96.24" width="6.53" height="6.53" maskUnits="userSpaceOnUse"><path class="cls-4" d="M142.69,102.76a23.47,23.47,0,0,1-3.42-3.1,23.47,23.47,0,0,1-3.1-3.42,23.23,23.23,0,0,1,3.43,3.1A22.46,22.46,0,0,1,142.69,102.76Z"/></mask><mask id="mask-13" x="136.17" y="96.24" width="6.53" height="6.53" maskUnits="userSpaceOnUse"><path class="cls-5" d="M136.17,102.76a22.89,22.89,0,0,1,3.1-3.42,23.47,23.47,0,0,1,3.42-3.1,23,23,0,0,1-3.09,3.42A23.23,23.23,0,0,1,136.17,102.76Z"/></mask><mask id="mask-14" x="95.73" y="4.33" width="13.21" height="13.21" maskUnits="userSpaceOnUse"><path class="cls-6" d="M95.73,10.94a6.61,6.61,0,1,1,6.6,6.6A6.61,6.61,0,0,1,95.73,10.94Z"/></mask><mask id="mask-15" x="99.07" y="7.75" width="6.53" height="6.53" maskUnits="userSpaceOnUse"><path class="cls-7" d="M105.59,14.27a23,23,0,0,1-3.42-3.09,23.47,23.47,0,0,1-3.1-3.42,22.13,22.13,0,0,1,3.43,3.09A23,23,0,0,1,105.59,14.27Z"/></mask><mask id="mask-16" x="99.07" y="7.75" width="6.53" height="6.53" maskUnits="userSpaceOnUse"><path class="cls-8" d="M99.07,14.27a23.47,23.47,0,0,1,3.1-3.42,22.35,22.35,0,0,1,3.42-3.09,23,23,0,0,1-3.09,3.42A22.79,22.79,0,0,1,99.07,14.27Z"/></mask><mask id="mask-17" x="226.6" y="13.74" width="13.21" height="13.21" maskUnits="userSpaceOnUse"><path class="cls-9" d="M226.6,20.34A6.61,6.61,0,1,1,233.2,27,6.6,6.6,0,0,1,226.6,20.34Z"/></mask><mask id="mask-18" x="229.94" y="17.15" width="6.53" height="6.53" maskUnits="userSpaceOnUse"><path class="cls-10" d="M236.46,23.68a23.47,23.47,0,0,1-3.42-3.1A22.35,22.35,0,0,1,230,17.16a23,23,0,0,1,3.42,3.09A22.24,22.24,0,0,1,236.46,23.68Z"/></mask><mask id="mask-19" x="229.94" y="17.15" width="6.53" height="6.53" maskUnits="userSpaceOnUse"><path class="cls-11" d="M230,23.68A21.62,21.62,0,0,1,233,20.25a23,23,0,0,1,3.42-3.09,23,23,0,0,1-3.09,3.42A23.47,23.47,0,0,1,230,23.68Z"/></mask></defs><g class="cls-20"><g id="圖層_2" data-name="圖層 2"><g id="Layer_1" data-name="Layer 1"><rect class="cls-21" width="250" height="160"/><g class="cls-22"><path class="cls-23" d="M60.2,23.33a.29.29,0,0,0-.25.25.28.28,0,0,0-.24-.25.28.28,0,0,0,.24-.25A.29.29,0,0,0,60.2,23.33Z"/><path class="cls-23" d="M59.09,27.42a.24.24,0,1,1-.48,0,.24.24,0,1,1,.48,0Z"/><path class="cls-23" d="M61.65,48a.24.24,0,1,1-.48,0,.24.24,0,1,1,.48,0Z"/><path class="cls-23" d="M69.46,60a.29.29,0,0,0-.24.25A.28.28,0,0,0,69,60a.27.27,0,0,0,.24-.25A.28.28,0,0,0,69.46,60Z"/><path class="cls-23" d="M69.22,74.51a.24.24,0,1,1-.48,0,.24.24,0,1,1,.48,0Z"/><path class="cls-23" d="M75.46,84.43a.24.24,0,1,1-.48,0,.24.24,0,1,1,.48,0Z"/><path class="cls-23" d="M73.46,100.28a.28.28,0,0,0-.24.25.29.29,0,0,0-.24-.25.28.28,0,0,0,.24-.24A.26.26,0,0,0,73.46,100.28Z"/><path class="cls-23" d="M74.59,119.45a.29.29,0,0,0-.24.25.28.28,0,0,0-.24-.25.27.27,0,0,0,.24-.25A.28.28,0,0,0,74.59,119.45Z"/><path class="cls-23" d="M60.73,111.25a.28.28,0,0,0-.24.25.27.27,0,0,0-.24-.25.28.28,0,0,0,.24-.25A.29.29,0,0,0,60.73,111.25Z"/><path class="cls-23" d="M50,103.82a.27.27,0,0,0-.24.25.28.28,0,0,0-.24-.25.29.29,0,0,0,.24-.25A.28.28,0,0,0,50,103.82Z"/><path class="cls-23" d="M41.2,98.37a.28.28,0,0,0-.24.25.27.27,0,0,0-.24-.25.28.28,0,0,0,.24-.25A.29.29,0,0,0,41.2,98.37Z"/><path class="cls-23" d="M31.49,101.28a.29.29,0,0,0-.24.25.29.29,0,0,0-.24-.25.28.28,0,0,0,.24-.25A.28.28,0,0,0,31.49,101.28Z"/><path class="cls-23" d="M22.74,100a.26.26,0,0,0-.24.24.28.28,0,0,0-.24-.24.29.29,0,0,0,.24-.25A.28.28,0,0,0,22.74,100Z"/><path class="cls-23" d="M17.7,76.19a.29.29,0,0,0-.24.25.25.25,0,0,1,0-.5A.29.29,0,0,0,17.7,76.19Z"/><path class="cls-23" d="M36.29,83.26a.28.28,0,0,0-.24.25.25.25,0,0,1,0-.5A.28.28,0,0,0,36.29,83.26Z"/><path class="cls-23" d="M33.54,81.54a.29.29,0,0,0-.24.25.25.25,0,0,1,0-.5A.29.29,0,0,0,33.54,81.54Z"/><path class="cls-23" d="M33.78,62.7a.28.28,0,0,0-.24.24.26.26,0,0,0-.24-.24.28.28,0,0,0,.24-.25A.29.29,0,0,0,33.78,62.7Z"/><path class="cls-23" d="M46.22,52.7a.28.28,0,0,0-.24.24.28.28,0,0,0-.24-.24.29.29,0,0,0,.24-.25A.29.29,0,0,0,46.22,52.7Z"/><path class="cls-23" d="M51,76.44a.29.29,0,0,0-.24.25.25.25,0,0,1,0-.5A.29.29,0,0,0,51,76.44Z"/><path class="cls-23" d="M29,78.51a.29.29,0,0,0-.24.25.25.25,0,0,1,0-.5A.29.29,0,0,0,29,78.51Z"/><path class="cls-23" d="M20.86,86.78a.29.29,0,0,0-.24.25.29.29,0,0,0-.24-.25.28.28,0,0,0,.24-.25A.28.28,0,0,0,20.86,86.78Z"/><path class="cls-23" d="M18.47,59.49a.27.27,0,0,0-.24.25.28.28,0,0,0-.24-.25.29.29,0,0,0,.24-.25A.28.28,0,0,0,18.47,59.49Z"/><path class="cls-23" d="M16.27,44.66a.29.29,0,0,0-.25.25.28.28,0,0,0-.24-.25.27.27,0,0,0,.24-.25A.28.28,0,0,0,16.27,44.66Z"/><path class="cls-23" d="M7.48,56.2a.28.28,0,0,0-.24.25A.29.29,0,0,0,7,56.2.28.28,0,0,0,7.24,56,.27.27,0,0,0,7.48,56.2Z"/><path class="cls-23" d="M22.5,51.3a.29.29,0,0,0-.24.25A.29.29,0,0,0,22,51.3a.29.29,0,0,0,.24-.25A.29.29,0,0,0,22.5,51.3Z"/><path class="cls-23" d="M22.74,41.2a.28.28,0,0,0-.24.25.27.27,0,0,0-.24-.25A.28.28,0,0,0,22.5,41,.29.29,0,0,0,22.74,41.2Z"/><path class="cls-23" d="M19.12,34.9a.28.28,0,0,0-.25.25.27.27,0,0,0-.24-.25.28.28,0,0,0,.24-.25A.29.29,0,0,0,19.12,34.9Z"/><path class="cls-23" d="M16.12,26.15a.29.29,0,0,0-.25.25.28.28,0,0,0-.24-.25.28.28,0,0,0,.24-.25A.29.29,0,0,0,16.12,26.15Z"/><path class="cls-23" d="M23,10.47a.29.29,0,0,0-.24.25.28.28,0,0,0-.24-.25.27.27,0,0,0,.24-.25A.28.28,0,0,0,23,10.47Z"/><path class="cls-23" d="M25.7,17.31a.28.28,0,0,0-.24.25.28.28,0,0,0-.24-.25.29.29,0,0,0,.24-.25A.29.29,0,0,0,25.7,17.31Z"/><path class="cls-23" d="M30.69,23.58a.29.29,0,0,0-.25.25.28.28,0,0,0-.24-.25.28.28,0,0,0,.24-.25A.29.29,0,0,0,30.69,23.58Z"/><path class="cls-23" d="M33.54,18.37a.29.29,0,0,0-.24.25.29.29,0,0,0-.24-.25.29.29,0,0,0,.24-.25A.29.29,0,0,0,33.54,18.37Z"/><path class="cls-23" d="M14.17,15.41a.29.29,0,0,0-.24.25.29.29,0,0,0-.24-.25.29.29,0,0,0,.24-.25A.29.29,0,0,0,14.17,15.41Z"/><path class="cls-23" d="M6,10.22a.29.29,0,0,0-.25.25.28.28,0,0,0-.24-.25A.27.27,0,0,0,5.76,10,.28.28,0,0,0,6,10.22Z"/><path class="cls-23" d="M46.46,65.1a.29.29,0,0,0-.24.25A.29.29,0,0,0,46,65.1a.28.28,0,0,0,.24-.24A.28.28,0,0,0,46.46,65.1Z"/><path class="cls-23" d="M63,101.68a.28.28,0,0,0-.24.25.29.29,0,0,0-.25-.25.28.28,0,0,0,.25-.25A.27.27,0,0,0,63,101.68Z"/><path class="cls-23" d="M46,127.15a.29.29,0,0,0-.24.25.29.29,0,0,0-.24-.25.28.28,0,0,0,.24-.25A.28.28,0,0,0,46,127.15Z"/><path class="cls-23" d="M49.8,147.52a.27.27,0,0,0-.24.25.28.28,0,0,0-.25-.25.29.29,0,0,0,.25-.25A.28.28,0,0,0,49.8,147.52Z"/><path class="cls-23" d="M78.67,152.18a.24.24,0,1,1-.48,0,.24.24,0,1,1,.48,0Z"/><path class="cls-23" d="M78.67,94.39a.24.24,0,1,1-.48,0,.24.24,0,1,1,.48,0Z"/><path class="cls-23" d="M52.55,86.53a.29.29,0,0,0-.24.25.28.28,0,0,0-.24-.25.27.27,0,0,0,.24-.25A.28.28,0,0,0,52.55,86.53Z"/><path class="cls-23" d="M78.43,35.15a.24.24,0,1,1-.48,0,.24.24,0,1,1,.48,0Z"/><path class="cls-23" d="M54.3,117.78a.28.28,0,0,0-.24.25.25.25,0,0,1,0-.5A.28.28,0,0,0,54.3,117.78Z"/><path class="cls-23" d="M58.85,126.65a.24.24,0,1,1-.48,0,.24.24,0,1,1,.48,0Z"/><path class="cls-23" d="M63.88,133.63a.28.28,0,0,0-.24.25.25.25,0,1,1,0-.5A.28.28,0,0,0,63.88,133.63Z"/><path class="cls-23" d="M69.7,138.93a.29.29,0,0,0-.24.25.28.28,0,0,0-.24-.25.27.27,0,0,0,.24-.25A.28.28,0,0,0,69.7,138.93Z"/><path class="cls-23" d="M65.8,142.69a.28.28,0,0,0-.24.25.29.29,0,0,0-.24-.25.28.28,0,0,0,.24-.25A.27.27,0,0,0,65.8,142.69Z"/><path class="cls-23" d="M54.55,129a.47.47,0,0,0-.4.41.41.41,0,0,1,0-.82A.47.47,0,0,0,54.55,129Z"/><path class="cls-23" d="M39.26,117.78a.47.47,0,0,0-.4.41.41.41,0,0,1,0-.82A.47.47,0,0,0,39.26,117.78Z"/><path class="cls-23" d="M55.09,99.79a.45.45,0,0,0-.39.41.47.47,0,0,0-.4-.41.48.48,0,0,0,.4-.42A.46.46,0,0,0,55.09,99.79Z"/><path class="cls-23" d="M64.27,75.69a.45.45,0,0,0-.39.41.47.47,0,0,0-.4-.41.47.47,0,0,0,.4-.41A.45.45,0,0,0,64.27,75.69Z"/><path class="cls-23" d="M58.61,52.28a.48.48,0,0,0-.4.42.48.48,0,0,0-.4-.42.47.47,0,0,0,.4-.41A.47.47,0,0,0,58.61,52.28Z"/><path class="cls-23" d="M72.8,28.93a.47.47,0,0,0-.4.41.47.47,0,0,0-.4-.41.47.47,0,0,0,.4-.41A.47.47,0,0,0,72.8,28.93Z"/><path class="cls-23" d="M42.7,5.24a.47.47,0,0,0-.4.41.47.47,0,0,0-.4-.41.47.47,0,0,0,.4-.41A.47.47,0,0,0,42.7,5.24Z"/><path class="cls-23" d="M80.34,21.54a.47.47,0,0,0-.4.41.45.45,0,0,0-.39-.41.45.45,0,0,0,.39-.41A.47.47,0,0,0,80.34,21.54Z"/><path class="cls-23" d="M41.36,18.12a.47.47,0,0,0-.4.41.47.47,0,0,0-.39-.41.47.47,0,0,0,.39-.41A.47.47,0,0,0,41.36,18.12Z"/><path class="cls-23" d="M37.08,38.63a.45.45,0,0,0-.39.41.47.47,0,0,0-.4-.41.47.47,0,0,0,.4-.41A.45.45,0,0,0,37.08,38.63Z"/><path class="cls-23" d="M21.59,130.39a.92.92,0,0,0-.79.82.94.94,0,0,0-.8-.82,1,1,0,0,0,.8-.83A.93.93,0,0,0,21.59,130.39Z"/><path class="cls-23" d="M8.81,78.76a.92.92,0,0,0-.79.82.94.94,0,0,0-.8-.82,1,1,0,0,0,.8-.83A.93.93,0,0,0,8.81,78.76Z"/><path class="cls-23" d="M75.86,13.36a1,1,0,0,0-.8.83.93.93,0,0,0-.79-.83.92.92,0,0,0,.79-.82A.94.94,0,0,0,75.86,13.36Z"/><path class="cls-23" d="M81.54,62.7a.94.94,0,0,0-.8.82.94.94,0,0,0-.8-.82,1,1,0,0,0,.8-.83A1,1,0,0,0,81.54,62.7Z"/><path class="cls-23" d="M78.43,131.43a.94.94,0,0,0-.8.82.92.92,0,0,0-.79-.82.93.93,0,0,0,.79-.83A1,1,0,0,0,78.43,131.43Z"/><path class="cls-23" d="M8.42,107.22a.94.94,0,0,0-.8.82.94.94,0,0,0-.8-.82,1,1,0,0,0,.8-.83A1,1,0,0,0,8.42,107.22Z"/><path class="cls-23" d="M8,24.54a.94.94,0,0,0-.8.82.94.94,0,0,0-.8-.82,1,1,0,0,0,.8-.83A1,1,0,0,0,8,24.54Z"/><path class="cls-23" d="M16.67,4.06a1,1,0,0,0-.8.83.93.93,0,0,0-.79-.83.92.92,0,0,0,.79-.82A.94.94,0,0,0,16.67,4.06Z"/><path class="cls-23" d="M51.52,16.24a.94.94,0,0,0-.8.82.94.94,0,0,0-.8-.82,1,1,0,0,0,.8-.83A1,1,0,0,0,51.52,16.24Z"/><path class="cls-23" d="M52.31,39a.93.93,0,0,0-.79.83,1,1,0,0,0-.8-.83.94.94,0,0,0,.8-.82A.92.92,0,0,0,52.31,39Z"/><path class="cls-23" d="M66.26,4.45a.43.43,0,0,0-.37.38.43.43,0,0,0-.37-.38.45.45,0,0,0,.37-.39A.45.45,0,0,0,66.26,4.45Z"/><path class="cls-23" d="M54.43,27.84a.43.43,0,0,0-.37.38.44.44,0,0,0-.37-.38.44.44,0,0,0,.37-.38A.43.43,0,0,0,54.43,27.84Z"/><path class="cls-23" d="M28.87,39.87a.43.43,0,0,0-.37.38.43.43,0,0,0-.37-.38.45.45,0,0,0,.37-.39A.45.45,0,0,0,28.87,39.87Z"/><path class="cls-23" d="M41.33,28.14a.43.43,0,0,0-.37.38.42.42,0,0,0-.37-.38.43.43,0,0,0,.37-.39A.45.45,0,0,0,41.33,28.14Z"/><path class="cls-23" d="M51.89,3.24a.42.42,0,0,0-.37.38.43.43,0,0,0-.37-.38.45.45,0,0,0,.37-.39A.43.43,0,0,0,51.89,3.24Z"/><path class="cls-23" d="M35.94,5.65a.45.45,0,0,0-.37.39.45.45,0,0,0-.37-.39.43.43,0,0,0,.37-.38A.43.43,0,0,0,35.94,5.65Z"/><path class="cls-23" d="M80.31,4.83a.44.44,0,0,0-.37.38.43.43,0,0,0-.37-.38.43.43,0,0,0,.37-.38A.44.44,0,0,0,80.31,4.83Z"/><path class="cls-23" d="M10.44,69.5a.45.45,0,0,0-.37.39.45.45,0,0,0-.37-.39.43.43,0,0,0,.37-.38A.43.43,0,0,0,10.44,69.5Z"/><path class="cls-23" d="M81.11,112a.43.43,0,0,0-.37.38.43.43,0,0,0-.37-.38.45.45,0,0,0,.37-.39A.45.45,0,0,0,81.11,112Z"/><path class="cls-23" d="M16.49,147.52a.42.42,0,0,0-.37.38.44.44,0,0,0-.38-.38.45.45,0,0,0,.38-.39A.43.43,0,0,0,16.49,147.52Z"/><path class="cls-23" d="M7.56,153.94a.43.43,0,0,0-.37.38.43.43,0,0,0-.37-.38.45.45,0,0,0,.37-.39A.45.45,0,0,0,7.56,153.94Z"/><path class="cls-23" d="M12.72,139.53a.48.48,0,0,0-.4.42.48.48,0,0,0-.4-.42.47.47,0,0,0,.4-.41A.47.47,0,0,0,12.72,139.53Z"/><path class="cls-23" d="M29.38,148.31a.47.47,0,0,0-.4.41.47.47,0,0,0-.4-.41.48.48,0,0,0,.4-.42A.48.48,0,0,0,29.38,148.31Z"/><path class="cls-23" d="M8.41,92.38a.45.45,0,0,0-.39.41.47.47,0,0,0-.4-.41A.47.47,0,0,0,8,92,.45.45,0,0,0,8.41,92.38Z"/><path class="cls-23" d="M59,10.22a.47.47,0,0,0-.4.41.47.47,0,0,0-.4-.41.47.47,0,0,0,.4-.41A.47.47,0,0,0,59,10.22Z"/><path class="cls-23" d="M75.86,46.07a.47.47,0,0,0-.4.41.47.47,0,0,0-.4-.41.47.47,0,0,0,.4-.41A.47.47,0,0,0,75.86,46.07Z"/><path class="cls-23" d="M31.89,50a.48.48,0,0,0-.4.42.48.48,0,0,0-.4-.42.47.47,0,0,0,.4-.41A.47.47,0,0,0,31.89,50Z"/><path class="cls-23" d="M25.27,47.27a.47.47,0,0,0-.4.41.47.47,0,0,0-.4-.41.47.47,0,0,0,.4-.41A.47.47,0,0,0,25.27,47.27Z"/><path class="cls-23" d="M68.21,147.52a.24.24,0,1,1-.48,0,.24.24,0,1,1,.48,0Z"/><path class="cls-23" d="M141.67,23.33a.29.29,0,0,0-.25.25.28.28,0,0,0-.24-.25.28.28,0,0,0,.24-.25A.29.29,0,0,0,141.67,23.33Z"/><path class="cls-23" d="M140.56,27.42a.24.24,0,1,1-.48,0,.24.24,0,1,1,.48,0Z"/><path class="cls-23" d="M143.12,48a.24.24,0,1,1-.48,0,.24.24,0,1,1,.48,0Z"/><path class="cls-23" d="M150.93,60a.29.29,0,0,0-.24.25.28.28,0,0,0-.24-.25.27.27,0,0,0,.24-.25A.28.28,0,0,0,150.93,60Z"/><path class="cls-23" d="M150.69,74.51a.24.24,0,1,1-.48,0,.24.24,0,1,1,.48,0Z"/><path class="cls-23" d="M156.93,84.43a.24.24,0,1,1-.48,0,.24.24,0,1,1,.48,0Z"/><path class="cls-23" d="M154.93,100.28a.28.28,0,0,0-.24.25.29.29,0,0,0-.24-.25.28.28,0,0,0,.24-.24A.26.26,0,0,0,154.93,100.28Z"/><path class="cls-23" d="M156.06,119.45a.29.29,0,0,0-.24.25.28.28,0,0,0-.24-.25.27.27,0,0,0,.24-.25A.28.28,0,0,0,156.06,119.45Z"/><path class="cls-23" d="M142.2,111.25a.28.28,0,0,0-.24.25.27.27,0,0,0-.24-.25A.28.28,0,0,0,142,111,.29.29,0,0,0,142.2,111.25Z"/><path class="cls-23" d="M131.51,103.82a.27.27,0,0,0-.24.25.28.28,0,0,0-.24-.25.29.29,0,0,0,.24-.25A.28.28,0,0,0,131.51,103.82Z"/><path class="cls-23" d="M122.67,98.37a.28.28,0,0,0-.24.25.27.27,0,0,0-.24-.25.28.28,0,0,0,.24-.25A.29.29,0,0,0,122.67,98.37Z"/><path class="cls-23" d="M113,101.28a.24.24,0,1,1-.48,0,.24.24,0,1,1,.48,0Z"/><path class="cls-23" d="M104.21,100a.26.26,0,0,0-.24.24.28.28,0,0,0-.24-.24.29.29,0,0,0,.24-.25A.28.28,0,0,0,104.21,100Z"/><path class="cls-23" d="M99.17,76.19a.24.24,0,1,1-.48,0,.24.24,0,1,1,.48,0Z"/><path class="cls-23" d="M117.76,83.26a.28.28,0,0,0-.24.25.25.25,0,0,1,0-.5A.28.28,0,0,0,117.76,83.26Z"/><path class="cls-23" d="M115,81.54a.24.24,0,1,1-.48,0,.24.24,0,1,1,.48,0Z"/><path class="cls-23" d="M115.25,62.7a.28.28,0,0,0-.24.24.26.26,0,0,0-.24-.24.28.28,0,0,0,.24-.25A.29.29,0,0,0,115.25,62.7Z"/><path class="cls-23" d="M127.69,52.7a.24.24,0,1,1-.48,0,.24.24,0,1,1,.48,0Z"/><path class="cls-23" d="M132.43,76.44a.24.24,0,1,1-.48,0,.24.24,0,1,1,.48,0Z"/><path class="cls-23" d="M110.45,78.51a.24.24,0,1,1-.48,0,.24.24,0,1,1,.48,0Z"/><path class="cls-23" d="M102.33,86.78a.24.24,0,1,1-.48,0,.24.24,0,1,1,.48,0Z"/><path class="cls-23" d="M99.94,59.49a.27.27,0,0,0-.24.25.28.28,0,0,0-.24-.25.29.29,0,0,0,.24-.25A.28.28,0,0,0,99.94,59.49Z"/><path class="cls-23" d="M97.74,44.66a.29.29,0,0,0-.25.25.28.28,0,0,0-.24-.25.27.27,0,0,0,.24-.25A.28.28,0,0,0,97.74,44.66Z"/><path class="cls-23" d="M89,56.2a.28.28,0,0,0-.24.25.29.29,0,0,0-.24-.25.28.28,0,0,0,.24-.25A.27.27,0,0,0,89,56.2Z"/><path class="cls-23" d="M104,51.3a.24.24,0,1,1-.48,0,.24.24,0,1,1,.48,0Z"/><path class="cls-23" d="M104.21,41.2a.28.28,0,0,0-.24.25.27.27,0,0,0-.24-.25A.28.28,0,0,0,104,41,.29.29,0,0,0,104.21,41.2Z"/><path class="cls-23" d="M100.59,34.9a.28.28,0,0,0-.25.25.27.27,0,0,0-.24-.25.28.28,0,0,0,.24-.25A.29.29,0,0,0,100.59,34.9Z"/><path class="cls-23" d="M97.59,26.15a.29.29,0,0,0-.25.25.28.28,0,0,0-.24-.25.28.28,0,0,0,.24-.25A.29.29,0,0,0,97.59,26.15Z"/><path class="cls-23" d="M104.45,10.47a.29.29,0,0,0-.24.25.28.28,0,0,0-.24-.25.27.27,0,0,0,.24-.25A.28.28,0,0,0,104.45,10.47Z"/><path class="cls-23" d="M107.17,17.31a.24.24,0,1,1-.48,0,.24.24,0,1,1,.48,0Z"/><path class="cls-23" d="M112.16,23.58a.29.29,0,0,0-.25.25.28.28,0,0,0-.24-.25.28.28,0,0,0,.24-.25A.29.29,0,0,0,112.16,23.58Z"/><path class="cls-23" d="M115,18.37a.24.24,0,1,1-.48,0,.24.24,0,1,1,.48,0Z"/><path class="cls-23" d="M95.64,15.41a.24.24,0,1,1-.48,0,.24.24,0,1,1,.48,0Z"/><path class="cls-23" d="M87.48,10.22a.29.29,0,0,0-.25.25.28.28,0,0,0-.24-.25.27.27,0,0,0,.24-.25A.28.28,0,0,0,87.48,10.22Z"/><path class="cls-23" d="M127.93,65.1a.24.24,0,1,1-.48,0,.24.24,0,0,1,.48,0Z"/><path class="cls-23" d="M144.45,101.68a.29.29,0,0,0-.25.25.28.28,0,0,0-.24-.25.27.27,0,0,0,.24-.25A.28.28,0,0,0,144.45,101.68Z"/><path class="cls-23" d="M127.45,127.15a.24.24,0,1,1-.48,0,.24.24,0,1,1,.48,0Z"/><path class="cls-23" d="M131.27,147.52a.27.27,0,0,0-.24.25.28.28,0,0,0-.25-.25.29.29,0,0,0,.25-.25A.28.28,0,0,0,131.27,147.52Z"/><path class="cls-23" d="M160.14,152.18a.24.24,0,1,1-.48,0,.24.24,0,1,1,.48,0Z"/><path class="cls-23" d="M160.14,94.39a.24.24,0,1,1-.48,0,.24.24,0,1,1,.48,0Z"/><path class="cls-23" d="M134,86.53a.29.29,0,0,0-.24.25.28.28,0,0,0-.24-.25.27.27,0,0,0,.24-.25A.28.28,0,0,0,134,86.53Z"/><path class="cls-23" d="M159.9,35.15a.27.27,0,0,0-.24.25.28.28,0,0,0-.24-.25.29.29,0,0,0,.24-.25A.28.28,0,0,0,159.9,35.15Z"/><path class="cls-23" d="M135.77,117.78a.28.28,0,0,0-.24.25.25.25,0,0,1,0-.5A.28.28,0,0,0,135.77,117.78Z"/><path class="cls-23" d="M140.32,126.65a.24.24,0,1,1-.48,0,.24.24,0,1,1,.48,0Z"/><path class="cls-23" d="M145.35,133.63a.29.29,0,0,0-.25.25.25.25,0,0,1,0-.5A.29.29,0,0,0,145.35,133.63Z"/><path class="cls-23" d="M151.17,138.93a.29.29,0,0,0-.24.25.28.28,0,0,0-.24-.25.27.27,0,0,0,.24-.25A.28.28,0,0,0,151.17,138.93Z"/><path class="cls-23" d="M147.27,142.69a.28.28,0,0,0-.24.25.29.29,0,0,0-.24-.25.28.28,0,0,0,.24-.25A.27.27,0,0,0,147.27,142.69Z"/><path class="cls-23" d="M136,129a.47.47,0,0,0-.4.41.41.41,0,0,1,0-.82A.47.47,0,0,0,136,129Z"/><path class="cls-23" d="M120.73,117.78a.4.4,0,1,1-.8,0,.4.4,0,1,1,.8,0Z"/><path class="cls-23" d="M136.56,99.79a.45.45,0,0,0-.39.41.47.47,0,0,0-.4-.41.48.48,0,0,0,.4-.42A.46.46,0,0,0,136.56,99.79Z"/><path class="cls-23" d="M145.74,75.69a.45.45,0,0,0-.39.41.47.47,0,0,0-.4-.41.47.47,0,0,0,.4-.41A.45.45,0,0,0,145.74,75.69Z"/><path class="cls-23" d="M140.08,52.28a.4.4,0,1,1-.8,0,.4.4,0,1,1,.8,0Z"/><path class="cls-23" d="M154.27,28.93a.4.4,0,1,1-.8,0,.4.4,0,1,1,.8,0Z"/><path class="cls-23" d="M124.17,5.24a.4.4,0,1,1-.8,0,.4.4,0,1,1,.8,0Z"/><path class="cls-23" d="M161.81,21.54a.47.47,0,0,0-.4.41.45.45,0,0,0-.39-.41.45.45,0,0,0,.39-.41A.47.47,0,0,0,161.81,21.54Z"/><path class="cls-23" d="M122.83,18.12a.4.4,0,1,1-.8,0,.4.4,0,1,1,.8,0Z"/><path class="cls-23" d="M118.55,38.63a.45.45,0,0,0-.39.41.47.47,0,0,0-.4-.41.47.47,0,0,0,.4-.41A.45.45,0,0,0,118.55,38.63Z"/><path class="cls-23" d="M103.06,130.39a.92.92,0,0,0-.79.82.94.94,0,0,0-.8-.82,1,1,0,0,0,.8-.83A.93.93,0,0,0,103.06,130.39Z"/><path class="cls-23" d="M90.28,78.76a.92.92,0,0,0-.79.82.94.94,0,0,0-.8-.82,1,1,0,0,0,.8-.83A.93.93,0,0,0,90.28,78.76Z"/><path class="cls-23" d="M157.33,13.36a1,1,0,0,0-.8.83.93.93,0,0,0-.79-.83.92.92,0,0,0,.79-.82A.94.94,0,0,0,157.33,13.36Z"/><path class="cls-23" d="M163,62.7a.94.94,0,0,0-.8.82.94.94,0,0,0-.8-.82,1,1,0,0,0,.8-.83A1,1,0,0,0,163,62.7Z"/><path class="cls-23" d="M159.9,131.43a.94.94,0,0,0-.8.82.92.92,0,0,0-.79-.82.93.93,0,0,0,.79-.83A1,1,0,0,0,159.9,131.43Z"/><path class="cls-23" d="M89.88,107.22a.94.94,0,0,0-.79.82.94.94,0,0,0-.8-.82,1,1,0,0,0,.8-.83A.94.94,0,0,0,89.88,107.22Z"/><path class="cls-23" d="M89.49,24.54a.94.94,0,0,0-.8.82.94.94,0,0,0-.8-.82,1,1,0,0,0,.8-.83A1,1,0,0,0,89.49,24.54Z"/><path class="cls-23" d="M98.14,4.06a1,1,0,0,0-.8.83.93.93,0,0,0-.79-.83.92.92,0,0,0,.79-.82A.94.94,0,0,0,98.14,4.06Z"/><path class="cls-23" d="M133,16.24a.94.94,0,0,0-.8.82.94.94,0,0,0-.8-.82,1,1,0,0,0,.8-.83A1,1,0,0,0,133,16.24Z"/><path class="cls-23" d="M133.78,39a.93.93,0,0,0-.79.83,1,1,0,0,0-.8-.83.94.94,0,0,0,.8-.82A.92.92,0,0,0,133.78,39Z"/><path class="cls-23" d="M147.73,4.45a.37.37,0,1,1-.74,0,.37.37,0,1,1,.74,0Z"/><path class="cls-23" d="M135.9,27.84a.43.43,0,0,0-.37.38.44.44,0,0,0-.38-.38.44.44,0,0,0,.38-.38A.43.43,0,0,0,135.9,27.84Z"/><path class="cls-23" d="M110.34,39.87a.37.37,0,1,1-.74,0,.37.37,0,1,1,.74,0Z"/><path class="cls-23" d="M122.8,28.14a.43.43,0,0,0-.37.38.42.42,0,0,0-.37-.38.43.43,0,0,0,.37-.39A.45.45,0,0,0,122.8,28.14Z"/><path class="cls-23" d="M133.36,3.24a.42.42,0,0,0-.37.38.43.43,0,0,0-.37-.38.45.45,0,0,0,.37-.39A.43.43,0,0,0,133.36,3.24Z"/><path class="cls-23" d="M117.41,5.65a.37.37,0,1,1-.74,0,.37.37,0,1,1,.74,0Z"/><path class="cls-23" d="M161.78,4.83a.44.44,0,0,0-.37.38.43.43,0,0,0-.37-.38.43.43,0,0,0,.37-.38A.44.44,0,0,0,161.78,4.83Z"/><path class="cls-23" d="M91.91,69.5a.37.37,0,1,1-.74,0,.37.37,0,1,1,.74,0Z"/><path class="cls-23" d="M162.58,112a.37.37,0,1,1-.74,0,.37.37,0,1,1,.74,0Z"/><path class="cls-23" d="M98,147.52a.42.42,0,0,0-.37.38.44.44,0,0,0-.38-.38.45.45,0,0,0,.38-.39A.43.43,0,0,0,98,147.52Z"/><path class="cls-23" d="M89,153.94a.37.37,0,1,1-.74,0,.45.45,0,0,0,.37-.39A.45.45,0,0,0,89,153.94Z"/><path class="cls-23" d="M94.19,139.53a.48.48,0,0,0-.4.42.48.48,0,0,0-.4-.42.4.4,0,1,1,.8,0Z"/><path class="cls-23" d="M110.85,148.31a.4.4,0,1,1-.8,0,.4.4,0,1,1,.8,0Z"/><path class="cls-23" d="M89.88,92.38a.45.45,0,0,0-.39.41.47.47,0,0,0-.4-.41.47.47,0,0,0,.4-.41A.45.45,0,0,0,89.88,92.38Z"/><path class="cls-23" d="M140.48,10.22a.4.4,0,1,1-.8,0,.4.4,0,1,1,.8,0Z"/><path class="cls-23" d="M157.33,46.07a.4.4,0,1,1-.8,0,.4.4,0,1,1,.8,0Z"/><path class="cls-23" d="M113.36,50a.4.4,0,1,1-.8,0,.4.4,0,1,1,.8,0Z"/><path class="cls-23" d="M106.74,47.27a.4.4,0,1,1-.8,0,.4.4,0,1,1,.8,0Z"/><path class="cls-23" d="M149.68,147.52a.24.24,0,1,1-.48,0,.24.24,0,1,1,.48,0Z"/><path class="cls-23" d="M223.14,23.33a.29.29,0,0,0-.25.25.28.28,0,0,0-.24-.25.28.28,0,0,0,.24-.25A.29.29,0,0,0,223.14,23.33Z"/><path class="cls-23" d="M222,27.42a.24.24,0,1,1-.48,0,.24.24,0,1,1,.48,0Z"/><path class="cls-23" d="M224.59,48a.24.24,0,1,1-.48,0,.24.24,0,1,1,.48,0Z"/><path class="cls-23" d="M232.4,60a.29.29,0,0,0-.24.25.28.28,0,0,0-.24-.25.27.27,0,0,0,.24-.25A.28.28,0,0,0,232.4,60Z"/><path class="cls-23" d="M232.16,74.51a.24.24,0,1,1-.48,0,.24.24,0,1,1,.48,0Z"/><path class="cls-23" d="M238.4,84.43a.24.24,0,1,1-.48,0,.24.24,0,1,1,.48,0Z"/><path class="cls-23" d="M236.4,100.28a.28.28,0,0,0-.24.25.29.29,0,0,0-.24-.25.28.28,0,0,0,.24-.24A.26.26,0,0,0,236.4,100.28Z"/><path class="cls-23" d="M237.53,119.45a.29.29,0,0,0-.24.25.28.28,0,0,0-.24-.25.27.27,0,0,0,.24-.25A.28.28,0,0,0,237.53,119.45Z"/><path class="cls-23" d="M223.67,111.25a.24.24,0,1,1-.48,0,.24.24,0,1,1,.48,0Z"/><path class="cls-23" d="M213,103.82a.27.27,0,0,0-.24.25.28.28,0,0,0-.24-.25.29.29,0,0,0,.24-.25A.28.28,0,0,0,213,103.82Z"/><path class="cls-23" d="M204.14,98.37a.28.28,0,0,0-.24.25.27.27,0,0,0-.24-.25.28.28,0,0,0,.24-.25A.29.29,0,0,0,204.14,98.37Z"/><path class="cls-23" d="M194.43,101.28a.24.24,0,1,1-.48,0,.24.24,0,1,1,.48,0Z"/><path class="cls-23" d="M185.68,100a.26.26,0,0,0-.24.24.28.28,0,0,0-.24-.24.29.29,0,0,0,.24-.25A.28.28,0,0,0,185.68,100Z"/><path class="cls-23" d="M180.64,76.19a.24.24,0,1,1-.48,0,.24.24,0,1,1,.48,0Z"/><path class="cls-23" d="M199.23,83.26a.28.28,0,0,0-.24.25.25.25,0,0,1,0-.5A.28.28,0,0,0,199.23,83.26Z"/><path class="cls-23" d="M196.48,81.54a.24.24,0,1,1-.48,0,.24.24,0,1,1,.48,0Z"/><path class="cls-23" d="M196.72,62.7a.28.28,0,0,0-.24.24.26.26,0,0,0-.24-.24.28.28,0,0,0,.24-.25A.29.29,0,0,0,196.72,62.7Z"/><path class="cls-23" d="M209.16,52.7a.24.24,0,0,1-.48,0,.24.24,0,1,1,.48,0Z"/><path class="cls-23" d="M213.9,76.44a.24.24,0,1,1-.48,0,.24.24,0,1,1,.48,0Z"/><path class="cls-23" d="M191.92,78.51a.24.24,0,1,1-.48,0,.24.24,0,1,1,.48,0Z"/><path class="cls-23" d="M183.8,86.78a.24.24,0,1,1-.48,0,.24.24,0,1,1,.48,0Z"/><path class="cls-23" d="M181.41,59.49a.27.27,0,0,0-.24.25.28.28,0,0,0-.24-.25.29.29,0,0,0,.24-.25A.28.28,0,0,0,181.41,59.49Z"/><path class="cls-23" d="M179.2,44.66a.29.29,0,0,0-.24.25.28.28,0,0,0-.24-.25.27.27,0,0,0,.24-.25A.28.28,0,0,0,179.2,44.66Z"/><path class="cls-23" d="M170.42,56.2a.28.28,0,0,0-.24.25.29.29,0,0,0-.24-.25.28.28,0,0,0,.24-.25A.27.27,0,0,0,170.42,56.2Z"/><path class="cls-23" d="M185.44,51.3a.24.24,0,1,1-.48,0,.24.24,0,1,1,.48,0Z"/><path class="cls-23" d="M185.68,41.2a.28.28,0,0,0-.24.25.27.27,0,0,0-.24-.25.28.28,0,0,0,.24-.25A.29.29,0,0,0,185.68,41.2Z"/><path class="cls-23" d="M182.05,34.9a.28.28,0,0,0-.24.25.27.27,0,0,0-.24-.25.28.28,0,0,0,.24-.25A.29.29,0,0,0,182.05,34.9Z"/><path class="cls-23" d="M179.06,26.15a.29.29,0,0,0-.25.25.28.28,0,0,0-.24-.25.28.28,0,0,0,.24-.25A.29.29,0,0,0,179.06,26.15Z"/><path class="cls-23" d="M185.92,10.47a.29.29,0,0,0-.24.25.28.28,0,0,0-.24-.25.27.27,0,0,0,.24-.25A.28.28,0,0,0,185.92,10.47Z"/><path class="cls-23" d="M188.64,17.31a.24.24,0,1,1-.48,0,.24.24,0,1,1,.48,0Z"/><path class="cls-23" d="M193.62,23.58a.29.29,0,0,0-.24.25.28.28,0,0,0-.24-.25.28.28,0,0,0,.24-.25A.29.29,0,0,0,193.62,23.58Z"/><path class="cls-23" d="M196.48,18.37a.24.24,0,1,1-.48,0,.24.24,0,1,1,.48,0Z"/><path class="cls-23" d="M177.11,15.41a.24.24,0,1,1-.48,0,.24.24,0,1,1,.48,0Z"/><path class="cls-23" d="M168.94,10.22a.29.29,0,0,0-.24.25.28.28,0,0,0-.24-.25.27.27,0,0,0,.24-.25A.28.28,0,0,0,168.94,10.22Z"/><path class="cls-23" d="M209.4,65.1a.24.24,0,1,1-.48,0,.24.24,0,0,1,.48,0Z"/><path class="cls-23" d="M225.92,101.68a.29.29,0,0,0-.25.25.28.28,0,0,0-.24-.25.27.27,0,0,0,.24-.25A.28.28,0,0,0,225.92,101.68Z"/><path class="cls-23" d="M208.92,127.15a.28.28,0,0,0-.24.25.29.29,0,0,0-.24-.25.28.28,0,0,0,.24-.25A.27.27,0,0,0,208.92,127.15Z"/><path class="cls-23" d="M212.74,147.52a.27.27,0,0,0-.24.25.28.28,0,0,0-.25-.25.29.29,0,0,0,.25-.25A.28.28,0,0,0,212.74,147.52Z"/><path class="cls-23" d="M241.61,152.18a.24.24,0,1,1-.48,0,.24.24,0,1,1,.48,0Z"/><path class="cls-23" d="M241.61,94.39a.24.24,0,1,1-.48,0,.24.24,0,1,1,.48,0Z"/><path class="cls-23" d="M215.49,86.53a.24.24,0,1,1-.48,0,.24.24,0,1,1,.48,0Z"/><path class="cls-23" d="M241.37,35.15a.27.27,0,0,0-.24.25.28.28,0,0,0-.24-.25.29.29,0,0,0,.24-.25A.28.28,0,0,0,241.37,35.15Z"/><path class="cls-23" d="M217.24,117.78a.28.28,0,0,0-.24.25.25.25,0,0,1,0-.5A.28.28,0,0,0,217.24,117.78Z"/><path class="cls-23" d="M221.79,126.65a.28.28,0,0,0-.24.25.29.29,0,0,0-.24-.25.28.28,0,0,0,.24-.25A.27.27,0,0,0,221.79,126.65Z"/><path class="cls-23" d="M226.82,133.63a.29.29,0,0,0-.25.25.25.25,0,0,1,0-.5A.29.29,0,0,0,226.82,133.63Z"/><path class="cls-23" d="M232.64,138.93a.29.29,0,0,0-.24.25.28.28,0,0,0-.24-.25.27.27,0,0,0,.24-.25A.28.28,0,0,0,232.64,138.93Z"/><path class="cls-23" d="M228.74,142.69a.28.28,0,0,0-.24.25.29.29,0,0,0-.25-.25.28.28,0,0,0,.25-.25A.27.27,0,0,0,228.74,142.69Z"/><path class="cls-23" d="M217.49,129a.47.47,0,0,0-.4.41.41.41,0,0,1,0-.82A.47.47,0,0,0,217.49,129Z"/><path class="cls-23" d="M202.2,117.78a.4.4,0,1,1-.8,0,.4.4,0,1,1,.8,0Z"/><path class="cls-23" d="M218,99.79a.45.45,0,0,0-.39.41.47.47,0,0,0-.4-.41.48.48,0,0,0,.4-.42A.46.46,0,0,0,218,99.79Z"/><path class="cls-23" d="M227.21,75.69a.45.45,0,0,0-.39.41.47.47,0,0,0-.4-.41.47.47,0,0,0,.4-.41A.45.45,0,0,0,227.21,75.69Z"/><path class="cls-23" d="M221.55,52.28a.4.4,0,1,1-.8,0,.4.4,0,1,1,.8,0Z"/><path class="cls-23" d="M235.74,28.93a.4.4,0,1,1-.8,0,.4.4,0,1,1,.8,0Z"/><path class="cls-23" d="M205.64,5.24a.4.4,0,1,1-.8,0,.4.4,0,1,1,.8,0Z"/><path class="cls-23" d="M243.28,21.54a.4.4,0,1,1-.79,0,.4.4,0,1,1,.79,0Z"/><path class="cls-23" d="M204.3,18.12a.4.4,0,1,1-.8,0,.4.4,0,1,1,.8,0Z"/><path class="cls-23" d="M200,38.63a.45.45,0,0,0-.39.41.47.47,0,0,0-.4-.41.47.47,0,0,0,.4-.41A.45.45,0,0,0,200,38.63Z"/><path class="cls-23" d="M184.53,130.39a.92.92,0,0,0-.79.82.94.94,0,0,0-.8-.82,1,1,0,0,0,.8-.83A.93.93,0,0,0,184.53,130.39Z"/><path class="cls-23" d="M171.75,78.76a.92.92,0,0,0-.79.82.94.94,0,0,0-.8-.82,1,1,0,0,0,.8-.83A.93.93,0,0,0,171.75,78.76Z"/><path class="cls-23" d="M238.8,13.36a1,1,0,0,0-.8.83.93.93,0,0,0-.79-.83.92.92,0,0,0,.79-.82A.94.94,0,0,0,238.8,13.36Z"/><path class="cls-23" d="M244.48,62.7a.8.8,0,1,1-1.6,0,.8.8,0,1,1,1.6,0Z"/><path class="cls-23" d="M241.37,131.43a.8.8,0,1,1-1.59,0,.8.8,0,1,1,1.59,0Z"/><path class="cls-23" d="M171.35,107.22a.92.92,0,0,0-.79.82.94.94,0,0,0-.8-.82,1,1,0,0,0,.8-.83A.93.93,0,0,0,171.35,107.22Z"/><path class="cls-23" d="M171,24.54a.94.94,0,0,0-.8.82.94.94,0,0,0-.8-.82,1,1,0,0,0,.8-.83A1,1,0,0,0,171,24.54Z"/><path class="cls-23" d="M179.61,4.06a1,1,0,0,0-.8.83.93.93,0,0,0-.79-.83.92.92,0,0,0,.79-.82A.94.94,0,0,0,179.61,4.06Z"/><path class="cls-23" d="M214.46,16.24a.8.8,0,1,1-1.6,0,.8.8,0,1,1,1.6,0Z"/><path class="cls-23" d="M215.25,39a.93.93,0,0,0-.79.83,1,1,0,0,0-.8-.83.94.94,0,0,0,.8-.82A.92.92,0,0,0,215.25,39Z"/><path class="cls-23" d="M229.2,4.45a.37.37,0,1,1-.74,0,.37.37,0,1,1,.74,0Z"/><path class="cls-23" d="M217.37,27.84a.43.43,0,0,0-.37.38.44.44,0,0,0-.38-.38.44.44,0,0,0,.38-.38A.43.43,0,0,0,217.37,27.84Z"/><path class="cls-23" d="M191.81,39.87a.37.37,0,1,1-.74,0,.37.37,0,1,1,.74,0Z"/><path class="cls-23" d="M204.27,28.14a.43.43,0,0,0-.37.38.42.42,0,0,0-.37-.38.43.43,0,0,0,.37-.39A.45.45,0,0,0,204.27,28.14Z"/><path class="cls-23" d="M214.83,3.24a.42.42,0,0,0-.37.38.44.44,0,0,0-.38-.38.45.45,0,0,0,.38-.39A.43.43,0,0,0,214.83,3.24Z"/><path class="cls-23" d="M198.88,5.65a.37.37,0,1,1-.74,0,.37.37,0,1,1,.74,0Z"/><path class="cls-23" d="M243.25,4.83a.44.44,0,0,0-.37.38.43.43,0,0,0-.37-.38.43.43,0,0,0,.37-.38A.44.44,0,0,0,243.25,4.83Z"/><path class="cls-23" d="M173.38,69.5a.37.37,0,1,1-.74,0,.37.37,0,1,1,.74,0Z"/><path class="cls-23" d="M244.05,112a.37.37,0,1,1-.74,0,.37.37,0,1,1,.74,0Z"/><path class="cls-23" d="M179.43,147.52a.42.42,0,0,0-.37.38.44.44,0,0,0-.38-.38.45.45,0,0,0,.38-.39A.43.43,0,0,0,179.43,147.52Z"/><path class="cls-23" d="M170.5,153.94a.37.37,0,1,1-.74,0,.37.37,0,1,1,.74,0Z"/><path class="cls-23" d="M175.66,139.53a.4.4,0,1,1-.8,0,.4.4,0,1,1,.8,0Z"/><path class="cls-23" d="M192.32,148.31a.4.4,0,1,1-.8,0,.4.4,0,1,1,.8,0Z"/><path class="cls-23" d="M171.35,92.38a.45.45,0,0,0-.39.41.47.47,0,0,0-.4-.41A.47.47,0,0,0,171,92,.45.45,0,0,0,171.35,92.38Z"/><path class="cls-23" d="M222,10.22a.4.4,0,1,1-.8,0,.4.4,0,1,1,.8,0Z"/><path class="cls-23" d="M238.8,46.07a.4.4,0,1,1-.8,0,.4.4,0,1,1,.8,0Z"/><path class="cls-23" d="M194.83,50a.4.4,0,1,1-.8,0,.4.4,0,1,1,.8,0Z"/><path class="cls-23" d="M188.21,47.27a.4.4,0,1,1-.8,0,.4.4,0,1,1,.8,0Z"/><path class="cls-23" d="M231.15,147.52a.27.27,0,0,0-.24.25.28.28,0,0,0-.24-.25.29.29,0,0,0,.24-.25A.28.28,0,0,0,231.15,147.52Z"/></g><g class="cls-24"><circle class="cls-25" cx="100.34" cy="80.77" r="57.17" transform="translate(-23.8 46.39) rotate(-23.35)"/><path class="cls-26" d="M145.82,90.43c-6.49,2.88-7.57,1.23-16,0s-8.21-1.58-16.43,0-8.86,2.75-19.89,1-5,0-19,1.73-3,.43-11.89-2.35-5-.46-13.41,0A16.67,16.67,0,0,1,44,90.35a56.77,56.77,0,0,0,4.51,14.5c8.19-.87,6.51-.21,11,1.3s8.87,1.73,16.22,0,10.81,1.95,15.52,3.46,6.53-.43,9.06-4.11,7.85-4.32,12.61-5.62,7.35,2.81,14.43,5.39,11.73,2,18.87-.2a13,13,0,0,1,6-.26,56.91,56.91,0,0,0,5-18.55C151.71,90.9,152.2,87.6,145.82,90.43Z"/><path class="cls-26" d="M154.4,62.14c-.88,0-1.85,0-3,.11-10.17.65-6.49.22-14.92-1.11s-5,2-13.63,0-8-.4-15.56-1.27-15.14,4.54-22.92,1.27S74,61,67.32,60.41s-6.91,7.89-10.59,3.14c-2-2.61-5.9-4.24-9-5.19a57.08,57.08,0,0,0-3.42,11c2.89.12,5.72,1.71,9.38,3.3,5,2.16,4.11,1.08,10.38-.43s4.76-.87,13.62-.87,11,3.89,26,.65,9.51,0,15.57.43,11,2.16,16.86,1.08,8.44-2.38,15.14.44c2.83,1.18,4.61,1.29,6,.84A56.89,56.89,0,0,0,154.4,62.14Z"/><path class="cls-26" d="M151.72,55.69a57.18,57.18,0,0,0-99.27-6.13c4.55-.39,11.81-.83,14.93-.09,4.7,1.11-.92,3.92,14.22.46s10,1.18,18.74,1.67,9.58-.27,17.8,0,8.65,1.36,14.92.17,7.78-1.82,11.67.55C147.36,53.92,148.73,55.62,151.72,55.69Z"/><path class="cls-25" d="M143.8,45.61a18.88,18.88,0,0,0,2.07.6,56.75,56.75,0,0,0-6.17-6.88c-1.3.05-2.84.32-6.14.52-6.29.4-6.83-1.06-12.54-2.89s-5.48.14-17.25,1.65-8,1.81-15.33,0-7.29-.51-15.29-.07a33.87,33.87,0,0,1-10.35-.88Q61,39.24,59.35,40.94a31.63,31.63,0,0,0,9.49-.52c7.06-1.3,4.32.43,9.94.9s5,1.4,13.27,0,10.09,1.26,17.58,1.26,9.52.72,16.72.43S134.28,42.29,143.8,45.61Z"/><path class="cls-27" d="M129,47.77s2.81-1.37,4.32-.79,1.16.29,3.61.79.72,1.73-2.6,1.66-2.52-.72-4.39,0S127.11,48.45,129,47.77Z"/><path class="cls-27" d="M67,45.39a9.6,9.6,0,0,1,4,1c1.8,1,.5,1.87,4.83.43s5.69-1.74,7-1.09,3.32,2.11.36,1.85-3,1.68-5.62,2-4.61.76-6,0-3.53-2.17-5.48-1.89-2.67-.56-1.73-1.3A7.24,7.24,0,0,1,67,45.39Z"/><path class="cls-27" d="M102.82,108.17s5.5-4.53,9-3.75,3.31-.38,6.34,1.83,5.76.33,4.61,3.07-1,1.44-6.34,3.75-10.28,1.73-12.64,0S102.82,108.17,102.82,108.17Z"/><path class="cls-26" d="M125.2,117.83c-5.48,1.73-6.87,1.07-11.1.14s-5.62.72-11.28,1.88-9.91,1.29-14.95-.78-5.34-.52-11.13,0-8.33-2.49-12.78-4.43c-2.88-1.26-7.49-1.16-10.38-.93a57.18,57.18,0,0,0,93.51,0c-5.19.81-8.31,2.41-11.8,2.41C131.54,116.1,130.68,116.1,125.2,117.83Z"/><path class="cls-25" d="M128.52,124.21c-5.19,2.05-3.79.75-8,.62s-5-.08-10.06,1.21-9.19.76-14.27-1.08-5.73.11-14.59,0-4.33,1.19-8.45,0a87.64,87.64,0,0,0-11.24-1.89,57,57,0,0,0,9.42,7c.77-.18,1.54-.39,2.27-.63,3.56-1.19,2.81-.44,6.59-1.09s9.62,2.17,16.33.61,4.07-.17,9-.39,9.62,1,13.51,0,8.54-.32,11.79-1.08a12,12,0,0,1,2.85-.22,56.21,56.21,0,0,0,5.55-4.53C136.26,123,133.7,122.15,128.52,124.21Z"/></g><g class="cls-28"><circle class="cls-29" cx="169.12" cy="40.88" r="12.48"/></g><path class="cls-30" d="M169.53,40.82a11.16,11.16,0,0,1-.33-2.36,10.54,10.54,0,0,1-.33,2.36,13.15,13.15,0,0,1-2.36.24,13,13,0,0,1,2.36.23,10,10,0,0,1,.33,2.29,10.54,10.54,0,0,1,.33-2.29,11.56,11.56,0,0,1,2.2-.23A11.68,11.68,0,0,1,169.53,40.82Z"/><g class="cls-31"><circle class="cls-29" cx="30.56" cy="74.98" r="20.64"/></g><path class="cls-30" d="M31.24,74.88c-.3-.18-.46-3.25-.54-3.9-.09.65-.25,3.72-.54,3.9a22,22,0,0,1-3.92.39,22,22,0,0,1,3.92.39c.29.18.45,3.14.54,3.79.08-.65.24-3.61.54-3.79a19.32,19.32,0,0,1,3.64-.39A19.32,19.32,0,0,1,31.24,74.88Z"/><g class="cls-32"><ellipse class="cls-30" cx="169.12" cy="40.88" rx="2.34" ry="46.32" transform="translate(20.63 131.56) rotate(-45)"/></g><g class="cls-33"><path class="cls-30" d="M136.37,73.63c-.92-.91,13-16.31,31.1-34.4s33.49-32,34.4-31.1-13,16.31-31.1,34.4S137.28,74.55,136.37,73.63Z"/></g><g class="cls-34"><path class="cls-30" d="M44.17,88.66c-.37.37-6.63-5.29-14-12.64s-13-13.61-12.64-14,6.63,5.29,14,12.64S44.54,88.29,44.17,88.66Z"/></g><g class="cls-35"><path class="cls-30" d="M17.55,88.66c-.37-.37,5.29-6.63,12.64-14s13.61-13,14-12.64-5.28,6.64-12.64,14S17.92,89,17.55,88.66Z"/></g><g class="cls-36"><circle class="cls-29" cx="190.86" cy="57.66" r="20.64"/></g><path class="cls-30" d="M191.26,57.7a10.79,10.79,0,0,1-.32-2.3,10.79,10.79,0,0,1-.32,2.3,13.24,13.24,0,0,1-2.3.22,13.37,13.37,0,0,1,2.3.23,10.09,10.09,0,0,1,.32,2.23,10.09,10.09,0,0,1,.32-2.23,11.76,11.76,0,0,1,2.14-.23A11.64,11.64,0,0,1,191.26,57.7Z"/><g class="cls-37"><ellipse class="cls-30" cx="190.86" cy="57.89" rx="0.73" ry="14.41" transform="translate(14.97 151.91) rotate(-45)"/></g><g class="cls-38"><ellipse class="cls-30" cx="190.86" cy="57.89" rx="14.41" ry="0.73" transform="translate(14.97 151.91) rotate(-45)"/></g><g class="cls-39"><path class="cls-29" d="M132.83,99.42a6.61,6.61,0,1,1,6.6,6.61A6.6,6.6,0,0,1,132.83,99.42Z"/></g><path class="cls-30" d="M139.56,99.44a3.08,3.08,0,0,1-.1-.74,4.58,4.58,0,0,1-.1.74,4.43,4.43,0,0,1-.74.07,4.43,4.43,0,0,1,.74.07,4.16,4.16,0,0,1,.1.72,2.84,2.84,0,0,1,.1-.72,3.81,3.81,0,0,1,.68-.07A3.81,3.81,0,0,1,139.56,99.44Z"/><g class="cls-40"><path class="cls-30" d="M142.69,102.76a23.47,23.47,0,0,1-3.42-3.1,23.47,23.47,0,0,1-3.1-3.42,23.23,23.23,0,0,1,3.43,3.1A22.46,22.46,0,0,1,142.69,102.76Z"/></g><g class="cls-41"><path class="cls-30" d="M136.17,102.76a22.89,22.89,0,0,1,3.1-3.42,23.47,23.47,0,0,1,3.42-3.1,23,23,0,0,1-3.09,3.42A23.23,23.23,0,0,1,136.17,102.76Z"/></g><g class="cls-42"><path class="cls-29" d="M95.73,10.94a6.61,6.61,0,1,1,6.6,6.6A6.61,6.61,0,0,1,95.73,10.94Z"/></g><path class="cls-30" d="M102.46,11a2.92,2.92,0,0,1-.1-.73,4.29,4.29,0,0,1-.1.73,4.58,4.58,0,0,1-.74.08,4.43,4.43,0,0,1,.74.07,4,4,0,0,1,.1.71,2.75,2.75,0,0,1,.1-.71,3.91,3.91,0,0,1,.69-.07A4.06,4.06,0,0,1,102.46,11Z"/><g class="cls-43"><path class="cls-30" d="M105.59,14.27a23,23,0,0,1-3.42-3.09,23.47,23.47,0,0,1-3.1-3.42,22.13,22.13,0,0,1,3.43,3.09A23,23,0,0,1,105.59,14.27Z"/></g><g class="cls-44"><path class="cls-30" d="M99.07,14.27a23.47,23.47,0,0,1,3.1-3.42,22.35,22.35,0,0,1,3.42-3.09,23,23,0,0,1-3.09,3.42A22.79,22.79,0,0,1,99.07,14.27Z"/></g><g class="cls-45"><path class="cls-29" d="M226.6,20.34A6.61,6.61,0,1,1,233.2,27,6.6,6.6,0,0,1,226.6,20.34Z"/></g><path class="cls-30" d="M233.33,20.35a4.29,4.29,0,0,1-.1-.73,4.29,4.29,0,0,1-.1.73,3.67,3.67,0,0,1-.74.08,4.43,4.43,0,0,1,.74.07,4,4,0,0,1,.1.71,4,4,0,0,1,.1-.71,3.91,3.91,0,0,1,.69-.07A3.24,3.24,0,0,1,233.33,20.35Z"/><g class="cls-46"><path class="cls-30" d="M236.46,23.68a23.47,23.47,0,0,1-3.42-3.1A22.35,22.35,0,0,1,230,17.16a23,23,0,0,1,3.42,3.09A22.24,22.24,0,0,1,236.46,23.68Z"/></g><g class="cls-47"><path class="cls-30" d="M230,23.68A21.62,21.62,0,0,1,233,20.25a23,23,0,0,1,3.42-3.09,23,23,0,0,1-3.09,3.42A23.47,23.47,0,0,1,230,23.68Z"/></g><path class="cls-48" d="M154.87,123.46s-39.26,1-53.8-.2-46.37-.56-49.43-1-15-1-15-1,17.16-2.08,23.21-2.14,11.15-1.68,13.1-1.87,6.45-1.56,7.4-1.54a32.42,32.42,0,0,1,7.09-.54s5-2,5.44-1.83,2.88-1.5,4.65-1,15.07,3.61,16.32,3.63a65.77,65.77,0,0,1,9.54,1.48c1.13.47,4.46-.1,6.15.69s1.93,1.63,5.55,2.1,13.82,2.44,16.13,2.46A9.57,9.57,0,0,1,154.87,123.46Z"/><path class="cls-49" d="M151.21,122.81c-2.31,0-12.5-2-16.13-2.46s-3.87-1.3-5.55-2.1-5-.22-6.15-.69a65.77,65.77,0,0,0-9.54-1.48c-1.25,0-14.54-3.08-16.32-3.63a3.05,3.05,0,0,0-1.17-.09c-.08.16-.43.92-.07,1.34s1.76.66,2.8,1,1.51.55,2.73.94,2.52.34,4.33.77a13.33,13.33,0,0,1,4.51,1.76c.74.62,3.34.7,4.11,1.64s3.32.89,4.44,1a17.6,17.6,0,0,1,4.56,1,10.59,10.59,0,0,0,3.14.82c1.12.19,4,.18,4.72.39.48.14,2.86.36,5,.81,10.16-.11,18.2-.3,18.2-.3A9.57,9.57,0,0,0,151.21,122.81Z"/><path class="cls-50" d="M132.89,121.93l5,.1-5.36-1-5.34-1.24,0-.69-3.33-1.41h0a2,2,0,0,1-.49-.13,65.77,65.77,0,0,0-9.54-1.48c.73.7,3.21.64,3.54.7s4.21,1.18,4.66,1.37,1.73.8,2.42,1.19,1.48,1.14,1.76,1.3,2.9.26,3.48.46S132.89,121.93,132.89,121.93Z"/><path class="cls-50" d="M87.43,115.23a32.42,32.42,0,0,0-7.09.54c-1,0-5.45,1.35-7.4,1.54s-7,1.8-13.1,1.87-23.21,2.14-23.21,2.14,11.94.55,15,1c.59.08,2.24.12,4.62.14,1.77-.67,3.31-1.23,3.59-1.28.72-.14,6.71-.87,7.6-.9s5.12-.84,6.23-1.66,7.7-1,9.66-1.17,5-.78,6.28-1a2.57,2.57,0,0,0,1.76-1.1l1.49-1.91C92.42,113.23,87.43,115.23,87.43,115.23Z"/><path class="cls-50" d="M86.13,122.65c5.65.11,11,.3,14.94.61,1.53.12,3.34.22,5.34.3-2.42-.58-4.46-1.1-5.6-1.29-2-.34-2.92-1.59-4-2.26s-1.09-1-.92-2.35-.29-2.47-.32-1.93-1.09,1.71-1.5,2.72-1.81,2-3.19,2.69A33.89,33.89,0,0,1,86.13,122.65Z"/><path class="cls-51" d="M250,123v9.31H0V120.14a40.67,40.67,0,0,1,4.39-1.22c6.41-1.24,4.63-2.25,8.55-3a81.63,81.63,0,0,0,8.18-2.51l.67-.23,1.34-.46,1.36-.46,1.36-.46,1.33-.45c.87-.29,1.73-.58,2.53-.83l1.17-.38.56-.17a19.34,19.34,0,0,1,4.09-1c2.76,0,12.94,4.55,14.53,4.13a8.15,8.15,0,0,1,3.4,0c6.42,1.93,13.26,3.89,18.9,5.08l1.24.26,1.21.23.87.15c.57.1,1.13.18,1.66.25l.78.1.71.07h.06l.44,0,.4,0,.6,0h1.11c.31,0,.59,0,.86-.06,5.23-.63,15.17.69,16.6.27s6.42-.06,6.42-.06a44.86,44.86,0,0,0,5.31,1.1h0l.5,0h.06a14.07,14.07,0,0,1,5.41.76,33.5,33.5,0,0,0,7.42,1.69c1.28,0,2.6-1,4.14-1.24a12.74,12.74,0,0,1,4.77.2,11.73,11.73,0,0,0,4.19.12,49.31,49.31,0,0,1,6.21.33c.42,0,7.42.21,8.16.17s1.91-.59,3.18-.88,5.2-.5,5.89-.77a9.81,9.81,0,0,1,3.87-1.09h2.17l6.26-1.48c6.26-1.48,9.76,1.06,11,1.24s4.77-1.12,6.47-2a26.82,26.82,0,0,1,3.51-1.24c1.6-.49,3.6-1.08,6-1.83l2.26-.71a15.65,15.65,0,0,1,4.7-.83,14.56,14.56,0,0,1,2.31.14c.67.09,1.33.22,2,.37l1.16.28,1.19.3c1,.26,2.1.52,3.29.74A74.54,74.54,0,0,0,227,116.44c1.27,0,6.36,2.21,9,2.13s11.45,4,13.43,4.34Z"/><path class="cls-52" d="M250,123v8.63c-4.2-1.06-8.12-2.08-8.53-2.23-.92-.34-5.95-1.36-10.91-3.06s-1-1.87-1.91-3.06-3.2-2.81-8.23-3.31-4.12-.6-6.26-1.79-3-1-5.64-1.36-4-1-4.12-1.7,2.34-1.85,2.44-1.9a18,18,0,0,1,4.3.51l1.16.28,1.19.3c1,.26,2.1.52,3.29.74A74.54,74.54,0,0,0,227,116.44c1.27,0,6.36,2.21,9,2.13s11.45,4,13.43,4.34Z"/><path class="cls-52" d="M35.53,111c2.47.85,4,2.55,4.15,3.31s6.56,3.23,7.62,3.57A23.85,23.85,0,0,1,54.63,122c2.28,2.13,9.45,3,12.2,3.57s10.83.85,13.11,2,12.82,2.47,14.19,2.55c.77,0,8.65,1.16,15.89,2.23h63.61a21.62,21.62,0,0,1-6.42-.95c-3.05-1.28-6.56-1.7-9.46-2.21s-28.08-.77-31.13-2-10.07-1.53-10.07-1.53l-7.17.25s-5.34-1.44-8.39-2.63a39.9,39.9,0,0,0-10.52-2.58c-2.9-.14-9-1.25-9-1.25h0c-5.64.22-17.38-3-28-6.23a8.15,8.15,0,0,0-3.4,0c-1.59.42-11.77-4.13-14.53-4.13C35.53,109.05,33.07,110.16,35.53,111Z"/><path class="cls-52" d="M176.8,122.73c-4.27.85-7,3.75-4.88,2.47s5.49-.42,7.77-1.1,5.65-2.89,6.41-3.06,5.49-.94,7.63-2.13,3.81-1,4.39-2a20.68,20.68,0,0,1,1.76-2.23h0c-4.79,1.5-8,2.35-9.51,3.07-1.7.83-5.2,2.13-6.47,2A18.86,18.86,0,0,1,176.8,122.73Z"/><path class="cls-52" d="M30.37,112c-1.37.57-4.23,1.33-5,2.23a10.62,10.62,0,0,1-4.23,2.36c-2.06.76-7.67,2.49-8.7,4S6.35,125,6.35,125s-4.8,3.06-5.26,3.89A10,10,0,0,1,0,130.22V120.14a40.67,40.67,0,0,1,4.39-1.22c6.41-1.24,4.63-2.25,8.55-3a81.63,81.63,0,0,0,8.18-2.51l.67-.23,1.34-.46,1.36-.46,1.36-.46,1.33-.45c.87-.29,1.73-.58,2.53-.83l1.17-.38.56-.17A1.79,1.79,0,0,1,30.37,112Z"/><path class="cls-52" d="M132.94,122.12a12.53,12.53,0,0,0-4.77-.21c-1.54.29-2.86,1.24-4.14,1.24a34,34,0,0,1-7.42-1.68,13.91,13.91,0,0,0-5.41-.77l-.57,0,2.22,1.56s1.37.57,2.29.89a21.83,21.83,0,0,0,3.66.7c2.86.51,2.74,1,6.75,1.34s6.63.58,7.89.77,6.75.25,9.61.63,6.18.13,8,.32a88.42,88.42,0,0,1,9.72,1.28c2.4.64,4.63.54-2.34-1.15s-10.47-1.82-10.81-2a30.22,30.22,0,0,0-4.12-1,16.81,16.81,0,0,1-3.38-.8c-1.66-.57-3-.89-3-.89A11.94,11.94,0,0,1,132.94,122.12Z"/><path class="cls-52" d="M180.91,132.28h11.6s-.16-1.46.91-1.89,2-.42,2.59-1.87,6.66-9.24,6.51-10.71a47.37,47.37,0,0,0-5.28,4,34.35,34.35,0,0,1-6.72,4.76C188.08,127.93,183.2,132.28,180.91,132.28Z"/><path class="cls-52" d="M16.34,132.28a17.39,17.39,0,0,1,5.49-3.76c2.75-.93,6.85-8.19,8.37-9.13s1.68-.17,0,1.28-2.88,8.19-3.18,9.21-.61,2.4-.61,2.4Z"/><rect class="cls-53" y="132.54" width="250" height="27.36"/><path class="cls-54" d="M0,140.94s42.25-.78,48.5,0,38.75,2,49.5,2.15,49.5,1.37,57.25,1.37-1.5,2.15-30.25,1.76-27.83.52-27,1.17,17.33,2.35,24.33,2.09,15.34.65,12.17,1.82,8.5,4.69,15.33,4.43,57.17,1.3,53.17,2,27.83-.79,29.33,2.21H0Z"/><path class="cls-55" d="M60.5,135c3.67.41,27.17.89,28.83,1.93s45.84,1,49.17,1.43-15.33.52-11.83,2.34,48,.14,54.5-.1,19.16.37,28.66,0,23.84-.24,26.84,0S250,140,250,140v-7.43H53.22C43.33,134.4,57.13,134.66,60.5,135Z"/><path class="cls-55" d="M0,132.54v4.77c5.88-.67,20.89,2.37,24.17,2.07,3.5-.33,22.66.78,25.54.33s31.46,1.88,38,1.87,19.92-.12,19.81-.38-3.31-.94-8.93-.6-23.38,0-32.5-2.39S40,136.74,44.63,135s-19.38-1.62-19.38-1.62l1.43-.88Z"/><path class="cls-55" d="M250,141.6c-3.25.11-17.64.58-23.83.58-7,0-57.31.45-55.17,1.43,2.38,1.1.17,4-11.67,4.43s-16,.63-16.16,2.21S165,151.43,168,151.3s40,1.17,38.49,2.61,9,1.43,14.51,1.69c5.16.25,14.28,2.09,29,1.68Z"/><path class="cls-54" d="M110.69,131.17c-2.26.16-4.76.16-6.13.16H90.74c-1.95,0-8.79,1.55-13.56,2.51-46.55,0-55.19,3.25-77.18,1.91V124.49c1.82-.22,4.48-.52,6-.59,2.42-.1,5.74-1.54,7.67-.9s7,.51,9,.79,6.28.33,7.8.33c1.25,0,5.44-.33,8-.36h0c.57,0,1.07,0,1.42,0,2,.15,2.75,0,5.62.36a41.36,41.36,0,0,0,7.36.58,57.93,57.93,0,0,1,6,0c2.21.06,7.95,1.19,11.48.83s7.36.28,9.51.07a32.9,32.9,0,0,1,8.38,1A15.61,15.61,0,0,0,92.69,128a37.21,37.21,0,0,1,6.81.78,48.26,48.26,0,0,0,6,1.2C106.28,130,108.64,130.76,110.69,131.17Z"/><path class="cls-54" d="M250,125.24v8.6c-51.5,2.89-94.5,4.54-172.82,0,4.77-1,11.61-2.51,13.56-2.51h13.82c1.37,0,3.87,0,6.13-.16a22.33,22.33,0,0,0,3.11-.37c2.51-.53,9.15-1.06,11.2-1.49a124.35,124.35,0,0,1,13-.74,28.92,28.92,0,0,0,7.17-1.38,34.81,34.81,0,0,1,9.87.1c2.78.65,4.93-.31,6.64-.52s4.58-.22,5.92-.5,4.48.82,6.46.71a76.94,76.94,0,0,1,8,.53c2.78.21,3,.53,5,0a44.09,44.09,0,0,1,6.81-1.07c1.71-.1,3.86,0,6.37,0s3.32-.1,7.53-1.08,3.59.13,6.73-.49,6.1,1,9.16.28,9.23.34,10.93.08,6.46.16,9.6,0C246,125.22,248.28,125.23,250,125.24Z"/><path class="cls-56" d="M149.58,159.9H0v-6.55H12.83c4.25,0,7.75-1,11,0s0,0,7.5,0,9.75-1.64,15-.44,16.5.25,21,.22,8-2,15.75,0,13.75.11,20.75.66,8.25-1,11.5.27,6.75.54,11.5,1,4.3.88,14.25,2.82C146.86,159,148,159.55,149.58,159.9Z"/><path class="cls-56" d="M250,151.68v8.22H150.74c1.94-.2,3.52-.48,3.92-.88,1.17-1.17,1.5-.17,3.42-1s2.83-.25,4.08-.84,4.34-.08,7,.59,10,.08,12-.59,3.34-1.08,6.42-2.24,3.67-.59,7-1.26,4.67-.25,6.58-.58,7.59.5,8.92.5,3.08-1.58,4.67-2.48,4.41.9,4.91,1.23,3.92.42,5.5.92,2.5.91,3.75.75,2.09-1,3.84-2,3-.5,4-.83,2.33.49,4.16,1.41,1.17.17,3,.17a10.24,10.24,0,0,0,3.92-.59C248.82,151.93,249.45,151.79,250,151.68Z"/><polygon class="cls-57" points="66.27 146.98 70.83 141.56 99.49 145.04 125.84 141.56 132.85 145.97 99.84 151.06 66.27 146.98"/><polygon class="cls-53" points="70.83 141.56 87.13 139.1 105.3 139.1 125.84 141.56 99.49 145.04 70.83 141.56"/><polygon class="cls-54" points="87.13 142.07 81.72 142.88 99.49 145.04 114.05 143.12 105.3 142.07 87.13 142.07"/><polygon class="cls-58" points="105.3 139.1 105.28 139.1 105 142.07 114.05 143.12 125.84 141.56 105.3 139.1"/><polygon class="cls-58" points="87.13 139.1 87.13 142.07 81.72 142.88 70.83 141.56 87.13 139.1"/><path class="cls-49" d="M83.55,142.61l3.56-.63h0c3,0,6-.07,8.93-.08,1.49,0,3,0,4.47,0l4.47,0h0c2.25.29,4.48.61,6.72.94q-3.37-.31-6.75-.69h0l-4.47,0c-1.49,0-3,0-4.47,0-3,0-6,0-8.93-.08h0Z"/><polygon class="cls-57" points="14.92 140.73 16.92 138.35 29.49 139.87 41.04 138.35 44.12 140.28 29.64 142.51 14.92 140.73"/><polygon class="cls-53" points="16.92 138.35 24.07 137.27 32.04 137.27 41.04 138.35 29.49 139.87 16.92 138.35"/><polygon class="cls-54" points="24.07 138.57 21.7 138.93 29.49 139.87 35.87 139.03 32.04 138.57 24.07 138.57"/><polygon class="cls-58" points="32.04 137.27 32.03 137.27 31.91 138.57 35.87 139.03 41.04 138.35 32.04 137.27"/><polygon class="cls-58" points="24.07 137.27 24.07 138.57 21.7 138.93 16.92 138.35 24.07 137.27"/><path class="cls-49" d="M22.5,138.81l1.56-.28h0c1.3,0,2.61,0,3.92,0h3.92c1,.12,2,.26,2.95.41-1-.1-2-.19-3-.31H30c-.66,0-1.31,0-2,0-1.31,0-2.62,0-3.92,0h0Z"/><polygon class="cls-57" points="142.69 154.59 144.38 152.58 155 153.87 164.76 152.58 167.36 154.22 155.13 156.1 142.69 154.59"/><polygon class="cls-53" points="144.38 152.58 150.42 151.67 157.15 151.67 164.76 152.58 155 153.87 144.38 152.58"/><polygon class="cls-54" points="150.42 152.77 148.42 153.07 155 153.87 160.39 153.16 157.15 152.77 150.42 152.77"/><polygon class="cls-58" points="157.15 151.67 157.14 151.67 157.04 152.77 160.39 153.16 164.76 152.58 157.15 151.67"/><polygon class="cls-58" points="150.42 151.67 150.42 152.77 148.42 153.07 144.38 152.58 150.42 151.67"/><path class="cls-49" d="M149.09,153l1.33-.23h0c1.1,0,2.21,0,3.31,0,.55,0,1.1,0,1.66,0h1.66l2.49.35-2.5-.25h-3.31c-1.1,0-2.21,0-3.31,0h0Z"/><polygon class="cls-57" points="190.86 143.9 193.38 140.89 209.26 142.82 223.85 140.89 227.73 143.33 209.45 146.15 190.86 143.9"/><polygon class="cls-53" points="193.38 140.89 202.41 139.53 212.47 139.53 223.85 140.89 209.26 142.82 193.38 140.89"/><polygon class="cls-54" points="202.41 141.17 199.42 141.63 209.26 142.82 217.32 141.75 212.47 141.17 202.41 141.17"/><polygon class="cls-58" points="212.47 139.53 212.46 139.53 212.31 141.17 217.32 141.75 223.85 140.89 212.47 139.53"/><polygon class="cls-58" points="202.41 139.53 202.41 141.17 199.42 141.63 193.38 140.89 202.41 139.53"/><path class="cls-49" d="M200.43,141.47l2-.34h0c1.65,0,3.3,0,5,0h5c1.24.17,2.48.34,3.72.53-1.25-.12-2.5-.25-3.74-.39h0l-2.48,0c-.82,0-1.65,0-2.47,0-1.65,0-3.3,0-5,0h0Z"/><g class="cls-59"><path class="cls-60" d="M184.74,147.23a12.3,12.3,0,0,1-3,1.26c-1.56.41-10.46,1.49-15.31-.51-4.26-1.77.47-1.86,3-2.39s7.64.83,7.64.83Z"/></g><path class="cls-54" d="M184.74,147.23c-4.33,1.63-12.28,1.42-12.28,1.42-4.68-.42-5.78-2.29-5.78-2.29,1.17-1.81,4.86-2.88,4.86-2.88a38.73,38.73,0,0,0,9.12.34A7.79,7.79,0,0,1,184.74,147.23Z"/><path class="cls-53" d="M180.66,143.82a38.73,38.73,0,0,1-9.12-.34,17.59,17.59,0,0,1,5.81-.23C181,143.53,180.66,143.82,180.66,143.82Z"/><path class="cls-53" d="M180.87,143.89c1,.9,2.81,2.7,2,3.88a14.46,14.46,0,0,0,1.82-.54A7.91,7.91,0,0,0,180.87,143.89Z"/><path class="cls-53" d="M174.89,143.52c2.86.19,3.6,0,3.69-.16l-1.23-.11a24.38,24.38,0,0,0-4.66,0C173.3,143.37,174,143.46,174.89,143.52Z"/><path class="cls-57" d="M181.8,148c-3.76.66-10.29.07-11.75-1.63-.91-1.07-.11-2,.63-2.61-1.16.43-3.19,1.33-4,2.59,0,0,1.1,1.87,5.78,2.29A52.94,52.94,0,0,0,181.8,148Z"/><g class="cls-59"><path class="cls-60" d="M244.35,147.77a7.23,7.23,0,0,1-1.65.7c-.87.22-5.83.83-8.54-.29-2.38-1,.26-1,1.67-1.33a13,13,0,0,1,4.27.46Z"/></g><path class="cls-54" d="M244.35,147.77c-2.41.91-6.85.79-6.85.79-2.61-.24-3.22-1.28-3.22-1.28.65-1,2.71-1.61,2.71-1.61a21.67,21.67,0,0,0,5.09.19A4.31,4.31,0,0,1,244.35,147.77Z"/><path class="cls-53" d="M242.08,145.86a21.67,21.67,0,0,1-5.09-.19,9.85,9.85,0,0,1,3.24-.13C242.25,145.7,242.08,145.86,242.08,145.86Z"/><path class="cls-53" d="M242.19,145.9c.58.5,1.57,1.51,1.15,2.17.36-.09.7-.19,1-.3A4.37,4.37,0,0,0,242.19,145.9Z"/><path class="cls-53" d="M238.86,145.69c1.59.11,2,0,2.06-.08l-.69-.07a13.08,13.08,0,0,0-2.6,0C238,145.61,238.37,145.66,238.86,145.69Z"/><path class="cls-57" d="M242.71,148.2c-2.1.37-5.74,0-6.55-.91-.51-.6-.06-1.14.35-1.46a4.86,4.86,0,0,0-2.23,1.45s.61,1,3.22,1.28A30.25,30.25,0,0,0,242.71,148.2Z"/><g class="cls-59"><path class="cls-60" d="M16.76,149.52a9.91,9.91,0,0,1-2.33,1c-1.23.32-8.24,1.17-12.06-.41-3.36-1.38.36-1.46,2.36-1.88s6,.66,6,.66Z"/></g><path class="cls-54" d="M16.76,149.52c-3.41,1.28-9.67,1.12-9.67,1.12-3.7-.34-4.56-1.81-4.56-1.81.92-1.43,3.83-2.27,3.83-2.27a30.16,30.16,0,0,0,7.19.27A6.14,6.14,0,0,1,16.76,149.52Z"/><path class="cls-53" d="M13.55,146.83a30.16,30.16,0,0,1-7.19-.27,13.65,13.65,0,0,1,4.58-.18C13.78,146.6,13.55,146.83,13.55,146.83Z"/><path class="cls-53" d="M13.71,146.88c.81.71,2.21,2.13,1.62,3.07.51-.13,1-.27,1.43-.43A6.23,6.23,0,0,0,13.71,146.88Z"/><path class="cls-53" d="M9,146.59c2.25.15,2.83,0,2.91-.12l-1-.09a19.11,19.11,0,0,0-3.67,0C7.74,146.48,8.31,146.54,9,146.59Z"/><path class="cls-57" d="M14.44,150.13c-3,.52-8.1.06-9.25-1.28-.72-.84-.09-1.61.49-2.06a6.86,6.86,0,0,0-3.15,2s.86,1.47,4.56,1.81A42.43,42.43,0,0,0,14.44,150.13Z"/><g class="cls-59"><path class="cls-60" d="M60,136.53a4.23,4.23,0,0,1-1,.43,11.45,11.45,0,0,1-5.18-.18c-1.44-.59.16-.62,1-.81a7.88,7.88,0,0,1,2.58.28Z"/></g><path class="cls-54" d="M60,136.53a14.31,14.31,0,0,1-4.15.48c-1.59-.14-2-.78-2-.78a3.6,3.6,0,0,1,1.65-1,12.79,12.79,0,0,0,3.08.11A2.63,2.63,0,0,1,60,136.53Z"/><path class="cls-53" d="M58.64,135.37a12.79,12.79,0,0,1-3.08-.11,6,6,0,0,1,2-.08C58.75,135.28,58.64,135.37,58.64,135.37Z"/><path class="cls-53" d="M58.71,135.4c.35.3.95.91.7,1.31a4.42,4.42,0,0,0,.61-.18A2.67,2.67,0,0,0,58.71,135.4Z"/><path class="cls-53" d="M56.69,135.27c1,.07,1.22,0,1.25-.05l-.42,0a8.51,8.51,0,0,0-1.57,0C56.15,135.22,56.4,135.25,56.69,135.27Z"/><path class="cls-57" d="M59,136.79c-1.27.23-3.48,0-4-.55-.31-.36,0-.69.22-.88a3,3,0,0,0-1.36.87s.37.64,2,.78A17.45,17.45,0,0,0,59,136.79Z"/><g class="cls-59"><path class="cls-60" d="M55.62,150.31a4.23,4.23,0,0,1-1,.43,11.45,11.45,0,0,1-5.18-.18c-1.44-.59.16-.62,1-.8A7.71,7.71,0,0,1,53,150Z"/></g><path class="cls-54" d="M55.62,150.31a14.31,14.31,0,0,1-4.15.48c-1.59-.14-2-.78-2-.78a3.58,3.58,0,0,1,1.64-1,12.87,12.87,0,0,0,3.09.11A2.63,2.63,0,0,1,55.62,150.31Z"/><path class="cls-53" d="M54.24,149.15a12.87,12.87,0,0,1-3.09-.11,6.09,6.09,0,0,1,2-.08C54.34,149.06,54.24,149.15,54.24,149.15Z"/><path class="cls-53" d="M54.31,149.18c.35.3.95.91.7,1.31a5.43,5.43,0,0,0,.61-.18A2.67,2.67,0,0,0,54.31,149.18Z"/><path class="cls-53" d="M52.29,149.05c1,.07,1.22,0,1.25-.05l-.42,0a8.62,8.62,0,0,0-1.58,0C51.75,149,52,149,52.29,149.05Z"/><path class="cls-57" d="M54.63,150.57c-1.28.23-3.49,0-4-.55-.31-.36,0-.69.21-.88a3,3,0,0,0-1.35.87s.37.64,2,.78A17.45,17.45,0,0,0,54.63,150.57Z"/></g></g></g></svg>