<svg xmlns="http://www.w3.org/2000/svg" xmlns:xlink="http://www.w3.org/1999/xlink" viewBox="0 0 250 160"><defs><style>.cls-1{fill:url(#radial-gradient);}.cls-2{fill:url(#linear-gradient);}.cls-3{fill:url(#radial-gradient-2);}.cls-4{fill:url(#radial-gradient-3);}.cls-5{fill:url(#radial-gradient-4);}.cls-6{fill:url(#radial-gradient-5);}.cls-7{fill:url(#radial-gradient-6);}.cls-8{fill:url(#radial-gradient-7);}.cls-9{fill:url(#radial-gradient-8);}.cls-10{fill:url(#radial-gradient-9);}.cls-11{fill:url(#radial-gradient-10);}.cls-12{fill:url(#radial-gradient-11);}.cls-13{fill:url(#linear-gradient-2);}.cls-14{fill:url(#radial-gradient-12);}.cls-15{fill:url(#radial-gradient-13);}.cls-16{fill:url(#radial-gradient-14);}.cls-17{fill:url(#radial-gradient-15);}.cls-18{fill:url(#radial-gradient-16);}.cls-19{fill:url(#radial-gradient-17);}.cls-20{fill:url(#radial-gradient-18);}.cls-21{fill:url(#radial-gradient-19);}.cls-22{fill:url(#radial-gradient-20);}.cls-23{fill:url(#radial-gradient-21);}.cls-24{fill:url(#radial-gradient-22);}.cls-25{fill:url(#radial-gradient-23);}.cls-26{fill:url(#radial-gradient-24);}.cls-27{fill:url(#radial-gradient-25);}.cls-28{fill:url(#radial-gradient-26);}.cls-29{fill:url(#radial-gradient-27);}.cls-30{fill:url(#radial-gradient-28);}.cls-31{fill:url(#radial-gradient-29);}.cls-32{fill:url(#radial-gradient-30);}.cls-33{fill:url(#radial-gradient-31);}.cls-34{fill:url(#radial-gradient-32);}.cls-35{fill:url(#radial-gradient-33);}.cls-36{fill:url(#radial-gradient-34);}.cls-37{isolation:isolate;}.cls-38{fill:url(#linear-gradient-3);}.cls-39{mask:url(#mask);}.cls-40{fill:#eb5d47;}.cls-41{fill:#500c23;}.cls-42{fill:#6f112b;}.cls-43{mask:url(#mask-2);}.cls-44{mask:url(#mask-3);}.cls-45{mix-blend-mode:screen;}.cls-46{fill:#414042;}.cls-47{mask:url(#mask-4);}.cls-48{fill:#b4619e;}.cls-49{fill:#fff;}.cls-50{mask:url(#mask-5);}.cls-51{mask:url(#mask-6);}.cls-52{mask:url(#mask-7);}.cls-53{mask:url(#mask-8);}.cls-54{mask:url(#mask-9);}.cls-55{mask:url(#mask-10);}.cls-56{mask:url(#mask-11);}.cls-57{mask:url(#mask-12);}.cls-58{mask:url(#mask-13);}.cls-59{mask:url(#mask-14);}.cls-60{mask:url(#mask-15);}.cls-61{mask:url(#mask-16);}.cls-62{mask:url(#mask-17);}.cls-63{mask:url(#mask-18);}.cls-64{mask:url(#mask-19);}.cls-65{mask:url(#mask-20);}.cls-66{mask:url(#mask-21);}.cls-67{mask:url(#mask-22);}.cls-68{mask:url(#mask-23);}.cls-69{mask:url(#mask-24);}.cls-70{mask:url(#mask-25);}.cls-71{mask:url(#mask-26);}.cls-72{mask:url(#mask-27);}.cls-73{mask:url(#mask-28);}.cls-74{mask:url(#mask-29);}.cls-75{mask:url(#mask-30);}.cls-76{mask:url(#mask-31);}.cls-77{mask:url(#mask-32);}.cls-78{mask:url(#mask-33);}.cls-79{mask:url(#mask-34);}.cls-80{mask:url(#mask-35);}.cls-81{mask:url(#mask-36);}.cls-82{mix-blend-mode:saturation;fill:url(#New_Gradient_Swatch_13);}</style><radialGradient id="radial-gradient" cx="104.09" cy="143.2" r="108.13" gradientUnits="userSpaceOnUse"><stop offset="0.41"/><stop offset="0.46" stop-color="#040404"/><stop offset="0.51" stop-color="#0f1111"/><stop offset="0.57" stop-color="#222527"/><stop offset="0.62" stop-color="#3d4345"/><stop offset="0.68" stop-color="#5f686c"/><stop offset="0.74" stop-color="#8a969b"/><stop offset="0.79" stop-color="#bacbd2"/><stop offset="0.82" stop-color="#d3e6ee"/><stop offset="1" stop-color="#fff"/></radialGradient><linearGradient id="linear-gradient" x1="-174.1" y1="23.9" x2="-174.1" y2="16.64" gradientTransform="translate(234.95 156.08) rotate(45)" gradientUnits="userSpaceOnUse"><stop offset="0" stop-color="#fff"/><stop offset="1"/></linearGradient><radialGradient id="radial-gradient-2" cx="-258.74" cy="-7559.3" r="2.38" gradientTransform="translate(-219.29 1384.51) rotate(45) scale(2.88 0.15)" gradientUnits="userSpaceOnUse"><stop offset="0" stop-color="#6d6e71"/><stop offset="0.59"/></radialGradient><radialGradient id="radial-gradient-3" cx="-207.06" cy="-7379.59" r="2.38" gradientTransform="translate(-1148.23 -254.83) rotate(135) scale(2.88 0.15)" xlink:href="#radial-gradient-2"/><radialGradient id="radial-gradient-4" cx="192.65" cy="16.05" r="4.01" gradientUnits="userSpaceOnUse"><stop offset="0" stop-color="#414042"/><stop offset="0.77" stop-color="#020202"/><stop offset="0.99"/></radialGradient><radialGradient id="radial-gradient-5" cx="-235.13" cy="-8667.78" r="0.97" xlink:href="#radial-gradient-2"/><radialGradient id="radial-gradient-6" cx="-263.03" cy="-7847.14" r="0.97" gradientTransform="translate(-1148.23 -254.83) rotate(135) scale(2.88 0.15)" xlink:href="#radial-gradient-2"/><radialGradient id="radial-gradient-7" cx="59.02" cy="129.63" r="4.01" xlink:href="#radial-gradient-4"/><radialGradient id="radial-gradient-8" cx="-240.06" cy="-7464.21" r="0.97" xlink:href="#radial-gradient-2"/><radialGradient id="radial-gradient-9" cx="-202.26" cy="-7749.56" r="0.97" gradientTransform="translate(-1148.23 -254.83) rotate(135) scale(2.88 0.15)" xlink:href="#radial-gradient-2"/><radialGradient id="radial-gradient-10" cx="78.01" cy="58.07" r="4.01" xlink:href="#radial-gradient-4"/><radialGradient id="radial-gradient-11" cx="-252.98" cy="-7905.09" r="0.97" gradientTransform="matrix(0, 2.88, -0.15, 0, -1070.12, 785.79)" xlink:href="#radial-gradient-2"/><linearGradient id="linear-gradient-2" x1="-66.37" y1="-6.46" x2="-66.37" y2="-13.72" xlink:href="#linear-gradient"/><radialGradient id="radial-gradient-12" cx="-224.52" cy="-7493.58" r="0.97" gradientTransform="translate(-567.79 -1030.25) rotate(180) scale(2.88 0.15)" xlink:href="#radial-gradient-2"/><radialGradient id="radial-gradient-13" cx="10.23" cy="9.72" r="4.01" xlink:href="#radial-gradient-4"/><radialGradient id="radial-gradient-14" cx="-281.53" cy="-7810.44" r="0.97" gradientTransform="matrix(0, 2.88, -0.15, 0, -1124.15, 819.56)" xlink:href="#radial-gradient-2"/><radialGradient id="radial-gradient-15" cx="-219.74" cy="-6928.23" r="0.97" gradientTransform="translate(-621.83 -996.48) rotate(180) scale(2.88 0.15)" xlink:href="#radial-gradient-2"/><radialGradient id="radial-gradient-16" cx="234.91" cy="20.48" r="4.01" xlink:href="#radial-gradient-4"/><radialGradient id="radial-gradient-17" cx="-223.65" cy="-8851.93" r="0.97" gradientTransform="matrix(0, 2.88, -0.15, 0, -1050.74, 663.84)" xlink:href="#radial-gradient-2"/><radialGradient id="radial-gradient-18" cx="-272.33" cy="-8074.46" r="0.97" gradientTransform="translate(-548.41 -1152.21) rotate(180) scale(2.88 0.15)" xlink:href="#radial-gradient-2"/><radialGradient id="radial-gradient-19" cx="73.17" cy="29.32" r="9.8" xlink:href="#radial-gradient-4"/><radialGradient id="radial-gradient-20" cx="-261.22" cy="-8021.16" r="2.38" gradientTransform="matrix(0, 2.88, -0.15, 0, -1091.82, 780.81)" xlink:href="#radial-gradient-2"/><radialGradient id="radial-gradient-21" cx="-230.38" cy="-7330.38" r="2.38" gradientTransform="translate(-1148.23 -254.83) rotate(135) scale(2.88 0.15)" xlink:href="#radial-gradient-2"/><radialGradient id="radial-gradient-22" cx="158.01" cy="54.15" r="9.8" gradientTransform="translate(174.24 -112.09) rotate(76.66)" xlink:href="#radial-gradient-4"/><radialGradient id="radial-gradient-23" cx="221.12" cy="126.62" r="9.8" xlink:href="#radial-gradient-4"/><radialGradient id="radial-gradient-24" cx="-200.93" cy="-8267.76" r="2.38" xlink:href="#radial-gradient-2"/><radialGradient id="radial-gradient-25" cx="-242.83" cy="-8524.38" r="2.38" gradientTransform="translate(-1148.23 -254.83) rotate(135) scale(2.88 0.15)" xlink:href="#radial-gradient-2"/><radialGradient id="radial-gradient-26" cx="210.99" cy="76.73" r="12.65" xlink:href="#radial-gradient-4"/><radialGradient id="radial-gradient-27" cx="-215.68" cy="-8461.11" r="3.07" xlink:href="#radial-gradient-2"/><radialGradient id="radial-gradient-28" cx="-252.6" cy="-8232.32" r="3.07" gradientTransform="translate(-1148.23 -254.83) rotate(135) scale(2.88 0.15)" xlink:href="#radial-gradient-2"/><radialGradient id="radial-gradient-29" cx="-234.27" cy="-8313.33" r="2.38" xlink:href="#radial-gradient-2"/><radialGradient id="radial-gradient-30" cx="-245.13" cy="-7864.29" r="2.38" gradientTransform="translate(-1148.23 -254.83) rotate(135) scale(2.88 0.15)" xlink:href="#radial-gradient-2"/><radialGradient id="radial-gradient-31" cx="80.75" cy="99.31" r="36.97" gradientTransform="translate(158.85 -2.1) rotate(76.72)" xlink:href="#radial-gradient-4"/><radialGradient id="radial-gradient-32" cx="-242.08" cy="-7715.82" r="8.97" gradientTransform="matrix(0, 2.88, -0.15, 0, -1039.89, 796.04)" xlink:href="#radial-gradient-2"/><radialGradient id="radial-gradient-33" cx="-214.96" cy="-7709.51" r="8.97" gradientTransform="translate(-537.56 -1020) rotate(180) scale(2.88 0.15)" xlink:href="#radial-gradient-2"/><radialGradient id="radial-gradient-34" cx="30.79" cy="81.81" r="9.8" gradientTransform="translate(103.34 33.04) rotate(76.72)" xlink:href="#radial-gradient-4"/><linearGradient id="linear-gradient-3" x1="125" y1="151.67" x2="125" y2="0.79" gradientUnits="userSpaceOnUse"><stop offset="0" stop-color="#91204b"/><stop offset="0.23" stop-color="#751c4b"/><stop offset="1" stop-color="#46154c"/></linearGradient><mask id="mask" x="67.72" y="73.64" width="114.56" height="86.36" maskUnits="userSpaceOnUse"><path class="cls-1" d="M182.28,130.92A57,57,0,0,1,174.36,160H75.64a57.28,57.28,0,1,1,106.64-29.08Z"/></mask><mask id="mask-2" x="94.26" y="43.97" width="6.59" height="6.59" maskUnits="userSpaceOnUse"><path class="cls-2" d="M95.55,50.28h0l0-.05L100.85,44l-6.24,5.26,0,0h0l-.07.06a.72.72,0,1,0,1,1A.13.13,0,0,0,95.55,50.28Z"/></mask><mask id="mask-3" x="191.91" y="98.68" width="6.59" height="6.59" maskUnits="userSpaceOnUse"><path class="cls-13" d="M193.2,105h0l0,0,5.25-6.24-6.24,5.25-.05,0h0a.13.13,0,0,0-.07.06.71.71,0,0,0,1,1A.23.23,0,0,0,193.2,105Z"/></mask><mask id="mask-4" x="148.21" y="44.35" width="19.59" height="19.59" maskUnits="userSpaceOnUse"><circle class="cls-24" cx="158.01" cy="54.15" r="9.8" transform="translate(68.87 195.4) rotate(-76.66)"/></mask><mask id="mask-5" x="153.17" y="49.42" width="9.68" height="9.68" maskUnits="userSpaceOnUse"><path class="cls-31" d="M162.85,59.09c-.14.14-2.41-1.92-5.08-4.59s-4.73-4.94-4.59-5.08,2.41,1.92,5.08,4.59S163,59,162.85,59.09Z"/></mask><mask id="mask-6" x="153.17" y="49.42" width="9.68" height="9.68" maskUnits="userSpaceOnUse"><path class="cls-32" d="M153.18,59.09C153,59,155.1,56.68,157.77,54s4.94-4.72,5.08-4.59-1.93,2.41-4.59,5.08S153.31,59.23,153.18,59.09Z"/></mask><mask id="mask-7" x="43.78" y="62.34" width="73.94" height="73.94" maskUnits="userSpaceOnUse"><circle class="cls-33" cx="80.75" cy="99.31" r="36.97" transform="translate(-34.45 155.08) rotate(-76.72)"/></mask><mask id="mask-8" x="62.49" y="81.46" width="36.53" height="36.53" maskUnits="userSpaceOnUse"><ellipse class="cls-34" cx="80.75" cy="99.73" rx="1.3" ry="25.8" transform="translate(-46.86 86.31) rotate(-45)"/></mask><mask id="mask-9" x="62.49" y="81.46" width="36.53" height="36.53" maskUnits="userSpaceOnUse"><ellipse class="cls-35" cx="80.75" cy="99.73" rx="25.8" ry="1.3" transform="translate(-46.87 86.31) rotate(-45)"/></mask><mask id="mask-10" x="21" y="72.01" width="19.59" height="19.59" maskUnits="userSpaceOnUse"><circle class="cls-36" cx="30.79" cy="81.81" r="9.8" transform="translate(-55.9 92.98) rotate(-76.72)"/></mask><mask id="mask-11" x="25.95" y="77.08" width="9.68" height="9.68" maskUnits="userSpaceOnUse"><path class="cls-3" d="M35.63,86.75c-.14.14-2.41-1.92-5.08-4.59S25.83,77.22,26,77.08,28.37,79,31,81.67,35.76,86.62,35.63,86.75Z"/></mask><mask id="mask-12" x="25.95" y="77.08" width="9.68" height="9.68" maskUnits="userSpaceOnUse"><path class="cls-4" d="M26,86.75c-.13-.13,1.92-2.41,4.59-5.08s4.94-4.72,5.08-4.59S33.71,79.49,31,82.16,26.09,86.89,26,86.75Z"/></mask><mask id="mask-13" x="188.64" y="12.04" width="8.01" height="8.01" maskUnits="userSpaceOnUse"><path class="cls-5" d="M188.64,16.05a4,4,0,1,1,4,4A4,4,0,0,1,188.64,16.05Z"/></mask><mask id="mask-14" x="190.67" y="14.11" width="3.96" height="3.96" maskUnits="userSpaceOnUse"><path class="cls-6" d="M194.63,18.07a12.84,12.84,0,0,1-2.08-1.88,15,15,0,0,1-1.88-2.07A13,13,0,0,1,192.75,16,15.38,15.38,0,0,1,194.63,18.07Z"/></mask><mask id="mask-15" x="190.67" y="14.11" width="3.96" height="3.96" maskUnits="userSpaceOnUse"><path class="cls-7" d="M190.67,18.07A15.38,15.38,0,0,1,192.55,16a13,13,0,0,1,2.08-1.87,15,15,0,0,1-1.88,2.07A12.84,12.84,0,0,1,190.67,18.07Z"/></mask><mask id="mask-16" x="55.02" y="125.63" width="8.01" height="8.01" maskUnits="userSpaceOnUse"><path class="cls-8" d="M55,129.63a4,4,0,1,1,4,4A4,4,0,0,1,55,129.63Z"/></mask><mask id="mask-17" x="57.04" y="127.7" width="3.96" height="3.96" maskUnits="userSpaceOnUse"><path class="cls-9" d="M61,131.66a15.38,15.38,0,0,1-2.08-1.88,13,13,0,0,1-1.87-2.08,15,15,0,0,1,2.07,1.88A12.84,12.84,0,0,1,61,131.66Z"/></mask><mask id="mask-18" x="57.04" y="127.7" width="3.96" height="3.96" maskUnits="userSpaceOnUse"><path class="cls-10" d="M57.05,131.66a13,13,0,0,1,1.87-2.08A15.38,15.38,0,0,1,61,127.7a12.84,12.84,0,0,1-1.88,2.08A15,15,0,0,1,57.05,131.66Z"/></mask><mask id="mask-19" x="74.01" y="54.06" width="8.01" height="8.01" maskUnits="userSpaceOnUse"><path class="cls-11" d="M74,58.07a4,4,0,1,1,4,4A4,4,0,0,1,74,58.07Z"/></mask><mask id="mask-20" x="76.03" y="56.13" width="3.96" height="3.96" maskUnits="userSpaceOnUse"><ellipse class="cls-12" cx="78.01" cy="58.11" rx="0.14" ry="2.8" transform="translate(-18.24 72.18) rotate(-45)"/></mask><mask id="mask-21" x="76.03" y="56.13" width="3.96" height="3.96" maskUnits="userSpaceOnUse"><ellipse class="cls-14" cx="78.01" cy="58.11" rx="2.8" ry="0.14" transform="translate(-18.24 72.18) rotate(-45)"/></mask><mask id="mask-22" x="6.22" y="5.72" width="8.01" height="8.01" maskUnits="userSpaceOnUse"><path class="cls-15" d="M6.22,9.72a4,4,0,1,1,4,4A4,4,0,0,1,6.22,9.72Z"/></mask><mask id="mask-23" x="8.25" y="7.79" width="3.96" height="3.96" maskUnits="userSpaceOnUse"><ellipse class="cls-16" cx="10.23" cy="9.77" rx="0.14" ry="2.8" transform="translate(-3.91 10.1) rotate(-45)"/></mask><mask id="mask-24" x="8.25" y="7.79" width="3.96" height="3.96" maskUnits="userSpaceOnUse"><ellipse class="cls-17" cx="10.23" cy="9.77" rx="2.8" ry="0.14" transform="translate(-3.91 10.1) rotate(-45)"/></mask><mask id="mask-25" x="230.9" y="16.47" width="8.01" height="8.01" maskUnits="userSpaceOnUse"><path class="cls-18" d="M230.9,20.48a4,4,0,1,1,4,4A4,4,0,0,1,230.9,20.48Z"/></mask><mask id="mask-26" x="232.93" y="18.55" width="3.96" height="3.96" maskUnits="userSpaceOnUse"><ellipse class="cls-19" cx="234.91" cy="20.53" rx="0.14" ry="2.8" transform="translate(54.29 172.12) rotate(-45)"/></mask><mask id="mask-27" x="232.93" y="18.55" width="3.96" height="3.96" maskUnits="userSpaceOnUse"><ellipse class="cls-20" cx="234.91" cy="20.53" rx="2.8" ry="0.14" transform="translate(54.29 172.12) rotate(-45)"/></mask><mask id="mask-28" x="63.38" y="19.52" width="19.59" height="19.59" maskUnits="userSpaceOnUse"><circle class="cls-21" cx="73.17" cy="29.32" r="9.8"/></mask><mask id="mask-29" x="68.33" y="24.59" width="9.68" height="9.68" maskUnits="userSpaceOnUse"><ellipse class="cls-22" cx="73.17" cy="29.43" rx="0.35" ry="6.84" transform="translate(0.62 60.36) rotate(-45)"/></mask><mask id="mask-30" x="68.33" y="24.59" width="9.68" height="9.68" maskUnits="userSpaceOnUse"><path class="cls-23" d="M68.34,34.26c-.14-.13,1.92-2.4,4.59-5.07S77.87,24.46,78,24.6s-1.92,2.4-4.59,5.07S68.47,34.4,68.34,34.26Z"/></mask><mask id="mask-31" x="211.33" y="116.82" width="19.59" height="19.59" maskUnits="userSpaceOnUse"><circle class="cls-25" cx="221.12" cy="126.62" r="9.8"/></mask><mask id="mask-32" x="216.28" y="121.89" width="9.68" height="9.68" maskUnits="userSpaceOnUse"><path class="cls-26" d="M226,131.56c-.14.14-2.41-1.92-5.08-4.59s-4.73-4.94-4.59-5.08,2.41,1.92,5.08,4.59S226.09,131.43,226,131.56Z"/></mask><mask id="mask-33" x="216.28" y="121.89" width="9.68" height="9.68" maskUnits="userSpaceOnUse"><path class="cls-27" d="M216.29,131.56c-.14-.13,1.92-2.41,4.59-5.08s4.94-4.72,5.08-4.59S224,124.3,221.37,127,216.42,131.7,216.29,131.56Z"/></mask><mask id="mask-34" x="198.34" y="64.09" width="25.29" height="25.29" maskUnits="userSpaceOnUse"><circle class="cls-28" cx="210.99" cy="76.73" r="12.65"/></mask><mask id="mask-35" x="204.74" y="70.63" width="12.5" height="12.5" maskUnits="userSpaceOnUse"><path class="cls-29" d="M217.23,83.12c-.18.17-3.11-2.48-6.56-5.93s-6.1-6.38-5.92-6.55,3.1,2.48,6.55,5.92S217.4,82.94,217.23,83.12Z"/></mask><mask id="mask-36" x="204.74" y="70.63" width="12.5" height="12.5" maskUnits="userSpaceOnUse"><path class="cls-30" d="M204.75,83.12c-.18-.18,2.47-3.11,5.92-6.56s6.38-6.1,6.56-5.92-2.48,3.11-5.93,6.55S204.92,83.29,204.75,83.12Z"/></mask><radialGradient id="New_Gradient_Swatch_13" cx="190.67" cy="27.33" r="185.31" gradientUnits="userSpaceOnUse"><stop offset="0.02" stop-color="#f9a01b"/><stop offset="0.57" stop-color="#ed1962"/><stop offset="0.63" stop-color="#db1c64"/><stop offset="0.88" stop-color="#8f276d"/><stop offset="1" stop-color="#712c70"/></radialGradient></defs><g class="cls-37"><g id="圖層_2" data-name="圖層 2"><g id="Layer_1" data-name="Layer 1"><rect class="cls-38" width="250" height="160"/><g class="cls-39"><path class="cls-40" d="M182.28,130.92A57,57,0,0,1,174.36,160H75.64a57.28,57.28,0,1,1,106.64-29.08Z"/></g><path class="cls-41" d="M246,141.71l-2.33,2-1-.4c-1-.4-3,.74-3.67,0s-3-2.6-3-2.6a14.84,14.84,0,0,1-2-3,3.18,3.18,0,0,0-3-2.66c-2.33-.34,0,2,0,2l-1.67,3.33-2.33-2v-4.8l-2.33,3.47v6.26l-5,3.4v-3.4s-3.67,4.74-3.67,6.74l-5.67.33H204c-1.33,0-8.33-.33-8.33-.33v-3.34l-2-3.4-.58,1.51-1.76,4.56H188l-6.33-1.67-4.67-4.4-3,4.07-5.33-1-2-3.07v6.07L163,153.05H147.67l-1.34-2.67v-3l-6,1.33-4.66,4.34H130l-2.33-7-1.34-11L125,138.71s-2,5.67-2,7.34-2,.33-2,.33l-1.67-3.07v6.74l-5.33,3H100.67l-11.35-4.34H87.41l-6.74-4.33-2.34-.67-7-.33S68,135.71,68,134.05v1.66s-.48,1.33-.94,2.68c-.3.89-.59,1.79-.73,2.32-.33,1.34-4.66,2.84-4.66,2.84l-16.34-2.17L42,143.55H33.5l-4.5,1.5v-1.5l-3-3.84v9H19.67l-4-4.66v-5.67L13,142.05l-3.67,3.33v-1.83l-3-3.5v5l-4,2L0,145v15H250V143.31C246,142.25,246,141.71,246,141.71Z"/><polygon class="cls-42" points="170.67 154.3 170.67 151.38 173.63 149.63 174 147.38 168.67 146.38 169.17 149.21 170.67 154.3"/><polygon class="cls-42" points="155.42 154.71 159.67 156.63 160.25 154.71 163 153.05 156.67 153.05 154 153.05 147.67 153.05 152.17 154.71 155.42 154.71"/><polygon class="cls-42" points="133.75 155.96 135.67 153.05 130 153.05 132.04 154.38 133.75 155.96"/><path class="cls-42" d="M123.83,151.38l2.67,3.33-1.5-3.08v-2.42l-2-3.16c0,1.66-2,.33-2,.33l.67,1.83Z"/><path class="cls-42" d="M240.83,147.3l-.83,3.25-.08,3.08,2.83,1.08,5,1.09L244,153.3l-1.08-2.59.08-4,.67-3-1-.4c-1-.4-3,.74-3.67,0l1,1.32Z"/><polygon class="cls-42" points="231.42 149.59 231.83 153.13 234 154.3 234 148.13 232.83 142.38 231.25 139.61 231 137.05 229.33 140.38 231.83 144.96 231.42 149.59"/><polygon class="cls-42" points="187.42 151.38 188.92 155.46 195.2 155.46 192.83 154.3 191.33 151.38 191.33 149.38 188 149.38 181.67 147.71 184.67 149.71 187.42 151.38"/><polygon class="cls-42" points="221 147.8 223 149.59 222.58 153.75 225.25 155.8 225.25 150.88 226 147.8 224.67 143.31 219.67 146.71 221 147.8"/><polygon class="cls-42" points="118.67 154.88 120.42 155.96 119.5 153.05 119.33 150.05 114 153.05 116.17 153.71 118.67 154.88"/><polygon class="cls-42" points="25.25 154.38 25.92 155.96 25.92 151.05 26 148.71 19.67 148.71 22.17 150.96 25.25 154.38"/><path class="cls-42" d="M30,147.1l1.25,3.7s.25,2.91.58,3S33.17,149,33.17,149v-2.83l.33-2.58-4.5,1.5Z"/><polygon class="cls-42" points="9.33 147.3 10 148.96 11.17 145.65 13 142.05 9.33 145.38 9.33 147.3"/><polygon class="cls-42" points="4.92 151.96 6 154.8 6.83 149.38 6.33 145.05 2.33 147.05 4.42 148.96 4.92 151.96"/><polygon class="cls-42" points="44.08 148.63 45.42 152.8 46.08 148.96 44.42 145.13 45.33 141.38 42 143.55 42.75 146.3 44.08 148.63"/><polygon class="cls-42" points="72.83 146.59 72.08 148.88 72.08 151.88 72.83 149.46 75.92 147.1 77.58 144.46 78.33 143.71 71.33 143.38 72.46 145.05 72.83 146.59"/><polygon class="cls-42" points="89.25 153.46 94.27 155.38 91.33 152.05 89.75 150.05 89.32 148.71 87.41 148.71 87.92 151.38 89.25 153.46"/><path class="cls-42" d="M63.75,148.55l.42,2.83-.42,2.42,1.92-2.92-.59-4.75.59-1.46,2.66,1-1.83-3L66,141.21h0c-1.05,1.18-4.37,2.34-4.37,2.34l1,1.5Z"/><g class="cls-43"><path class="cls-40" d="M95.55,50.28h0l0-.05L100.85,44l-6.24,5.26,0,0h0l-.07.06a.72.72,0,1,0,1,1A.13.13,0,0,0,95.55,50.28Z"/><path class="cls-40" d="M94.57,50.25a.59.59,0,0,1,0-.82l.06,0h0l0,0,3.75-3-3,3.74,0,0h0a.12.12,0,0,1,0,0A.57.57,0,0,1,94.57,50.25Z"/></g><path class="cls-40" d="M94.56,49.41a.61.61,0,1,1,0,.86A.6.6,0,0,1,94.56,49.41Z"/><path class="cls-40" d="M95.42,50.27a.6.6,0,0,0,0-.86.45.45,0,0,0-.14-.1h0s.17.14.09.23-.09.17-.18.14-.1-.06-.17,0-.15.08-.21,0-.22-.07-.16-.17,0-.12,0-.18a.48.48,0,0,0-.11.09.61.61,0,0,0,.86.86Z"/><path class="cls-40" d="M95.48,49.49s-.07.3-.17.32-.12.13-.27.08-.07.1-.21,0-.1,0-.22-.1l-.17-.2a.61.61,0,0,0,.12.71.6.6,0,0,0,.92-.78Z"/><path class="cls-40" d="M95.52,49.55a.77.77,0,0,0-.1.33c0,.08-.12.18-.2.2s-.1,0-.2,0-.15.17-.23.08-.11-.15-.17-.17-.1,0-.13-.1a1.21,1.21,0,0,0-.09-.27.61.61,0,1,0,1.12-.11Z"/><path class="cls-40" d="M95.48,49.48a.63.63,0,0,1-.15.61.6.6,0,0,1-.86,0L94.4,50a.54.54,0,0,0,.16.26.6.6,0,0,0,.86,0A.62.62,0,0,0,95.48,49.48Z"/><path class="cls-40" d="M94.75,49.28c0,.06.08.12.11.1s.07,0,0,.11.06.09.15,0,.07,0,.08.09.1,0,.15,0,0-.06-.07-.13,0-.11,0-.11A.62.62,0,0,0,94.75,49.28Z"/><g class="cls-44"><path class="cls-40" d="M193.2,105h0l0,0,5.25-6.24-6.24,5.25-.05,0h0a.13.13,0,0,0-.07.06.71.71,0,0,0,1,1A.23.23,0,0,0,193.2,105Z"/><path class="cls-40" d="M192.22,105a.56.56,0,0,1,0-.81.12.12,0,0,1,.05,0h0l.05,0,3.74-3-2.95,3.74,0,0h0l0,0A.57.57,0,0,1,192.22,105Z"/></g><path class="cls-40" d="M192.2,104.11a.61.61,0,1,1,0,.86A.6.6,0,0,1,192.2,104.11Z"/><path class="cls-40" d="M193.06,105a.6.6,0,0,0,0-.86.71.71,0,0,0-.14-.1h0s.17.14.09.23-.09.18-.18.14-.1-.06-.17,0-.15.09-.21,0-.22-.07-.16-.17,0-.12,0-.18l-.11.09a.61.61,0,0,0,.86.86Z"/><path class="cls-40" d="M193.13,104.19s-.08.3-.18.32-.12.14-.27.09-.07.09-.21,0-.1,0-.22-.1-.12-.14-.16-.2a.61.61,0,0,0,1,.71A.62.62,0,0,0,193.13,104.19Z"/><path class="cls-40" d="M193.16,104.25c0,.08-.12.27-.09.33s-.13.18-.21.2-.1,0-.2,0-.15.17-.23.08-.11-.15-.17-.16-.1,0-.13-.11a1.65,1.65,0,0,0-.08-.26.57.57,0,0,0,.15.6.61.61,0,0,0,1-.72Z"/><path class="cls-40" d="M193.12,104.18a.63.63,0,0,1-.15.61.6.6,0,0,1-.86,0l-.07-.07a.56.56,0,0,0,.16.25.61.61,0,0,0,.92-.79Z"/><path class="cls-40" d="M192.4,104c0,.06.07.13.1.1s.07,0,0,.12.06.08.15,0,.07,0,.08.09.1,0,.15,0,0-.06-.07-.13.05-.11.05-.11A.64.64,0,0,0,192.4,104Z"/><g class="cls-45"><path class="cls-46" d="M60.21,25.19a.29.29,0,0,0-.24.25.28.28,0,0,0-.24-.25.27.27,0,0,0,.24-.25A.28.28,0,0,0,60.21,25.19Z"/><path class="cls-46" d="M50.06,105.68a.27.27,0,0,0-.24.25.28.28,0,0,0-.24-.25.29.29,0,0,0,.24-.25A.28.28,0,0,0,50.06,105.68Z"/><path class="cls-46" d="M17.73,78.05a.29.29,0,0,0-.24.25.29.29,0,0,0-.24-.25.28.28,0,0,0,.24-.25A.28.28,0,0,0,17.73,78.05Z"/><path class="cls-46" d="M50.06,89.55a.26.26,0,0,0-.24.24.28.28,0,0,0-.24-.24.29.29,0,0,0,.24-.25A.28.28,0,0,0,50.06,89.55Z"/><path class="cls-46" d="M31.28,64.31a.28.28,0,0,0-.25.25.27.27,0,0,0-.24-.25.28.28,0,0,0,.24-.25A.29.29,0,0,0,31.28,64.31Z"/><path class="cls-46" d="M29,80.37a.29.29,0,0,0-.24.25.29.29,0,0,0-.24-.25.28.28,0,0,0,.24-.25A.28.28,0,0,0,29,80.37Z"/><path class="cls-46" d="M28.53,56.13a.28.28,0,0,0-.24.25.29.29,0,0,0-.24-.25.29.29,0,0,0,.24-.25A.28.28,0,0,0,28.53,56.13Z"/><path class="cls-46" d="M22.77,43.06a.29.29,0,0,0-.24.25.29.29,0,0,0-.24-.25.29.29,0,0,0,.24-.25A.29.29,0,0,0,22.77,43.06Z"/><path class="cls-46" d="M16.15,28a.28.28,0,0,0-.24.25.29.29,0,0,0-.25-.25.28.28,0,0,0,.25-.25A.27.27,0,0,0,16.15,28Z"/><path class="cls-46" d="M30.71,25.44a.29.29,0,0,0-.24.25.29.29,0,0,0-.24-.25.28.28,0,0,0,.24-.25A.28.28,0,0,0,30.71,25.44Z"/><path class="cls-46" d="M54.32,119.64a.28.28,0,0,0-.24.25.25.25,0,0,1,0-.5A.28.28,0,0,0,54.32,119.64Z"/><path class="cls-46" d="M80.35,23.4a.45.45,0,0,0-.39.41.47.47,0,0,0-.4-.41A.47.47,0,0,0,80,23,.45.45,0,0,0,80.35,23.4Z"/><path class="cls-46" d="M70.9,40.91a.47.47,0,0,0-.4.41.47.47,0,0,0-.4-.41.48.48,0,0,0,.4-.42A.48.48,0,0,0,70.9,40.91Z"/><path class="cls-46" d="M57.4,38.09a.47.47,0,0,0-.4.41.47.47,0,0,0-.4-.41.47.47,0,0,0,.4-.41A.47.47,0,0,0,57.4,38.09Z"/><path class="cls-46" d="M49.6,58.07a.45.45,0,0,0-.39.41.47.47,0,0,0-.4-.41.48.48,0,0,0,.4-.42A.46.46,0,0,0,49.6,58.07Z"/><path class="cls-46" d="M63,78.55a.47.47,0,0,0-.4.41.47.47,0,0,0-.4-.41.47.47,0,0,0,.4-.41A.47.47,0,0,0,63,78.55Z"/><path class="cls-46" d="M47.06,71.84a.47.47,0,0,0-.39.41.47.47,0,0,0-.4-.41.47.47,0,0,0,.4-.41A.47.47,0,0,0,47.06,71.84Z"/><path class="cls-46" d="M83.17,73.64a.47.47,0,0,0-.4.41.47.47,0,0,0-.4-.41.47.47,0,0,0,.4-.41A.47.47,0,0,0,83.17,73.64Z"/><path class="cls-46" d="M70.9,89.79a.49.49,0,0,0-.4.42.49.49,0,0,0-.4-.42.47.47,0,0,0,.4-.41A.47.47,0,0,0,70.9,89.79Z"/><path class="cls-46" d="M42.72,38.5a.49.49,0,0,0-.4.42.49.49,0,0,0-.4-.42.47.47,0,0,0,.4-.41A.47.47,0,0,0,42.72,38.5Z"/><path class="cls-46" d="M8.05,26.4a.94.94,0,0,0-.8.82.92.92,0,0,0-.79-.82.93.93,0,0,0,.79-.83A1,1,0,0,0,8.05,26.4Z"/><path class="cls-46" d="M16.7,5.93a.92.92,0,0,0-.79.82.94.94,0,0,0-.8-.82,1,1,0,0,0,.8-.83A.94.94,0,0,0,16.7,5.93Z"/><path class="cls-46" d="M51.54,18.1a.94.94,0,0,0-.8.82.94.94,0,0,0-.8-.82,1,1,0,0,0,.8-.83A1,1,0,0,0,51.54,18.1Z"/><path class="cls-46" d="M66.28,6.31a.43.43,0,0,0-.37.38.44.44,0,0,0-.37-.38.44.44,0,0,0,.37-.38A.43.43,0,0,0,66.28,6.31Z"/><path class="cls-46" d="M34,33.52a.43.43,0,0,0-.37.38.43.43,0,0,0-.37-.38.45.45,0,0,0,.37-.39A.45.45,0,0,0,34,33.52Z"/><path class="cls-46" d="M50,27.22a.43.43,0,0,0-.37.39.45.45,0,0,0-.37-.39.43.43,0,0,0,.37-.38A.42.42,0,0,0,50,27.22Z"/><path class="cls-46" d="M51.91,5.1a.43.43,0,0,0-.37.38.44.44,0,0,0-.37-.38.44.44,0,0,0,.37-.38A.43.43,0,0,0,51.91,5.1Z"/><path class="cls-46" d="M10.47,71.37a.43.43,0,0,0-.37.38.42.42,0,0,0-.37-.38A.43.43,0,0,0,10.1,71,.45.45,0,0,0,10.47,71.37Z"/><path class="cls-46" d="M8.45,94.24a.49.49,0,0,0-.4.42.49.49,0,0,0-.4-.42.47.47,0,0,0,.4-.41A.47.47,0,0,0,8.45,94.24Z"/><path class="cls-46" d="M59,12.08a.48.48,0,0,0-.39.42.49.49,0,0,0-.4-.42.47.47,0,0,0,.4-.41A.47.47,0,0,0,59,12.08Z"/><path class="cls-46" d="M30.63,48.34a.47.47,0,0,0-.4.41.47.47,0,0,0-.4-.41.47.47,0,0,0,.4-.41A.47.47,0,0,0,30.63,48.34Z"/><path class="cls-46" d="M127.69,54.56a.24.24,0,1,1-.48,0,.24.24,0,1,1,.48,0Z"/><path class="cls-46" d="M100.59,36.76a.24.24,0,1,1-.48,0,.24.24,0,1,1,.48,0Z"/><path class="cls-46" d="M97.59,28a.29.29,0,0,0-.24.25.28.28,0,0,0-.24-.25.27.27,0,0,0,.24-.25A.28.28,0,0,0,97.59,28Z"/><path class="cls-46" d="M104.46,12.33a.24.24,0,1,1-.48,0,.24.24,0,1,1,.48,0Z"/><path class="cls-46" d="M107.18,19.17a.28.28,0,0,0-.24.25.29.29,0,0,0-.24-.25.29.29,0,0,0,.24-.25A.28.28,0,0,0,107.18,19.17Z"/><path class="cls-46" d="M112.16,25.44a.24.24,0,1,1-.48,0,.24.24,0,1,1,.48,0Z"/><path class="cls-46" d="M95.65,17.27a.24.24,0,1,1-.48,0,.24.24,0,1,1,.48,0Z"/><path class="cls-46" d="M87.49,12.08a.29.29,0,0,0-.25.25.28.28,0,0,0-.24-.25.26.26,0,0,0,.24-.24A.28.28,0,0,0,87.49,12.08Z"/><path class="cls-46" d="M127.93,67a.24.24,0,1,1-.48,0,.24.24,0,1,1,.48,0Z"/><path class="cls-46" d="M140.07,54.15a.45.45,0,0,0-.39.41.47.47,0,0,0-.4-.41.48.48,0,0,0,.4-.42A.46.46,0,0,0,140.07,54.15Z"/><path class="cls-46" d="M124.17,7.1a.4.4,0,1,1-.8,0,.4.4,0,1,1,.8,0Z"/><path class="cls-46" d="M157.32,15.22a1,1,0,0,0-.8.83.93.93,0,0,0-.79-.83.92.92,0,0,0,.79-.82A.94.94,0,0,0,157.32,15.22Z"/><path class="cls-46" d="M192.22,134.4a.8.8,0,1,1-1.6,0,.8.8,0,1,1,1.6,0Z"/><path class="cls-46" d="M89.5,26.4a.94.94,0,0,0-.8.82.94.94,0,0,0-.8-.82,1,1,0,0,0,.8-.83A1,1,0,0,0,89.5,26.4Z"/><path class="cls-46" d="M98.15,5.93a.94.94,0,0,0-.8.82.92.92,0,0,0-.79-.82.94.94,0,0,0,.79-.83A1,1,0,0,0,98.15,5.93Z"/><path class="cls-46" d="M133.78,40.91a.94.94,0,0,0-.8.82.92.92,0,0,0-.79-.82.94.94,0,0,0,.79-.83A1,1,0,0,0,133.78,40.91Z"/><path class="cls-46" d="M133.35,5.1a.44.44,0,0,0-.37.38.43.43,0,0,0-.37-.38.43.43,0,0,0,.37-.38A.44.44,0,0,0,133.35,5.1Z"/><path class="cls-46" d="M117.41,7.52a.43.43,0,0,0-.37.38.42.42,0,0,0-.37-.38.43.43,0,0,0,.37-.39A.45.45,0,0,0,117.41,7.52Z"/><path class="cls-46" d="M140.47,12.08a.49.49,0,0,0-.4.42.47.47,0,0,0-.39-.42.45.45,0,0,0,.39-.41A.47.47,0,0,0,140.47,12.08Z"/><path class="cls-46" d="M157.32,47.93a.4.4,0,1,1-.8,0,.4.4,0,1,1,.8,0Z"/><path class="cls-46" d="M106.74,49.14a.4.4,0,1,1-.79,0,.4.4,0,1,1,.79,0Z"/><path class="cls-46" d="M224.56,49.9a.24.24,0,1,1-.48,0,.24.24,0,1,1,.48,0Z"/><path class="cls-46" d="M232.13,76.37a.24.24,0,1,1-.48,0,.24.24,0,1,1,.48,0Z"/><path class="cls-46" d="M238.37,86.29a.24.24,0,1,1-.48,0,.24.24,0,1,1,.48,0Z"/><path class="cls-46" d="M213,105.68a.24.24,0,1,1-.48,0,.24.24,0,1,1,.48,0Z"/><path class="cls-46" d="M196.94,112.89a.29.29,0,0,0-.24.25.28.28,0,0,0-.24-.25.27.27,0,0,0,.24-.25A.28.28,0,0,0,196.94,112.89Z"/><path class="cls-46" d="M190.87,92.25a.29.29,0,0,0-.25.25.25.25,0,0,1,0-.5A.29.29,0,0,0,190.87,92.25Z"/><path class="cls-46" d="M162.1,80a.24.24,0,1,1-.48,0,.24.24,0,1,1,.48,0Z"/><path class="cls-46" d="M168.69,31.68a.24.24,0,1,1-.48,0,.24.24,0,1,1,.48,0Z"/><path class="cls-46" d="M155.33,26.27a.29.29,0,0,0-.24.25.28.28,0,0,0-.24-.25.27.27,0,0,0,.24-.25A.28.28,0,0,0,155.33,26.27Z"/><path class="cls-46" d="M146.78,38.92a.28.28,0,0,0-.24.25.27.27,0,0,0-.24-.25.28.28,0,0,0,.24-.25A.29.29,0,0,0,146.78,38.92Z"/><path class="cls-46" d="M179.84,24.72a.27.27,0,0,0-.24.25.28.28,0,0,0-.25-.25.29.29,0,0,0,.25-.25A.28.28,0,0,0,179.84,24.72Z"/><path class="cls-46" d="M185.43,31.2a.29.29,0,0,0-.25.25.28.28,0,0,0-.24-.25.27.27,0,0,0,.24-.25A.28.28,0,0,0,185.43,31.2Z"/><path class="cls-46" d="M170.16,41.32a.28.28,0,0,0-.24.25.27.27,0,0,0-.24-.25.28.28,0,0,0,.24-.25A.29.29,0,0,0,170.16,41.32Z"/><path class="cls-46" d="M178.24,96.25a.28.28,0,0,0-.24.25.27.27,0,0,0-.24-.25A.28.28,0,0,0,178,96,.29.29,0,0,0,178.24,96.25Z"/><path class="cls-46" d="M180.63,78.05a.28.28,0,0,0-.24.25.29.29,0,0,0-.25-.25.28.28,0,0,0,.25-.25A.27.27,0,0,0,180.63,78.05Z"/><path class="cls-46" d="M199.21,85.12a.28.28,0,0,0-.24.25.25.25,0,0,1,0-.5A.28.28,0,0,0,199.21,85.12Z"/><path class="cls-46" d="M196.7,64.56a.28.28,0,0,0-.24.25.27.27,0,0,0-.24-.25.28.28,0,0,0,.24-.25A.29.29,0,0,0,196.7,64.56Z"/><path class="cls-46" d="M209.14,54.56a.27.27,0,0,0-.24.25.28.28,0,0,0-.25-.25.29.29,0,0,0,.25-.25A.28.28,0,0,0,209.14,54.56Z"/><path class="cls-46" d="M191.9,80.37a.24.24,0,1,1-.48,0,.24.24,0,1,1,.48,0Z"/><path class="cls-46" d="M170.4,58.07a.28.28,0,0,0-.24.25.27.27,0,0,0-.24-.25.28.28,0,0,0,.24-.25A.29.29,0,0,0,170.4,58.07Z"/><path class="cls-46" d="M185.91,12.33a.28.28,0,0,0-.24.25.29.29,0,0,0-.24-.25.28.28,0,0,0,.24-.25A.27.27,0,0,0,185.91,12.33Z"/><path class="cls-46" d="M177.1,17.27a.28.28,0,0,0-.24.25.29.29,0,0,0-.25-.25.28.28,0,0,0,.25-.25A.27.27,0,0,0,177.1,17.27Z"/><path class="cls-46" d="M209.38,67a.27.27,0,0,0-.24.25.28.28,0,0,0-.24-.25.29.29,0,0,0,.24-.25A.28.28,0,0,0,209.38,67Z"/><path class="cls-46" d="M215.47,88.4a.26.26,0,0,0-.24.24.28.28,0,0,0-.24-.24.29.29,0,0,0,.24-.25A.28.28,0,0,0,215.47,88.4Z"/><path class="cls-46" d="M241.34,37a.28.28,0,0,0-.25.25.27.27,0,0,0-.24-.25.28.28,0,0,0,.24-.25A.29.29,0,0,0,241.34,37Z"/><path class="cls-46" d="M211,143.22a.29.29,0,0,0-.25.25.28.28,0,0,0-.24-.25.27.27,0,0,0,.24-.25A.28.28,0,0,0,211,143.22Z"/><path class="cls-46" d="M229,92.5a.24.24,0,1,1-.48,0,.24.24,0,1,1,.48,0Z"/><path class="cls-46" d="M213,76.12a.24.24,0,1,1-.48,0,.24.24,0,1,1,.48,0Z"/><path class="cls-46" d="M221.52,54.15a.4.4,0,1,1-.79,0,.4.4,0,1,1,.79,0Z"/><path class="cls-46" d="M205.61,7.1a.47.47,0,0,0-.39.42.49.49,0,0,0-.4-.42.47.47,0,0,0,.4-.41A.45.45,0,0,0,205.61,7.1Z"/><path class="cls-46" d="M243.25,23.4a.4.4,0,1,1-.8,0,.4.4,0,1,1,.8,0Z"/><path class="cls-46" d="M204.28,20a.4.4,0,1,1-.8,0,.4.4,0,1,1,.8,0Z"/><path class="cls-46" d="M238.77,15.22a1,1,0,0,0-.8.83.93.93,0,0,0-.79-.83.92.92,0,0,0,.79-.82A.94.94,0,0,0,238.77,15.22Z"/><path class="cls-46" d="M244.44,64.56a.92.92,0,0,0-.79.82.94.94,0,0,0-.8-.82,1,1,0,0,0,.8-.83A.93.93,0,0,0,244.44,64.56Z"/><path class="cls-46" d="M179.6,5.93a.94.94,0,0,0-.8.82.94.94,0,0,0-.8-.82,1,1,0,0,0,.8-.83A1,1,0,0,0,179.6,5.93Z"/><path class="cls-46" d="M215.23,40.91a.8.8,0,1,1-1.6,0,.8.8,0,1,1,1.6,0Z"/><path class="cls-46" d="M229.17,6.31a.37.37,0,1,1-.74,0,.37.37,0,1,1,.74,0Z"/><path class="cls-46" d="M204.25,30a.37.37,0,1,1-.74,0,.37.37,0,1,1,.74,0Z"/><path class="cls-46" d="M214.8,5.1a.37.37,0,1,1-.74,0,.37.37,0,1,1,.74,0Z"/><path class="cls-46" d="M198.86,7.52a.37.37,0,1,1-.74,0,.37.37,0,1,1,.74,0Z"/><path class="cls-46" d="M243.22,6.69a.37.37,0,1,1-.74,0,.37.37,0,1,1,.74,0Z"/></g><g class="cls-47"><circle class="cls-48" cx="158.01" cy="54.15" r="9.8" transform="translate(68.87 195.4) rotate(-76.66)"/></g><path class="cls-49" d="M158.2,54.16a5.11,5.11,0,0,1-.15-1.09,5.11,5.11,0,0,1-.15,1.09,6,6,0,0,1-1.09.11,6,6,0,0,1,1.09.11,4.9,4.9,0,0,1,.15,1.06,4.9,4.9,0,0,1,.15-1.06,5.31,5.31,0,0,1,1-.11A5.31,5.31,0,0,1,158.2,54.16Z"/><g class="cls-50"><path class="cls-49" d="M162.85,59.09c-.14.14-2.41-1.92-5.08-4.59s-4.73-4.94-4.59-5.08,2.41,1.92,5.08,4.59S163,59,162.85,59.09Z"/></g><g class="cls-51"><path class="cls-49" d="M153.18,59.09C153,59,155.1,56.68,157.77,54s4.94-4.72,5.08-4.59-1.93,2.41-4.59,5.08S153.31,59.23,153.18,59.09Z"/></g><g class="cls-52"><circle class="cls-40" cx="80.75" cy="99.31" r="36.97" transform="translate(-34.45 155.08) rotate(-76.72)"/></g><path class="cls-40" d="M81.47,99.38c-.32-.19-.48-3.43-.57-4.11-.1.68-.26,3.92-.58,4.11a23.42,23.42,0,0,1-4.12.4,23.55,23.55,0,0,1,4.12.41c.32.19.48,3.31.58,4,.09-.69.25-3.81.57-4a20.69,20.69,0,0,1,3.83-.41A20.56,20.56,0,0,1,81.47,99.38Z"/><g class="cls-53"><ellipse class="cls-40" cx="80.75" cy="99.73" rx="1.3" ry="25.8" transform="translate(-46.86 86.31) rotate(-45)"/></g><g class="cls-54"><ellipse class="cls-40" cx="80.75" cy="99.73" rx="25.8" ry="1.3" transform="translate(-46.87 86.31) rotate(-45)"/></g><g class="cls-55"><circle class="cls-48" cx="30.79" cy="81.81" r="9.8" transform="translate(-55.9 92.98) rotate(-76.72)"/></g><path class="cls-49" d="M31,81.82a5.85,5.85,0,0,1-.15-1.08,5.11,5.11,0,0,1-.15,1.08,6,6,0,0,1-1.09.11,6,6,0,0,1,1.09.11,4.9,4.9,0,0,1,.15,1.06A5.61,5.61,0,0,1,31,82a5.31,5.31,0,0,1,1-.11A5.31,5.31,0,0,1,31,81.82Z"/><g class="cls-56"><path class="cls-49" d="M35.63,86.75c-.14.14-2.41-1.92-5.08-4.59S25.83,77.22,26,77.08,28.37,79,31,81.67,35.76,86.62,35.63,86.75Z"/></g><g class="cls-57"><path class="cls-49" d="M26,86.75c-.13-.13,1.92-2.41,4.59-5.08s4.94-4.72,5.08-4.59S33.71,79.49,31,82.16,26.09,86.89,26,86.75Z"/></g><g class="cls-58"><path class="cls-48" d="M188.64,16.05a4,4,0,1,1,4,4A4,4,0,0,1,188.64,16.05Z"/></g><path class="cls-49" d="M192.73,16.06a2,2,0,0,1-.06-.45,2.73,2.73,0,0,1-.06.45,2.74,2.74,0,0,1-.45,0,2.74,2.74,0,0,1,.45,0,2.34,2.34,0,0,1,.06.44,1.73,1.73,0,0,1,.06-.44,2.25,2.25,0,0,1,.41,0A2.25,2.25,0,0,1,192.73,16.06Z"/><g class="cls-59"><path class="cls-49" d="M194.63,18.07a12.84,12.84,0,0,1-2.08-1.88,15,15,0,0,1-1.88-2.07A13,13,0,0,1,192.75,16,15.38,15.38,0,0,1,194.63,18.07Z"/></g><g class="cls-60"><path class="cls-49" d="M190.67,18.07A15.38,15.38,0,0,1,192.55,16a13,13,0,0,1,2.08-1.87,15,15,0,0,1-1.88,2.07A12.84,12.84,0,0,1,190.67,18.07Z"/></g><g class="cls-61"><path class="cls-48" d="M55,129.63a4,4,0,1,1,4,4A4,4,0,0,1,55,129.63Z"/></g><path class="cls-49" d="M59.1,129.64a2.46,2.46,0,0,1-.06-.44,2.46,2.46,0,0,1-.06.44,2.66,2.66,0,0,1-.45,0,2.8,2.8,0,0,1,.45,0,2.34,2.34,0,0,1,.06.43,2.34,2.34,0,0,1,.06-.43,2.48,2.48,0,0,1,.42,0A2.35,2.35,0,0,1,59.1,129.64Z"/><g class="cls-62"><path class="cls-49" d="M61,131.66a15.38,15.38,0,0,1-2.08-1.88,13,13,0,0,1-1.87-2.08,15,15,0,0,1,2.07,1.88A12.84,12.84,0,0,1,61,131.66Z"/></g><g class="cls-63"><path class="cls-49" d="M57.05,131.66a13,13,0,0,1,1.87-2.08A15.38,15.38,0,0,1,61,127.7a12.84,12.84,0,0,1-1.88,2.08A15,15,0,0,1,57.05,131.66Z"/></g><g class="cls-64"><path class="cls-48" d="M74,58.07a4,4,0,1,1,4,4A4,4,0,0,1,74,58.07Z"/></g><path class="cls-49" d="M78.09,58.07a2.46,2.46,0,0,1-.06-.44,2.46,2.46,0,0,1-.06.44,2,2,0,0,1-.45,0,2.74,2.74,0,0,1,.45,0,2.34,2.34,0,0,1,.06.44,2.34,2.34,0,0,1,.06-.44,2.35,2.35,0,0,1,.42,0A1.75,1.75,0,0,1,78.09,58.07Z"/><g class="cls-65"><ellipse class="cls-49" cx="78.01" cy="58.11" rx="0.14" ry="2.8" transform="translate(-18.24 72.18) rotate(-45)"/></g><g class="cls-66"><ellipse class="cls-49" cx="78.01" cy="58.11" rx="2.8" ry="0.14" transform="translate(-18.24 72.18) rotate(-45)"/></g><g class="cls-67"><path class="cls-48" d="M6.22,9.72a4,4,0,1,1,4,4A4,4,0,0,1,6.22,9.72Z"/></g><path class="cls-49" d="M10.31,9.73a1.8,1.8,0,0,1-.06-.44,2.46,2.46,0,0,1-.06.44,2.92,2.92,0,0,1-.45,0,2.74,2.74,0,0,1,.45,0,2.34,2.34,0,0,1,.06.43c0-.07,0-.41.06-.43a2.25,2.25,0,0,1,.41,0A2.38,2.38,0,0,1,10.31,9.73Z"/><g class="cls-68"><ellipse class="cls-49" cx="10.23" cy="9.77" rx="0.14" ry="2.8" transform="translate(-3.91 10.1) rotate(-45)"/></g><g class="cls-69"><ellipse class="cls-49" cx="10.23" cy="9.77" rx="2.8" ry="0.14" transform="translate(-3.91 10.1) rotate(-45)"/></g><g class="cls-70"><path class="cls-48" d="M230.9,20.48a4,4,0,1,1,4,4A4,4,0,0,1,230.9,20.48Z"/></g><path class="cls-49" d="M235,20.49a1.82,1.82,0,0,1-.06-.45,1.77,1.77,0,0,1-.07.45,2.55,2.55,0,0,1-.44,0,2.69,2.69,0,0,1,.44,0,1.68,1.68,0,0,1,.07.43c0-.07,0-.41.06-.43a2.38,2.38,0,0,1,.41,0A2.25,2.25,0,0,1,235,20.49Z"/><g class="cls-71"><ellipse class="cls-49" cx="234.91" cy="20.53" rx="0.14" ry="2.8" transform="translate(54.29 172.12) rotate(-45)"/></g><g class="cls-72"><ellipse class="cls-49" cx="234.91" cy="20.53" rx="2.8" ry="0.14" transform="translate(54.29 172.12) rotate(-45)"/></g><g class="cls-73"><circle class="cls-48" cx="73.17" cy="29.32" r="9.8"/></g><path class="cls-49" d="M73.36,29.34a6,6,0,0,1-.15-1.09,5.21,5.21,0,0,1-.15,1.09,6.86,6.86,0,0,1-1.09.1,7,7,0,0,1,1.09.11,4.9,4.9,0,0,1,.15,1.06,5.61,5.61,0,0,1,.15-1.06,6.25,6.25,0,0,1,1-.11A6.09,6.09,0,0,1,73.36,29.34Z"/><g class="cls-74"><ellipse class="cls-49" cx="73.17" cy="29.43" rx="0.35" ry="6.84" transform="translate(0.62 60.36) rotate(-45)"/></g><g class="cls-75"><path class="cls-49" d="M68.34,34.26c-.14-.13,1.92-2.4,4.59-5.07S77.87,24.46,78,24.6s-1.92,2.4-4.59,5.07S68.47,34.4,68.34,34.26Z"/></g><g class="cls-76"><circle class="cls-48" cx="221.12" cy="126.62" r="9.8"/></g><path class="cls-49" d="M221.31,126.63a5.85,5.85,0,0,1-.15-1.08,5.11,5.11,0,0,1-.15,1.08,6,6,0,0,1-1.09.11,6,6,0,0,1,1.09.11,4.9,4.9,0,0,1,.15,1.06,5.61,5.61,0,0,1,.15-1.06,5.31,5.31,0,0,1,1-.11A5.31,5.31,0,0,1,221.31,126.63Z"/><g class="cls-77"><path class="cls-49" d="M226,131.56c-.14.14-2.41-1.92-5.08-4.59s-4.73-4.94-4.59-5.08,2.41,1.92,5.08,4.59S226.09,131.43,226,131.56Z"/></g><g class="cls-78"><path class="cls-49" d="M216.29,131.56c-.14-.13,1.92-2.41,4.59-5.08s4.94-4.72,5.08-4.59S224,124.3,221.37,127,216.42,131.7,216.29,131.56Z"/></g><g class="cls-79"><circle class="cls-48" cx="210.99" cy="76.73" r="12.65"/></g><path class="cls-49" d="M211.23,76.76a7.22,7.22,0,0,1-.2-1.41,6.59,6.59,0,0,1-.19,1.41,8,8,0,0,1-1.41.14,8,8,0,0,1,1.41.14A6.09,6.09,0,0,1,211,78.4a6.67,6.67,0,0,1,.2-1.36,7,7,0,0,1,1.31-.14A7,7,0,0,1,211.23,76.76Z"/><g class="cls-80"><path class="cls-49" d="M217.23,83.12c-.18.17-3.11-2.48-6.56-5.93s-6.1-6.38-5.92-6.55,3.1,2.48,6.55,5.92S217.4,82.94,217.23,83.12Z"/></g><g class="cls-81"><path class="cls-49" d="M204.75,83.12c-.18-.18,2.47-3.11,5.92-6.56s6.38-6.1,6.56-5.92-2.48,3.11-5.93,6.55S204.92,83.29,204.75,83.12Z"/></g><rect class="cls-82" width="250" height="160"/></g></g></g></svg>