<svg xmlns="http://www.w3.org/2000/svg" xmlns:xlink="http://www.w3.org/1999/xlink" viewBox="0 0 250 160"><defs><style>.cls-1{fill:url(#linear-gradient);}.cls-2{isolation:isolate;}.cls-3{fill:url(#linear-gradient-2);}.cls-17,.cls-21,.cls-22,.cls-32,.cls-4{mix-blend-mode:screen;}.cls-5{fill:#808285;}.cls-6{fill:#7981a8;}.cls-7{fill:#6e7599;}.cls-8{fill:#949ab9;}.cls-9{fill:#4d526b;}.cls-10{fill:#2e3140;}.cls-11{fill:#1d1f29;}.cls-12{fill:#616887;}.cls-13{fill:#656b8c;}.cls-14{mix-blend-mode:multiply;}.cls-15{fill:#e6e7e8;}.cls-16{fill:url(#linear-gradient-3);}.cls-17{fill:#231f20;}.cls-18{fill:#064f68;}.cls-19{fill:#053e58;}.cls-20{fill:#02a2bc;}.cls-21{fill:#414042;}.cls-22,.cls-24{fill:#f9cb45;}.cls-23{mask:url(#mask);}.cls-25{fill:#e84700;}.cls-26{fill:#f8891a;}.cls-27{fill:#f9a148;}.cls-28{fill:#f58014;}.cls-29{fill:#5b0076;}.cls-30{fill:#b30861;}.cls-31{fill:#cc1f79;}.cls-32{fill:#141314;}.cls-33{fill:url(#linear-gradient-4);}</style><linearGradient id="linear-gradient" x1="430.38" y1="-258.66" x2="430.38" y2="-280.37" gradientTransform="matrix(0.66, -0.75, 0.75, 0.66, -22.1, 542.14)" gradientUnits="userSpaceOnUse"><stop offset="0" stop-color="#fff"/><stop offset="1"/></linearGradient><linearGradient id="linear-gradient-2" x1="125" y1="94" x2="125" y2="2" gradientUnits="userSpaceOnUse"><stop offset="0" stop-color="#0a91a5"/><stop offset="1" stop-color="#03213d"/></linearGradient><linearGradient id="linear-gradient-3" x1="36.52" y1="84.79" x2="60.54" y2="84.79" gradientUnits="userSpaceOnUse"><stop offset="0" stop-color="#f9cb45"/><stop offset="1" stop-color="#03213d"/></linearGradient><mask id="mask" x="47.71" y="31.44" width="20.85" height="18.5" maskUnits="userSpaceOnUse"><path class="cls-1" d="M67.6,46h0l0,0-.17-.09L47.71,31.44,64.64,49l.12.16,0,0h0a1.8,1.8,0,0,0,.19.2,2.15,2.15,0,0,0,2.84-3.24A1.63,1.63,0,0,0,67.6,46Z"/></mask><linearGradient id="linear-gradient-4" x1="150.08" y1="37.66" x2="200.75" y2="37.66" gradientUnits="userSpaceOnUse"><stop offset="0" stop-color="#974362"/><stop offset="1" stop-color="#03213d"/></linearGradient></defs><g class="cls-2"><g id="圖層_2" data-name="圖層 2"><g id="Layer_1" data-name="Layer 1"><rect class="cls-3" width="250" height="160"/><g class="cls-4"><path class="cls-5" d="M60.2,24.74A.29.29,0,0,0,60,25a.28.28,0,0,0-.24-.25.27.27,0,0,0,.24-.25A.28.28,0,0,0,60.2,24.74Z"/><path class="cls-5" d="M59.09,28.83a.24.24,0,1,1-.48,0,.24.24,0,1,1,.48,0Z"/><path class="cls-5" d="M61.65,49.45a.24.24,0,1,1-.48,0,.24.24,0,1,1,.48,0Z"/><path class="cls-5" d="M69.46,61.37a.28.28,0,0,0-.24.25.27.27,0,0,0-.24-.25.28.28,0,0,0,.24-.25A.29.29,0,0,0,69.46,61.37Z"/><path class="cls-5" d="M69.22,75.92a.24.24,0,1,1-.48,0,.24.24,0,1,1,.48,0Z"/><path class="cls-5" d="M75.46,85.84a.24.24,0,1,1-.48,0,.24.24,0,1,1,.48,0Z"/><path class="cls-5" d="M73.46,101.7a.27.27,0,0,0-.24.25.28.28,0,0,0-.24-.25.29.29,0,0,0,.24-.25A.28.28,0,0,0,73.46,101.7Z"/><path class="cls-5" d="M74.59,120.87a.28.28,0,0,0-.24.25.27.27,0,0,0-.24-.25.28.28,0,0,0,.24-.25A.29.29,0,0,0,74.59,120.87Z"/><path class="cls-5" d="M60.73,112.66a.29.29,0,0,0-.24.25.25.25,0,0,1,0-.5A.29.29,0,0,0,60.73,112.66Z"/><path class="cls-5" d="M50,105.23a.28.28,0,0,0-.24.25.25.25,0,0,1,0-.5A.28.28,0,0,0,50,105.23Z"/><path class="cls-5" d="M41.2,99.78A.29.29,0,0,0,41,100a.25.25,0,0,1,0-.5A.29.29,0,0,0,41.2,99.78Z"/><path class="cls-5" d="M31.49,102.7a.28.28,0,0,0-.24.25.28.28,0,0,0-.24-.25.29.29,0,0,0,.24-.25A.29.29,0,0,0,31.49,102.7Z"/><path class="cls-5" d="M22.74,101.45a.28.28,0,0,0-.24.25.25.25,0,0,1,0-.5A.28.28,0,0,0,22.74,101.45Z"/><path class="cls-5" d="M17.7,77.6a.29.29,0,0,0-.24.25.29.29,0,0,0-.24-.25.28.28,0,0,0,.24-.25A.28.28,0,0,0,17.7,77.6Z"/><path class="cls-5" d="M36.29,84.67a.28.28,0,0,0-.24.25.29.29,0,0,0-.24-.25.28.28,0,0,0,.24-.25A.27.27,0,0,0,36.29,84.67Z"/><path class="cls-5" d="M33.54,83a.29.29,0,0,0-.24.25.29.29,0,0,0-.24-.25.28.28,0,0,0,.24-.25A.28.28,0,0,0,33.54,83Z"/><path class="cls-5" d="M33.78,64.11a.29.29,0,0,0-.24.25.25.25,0,0,1,0-.5A.29.29,0,0,0,33.78,64.11Z"/><path class="cls-5" d="M46.22,54.11a.29.29,0,0,0-.24.25.29.29,0,0,0-.24-.25.29.29,0,0,0,.24-.25A.29.29,0,0,0,46.22,54.11Z"/><path class="cls-5" d="M51,77.85a.29.29,0,0,0-.24.25.29.29,0,0,0-.24-.25.28.28,0,0,0,.24-.25A.28.28,0,0,0,51,77.85Z"/><path class="cls-5" d="M29,79.92a.29.29,0,0,0-.24.25.29.29,0,0,0-.24-.25.28.28,0,0,0,.24-.25A.28.28,0,0,0,29,79.92Z"/><path class="cls-5" d="M20.86,88.2a.28.28,0,0,0-.24.25.27.27,0,0,0-.24-.25.28.28,0,0,0,.24-.25A.29.29,0,0,0,20.86,88.2Z"/><path class="cls-5" d="M18.47,60.9a.28.28,0,0,0-.24.25.25.25,0,0,1,0-.5A.28.28,0,0,0,18.47,60.9Z"/><path class="cls-5" d="M16.27,46.08a.28.28,0,0,0-.25.25.27.27,0,0,0-.24-.25.28.28,0,0,0,.24-.25A.29.29,0,0,0,16.27,46.08Z"/><path class="cls-5" d="M7.48,57.62a.27.27,0,0,0-.24.25A.28.28,0,0,0,7,57.62a.29.29,0,0,0,.24-.25A.28.28,0,0,0,7.48,57.62Z"/><path class="cls-5" d="M22.5,52.71a.29.29,0,0,0-.24.25.29.29,0,0,0-.24-.25.28.28,0,0,0,.24-.25A.28.28,0,0,0,22.5,52.71Z"/><path class="cls-5" d="M22.74,42.61a.29.29,0,0,0-.24.25.28.28,0,0,0-.24-.25.28.28,0,0,0,.24-.25A.29.29,0,0,0,22.74,42.61Z"/><path class="cls-5" d="M19.12,36.31a.29.29,0,0,0-.25.25.28.28,0,0,0-.24-.25.28.28,0,0,0,.24-.25A.29.29,0,0,0,19.12,36.31Z"/><path class="cls-5" d="M16.12,27.56a.29.29,0,0,0-.25.25.28.28,0,0,0-.24-.25.27.27,0,0,0,.24-.25A.28.28,0,0,0,16.12,27.56Z"/><path class="cls-5" d="M23,11.89a.28.28,0,0,0-.24.25.27.27,0,0,0-.24-.25.28.28,0,0,0,.24-.25A.29.29,0,0,0,23,11.89Z"/><path class="cls-5" d="M25.7,18.72a.29.29,0,0,0-.24.25.29.29,0,0,0-.24-.25.29.29,0,0,0,.24-.25A.29.29,0,0,0,25.7,18.72Z"/><path class="cls-5" d="M30.69,25a.29.29,0,0,0-.25.25A.28.28,0,0,0,30.2,25a.27.27,0,0,0,.24-.25A.28.28,0,0,0,30.69,25Z"/><path class="cls-5" d="M33.54,19.78a.29.29,0,0,0-.24.25.29.29,0,0,0-.24-.25.28.28,0,0,0,.24-.25A.28.28,0,0,0,33.54,19.78Z"/><path class="cls-5" d="M14.17,16.82a.29.29,0,0,0-.24.25.29.29,0,0,0-.24-.25.28.28,0,0,0,.24-.25A.28.28,0,0,0,14.17,16.82Z"/><path class="cls-5" d="M6,11.64a.28.28,0,0,0-.25.25.27.27,0,0,0-.24-.25.28.28,0,0,0,.24-.25A.29.29,0,0,0,6,11.64Z"/><path class="cls-5" d="M46.46,66.52a.28.28,0,0,0-.24.25.28.28,0,0,0-.24-.25.29.29,0,0,0,.24-.25A.29.29,0,0,0,46.46,66.52Z"/><path class="cls-5" d="M63,103.1a.27.27,0,0,0-.24.25.28.28,0,0,0-.25-.25.29.29,0,0,0,.25-.25A.28.28,0,0,0,63,103.1Z"/><path class="cls-5" d="M46,128.57a.28.28,0,0,0-.24.25.28.28,0,0,0-.24-.25.29.29,0,0,0,.24-.25A.29.29,0,0,0,46,128.57Z"/><path class="cls-5" d="M49.8,148.93a.28.28,0,0,0-.24.25.25.25,0,0,1,0-.5A.28.28,0,0,0,49.8,148.93Z"/><path class="cls-5" d="M78.67,153.59a.24.24,0,1,1-.48,0,.24.24,0,1,1,.48,0Z"/><path class="cls-5" d="M78.67,95.8a.24.24,0,1,1-.48,0,.24.24,0,1,1,.48,0Z"/><path class="cls-5" d="M52.55,88a.28.28,0,0,0-.24.25.27.27,0,0,0-.24-.25.28.28,0,0,0,.24-.25A.29.29,0,0,0,52.55,88Z"/><path class="cls-5" d="M78.43,36.56a.24.24,0,1,1-.48,0,.24.24,0,1,1,.48,0Z"/><path class="cls-5" d="M54.3,119.19a.28.28,0,0,0-.24.25.29.29,0,0,0-.25-.25.28.28,0,0,0,.25-.25A.27.27,0,0,0,54.3,119.19Z"/><path class="cls-5" d="M58.85,128.07a.24.24,0,1,1-.48,0,.24.24,0,1,1,.48,0Z"/><path class="cls-5" d="M63.88,135a.28.28,0,0,0-.24.25.29.29,0,0,0-.25-.25.28.28,0,0,0,.25-.25A.27.27,0,0,0,63.88,135Z"/><path class="cls-5" d="M69.7,140.35a.28.28,0,0,0-.24.25.27.27,0,0,0-.24-.25.28.28,0,0,0,.24-.25A.29.29,0,0,0,69.7,140.35Z"/><path class="cls-5" d="M65.8,144.11a.27.27,0,0,0-.24.25.28.28,0,0,0-.24-.25.29.29,0,0,0,.24-.25A.28.28,0,0,0,65.8,144.11Z"/><path class="cls-5" d="M54.55,130.41a.48.48,0,0,0-.4.42.46.46,0,0,0-.39-.42.45.45,0,0,0,.39-.41A.47.47,0,0,0,54.55,130.41Z"/><path class="cls-5" d="M39.26,119.19a.47.47,0,0,0-.4.41.41.41,0,0,1,0-.82A.47.47,0,0,0,39.26,119.19Z"/><path class="cls-5" d="M55.09,101.2a.45.45,0,0,0-.39.41.41.41,0,0,1,0-.82A.45.45,0,0,0,55.09,101.2Z"/><path class="cls-5" d="M64.27,77.1a.46.46,0,0,0-.39.42.48.48,0,0,0-.4-.42.47.47,0,0,0,.4-.41A.45.45,0,0,0,64.27,77.1Z"/><path class="cls-5" d="M58.61,53.7a.47.47,0,0,0-.4.41.47.47,0,0,0-.4-.41.47.47,0,0,0,.4-.41A.47.47,0,0,0,58.61,53.7Z"/><path class="cls-5" d="M72.8,30.34a.47.47,0,0,0-.4.41.47.47,0,0,0-.4-.41.47.47,0,0,0,.4-.41A.47.47,0,0,0,72.8,30.34Z"/><path class="cls-5" d="M42.7,6.66a.47.47,0,0,0-.4.41.47.47,0,0,0-.4-.41.48.48,0,0,0,.4-.42A.48.48,0,0,0,42.7,6.66Z"/><path class="cls-5" d="M80.34,23a.47.47,0,0,0-.4.41.45.45,0,0,0-.39-.41.45.45,0,0,0,.39-.41A.47.47,0,0,0,80.34,23Z"/><path class="cls-5" d="M41.36,19.53A.48.48,0,0,0,41,20a.48.48,0,0,0-.39-.42.47.47,0,0,0,.39-.41A.47.47,0,0,0,41.36,19.53Z"/><path class="cls-5" d="M37.08,40a.47.47,0,0,0-.39.42.49.49,0,0,0-.4-.42.47.47,0,0,0,.4-.41A.45.45,0,0,0,37.08,40Z"/><path class="cls-5" d="M21.59,131.8a.93.93,0,0,0-.79.83,1,1,0,0,0-.8-.83.94.94,0,0,0,.8-.82A.92.92,0,0,0,21.59,131.8Z"/><path class="cls-5" d="M8.81,80.17A.93.93,0,0,0,8,81a1,1,0,0,0-.8-.83.94.94,0,0,0,.8-.82A.92.92,0,0,0,8.81,80.17Z"/><path class="cls-5" d="M75.86,14.77a1,1,0,0,0-.8.83.93.93,0,0,0-.79-.83.92.92,0,0,0,.79-.82A.94.94,0,0,0,75.86,14.77Z"/><path class="cls-5" d="M81.54,64.11a.94.94,0,0,0-.8.82.94.94,0,0,0-.8-.82,1,1,0,0,0,.8-.83A1,1,0,0,0,81.54,64.11Z"/><path class="cls-5" d="M78.43,132.84a1,1,0,0,0-.8.83.93.93,0,0,0-.79-.83.92.92,0,0,0,.79-.82A.94.94,0,0,0,78.43,132.84Z"/><path class="cls-5" d="M8.42,108.63a.94.94,0,0,0-.8.82.94.94,0,0,0-.8-.82,1,1,0,0,0,.8-.83A1,1,0,0,0,8.42,108.63Z"/><path class="cls-5" d="M8,26a.94.94,0,0,0-.8.82.94.94,0,0,0-.8-.82,1,1,0,0,0,.8-.83A1,1,0,0,0,8,26Z"/><path class="cls-5" d="M16.67,5.48a.94.94,0,0,0-.8.82.92.92,0,0,0-.79-.82.93.93,0,0,0,.79-.83A1,1,0,0,0,16.67,5.48Z"/><path class="cls-5" d="M51.52,17.65a.94.94,0,0,0-.8.82.94.94,0,0,0-.8-.82,1,1,0,0,0,.8-.83A1,1,0,0,0,51.52,17.65Z"/><path class="cls-5" d="M52.31,40.46a.92.92,0,0,0-.79.82.94.94,0,0,0-.8-.82,1,1,0,0,0,.8-.83A.93.93,0,0,0,52.31,40.46Z"/><path class="cls-5" d="M66.26,5.86a.44.44,0,0,0-.37.38.44.44,0,0,0-.37-.38.44.44,0,0,0,.37-.38A.44.44,0,0,0,66.26,5.86Z"/><path class="cls-5" d="M54.43,29.25a.43.43,0,0,0-.37.39.45.45,0,0,0-.37-.39.43.43,0,0,0,.37-.38A.42.42,0,0,0,54.43,29.25Z"/><path class="cls-5" d="M28.87,41.28a.45.45,0,0,0-.37.39.45.45,0,0,0-.37-.39.43.43,0,0,0,.37-.38A.43.43,0,0,0,28.87,41.28Z"/><path class="cls-5" d="M41.33,29.55a.45.45,0,0,0-.37.39.43.43,0,0,0-.37-.39.42.42,0,0,0,.37-.38A.43.43,0,0,0,41.33,29.55Z"/><path class="cls-5" d="M51.89,4.65a.43.43,0,0,0-.37.39.45.45,0,0,0-.37-.39.43.43,0,0,0,.37-.38A.42.42,0,0,0,51.89,4.65Z"/><path class="cls-5" d="M35.94,7.07a.43.43,0,0,0-.37.38.43.43,0,0,0-.37-.38.45.45,0,0,0,.37-.39A.45.45,0,0,0,35.94,7.07Z"/><path class="cls-5" d="M80.31,6.24a.45.45,0,0,0-.37.39.43.43,0,0,0-.37-.39.42.42,0,0,0,.37-.38A.43.43,0,0,0,80.31,6.24Z"/><path class="cls-5" d="M10.44,70.92a.43.43,0,0,0-.37.38.43.43,0,0,0-.37-.38.45.45,0,0,0,.37-.39A.45.45,0,0,0,10.44,70.92Z"/><path class="cls-5" d="M81.11,113.4a.44.44,0,0,0-.37.38.38.38,0,0,1,0-.76A.44.44,0,0,0,81.11,113.4Z"/><path class="cls-5" d="M16.49,148.93a.43.43,0,0,0-.37.38.38.38,0,0,1,0-.76A.43.43,0,0,0,16.49,148.93Z"/><path class="cls-5" d="M7.56,155.35a.43.43,0,0,0-.37.38.43.43,0,0,0-.37-.38.45.45,0,0,0,.37-.39A.45.45,0,0,0,7.56,155.35Z"/><path class="cls-5" d="M12.72,141a.47.47,0,0,0-.4.41.41.41,0,0,1,0-.82A.47.47,0,0,0,12.72,141Z"/><path class="cls-5" d="M29.38,149.72a.47.47,0,0,0-.4.41.41.41,0,0,1,0-.82A.47.47,0,0,0,29.38,149.72Z"/><path class="cls-5" d="M8.41,93.8a.45.45,0,0,0-.39.41.47.47,0,0,0-.4-.41.48.48,0,0,0,.4-.42A.46.46,0,0,0,8.41,93.8Z"/><path class="cls-5" d="M59,11.64a.47.47,0,0,0-.4.41.47.47,0,0,0-.4-.41.48.48,0,0,0,.4-.42A.48.48,0,0,0,59,11.64Z"/><path class="cls-5" d="M75.86,47.48a.47.47,0,0,0-.4.41.47.47,0,0,0-.4-.41.47.47,0,0,0,.4-.41A.47.47,0,0,0,75.86,47.48Z"/><path class="cls-5" d="M31.89,51.44a.47.47,0,0,0-.4.41.47.47,0,0,0-.4-.41.47.47,0,0,0,.4-.41A.47.47,0,0,0,31.89,51.44Z"/><path class="cls-5" d="M25.27,48.69a.47.47,0,0,0-.4.41.47.47,0,0,0-.4-.41.48.48,0,0,0,.4-.42A.48.48,0,0,0,25.27,48.69Z"/><path class="cls-5" d="M68.21,148.93a.24.24,0,1,1-.48,0,.24.24,0,1,1,.48,0Z"/><path class="cls-5" d="M141.67,24.74a.29.29,0,0,0-.25.25.28.28,0,0,0-.24-.25.27.27,0,0,0,.24-.25A.28.28,0,0,0,141.67,24.74Z"/><path class="cls-5" d="M140.56,28.83a.24.24,0,1,1-.48,0,.24.24,0,1,1,.48,0Z"/><path class="cls-5" d="M143.12,49.45a.24.24,0,1,1-.48,0,.24.24,0,1,1,.48,0Z"/><path class="cls-5" d="M150.93,61.37a.28.28,0,0,0-.24.25.27.27,0,0,0-.24-.25.28.28,0,0,0,.24-.25A.29.29,0,0,0,150.93,61.37Z"/><path class="cls-5" d="M150.69,75.92a.24.24,0,1,1-.48,0,.24.24,0,1,1,.48,0Z"/><path class="cls-5" d="M156.93,85.84a.24.24,0,1,1-.48,0,.24.24,0,1,1,.48,0Z"/><path class="cls-5" d="M154.93,101.7a.27.27,0,0,0-.24.25.28.28,0,0,0-.24-.25.29.29,0,0,0,.24-.25A.28.28,0,0,0,154.93,101.7Z"/><path class="cls-5" d="M156.06,120.87a.28.28,0,0,0-.24.25.27.27,0,0,0-.24-.25.28.28,0,0,0,.24-.25A.29.29,0,0,0,156.06,120.87Z"/><path class="cls-5" d="M142.2,112.66a.29.29,0,0,0-.24.25.25.25,0,0,1,0-.5A.29.29,0,0,0,142.2,112.66Z"/><path class="cls-5" d="M131.51,105.23a.28.28,0,0,0-.24.25.25.25,0,0,1,0-.5A.28.28,0,0,0,131.51,105.23Z"/><path class="cls-5" d="M122.67,99.78a.29.29,0,0,0-.24.25.25.25,0,0,1,0-.5A.29.29,0,0,0,122.67,99.78Z"/><path class="cls-5" d="M113,102.7a.24.24,0,1,1-.48,0,.24.24,0,1,1,.48,0Z"/><path class="cls-5" d="M104.21,101.45a.28.28,0,0,0-.24.25.25.25,0,0,1,0-.5A.28.28,0,0,0,104.21,101.45Z"/><path class="cls-5" d="M99.17,77.6a.24.24,0,1,1-.48,0,.24.24,0,1,1,.48,0Z"/><path class="cls-5" d="M117.76,84.67a.28.28,0,0,0-.24.25.29.29,0,0,0-.24-.25.28.28,0,0,0,.24-.25A.27.27,0,0,0,117.76,84.67Z"/><path class="cls-5" d="M115,83a.24.24,0,1,1-.48,0,.24.24,0,1,1,.48,0Z"/><path class="cls-5" d="M115.25,64.11a.29.29,0,0,0-.24.25.25.25,0,0,1,0-.5A.29.29,0,0,0,115.25,64.11Z"/><path class="cls-5" d="M127.69,54.11a.24.24,0,1,1-.48,0,.24.24,0,1,1,.48,0Z"/><path class="cls-5" d="M132.43,77.85a.24.24,0,1,1-.48,0,.24.24,0,1,1,.48,0Z"/><path class="cls-5" d="M110.45,79.92a.24.24,0,1,1-.48,0,.24.24,0,1,1,.48,0Z"/><path class="cls-5" d="M102.33,88.2a.24.24,0,1,1-.48,0,.24.24,0,1,1,.48,0Z"/><path class="cls-5" d="M99.94,60.9a.28.28,0,0,0-.24.25.25.25,0,0,1,0-.5A.28.28,0,0,0,99.94,60.9Z"/><path class="cls-5" d="M97.74,46.08a.28.28,0,0,0-.25.25.27.27,0,0,0-.24-.25.28.28,0,0,0,.24-.25A.29.29,0,0,0,97.74,46.08Z"/><path class="cls-5" d="M89,57.62a.27.27,0,0,0-.24.25.28.28,0,0,0-.24-.25.29.29,0,0,0,.24-.25A.28.28,0,0,0,89,57.62Z"/><path class="cls-5" d="M104,52.71a.24.24,0,1,1-.48,0,.24.24,0,1,1,.48,0Z"/><path class="cls-5" d="M104.21,42.61a.29.29,0,0,0-.24.25.28.28,0,0,0-.24-.25.28.28,0,0,0,.24-.25A.29.29,0,0,0,104.21,42.61Z"/><path class="cls-5" d="M100.59,36.31a.29.29,0,0,0-.25.25.28.28,0,0,0-.24-.25.28.28,0,0,0,.24-.25A.29.29,0,0,0,100.59,36.31Z"/><path class="cls-5" d="M97.59,27.56a.29.29,0,0,0-.25.25.28.28,0,0,0-.24-.25.27.27,0,0,0,.24-.25A.28.28,0,0,0,97.59,27.56Z"/><path class="cls-5" d="M104.45,11.89a.28.28,0,0,0-.24.25.27.27,0,0,0-.24-.25.28.28,0,0,0,.24-.25A.29.29,0,0,0,104.45,11.89Z"/><path class="cls-5" d="M107.17,18.72a.24.24,0,1,1-.48,0,.24.24,0,1,1,.48,0Z"/><path class="cls-5" d="M112.16,25a.29.29,0,0,0-.25.25.28.28,0,0,0-.24-.25.27.27,0,0,0,.24-.25A.28.28,0,0,0,112.16,25Z"/><path class="cls-5" d="M115,19.78a.24.24,0,1,1-.48,0,.24.24,0,1,1,.48,0Z"/><path class="cls-5" d="M95.64,16.82a.24.24,0,1,1-.48,0,.24.24,0,1,1,.48,0Z"/><path class="cls-5" d="M87.48,11.64a.28.28,0,0,0-.25.25.27.27,0,0,0-.24-.25.28.28,0,0,0,.24-.25A.29.29,0,0,0,87.48,11.64Z"/><path class="cls-5" d="M127.93,66.52a.24.24,0,1,1-.48,0,.24.24,0,1,1,.48,0Z"/><path class="cls-5" d="M144.45,103.1a.28.28,0,0,0-.25.25.27.27,0,0,0-.24-.25.28.28,0,0,0,.24-.25A.29.29,0,0,0,144.45,103.1Z"/><path class="cls-5" d="M127.45,128.57a.24.24,0,1,1-.48,0,.24.24,0,1,1,.48,0Z"/><path class="cls-5" d="M131.27,148.93a.28.28,0,0,0-.24.25.25.25,0,0,1,0-.5A.28.28,0,0,0,131.27,148.93Z"/><path class="cls-5" d="M160.14,153.59a.24.24,0,1,1-.48,0,.24.24,0,1,1,.48,0Z"/><path class="cls-5" d="M160.14,95.8a.24.24,0,1,1-.48,0,.24.24,0,1,1,.48,0Z"/><path class="cls-5" d="M134,88a.28.28,0,0,0-.24.25.27.27,0,0,0-.24-.25.28.28,0,0,0,.24-.25A.29.29,0,0,0,134,88Z"/><path class="cls-5" d="M159.9,36.56a.28.28,0,0,0-.24.25.29.29,0,0,0-.24-.25.29.29,0,0,0,.24-.25A.28.28,0,0,0,159.9,36.56Z"/><path class="cls-5" d="M135.77,119.19a.28.28,0,0,0-.24.25.29.29,0,0,0-.25-.25.28.28,0,0,0,.25-.25A.27.27,0,0,0,135.77,119.19Z"/><path class="cls-5" d="M140.32,128.07a.24.24,0,1,1-.48,0,.24.24,0,1,1,.48,0Z"/><path class="cls-5" d="M145.35,135a.29.29,0,0,0-.25.25.28.28,0,0,0-.24-.25.27.27,0,0,0,.24-.25A.28.28,0,0,0,145.35,135Z"/><path class="cls-5" d="M151.17,140.35a.28.28,0,0,0-.24.25.27.27,0,0,0-.24-.25.28.28,0,0,0,.24-.25A.29.29,0,0,0,151.17,140.35Z"/><path class="cls-5" d="M147.27,144.11a.27.27,0,0,0-.24.25.28.28,0,0,0-.24-.25.29.29,0,0,0,.24-.25A.28.28,0,0,0,147.27,144.11Z"/><path class="cls-5" d="M136,130.41a.48.48,0,0,0-.4.42.46.46,0,0,0-.39-.42.45.45,0,0,0,.39-.41A.47.47,0,0,0,136,130.41Z"/><path class="cls-5" d="M120.73,119.19a.4.4,0,1,1-.8,0,.4.4,0,1,1,.8,0Z"/><path class="cls-5" d="M136.56,101.2a.45.45,0,0,0-.39.41.41.41,0,0,1,0-.82A.45.45,0,0,0,136.56,101.2Z"/><path class="cls-5" d="M145.74,77.1a.46.46,0,0,0-.39.42.48.48,0,0,0-.4-.42.47.47,0,0,0,.4-.41A.45.45,0,0,0,145.74,77.1Z"/><path class="cls-5" d="M140.08,53.7a.4.4,0,1,1-.8,0,.4.4,0,1,1,.8,0Z"/><path class="cls-5" d="M154.27,30.34a.4.4,0,1,1-.8,0,.4.4,0,1,1,.8,0Z"/><path class="cls-5" d="M124.17,6.66a.4.4,0,1,1-.8,0,.4.4,0,1,1,.8,0Z"/><path class="cls-5" d="M161.81,23a.47.47,0,0,0-.4.41A.45.45,0,0,0,161,23a.45.45,0,0,0,.39-.41A.47.47,0,0,0,161.81,23Z"/><path class="cls-5" d="M122.83,19.53a.4.4,0,1,1-.8,0,.4.4,0,1,1,.8,0Z"/><path class="cls-5" d="M118.55,40a.47.47,0,0,0-.39.42.49.49,0,0,0-.4-.42.47.47,0,0,0,.4-.41A.45.45,0,0,0,118.55,40Z"/><path class="cls-5" d="M103.06,131.8a.93.93,0,0,0-.79.83,1,1,0,0,0-.8-.83.94.94,0,0,0,.8-.82A.92.92,0,0,0,103.06,131.8Z"/><path class="cls-5" d="M90.28,80.17a.93.93,0,0,0-.79.83,1,1,0,0,0-.8-.83.94.94,0,0,0,.8-.82A.92.92,0,0,0,90.28,80.17Z"/><path class="cls-5" d="M157.33,14.77a1,1,0,0,0-.8.83.93.93,0,0,0-.79-.83.92.92,0,0,0,.79-.82A.94.94,0,0,0,157.33,14.77Z"/><path class="cls-5" d="M163,64.11a.94.94,0,0,0-.8.82.94.94,0,0,0-.8-.82,1,1,0,0,0,.8-.83A1,1,0,0,0,163,64.11Z"/><path class="cls-5" d="M159.9,132.84a1,1,0,0,0-.8.83.93.93,0,0,0-.79-.83.92.92,0,0,0,.79-.82A.94.94,0,0,0,159.9,132.84Z"/><path class="cls-5" d="M89.88,108.63a.94.94,0,0,0-.79.82.94.94,0,0,0-.8-.82,1,1,0,0,0,.8-.83A.94.94,0,0,0,89.88,108.63Z"/><path class="cls-5" d="M89.49,26a.94.94,0,0,0-.8.82.94.94,0,0,0-.8-.82,1,1,0,0,0,.8-.83A1,1,0,0,0,89.49,26Z"/><path class="cls-5" d="M98.14,5.48a.94.94,0,0,0-.8.82.92.92,0,0,0-.79-.82.93.93,0,0,0,.79-.83A1,1,0,0,0,98.14,5.48Z"/><path class="cls-5" d="M133,17.65a.94.94,0,0,0-.8.82.94.94,0,0,0-.8-.82,1,1,0,0,0,.8-.83A1,1,0,0,0,133,17.65Z"/><path class="cls-5" d="M133.78,40.46a.92.92,0,0,0-.79.82.94.94,0,0,0-.8-.82,1,1,0,0,0,.8-.83A.93.93,0,0,0,133.78,40.46Z"/><path class="cls-5" d="M147.73,5.86a.37.37,0,1,1-.74,0,.37.37,0,1,1,.74,0Z"/><path class="cls-5" d="M135.9,29.25a.43.43,0,0,0-.37.39.45.45,0,0,0-.38-.39.44.44,0,0,0,.38-.38A.42.42,0,0,0,135.9,29.25Z"/><path class="cls-5" d="M110.34,41.28a.37.37,0,1,1-.74,0,.37.37,0,1,1,.74,0Z"/><path class="cls-5" d="M122.8,29.55a.45.45,0,0,0-.37.39.43.43,0,0,0-.37-.39.42.42,0,0,0,.37-.38A.43.43,0,0,0,122.8,29.55Z"/><path class="cls-5" d="M133.36,4.65A.43.43,0,0,0,133,5a.45.45,0,0,0-.37-.39.43.43,0,0,0,.37-.38A.42.42,0,0,0,133.36,4.65Z"/><path class="cls-5" d="M117.41,7.07a.37.37,0,1,1-.74,0,.37.37,0,1,1,.74,0Z"/><path class="cls-5" d="M161.78,6.24a.45.45,0,0,0-.37.39.43.43,0,0,0-.37-.39.42.42,0,0,0,.37-.38A.43.43,0,0,0,161.78,6.24Z"/><path class="cls-5" d="M91.91,70.92a.37.37,0,1,1-.74,0,.37.37,0,1,1,.74,0Z"/><path class="cls-5" d="M162.58,113.4a.37.37,0,1,1-.74,0,.37.37,0,1,1,.74,0Z"/><path class="cls-5" d="M98,148.93a.43.43,0,0,0-.37.38.38.38,0,0,1,0-.76A.43.43,0,0,0,98,148.93Z"/><path class="cls-5" d="M89,155.35a.37.37,0,1,1-.74,0,.45.45,0,0,0,.37-.39A.45.45,0,0,0,89,155.35Z"/><path class="cls-5" d="M94.19,141a.4.4,0,1,1-.8,0,.4.4,0,1,1,.8,0Z"/><path class="cls-5" d="M110.85,149.72a.4.4,0,1,1-.8,0,.4.4,0,1,1,.8,0Z"/><path class="cls-5" d="M89.88,93.8a.45.45,0,0,0-.39.41.47.47,0,0,0-.4-.41.48.48,0,0,0,.4-.42A.46.46,0,0,0,89.88,93.8Z"/><path class="cls-5" d="M140.48,11.64a.4.4,0,1,1-.8,0,.4.4,0,1,1,.8,0Z"/><path class="cls-5" d="M157.33,47.48a.4.4,0,1,1-.8,0,.4.4,0,1,1,.8,0Z"/><path class="cls-5" d="M113.36,51.44a.4.4,0,1,1-.8,0,.4.4,0,1,1,.8,0Z"/><path class="cls-5" d="M106.74,48.69a.4.4,0,1,1-.8,0,.4.4,0,1,1,.8,0Z"/><path class="cls-5" d="M149.68,148.93a.24.24,0,1,1-.48,0,.24.24,0,1,1,.48,0Z"/><path class="cls-5" d="M223.14,24.74a.29.29,0,0,0-.25.25.28.28,0,0,0-.24-.25.27.27,0,0,0,.24-.25A.28.28,0,0,0,223.14,24.74Z"/><path class="cls-5" d="M222,28.83a.24.24,0,1,1-.48,0,.24.24,0,1,1,.48,0Z"/><path class="cls-5" d="M224.59,49.45a.24.24,0,1,1-.48,0,.24.24,0,1,1,.48,0Z"/><path class="cls-5" d="M232.4,61.37a.28.28,0,0,0-.24.25.27.27,0,0,0-.24-.25.28.28,0,0,0,.24-.25A.29.29,0,0,0,232.4,61.37Z"/><path class="cls-5" d="M232.16,75.92a.24.24,0,1,1-.48,0,.24.24,0,1,1,.48,0Z"/><path class="cls-5" d="M238.4,85.84a.24.24,0,1,1-.48,0,.24.24,0,1,1,.48,0Z"/><path class="cls-5" d="M236.4,101.7a.27.27,0,0,0-.24.25.28.28,0,0,0-.24-.25.29.29,0,0,0,.24-.25A.28.28,0,0,0,236.4,101.7Z"/><path class="cls-5" d="M237.53,120.87a.28.28,0,0,0-.24.25.27.27,0,0,0-.24-.25.28.28,0,0,0,.24-.25A.29.29,0,0,0,237.53,120.87Z"/><path class="cls-5" d="M223.67,112.66a.24.24,0,1,1-.48,0,.24.24,0,1,1,.48,0Z"/><path class="cls-5" d="M213,105.23a.28.28,0,0,0-.24.25.25.25,0,0,1,0-.5A.28.28,0,0,0,213,105.23Z"/><path class="cls-5" d="M204.14,99.78a.29.29,0,0,0-.24.25.25.25,0,0,1,0-.5A.29.29,0,0,0,204.14,99.78Z"/><path class="cls-5" d="M194.43,102.7a.24.24,0,1,1-.48,0,.24.24,0,1,1,.48,0Z"/><path class="cls-5" d="M185.68,101.45a.28.28,0,0,0-.24.25.25.25,0,0,1,0-.5A.28.28,0,0,0,185.68,101.45Z"/><path class="cls-5" d="M180.64,77.6a.24.24,0,1,1-.48,0,.24.24,0,1,1,.48,0Z"/><path class="cls-5" d="M199.23,84.67a.28.28,0,0,0-.24.25.29.29,0,0,0-.24-.25.28.28,0,0,0,.24-.25A.27.27,0,0,0,199.23,84.67Z"/><path class="cls-5" d="M196.48,83a.24.24,0,1,1-.48,0,.24.24,0,1,1,.48,0Z"/><path class="cls-5" d="M196.72,64.11a.29.29,0,0,0-.24.25.25.25,0,0,1,0-.5A.29.29,0,0,0,196.72,64.11Z"/><path class="cls-5" d="M209.16,54.11a.24.24,0,1,1-.48,0,.24.24,0,1,1,.48,0Z"/><path class="cls-5" d="M213.9,77.85a.24.24,0,1,1-.48,0,.24.24,0,1,1,.48,0Z"/><path class="cls-5" d="M191.92,79.92a.24.24,0,1,1-.48,0,.24.24,0,1,1,.48,0Z"/><path class="cls-5" d="M183.8,88.2a.24.24,0,1,1-.48,0,.24.24,0,1,1,.48,0Z"/><path class="cls-5" d="M181.41,60.9a.28.28,0,0,0-.24.25.25.25,0,0,1,0-.5A.28.28,0,0,0,181.41,60.9Z"/><path class="cls-5" d="M179.2,46.08a.28.28,0,0,0-.24.25.27.27,0,0,0-.24-.25.28.28,0,0,0,.24-.25A.29.29,0,0,0,179.2,46.08Z"/><path class="cls-5" d="M170.42,57.62a.27.27,0,0,0-.24.25.28.28,0,0,0-.24-.25.29.29,0,0,0,.24-.25A.28.28,0,0,0,170.42,57.62Z"/><path class="cls-5" d="M185.44,52.71a.24.24,0,1,1-.48,0,.24.24,0,1,1,.48,0Z"/><path class="cls-5" d="M185.68,42.61a.29.29,0,0,0-.24.25.28.28,0,0,0-.24-.25.28.28,0,0,0,.24-.25A.29.29,0,0,0,185.68,42.61Z"/><path class="cls-5" d="M182.06,36.31a.29.29,0,0,0-.25.25.28.28,0,0,0-.24-.25.28.28,0,0,0,.24-.25A.29.29,0,0,0,182.06,36.31Z"/><path class="cls-5" d="M179.06,27.56a.29.29,0,0,0-.25.25.28.28,0,0,0-.24-.25.27.27,0,0,0,.24-.25A.28.28,0,0,0,179.06,27.56Z"/><path class="cls-5" d="M185.92,11.89a.28.28,0,0,0-.24.25.27.27,0,0,0-.24-.25.28.28,0,0,0,.24-.25A.29.29,0,0,0,185.92,11.89Z"/><path class="cls-5" d="M188.64,18.72a.24.24,0,1,1-.48,0,.24.24,0,1,1,.48,0Z"/><path class="cls-5" d="M193.62,25a.29.29,0,0,0-.24.25.28.28,0,0,0-.24-.25.27.27,0,0,0,.24-.25A.28.28,0,0,0,193.62,25Z"/><path class="cls-5" d="M196.48,19.78a.24.24,0,1,1-.48,0,.24.24,0,1,1,.48,0Z"/><path class="cls-5" d="M177.11,16.82a.24.24,0,1,1-.48,0,.24.24,0,1,1,.48,0Z"/><path class="cls-5" d="M168.94,11.64a.28.28,0,0,0-.24.25.27.27,0,0,0-.24-.25.28.28,0,0,0,.24-.25A.29.29,0,0,0,168.94,11.64Z"/><path class="cls-5" d="M209.4,66.52a.24.24,0,1,1-.48,0,.24.24,0,1,1,.48,0Z"/><path class="cls-5" d="M225.92,103.1a.28.28,0,0,0-.25.25.27.27,0,0,0-.24-.25.28.28,0,0,0,.24-.25A.29.29,0,0,0,225.92,103.1Z"/><path class="cls-5" d="M208.92,128.57a.27.27,0,0,0-.24.25.28.28,0,0,0-.24-.25.29.29,0,0,0,.24-.25A.28.28,0,0,0,208.92,128.57Z"/><path class="cls-5" d="M212.74,148.93a.28.28,0,0,0-.24.25.25.25,0,0,1,0-.5A.28.28,0,0,0,212.74,148.93Z"/><path class="cls-5" d="M241.61,153.59a.24.24,0,1,1-.48,0,.24.24,0,0,1,.48,0Z"/><path class="cls-5" d="M241.61,95.8a.24.24,0,1,1-.48,0,.24.24,0,1,1,.48,0Z"/><path class="cls-5" d="M215.49,88a.24.24,0,1,1-.48,0,.24.24,0,1,1,.48,0Z"/><path class="cls-5" d="M241.37,36.56a.28.28,0,0,0-.24.25.29.29,0,0,0-.24-.25.29.29,0,0,0,.24-.25A.28.28,0,0,0,241.37,36.56Z"/><path class="cls-5" d="M217.24,119.19a.28.28,0,0,0-.24.25.29.29,0,0,0-.25-.25.28.28,0,0,0,.25-.25A.27.27,0,0,0,217.24,119.19Z"/><path class="cls-5" d="M221.79,128.07a.27.27,0,0,0-.24.25.28.28,0,0,0-.24-.25.29.29,0,0,0,.24-.25A.28.28,0,0,0,221.79,128.07Z"/><path class="cls-5" d="M226.82,135a.29.29,0,0,0-.25.25.28.28,0,0,0-.24-.25.27.27,0,0,0,.24-.25A.28.28,0,0,0,226.82,135Z"/><path class="cls-5" d="M232.64,140.35a.28.28,0,0,0-.24.25.27.27,0,0,0-.24-.25.28.28,0,0,0,.24-.25A.29.29,0,0,0,232.64,140.35Z"/><path class="cls-5" d="M228.74,144.11a.27.27,0,0,0-.24.25.28.28,0,0,0-.24-.25.29.29,0,0,0,.24-.25A.28.28,0,0,0,228.74,144.11Z"/><path class="cls-5" d="M217.49,130.41a.48.48,0,0,0-.4.42.46.46,0,0,0-.39-.42.45.45,0,0,0,.39-.41A.47.47,0,0,0,217.49,130.41Z"/><path class="cls-5" d="M202.2,119.19a.4.4,0,1,1-.8,0,.4.4,0,1,1,.8,0Z"/><path class="cls-5" d="M218,101.2a.45.45,0,0,0-.39.41.41.41,0,0,1,0-.82A.45.45,0,0,0,218,101.2Z"/><path class="cls-5" d="M227.21,77.1a.46.46,0,0,0-.39.42.48.48,0,0,0-.4-.42.47.47,0,0,0,.4-.41A.45.45,0,0,0,227.21,77.1Z"/><path class="cls-5" d="M221.55,53.7a.4.4,0,1,1-.8,0,.4.4,0,1,1,.8,0Z"/><path class="cls-5" d="M235.74,30.34a.4.4,0,1,1-.8,0,.4.4,0,1,1,.8,0Z"/><path class="cls-5" d="M205.64,6.66a.4.4,0,1,1-.8,0,.4.4,0,1,1,.8,0Z"/><path class="cls-5" d="M243.28,23a.4.4,0,1,1-.79,0,.4.4,0,1,1,.79,0Z"/><path class="cls-5" d="M204.3,19.53a.4.4,0,1,1-.8,0,.4.4,0,1,1,.8,0Z"/><path class="cls-5" d="M200,40a.47.47,0,0,0-.39.42.49.49,0,0,0-.4-.42.47.47,0,0,0,.4-.41A.45.45,0,0,0,200,40Z"/><path class="cls-5" d="M184.53,131.8a.93.93,0,0,0-.79.83,1,1,0,0,0-.8-.83.94.94,0,0,0,.8-.82A.92.92,0,0,0,184.53,131.8Z"/><path class="cls-5" d="M171.75,80.17A.93.93,0,0,0,171,81a1,1,0,0,0-.8-.83.94.94,0,0,0,.8-.82A.92.92,0,0,0,171.75,80.17Z"/><path class="cls-5" d="M238.8,14.77a1,1,0,0,0-.8.83.93.93,0,0,0-.79-.83A.92.92,0,0,0,238,14,.94.94,0,0,0,238.8,14.77Z"/><path class="cls-5" d="M244.48,64.11a.8.8,0,1,1-1.6,0,.8.8,0,1,1,1.6,0Z"/><path class="cls-5" d="M241.37,132.84a.8.8,0,1,1-1.59,0,.8.8,0,1,1,1.59,0Z"/><path class="cls-5" d="M171.35,108.63a.92.92,0,0,0-.79.82.94.94,0,0,0-.8-.82,1,1,0,0,0,.8-.83A.93.93,0,0,0,171.35,108.63Z"/><path class="cls-5" d="M171,26a.94.94,0,0,0-.8.82.94.94,0,0,0-.8-.82,1,1,0,0,0,.8-.83A1,1,0,0,0,171,26Z"/><path class="cls-5" d="M179.61,5.48a.94.94,0,0,0-.8.82.92.92,0,0,0-.79-.82.93.93,0,0,0,.79-.83A1,1,0,0,0,179.61,5.48Z"/><path class="cls-5" d="M214.46,17.65a.8.8,0,1,1-1.6,0,.8.8,0,1,1,1.6,0Z"/><path class="cls-5" d="M215.25,40.46a.92.92,0,0,0-.79.82.94.94,0,0,0-.8-.82,1,1,0,0,0,.8-.83A.93.93,0,0,0,215.25,40.46Z"/><path class="cls-5" d="M229.2,5.86a.37.37,0,1,1-.74,0,.37.37,0,1,1,.74,0Z"/><path class="cls-5" d="M217.37,29.25a.43.43,0,0,0-.37.39.45.45,0,0,0-.38-.39.44.44,0,0,0,.38-.38A.42.42,0,0,0,217.37,29.25Z"/><path class="cls-5" d="M191.81,41.28a.37.37,0,1,1-.74,0,.37.37,0,1,1,.74,0Z"/><path class="cls-5" d="M204.27,29.55a.45.45,0,0,0-.37.39.43.43,0,0,0-.37-.39.42.42,0,0,0,.37-.38A.43.43,0,0,0,204.27,29.55Z"/><path class="cls-5" d="M214.83,4.65a.43.43,0,0,0-.37.39.45.45,0,0,0-.38-.39.44.44,0,0,0,.38-.38A.42.42,0,0,0,214.83,4.65Z"/><path class="cls-5" d="M198.88,7.07a.37.37,0,1,1-.74,0,.37.37,0,1,1,.74,0Z"/><path class="cls-5" d="M243.25,6.24a.45.45,0,0,0-.37.39.43.43,0,0,0-.37-.39.42.42,0,0,0,.37-.38A.43.43,0,0,0,243.25,6.24Z"/><path class="cls-5" d="M173.38,70.92a.37.37,0,1,1-.74,0,.37.37,0,1,1,.74,0Z"/><path class="cls-5" d="M244.05,113.4a.37.37,0,1,1-.74,0,.37.37,0,1,1,.74,0Z"/><path class="cls-5" d="M179.43,148.93a.43.43,0,0,0-.37.38.38.38,0,0,1,0-.76A.43.43,0,0,0,179.43,148.93Z"/><path class="cls-5" d="M170.5,155.35a.37.37,0,1,1-.74,0,.37.37,0,1,1,.74,0Z"/><path class="cls-5" d="M175.66,141a.4.4,0,1,1-.8,0,.4.4,0,1,1,.8,0Z"/><path class="cls-5" d="M192.32,149.72a.4.4,0,1,1-.8,0,.4.4,0,1,1,.8,0Z"/><path class="cls-5" d="M171.35,93.8a.45.45,0,0,0-.39.41.47.47,0,0,0-.4-.41.48.48,0,0,0,.4-.42A.46.46,0,0,0,171.35,93.8Z"/><path class="cls-5" d="M222,11.64a.4.4,0,1,1-.8,0,.4.4,0,1,1,.8,0Z"/><path class="cls-5" d="M238.8,47.48a.4.4,0,1,1-.8,0,.4.4,0,1,1,.8,0Z"/><path class="cls-5" d="M194.83,51.44a.4.4,0,1,1-.8,0,.4.4,0,1,1,.8,0Z"/><path class="cls-5" d="M188.21,48.69a.4.4,0,1,1-.8,0,.4.4,0,1,1,.8,0Z"/><path class="cls-5" d="M231.15,148.93a.28.28,0,0,0-.24.25.25.25,0,0,1,0-.5A.28.28,0,0,0,231.15,148.93Z"/></g><path class="cls-6" d="M51.88,106.14C109,95,176.77,87.89,250,86.1V160H0V118.07q3.63-1,7.36-1.95c2.56-.66,5.15-1.32,7.78-2h0q11.23-2.76,23.19-5.27l.15,0c2.49-.53,5-1,7.54-1.55h0c1.5-.31,3-.61,4.52-.9l.71-.14h0Z"/><path class="cls-7" d="M87.74,160H250v-9.82c-17.52-2.15-79.63-9.61-66.5-5.48,15.25,4.8-57.57-.34-45.6,3.87C148.53,152.31,97.25,151.32,87.74,160Z"/><path class="cls-7" d="M51.88,106.14l-.56.11h0l-.71.14c-1.52.29-3,.59-4.52.9h0c-2.53.5-5,1-7.54,1.55l-.15,0q-11.94,2.5-23.19,5.27h0c-2.63.64-5.22,1.3-7.78,2S2.42,117.41,0,118.07v8.06l8.5-3.08c8.5-4.32,35.63-6.42,42.25-6.8s22.38-.62,13.63-2,26.5-5.39,16.25-6.57,24.37-8.2,32.5-8.82,9.87-3.76,9.9-3.81C97.91,98.11,74.1,101.83,51.88,106.14Z"/><path class="cls-7" d="M250,90.38c-18.61-.32-74.8,2.12-114.46,8.34-45.21,7.09-30,10.76,6.71,12.48,46.43,2.17,52,10.43,33.63,15.72s18.84-.44,40.55,9.57c9.86,4.54,15.32-7.5,33.57,18.95Z"/><path class="cls-6" d="M247.59,95.54,250,97.1v13.73a13.29,13.29,0,0,0-.69,1.45c-1.79,4.3-1,5.49-7.52,3.41s-7.61,2-7.9,4.14-1.12-.46-3.91-1.7-6.94,2.62-12.38,1.8-8.72,1.91-9.49,3.06-2.37-.84-7.18-3.57-11-3.31-13.72-1.26-2.43-.14-2.17-1.72-5.06-2.73-8.07-1.21-7.16,1.14-4.26-1.07c2-1.52-.34-2.57-3-2.85h-.07l-.63,0a10.89,10.89,0,0,0-2.75.17c-3.07.69-3.69.5-1.93-1s-10.59,0-2.5-3.17a15.57,15.57,0,0,0,6.41-5.71c3.05-4.42,19-8.38,24.86-9.5s30.81-4.58,54.47,3.44Z"/><path class="cls-8" d="M193.11,92.09c-5.88,1.12-21.81,5.08-24.86,9.5a15.57,15.57,0,0,1-6.41,5.71c-8.09,3.18,4.26,1.73,2.5,3.17s-1.14,1.64,1.93,1a11.39,11.39,0,0,1,3.44-.11c2.64-.64,3.76-1,5.23-2.82,2.68-3.4,8.35-1.92,5.42,1.37s2.4,2,3.68,0,7.9-3,6.13-1.2-3.35,8.79.47,3.38,12.25-3.5,12.21-.92,2.1,5.79,2.71.62,9.77-3.93,9.77-3.93c38.95-3.31,32.25-12.29,32.25-12.29C223.92,87.51,199,91,193.11,92.09Z"/><path class="cls-9" d="M244.63,97.4c.17,2.54-16,5.69-36.06,7s-36.5.37-36.67-2.17,16-7.64,36.09-9S244.46,94.86,244.63,97.4Z"/><path class="cls-10" d="M175.2,103.91c5.79,1.23,18.57,1.5,33.37.51,16.12-1.07,29.68-3.31,34.33-5.46-5.7-1.81-18.58-3.17-33.51-2.18C193.44,97.84,180,101.27,175.2,103.91Z"/><path class="cls-11" d="M209.39,101.07a138.65,138.65,0,0,0-24.75,3.81,226.43,226.43,0,0,0,23.93-.46,218.35,218.35,0,0,0,25-2.94A137.47,137.47,0,0,0,209.39,101.07Z"/><path class="cls-12" d="M250,103v7.88a13.29,13.29,0,0,0-.69,1.45c-1.79,4.3-1,5.49-7.52,3.41s-7.61,2-7.9,4.14-1.12-.46-3.91-1.7-6.94,2.62-12.38,1.8-8.72,1.91-9.49,3.06-2.37-.84-7.18-3.57c-.33-4.71,15.38-.88,13.33-3.25s-1.36-4.26,1.28-2,7,3.23,4.12-.15.24-4,3.86-.77,6.46,4.91,5.9-.16,6.37-5.24,10.87-2.59,2.37,4.36,2.64-2.26C243.14,103.34,247.11,102.35,250,103Z"/><path class="cls-6" d="M6.25,117.11a7.79,7.79,0,0,0,2.66-3.37c1.11-2.45,8.6-5.8,11.4-6.87s14.76-5,27.11-3.09l1.72.72c1.17.51,6.21,3.93,6.21,3.93s2,1.44-1.41.24-2.9,0-1.53.63,1.67,1.72.16,1-2.32-.65-2.82,1.62,0,2.79-3.41,2.34-3.57,1.63-3.52,2.73-.59-.12-2.07-.49-3.19,1.9-5.94,2a5,5,0,0,0-4.4,2.34c-.28.64-1.24-.2-3.85-1.12s-5.71-.66-6.86.58-1.21.15-1.22-.65-2.73-.9-4.08.11-3.42,1.19-2.19-.15-2-1.39-3.41-.78-1.77.56-1-.3S2.55,119.38,6.25,117.11Z"/><path class="cls-8" d="M20.31,106.87c-2.8,1.07-10.29,4.42-11.4,6.87a7.79,7.79,0,0,1-2.66,3.37c-3.7,2.27,2.26.48,1.52,1.34s-.42.9,1,.3a5.54,5.54,0,0,1,1.68-.36,3.8,3.8,0,0,0,2.33-1.85c1-1.91,3.94-1.68,2.78.2s1.37.79,1.82-.32,3.63-2.16,2.91-1.13-.88,4.62.53,1.62,5.72-2.8,5.93-1.52,1.54,2.67,1.39.06,4.46-2.79,4.46-2.79c18.88-5,14.79-8.88,14.79-8.88C35.07,101.91,23.11,105.8,20.31,106.87Z"/><path class="cls-9" d="M46.14,105c.3,1.23-7.37,4.2-17.14,6.62S11.07,115,10.76,113.74s7.21-5.17,17-7.59S45.83,103.72,46.14,105Z"/><path class="cls-10" d="M12.53,114.26c3,.1,9.28-.89,16.47-2.68,7.84-1.94,14.32-4.23,16.42-5.7-3-.39-9.43.07-16.69,1.87C21,109.67,14.66,112.54,12.53,114.26Z"/><path class="cls-11" d="M29,111.58a103.42,103.42,0,0,0,12.76-3.92,66.88,66.88,0,0,0-12.79,2A67.14,67.14,0,0,0,16.38,114,107.26,107.26,0,0,0,29,111.58Z"/><path class="cls-12" d="M30.41,120.76a5,5,0,0,1,4.4-2.34c2.75-.07,4.45-2.34,5.94-2s2.12,1.59,2.07.49.15-3.19,3.52-2.73,2.9-.07,3.41-2.34,1.31-2.39,2.82-1.62,1.21-.34-.16-1-1.91-1.84,1.53-.63,1.41-.24,1.41-.24-1.13-.77-2.44-1.63c0,0-3.83-1.43-2.34-.43s1.17,2,0,1.19-4.78-.41-4.33,2.87,1.34,2.26-1.1,1.34S39.31,111.56,40,114s-.82,1.89-2.89.6-3.57-.69-1.84.72-.52,1.3-2,.43-1.67.13-.45,1.12-6.85.48-6.28,2.77C29.17,120.56,30.13,121.4,30.41,120.76Z"/><polygon class="cls-9" points="244.63 133.9 233.94 137.56 244.63 142.25 250 145.3 250 150.74 244.63 147.61 233.54 140.38 220.34 137.56 202.76 136.18 171.9 132.83 144.03 128.99 125 121.84 146.73 127 191.78 131.35 223.51 131.35 250 127.57 250 132.43 244.63 133.9"/><path class="cls-9" d="M94.42,104.14l8.66-1.69h11.33l12.39-6s19.78-.81,20.87-.81h11.4l-13.52,1.74-12.23.22H129L124,99l-7.17,6.77-8.28,1.1H92.68Z"/><path class="cls-9" d="M224,160H145.35a29,29,0,0,1,5.3-1.1c13.51-1.37,30.71-5.87,38.9-7.71s16.21,7,25.51,7.71C217.19,159.06,220.35,159.41,224,160Z"/><path class="cls-13" d="M204.71,160H170.83c7.51-1.61,14.38-3.33,18.72-4.31C194.56,154.57,199.5,157.44,204.71,160Z"/><path class="cls-9" d="M158,146.77s7.89-5.33,11.13-4.22,5.71,2.76,10.14,3.07.44,3.78-6.26,3.45-4.76,1.67-12.07,2.35-17.7,3.22-13.08-.87S152.68,149.78,158,146.77Z"/><path class="cls-13" d="M169.28,144.85c-3.24-1.11-11.13,4.23-11.13,4.23-5.31,3-5.53-.28-10.08,3.72,2.56.2,8.32-1,12.89-1.38,7.31-.68,5.36-2.67,12.07-2.35a14.14,14.14,0,0,0,6.64-1.11,2.13,2.13,0,0,0-.25,0C175,147.61,172.52,146,169.28,144.85Z"/><g class="cls-14"><path class="cls-15" d="M154.3,111.2a19.58,19.58,0,0,1-4.4,2.46c-2.37.9-16.09,4.08-24,1.76-7-2,.42-3,4.28-4.23s12.07,0,12.07,0Z"/></g><path class="cls-13" d="M154.3,111.2c-6.48,3.27-18.93,4.28-18.93,4.28-7.39.12-9.42-2.62-9.42-2.62,1.52-3,7.1-5.32,7.1-5.32,5.58.66,14.31-1,14.31-1C151.57,107.29,154.3,111.2,154.3,111.2Z"/><path class="cls-9" d="M147.36,106.54s-8.73,1.66-14.31,1c0,0,2.64-1.13,9-1.32C147.78,106.05,147.36,106.54,147.36,106.54Z"/><path class="cls-13" d="M147.7,106.62c1.76,1.24,4.83,3.75,3.85,5.73a23.45,23.45,0,0,0,2.75-1.15S151.72,107.51,147.7,106.62Z"/><path class="cls-9" d="M138.3,107c4.5-.17,5.62-.55,5.73-.86l-1.93,0a37.58,37.58,0,0,0-7.27.81C135.79,107.08,136.93,107.09,138.3,107Z"/><path class="cls-10" d="M149.84,112.9c-5.77,1.67-16.06,1.84-18.62-.57-1.6-1.51-.51-3.16.54-4.19-1.74.88-4.75,2.62-5.81,4.72,0,0,2,2.74,9.42,2.62A84,84,0,0,0,149.84,112.9Z"/><path class="cls-7" d="M0,137.9V160S52.32,149,69.25,148s25.75-7.31,0-6.84,17.1-13.25,39.28-15-4.53-7-30.78-4.77S26,131.84,36,125.59,35.5,117.71,0,137.9Z"/><path class="cls-6" d="M143.13,139.11A12.91,12.91,0,0,1,137.4,135c-2.88-3.37-16.29-5.3-21.21-5.73S90.51,128,71.75,136.58l-2.39,1.93c-1.63,1.33-8.08,9.05-8.08,9.05s-2.57,3.2,2.35-.27,4.6-1.28,2.71.31-1.87,3.49.18,1.58,3.38-2.08,5.21,1.3,1.31,4.42,6.46,2.17,6.41,1,6.83,2.74.89-.47,3.07-1.72,5.92,1.57,10.31.44,7.32.85,8,1.73,1.88-.89,5.59-3.53,8.77-3.63,11.17-2.18,2-.32,1.64-1.59,3.92-2.66,6.52-1.67,6,.34,3.41-1.23,2.48-3.09,5.05-2.78,3.08.1,1.51-.94S150,141,143.13,139.11Z"/><path class="cls-8" d="M116.19,129.22c4.92.43,18.33,2.36,21.21,5.73a12.91,12.91,0,0,0,5.73,4.16c6.91,1.93-3.35,1.77-1.79,2.81s1.07,1.25-1.51.94a9.3,9.3,0,0,0-2.82.19c-2.22-.3-3.18-.48-4.53-1.87-2.49-2.57-7-.89-4.34,1.57s-1.8,1.87-3,.32-6.74-1.8-5.14-.48,3.49,6.93-.1,2.81-10.35-1.85-10.1.27-1.24,4.93-2.18.73S99.26,144,99.26,144c-32.25.52-27.51-7.41-27.51-7.41C90.51,128,111.26,128.79,116.19,129.22Z"/><path class="cls-9" d="M74.33,137.87c.08,2.1,13.59,3.34,30.19,2.77s30-2.75,29.93-4.84-13.77-4.94-30.38-4.37S74.26,135.77,74.33,137.87Z"/><path class="cls-10" d="M131.88,137.44c-4.65,1.48-15.12,2.77-27.36,3.2-13.32.46-24.64-.25-28.63-1.63,4.53-2,15-4.16,27.33-4.58C116.4,134,127.72,135.67,131.88,137.44Z"/><path class="cls-11" d="M103.22,137.64a111.26,111.26,0,0,0-20.66,2.55,175.91,175.91,0,0,0,22,.45A184.69,184.69,0,0,0,125,138.9,111.1,111.1,0,0,0,103.22,137.64Z"/><path class="cls-12" d="M106.45,155.84c-.73-.88-3.65-2.85-8-1.73s-8.12-1.7-10.31-.44-2.65,3.49-3.07,1.72-1.67-5-6.83-2.74-4.63,1.2-6.46-2.17-3.16-3.2-5.21-1.3-2.08,0-.18-1.58,2.2-3.78-2.71-.31-2.35.27-2.35.27,1.45-1.73,3.14-3.7c0,0,5.42-4,3.52-1.75s-1,3.68.52,1.91,7.39-2.83,8.17,2.58-1.11,4.19,2.36,1.64,9.17-3,9.14,1.22,2.15,2.63,4.86-.36,5.34-2.71,3.23.31,1.42,1.83,3.4-.22,2.7-.56,1.22,1.56,11.08-2.33,11.2,1.56C108.33,155,107.18,156.72,106.45,155.84Z"/><path class="cls-9" d="M.75,134.35c-.11,0-.38.16-.75.48v-2.65l5-1.79,4.42-3.26L5,131.35S1.41,134.51.75,134.35Z"/><path class="cls-9" d="M47.89,133.41,63.73,129c-.93.36-15.88,6.18-17.59,7.06s-22.57,7.13-25.39,7.78S1.84,153.41,1,153.84l-1,.43V151l5-.66,7.5-5.43,10.17-4.13,10.87-3.25c10.87-3.24,8-2,11.85-3.21C48.57,133.32,48.13,133.37,47.89,133.41Z"/><path class="cls-9" d="M103.77,113.9s-16.3-1.24-22.72,1.06-2.59,4.38-18,4.57,8.43,6.66,14,8.46,16.77-2.78,23.89-4.28S120.38,113.25,103.77,113.9Z"/><path class="cls-13" d="M63.11,121.25c15.44-.19,11.61-2.28,18-4.57s22.71-1.07,22.71-1.07c4.88-.19,7.21.46,8,1.5-1.2,2.53-6.89,5.76-10.91,6.6-7.12,1.5-18.35,6.08-23.89,4.28-3.57-1.16-14.71-4.25-18.1-6.35A17.4,17.4,0,0,1,63.11,121.25Z"/><path class="cls-9" d="M49,154.39c3.69,1.77,6.79,3.88,10.59,5.61H27.28C30.58,158.3,43.74,151.85,49,154.39Z"/><path class="cls-13" d="M50.75,160H37.83c4.17-1.38,8.45-2.2,11-1C49.46,159.32,50.11,159.66,50.75,160Z"/><g class="cls-14"><path class="cls-15" d="M37.54,131.34a16,16,0,0,1-3.58,2c-1.92.72-13,3.31-19.46,1.43-5.65-1.66.34-2.42,3.47-3.44s9.79,0,9.79,0Z"/></g><path class="cls-13" d="M37.54,131.34c-5.26,2.66-15.36,3.47-15.36,3.47-6,.1-7.64-2.13-7.64-2.13,1.23-2.44,5.76-4.31,5.76-4.31,4.53.54,11.61-.81,11.61-.81A9.93,9.93,0,0,1,37.54,131.34Z"/><path class="cls-9" d="M31.91,127.56s-7.08,1.35-11.61.81c0,0,2.14-.92,7.34-1.07C32.25,127.16,31.91,127.56,31.91,127.56Z"/><path class="cls-9" d="M32.18,127.62c1.43,1,3.93,3,3.13,4.65a18.46,18.46,0,0,0,2.23-.93A10.15,10.15,0,0,0,32.18,127.62Z"/><path class="cls-9" d="M24.55,128c3.66-.15,4.57-.45,4.66-.7l-1.57,0a30.21,30.21,0,0,0-5.9.66C22.52,128,23.44,128,24.55,128Z"/><path class="cls-10" d="M33.92,132.72c-4.68,1.35-13,1.49-15.11-.47-1.3-1.22-.41-2.56.44-3.39-1.41.71-3.85,2.12-4.71,3.82,0,0,1.64,2.23,7.64,2.13A67.51,67.51,0,0,0,33.92,132.72Z"/><circle class="cls-16" cx="48.3" cy="84.79" r="10.84"/><path class="cls-17" d="M214.5,86.67c-28,5.07-19-1.81-40.87-13.92-4.4-2.44-7.54-4.29-9.91-5.65a14.92,14.92,0,0,0-7.38-2h0A14.79,14.79,0,0,0,150,66.58c-1.82.86-4.18,1.92-7.37,3.12-18.15,6.84-35,3-48,0S80.5,68.11,50.67,81,36,90.11,20.56,89.09C12.15,88.53,4.88,92.89,0,97v3.44C4.75,98,10.7,95.45,11.46,97c1.29,2.61.84,3.38-1.81,6.62C7.55,106.19,3.82,113.73,0,116.4V125a71.68,71.68,0,0,0,14.54-14.88c6.55-9.25,31-6.51,39.38-13.83S81,85.86,100.65,85.67s27.85,1.44,43.15-2.82,27.7-4.24,39.76,6,11.44,7.75,29.93,9.23,19.13-1.18,31.1-6.54A17,17,0,0,1,250,90.28V83.82C241,82.76,230.25,83.83,214.5,86.67ZM94.3,80.13c-4.67,2.61-8.42-2.48-14.55,0S65,84.82,66.38,81.84s6.14-3,9.21-5.59c0,0,2.66-4.19,7-2.91s3.75,4.58,8.75,1.67S99,77.52,94.3,80.13Zm67-3.88c-6.58,0-10.08,1-12.83,2.11s-9.39-3.62,3.47-8.42c0,0,5.36-1.77,7.53-.59S161,72.86,164,74,167.83,76.22,161.25,76.25Zm77.13,15.36c-8.13.75-7.63,2-11.51,2.11s-4.24-2.24-.49-4.86c0,0,5.37-3,10-2s3.87,2.55,7,.9S246.5,90.86,238.38,91.61Z"/><path class="cls-18" d="M250,20.74a113.6,113.6,0,0,0-67.86-6,205.16,205.16,0,0,0-27.71,8.22c-19.69,7-32.7,11.62-71.41-1.56-27.94-9.51-55-7.54-72.84-4.2-3.64.68-7,1.44-10.18,2.23v.52c3.16-.8,6.6-1.57,10.27-2.26C28,14.32,55,12.35,82.86,21.83c38.88,13.24,52,8.59,71.74,1.56a206.31,206.31,0,0,1,27.64-8.21A113.29,113.29,0,0,1,250,21.28Z"/><path class="cls-19" d="M250,3.74c-7.92-.68-12.19,1.46-18.36,4.56a101.16,101.16,0,0,1-16.18,6.77c-25.37,8-59.39,7.55-80.89-1.1-3.62-1.46-6.58-2.85-9.19-4.08-6.51-3.05-11.22-5.26-19.56-5.34h-.45c-8.49,0-20.55,2.1-41.38,7.18C37.43,18.2,16,15.92,2.74,12.87,1.8,12.65.89,12.43,0,12.2v.26c.87.22,1.76.44,2.68.65C16,16.17,37.43,18.46,64.05,12c42.88-10.46,47.88-8.12,61.22-1.85,2.61,1.23,5.58,2.62,9.2,4.08,11.29,4.54,26,6.84,41.13,6.84a135.49,135.49,0,0,0,39.93-5.73,101.23,101.23,0,0,0,16.22-6.79C237.88,5.44,242.12,3.31,250,4Z"/><path class="cls-20" d="M250,71.41c-7.92-.68-12.19,1.46-18.36,4.56a101,101,0,0,1-16.18,6.78c-25.37,8-59.39,7.55-80.89-1.11-3.62-1.46-6.58-2.85-9.19-4.07-6.51-3.06-11.22-5.27-19.56-5.34h-.45c-8.49,0-20.55,2.09-41.38,7.17-26.56,6.48-48,4.2-61.25,1.15C1.8,80.33.89,80.11,0,79.88v.26c.87.22,1.76.44,2.68.65,13.3,3.06,34.75,5.35,61.37-1.15,42.88-10.46,47.87-8.11,61.22-1.85,2.61,1.23,5.58,2.62,9.2,4.08,11.29,4.55,26,6.84,41.13,6.84A135.77,135.77,0,0,0,215.53,83a103.12,103.12,0,0,0,16.22-6.79c6.13-3.08,10.37-5.21,18.25-4.53Z"/><path class="cls-21" d="M0,69.89c4.61.64,10.57-.25,13.63-4.82C18,58.51,23.75,61.25,30.49,63s10.51.79,16.26-3.9,10-2.43,15.07-.72,8.25-1,8.25-1l6.4.31-.59-4.84c2.32-10.9-2.13-12-3.38-15.13S69.75,32.25,71,29.5s1.29-6.75-4.25-8.57S63,15.75,60.62,6.5a11.66,11.66,0,0,0-5-6.5H0Z"/><path class="cls-21" d="M55.16,50.61a22,22,0,0,0,17.23,3.44c.14-14.45-6-13.4-8.66-23.3s-10-1.5-12.65-15C49.59,8.18,42.48,3.05,36.51,0H0V56.34c8.12-1.4,18.55-4.88,29-3.35C46,55.48,47,44.75,55.16,50.61Z"/><path class="cls-22" d="M0,35c16.92,2.45,12.14,9.48,28.67,9.53,19,.06,18.66-5.73,26.29,1.23a25.68,25.68,0,0,0,16.89,6.55C67.7,36.68,61,39.17,57.35,32s-8.18-3.33-16-7-5.15-5.33-7.87-15.67C31.4,1.5,17.55.18,11,0H0Z"/><g class="cls-23"><path class="cls-24" d="M67.6,46h0l0,0-.17-.09L47.71,31.44,64.64,49l.12.16,0,0h0a1.8,1.8,0,0,0,.19.2,2.15,2.15,0,0,0,2.84-3.24A1.63,1.63,0,0,0,67.6,46Z"/><path class="cls-25" d="M67.71,48.93a1.74,1.74,0,0,1-2.45.16,1.2,1.2,0,0,1-.16-.16h0a1.34,1.34,0,0,1-.11-.14L55.42,38.19l11.76,8.05.16.09,0,0a1.4,1.4,0,0,1,.18.13A1.74,1.74,0,0,1,67.71,48.93Z"/></g><path class="cls-24" d="M65.19,49.15A1.82,1.82,0,1,1,67.77,49,1.82,1.82,0,0,1,65.19,49.15Z"/><path class="cls-24" d="M67.6,46.41a1.82,1.82,0,0,0-2.58.17,1.67,1.67,0,0,0-.28.43h0s.4-.52.69-.31.53.22.44.5-.16.33,0,.52.28.43,0,.63-.16.66-.46.51-.37,0-.54,0a1.64,1.64,0,0,0,.28.31,1.82,1.82,0,1,0,2.41-2.74Z"/><path class="cls-24" d="M65.24,46.37c.16,0,.91.17,1,.46s.43.32.32.79.3.19-.06.63.15.28-.26.67c-.23.2-.4.39-.56.54a1.83,1.83,0,0,0,1.93-3.05A1.82,1.82,0,0,0,65.24,46.37Z"/><path class="cls-24" d="M65.42,46.24a2.25,2.25,0,0,0,1,.23c.23-.1.56.34.64.56s-.12.32.14.59.55.42.3.68-.42.35-.46.53.14.29-.29.43a3,3,0,0,0-.77.3,1.83,1.83,0,0,0,1.61-3.15A1.82,1.82,0,0,0,65.42,46.24Z"/><path class="cls-24" d="M65.23,46.38a1.82,1.82,0,0,1,2,2.91l-.21.2a1.77,1.77,0,0,0,.74-.51,1.82,1.82,0,0,0-2.54-2.6Z"/><path class="cls-24" d="M64.76,48.59c.18-.06.36-.25.29-.33s.12-.23.33,0,.24-.21-.09-.44-.09-.21.23-.27,0-.31-.13-.43-.18,0-.38.22-.33-.12-.33-.12A1.8,1.8,0,0,0,64.76,48.59Z"/><path class="cls-26" d="M93.06,70.21c.24-2.79-3.16-7-5.36-9.18L71.31,46.62l-2.72,3.09L65.87,52.8l16.4,14.41c2.47,1.9,7,4.74,9.78,4.15A1.29,1.29,0,0,0,93.06,70.21Z"/><path class="cls-27" d="M82.27,67.21c2.47,1.9,7,4.74,9.78,4.15a1.29,1.29,0,0,0,1-1.15c.24-2.79-3.16-7-5.36-9.18l0,0c-4.62-3.47-9-5-10.3-3.53s.57,5.21,4.2,9.12Z"/><path class="cls-24" d="M92.05,71.36a1.29,1.29,0,0,0,1-1.15c.16-1.84-1.27-4.29-2.89-6.37-3.38-2-6.22-2.66-7.26-1.49s0,3.82,2.29,6.85C87.51,70.59,90.21,71.76,92.05,71.36Z"/><path class="cls-28" d="M83.63,67A3.09,3.09,0,1,1,88,66.76,3.08,3.08,0,0,1,83.63,67Z"/><path class="cls-29" d="M83.72,63A2.6,2.6,0,1,1,84,66.68,2.6,2.6,0,0,1,83.72,63Z"/><path class="cls-30" d="M69.81,53c2.15,2,4.31,4.08,6.33,5.82,3.32,2.86,6.26,4.89,8.21,4.71-.07-2-2.46-4.62-5.72-7.54-2-1.78-4.29-3.66-6.58-5.54a7,7,0,0,0-2.57-2.9l-1.54-1.35L66.5,47.87l-1.44,1.64,1.55,1.36A6.82,6.82,0,0,0,69.81,53Z"/><path class="cls-30" d="M92.05,71.36a1.29,1.29,0,0,0,1-1.15,7,7,0,0,0-1.16-3.82,3.28,3.28,0,0,0-3.78,4.3A7.05,7.05,0,0,0,92.05,71.36Z"/><path class="cls-31" d="M64.89,57.13l-.37-.32a1.13,1.13,0,0,1-.29-1.28,34.13,34.13,0,0,1,2.35-4.68l0,0A6.82,6.82,0,0,0,69.81,53c2.15,2,4.31,4.08,6.33,5.82a28.8,28.8,0,0,0-10.49-1.45A1.07,1.07,0,0,1,64.89,57.13Z"/><path class="cls-31" d="M75.48,45.09l-.37-.32a1.12,1.12,0,0,0-1.3-.13,33.82,33.82,0,0,0-4.35,2.93l0,0a7,7,0,0,1,2.57,2.9c2.29,1.88,4.6,3.76,6.58,5.54a28.76,28.76,0,0,1-2.78-10.22A1.1,1.1,0,0,0,75.48,45.09Z"/><rect class="cls-29" x="65.04" y="47.55" width="4.36" height="1.92" transform="translate(-13.59 66.96) rotate(-48.68)"/><path class="cls-32" d="M214.5,139.21c-28,5.06-19-1.81-40.87-13.93-4.4-2.43-7.54-4.28-9.91-5.64a14.89,14.89,0,0,0-13.75-.53c-1.82.87-4.18,1.93-7.37,3.13-18.15,6.84-35,3-48,0s-14.12-1.59-43.95,11.25S36,142.65,20.56,141.63c-8.41-.56-15.68,3.8-20.56,7.89V153c4.75-2.38,10.7-5,11.46-3.42,1.29,2.61.84,3.38-1.81,6.62A41.09,41.09,0,0,0,7.08,160H17.34c9-6.1,29.09-4.66,36.58-11.17,8.42-7.32,27.08-10.43,46.73-10.62s27.85,1.44,43.15-2.82,27.7-4.24,39.76,6,11.44,7.75,29.93,9.23,19.13-1.18,31.1-6.54a17,17,0,0,1,5.41-1.27v-6.46C241,135.29,230.25,136.37,214.5,139.21ZM94.3,132.67c-4.67,2.61-8.42-2.48-14.55,0S65,137.36,66.38,134.38s6.14-2.95,9.21-5.59c0,0,2.66-4.19,7-2.92s3.75,4.58,8.75,1.68S99,130.06,94.3,132.67Zm67-3.88c-6.58,0-10.08,1-12.83,2.11s-9.39-3.62,3.47-8.42c0,0,5.36-1.77,7.53-.59s1.55,3.51,4.56,4.59S167.83,128.76,161.25,128.79Zm77.13,15.36c-8.13.75-7.63,2-11.51,2.11s-4.24-2.24-.49-4.86c0,0,5.37-3,10-2s3.87,2.54,7,.9S246.5,143.4,238.38,144.15Z"/><circle class="cls-33" cx="175.42" cy="37.66" r="25.33"/><path class="cls-17" d="M200.44,33.61c0,.34.1.68.15,1,5.63,1.19,8.87,2.71,8.87,4.15,0,3-14.06,6.32-34.26,6.32s-34.28-3.34-34.28-6.32c0-1.49,3.49-3.06,9.48-4.27,0-.34.09-.68.15-1-6.33,1.21-10.57,3-10.57,5.29C140,43.49,158.14,46,175.2,46s35.21-2.55,35.21-7.26C210.41,36.57,206.44,34.82,200.44,33.61Zm0,0c0,.34.1.68.15,1,5.63,1.19,8.87,2.71,8.87,4.15,0,3-14.06,6.32-34.26,6.32s-34.28-3.34-34.28-6.32c0-1.49,3.49-3.06,9.48-4.27,0-.34.09-.68.15-1-6.33,1.21-10.57,3-10.57,5.29C140,43.49,158.14,46,175.2,46s35.21-2.55,35.21-7.26C210.41,36.57,206.44,34.82,200.44,33.61ZM197,24.53c.17.34.38.68.56,1,24.75,2,42.91,7.36,42.91,13.4,0,7.73-29.88,14.28-65.24,14.28S110,46.7,110,39c0-6.08,18.33-11.42,43.27-13.44.19-.36.38-.7.56-1C127.5,26.51,109,32.16,109,39c0,8.54,29.07,15.22,66.18,15.22S241.39,47.51,241.39,39C241.39,32.19,223.08,26.57,197,24.53ZM175.2,45.1c-20.2,0-34.28-3.34-34.28-6.32,0-1.49,3.49-3.06,9.48-4.27,0-.34.09-.68.15-1-6.33,1.21-10.57,3-10.57,5.29C140,43.49,158.14,46,175.2,46s35.21-2.55,35.21-7.26c0-2.21-4-4-10-5.17,0,.34.1.68.15,1,5.63,1.19,8.87,2.71,8.87,4.15C209.46,41.76,195.4,45.1,175.2,45.1Z"/></g></g></g></svg>