<svg xmlns="http://www.w3.org/2000/svg" xmlns:xlink="http://www.w3.org/1999/xlink" viewBox="0 0 595.28 388.75"><defs><style>.cls-1{mask:url(#mask);filter:url(#luminosity-noclip-2);}.cls-2{mix-blend-mode:multiply;fill:url(#GradientFill_3);}.cls-3{fill:url(#GradientFill_4);}.cls-4{mask:url(#mask-2);}.cls-5{fill:url(#GradientFill_5);}.cls-6{fill:#a77de4;}.cls-10,.cls-11,.cls-12,.cls-13,.cls-14,.cls-15,.cls-16,.cls-17,.cls-18,.cls-19,.cls-20,.cls-21,.cls-22,.cls-23,.cls-24,.cls-25,.cls-26,.cls-27,.cls-28,.cls-29,.cls-30,.cls-31,.cls-32,.cls-33,.cls-34,.cls-35,.cls-36,.cls-37,.cls-38,.cls-39,.cls-40,.cls-41,.cls-42,.cls-43,.cls-44,.cls-45,.cls-46,.cls-47,.cls-48,.cls-49,.cls-50,.cls-51,.cls-52,.cls-53,.cls-54,.cls-55,.cls-56,.cls-57,.cls-58,.cls-59,.cls-6,.cls-60,.cls-61,.cls-7,.cls-8,.cls-9{fill-rule:evenodd;}.cls-10,.cls-11,.cls-12,.cls-13,.cls-14,.cls-15,.cls-6,.cls-7,.cls-8,.cls-9{opacity:0.79;}.cls-7{fill:#af26bc;}.cls-8{fill:#8a3bd4;}.cls-9{fill:#8546d6;}.cls-10{fill:#9361dd;}.cls-11{fill:#8b54da;}.cls-12{fill:#8834d4;}.cls-13{fill:#972aca;}.cls-14{fill:#8850d9;}.cls-15{fill:#9766e8;}.cls-16{fill:#f8f8f8;opacity:0.11;}.cls-17{fill:#c77aff;}.cls-17,.cls-18{opacity:0.81;}.cls-18{fill:#c051ff;}.cls-19{fill:#4f2b7f;}.cls-20{fill:#6b5688;}.cls-21{fill:#452370;}.cls-22{fill:#663993;}.cls-23{fill:#593380;}.cls-24{fill:#431768;}.cls-25{fill:#66329b;}.cls-26{fill:#552c7e;}.cls-27{fill:url(#GradientFill_4-2);}.cls-28{fill:#974fef;}.cls-29{fill:#8937ef;}.cls-30{fill:#65329c;}.cls-31{fill:#542c7f;}.cls-32{fill:#642ea5;}.cls-33{fill:#7232b5;}.cls-34{fill:#7f41c4;}.cls-35{fill:#421865;}.cls-36{fill:url(#GradientFill_4-3);}.cls-37{fill:#4b1c75;}.cls-38{fill:#7f3fc7;}.cls-39{fill:#592482;}.cls-40{fill:#492279;}.cls-41{fill:#471d6b;}.cls-42{fill:#632993;}.cls-43{fill:#7031ac;}.cls-44{fill:#8a48d4;}.cls-45{fill:#3c145a;}.cls-46{fill:#8333d3;}.cls-47{fill:#8d44e3;}.cls-48{fill:#7c35be;}.cls-49{fill:#7f3fc9;}.cls-50{fill:#7235bf;}.cls-51{fill:#945cd2;}.cls-52{fill:#642a97;}.cls-53{fill:#54278b;}.cls-54{fill:#55227c;}.cls-55{fill:#7430aa;}.cls-56{fill:#8d4bcd;}.cls-57{fill:#7d39c6;}.cls-58{fill:#a36cdd;}.cls-59{fill:#9452db;}.cls-60{fill:#a66ce9;}.cls-61{fill:#e5c1d6;opacity:0.31;}.cls-62{filter:url(#luminosity-noclip);}</style><filter id="luminosity-noclip" x="37.81" y="-8386" width="95.86" height="32766" filterUnits="userSpaceOnUse" color-interpolation-filters="sRGB"><feFlood flood-color="#fff" result="bg"/><feBlend in="SourceGraphic" in2="bg"/></filter><mask id="mask" x="37.81" y="-8386" width="95.86" height="32766" maskUnits="userSpaceOnUse"><g class="cls-62"/></mask><linearGradient id="GradientFill_3" x1="69.78" y1="93.32" x2="101.71" y2="29.37" gradientTransform="translate(92.02 -43.89) rotate(57.83)" gradientUnits="userSpaceOnUse"><stop offset="0" stop-color="#fff"/><stop offset="1"/></linearGradient><linearGradient id="GradientFill_4" x1="297.64" x2="297.64" y2="264.54" gradientUnits="userSpaceOnUse"><stop offset="0" stop-color="#7e12d5"/><stop offset="1" stop-color="#f142b7"/></linearGradient><filter id="luminosity-noclip-2" x="37.81" y="13.42" width="95.86" height="95.86" filterUnits="userSpaceOnUse" color-interpolation-filters="sRGB"><feFlood flood-color="#fff" result="bg"/><feBlend in="SourceGraphic" in2="bg"/></filter><mask id="mask-2" x="37.81" y="13.42" width="95.86" height="95.86" maskUnits="userSpaceOnUse"><g class="cls-1"><circle class="cls-2" cx="85.74" cy="61.35" r="47.93" transform="translate(-11.84 101.26) rotate(-57.83)"/></g></mask><linearGradient id="GradientFill_5" x1="69.78" y1="93.32" x2="101.71" y2="29.37" gradientTransform="translate(92.02 -43.89) rotate(57.83)" gradientUnits="userSpaceOnUse"><stop offset="0" stop-color="#db77f2"/><stop offset="1" stop-color="#7811d6"/></linearGradient><linearGradient id="GradientFill_4-2" x1="142.8" y1="166.55" x2="150.31" y2="217.3" xlink:href="#GradientFill_4"/><linearGradient id="GradientFill_4-3" x1="470.42" y1="157" x2="470.42" y2="194.51" xlink:href="#GradientFill_4"/></defs><g id="圖層_2" data-name="圖層 2"><g id="_1" data-name="1"><rect class="cls-3" width="595.28" height="264.54"/><g id="planets"><g class="cls-4"><circle class="cls-5" cx="85.74" cy="61.35" r="47.93" transform="translate(-11.84 101.26) rotate(-57.83)"/></g><path class="cls-6" d="M375.15,0A103.12,103.12,0,1,1,221.4,0Z"/><path class="cls-7" d="M375.58,0a103.12,103.12,0,1,1-146.3,0Z"/><path class="cls-8" d="M370.53,0A99.57,99.57,0,1,1,227.22,0Z"/><path class="cls-9" d="M320.82,39.63c1.36,7.62,16.76,14.06-12.33,27.69C281.35,80,261.58,110.8,326.25,97c17.05-3.63,28.11-20.38,22.5-37.63C345.87,50.54,320.63,38.6,320.82,39.63Z"/><path class="cls-10" d="M331.46,55.47c4.37.42,2.11,6-4,8.62-9.26,4-8.19,23.66,7,16.31,11.25-5.42,8.1-7.05,10.64-17.72,1.38-5.79,4-9.56-5.33-13C337.43,48.77,330.9,55.42,331.46,55.47Z"/><path class="cls-11" d="M301.59,24.8c19-4.89,26.27-39.34,55.16,3.74,3.69,5.5,18.66,34.06,14.38,40.1-14.26,20.14-41.63-31.21-56.44-31.21-11.94,0-18.88-11.85-13.41-11.26C302.26,26.27,301.77,24.75,301.59,24.8Z"/><path class="cls-12" d="M341.3,17.94c-1.36-.53-9.86-9-10.32-10.79-.36-1.46-2.62-4.08-5.6-7.15h38.51c11.35,10.78,19.4,23,20.76,30.6,1.24,7,0,14.41-9.36,11.36-15.91-5.18-27.58-9.19-38.86-19C332.45,19.49,343.56,18.82,341.3,17.94Z"/><path class="cls-13" d="M370.45,21.5c32.88,24.1,35,78.11,7.74,106.79-79.32,83.45-165.41,1.85-139.9-3,33.9-6.49,142.23,11,141.85-48.21-.18-28.53-8.31-41.79-36.95-42.77C300.42,32.81,339.35-1.29,370.45,21.5Z"/><path class="cls-12" d="M265.57,100c-10.78,1.76-23.38,20-12.5,28,11.16,8.21,7.45,14.45,28.31,14.45,12.34,0,53.13-22,34.77-36.38-9.52-7.47-24,4.53-43.37-7.66C271.26,97.42,268.31,97.12,265.57,100Z"/><path class="cls-11" d="M260.56,107.29c1.2,10.15-2.15,5.4,7.17,14.72,8.71,8.7,20.3,14.17,31,5,7.09-6.09,11-5.27,7.08-15.5-8.5-2.84-5.59-1.32-14.68,2-13.36,4.81-21.46-16.42-29-8.13C261.7,105.84,260.5,106.8,260.56,107.29Z"/><path class="cls-7" d="M307.68,113.54c29.5-6.47,61-31.63,41.57-62.86C328.07,16.68,379,24.55,383,71.82c5.42,63.17-36.1,71.86-75.54,78.63C278.14,155.49,269.61,121.89,307.68,113.54Z"/><path class="cls-10" d="M238.29,44.87c4.33,6.2-5.54,8.17-10,14.75-11.17,16.51-8.64,21.23-.78,39.42,4.18,9.69,19.61,32.53,29.51,13.48,6-11.53,5.61-29.88,25-36.19,4.72-1.53,18.36-10.19,18.36-15,0-22.85,14.69-45.66,34.69-55.68A11.13,11.13,0,0,0,340.2,0h-44a110.37,110.37,0,0,1-11.35,8.14c-8.43,4.74-26.81,22.2-39.62,29.62C238.46,41.7,239.51,46.62,238.29,44.87Z"/><path class="cls-6" d="M326.1,0a36.6,36.6,0,0,1-6.22,4.13c-17.51,9.47-22.69,1.59-43,27.76-9.9,12.76-33.08,14.23-44.43,25.57-31,31,54.83,91.71,14.87,85.16-38.39-6.29-47.3-85.52-37.6-100,3-4.53,1.7-9.56,3.36-11.75,12-15.82,19.45-24.94,26.85-30.88Z"/><path class="cls-14" d="M248.48,95.45c12.46,10.9,27.76,1.32,32.58-4.75,13.28-16.77-15.61-34.13,23.16-40.6,4.45-.74,23.41-22.06,3.72-31.65-8.79-4.28-23.25,20-35.6,28.17C255.89,57.55,215.35,66.47,248.48,95.45Z"/><path class="cls-10" d="M209.25,41.39c1.85,9,22.66-29.26,38.31-36.54C255.1,1.35,263.88.58,272.77,0H235.88C219.91,13.31,206.75,29.31,209.25,41.39Z"/><path class="cls-15" d="M258.6,14.43C242.54,19.09,205.4,57.65,244.21,39c5.39-2.59,9.61-10.67,19.9-13.86C276.77,21.17,272.63,10.35,258.6,14.43Z"/><path class="cls-15" d="M261.33,68.63c-2.77-9.44-11.72,3.22-10.43,5.75,7.39,14.48,44.36-32,24.86-24.53C273.67,50.65,260.33,65.21,261.33,68.63Z"/><path class="cls-8" d="M333.78,136.65c11.69-4.7,49.36-27.84,32.3-41.79-4.2-3.44-22,14.49-32.79,18.85C285.6,133,310.31,146.07,333.78,136.65Z"/></g><g id="cloud"><polygon class="cls-16" points="0 212.98 0 233.94 595.28 241.02 595.28 216.31 0 212.98"/><polygon class="cls-16" points="0 106.55 0 143.34 595.28 138.33 595.28 94.95 0 106.55"/><polygon class="cls-16" points="0 45.71 0 95.96 595.28 124.86 595.28 53.27 0 45.71"/><polygon class="cls-16" points="39.46 0 0 0 0 12.79 595.28 37.38 595.28 21.27 39.46 0"/><polygon class="cls-16" points="0 139.55 0 185.29 595.28 184.69 595.28 155.95 0 139.55"/><polygon class="cls-16" points="0 162.47 0 219.27 595.28 215.01 595.28 175.19 0 162.47"/></g><g id="mountains"><path class="cls-17" d="M579.14,201.5l-13.42-5.81-10.6,5.24-10.22,6.92L532.83,209l-7.22-8.8-9.33.64-8.22-2.63-16.44,3.38-10.43,8-14.29-9.38-14.18-4.44-6.25,1.51-5-2.65-21.49-1-13.79-17.11-11.77,6.7-2.67,3.13L384,183.94l-13.44,7.15-6.18-.73-5,8.35-15.74.87-3.39-2.42-13.35-.32L323.16,201l-10.57,1.72-3.48,7-22.37-7-15.11,5.51-11.81-3-5.18,2.37-13.79-2.11-17.91-7-5.69-10.1-5.31-1.06-2.64-4.4-7.12,15.84-4.24,7.49-20.37,4.27a90.85,90.85,0,0,0-10.11,1.34c-4.27.71-8.94,1.57-12.31,2.2-10.07-1.48-16.71-3.06-16.71-3.06-16-7.26-33.24-6.92-33.24-6.92l1-6.39-8-4.6L85,191.42l-6.75-4.86-3.55,4.81-7.6,9-7.82-7.81-12,3.13L26.07,187l.45,8.69c-1.06,0-4.22,1.46-4.22,1.46L16.23,195l-10.1-6.1L0,190.67V292.18H595.28V197Z"/><path class="cls-18" d="M507.76,221.05l-33.05-5.32-17.14-.39-2.88-4.54-11.18-4.6-17.78-.47L414.94,202l-19.18-3.25-10.15,10.76L374.08,218l-16.91.18-26.2,5c-18.19,9.94-121.48,7.21-139.07,25.22,9.43-.06,17.74-1.51,27.21-1.57,3.57,0,7.36,0,11.07,0,2.28,0,4.54-.11,6.75-.08,71.51.72,139.58,2.06,214.71,5.17l143.64-9.54V232C571.18,227.23,540.25,226.28,507.76,221.05Z"/><path class="cls-18" d="M0,203.43l21.33,1.45,8.15,4.63,15-5.24,3.67-4.65,28,3.93L82,199l93.18,14,7.72-3.27L200.62,219l20.14,2,2.92,9.13,75.23-.83c-45.21,5.59-96.43,7.34-105.25,18.39-65.07.63-128.18,1.71-193.66,3.93Z"/></g><path class="cls-19" d="M441.45,261.19,457.52,274H305.4v-9.8l5.41-3.08,5.43-14.49L336.42,234l5.43-3.27L365,200.15a74,74,0,0,0,28.45,0l14.17,20.28,6,2.84,14.72,22.1,8.4,1.22Z"/><path class="cls-20" d="M428.35,245.37l-5.36,2-8.73-11.45-17.94-5.16L389.58,218l-17.33,5.25-12.74-3.63-5.37,8.8-2.39-4.69-3.57-1.36L365,200.15c9.48,3.3,19,3,28.45,0l14.17,20.28,6,2.84Z"/><polygon class="cls-21" points="428.35 245.37 436.75 246.59 409.62 256.12 390.32 268.08 410.51 251.56 428.35 245.37"/><polygon class="cls-21" points="316.24 246.59 327.47 239.61 327.22 252.57 317.73 261.08 307.82 273.96 315.95 258.15 316.24 246.59"/><polygon class="cls-21" points="334.8 235.05 341.58 230.77 344.84 234.37 368.79 242.48 344.16 237.06 334.8 235.05"/><path class="cls-21" d="M413.63,223.27l8.43,12.66-11.74-9.59-6.16-2.64L395,211.33l-2.43,5.88L385.86,208l-2.44,4.16L378,209.71l-14.09,7.6L363.6,208l-7.87,8.12L349.22,221,365,200.15c9.29,3.57,18.82,2.61,28.45,0l14.17,20.28Z"/><path class="cls-21" d="M393,202.87c-.32-6.51-2.41.6-.23,6.74,2.89,8.17-5.88,15.27-1.93,5.28,1.6-4.07-5.12-11-8.71-10.69-8,.67-6.47,10.28-12.47,4.7-1.83-1.7,13.45-1.77,4.43-5.51-2.72-1.13-8.28,1.34-8.49,1.4-2.07.61-5.34,9.08-9.53,11.08-3.21,1.53-3.21.32-1.37-3.63,1.13-2.41,4.27-12.68,10.9-12.31,3.93.22,7.49,1.19,13.62,1.19,3.17,0,8.14-1.72,11.2-2C397,198.56,393.22,206.64,393,202.87Z"/><path class="cls-22" d="M56.92,156.36Q38.39,213.38,0,245.24V274.7H250.63Q124.31,241.49,109.28,154.14C109.28,145.49,62.21,140.07,56.92,156.36Z"/><path class="cls-23" d="M253.55,274.7H228.71q-102.92-21.19-119-117.94,14.39,62.7,74.5,92.82A265.58,265.58,0,0,0,253.55,274.7Z"/><path class="cls-23" d="M126.07,274.7H159Q112.72,240.46,103.8,188c-8.06-33.77-11.85,14.79,16.06,57.66,12.52,23.36-29.69-27.46-11,4Q114,258.41,126.07,274.7Z"/><path class="cls-23" d="M98.32,274.7H85.17Q77.6,165.46,98.32,274.7Z"/><path class="cls-23" d="M34.76,274.7H66.54q11.74-38.12,5.66-39.55c-1.14.19-4.38,12.42-7.33,21-3.22,9.32-13.4,14.86-5.55-5.43Q76,194.46,76.47,179.21c.21-7.83-1.83-7-3.51-.25Q51.83,264.29,34.76,274.7Z"/><path class="cls-24" d="M14,250Q.49,268.59,6.63,274.7,65,205.46,67.26,156.76c-5.77,20.14-11,33.11-13.69,25.81-2-3.55-18.81,41.58-49.68,64.82Q2,249.16,0,250.91v7q5.9-5.79,10-9.37C19.39,240.45,21.43,239.74,14,250Z"/><path class="cls-25" d="M134.51,194.88Q117.71,245,72,259.55H243.7Q172.5,241.4,164,193.66C164,188.94,137.49,186,134.51,194.88Z"/><path class="cls-26" d="M245.35,259.55h-14q-58-11.58-67.06-64.46,8.1,34.28,42,50.73A152.45,152.45,0,0,0,245.35,259.55Z"/><path class="cls-24" d="M173.49,259.55H192q-26.06-18.7-31.09-47.36c-4.54-18.46-6.67,8.08,9.06,31.51,7,12.77-16.74-15-6.21,2.16Q166.71,250.65,173.49,259.55Z"/><path class="cls-26" d="M157.84,259.55h-7.41Q146.17,199.85,157.84,259.55Z"/><path class="cls-26" d="M122,259.55h17.92q6.63-20.82,3.19-21.61c-.65.1-2.47,6.78-4.13,11.46-1.82,5.09-7.56,8.12-3.13-3q9.42-30.74,9.66-39.07c.13-4.27-1-3.84-2-.13Q131.64,253.87,122,259.55Z"/><path class="cls-26" d="M110.31,246.05q-7.62,10.17-4.15,13.5,32.91-37.85,34.18-64.46c-3.26,11-6.19,18.1-7.72,14.11-1.13-1.94-10.61,22.73-28,35.43a132.41,132.41,0,0,1-20.48,14.92h9.06q9.8-10,14.88-14.29C113.35,240.84,114.5,240.45,110.31,246.05Z"/><path class="cls-27" d="M159.34,186c3.53-2.14,9.51,1.66,7,8.52C165.44,197,170.59,209,173,211c2.82,2.36,2.6,6.94-1.87,2.64-2.36-2.28-4.26-6.87-5.36-9.93-.11-.3-3.84-10.42-4.48-7.51-.59,2.66,2.88,1.46.3,8.62-1.19,3.29,4.29,7.2,5.38,10.58.27.84,1.63,3.66.69,4.67-.9-.14-2.07.19-2.92-1.87-.68-1.64-1.11-1.77-1.48-4.14-.19-1.22-4.93-8.26-5.28-11.2-.21-1.71-.14-9.26-1.9-8.64-2.61.91-3.34,4.53-2.73,7,.75,2.92-2.45,1.18-1.09-3.91.81-3.05-3.54-8.54-4.38-1.3-.5,4.34-2,1.95-2.69,6.49-.2,1.37-1.64,9.13-2.88,9-1.9-.12-1.61-2-1.2-3.61.88-3.56,2.71-4.48,1.11-7.78-1.22-2.51,1.7-4.5,1.95-5.34.48-.17,1.18-2.9-.66-.13s-4-.76-3.6,8.21c0,1-2.67,6.64-2.89,2.15-.06-1.17,1.15-1,.89-4.74-.21-2.87,2.71-6.57-1.8-2.84-1.6,1.33-3.07,9.67-4.38,11.39-.55.72-1.68,4.16-3.53,5.52-5.68,4.2-2.38-3.74-1.49-5.69s3.64-6,3.81-8.06,3.9-4.47,3.9-10.73a4.43,4.43,0,0,1,6.91-3.92c1.79,1.31,5.71-5.62,9.69-.72,3.53,4.35,4-.64,7.95,1.14C159.17,186.43,159.24,186.1,159.34,186Z"/><path class="cls-28" d="M134.44,216.31c1.5.07.91,3.72-.15,5.24s-1.67,2.87-3.09,4.65c-.35.44-2.88,5.3-4.21,3.37-.77-1.12,4.21-6.21,4.9-9.25C132.24,218.77,132.91,216.24,134.44,216.31Z"/><path class="cls-28" d="M164.08,221.61c.74.94,5.65,6.19,5,7.29-1.73,3.08-1.93-.72-4.78-3.14C161.34,223.19,164.7,222.4,164.08,221.61Z"/><path class="cls-28" d="M160.73,185.94c.84-.82,3.31,1.72,3.45,3.14.27,2.88,2.25,3.83,1.14,7-.22.64-1.34-.48-1.63-1.34s-1.45-2.52-1.51-3.74-2.63-2.36-2.21-3.81C160,187,160.88,185.8,160.73,185.94Z"/><path class="cls-28" d="M155.63,186.32c-.95.81-.55,3.79-.12,4.83.87,2.13,1.35,2.1,2.11,3.43.24.42-.24.57-.88-.06-1.15-1.14-1.81,1.15-2.72-1.67-.28-.89-1.18-1.1-.73-3,.16-.7-.42-.93.25-2.62.36-.89.68-.48,1.66-.89C155.35,186.22,155.6,186.35,155.63,186.32Z"/><path class="cls-28" d="M149.06,184c1.54,1.59,2.22,5.51.69,7.35-.56.68.1.47-.87,1.12s-.88,4.46-1.36,3.07c-.09-.27-.31-3.4,0-3.89a6.7,6.7,0,0,0,.91-4.72l-.86-2.52c-.18-.54-1.48-1.62.7-1.13C148.43,183.35,149.05,184,149.06,184Z"/><path class="cls-28" d="M138.44,195.83c1.35-3.84,1.4-3.49-.11-7.22-.71-1.76,2.69-2.47.65-3.54-1.28-.67-2.84,1.92-2.89,3.36a40,40,0,0,1-.65,5.22,34.77,34.77,0,0,1-2.09,4.13c-.19.31.16.15-.27.88-.63,1.06-.58,1.58-1.57,2.57s.66,3.87,2.44,1.8c.37-.43.73-4.13,1.44-4.83C135.74,197.86,138.66,195.23,138.44,195.83Z"/><path class="cls-28" d="M138.73,167.37c2,2.83,3.86,9.22,5.31,14,.29,1,1.28,1.15,1.28.26-6.12-31-26-22.82-12.74-18.72C136.52,164.17,137.35,165.42,138.73,167.37Z"/><path class="cls-28" d="M133.64,176.36q2.87-1.12,8.24,3.67-6.78-9.66-11.68-6.59C128.55,175.24,129.69,176.21,133.64,176.36Z"/><path class="cls-28" d="M159.19,171.71c1.06-.17,2.69,1.17.51,2.91a9.71,9.71,0,0,0-3.22,3.54c-.79,1.86-1.54,2.38-1.73,4.76-.09,1.26-.5-1.06.09-2.68.47-1.32.75-.78.71-2.69s2.19-3.32,2.69-5.09A5.83,5.83,0,0,1,159.19,171.71Z"/><polygon class="cls-29" points="158.79 260.18 129.99 263.95 121.53 266.17 84.85 270.24 82.33 271.29 44.77 269.56 14.63 265.92 12.1 263.57 38.68 256.23 58.72 255.24 85.45 254.87 107.13 251.72 143.65 252.59 171.56 251.72 158.79 260.18"/><polygon class="cls-30" points="188.56 260.73 179.96 261.07 171.72 260.21 159.84 261.85 140.98 262.51 158.79 260.18 168.59 253.21 171.56 251.72 188.56 260.73"/><polygon class="cls-31" points="204.73 279.1 197.85 273.82 179.96 261.07 188.56 261.07 197.49 269.17 204.73 272.85 204.73 279.1"/><polygon class="cls-32" points="150.03 270.74 160.73 279.75 119.16 279.75 97.78 281.1 97.78 276.02 82.33 271.29 84.85 270.24 121.53 266.17 129.99 263.95 150.03 270.74"/><polygon class="cls-33" points="97.78 276.02 82.33 271.29 50.08 269.81 40.47 277.89 32.48 279.5 10.9 285.08 75.53 285.08 97.78 281.1 97.78 276.02"/><polygon class="cls-34" points="40.47 277.89 50.67 269.81 42.68 269.31 14.63 265.92 12.1 263.57 0 274.03 0 285.08 11.28 285.08 40.47 277.89"/><path class="cls-31" d="M144.69,259.44l5.34-2.22-36.23-1L111,257.4l-27.46.87H52.19Q26.14,260.09,34.52,264a149.58,149.58,0,0,0,32.81,3.51l30.44-1,26.28-4.57Z"/><polygon class="cls-24" points="150.03 270.74 160.73 279.75 197.03 279.75 204.73 280.9 204.73 278.87 188.56 263.95 164.97 255.79 158.79 260.18 129.99 263.95 150.03 270.74"/><polygon class="cls-35" points="110.98 257.4 84.71 258.23 101.63 259.2 119 259.2 122.02 262.2 144.69 259.44 150.03 257.22 113.8 256.23 110.98 257.4"/><path class="cls-25" d="M495.26,173c-4.82-14.39-47.71-9.6-47.71-2q-13.69,77.17-128.8,106.51H595.28v-.35Q522.22,253.39,495.26,173Z"/><path class="cls-26" d="M316.08,277.54h22.64q93.78-18.72,108.4-104.2-13.11,55.4-67.89,82A247,247,0,0,1,316.08,277.54Z"/><path class="cls-26" d="M432.24,277.54H402.29q42.12-30.26,50.26-76.56c7.34-29.84,10.79,13.06-14.65,50.94C426.5,272.55,465,227.66,448,255.41Q443.19,263.15,432.24,277.54Z"/><path class="cls-26" d="M457.54,277.54h12Q476.42,181,457.54,277.54Z"/><path class="cls-24" d="M515.45,277.54h-29q-10.71-33.66-5.16-34.94c1,.17,4,11,6.68,18.53,2.93,8.23,12.21,13.12,5.05-4.8q-15.22-49.68-15.62-63.15c-.2-6.91,1.67-6.22,3.2-.22Q499.9,268.35,515.45,277.54Z"/><path class="cls-24" d="M534.38,255.71q12.3,16.44,6.7,21.83-53.21-61.17-55.25-104.2c5.27,17.8,10,29.26,12.49,22.81,1.82-3.14,17.13,36.73,45.26,57.26a214.86,214.86,0,0,0,33.12,24.13H562.05Q546.21,261.33,538,254.43C529.46,247.29,527.6,246.66,534.38,255.71Z"/><path class="cls-36" d="M455.12,158.72c-5.7-3.48-15.38,2.67-11.32,13.76,1.46,4-6.87,23.27-10.72,26.51-4.54,3.82-4.2,11.22,3,4.27,3.83-3.68,6.9-11.11,8.67-16,.18-.49,6.21-16.86,7.25-12.15.94,4.29-4.66,2.36-.49,13.93,1.92,5.32-6.93,11.64-8.69,17.1-.44,1.36-2.64,5.92-1.12,7.56,1.46-.24,3.34.29,4.72-3,1.1-2.66,1.8-2.87,2.39-6.7.31-2,8-13.36,8.54-18.1.33-2.77.23-15,3.06-14,4.23,1.48,5.41,7.34,4.41,11.28-1.2,4.72,4,1.9,1.77-6.33-1.31-4.93,5.72-13.8,7.07-2.09.82,7,3.27,3.15,4.36,10.48.33,2.21,2.65,14.76,4.65,14.64,3.08-.2,2.61-3.18,1.95-5.84-1.44-5.76-4.39-7.24-1.8-12.57,2-4.07-2.75-7.29-3.15-8.64-.79-.27-1.92-4.69,1.06-.21,3.11,4.68,6.48-1.23,5.82,13.27-.07,1.58,4.32,10.73,4.68,3.47.09-1.88-1.87-1.57-1.44-7.65.33-4.65-4.39-10.63,2.91-4.59,2.58,2.14,4.95,15.63,7.08,18.4.89,1.16,2.7,6.72,5.7,8.93,9.19,6.78,3.85-6.06,2.4-9.21s-5.87-9.69-6.15-13c-.3-3.54-6.31-7.22-6.31-17.35a7.16,7.16,0,0,0-11.17-6.32c-2.88,2.11-9.22-9.1-15.66-1.17-5.7,7-6.41-1-12.84,1.83C455.39,159.34,455.28,158.81,455.12,158.72Z"/><path class="cls-28" d="M495.36,207.64c-2.41.11-1.47,6,.24,8.48s2.71,4.62,5,7.5c.57.71,4.66,8.58,6.81,5.45,1.24-1.81-6.8-10-7.92-14.95C498.92,211.61,497.85,207.53,495.36,207.64Z"/><path class="cls-28" d="M447.46,216.21c-1.19,1.51-9.14,10-8.14,11.78,2.78,5,3.11-1.16,7.71-5.08C451.88,218.77,446.45,217.49,447.46,216.21Z"/><path class="cls-28" d="M452.86,158.55c-1.35-1.33-5.34,2.78-5.56,5.07-.45,4.66-3.64,6.19-1.86,11.32.36,1,2.18-.77,2.65-2.17.53-1.61,2.34-4.07,2.43-6s4.26-3.81,3.57-6.16C454,160.22,452.64,158.33,452.86,158.55Z"/><path class="cls-28" d="M461.12,159.17c1.54,1.3.88,6.11.19,7.81-1.4,3.43-2.18,3.38-3.41,5.54-.39.68.39.92,1.42-.11,1.85-1.84,2.92,1.86,4.39-2.69.47-1.44,1.92-1.78,1.19-4.93-.26-1.14.68-1.51-.41-4.24-.57-1.43-1.09-.77-2.67-1.44C461.57,159,461.17,159.21,461.12,159.17Z"/><path class="cls-28" d="M471.73,155.47c-2.49,2.57-3.58,8.91-1.12,11.89.91,1.1-.15.76,1.42,1.81s1.42,7.21,2.19,5c.15-.44.51-5.5,0-6.28-1.67-2.66-1.68-4.57-1.46-7.63,0,0,1.22-3.61,1.37-4.08.3-.88,2.41-2.61-1.13-1.83A7.64,7.64,0,0,0,471.73,155.47Z"/><path class="cls-28" d="M488.9,174.53c-2.19-6.21-2.26-5.64.17-11.66,1.16-2.85-4.34-4-1-5.72,2.06-1.08,4.58,3.1,4.67,5.43,0,1,.66,7.6,1,8.44a56.59,56.59,0,0,0,3.4,6.67c.3.49-.26.24.43,1.42,1,1.71.93,2.56,2.53,4.16s-1.06,6.25-3.94,2.91c-.6-.7-1.18-6.69-2.34-7.82C493.26,177.82,488.55,173.56,488.9,174.53Z"/><path class="cls-28" d="M488.43,128.53c-3.27,4.58-6.23,14.9-8.58,22.69-.47,1.57-2.07,1.86-2.07.43,9.9-50.14,42.05-36.89,20.59-30.26C492,123.36,490.67,125.38,488.43,128.53Z"/><path class="cls-28" d="M496.65,143.07q-4.62-1.83-13.3,5.92,10.93-15.62,18.87-10.65Q506.23,142.7,496.65,143.07Z"/><path class="cls-28" d="M455.36,135.55c-1.71-.27-4.35,1.89-.83,4.7,2,1.6,4.14,3.22,5.21,5.72,1.29,3,2.49,3.84,2.79,7.7.16,2,.82-1.72-.13-4.34-.78-2.13-1.22-1.26-1.15-4.35.07-2.89-3.55-5.36-4.36-8.22A8.88,8.88,0,0,0,455.36,135.55Z"/><polygon class="cls-30" points="467.65 264.65 455.99 277.9 496.37 278.62 506.04 279.57 517.95 279.57 527.71 263.93 496.9 259.55 467.65 264.65"/><polygon class="cls-37" points="592.13 259.78 580.2 253.82 574.46 264.06 590.38 266.69 595.28 268.62 595.28 263.15 592.13 259.78"/><polygon class="cls-32" points="590.38 266.69 574.46 264.06 584.33 272.4 584.43 283.13 595.28 282.47 595.28 268.62 590.38 266.69"/><polygon class="cls-33" points="474.68 253.8 465.32 264.65 454.68 274.2 450.45 279.57 455.99 277.9 467.65 264.65 476.18 259.37 493.75 259.06 474.68 253.8"/><polygon class="cls-37" points="493.75 259.06 506.04 260.91 498.55 264.65 501.03 268.44 501.03 276.19 493.75 269.7 480.77 264.65 467.65 264.65 476.18 259.37 493.75 259.06"/><path class="cls-29" d="M488.79,249.5q-16.86,3.28-14.14,5.77,4.23,2.05,53.06,8.66l45,.72q12.36-4.08,11.51-7.12-1.08-2.65-8-5.68l-19.53-4H510.8Z"/><polygon class="cls-33" points="532.1 280.91 584.48 278.84 584.32 271.77 574.46 264.06 572.75 264.65 529.32 263.95 527.71 263.93 517.95 279.57 532.1 280.91"/><polygon class="cls-31" points="525.23 259.78 498.55 253.47 518.52 250.76 529.16 252.12 541.55 252.12 571.87 255.36 573.84 256.58 561.38 258.79 525.23 259.78"/><polygon class="cls-35" points="545.73 255.21 548.91 259.13 561.38 258.79 573.84 256.58 571.87 255.36 541.55 252.12 530.2 252.31 545.73 255.21"/><path class="cls-33" d="M476,271.63l-22.19-2.8c-16.26.07-36.52,3.94-52.81,3.46-3.47-.1-6.94-3.48-10.41-3.46-9.51,0-19,2.38-28.6,2.42v86.23H595.28V272.69Z"/><path class="cls-32" d="M493.43,292.35c.34-.91,3.11-.1,4-.11,7.2-.17,4.78.52,10.55,3.52,3.84,2,11.23-.09,16.43,1.35,6.66,1.85,46.92,2.8,11-3-7.16-1.16-7.32-1.92-14.55-1-2.24.28-7.95.68-9.69-1.62-4.76-6.29-10.2,1.2-15.62-.66C493.83,290.24,493.93,291,493.43,292.35Z"/><path class="cls-38" d="M588.71,299.7l-21.6-.1-7.43,0-3.56-5.13-6.5.76-14.85-3.07-12.68,7.26-5.31,0-2.58.85-2.81-.93-3.65-1.71-8.39.33-7.71,1.29,1.18,2.69L486.75,299,471.22,299,449,302c-19.48-.5-41.5-4.37-61.05-5-.29,0-.12-.52-.41-.52-2.51-.06-6.78.06-10.26-.22-1.94-.16-3.78-.29-5.22-.33s-.14.69-1.61.65c-1.13,0-2.87-1-3.86-.93-.55,0,1.87,2.67,1.31,2.71-1.87.12-3.82.19-5.91.15v58.93H595.28V299.93C593.24,299.93,591.07,299.86,588.71,299.7Z"/><path class="cls-39" d="M561.3,304.59c-14.47,0-30.69-2.55-45.16-2.55l-1.31,29.63L512.56,302l-55.88,4.08-69-5.36L368,308.44l-6,49H595.28V302.82C584.06,303.57,573,304.59,561.3,304.59Z"/><path class="cls-40" d="M561.74,347.49q-13.61,2.2-39.3,6.77Q510.5,355.43,476.3,344q-21.29-4.29-60.55,3-16.8,3.47-50.29-10.49L362,338.65v18.83H595.28v-4Q583.16,352.6,561.74,347.49Z"/><path class="cls-40" d="M368,307.9c-.46.15-.93.31-1.41.51Z"/><path class="cls-40" d="M366.43,308.45a26.35,26.35,0,0,0-4.43,2.41Z"/><path class="cls-40" d="M570.46,305.53l-20-.22-34.28-2.68-31,2.47-28.42,2.74-54.54-5.6-14.44-1.48L368,307.9a16,16,0,0,1,2.51-.6,10.41,10.41,0,0,1,9.67,5.76q7.51-6.53,13.36-8.6,6,26,7.14,34.81c4.33-2.56,6-4.13,5-4.71q2.56-5.65,4.38-24.64a61.68,61.68,0,0,0,7.73-5.32l26.76,5.32q4.25,12.42,6.39,13.18c3.91,7,5.05,15.11,5.05,24.87q2-.51,2.57-33.51,8.1-7.43,8.34-6.93,12.23,3.87,11.1,11c2.12,4.6,3.15,6.59,3.1,6q3.71-11.79,3.7-11.79a83.9,83.9,0,0,1,7.41-6.88q21.14.46,19.92,8.62,1.59,25.68,2.77,31.5l6.06-41.5q17,4.52,26.61,3.54l20.74-2.33L574,332.08q3.43-25.38,3.43-25.39,2.94-.65,17.14,5.56l.71-.79v-7.64Z"/><path class="cls-40" d="M366.43,308.45l.11,0-.09,0Z"/><polygon class="cls-41" points="593.62 299.92 593 302.97 594.57 316.37 595.28 312.9 595.28 299.92 593.62 299.92"/><polygon class="cls-41" points="574.24 304.21 572.04 345.95 568.82 308.14 566.67 304.51 567.12 299.58 572.56 299.61 574.24 304.21"/><polygon class="cls-41" points="537.95 357.48 530.96 357.48 533.58 330.81 537.95 357.48"/><polygon class="cls-41" points="590.68 357.48 585.97 357.48 587.89 330.81 590.68 345.95 590.68 357.48"/><polygon class="cls-41" points="516.14 302.04 516.86 299.31 519.21 299.32 520.89 302.12 514.83 331.67 516.14 302.04"/><polygon class="cls-41" points="485.96 303.98 477.37 304.61 478.8 329.12 481.24 309.09 485.96 303.98"/><polygon class="cls-41" points="484.73 357.48 490.32 357.48 485.96 331.67 484.73 357.48"/><polygon class="cls-41" points="447 301.97 445.82 305.28 449.28 313.44 453.65 316.86 455.92 329.12 455.92 311.14 453.64 305.89 453.36 301.45 449.01 302.04 447 301.97"/><polygon class="cls-41" points="424.41 300.2 418.06 299.53 417.93 303.11 421.52 311.9 422.19 303.44 424.41 300.2"/><polygon class="cls-41" points="437.85 357.48 429.46 357.48 432.17 349.08 434.44 329.12 436.71 350.23 435.66 353.55 437.85 357.48"/><polygon class="cls-41" points="403.23 301.96 393.5 301.21 398.56 315.29 400.82 344.58 400.82 329.92 405.89 315.29 403.1 305.71 403.23 301.96"/><polygon class="cls-41" points="383.27 357.48 374.37 357.48 378.11 352 378.11 338.1 383.27 353.43 383.27 357.48"/><polygon class="cls-41" points="372.69 297.99 370.46 301.87 372.36 305.71 376.64 301.47 374.72 297.77 372.69 297.99"/><path class="cls-42" d="M594.57,316.37a12.69,12.69,0,0,0,.71-1.68V312.9Z"/><path class="cls-42" d="M590.68,357.48V346l-2.62-14.23,4.15,16.46,1.21,9.3Z"/><polygon class="cls-42" points="575.96 299.63 575.96 304.14 572.04 345.95 574.24 304.21 572.63 299.61 575.96 299.63"/><polygon class="cls-42" points="519.21 299.32 521.65 299.34 522.44 302.18 514.83 331.67 520.89 302.12 519.21 299.32"/><polygon class="cls-42" points="533.68 331.4 537.95 342.44 539.81 357.48 537.95 357.48 533.68 331.4"/><polygon class="cls-42" points="486.15 332.75 492.13 357.48 490.32 357.48 486.15 332.75"/><path class="cls-42" d="M487.25,303.89c-.5.72-4.36,6.37-4.36,6.37l-4,18.43,2.39-19.6L486,304Z"/><polygon class="cls-42" points="456.68 306.12 455.92 311.14 453.64 305.89 456.68 306.12"/><polygon class="cls-42" points="437.85 357.48 435.66 354.29 436.71 350.23 434.53 329.94 438.62 353.03 440.8 357.48 437.85 357.48"/><path class="cls-42" d="M423.81,303.57s-2.36,9.16-2.29,8.33.67-8.46.67-8.46Z"/><polygon class="cls-42" points="378.11 338.1 384.78 351.77 387.31 357.48 383.27 357.48 383.27 353.43 378.11 338.1"/><polygon class="cls-42" points="405.61 302.15 406.7 313.25 405.61 328.69 400.76 343.72 400.42 330.51 405.89 315.29 403.1 305.71 403.23 301.96 405.61 302.15"/><polygon class="cls-42" points="377.58 301.41 374.48 304.89 372.36 305.71 376.4 301.47 377.58 301.41"/><polygon class="cls-43" points="593.62 299.92 593 302.97 595.28 302.82 595.28 299.92 593.62 299.92"/><polygon class="cls-43" points="567.12 299.58 566.67 304.51 574.26 304.23 572.64 299.61 567.12 299.58"/><polygon class="cls-43" points="516.86 299.31 516.14 302.04 520.89 302.12 519.21 299.32 516.86 299.31"/><polygon class="cls-43" points="477.37 304.61 481.81 299.12 486.61 299.12 485.96 303.98 477.37 304.61"/><path class="cls-43" d="M445.82,305.28l7.82.61s.83-4.51,0-4.44-4.63.9-4.63.9h-1.75Z"/><polygon class="cls-43" points="418.06 299.53 417.72 303.09 422.19 303.44 424.41 300.2 418.06 299.53"/><path class="cls-43" d="M393.49,301.21c0-.31.46-3.89.46-3.89l8.38.62.9,4Z"/><polygon class="cls-43" points="370.46 301.87 376.64 301.47 374.72 297.77 372.69 297.99 370.46 301.87"/><path class="cls-32" d="M388.57,292.22c-27.41-.51-18.91-4.5,2.79-6.13l8.33,2.94Q403.54,293.41,388.57,292.22Z"/><path class="cls-32" d="M425.24,295.8q-21-5.67-18.54.16,30.85,5.09,43.06,2,8.58-1.77-1.82-5.46Q443.89,291.7,425.24,295.8Z"/><path class="cls-32" d="M474.66,292.35l-16.15-5.81L480,289.92l10.82-1.69Z"/><path class="cls-38" d="M398,294c1.34,0,2.43-.55,2.43-1.22s-1.09-1.21-2.43-1.21-2.44.54-2.44,1.21S396.64,294,398,294Z"/><path class="cls-38" d="M410,293a.78.78,0,1,0-1-.75A.9.9,0,0,0,410,293Z"/><path class="cls-38" d="M426.48,294.14c1.14,0,2.07-.4,2.07-.89s-.93-.9-2.07-.9-2.07.41-2.07.9S425.34,294.14,426.48,294.14Z"/><path class="cls-38" d="M460,289.45c.83,0,1.52-.28,1.52-.63s-.69-.62-1.52-.62-1.52.28-1.52.62S459.19,289.45,460,289.45Z"/><path class="cls-38" d="M502.66,298.29c1.46,0,2.64-.33,2.64-.73s-1.18-.74-2.64-.74-2.64.33-2.64.74S501.21,298.29,502.66,298.29Z"/><path class="cls-32" d="M593.89,294.21c-1.41,3.2-4.29,1.57-4.84,2.57-1,1.87,4.71.35,4.76.34a7.42,7.42,0,0,0,1.47-.43v-4A3.64,3.64,0,0,0,593.89,294.21Z"/><path class="cls-38" d="M516.62,292.12c.83,0,1.52-.28,1.52-.62s-.69-.63-1.52-.63-1.52.29-1.52.63S515.78,292.12,516.62,292.12Z"/><path class="cls-38" d="M552.73,294.45c1.45,0,2.64-.33,2.64-.73s-1.19-.74-2.64-.74-2.64.33-2.64.74S551.27,294.45,552.73,294.45Z"/><path class="cls-38" d="M585,297.46c.69,0,1.25-.33,1.25-.75s-.56-.75-1.25-.75-1.25.34-1.25.75S584.36,297.46,585,297.46Z"/><path class="cls-38" d="M435.75,301.76c-1.11.18-4.09.65-5.22.26s-.46-1.38-1.5-1.19c-.14,0-.91-2.52-1.22-3-.17-.23-.2-2.86-.29-3.43.6-.05.62.19,1.38.27a11.16,11.16,0,0,1,4,1c2.21,1.05,4,1.32,4.77-1a4.73,4.73,0,0,1,.93-.4c2.21.5,6.32-.11,8.92-.11,2.91,0,15.05.59,17.83,1.26,2.58.63,15.47-.4,15.83-.24.79.34-4.88,3.94-5.62,6.69,0,0-1.39,3-1.4,3a40,40,0,0,1-8.43,2.08c-2.55,0-4.56,0-7.21.13-4,.25-6.91.51-10.57-1.14-2.91-1.31-8-1.19-9.63-1.95C438,303.86,436.6,302.41,435.75,301.76Z"/><path class="cls-35" d="M466.36,357.48q2-32,4.27-50.31s3.78-4.93,3.84-5.05c2.64-4.81,8.28-6.46,1.92-6.46-12.87,0-27.8,1.75-37.56-1.28-1.39-.43-.73,3.09-2.19,3.09-3.41,0-9.09-3-9.12-3,1,5.68,3.59,7,5.76,10.61A394.72,394.72,0,0,1,442,357.48Z"/><polygon class="cls-44" points="419.18 296.25 410.02 302.45 411.84 307.38 413.76 322.28 413.76 302.89 419.18 296.25"/><polygon class="cls-44" points="474.47 302.12 476.77 299.09 469.37 306.34 468.07 333.13 470.63 307.17 472.91 304.2 474.47 302.12"/><path class="cls-45" d="M442,357.48q-1.69-14.09-1.69-14.08a154.44,154.44,0,0,1,27-.61q-1,14.68-1,14.69Z"/><path class="cls-45" d="M438,294.89c.15-.61.56-.75,1.22-.44a4.9,4.9,0,0,1-1,5.19,31.13,31.13,0,0,0-4.93-.62,16,16,0,0,1,3.55,6.79l.57,19.05q-4.18-19.82-4.18-19.81c-.66-1.07-1.84-2.69-3.55-4.88a14.6,14.6,0,0,1-2.21-5.73q5.53,3,9.47,2.95C437.38,297.23,437.72,296.39,438,294.89Z"/><path class="cls-35" d="M505.33,302.71c.53-1.32,3.07-3.29,4.25-3.88.14-.88-5.37-.29-5.75-.32-5.19-.53-2.38-.74-7.58.83-.2.06-2.35.58-2.5.57s-.92,0-.93-.25l2.8,3.16,2.1,14.49,2,5.81.56,5.05,2.61-10.89a85.67,85.67,0,0,1,.88-10.36A33,33,0,0,1,505.33,302.71Z"/><polygon class="cls-44" points="503.68 306.99 505.4 302.56 502.66 307.21 502.9 316.67 503.68 306.99"/><polygon class="cls-45" points="497.32 304.13 496.98 312.2 495.62 302.82 492.86 299.76 497.12 299.07 500.64 298.14 498 301.1 497.32 304.13"/><path class="cls-35" d="M536.47,357.48h22.85c.86-3.75,1.73-12.7,3.06-15.57,1.43-3.1,1.62-8.71,3-10.79.9-1.38.78-18.59.44-20.18-1-4.7,1.65-6.66.67-6.79-2.54-.32-3.91-1.82-6.12-3-4-2.07-2.58-7.21-4.67-6.76L550,295.65c-2,.43-13.13-2.61-15.14-1.63l-6.52,3.16c-3.53,1.71-7.1,3.28-3.94,3.93,2,.41,4.11,3.63,5.39,6.12l2.73,34.08Z"/><path class="cls-45" d="M561,347.62q-6.6-2.6-25.81,4.39l1.32,5.47h22.85C560.74,349,560.7,349.19,561,347.62Z"/><path class="cls-45" d="M548.73,295.65c-1.1.91-4.57.92-6.27,1.5-4.49,1.54-2.48-.64-5.79,1.72-3.73,2.66-6.92.28-4,4.64,1.46,2.18,2.13,7,1.37,9.89-1.36,5.22-1.2,5.45-1.64,10.65-.13,1.57.49,4.06-.21,5.16,0,0-.11,1.31-.16,1.54l-2.2-23.52c-1.64-3.08-3.16-5-4.53-5.78a3.76,3.76,0,0,0-1.2-.42c-1.06-.26-1.16-.73-.29-1.42a42.41,42.41,0,0,1,5.89-3.07l4.56-2.21a5.08,5.08,0,0,1,3.57-.41A73.08,73.08,0,0,1,548.73,295.65Z"/><polygon class="cls-44" points="566.82 302.88 563.88 308.14 565.49 330.71 565.83 327.77 565.99 315.08 565.99 311.18 565.54 308.77 566.74 304.51 566.82 302.88"/><path class="cls-35" d="M384.3,301.93s1.47-2.22,1.5-2.27c1-2.16,3.23-2.91.75-2.91-5,0-10.85.79-14.67-.57-.54-.19-.28,1.39-.85,1.39a3.56,3.56,0,0,1-2.37-1.36c.4,2.55.21,3.15,1.06,4.76a202.6,202.6,0,0,1,3.41,23.56l4-17.39Z"/><path class="cls-45" d="M372.12,296.26a20.88,20.88,0,0,0,5.72.72c-1.06.52-4.84.76-4.8,1.48.14,2.59-1.82,2-1,5.5.35,1.53-.2,5.25.22,6.87l.5,9.84-3-19.7c-1.36-1.81-1.05-3.47-1.19-4.84,1.4.82,1.48,1.35,2.38,1.44.32,0,.5-.21.55-.72C371.53,296.19,371.76,296,372.12,296.26Z"/><path class="cls-44" d="M384.3,301.93l1.95-3.05L384,301.07l-6.88,6.07Z"/><path class="cls-46" d="M362,284a6.33,6.33,0,0,0,2.65-.77c-1.08-.56-1.95-1.17-2.65-1.55Z"/><path class="cls-46" d="M546.88,283.36c-12.27,0-50.88-7.4-71.44-7.22h0c-1.43,0-2.77.06-4,.15-8.52-.6-14.84-6.56-28-.26-12.49,6-33.26,6.62-46.88,3.78a58,58,0,0,1-10.16-3.38c-3.53-1.37-3.93,1.2-7,2.51s-8.14,1.72-11.4,2.81a24.7,24.7,0,0,0-3.33,1.52,11.72,11.72,0,0,0,3.33,1.19c13.31,2.45,32.37-4,45.65-.08,10.12,3,27,2.82,39.42-.68,22.53.72,20.49-7.95,48.71.11,5.88,1.68,21.88-2.62,33.7.56,22.58,6.07,39.46-1.53,58.59,1.8l1.23.22v-5.66C578.7,281.81,561.27,283.36,546.88,283.36Z"/><path class="cls-47" d="M400.92,279.4c2,.31,16,.72,17.91.59s7.57-.12,7.71-1.79-13.17-.43-15.84-.43a158.58,158.58,0,0,1-20.28-.88c-5.53-.57-7.39,2.33-1.8,2.33C391.74,279.22,397.67,278.91,400.92,279.4Z"/><path class="cls-47" d="M452.34,284.58c6.78.31,9.44-5.15,16.29-2.2,0,0,4.69.45,3.27,2-1.7,1.87-7.86-4.26-13.75,1-1.33,1.19-11.39,4.46-10,1C448.81,284.78,452.07,284.57,452.34,284.58Z"/><path class="cls-47" d="M502.68,278.12c5.61.4,5.34,2.38,11.92,2.38,8.5,0,13.15,3.34,22.89,1.29a69.8,69.8,0,0,1,10.92-1.28c3.71-.29-2.33-3.61-7.42-2.72-6.78,1.17-10.8-1.85-18.5-.54-3.85.65-13.07.94-16.34-1.85-1.68-1.44-11.68-1.8-13.7,1.85C491.26,279.39,502.18,278.09,502.68,278.12Z"/><path class="cls-47" d="M512,286.62c-1.63-1-9.57,2.15.24,2.15.26,0,8.3.75,6.34-1.07-.91-.84-6.59-1.28-6.58-1.19S512,286.62,512,286.62Z"/><path class="cls-32" d="M447.21,275.21q-7.59-.13-23.83-3.19,8.79-1.61,26.63-2.94l8.32,2.94Q462.18,276.4,447.21,275.21Z"/><path class="cls-32" d="M544.22,277.34q-21-5.67-18.54.16,30.86,5.08,43.06,2,8.58-1.77-1.81-5.47Q562.88,273.25,544.22,277.34Z"/><path class="cls-33" d="M368,359.2H0V273c9.28-.17,18.53-2.37,27.77-2.41,3.47,0,6.93,3.36,10.4,3.46,16.29.48,36.56-3.39,52.81-3.46l22.2,2.8,120.9,1.07,3.77-1.62,87,3.62,29.16-5.37H368Z"/><path class="cls-32" d="M130.59,294.08c.34-.92,3.11-.1,4-.12,7.19-.17,4.77.52,10.54,3.52,3.84,2,11.24-.09,16.43,1.35,6.66,1.85,46.92,2.8,11-3-7.16-1.16-7.33-1.92-14.56-1-2.23.28-7.94.68-9.69-1.62-4.76-6.29-10.2,1.2-15.62-.66C131,292,131.1,292.71,130.59,294.08Z"/><path class="cls-32" d="M314.57,295.91c2.79.34,4.95-.31,7.75,1a8.92,8.92,0,0,0,6.21.19c2.11-1,5.11-1.83,7.41-2.69,2.94-1.1,4.12-.8,6.91-1,1.49-.11,6.45-.93,7.39.58.38.61-.28.35-1.27.54a51.11,51.11,0,0,0-8.35,1.9c-1.86.69-8.32,2-10.44,1.77-1.68-.16-2.62.48-4.55.46a42.58,42.58,0,0,1-4.35-.06c-2.84-.22-4.32.42-7.6-.37a16,16,0,0,0-8.21-.28c-1.41.31-1.54-1.8-1.21-1.84A52.21,52.21,0,0,1,314.57,295.91Z"/><path class="cls-38" d="M0,300.28c1.78,0,3.45,0,5.08-.16.56,0-1.87-2.67-1.32-2.71,1-.08,2.73.9,3.86.93,1.48,0,.08-.68,1.61-.65s3.28.17,5.22.33c3.49.28,7.76.16,10.27.22.28,0,.12.52.4.52,19.55.63,41.58,4.5,61.05,5l22.21-3.08,15.53.08,6.08,2.83-1.18-2.69,7.7-1.29,8.39-.33,3.66,1.71,2.81.93,2.57-.85,5.32,0,12.67-7.26,14.85,3.07,6.51-.76,3.55,5.13,7.43,0,21.61.1a102.49,102.49,0,0,0,24.6-1.38c1.71-.25,3.42,3.36,5.19,3.14s-1.43-4.66,5.48-4.44l11.88.53,3.71,1.46,5.51-1.65,11.6-3.52,11.64,5.16,15.65.7c3.49-.25,7.27-.08,11-.69.58-.09-1.55-2.4-1-2.51.92-.17,3-2.38,4.05-2.45a27.87,27.87,0,0,1,4.37.33c1,.14,1.64-.42,2.5-.2s1.93,2.26,2.88,2.64c1.2.47,2.4-.73,3.59-.79a30.09,30.09,0,0,1,10.42,1l9-2.79V359.2H0Z"/><path class="cls-39" d="M0,359.2H368V308.61l-42.6-4.69c-23.91-1.64-46.88-1.94-67.06,1.79l-3.47,15.16-2.53-17.11c-18.53,0-35.32,2.55-53.86,2.55-14.47,0-30.68-2.55-45.15-2.55L152,333.39l-2.26-29.63-55.89,4.08-69-5.36L0,304.08Z"/><path class="cls-40" d="M0,359.2H368V343.72q-5.52-12.64-54.74,3.87Q296.07,352,273.12,345q-11.76,1.44-27.42,9.1-8.56,4.26-46.8-4.85-13.6,2.21-39.3,6.77-11.92,1.17-46.14-10.24-21.27-4.29-60.55,3-16.8,3.46-50.29-10.49L0,339.86Z"/><path class="cls-40" d="M0,312.05a20.15,20.15,0,0,1,7.62-3,10.41,10.41,0,0,1,9.67,5.76q7.52-6.52,13.37-8.6,6,26,7.14,34.81,6.48-3.84,5-4.71,2.58-5.65,4.38-24.64a62.55,62.55,0,0,0,7.74-5.32l26.75,5.32q4.24,12.42,6.39,13.18c3.92,7,5,15.11,5,24.87q2-.51,2.57-33.51,8.1-7.43,8.34-6.93,12.24,3.87,11.1,11c2.12,4.6,3.16,6.6,3.1,6q3.7-11.79,3.71-11.79a83.59,83.59,0,0,1,7.4-6.88q21.13.46,19.92,8.62,1.59,25.68,2.77,31.5l6.06-41.5q17,4.51,26.62,3.54l20.74-2.33q5.75,26.42,5.75,26.41,3.43-25.38,3.44-25.39,2.93-.65,17.13,5.56l6.49-7.23q13.28-4.59,15,10,2.61,27.5,2.62,27.49,6.86-25.71,8.12-36.76,1.89-2.74,38.79,4,5.93,1.43,8.65,18.8,1.6-9.23,5-22,1.43,43.54,1.43,43.55,5-42.39,8.44-43.55,5.69,0,5.84,19.2Q337.59,312,345,313.22l7.65-5q14.44,5,15.35,10.56v-8.21L323.29,304l-3-.05-7.05-1.46-5.37.67-18-.23-13.58.82-19.7,3-4.26-2.57-44.69,3.08-20-.22-34.28-2.68-31,2.47-28.42,2.74L39.3,304l-14.43-1.48L0,304.6Z"/><polygon class="cls-41" points="333.69 347.67 328.07 304.24 336.1 299.31 333.98 304.9 333.69 347.67"/><polygon class="cls-41" points="350.65 318.09 346.21 306.21 344.98 300.4 351.83 306.83 350.65 318.09"/><polygon class="cls-41" points="305.69 300.73 307.87 302.99 310.49 314.39 311.8 305.96 315.12 309.25 317.82 332.53 320.8 303.62 313.19 301.07 305.69 300.73"/><polygon class="cls-41" points="263.99 298.98 256.58 305.71 254.79 320.88 253.25 343.77 261.49 313.26 261.87 304.81 263.99 298.98"/><polygon class="cls-41" points="230.78 301.63 230.17 304.69 231.73 318.09 234.52 304.4 234.52 301.63 230.78 301.63"/><polygon class="cls-41" points="211.41 305.93 209.2 347.67 205.99 309.86 203.83 306.23 204.28 301.3 209.73 301.33 211.41 305.93"/><polygon class="cls-41" points="175.11 359.2 168.13 359.2 170.75 332.53 175.11 359.2"/><polygon class="cls-41" points="227.85 359.2 223.13 359.2 225.06 332.53 227.85 347.67 227.85 359.2"/><polygon class="cls-41" points="289.49 359.2 281.11 359.2 278.5 350.71 279.96 341.52 285.82 316.63 285.17 345.87 289.49 359.2"/><polygon class="cls-41" points="332.91 359.18 324.42 359.2 323.49 336.1 327.57 347.63 330.32 350.57 332.91 359.18"/><polygon class="cls-41" points="363.36 359.2 357.6 359.2 355.15 337.92 358.51 345.82 361.17 347.14 363.36 359.2"/><polygon class="cls-41" points="153.31 303.76 154.03 301.03 156.38 301.04 158.05 303.84 152 333.39 153.31 303.76"/><polygon class="cls-41" points="123.13 305.7 114.53 306.33 115.96 330.84 118.41 310.81 123.13 305.7"/><polygon class="cls-41" points="121.9 359.2 127.48 359.2 123.13 333.39 121.9 359.2"/><polygon class="cls-41" points="84.17 303.69 82.98 307 86.45 315.16 90.81 318.57 93.08 330.84 93.08 312.86 90.81 307.61 90.53 303.17 86.17 303.75 84.17 303.69"/><polygon class="cls-41" points="61.57 301.92 55.22 301.25 55.09 304.83 58.68 313.63 59.35 305.16 61.57 301.92"/><polygon class="cls-41" points="75.01 359.2 66.63 359.2 69.33 350.8 71.61 330.84 73.88 351.95 72.83 355.27 75.01 359.2"/><polygon class="cls-41" points="40.4 303.69 30.66 302.93 35.72 317 37.99 346.3 37.99 331.64 43.05 317 40.26 307.44 40.4 303.69"/><polygon class="cls-41" points="20.44 359.2 11.53 359.2 15.28 353.72 15.28 339.82 20.44 355.15 20.44 359.2"/><polygon class="cls-41" points="9.86 299.71 7.62 303.59 9.53 307.44 13.81 303.19 11.88 299.49 9.86 299.71"/><polygon class="cls-42" points="285.57 320.43 286.7 344.67 291.24 355.28 292.11 359.2 289.49 359.2 285.17 345.87 285.57 320.43"/><polygon class="cls-42" points="327.57 347.63 325.1 340.65 329.64 346.59 333.37 352.05 333.92 355.79 336.41 359.43 332.91 359.18 330.32 350.57 327.57 347.63"/><path class="cls-42" d="M361.65,349.78c.07.41,3.31,6.9,3.31,6.9l1.72,2.52h-3.32Z"/><polygon class="cls-42" points="354.61 307.14 350.65 318.09 351.83 306.83 354.61 307.14"/><polygon class="cls-42" points="336.33 305.12 334.66 323.49 333.7 346.14 333.88 318.81 333.88 304.9 336.33 305.12"/><polygon class="cls-48" points="336.33 305.12 336.07 299.27 333.9 304.87 336.33 305.12"/><polygon class="cls-42" points="323.4 303.79 320.8 314.65 317.82 332.53 320.8 303.62 323.4 303.79"/><path class="cls-42" d="M261.49,313.26c.39.57-4.19,19.27-4.19,19.27l-4.05,11.24Z"/><path class="cls-42" d="M237.13,304.24s-5.54,14.53-5.4,13.85l2.79-13.69Z"/><path class="cls-42" d="M227.85,359.2V347.67l-2.63-14.23,4.15,16.46,1.21,9.3Z"/><polygon class="cls-42" points="213.12 301.35 213.12 305.86 209.2 347.67 211.41 305.93 209.79 301.33 213.12 301.35"/><polygon class="cls-42" points="156.38 301.04 158.81 301.06 159.6 303.9 152 333.39 158.05 303.84 156.38 301.04"/><polygon class="cls-42" points="170.84 333.12 175.11 344.16 176.97 359.2 175.11 359.2 170.84 333.12"/><polygon class="cls-42" points="123.31 334.47 129.3 359.2 127.48 359.2 123.31 334.47"/><path class="cls-42" d="M124.41,305.61,120.05,312l-4,18.44,2.39-19.61,4.73-5.11Z"/><polygon class="cls-42" points="93.84 307.84 93.08 312.86 90.81 307.61 93.84 307.84"/><polygon class="cls-42" points="75.01 359.2 72.83 356.01 73.88 351.95 71.69 331.66 75.79 354.75 77.96 359.2 75.01 359.2"/><path class="cls-42" d="M61,305.29s-2.36,9.16-2.3,8.33.68-8.46.68-8.46Z"/><polygon class="cls-42" points="15.28 339.82 21.95 353.49 24.48 359.2 20.44 359.2 20.44 355.15 15.28 339.82"/><polygon class="cls-42" points="42.77 303.87 43.86 314.98 42.77 330.42 37.92 345.44 37.58 332.23 43.05 317 40.26 307.44 40.4 303.69 42.77 303.87"/><polygon class="cls-42" points="14.74 303.13 11.64 306.61 9.53 307.44 13.56 303.19 14.74 303.13"/><path class="cls-43" d="M328.11,304.22l5.74.63s2.75-5.85,2.2-5.51Z"/><path class="cls-43" d="M345,300.4c.13.59,1.23,5.81,1.23,5.81l5.63.62Z"/><polygon class="cls-43" points="305.69 300.73 307.87 302.99 313.24 302.48 320.8 303.62 313.19 301.07 305.69 300.73"/><polygon class="cls-43" points="256.58 305.71 261.86 305.1 263.99 298.87 256.58 305.71"/><polygon class="cls-43" points="230.17 304.69 234.52 304.4 234.52 301.63 230.78 301.63 230.17 304.69"/><polygon class="cls-43" points="204.28 301.3 203.83 306.23 211.42 305.95 209.81 301.33 204.28 301.3"/><polygon class="cls-43" points="154.03 301.03 153.31 303.76 158.05 303.84 156.38 301.04 154.03 301.03"/><polygon class="cls-43" points="114.53 306.33 118.97 300.84 123.77 300.84 123.13 305.7 114.53 306.33"/><path class="cls-43" d="M83,307l7.82.61s.83-4.51,0-4.44-4.63.9-4.63.9H84.43Z"/><polygon class="cls-43" points="55.22 301.25 54.89 304.81 59.35 305.16 61.57 301.92 55.22 301.25"/><path class="cls-43" d="M30.66,302.93c0-.31.45-3.89.45-3.89l8.38.62.91,4Z"/><polygon class="cls-43" points="7.62 303.59 13.81 303.19 11.88 299.49 9.86 299.71 7.62 303.59"/><path class="cls-32" d="M25.73,293.94q-7.59-.13-23.83-3.19,8.79-1.61,26.63-2.94l8.33,2.94Q40.72,295.13,25.73,293.94Z"/><path class="cls-32" d="M62.41,297.52q-21-5.67-18.55.16,30.86,5.08,43.06,2,8.6-1.77-1.81-5.46Q81.06,293.42,62.41,297.52Z"/><path class="cls-32" d="M111.82,294.08l-16.15-5.82,21.48,3.38L128,290Z"/><path class="cls-38" d="M35.15,295.67c1.34,0,2.43-.55,2.43-1.22s-1.09-1.21-2.43-1.21-2.44.54-2.44,1.21S33.81,295.67,35.15,295.67Z"/><path class="cls-38" d="M47.19,294.74a.78.78,0,1,0-1-.75A.89.89,0,0,0,47.19,294.74Z"/><path class="cls-38" d="M63.65,295.86c1.14,0,2.07-.4,2.07-.89s-.93-.9-2.07-.9-2.08.41-2.08.9S62.5,295.86,63.65,295.86Z"/><path class="cls-38" d="M97.19,291.17c.84,0,1.52-.28,1.52-.63s-.68-.62-1.52-.62-1.52.28-1.52.62S96.36,291.17,97.19,291.17Z"/><path class="cls-38" d="M139.83,300c1.45,0,2.64-.33,2.64-.73s-1.19-.74-2.64-.74-2.65.33-2.65.74S138.37,300,139.83,300Z"/><path class="cls-32" d="M236,292.66c.32-.2,3.61-1.75,3.88-1.59,2,1.13,4.33.84,6.32,1.86,1.31.67,7.86,1.5,9.4,1.59.39,0,8.65,1.16,4,1.6-2.62.24-3.9.83-6.56.83a13.61,13.61,0,0,1-5.09-.63c-.36-.1-9.32-1.12-9.56-1-2.29.9-4.9,3.11-7.39,3.54-.06,0-5.79,1.53-4.76-.34.54-1,3.42.63,4.84-2.57C231.93,294,234.55,293.56,236,292.66Z"/><path class="cls-38" d="M153.78,293.84c.84,0,1.52-.28,1.52-.62s-.68-.62-1.52-.62-1.52.28-1.52.62S152.94,293.84,153.78,293.84Z"/><path class="cls-38" d="M189.89,296.17c1.46,0,2.64-.33,2.64-.73s-1.18-.74-2.64-.74-2.64.33-2.64.74S188.44,296.17,189.89,296.17Z"/><path class="cls-38" d="M300.81,295.91c1.7,0,3.09-.55,3.09-1.22s-1.39-1.21-3.09-1.21-3.1.55-3.1,1.21S299.1,295.91,300.81,295.91Z"/><path class="cls-38" d="M222.21,299.18c.69,0,1.25-.33,1.25-.75s-.56-.75-1.25-.75-1.25.34-1.25.75S221.52,299.18,222.21,299.18Z"/><path class="cls-38" d="M243.1,300.3c1.45,0,2.63-.4,2.63-.89s-1.18-.89-2.63-.89-2.63.4-2.63.89S241.65,300.3,243.1,300.3Z"/><path class="cls-38" d="M72.92,303.48c-1.12.18-4.09.65-5.23.26s-.45-1.38-1.49-1.19c-.14,0-.91-2.52-1.23-3-.16-.23-.19-2.86-.29-3.43.61-.05.63.19,1.39.27a11.16,11.16,0,0,1,4,1c2.21,1.05,4,1.32,4.77-1a5,5,0,0,1,.93-.4c2.22.5,6.32-.11,8.92-.11,2.91,0,15,.59,17.84,1.26,2.57.63,15.47-.4,15.82-.24.79.34-4.88,3.94-5.61,6.69,0,0-1.39,3-1.4,3a40.1,40.1,0,0,1-8.44,2.08c-2.55,0-4.55,0-7.21.13-4,.25-6.9.51-10.56-1.14-2.92-1.3-8-1.19-9.63-1.95C75.13,305.58,73.77,304.13,72.92,303.48Z"/><path class="cls-35" d="M103.52,359.2q2-32,4.27-50.31s3.78-4.93,3.84-5.05c2.64-4.81,8.29-6.46,1.92-6.46-12.87,0-27.79,1.75-37.56-1.28-1.39-.43-.73,3.09-2.19,3.09-3.4,0-9.08-3-9.12-3,1,5.68,3.6,7,5.76,10.61a393.09,393.09,0,0,1,8.75,52.43Z"/><polygon class="cls-44" points="56.35 297.97 47.19 304.17 49.01 309.11 50.93 324 50.93 304.61 56.35 297.97"/><polygon class="cls-44" points="111.63 303.84 113.93 300.81 106.53 308.06 105.23 334.85 107.79 308.89 110.07 305.92 111.63 303.84"/><path class="cls-45" d="M79.19,359.2l-1.68-14.08a154.29,154.29,0,0,1,27-.61q-1,14.69-1,14.69Z"/><path class="cls-45" d="M75.17,296.61c.16-.61.56-.75,1.22-.44a4.9,4.9,0,0,1-1,5.19,31.13,31.13,0,0,0-4.93-.62,15.85,15.85,0,0,1,3.55,6.79q.57,19.05.58,19.05-4.18-19.81-4.19-19.81c-.65-1.06-1.84-2.69-3.55-4.88a14.6,14.6,0,0,1-2.21-5.73q5.53,3,9.48,2.95C74.54,299,74.88,298.11,75.17,296.61Z"/><path class="cls-35" d="M142.5,304.43c.53-1.32,3.07-3.29,4.24-3.88.15-.88-5.37-.29-5.74-.32-5.2-.53-2.39-.74-7.59.83-.2.06-2.34.58-2.49.57s-.93,0-.93-.25l2.8,3.16L134.88,319l2,5.81.55,5.05L140,319a87.75,87.75,0,0,1,.89-10.36A33,33,0,0,1,142.5,304.43Z"/><polygon class="cls-44" points="140.84 308.71 142.57 304.28 139.82 308.93 140.06 318.39 140.84 308.71"/><polygon class="cls-45" points="134.49 305.85 134.14 313.92 132.79 304.55 130.03 301.48 134.28 300.79 137.81 299.86 135.16 302.82 134.49 305.85"/><path class="cls-35" d="M173.64,359.2h22.85c.85-3.75,1.72-12.7,3-15.57,1.43-3.1,1.62-8.71,3-10.79.89-1.38.77-18.59.43-20.18-1-4.7,1.66-6.66.67-6.79-2.54-.32-3.91-1.82-6.12-3-4-2.07-2.58-7.21-4.66-6.76l-5.63,1.22c-2,.43-13.13-2.61-15.15-1.63l-6.51,3.16c-3.54,1.71-7.1,3.28-3.95,3.93,2,.41,4.12,3.63,5.4,6.12L169.71,343Z"/><path class="cls-45" d="M198.13,349.34q-6.6-2.59-25.82,4.39,1.33,5.47,1.33,5.47h22.85C197.91,350.68,197.86,350.91,198.13,349.34Z"/><path class="cls-45" d="M185.89,297.37c-1.1.91-4.57.92-6.26,1.5-4.49,1.54-2.49-.64-5.79,1.72-3.73,2.66-6.93.28-4,4.64,1.46,2.19,2.14,7,1.38,9.89-1.36,5.22-1.2,5.45-1.64,10.65-.14,1.57.48,4.06-.22,5.16,0,0-.1,1.31-.16,1.54L167,309q-2.48-4.62-4.54-5.78a3.71,3.71,0,0,0-1.19-.42c-1.07-.26-1.17-.73-.29-1.42a42.12,42.12,0,0,1,5.88-3.07l4.57-2.21a5,5,0,0,1,3.56-.41A73.08,73.08,0,0,1,185.89,297.37Z"/><polygon class="cls-44" points="203.98 304.6 201.04 309.86 202.66 332.43 202.99 329.49 203.16 316.8 203.16 312.9 202.71 310.49 203.91 306.23 203.98 304.6"/><path class="cls-35" d="M21.46,303.65s1.48-2.22,1.5-2.27c1-2.16,3.23-2.91.75-2.91-5,0-10.85.79-14.66-.57-.55-.19-.29,1.39-.86,1.39a9.85,9.85,0,0,1-3.56-1.36c.4,2.55,1.41,3.15,2.25,4.76a200.3,200.3,0,0,1,3.42,23.56l4-17.39Z"/><path class="cls-45" d="M9.29,298a20.39,20.39,0,0,0,5.71.72c-1.06.52-4.84.76-4.8,1.48.14,2.59-1.82,2-1,5.5.36,1.53-.19,5.25.23,6.87l.49,9.84-3-19.7a10.15,10.15,0,0,1-2.25-4.76,9.17,9.17,0,0,0,3.44,1.36c.32,0,.51-.21.55-.72S8.92,297.72,9.29,298Z"/><path class="cls-44" d="M21.46,303.65l1.95-3-2.22,2.19-6.87,6.07Z"/><path class="cls-35" d="M267,359.2h31a155,155,0,0,0,3.56-19.6c.51-4.31-.94-14.61-.72-19.17.23-5,2.09-4.28,2-9.58L306,305.1c-1.46,0-4.5-3.63-5.93-4.57l-5.86-3.85-11,2.8c-2.36.6-7,4.5-8.76.91-.89-1.84-6.48-1.42-7.89-1.32l-8.42.62c1.36.93,1.71,2.83,3.84,4.12,4.38,2.63,2.13,1.82,3.59,8.73Q264.3,354.54,267,359.2Z"/><path class="cls-45" d="M298,359.2c.77-3.06,1.49-6.36,2.13-9.93-8,.77-21.6-5.5-34.77-2.78q.17,9.11,1.65,12.71Z"/><path class="cls-45" d="M282.86,299.59l10-2.56c-1.41,1.33-2.1,1.76-3.68,3.34-2.52,2.52-9.09,4.44-12.69,6.5-2.29,1.31-.65,0-1.78,3.25-1.34,3.9-.36,10.68-5,13.27-.06,0-2.43,5.48-3.24,6.41s-1.27,5.62-1.27,7q.34-24.3.35-24.29a27,27,0,0,1-.62-5.16q.35-1.81-2.7-3.42a8.2,8.2,0,0,1-3-3.1,4.5,4.5,0,0,0-1.11-1.17l9.67-.7c3.71-.22,5.93.24,6.64,1.4q1,2.21,4,1.16Z"/><path class="cls-44" d="M305.93,302.93l-3.22-.09c-.09,3.21,2.75,1.84-2,7.44-1.8,2.14-.71,6.33-.63,9.2a45.7,45.7,0,0,0,.75,4.73q-.47-5.58,1-8.34a10.83,10.83,0,0,0,.91-5C304.2,308.34,307.64,303,305.93,302.93Z"/><path class="cls-46" d="M108.58,278c1.24-.09,2.59-.14,4-.15h0c20.55-.18,59.17,7.22,71.44,7.22,25.25,0,59.86-4.79,82.83-3.36,8.26.51,13.11-2,24.25.59,10.92,2.54,31.1-4.65,49.49-3.16,7.75.63,12.05,2.57,21.27,2.57H368v2.74c-4.11-.39-37.55-2.67-51.57,1.61-6.91,2.11-20.52.22-23.8-.33-12.18-2-33.07,1.07-37.58,2.27-9.75,2.58-14.49,1.51-23.82-.11-19.13-3.34-36,4.26-58.58-1.81-11.82-3.18-27.83,1.12-33.71-.56-28.22-8.06-26.17.61-48.7-.11-12.45,3.5-29.31,3.7-39.43.68-5.06-1.51-23.81-1.34-30,.08-3.82.88-16,3.61-20.8,2.26v-9c7.09-.52,14.44-4.82,23.56-1.31a59.18,59.18,0,0,0,10.17,3.38c13.62,2.84,34.38,2.23,46.88-3.78C93.74,271.45,100.06,277.41,108.58,278Z"/><path class="cls-47" d="M38.08,281.12c2,.31,16,.72,17.92.59s7.56-.12,7.7-1.79-13.16-.43-15.84-.43a158.34,158.34,0,0,1-20.27-.88c-5.53-.57-7.39,2.33-1.8,2.33C28.91,280.94,34.83,280.63,38.08,281.12Z"/><path class="cls-47" d="M89.51,286.3c6.78.31,9.44-5.15,16.29-2.2,0,0,4.68.45,3.26,2-1.7,1.87-7.86-4.26-13.75,1-1.33,1.19-11.39,4.46-10,1C86,286.5,89.23,286.29,89.51,286.3Z"/><path class="cls-47" d="M139.85,279.85c5.6.39,5.33,2.37,11.92,2.37,8.5,0,13.14,3.34,22.89,1.29a69.68,69.68,0,0,1,10.91-1.28c3.71-.29-2.33-3.61-7.42-2.72-6.77,1.17-10.8-1.85-18.5-.54-3.84.65-13.06.94-16.34-1.85-1.67-1.44-11.67-1.8-13.7,1.85C128.42,281.11,139.34,279.81,139.85,279.85Z"/><path class="cls-47" d="M149.19,288.34c-1.63-1-9.56,2.15.24,2.15.27,0,8.31.75,6.34-1.07-.91-.84-6.58-1.28-6.58-1.19A.31.31,0,0,1,149.19,288.34Z"/><path class="cls-47" d="M238.46,278.92c3.43-3.91,14.52-2.61,19-1.3,15.64,4.56,11.31,4.24,0,2.25-3.95-.69-7.13.9-12.13-.11-1.12-.23-7.2.48-7.2-.24C238.18,279,238.16,279.27,238.46,278.92Z"/><path class="cls-47" d="M325.21,288c.88,2.34,11.88,1.74,10.84.24-1.81-2.62-7.19.26-10-.85-.28-.11-3.63-1.64-2.53.1C323.8,288,325.22,288,325.21,288Z"/><path class="cls-32" d="M84.38,276.93q-7.59-.14-23.84-3.19,8.81-1.61,26.63-2.94l8.33,2.94Q99.35,278.14,84.38,276.93Z"/><path class="cls-32" d="M181.39,279.06q-21-5.67-18.55.16,30.85,5.08,43.07,2,8.58-1.77-1.82-5.46Q200,275,181.39,279.06Z"/><path class="cls-32" d="M323.81,277.56c.33-.21,3.62-1.76,3.89-1.6,1.95,1.14,4.32.84,6.32,1.86,1.31.68,7.86,1.51,9.4,1.59.39,0,8.64,1.17,4,1.6-2.62.25-3.91.83-6.57.83a13.46,13.46,0,0,1-5.09-.63c-.36-.09-9.32-1.11-9.55-1-2.29.9-4.91,3.11-7.4,3.55-.05,0-5.79,1.52-4.76-.35.55-1,3.43.63,4.84-2.56C319.78,278.86,322.4,278.46,323.81,277.56Z"/><path class="cls-35" d="M343.5,327.29l.18-12.84a13.91,13.91,0,0,1,.9-4.16c.27-.53.23-7.17.13-7.78-.31-1.81.5-2.57.2-2.62-.76-.12-1.18-.7-1.85-1.14-1.2-.8-.78-2.78-1.41-2.61l-1.7.47c-.6.17-4-1-4.58-.63l-2,1.22c-1.07.66-2.14,1.27-1.19,1.52.6.16,1.24,1.4,1.63,2.36l.83,13.14Z"/><path class="cls-45" d="M337.92,296.28l2,.33c-.64.24-1.87-.29-2.09.25a3.49,3.49,0,0,1-1.6,1.62c-.74.5-.49,3-.74,5.14,0,.41-.94,7.63-1,7.68l-.64-10.22c-.6-1.36-1.09-2.13-1.48-2.3-.6-.13-.68-.37-.25-.72l3.3-2.1A6.39,6.39,0,0,1,337.92,296.28Z"/><polygon class="cls-44" points="344.98 299.89 343.8 299.32 344.1 301.49 344.64 310.05 344.76 307.87 344.92 302.77 344.75 300.78 344.98 299.89"/><path class="cls-49" d="M595.28,312.56H576.47L529,320.36,387.45,315.1l-6.12,2.36-196.67-1.55-36.11-4.08c-26.43.1-59.4,5.73-85.89,5-5.64-.14-11.29-5.05-16.93-5-15.21.06-30.45,3.34-45.73,3.51v73.41H595.28Z"/><path class="cls-50" d="M213,346c.55-1.33,5-.14,6.45-.17,11.7-.24,7.76.76,17.15,5.12,6.25,2.9,18.27-.13,26.72,2,10.84,2.68,76.32,4.06,17.87-4.39-11.65-1.68-11.91-2.78-23.67-1.46-3.64.4-12.92,1-15.76-2.35-7.75-9.14-16.6,1.74-25.41-1C213.65,342.94,213.81,344,213,346Z"/><path class="cls-50" d="M512.24,348.68c4.54.49,8.06-.46,12.61,1.52,2.55,1.1,7.54,1.31,10.1.27,3.44-1.4,8.32-2.66,12.06-3.91,4.78-1.6,6.7-1.16,11.24-1.49,2.41-.18,10.49-1.36,12,.83.62.89-.46.52-2.06.79-4.43.74-9.24,1.32-13.58,2.76-3,1-13.54,2.87-17,2.57-2.73-.24-4.26.7-7.4.67-2.88,0-4,.14-7.06-.08-4.64-.33-7,.6-12.37-.54-5-1.07-8.22-1.42-13.36-.41-2.29.45-2.51-2.62-2-2.67A94.36,94.36,0,0,1,512.24,348.68Z"/><path class="cls-51" d="M595.28,356.35l-10.86-3.56a54.48,54.48,0,0,0-16.95-1.43c-1.94.08-3.89,1.82-5.85,1.13-1.54-.54-3.1-3.47-4.67-3.83-1.41-.32-2.4.5-4.07.29a51.51,51.51,0,0,0-7.12-.48c-1.72.11-5.08,3.31-6.58,3.57-.92.16,2.53,3.51,1.6,3.64-6,.89-12.18.65-17.86,1l-25.44-1-19-7.51-18.86,5.13-9,2.39-6-2.12-19.33-.77c-11.24-.32-6.06,6.12-8.91,6.45s-5.66-4.93-8.44-4.56c-11.32,1.51-22.6,3-40,2l-35.15-.16-12.08,0L315,349l-10.57,1.1-24.15-4.45-20.63,10.54-8.64,0-4.19,1.22-4.57-1.34-5.94-2.49-13.65.49-12.53,1.87,1.91,3.9-9.88-4.1-25.26-.13-36.12,4.48c-31.69-.72-67.51-6.34-99.31-7.26-.46,0-.2-.75-.66-.76-4.08-.09-11,.1-16.69-.32-3.16-.23-6.15-.42-8.49-.47-2.51-.06-.23,1-2.63.94-1.83,0-4.65-1.46-6.28-1.36-.89.07,3.05,3.89,2.14,3.94C6,355,3.1,355.06,0,355v33.72H595.28Z"/><polygon class="cls-52" points="244.11 360.08 153.21 366.02 41.02 358.22 0 360.59 0 388.75 246.57 388.75 244.11 360.08"/><path class="cls-52" d="M420.75,362.91l-5.65,22L411,360.08c-30.15,0-57.46,3.71-87.6,3.71-23.54,0-49.92-3.71-73.46-3.71l-1.42,28.67H595.28v-22l-65.45-6.44C490.94,357.93,453.58,357.5,420.75,362.91Z"/><path class="cls-53" d="M574,366.68l.83.11-.66-.21Z"/><path class="cls-53" d="M574.82,366.79q14.59,4.6,20.46,9.51v-6.82Z"/><path class="cls-53" d="M561.71,373.83,574,366.68l-47.56-6.27-4.88-.06-11.46-2.13-8.74,1-29.3-.34-22.1,1.2-32,4.36L411,360.67l-72.7,4.48-32.61-.31L249.92,361l-50.49,3.58-46.22,4L64.5,360.38,41,358.22,0,361.35v11.09a35.63,35.63,0,0,1,13-4.71q10.59,0,15.73,8.36,12.23-9.48,21.75-12.49,3.72,14.4,6.28,25.15H75q1.2-7.38,2.26-17.21a102.33,102.33,0,0,0,12.58-7.74l43.51,7.74c3.33,8.69,6.07,14.41,8.2,17.21H155.9c.1-3.33.18-6.86.26-10.62q13.17-10.78,13.56-10.07,19.91,5.64,18.05,16c1,1.88,1.8,3.45,2.49,4.73h4l4.62-13.15a133.31,133.31,0,0,1,12-10q34.38.67,32.4,12.52c.26,3.77.52,7.29.77,10.62h9.48l4.11-25.15q27.71,6.56,43.3,5.14l33.73-3.38q3.51,14.4,5.71,23.39h5.92q3.31-21.9,3.32-21.91,4.77-.93,27.87,8.08l10.55-10.5q21.58-6.68,24.45,14.48.56,5.28,1.05,9.85h11.61A210.08,210.08,0,0,0,430,365.42q3.06-4,63.1,5.79,7.56,1.64,11.91,17.54h4.29q2.37-10,6-22.17.45,12.27.81,22.17h7.86q4.11-21.18,7.38-22.17,8.22,0,9.33,22.17h2.7Q551.34,372.34,561.71,373.83Z"/><polygon class="cls-54" points="547.26 353.62 534.21 360.78 538.26 388.75 543.61 388.75 543.81 361.73 547.26 353.62"/><polygon class="cls-54" points="570.94 380.91 563.71 363.65 561.71 355.2 572.86 364.55 570.94 380.91"/><polygon class="cls-54" points="510 356.17 497.8 355.68 501.35 358.96 505.61 375.53 507.74 363.28 513.13 368.06 515.83 388.75 519.05 388.75 522.37 359.88 510 356.17"/><polygon class="cls-54" points="426.53 361.62 429.97 353.13 417.92 362.91 415 384.95 414.72 388.75 421.4 388.75 425.9 373.88 426.53 361.62"/><polygon class="cls-54" points="375.95 357 374.96 361.44 377.5 380.91 382.03 361.01 382.03 357 375.95 357"/><polygon class="cls-54" points="341.71 356.56 332.85 356.51 332.12 363.68 335.62 368.95 337.51 388.75 342.93 388.75 344.44 363.23 341.71 356.56"/><polygon class="cls-54" points="465.49 378.78 462.86 388.75 465.24 388.75 465.49 378.78"/><polygon class="cls-54" points="254.93 356.14 251.1 356.12 249.93 360.08 248.51 388.75 251.1 388.75 257.65 360.2 254.93 356.14"/><polygon class="cls-54" points="200.85 362.9 186.86 363.82 188.49 388.75 190.65 388.75 193.16 370.33 200.85 362.9"/><polygon class="cls-54" points="148.27 365.67 147.82 359.23 140.74 360.08 137.48 359.99 135.55 364.79 141.18 376.64 148.28 381.61 149.76 388.75 151.98 388.75 151.98 373.3 148.27 365.67"/><polygon class="cls-54" points="100.72 357.41 90.39 356.43 90.18 361.64 96.02 374.42 97.11 362.12 100.72 357.41"/><polygon class="cls-54" points="66.05 365.42 66.28 359.98 50.44 358.88 58.67 379.33 59.49 388.75 66.95 388.75 70.6 379.33 66.05 365.42"/><polygon class="cls-54" points="16.6 354.2 12.96 359.84 16.06 365.42 23.03 359.26 19.9 353.88 16.6 354.2"/><polygon class="cls-55" points="465 388.75 465.31 388.75 465.08 384.3 465 388.75"/><polygon class="cls-55" points="577.38 364.99 570.94 380.91 572.86 364.55 577.38 364.99"/><polygon class="cls-55" points="543.66 361.73 543.66 381.94 543.61 388.75 544.92 388.75 547.63 362.07 543.66 361.73"/><polygon class="cls-56" points="547.63 362.07 547.22 353.56 543.69 361.69 547.63 362.07"/><polygon class="cls-55" points="526.61 360.12 522.37 359.88 519.05 388.75 519.98 388.75 522.37 375.91 526.61 360.12"/><path class="cls-55" d="M425.9,373.88l-4.5,14.87h1.19C424.42,381.68,426.22,374.31,425.9,373.88Z"/><path class="cls-55" d="M386.28,360.78s-9,21.12-8.78,20.13S382,361,382,361Z"/><polygon class="cls-55" points="347.23 356.59 341.81 356.56 344.44 363.23 342.93 388.75 344.54 388.75 347.23 363.13 347.23 356.59"/><polygon class="cls-55" points="258.89 356.16 254.93 356.14 257.65 360.2 251.1 388.75 251.96 388.75 260.17 360.28 258.89 356.16"/><path class="cls-55" d="M202.93,362.77l-2.08.13-7.69,7.43-2.51,18.42h1.09l4.1-16.72Z"/><polygon class="cls-55" points="153.21 366.02 151.98 373.3 148.27 365.67 153.21 366.02"/><path class="cls-55" d="M99.75,362.3S95.91,375.61,96,374.42s1.09-12.3,1.09-12.3Z"/><polygon class="cls-55" points="70.14 360.25 66.28 359.98 66.05 365.42 70.6 379.33 66.81 388.75 70.93 388.75 71.91 376.38 70.14 360.25"/><polygon class="cls-55" points="24.54 359.17 19.51 364.22 16.06 365.42 22.63 359.26 24.54 359.17"/><path class="cls-57" d="M534.27,360.75l9.34.92s4.46-8.5,3.57-8Z"/><path class="cls-57" d="M561.71,355.2c.2.86,2,8.45,2,8.45l9.15.9Z"/><polygon class="cls-57" points="497.8 355.68 501.35 358.96 510.09 358.22 522.37 359.88 510 356.17 497.8 355.68"/><polygon class="cls-57" points="417.92 362.91 426.51 362.03 429.97 352.97 417.92 362.91"/><polygon class="cls-57" points="374.96 361.44 382.03 361.01 382.03 357 375.95 357 374.96 361.44"/><polygon class="cls-57" points="332.85 356.51 332.12 363.68 344.46 363.26 341.84 356.56 332.85 356.51"/><polygon class="cls-57" points="251.1 356.12 249.93 360.08 257.65 360.2 254.93 356.14 251.1 356.12"/><polygon class="cls-57" points="186.86 363.82 194.08 355.84 201.9 355.84 200.85 362.9 186.86 363.82"/><path class="cls-57" d="M135.55,364.79l12.72.88s1.34-6.55,0-6.44-7.53,1.3-7.53,1.3h-2.85Z"/><polygon class="cls-57" points="90.39 356.43 89.85 361.61 97.11 362.12 100.72 357.41 90.39 356.43"/><path class="cls-57" d="M50.44,358.88c0-.45.73-5.66.73-5.66l13.64.91L66.28,360Z"/><polygon class="cls-57" points="12.96 359.84 23.03 359.26 19.9 353.88 16.6 354.2 12.96 359.84"/><path class="cls-50" d="M42.43,345.82q-12.34-.21-38.78-4.64Q18,338.86,47,336.91l13.55,4.27Q66.79,347.56,42.43,345.82Z"/><path class="cls-50" d="M102.08,351q-34.22-8.25-30.17.23,50.19,7.39,70.05,2.88,14-2.58-3-7.94Q132.42,345.08,102.08,351Z"/><path class="cls-50" d="M182.46,346l-26.27-8.44,34.93,4.91L208.73,340Z"/><path class="cls-51" d="M57.74,348.33c2.18,0,4-.8,4-1.77s-1.78-1.76-4-1.76-4,.79-4,1.76S55.56,348.33,57.74,348.33Z"/><path class="cls-51" d="M77.32,347c.89,0,1.61-.49,1.61-1.09s-.72-1.09-1.61-1.09-1.6.49-1.6,1.09S76.44,347,77.32,347Z"/><path class="cls-51" d="M104.09,348.61c1.86,0,3.37-.59,3.37-1.3S106,346,104.09,346s-3.37.58-3.37,1.3S102.23,348.61,104.09,348.61Z"/><path class="cls-51" d="M158.66,341.79c1.36,0,2.47-.41,2.47-.91s-1.11-.9-2.47-.9-2.47.4-2.47.9S157.3,341.79,158.66,341.79Z"/><path class="cls-51" d="M228,354.64c2.36,0,4.29-.48,4.29-1.07s-1.93-1.06-4.29-1.06-4.3.48-4.3,1.06S225.64,354.64,228,354.64Z"/><path class="cls-50" d="M384.38,344c.52-.3,5.88-2.55,6.32-2.32,3.17,1.65,7,1.22,10.27,2.71,2.14,1,12.79,2.18,15.29,2.31.63,0,14.07,1.69,6.54,2.32-4.26.36-6.35,1.21-10.68,1.21a24.48,24.48,0,0,1-8.27-.92c-.59-.14-15.17-1.62-15.55-1.48-3.72,1.31-8,4.52-12,5.15-.09,0-9.41,2.21-7.74-.5.89-1.45,5.57.91,7.87-3.73C377.81,345.85,382.08,345.27,384.38,344Z"/><path class="cls-51" d="M250.71,345.68c1.36,0,2.47-.41,2.47-.91s-1.11-.91-2.47-.91-2.48.41-2.48.91S249.34,345.68,250.71,345.68Z"/><path class="cls-51" d="M309.44,349.06c2.37,0,4.3-.48,4.3-1.07s-1.93-1.06-4.3-1.06-4.29.48-4.29,1.06S307.08,349.06,309.44,349.06Z"/><path class="cls-51" d="M489.85,348.68c2.77,0,5-.8,5-1.77s-2.26-1.76-5-1.76-5,.79-5,1.76S487.09,348.68,489.85,348.68Z"/><path class="cls-51" d="M362,353.43c1.12,0,2-.49,2-1.09s-.91-1.09-2-1.09-2,.49-2,1.09S360.89,353.43,362,353.43Z"/><path class="cls-51" d="M396,355.06c2.36,0,4.28-.58,4.28-1.3s-1.92-1.29-4.28-1.29-4.28.58-4.28,1.29S393.63,355.06,396,355.06Z"/><path class="cls-51" d="M119.17,359.68c-1.81.26-6.65.94-8.49.38-1.68-.51-.75-2-2.43-1.73-.24,0-1.48-3.67-2-4.3-.27-.34-.32-4.16-.47-5,1-.08,1,.27,2.25.38a20.19,20.19,0,0,1,6.52,1.45c3.59,1.53,6.49,1.92,7.76-1.39a10.23,10.23,0,0,1,1.5-.58c3.61.73,10.29-.16,14.52-.16,4.73,0,24.48.86,29,1.84,4.18.9,25.16-.58,25.74-.36,1.28.5-7.94,5.73-9.14,9.73,0,0-2.25,4.3-2.27,4.31-1.21.73-11.6,3-13.72,3-4.15,0-7.41-.06-11.73.19-6.45.37-11.23.74-17.19-1.65-4.74-1.9-13.06-1.73-15.66-2.84C122.77,362.73,120.55,360.62,119.17,359.68Z"/><path class="cls-37" d="M182.15,360.2c4.3-7,13.47-9.39,3.12-9.39-20.94,0-45.21,2.54-61.09-1.85-2.27-.63-1.19,4.49-3.57,4.49-5.54,0-14.77-4.41-14.83-4.4,1.67,8.24,5.85,10.19,9.37,15.41q3.18,11.46,5.88,24.29h52.31q1.24-11.83,2.56-21.21S182,360.37,182.15,360.2Z"/><polygon class="cls-58" points="92.22 351.68 77.32 360.67 80.28 367.85 83.3 388.75 83.41 388.75 83.41 361.31 92.22 351.68"/><polygon class="cls-58" points="179.61 363.22 182.15 360.2 185.89 355.8 173.85 366.33 172.63 388.75 173.56 388.75 175.9 367.54 179.61 363.22"/><path class="cls-24" d="M115.24,355.7a54.19,54.19,0,0,1,8,.9,6.55,6.55,0,0,0,1.57-7.54c-1.07-.46-1.74-.25-2,.63-.47,2.19-1,3.4-1.65,3.64q-6.41,0-15.41-4.28a19.91,19.91,0,0,0,3.6,8.32,90.25,90.25,0,0,1,5.77,7.09s1.92,8.11,5.74,24.29h.91c-.15-4.44-.41-12.15-.78-23.19A22.28,22.28,0,0,0,115.24,355.7Z"/><path class="cls-37" d="M212.24,356.86l-.24-.24C212,356.74,212.1,356.81,212.24,356.86Z"/><path class="cls-37" d="M229.77,367.17c.84-1.88,1.46-4.41,2.58-6.11.86-1.92,5-4.78,6.91-5.64.23-1.27-8.74-.41-9.35-.47-8.45-.76-3.88-1.06-12.33,1.21-.33.09-3.82.85-4.07.82a5,5,0,0,1-1.27-.12l4.32,4.36,3.4,21,2.47,6.49h4.15l1.75-6.52C228.1,381.16,229.31,368.19,229.77,367.17Z"/><polygon class="cls-58" points="229.66 367.28 232.47 360.84 228 367.59 228.4 381.34 229.66 367.28"/><polygon class="cls-24" points="219.32 363.12 218.76 374.85 216.56 361.22 212.07 356.77 218.99 355.77 224.72 354.41 220.43 358.71 219.32 363.12"/><path class="cls-37" d="M330.67,373c-1.65-6.83,2.69-9.69,1.09-9.87-4.13-.47-6.36-2.64-9.95-4.31-6.45-3-4.2-10.46-7.59-9.81l-9.16,1.77c-3.25.63-21.35-3.79-24.64-2.37L269.83,353c-5.75,2.49-11.55,4.77-6.42,5.72,3.23.59,6.69,5.26,8.78,8.88l1.89,21.13h57C331.15,381.66,331,374.23,330.67,373Z"/><path class="cls-24" d="M279,376.59c1.23-4.23.13-11.2-2.24-14.37-4.73-6.34.46-2.88,6.53-6.74,5.37-3.42,2.12-.26,9.42-2.5,2.75-.84,8.4-.85,10.18-2.18,0,0-5.07-1.31-17.74-2.51a9.14,9.14,0,0,0-5.8.59L272,352.09a71.9,71.9,0,0,0-9.58,4.47q-2.13,1.49.48,2.06a6.31,6.31,0,0,1,1.94.61q3.36,1.68,7.38,8.39l2.2,21.13h2.27A46.88,46.88,0,0,1,279,376.59Z"/><polygon class="cls-58" points="331.02 373.37 330.29 369.86 332.24 363.67 332.36 361.3 327.58 368.95 329.17 388.75 330.88 388.75 331.02 379.02 331.02 373.37"/><path class="cls-37" d="M35.48,359.92s2.39-3.22,2.43-3.3c1.68-3.14,5.26-4.22,1.22-4.22-8.17,0-17.65,1.15-23.85-.83-.88-.28-.46,2-1.39,2-2.16,0-5.76-2-5.79-2,.65,3.71,2.28,4.58,3.66,6.92a254,254,0,0,1,5.12,30.22h1.47l5.51-21.26Z"/><path class="cls-24" d="M15.67,351.69a37.51,37.51,0,0,0,9.3,1c-1.72.76-7.88,1.11-7.81,2.16.23,3.76-3,3-1.64,8,.58,2.22-.32,7.64.36,10l.81,14.3-4.93-28.62c-2.21-2.63-3.43-4.93-3.66-6.92a15.75,15.75,0,0,0,5.6,2c.52.06.82-.29.89-1C14.72,351.59,15.08,351.31,15.67,351.69Z"/><path class="cls-58" d="M35.48,359.92l3.17-4.43L35,358.68l-11.18,8.81Z"/><path class="cls-37" d="M489.85,384.3c.38-7.25,3.41-6.22,3.2-13.92l5.31-8.35c-2.36,0-7.31-5.27-9.63-6.63l-9.53-5.6-18,4.07c-3.84.87-11.4,6.53-14.25,1.31-1.45-2.67-10.53-2.06-12.83-1.91l-13.69.9c2.2,1.35,2.77,4.11,6.25,6,7.12,3.83,3.46,2.65,5.83,12.69-.19,5.66-.34,11-.45,15.91h57.82C489.82,387.05,489.79,385.53,489.85,384.3Z"/><path class="cls-24" d="M447.45,369.33c1.84-4.78-.82-2.82,2.9-4.72,5.86-3,16.55-5.79,20.64-9.45,2.57-2.3,3.7-2.93,6-4.86L460.66,354l-7.12,2.84c-3.25,1-5.43.46-6.56-1.69q-1.74-2.51-10.79-2l-15.73,1a6.74,6.74,0,0,1,1.79,1.7,13,13,0,0,0,4.89,4.51q5,2.33,4.38,5a36.22,36.22,0,0,0,1,7.5s-.09,5.31-.26,15.91h6.94a.7.7,0,0,1,.09-.15C446.87,384.84,445.27,375,447.45,369.33Z"/><path class="cls-58" d="M491.59,377.68a14.36,14.36,0,0,0,1.48-7.28c2.31-3.66,7.91-11.46,5.12-11.53l-5.24-.12c-.15,4.66,4.48,2.66-3.18,10.81-2.93,3.11-1.16,9.19-1,13.37a42.58,42.58,0,0,0,1,5.82h.14C489.54,383.87,490.1,380.17,491.59,377.68Z"/><path class="cls-59" d="M589.21,328.06c-15,0-22-2.81-34.6-3.73-29.91-2.16-62.73,8.28-80.5,4.58-18.11-3.76-26-.11-39.43-.85-37.37-2.07-93.66,4.88-134.74,4.88-20,0-82.78-10.74-116.21-10.48h0c-2.32,0-4.51.08-6.52.22-13.87-.88-24.14-9.54-45.51-.38-20.32,8.72-54.1,9.62-76.25,5.48-6.49-1.21-10.6-2.86-16.54-4.9-15.08-5.19-27.18,1.35-38.89,1.93v12.86c7.27,2.32,28-1.81,34.41-3.13,10-2.07,40.55-2.31,48.78-.12,16.46,4.39,43.87,4.1,64.12-1,36.65,1,33.33-11.56,79.23.16,9.56,2.44,35.6-3.81,54.82.81,36.73,8.82,64.18-2.22,95.29,2.62,15.17,2.37,22.88,3.92,38.75.16,7.33-1.73,41.31-6.24,61.12-3.28,5.34.8,27.47,3.54,38.72.47,20.31-5.53,65.62-3.52,80-2.61v-3.71Z"/><path class="cls-60" d="M62.51,327.2c3.25.44,26,1,29.15.85s12.29-.18,12.52-2.6-21.41-.62-25.76-.62c-13.56,0-19.34,0-33-1.28-9-.83-12,3.38-2.93,3.38C47.59,326.93,57.22,326.47,62.51,327.2Z"/><path class="cls-60" d="M146.16,334.72c11,.44,15.35-7.49,26.5-3.2,0,0,7.61.65,5.31,2.92-2.76,2.72-12.79-6.18-22.37,1.44-2.16,1.72-18.52,6.49-16.22,1.41C140.41,335,145.71,334.7,146.16,334.72Z"/><path class="cls-60" d="M228,325.34c9.12.57,8.68,3.45,19.39,3.45,13.83,0,21.38,4.85,37.23,1.88,7.36-1.38,10.79-1.38,17.76-1.86,6-.42-3.79-5.24-12.07-4-11,1.7-17.57-2.69-30.1-.78-6.25.95-21.25,1.36-26.57-2.7-2.73-2.08-19-2.6-22.29,2.7C209.46,327.18,227.22,325.29,228,325.34Z"/><path class="cls-60" d="M243.24,337.68c-2.65-1.39-15.56,3.13.39,3.13.44,0,13.51,1.08,10.31-1.56-1.47-1.22-10.71-1.86-10.7-1.73S243.23,337.68,243.24,337.68Z"/><path class="cls-60" d="M388.45,324c5.57-5.69,23.62-3.8,30.95-1.89,25.43,6.62,18.39,6.16,0,3.27-6.42-1-11.59,1.31-19.72-.17-1.83-.33-11.72.7-11.72-.34C388,324.17,388,324.51,388.45,324Z"/><path class="cls-60" d="M529.55,337.18c1.43,3.4,19.33,2.53,17.63.35-2.93-3.8-11.68.38-16.32-1.22-.47-.16-5.92-2.4-4.12.14C527.26,337.19,529.56,337.21,529.55,337.18Z"/><path class="cls-50" d="M137.81,321.11q-12.34-.21-38.77-4.64,14.31-2.33,43.32-4.27l13.55,4.27Q162.18,322.85,137.81,321.11Z"/><path class="cls-50" d="M295.61,324.19q-34.2-8.24-30.16.24,50.19,7.4,70,2.88,14-2.58-2.95-7.94Q326,318.25,295.61,324.19Z"/><path class="cls-50" d="M527.28,322c.53-.3,5.88-2.54,6.32-2.32,3.18,1.66,7,1.23,10.28,2.71,2.13,1,12.78,2.19,15.29,2.31.63,0,14.06,1.69,6.54,2.32-4.26.36-6.35,1.21-10.68,1.21a24.5,24.5,0,0,1-8.28-.91c-.59-.14-15.16-1.62-15.54-1.49-3.73,1.32-8,4.52-12,5.15-.09,0-9.42,2.22-7.75-.5.89-1.45,5.57.92,7.88-3.73C520.72,323.9,525,323.32,527.28,322Z"/><path class="cls-37" d="M561.06,369.57c.44-.77.38-10.41.21-11.3-.5-2.64.82-3.74.33-3.81-1.25-.18-1.92-1-3-1.66-2-1.15-1.27-4-2.29-3.78l-2.77.68c-1,.24-6.46-1.46-7.45-.91l-3.2,1.77c-1.74,1-3.49,1.83-1.94,2.2,1,.23,2,2,2.65,3.43l1.34,19.09,10.19,13.47h4.27l.21-13.13A18.21,18.21,0,0,1,561.06,369.57Z"/><path class="cls-24" d="M550.23,349.21l3.3.49c-1,.34-3-.42-3.41.36a5.38,5.38,0,0,1-2.59,2.35c-1.21.73-.8,4.33-1.2,7.47-.08.6-1.53,11.09-1.7,11.16l-1-14.85c-1-2-1.78-3.09-2.41-3.34-1-.19-1.11-.54-.4-1.05l5.36-3A11.47,11.47,0,0,1,550.23,349.21Z"/><polygon class="cls-58" points="561.71 354.46 559.79 353.63 560.28 356.79 561.15 369.22 561.36 366.06 561.61 358.65 561.33 355.75 561.71 354.46"/><polygon class="cls-30" points="205.41 254.64 194.04 275.57 233.4 276.72 242.83 278.21 254.43 278.21 263.94 253.5 233.92 246.58 205.41 254.64"/><polygon class="cls-31" points="309.51 253.72 315.11 237.53 326.74 246.94 332.14 256.35 346 270.24 363.4 271.61 364.42 272.77 350.18 275.4 336.26 265.04 325.04 257.87 309.51 253.72"/><polygon class="cls-32" points="325.04 257.87 309.51 253.72 319.13 266.89 319.24 283.84 356.58 280.13 336.26 265.04 325.04 257.87"/><polygon class="cls-33" points="212.25 237.51 203.14 254.64 192.76 269.74 188.64 278.21 194.04 275.57 205.41 254.64 213.72 246.31 230.84 245.81 212.25 237.51"/><polygon class="cls-31" points="230.84 245.81 242.83 248.73 235.53 254.64 237.94 260.62 237.94 272.87 230.84 262.62 218.2 254.64 205.41 254.64 213.72 246.31 230.84 245.81"/><path class="cls-47" d="M226,230.71q-16.44,5.19-13.78,9.11,4.11,3.26,51.71,13.68l43.9,1.14q12.06-6.45,11.23-11.25-1.05-4.19-7.82-9l-19-6.26H247.46Z"/><polygon class="cls-33" points="268.22 280.33 319.28 277.06 319.12 265.89 309.51 253.72 307.84 254.64 265.51 253.54 263.94 253.5 254.43 278.21 268.22 280.33"/><polygon class="cls-31" points="261.53 246.94 235.53 236.97 254.99 232.7 265.36 234.84 277.44 234.84 306.99 239.97 308.91 241.89 296.76 245.38 261.53 246.94"/><polygon class="cls-35" points="281.51 239.73 284.61 245.92 296.76 245.38 308.91 241.89 306.99 239.97 277.44 234.84 266.37 235.15 281.51 239.73"/><polygon class="cls-29" points="420.21 252.46 408.27 256.22 404.76 258.44 389.55 262.52 388.5 263.57 372.92 261.84 360.42 258.2 359.38 255.85 370.4 248.51 378.71 247.52 389.79 247.15 398.79 244 413.93 244.86 425.51 244 420.21 252.46"/><polygon class="cls-30" points="432.56 253.01 428.99 253.35 425.57 252.49 420.65 254.12 412.82 254.78 420.21 252.46 424.28 245.48 425.51 244 432.56 253.01"/><polygon class="cls-31" points="445.75 273.05 440.35 273.38 436.41 266.1 428.99 253.35 432.56 253.35 436.26 261.45 445.75 273.05"/><polygon class="cls-32" points="416.58 263.01 421.02 272.02 403.77 272.02 394.91 273.38 394.91 268.29 388.5 263.57 389.55 262.52 404.76 258.44 408.27 256.22 416.58 263.01"/><polygon class="cls-33" points="394.91 268.29 388.5 263.57 375.13 262.08 371.14 270.17 367.83 271.77 355.75 279.31 364.61 281.53 379.14 280.17 394.91 273.38 394.91 268.29"/><polygon class="cls-34" points="371.14 270.17 375.37 262.08 372.06 261.59 360.42 258.2 359.38 255.85 353.4 268.29 347 277.08 355.75 279.31 371.14 270.17"/><path class="cls-31" d="M414.36,251.72l2.22-2.23-15-1-1.17,1.17-11.39.86H376q-10.8,1.82-7.33,5.68a28.15,28.15,0,0,0,13.61,3.52l12.63-1.05,10.89-4.57Z"/><polygon class="cls-37" points="416.58 263.01 421.02 272.02 436.07 272.02 440.35 273.56 432.56 256.22 422.77 248.06 420.21 252.46 408.27 256.22 416.58 263.01"/><polygon class="cls-35" points="400.38 249.68 389.49 250.51 396.5 251.47 403.71 251.47 404.96 254.48 414.36 251.72 416.58 249.49 401.56 248.51 400.38 249.68"/><polygon class="cls-33" points="31.5 282.73 14.51 283.66 24.01 277.42 30.69 268.31 45.07 242.63 45.07 237.84 52.65 244.91 46.36 256.07 33.58 271.42 31.5 282.73"/><polygon class="cls-47" points="52.65 244.91 45.07 237.84 46.61 233.4 54.83 229.2 89.12 225.84 107.48 225.84 127.78 233.4 129.44 239.75 122 250.31 110.95 250.31 109.41 253.91 98.37 258.11 81.16 252.71 63.18 243.71 52.65 244.91"/><polygon class="cls-31" points="62.41 235.2 57.4 235.44 61.7 231.42 101.45 231.42 114.55 233.43 118.27 237.84 118.27 240.96 108.51 246.47 87.84 246.47 73.2 238.95 62.41 235.2"/><polygon class="cls-32" points="122 250.31 129.44 239.75 132.01 254.03 140.23 261.71 152.05 278.74 145.11 283.66 118.27 279.22 122.13 261.71 122 250.31"/><polygon class="cls-29" points="63.18 243.71 53.39 244.83 62.54 249.83 72.3 249.83 94.39 260.75 98.37 258.11 81.16 252.71 63.18 243.71"/><polygon class="cls-30" points="33.58 271.42 31.33 282.74 57.4 281.02 70.76 281.02 64.21 261.71 72.3 249.83 62.54 249.83 52.63 244.96 46.36 256.07 33.58 271.42"/><polygon class="cls-46" points="64.21 261.71 70.76 281.02 92.08 278.02 118.27 279.22 122.13 261.71 122 250.31 110.95 250.31 109.41 253.91 98.37 258.11 94.39 260.75 72.3 249.83 64.21 261.71"/><polygon class="cls-35" points="101.45 231.42 92.78 231.42 100.1 234.66 100.1 239.75 87.84 246.47 108.51 246.47 118.27 240.96 118.27 237.84 114.55 233.43 101.45 231.42"/><path class="cls-61" d="M563.71,110.14C456,116.14,487.65,93.84,410,85.89c-17-1.75-54.44,5.25-54.44,12.17,0,16.39,57.08,14.23,71.42,21,44.72,21-58.66,10.43-71.56,9.65-15.54-.93-25.34-6.45-19.57-6.66C500.09,116.13-139.92,40.17,68,107.43c13.11,4.24-42.87,9.74-68,10.44v22.95C34.09,139.1,72.39,121,106.32,129.61c48.44,12.29,29.87-9,23.83-10.56-106.79-28.5,248-20.53,163.17,15.8-36.59,15.67,256.76,31,156.46-11.74-92.39-39.35,88.65-3.45,145.5,21.65V108.1C584.82,107.6,574.33,109.55,563.71,110.14Z"/><path class="cls-61" d="M538.31,182.17c-35.57.61-37.53,18.41-67.89,27.28-7.55,2.21-132.71-6.67-142.22-8-16.83-2.33-86.16-8.84-86.44-8.9-27.47-6,.93-16.48,1-17.23,1-6.75-24.44-7.16-32.36-6.79C178.53,170,143,197.77,110.76,187,60.53,170.09,31.94,199.78,0,194.46v28.29c2.7-.57,21.77-4.53,25.41-5C71.65,212,111.45,238,155,241.31c129.35,9.86,143.45-15.42,272.5-15.91,23.62-.09,149.53,25.68,167.76,27.35V200C561.88,196.26,549.83,182,538.31,182.17Z"/></g></g></svg>