<svg xmlns="http://www.w3.org/2000/svg" xmlns:xlink="http://www.w3.org/1999/xlink" viewBox="0 0 250 160"><defs><style>.cls-1{fill:#939598;}.cls-2{fill:url(#radial-gradient);}.cls-3{fill:#6d6e71;}.cls-4{fill:url(#radial-gradient-2);}.cls-5{fill:url(#radial-gradient-3);}.cls-6{fill:url(#radial-gradient-4);}.cls-7{isolation:isolate;}.cls-8{fill:url(#radial-gradient-5);}.cls-41,.cls-9{fill:#231f20;}.cls-10,.cls-43,.cls-45,.cls-46,.cls-9{mix-blend-mode:screen;}.cls-10{fill:#141313;}.cls-11{fill:#f55e1b;}.cls-12{fill:#d94809;}.cls-13{fill:#c74208;}.cls-14,.cls-27{fill:#e6e7e8;}.cls-14,.cls-26,.cls-50{mix-blend-mode:multiply;}.cls-15{fill:#7b7f8f;}.cls-16{fill:#7a6817;}.cls-17{fill:#5a5f73;}.cls-18{fill:#414659;}.cls-19{fill:#676a78;}.cls-20{fill:#8a8e9c;}.cls-21{fill:#4a4e5e;}.cls-22{mask:url(#mask);}.cls-23{fill:#00bdbf;}.cls-24{fill:#676b7a;}.cls-25{fill:#9c9fab;}.cls-28{fill:#fee39e;}.cls-29{fill:#fdd15d;}.cls-30{fill:#fdc534;}.cls-31{fill:#f79537;}.cls-32{mask:url(#mask-2);}.cls-33{fill:#feee2f;}.cls-34{mask:url(#mask-3);}.cls-35{fill:#c3d6f3;}.cls-36{fill:#b9cbe6;}.cls-37{fill:#afc0d9;}.cls-38{fill:#a5b5cc;}.cls-39{fill:#cfdef5;}.cls-40{fill:#525669;}.cls-42{fill:none;}.cls-44{fill:url(#radial-gradient-6);}.cls-45{fill:#414042;}.cls-46{fill:#fff;}.cls-47{mask:url(#mask-4);}.cls-48{mask:url(#mask-5);}.cls-49{mask:url(#mask-6);}.cls-50{fill:url(#radial-gradient-7);}</style><radialGradient id="radial-gradient" cx="214.14" cy="31.65" r="27.68" gradientTransform="translate(0.13)" gradientUnits="userSpaceOnUse"><stop offset="0" stop-color="#fff"/><stop offset="0.81" stop-color="#414141"/><stop offset="0.91"/></radialGradient><radialGradient id="radial-gradient-2" cx="57.06" cy="87.04" r="44.82" gradientUnits="userSpaceOnUse"><stop offset="0" stop-color="#6d6e71"/><stop offset="0.64" stop-color="#4c4c4c"/><stop offset="1"/></radialGradient><radialGradient id="radial-gradient-3" cx="171.49" cy="86.89" r="24.75" gradientTransform="translate(120.76 -98.54) rotate(47.83)" xlink:href="#radial-gradient-2"/><radialGradient id="radial-gradient-4" cx="89.67" cy="37.69" r="15.16" xlink:href="#radial-gradient-2"/><radialGradient id="radial-gradient-5" cx="206.76" cy="19.5" r="172.26" gradientTransform="translate(0.13)" gradientUnits="userSpaceOnUse"><stop offset="0.04" stop-color="#354ffa"/><stop offset="1" stop-color="#090f65"/></radialGradient><mask id="mask" x="80.13" y="29.38" width="18.62" height="18.63" maskUnits="userSpaceOnUse"><ellipse class="cls-1" cx="89.44" cy="38.69" rx="9.31" ry="9.31"/></mask><mask id="mask-2" x="186.49" y="3.96" width="55.34" height="55.37" maskUnits="userSpaceOnUse"><ellipse class="cls-2" cx="214.16" cy="31.65" rx="27.67" ry="27.69"/></mask><mask id="mask-3" x="157.13" y="71.17" width="30.9" height="30.81" maskUnits="userSpaceOnUse"><ellipse class="cls-3" cx="172.63" cy="86.57" rx="15.41" ry="15.4" transform="translate(85.79 259.07) rotate(-89.91)"/></mask><radialGradient id="radial-gradient-6" cx="249.98" cy="96.9" r="0.1" xlink:href="#radial-gradient-5"/><mask id="mask-4" x="12.25" y="42.22" width="89.63" height="89.63" maskUnits="userSpaceOnUse"><circle class="cls-4" cx="57.06" cy="87.04" r="44.82"/></mask><mask id="mask-5" x="146.74" y="62.14" width="49.5" height="49.5" maskUnits="userSpaceOnUse"><circle class="cls-5" cx="171.49" cy="86.89" r="24.75" transform="translate(-8.04 155.66) rotate(-47.83)"/></mask><mask id="mask-6" x="74.51" y="22.53" width="30.33" height="30.33" maskUnits="userSpaceOnUse"><circle class="cls-6" cx="89.67" cy="37.69" r="15.16"/></mask><radialGradient id="radial-gradient-7" cx="211.5" cy="34.74" r="228.88" gradientUnits="userSpaceOnUse"><stop offset="0.01" stop-color="#fff5cd"/><stop offset="0.51" stop-color="#febf1b"/><stop offset="0.59" stop-color="#fdb61c"/><stop offset="0.74" stop-color="#fa9e1f"/><stop offset="0.92" stop-color="#f57624"/><stop offset="1" stop-color="#f26326"/></radialGradient></defs><g class="cls-7"><g id="圖層_2" data-name="圖層 2"><g id="Layer_1" data-name="Layer 1"><rect class="cls-8" width="249.87" height="160"/><path class="cls-9" d="M96.3,29.81A118.69,118.69,0,0,0,249.87,143.22V0H100.08A119,119,0,0,0,96.3,29.81Z"/><path class="cls-9" d="M129.27,27.74a88.07,88.07,0,0,0,88,88.1,87.78,87.78,0,0,0,32.55-6.22V0H133.73A88,88,0,0,0,129.27,27.74Z"/><path class="cls-9" d="M249.87.61c-.17-.21-.35-.41-.52-.61h-68.9a45.56,45.56,0,1,0,69.42,59Z"/><path class="cls-10" d="M186.49,80a14.3,14.3,0,0,1,1.42,5.2c9.4,5.16,15.25,9.84,14.36,11.92-1.3,3-16.42-.61-33.75-8.1s-30.33-16-29-19c1-2.43,11-.55,24,4.18a17.64,17.64,0,0,1,4.64-2.33c-23.65-9.51-43.27-13.56-45.23-9C120.73,67.74,140.5,81,167,92.5s49.76,16.75,51.9,11.81C220.71,100.12,206.84,90,186.49,80Z"/><path class="cls-11" d="M78.39,96.26q0,1.23,0,2.46a.76.76,0,0,1,0,.15s0,0,0,0c0,.43,0,.85-.06,1.28s0,.74-.08,1.1-.08.81-.13,1.22-.13,1-.21,1.52a39.85,39.85,0,0,1-1,4.63c-.11.39-.22.77-.34,1.15s-.23.77-.37,1.14-.16.5-.26.74-.17.5-.27.75-.18.47-.28.71c0,0,0,0,0,.07-.09.23-.19.47-.29.7s-.27.63-.41.94-.34.73-.51,1.09-.43.86-.66,1.29-.38.7-.58,1c-.1.19-.22.38-.33.57-.37.64-.76,1.27-1.16,1.88h0a.55.55,0,0,1-.09.14l-.07.11c-.16.24-.32.48-.49.71a1.15,1.15,0,0,1-.14.19l-.49.68a1.37,1.37,0,0,1-.15.21c-.06.07-.11.15-.17.23l-.24.31c-.15.2-.3.39-.47.58,0,0,0,0,0,0-.18.24-.37.47-.57.7s-.51.6-.77.89-.52.58-.79.87l-.61.64q-.31.33-.63.63-.63.61-1.29,1.2a1.38,1.38,0,0,1-.26.23.86.86,0,0,1-.14.13,1.78,1.78,0,0,1-.26.22l-.67.57c-.45.37-.91.73-1.37,1.08s-1,.71-1.45,1.05c-.33.23-.65.45-1,.66s-.65.42-1,.62q-1.47.91-3,1.68l-1.11.54c-.38.18-.75.35-1.13.51l-1,.4c-.12,0-.25.11-.38.15l-1,.37q-.56.21-1.11.39l-.61.2-.74.23h0l-1.24.35c-.68.19-1.36.35-2,.49l-.17,0-.36.07-.92.17-.32.06L43,139c-.29.05-.58.1-.87.13l-.31.05q-.49.08-1,.12c-.3,0-.61.07-.92.09l-1.14.09-.43,0-.91,0a41.85,41.85,0,0,1-21-4.92L15.31,134l-.12-.08h0l-1-.59-.3-.18-.53-.34-.37-.24-.08-.06-.16-.1-.08,0c-.48-.33-.95-.66-1.41-1l-.31-.23c-.47-.35-.94-.72-1.39-1.09l-.42-.35c-.11-.09-.22-.18-.32-.28l-.46-.4a1.14,1.14,0,0,1-.17-.15c-.12-.1-.24-.2-.35-.31-.27-.24-.53-.49-.79-.74l-.35-.35a.28.28,0,0,1-.1-.09q-.33-.31-.63-.63c-.16-.16-.32-.33-.47-.5l-.14-.15L5.28,126l-.18-.2-.66-.74c-.85-1-1.66-2-2.41-3l-.3-.43a.61.61,0,0,1-.07-.1L1.33,121l-.07-.11a.27.27,0,0,1-.06-.1h0a0,0,0,0,0,0,0l-.47-.73-.35-.58L0,118.89V76A42.31,42.31,0,0,1,3.76,70.6h0l.12-.16c.66-.8,1.35-1.56,2.06-2.3.31-.32.62-.63.94-.94.49-.48,1-.94,1.5-1.39l.55-.48.83-.69a40.91,40.91,0,0,1,6.12-4.11l1.2-.64c.75-.38,1.52-.74,2.29-1.08l1.43-.59c.3-.12.6-.24.9-.34s.72-.26,1.08-.38l.57-.19.84-.26.37-.11.21-.06c.25-.08.51-.15.77-.21a2.14,2.14,0,0,1,.34-.09c.28-.08.56-.14.85-.21l.32-.07c.86-.2,1.74-.37,2.6-.5l1.05-.15.85-.11c.57-.07,1.15-.12,1.73-.16l.75-.05a41.52,41.52,0,0,1,8.54.41c.42.06.84.13,1.25.21s1.1.21,1.65.33,1.22.29,1.83.46A41.86,41.86,0,0,1,56,60.2a41.11,41.11,0,0,1,5.63,3.59c.34.25.67.51,1,.77s.65.53,1,.8q1,.84,1.92,1.74.53.5,1,1t.78.84l.61.69.06.06.1.12.09.1q.3.34.6.72c.24.29.48.58.71.88l.06.07a.91.91,0,0,0,.11.16.13.13,0,0,1,0,.06l0,0,.08.1,0,.05c.15.19.29.37.43.57.77,1,1.48,2.14,2.15,3.26l.23.39a3.72,3.72,0,0,1,.19.34c.13.22.26.44.37.67a0,0,0,0,1,0,0,.25.25,0,0,0,0,.07,1.24,1.24,0,0,1,.1.2c.09.15.17.3.25.46s.18.34.26.51l.24.49a39.74,39.74,0,0,1,1.79,4.27,3.52,3.52,0,0,1,.15.42c0,.13.09.26.13.39a.14.14,0,0,1,0,.06.36.36,0,0,1,0,.11,2.58,2.58,0,0,1,.08.26,1.21,1.21,0,0,1,.08.25c.07.21.14.42.2.63,0,.06,0,.12,0,.17s.06.2.08.3a.32.32,0,0,1,0,.09c0,.09,0,.18.07.26s.1.34.14.51.08.29.11.43.07.27.1.4.06.23.08.34a1.6,1.6,0,0,1,0,.21,3.67,3.67,0,0,1,.09.43,0,0,0,0,1,0,0,.4.4,0,0,1,0,.15.29.29,0,0,1,0,.09c0,.11,0,.21.07.31a.3.3,0,0,0,0,.1c0,.25.1.51.14.76s.07.35.09.52a.36.36,0,0,1,0,.1v0a.06.06,0,0,1,0,0v0c.07.4.13.8.18,1.19a.28.28,0,0,1,0,.09c0,.15,0,.29.06.44a.49.49,0,0,1,0,.12,1.55,1.55,0,0,1,0,.37.39.39,0,0,1,0,.15,1.33,1.33,0,0,1,0,.28c0,.17,0,.34,0,.52s0,.42,0,.63,0,.25,0,.39,0,.22,0,.33l0,.61V96C78.39,96.06,78.39,96.16,78.39,96.26Z"/><path class="cls-12" d="M71.41,120.7l-.11.16q-.33.51-.69,1c-.48.69-1,1.37-1.52,2-.3.39-.62.77-1,1.14s-.78.89-1.18,1.32-.82.86-1.24,1.27-.85.81-1.29,1.2-.88.77-1.33,1.15-.91.73-1.37,1.08a9.72,9.72,0,0,0-4-1.89c-4.73-.93-7.8-2-11-5h0c-.45-.44-.9-.9-1.36-1.41a45.5,45.5,0,0,1-4.18-6,5.35,5.35,0,0,0-3.35-2.48c-3.55-.8-7.24-2.22-10.15-.7s-4.77,2.16-7.32-.46-3.53-6.21-8.92-7.63c-4.58-1.2-7.25-2.57-9.45-4.54-.38-.34-.74-.69-1.1-1.07S.24,99.08,0,98.78V86.48a14.32,14.32,0,0,0,4.05,1.23c.92.22,1.65.66,4.16,3.2,4.8,4.88-2.82,1.91,6.92,5.65s6.41.51,13,5.45,7.4,4.41,13.3,6.23c4.11,1.26,5.23,1.72,7.24,3.14.87.62,1.92,1.42,3.45,2.54,1.86,1.36,3,2.41,4.07,3.23,1.77,1.41,3,2.08,6.35,2.31,5.13.36,3.68,2.34,8.87,1.24Z"/><path class="cls-12" d="M77.9,104c-.57-.3-1.22-.62-2-1-6.84-3.1-4.29-2.11-9.33-5.89s-3.91-.43-8.86-4.71-5.07-3-9.7-6.21S36.62,84,32.68,79.13,26,75.42,21.82,72.75s-7.24,2.74-8-1.63c-.41-2.39-2.38-4.8-4.06-6.48a40.84,40.84,0,0,0-6,6c1.83,1.08,3.13,3.09,5,5.39,2.49,3.13,2.3,2.13,6.91,3.31s3.4,1.08,9.17,4.15,5.83,6.35,16.66,9.4,6.2,3.29,10,5.67,6.43,5.22,10.6,6.54,6.31,1.37,9.7,5.52c1.43,1.75,2.56,2.43,3.6,2.61A41.66,41.66,0,0,0,77.9,104Z"/><path class="cls-12" d="M78.39,98.88a42.15,42.15,0,0,0-62.5-38.35c3.09,1.33,8,3.55,9.74,5.11,2.68,2.35-1.95,2.24,9.1,5.22s6.13,4.24,11.63,7.57,6.33,3.14,11.58,6.16,5.16,3.88,9.65,5.27,5.7,1.51,7.41,4.4C76.16,96.21,76.46,97.79,78.39,98.88Z"/><path class="cls-11" d="M76.72,89.56a11.51,11.51,0,0,0,1.14,1.11,42.85,42.85,0,0,0-1.64-6.61c-.86-.42-2-.78-4.18-1.78-4.23-1.93-4.08-3.06-7.16-6.23s-3.61-1.8-11.8-4.89-5.82-1.58-10-5.31S38.53,63,33.17,60.52a25.14,25.14,0,0,1-6.43-4.15c-1.14.26-2.27.58-3.38.94a23.38,23.38,0,0,0,6.36,2.94c5,1.6,2.66,1.78,6.16,4s2.8,2.66,8.63,4.58,6.13,4.32,11,6.91,5.95,3.76,10.74,6.07S71.67,84.11,76.72,89.56Z"/><path class="cls-11" d="M66.3,85.84s2.31.08,3.09,1a12.25,12.25,0,0,0,2.07,1.76c1.42,1.18-.13,1.38-2.26.18s-1.39-1.34-2.86-1.52S64.87,85.64,66.3,85.84Z"/><path class="cls-13" d="M26.82,62.87a7,7,0,0,1,2.23,2c.83,1.27-.32,1.39,3,1.95s4.3.84,4.92,1.71,1.43,2.52-.4,1.33-2.5.07-4.35-.64-3.27-1.11-3.9-2.07-1.54-2.64-2.91-3.13-1.54-1.29-.68-1.44A5.11,5.11,0,0,1,26.82,62.87Z"/><path class="cls-13" d="M28.4,116.13s5.15-1,7.15.67,2.28.9,3.49,3.38,3.64,2.21,1.94,3.6-1.15.59-5.42.25-7.29-2.43-8.23-4.38S28.4,116.13,28.4,116.13Z"/><path class="cls-13" d="M55.31,135l-1.11.54c-.38.18-.75.35-1.13.51l-1,.4c-.12,0-.25.11-.38.15l-1,.37q-.56.21-1.11.39l-.61.2-.74.23h0l-1.24.35c-.68.19-1.36.35-2,.49l-.17,0-.29,0-.07,0-.92.17a1.8,1.8,0,0,1-.32.06L43,139c-.29.05-.58.1-.87.13l-.29,0h0q-.49.08-1,.12c-.3,0-.61.07-.92.09l-1.14.09-.43,0-.91,0a41.85,41.85,0,0,1-21-4.92L15.31,134l-.12-.08h0l-1-.59-.3-.18-.53-.34-.37-.24-.08-.06-.16-.1-.08,0c-.48-.33-.95-.66-1.41-1l-.31-.23c-.47-.35-.94-.72-1.39-1.09l-.42-.35c-.26-.22-.53-.44-.78-.68a1.14,1.14,0,0,1-.17-.15,3.38,3.38,0,0,1-.35-.31c-.27-.24-.53-.49-.79-.74l-.35-.35a.28.28,0,0,1-.1-.09q-.33-.31-.63-.63c-.16-.16-.32-.33-.47-.5l-.14-.15L5.28,126l-.18-.2-.66-.74c-.85-1-1.66-2-2.41-3l-.3-.43a.61.61,0,0,1-.07-.1L1.33,121l-.07-.11a.27.27,0,0,1-.06-.1h0a0,0,0,0,0,0,0l-.47-.73-.35-.58L0,118.89v-13a7,7,0,0,1,.89.93c2.23,2.8,2.85,5.61,6.79,7.31s4.65.79,7.22,3.88a15.49,15.49,0,0,0,1.83,1.87h0a19.08,19.08,0,0,0,7.63,3.8c4.09,1.2,5.55.61,8,2.68a27.66,27.66,0,0,0,2.51,2,11.39,11.39,0,0,0,4.77,1.7c4.16.77,4.73,1.06,7.17,2.36C49.07,133.74,51.65,133.78,55.31,135Z"/><path class="cls-11" d="M47.06,138.18c-.68.19-1.36.35-2,.49l-.46.09-.07,0-.92.17a1.8,1.8,0,0,1-.32.06L43,139c-.29.05-.58.1-.87.13l-.29,0a9,9,0,0,0-1.93-.84c-2.38-.63-5.18-2.66-8.05-3.38s-5.53-3.12-8.8-4.67a8.12,8.12,0,0,1-2.22-1.41c-.5-.4-1-.72-3.75-1.45-4.91-1.3-7.73-5.15-10.42-6S4.78,120.31,2,119.85c-.56-.1-1.13-.23-1.69-.38L0,118.89V114.1a37.36,37.36,0,0,1,3.29,2.7c2.27,2.2-.24-.21,5.5,2.93s6.82,2.09,9.49,5a18.47,18.47,0,0,0,5.56,4.43h0a15.57,15.57,0,0,0,3.35,1.21,19.1,19.1,0,0,1,7,2.69c2.7,1.54,1.34,1.9,5.43,2.36S45,137.38,47.06,138.18Z"/><path class="cls-14" d="M61.67,63.79A42.15,42.15,0,0,1,6.81,124.37a43.91,43.91,0,0,1-5.64-3.59,42.15,42.15,0,1,0,60.5-57Z"/><ellipse class="cls-9" cx="31.54" cy="92.09" rx="32.52" ry="25.8" transform="translate(-54.2 46) rotate(-42.83)"/><path class="cls-15" d="M250,134.55V148.9c-13-1.87-22.15-5-40.89-8-2.07-.34-4.25-.67-6.56-1-7.37-1-16.12-2.05-26.8-3-2-.59-4.31-1.29-6.52-1.92h0c-2.1-.61-4.09-1.15-5.57-1.48a13.42,13.42,0,0,0-1.95-.32q-7.27-.37-14.55-.6c-1.44-.05-4.06-.12-6.44-.35,2.17-.43,4.67-1.17,5.45-1.25a51.74,51.74,0,0,0,6.43-1.16,35.24,35.24,0,0,1,7.25-.56,8.57,8.57,0,0,0,1.93-.33,20.07,20.07,0,0,0,2.82-1,31.13,31.13,0,0,1,9-.57c2.27.39,6.38,0,10.08.68s9.91,0,12.27.17a50.78,50.78,0,0,1,6.32.66h.07l.56.08a8.8,8.8,0,0,0,1.06.12l.51,0,.36,0c.71,0,1.47,0,2.27,0h.68l.8,0,1.44,0h.24c.81,0,1.45,0,2,0l1.12.08s0,0,.05,0l1.45.13h0c.4,0,.82.07,1.32.09h.33l.83.1.36.05h0l.24,0c.48.06,1,.15,1.55.25l1.08.19,1.59.32,1.81.36c.94.19,1.71.34,2.15.41,1.61.22,6.21.84,8.3.86s7.45,1,9.61.65C245.64,132.5,247.89,133.7,250,134.55Z"/><path class="cls-15" d="M175.73,136.93c-79.68.33-123.79,4.28-175.62,10V136.67c3.27-.55,7.65-1.69,9.36-1.7s8.16-2.32,11.51-1.92,6.2-1.94,9.61-1.69,2.58-.93,7.18-.38,5.46.58,8.11.27,4.91-.66,6.72-.73a40.63,40.63,0,0,1,7.32.49c2.24.4,2.4,0,5.31-.47l.62-.11a59.67,59.67,0,0,1,7.77-1.18c2.1,0,5.34-1.52,6.79-1.28a14.48,14.48,0,0,0,1.93.12h.18c1.4,0,3,0,4.17.08h0c.21,0,.44,0,.67.08l.27,0c.75.13,1.58.31,2.49.4l.48.05a9.23,9.23,0,0,0,1.95-.07,4.68,4.68,0,0,0,.71-.14,2.46,2.46,0,0,0,.45-.11h0a32.43,32.43,0,0,1,10.46-.51l1.33.35a24.13,24.13,0,0,0,6.29,1c2.85-.08,11.61.21,13.77.71s9.17,1.12,11.8,1.79a24.56,24.56,0,0,0,3.27.49c2.38.23,5,.3,6.44.35q7.27.22,14.55.6l.37,0,.62.1.32.06h0l.55.11h0l.41.1.39.09c1.36.32,3,.78,4.74,1.28h0l1.78.52,1.31.38Z"/><path class="cls-16" d="M43.39,147.73s-3.24.32-7.46.85l-.17,0c-6.4.8-14.95,2-17.85,2.68-1.42.31-4,.69-7,1.08h0c-3.51.46-7.56.95-10.81,1.35V152h0a1.15,1.15,0,0,1,.15.41s.41.1.51.11.13.12.09.29-.3.12,0,.18.41-.09.62-.07a.88.88,0,0,0,.48-.09c.26-.09,0,0,.44-.26s.18-.23.48-.29.17.17.31,0a.84.84,0,0,1,.64-.36,1,1,0,0,0,.64-.31c.12-.16.12-.33.31-.26a1.85,1.85,0,0,0,.84-.05c.2-.07.41,0,.43.06s.52.18.7.18.12-.29.17,0,0,.45.15.43.15.06.38.19.11.15.25,0S7.82,152,8,152s.26-.05.3-.09-.05,0,.16-.16a1.38,1.38,0,0,0,.41-.25c.11-.12,0-.12.2-.18l.57-.21h.18s.06,0,.17-.16.19-.26.28-.27.28-.12.35-.09,0,.09.19.06a.52.52,0,0,0,.28-.09,1.1,1.1,0,0,0,.21-.14c.13-.08.14-.06.18-.1l.23-.21s.11-.09.19-.05a.53.53,0,0,0,.38-.05,2.35,2.35,0,0,1,.17-.2,2.12,2.12,0,0,1,.2-.17c.05,0,.25-.19.37-.18a1.43,1.43,0,0,0,.41-.06,2.5,2.5,0,0,1,.64,0c.06,0,0,.13.3.08s.62-.17.71-.19a2,2,0,0,1,.54,0c.14,0,0,.06.31,0s.41-.16.47-.06.26.17.57.07l.52-.15a2.94,2.94,0,0,0,.55.16c.13,0,.18-.06.35,0a.3.3,0,0,1,.22.15.71.71,0,0,0,.45.07c.09,0,.17-.07.26-.06s.19.13.36.1.13-.09.28-.07a1,1,0,0,0,.41,0c.13,0,.12-.13.2,0s0,.12.16.14.13-.08.28,0,.1.13.24.09.29-.09.37-.06.05.1.17,0,.2,0,.28-.1,0-.06.14-.1a1.35,1.35,0,0,1,.35-.07c.08,0,.18-.14.25-.13s.3-.08.35,0,.2.1.32,0,.25-.19.34-.19l.3,0a1.05,1.05,0,0,0,.36-.19c.08-.06.28-.16.28-.18s.08-.13.14-.13a1.09,1.09,0,0,0,.24-.14c.09-.06,0-.14.22-.16a2.12,2.12,0,0,0,.47-.12c.14,0,.46-.22.52-.18a.62.62,0,0,0,.33.07,4.14,4.14,0,0,0,.47,0,1.39,1.39,0,0,0,.35,0c.17,0,.26-.11.37-.09a.74.74,0,0,1,.4.08.37.37,0,0,0,.24.08c.09,0,.13-.08.18,0s.13,0,.21,0,.08,0,.19,0a.45.45,0,0,0,.28,0c.11,0,.21-.08.28,0s.13.14.26.07.16-.14.25-.12.13.06.31-.07a.46.46,0,0,1,.38-.09,4.81,4.81,0,0,0,.6.29c.09,0,0,0,.18-.1a3.33,3.33,0,0,0,.39-.21c.25-.15.28-.18.26-.25s-.16-.16.07-.27a2.76,2.76,0,0,0,.5-.3.82.82,0,0,1,.45-.2c.14,0,.23,0,.41-.11a1.63,1.63,0,0,1,.5-.24.55.55,0,0,0,.37-.14.42.42,0,0,1,.32-.15c.1,0,.15-.13.27-.18s.47-.14.48-.07.32.12.39.11.35-.17.44-.2a.14.14,0,0,1,.16,0s.19.09.27-.13.52-.09.65-.09.3.17.45.19.49.17.63.2,0,.1.19.2a1.18,1.18,0,0,0,.46.21c.13,0,0,.21.16.22s.35.15.52.14.47.19.57.17.21.15.39.14a.89.89,0,0,1,.45,0,2.67,2.67,0,0,0,.72.05c.13,0,0,.14.14.15s.15-.11.27,0,.14.17.25.17.26.07.36.06S43.39,147.73,43.39,147.73Z"/><path class="cls-17" d="M250,144.82V160H.11V145L.52,145c1.43-.27,2.86-.52,4.29-.77,4.47-.79,8.93-1.53,13.41-2.23,2-.31,4-.62,6.06-.91h.07c2.06-.3,4.12-.6,6.17-.88,1.77-.25,3.53-.48,5.29-.71.94-.13,1.89-.25,2.83-.36l5-.62,5.89-.67q6.21-.68,12.42-1.25c2.46-.22,4.92-.44,7.37-.63,1.74-.15,3.48-.28,5.22-.41l.53,0,6.11-.41c1.77-.12,3.54-.22,5.3-.32l2.17-.12,4.94-.25.84,0c1.92-.09,3.85-.17,5.77-.24l6.31-.2h.06c2.1-.06,4.21-.11,6.31-.14h.38c1.85,0,3.7-.06,5.55-.07h.79l6,0q4.11,0,8.21.05,2.06,0,4.11.06,4.15.08,8.29.2h.16c.94,0,1.86.06,2.8.09l3.78.14,4.06.17,4.06.2,4.06.22c1.35.07,2.71.15,4.06.24h0l2.23.14,2.8.19c5.69.4,11.36.86,17.05,1.4h.18a5.8,5.8,0,0,0,.6.06q4.42.44,8.85.91c.81.08,1.61.17,2.42.27l.43,0,4.35.51,1.34.16c2.07.25,4.15.51,6.22.79l2.34.3q4.38.59,8.76,1.23l1.42.21.43.07c2.31.34,4.61.7,6.92,1.07l.53.08c2,.32,4,.64,5.94,1l.95.16q3.24.56,6.47,1.14Z"/><path class="cls-9" d="M250,154.37V160H105.16a45.1,45.1,0,0,0,5.36-1.3h0c4.21-1.29,7.23-2.95,5.39-3.68-3.25-1.28,5.25-2.47,12.4-2.13s24.06-1.17,25-1.81,1.87-2.07-27.68-1.9c-29.5.63-39.13-.75-31.16-1.29,8-.74,47.91-2.33,59-1.69,3.7,0,9.89.13,16.75.35,13.74.43,30.16,1.12,34.52,1.21a13.2,13.2,0,0,1,1.46,0C214,148,239.47,152.32,250,154.37Z"/><path class="cls-9" d="M202.53,139.9h0c-2.73.14-7.61-.2-9.48-.14-3.87,0-28.44-1.31-30.22-.08-1.8.62-47.79-.23-51.25.77-3.46.45,16,.38,12.33,2.51-3.62,1.6-49.7,1.53-56.47,2.34-6.75.28-19.75,2.29-29.6,3.12l-1.9.16-.17,0a246.39,246.39,0,0,0-24.82,3.76h0c-.27,0-.5.11-.68.16-1.87.47-6.71,1-10.13,1.39V145L.52,145c1.43-.27,2.86-.52,4.29-.77,4.47-.79,8.93-1.53,13.41-2.23,2-.31,4-.62,6.06-.91h.07c2.06-.3,4.12-.6,6.17-.88,1.77-.25,3.53-.48,5.29-.71.94-.13,1.89-.25,2.83-.36l5-.62,5.89-.67q6.21-.69,12.42-1.25c2.46-.22,4.92-.44,7.37-.63,1.74-.15,3.48-.28,5.22-.41l.53,0,6.11-.41c1.77-.12,3.54-.22,5.3-.32l2.17-.12,4.94-.25.84,0c1.92-.09,3.85-.17,5.77-.24l6.31-.2h.06c2.1-.06,4.21-.11,6.31-.14h.38c1.85,0,3.7-.06,5.55-.07h.79l6,0q4.11,0,8.21.05,2.06,0,4.11.06,4.15.08,8.29.2c1,0,2,.06,3,.09l3.78.14,4.06.17,4.06.2,4.06.22,4,.23h0l2.23.14,2.8.19c5.69.4,11.36.86,17.05,1.4h.18a5.8,5.8,0,0,0,.6.06q4.42.44,8.85.91l.55.18C205.64,139.3,204.89,139.78,202.53,139.9Z"/><path class="cls-9" d="M250,144.83v5.53c-7.22-.71-17.35-.37-19.9-1-3.55-1-23.49-2.39-26.4-3.15-2.93-1.06-32.73-1.05-39.52-1.23-6.76-.45-20.47-1-20.47-1.27s3.45-1,9.27-.38,24.19,1.19,33.89-.54c9.73-1.89,27.31,1.26,22.72-1.22-.54-.31-.67-.53-.48-.69,1.43-1.17,20.9,1.5,20.89,1.62-.44-.4-.86-.79-1.3-1.17l0,0c2.31.34,4.61.7,6.92,1.07l.53.08c2,.32,4,.64,5.94,1l.95.16q3.24.56,6.47,1.14Z"/><path class="cls-14" d="M107.08,154c.21,1.68-22.17,2.19-25.24,2.36-1.92-.17-16.94,1.74-27.71,3.63H.11v-4.39c5.73-.85,16.13-2.31,21.19-3,7.13-1.77,59-6.51,56.89-4.7-2.36,1.43.16,4.51,12.27,4.29S106.86,152.25,107.08,154Z"/><path class="cls-9" d="M248.2,156.28c.06-.17-30.35-7.73-43.12-8.63-12.72-1.28-33.94-1.12-35.74-1.09A685.51,685.51,0,0,1,248.2,156.28Z"/><path class="cls-18" d="M216.84,160H104l1.81-.46a31.18,31.18,0,0,1,4.71-.84h0c15.52-1.77,49.94.81,79.36.09A173.45,173.45,0,0,1,216.84,160Z"/><path class="cls-15" d="M80.87,126.87q8.63-.54,17.25-.88c-.72-.95-1.44-1.89-2.17-2.83-.18-.82-.35-1.63-.53-2.45-.35-.56-.71-1.12-1.06-1.69-.09-2-.17-3.9-.26-5.86-.27-.61-.55-1.23-.83-1.84l-.85.23c-.11.42-.22.85-.32,1.27l-.47-.89-1.18.06c-.12.37-.23.74-.35,1.12l-.42,2c-.06,1.59-.13,3.18-.19,4.76l-.24-4.71-.75-1.68-.86-.81-1,0c-.1.59-.19,1.17-.29,1.76l-.41.93-.42-.43-.09-1.65L84,111.63l-.53,0c-.11.63-.21,1.27-.32,1.91,0,.75.09,1.5.13,2.25l-.68-.78-1.26,1.27.3,4.82L81,120c-.08-.91-.15-1.81-.23-2.72l-.55-.74h-.15c-.21.51-.43,1-.64,1.52.1,1.61.2,3.22.31,4.83l-1.32,1.63-2.51,2c-.05.25-.11.5-.16.75Z"/><path class="cls-19" d="M92.1,112.82c0,.53-.06,1.07-.08,1.6l.12,2.53c.31,1.25.63,2.5,1,3.76L92,123.94c0-1.36,0-2.71,0-4.07-.28-1.57-.56-3.14-.83-4.71,0-.77,0-1.53,0-2.3l.5-.93Z"/><path class="cls-19" d="M84,111.63c.22,1.18.44,2.35.67,3.52.08,1.5.17,3,.25,4.51-.09,1-.19,2-.29,2.94L86.2,125c-.28-1.05-.55-2.09-.83-3.13.13-.68.27-1.35.41-2l-.15-2.67L85.48,115l-.09-1.65Z"/><path class="cls-19" d="M87.64,112.7l.57,2.1c.08.88.15,1.76.22,2.63,0,1.41.07,2.83.11,4.24l.33-3.91-.12-2.49c-.08-.58-.17-1.17-.25-1.76Z"/><path class="cls-19" d="M80.21,116.49l.08,1.35c.12.71.23,1.43.34,2.14l.15,4c.07-.95.13-1.9.19-2.85,0-.39,0-.77,0-1.16-.08-.91-.15-1.81-.23-2.72Z"/><path class="cls-19" d="M82.58,115.05c0,.62.07,1.24.11,1.86l.42,1.54c.06,1.09.13,2.17.19,3.25,0,.91-.11,1.81-.16,2.72.14.46.27.93.41,1.4l-.09-1.55.36-3-.12-3.21c-.19-.47-.37-.93-.55-1.4,0-.29.07-.59.11-.88Z"/><path class="cls-19" d="M79.73,122.85l.06.89c-.09.33-.17.66-.25,1,0,.49.06,1,.1,1.47l-.61-1,.15-1.16-.07-.45Z"/><path class="cls-19" d="M94.36,119l.08,1.9c.16.84.31,1.67.47,2.51,0,.55-.07,1.11-.11,1.66.21-.54.42-1.08.64-1.62l-.3-2.26.28-.5C95.07,120.15,94.71,119.59,94.36,119Z"/><path class="cls-19" d="M93.27,111.32l.3,1.69c0,.93-.07,1.86-.1,2.79.19,1.18.39,2.37.58,3.55l-.12-4.43c0-.59.11-1.17.17-1.76C93.83,112.55,93.55,111.93,93.27,111.32Z"/><path class="cls-20" d="M83.45,111.67c.07.32.15.65.22,1v1.41l.06,2.33.3,2.48-.21,2.45-.12-3.21c-.19-.47-.37-.93-.55-1.4,0-.29.07-.59.11-.88,0-.75-.09-1.5-.13-2.25C83.24,112.94,83.34,112.3,83.45,111.67Z"/><path class="cls-20" d="M85.9,115.44c.1.42.2.85.29,1.27l.15,2.71.15-2.81,0-1.3c.09-.5.18-1,.26-1.49l.12-1.08h-.3c-.1.59-.19,1.17-.29,1.76Z"/><path class="cls-20" d="M90.45,112c0,.33.11.67.17,1s-.15.68-.22,1c-.08.86-.16,1.71-.25,2.57.08.77.15,1.55.22,2.32-.22.53-.45,1-.67,1.57l-.21-.58c.06-1.58.13-3.17.19-4.76l.42-2C90.22,112.73,90.33,112.36,90.45,112Z"/><path class="cls-20" d="M92.84,111.44l-.33,1.88c0,.56,0,1.12.08,1.68s0,1.2,0,1.8l.63,2.58c0,.45-.07.89-.11,1.33-.32-1.26-.64-2.51-1-3.76L92,114.42c0-.53,0-1.07.08-1.6s.21-.85.32-1.27Z"/><path class="cls-20" d="M82.08,115.55c0,.35-.09.7-.13,1,0,.62,0,1.24,0,1.87l-.06,3.08c-.12.85-.23,1.71-.35,2.57,0-1,0-2,0-3l-.3-4.82Z"/><path class="cls-20" d="M79.67,117.42c0,.41,0,.83.08,1.24s-.07.78-.11,1.16l.09,3c-.11-1.61-.21-3.22-.31-4.83Z"/><path class="cls-20" d="M78.41,124.48v.13l0,.5-.79.85-.78.66-.15.53-.91.07c.05-.25.11-.5.16-.75Z"/><path class="cls-15" d="M98.11,125.71s2.47,1.69,4.29,1.74a8.63,8.63,0,0,1,3.29.8q-20,.56-40,2.27s3.31-1.83,5-1.8,5.06-1.78,5.07-1.78Q86.91,126.15,98.11,125.71Z"/><path class="cls-19" d="M93.3,128.71l.59,0-.45-.74-.06-1.23c.17-.44.34-.88.5-1.32l-.09-2.07c.1-.35.2-.69.29-1-.14.31-.29.61-.43.92,0,.61,0,1.22.08,1.84l-.53,1.5c0,.38,0,.76,0,1.13S93.26,128.36,93.3,128.71Z"/><path class="cls-20" d="M93.3,128.71l-.76,0c.11-.24.23-.48.35-.72l-.15-1c0-.42.08-.84.13-1.26l.57-1.19.21-1.42c0,.61,0,1.22.08,1.84l-.53,1.5c0,.38,0,.76,0,1.13S93.26,128.36,93.3,128.71Z"/><path class="cls-19" d="M87.43,129l-.08-1.39c0-.64.05-1.28.08-1.92-.11-.85-.21-1.7-.32-2.55s0-1.73,0-2.59l.14,2.55c.1.85.2,1.7.31,2.55,0,.63,0,1.27-.07,1.9.08.48.16,1,.25,1.43Z"/><path class="cls-20" d="M87.43,129l-1,.06c.16-.52.32-1,.47-1.54s.13-1,.19-1.56l-.24-2.35.27-.47c.11.85.21,1.7.32,2.55,0,.62-.05,1.25-.08,1.87Z"/><path class="cls-19" d="M90.12,128.86l.52,0-.33-1.49.48-1.63c-.14-.76-.28-1.52-.41-2.28l.18,2.23L90,126.92l.21,1C90.19,128.27,90.16,128.56,90.12,128.86Z"/><path class="cls-19" d="M82.4,129.29l.32,0-.21-.87.06-1.54c-.09-.67-.19-1.35-.28-2,0,.48,0,1,0,1.43l0,1.86,0,.67Z"/><path class="cls-17" d="M191.12,136.84q17.87,1.69,35.65,4.29l.66-4.49-1.71-1.25c-.44-1.42-.89-2.83-1.34-4.25l-1.47-1c-.27-.79-.54-1.58-.82-2.38l-2.53-3.2-1.17-.88-.46-1-1-.13-1.16,1.56c-.55.71-1.1,1.41-1.64,2.12l-1.07-1.38c-.18-.53-.36-1.06-.55-1.59-.49-.79-1-1.57-1.49-2.36l-.7-.92-.62.24c-.29.48-.58,1-.86,1.44-.08.25-.16.51-.25.76l-1-1.24-.65-.67-.71.1-.82,1.38c0,.24.09.47.13.71l-.51,1.75-1.1,1.29-1.29,2.07-.75,1.78c-.09.8-.17,1.6-.26,2.4l-1.84.14-1.25.53-.17,1.6h-1.2l-1.94.29-1.88,1Z"/><path class="cls-21" d="M214.16,126.24c-.24.82-.48,1.65-.71,2.47-.25,1-.49,2-.74,3q.22,2.63.42,5.25s-1.47-2.88-1.51-3,.71-5.81.71-5.81c0-1.2-.05-2.4-.07-3.61.09-.42.19-.85.28-1.27.19.53.37,1.06.55,1.59Z"/><path class="cls-21" d="M222.09,127.76l.06,3.22-.6,6.1.15,1.66c.1-.77.21-1.53.32-2.3.39-1.22.79-2.43,1.19-3.65l1.17-1.65-1.47-1C222.64,129.35,222.37,128.56,222.09,127.76Z"/><path class="cls-21" d="M208.62,122.43c-.24,1.11-.48,2.21-.73,3.31-.09,1.81-.19,3.63-.29,5.44-.73,1.16-1.45,2.32-2.17,3.49.53-1.42,1.07-2.84,1.61-4.26,0-1.64,0-3.28-.08-4.91v-5l.65.67Z"/><path class="cls-21" d="M208.1,138.65l1.4.17c-.15-.77-.29-1.55-.44-2.33l1.05-2.72c0-2.29.07-4.58.11-6.87q-.39,3.19-.77,6.4c-.43.86-.86,1.72-1.28,2.59.08.58.17,1.16.25,1.74C208.31,138,208.2,138.31,208.1,138.65Z"/><path class="cls-21" d="M215.64,139.59l2.4.32-.18-3.22c-.05-1.8-.11-3.6-.16-5.4l.78-5.51c-.61,2-1.21,3.95-1.81,5.92.08,1.33.17,2.67.25,4-.21.77-.41,1.55-.61,2.32Z"/><path class="cls-21" d="M225.72,135.39c.06.54.11,1.08.17,1.62l-.33,1.46-.87,1.49,1.41-1.41c.17-.41.34-.83.52-1.24l.81-.67Z"/><path class="cls-21" d="M201.65,132l-.33,1.39c0,.62,0,1.24,0,1.85-.18.24-.35.48-.53.71.12-.43.25-.87.37-1.31-.09-.46-.19-.92-.28-1.39s.09-.8.13-1.2Z"/><path class="cls-21" d="M198.39,134.27c-.07.38-.14.75-.22,1.13l-.7,1.07-.05.48-.12-.8.54-.88c0-.33,0-.67,0-1Z"/><path class="cls-21" d="M205.05,124.46c0,.61,0,1.23.08,1.84-.24.94-.49,1.88-.73,2.81-.28,1.55-.57,3.09-.85,4.64,0-1.14,0-2.28-.05-3.42.36-1.08.71-2.15,1.08-3.23,0-.69,0-1.38,0-2.07Z"/><path class="cls-21" d="M203.34,138.1l.45.05c0-.55-.09-1.11-.14-1.67l.51-1.58c.33-1.15.65-2.31,1-3.46-.35.95-.69,1.9-1,2.86l-.63,1.51c0,.59-.06,1.19-.1,1.78Z"/><path class="cls-21" d="M217.93,122.69l-.33,2.52c-.32,1.15-.63,2.31-.95,3.46l-.54,1.5c.37-.63.73-1.27,1.09-1.91.24-1,.47-1.95.71-2.92l.48-1.66Z"/><path class="cls-15" d="M197.19,134.26l-1.06,1.41-1.6.2-1.05.38-2.36.59,1.84-1.05,2.29-1.24Z"/><path class="cls-15" d="M199.81,132.14c-.15.48-.3,1-.44,1.43l-.51,1.19-.45,1.46-.94.25.7-1.07c.08-.38.15-.75.22-1.13l.17-1.6Z"/><path class="cls-15" d="M204,125.75c0,.5-.11,1-.16,1.5-.33.59-.65,1.18-1,1.78l-.79,1.83,0,1.83c-.08.65-.17,1.3-.25,1.95l-.51.6c0-.61,0-1.23,0-1.85l.33-1.39c.09-.8.17-1.6.26-2.4l.75-1.78Z"/><path class="cls-15" d="M206.25,120.62c.05.43.11.87.16,1.31-.16.79-.32,1.58-.49,2.38-.1,1-.2,2-.31,3-.33.75-.66,1.49-1,2.24s-.49,1.63-.73,2.45c.17-1,.35-1.9.52-2.85s.49-1.87.73-2.81c0-.61,0-1.23-.08-1.84l.51-1.75c0-.24-.09-.47-.13-.71Z"/><path class="cls-15" d="M210.35,120c0,1.08,0,2.16-.08,3.25l-.54,2.72c-.23.7-.47,1.4-.71,2.1l-1.42,3.12c.1-1.81.2-3.63.29-5.44.25-1.1.49-2.2.73-3.31.09-.25.17-.51.25-.76.28-.48.57-1,.86-1.44Z"/><path class="cls-15" d="M217,122.56l.12,2-1.19,2.87-1.63,3.08-1.55,1.23c.48-1.82,1-3.65,1.45-5.47Z"/><path class="cls-21" d="M219.56,124.56c.09,1.19.18,2.37.26,3.56-.22,1.17-.45,2.35-.68,3.53,0,1.83.08,3.66.11,5.49.3-1.86.61-3.72.91-5.59.3-1.09.6-2.18.91-3.26-.25-.93-.51-1.86-.76-2.78Z"/><g class="cls-22"><ellipse class="cls-23" cx="89.44" cy="38.69" rx="9.31" ry="9.31" transform="translate(-0.1 0.23) rotate(-0.15)"/><path class="cls-23" d="M89.44,29.38a9.23,9.23,0,0,0-5.69,1.94c1.67-.19,3.94-.07,5.29,1.59,2.32,2.87,2.14,4.2,1.59,5.51s-8.56,5.83-10.5.36a9.31,9.31,0,1,0,9.31-9.4Z"/><path class="cls-23" d="M81.71,43.87A9.3,9.3,0,1,0,86.06,30c1.55,0,3.85.26,5.13,1.75,2,2.37,3,7.45.33,9.72C89.73,43,84.84,44.24,81.71,43.87Z"/><path class="cls-23" d="M89.44,48a9.31,9.31,0,0,0,3.1-18.09c1.7,2.48,4.64,7.8,1.76,11.57a12.22,12.22,0,0,1-9.8,5.1A9.23,9.23,0,0,0,89.44,48Z"/><path class="cls-14" d="M90.91,29.49A9.32,9.32,0,0,1,86.48,47,8.93,8.93,0,0,1,85,46.88,9.22,9.22,0,0,0,89.44,48a9.31,9.31,0,0,0,1.47-18.51Z"/><path class="cls-9" d="M93.34,40C92,43.76,88.56,46,85.6,44.92s-4.32-4.92-3-8.66,4.77-5.94,7.74-4.91S94.65,36.27,93.34,40Z"/></g><polygon class="cls-18" points="86.4 144.5 88.13 142.45 99 143.76 108.99 142.45 111.65 144.12 99.13 146.05 86.4 144.5"/><polygon class="cls-24" points="88.13 142.45 94.31 141.51 101.2 141.51 108.99 142.45 99 143.76 88.13 142.45"/><polygon class="cls-17" points="94.31 142.64 92.26 142.95 99 143.76 104.52 143.04 101.2 142.64 94.31 142.64"/><polygon class="cls-24" points="101.2 141.51 101.19 141.51 101.09 142.64 104.52 143.04 108.99 142.45 101.2 141.51"/><polygon class="cls-24" points="94.31 141.51 94.31 142.64 92.26 142.95 88.13 142.45 94.31 141.51"/><path class="cls-25" d="M93,142.84l1.35-.23h0q1.69,0,3.39,0c.56,0,1.13,0,1.69,0h1.7q1.27.16,2.55.36l-2.56-.26H97.7q-1.7,0-3.39,0h0Z"/><polygon class="cls-18" points="25.45 148.31 26.84 146.01 37.78 145.65 47.45 142.81 50.33 144.06 38.26 147.88 25.45 148.31"/><polygon class="cls-24" points="26.84 146.01 32.8 144.14 39.61 143.08 47.45 142.81 37.78 145.65 26.84 146.01"/><polygon class="cls-17" points="32.97 145.25 31 145.87 37.78 145.65 43.12 144.08 39.78 144.19 32.97 145.25"/><polygon class="cls-24" points="39.61 143.08 39.6 143.08 39.67 144.21 43.12 144.08 47.45 142.81 39.61 143.08"/><polygon class="cls-24" points="32.8 144.14 32.97 145.25 31 145.87 26.84 146.01 32.8 144.14"/><path class="cls-25" d="M31.66,145.66l1.3-.44h0l3.34-.55,1.68-.26,1.67-.24h0c.85,0,1.71,0,2.57,0l-2.57.13h0l-1.68.27-1.67.26c-1.12.18-2.23.34-3.35.49h0Z"/><polygon class="cls-18" points="136.1 142.04 139.12 138.96 156.37 142.38 172.53 141.48 176.59 144.47 156.31 146.06 136.1 142.04"/><polygon class="cls-24" points="139.12 138.96 149.13 138.2 160.17 139.04 172.53 141.48 156.37 142.38 139.12 138.96"/><polygon class="cls-17" points="148.99 140.01 145.68 140.26 156.37 142.38 165.3 141.88 160.03 140.84 148.99 140.01"/><polygon class="cls-24" points="160.17 139.04 160.16 139.03 159.85 140.83 165.3 141.88 172.53 141.48 160.17 139.04"/><polygon class="cls-24" points="149.13 138.2 148.99 140.01 145.68 140.26 139.12 138.96 149.13 138.2"/><path class="cls-25" d="M146.8,140.17,149,140h0c1.81.1,3.62.23,5.43.36l2.71.21,2.72.22h0c1.34.28,2.69.58,4,.88-1.36-.23-2.71-.47-4.06-.73h0l-2.71-.18-2.72-.2c-1.8-.14-3.61-.29-5.42-.46h0Z"/><g class="cls-26"><path class="cls-27" d="M71.23,151.09a10.07,10.07,0,0,1-2.16,1.32c-1.16.5-8,2.38-12,1.39-3.53-.88.15-1.5,2.06-2.21s6-.25,6-.25Z"/></g><path class="cls-17" d="M71.23,151.09c-3.18,1.77-9.4,2.54-9.4,2.54-3.69.21-4.77-1.12-4.77-1.12.7-1.54,3.45-2.81,3.45-2.81a30.46,30.46,0,0,0,7.15-.8A6.16,6.16,0,0,1,71.23,151.09Z"/><path class="cls-25" d="M67.66,148.9a30.46,30.46,0,0,1-7.15.8,13.94,13.94,0,0,1,4.5-.85C67.86,148.64,67.66,148.9,67.66,148.9Z"/><path class="cls-17" d="M67.82,148.93c.91.58,2.51,1.78,2.06,2.79.48-.2.94-.41,1.35-.63A6.21,6.21,0,0,0,67.82,148.93Z"/><path class="cls-25" d="M63.12,149.34c2.26-.18,2.81-.4,2.86-.55l-1,.06a18.16,18.16,0,0,0-3.62.56C61.87,149.41,62.44,149.39,63.12,149.34Z"/><path class="cls-18" d="M69,152c-2.85,1-8,1.26-9.34.11-.84-.73-.32-1.57.18-2.11a6.93,6.93,0,0,0-2.81,2.48s1.08,1.33,4.77,1.12A41.61,41.61,0,0,0,69,152Z"/><g class="cls-26"><path class="cls-27" d="M204.45,153.46a9.94,9.94,0,0,1-2.43.7c-1.26.18-8.32.19-11.92-1.83-3.17-1.77.53-1.4,2.56-1.58s5.9,1.35,5.9,1.35Z"/></g><path class="cls-17" d="M204.45,153.46c-3.54.87-9.73,0-9.73,0-3.63-.77-4.31-2.33-4.31-2.33,1.08-1.31,4.07-1.8,4.07-1.8a30.5,30.5,0,0,0,7.1,1.11A6.12,6.12,0,0,1,204.45,153.46Z"/><path class="cls-25" d="M201.58,150.4a30.5,30.5,0,0,1-7.1-1.11,13.81,13.81,0,0,1,4.56.36C201.84,150.21,201.58,150.4,201.58,150.4Z"/><path class="cls-17" d="M201.74,150.48c.72.8,1.94,2.37,1.24,3.23a12.14,12.14,0,0,0,1.47-.25A6.22,6.22,0,0,0,201.74,150.48Z"/><path class="cls-25" d="M197.09,149.63c2.22.42,2.82.36,2.91.22l-1-.2a19,19,0,0,0-3.64-.42A17.18,17.18,0,0,0,197.09,149.63Z"/><path class="cls-18" d="M202.08,153.79c-3,.17-8.05-.91-9-2.37-.61-.92.11-1.6.74-2a6.86,6.86,0,0,0-3.37,1.66s.68,1.56,4.31,2.33A42,42,0,0,0,202.08,153.79Z"/><polygon class="cls-18" points="45.99 138.2 52.85 139.96 63.05 140.9 70.71 143.04 82.08 145.75 73.71 142.23 65.98 139.96 60.51 139.38 54.91 138.2 55.1 137.21 45.99 138.2"/><polygon class="cls-18" points="151.17 160 143.69 158.07 137.68 155 127.56 152.86 120.19 152.86 128.06 151.56 137.3 153.71 143.05 153.92 145.17 150.73 150.54 149.82 164.41 149.82 176.59 150.36 167.66 150.73 158.29 150.73 148.39 151.56 146.79 154.24 152.67 156.28 161.92 160 151.17 160"/><path class="cls-18" d="M108.28,136.47h8.58l10.16-.64h6.66l6.16.32-6.41.32h-5.5l-5.16,1.11,4,2.36,5.33.65a33.39,33.39,0,0,1-5.25,0,11.83,11.83,0,0,1-2.79-1.63l-5-1.66-3.08-.09-5.66.09h-3.27L99.53,139l6.16-2.21Z"/><path class="cls-18" d="M250,148.9v6l-7-2.43-5.25-1.75h-8.42l-7.78.9-8.84,3.28,3.4-2.43,7.43-2.66-4.4-.92-8.79-2.36s-4.77-1-4.92-1.06-6.79,0-6.79,0l5.81-1.11-1.82-1.86-5.33-.88-11-1.37-4.87-.35,14.84-.09,7.63,1.31,3.14,2.65,2.26.84,5.62,1.13,4.86,1.07,6.5-.28-1.88-1.79,5.38-.69,4.43.63h-4.56l-2.2.79,1.7,1.43L226.94,148v1.23h3.69l2.5-.33h3.5l4.81-1,3.25,1.88,1.87,1.3Z"/><polygon class="cls-18" points="0.11 147.47 0.11 152.03 8.08 149.82 16.99 149.23 22.23 149.43 19.99 148.31 15.99 147.47 17.99 146.01 22.74 145.56 28.61 143.2 33.61 142.45 26.84 142.45 24.24 143.2 21.75 145.08 17.17 145.08 15.49 146.01 14.52 147.47 10.66 148.31 7.01 148.31 3.83 148.31 0.11 147.47"/><ellipse class="cls-28" cx="214.16" cy="31.65" rx="19.98" ry="19.99" transform="translate(-0.04 0.26) rotate(-0.07)"/><ellipse class="cls-29" cx="214.16" cy="31.65" rx="19.04" ry="19.05" transform="translate(-0.04 0.27) rotate(-0.07)"/><path class="cls-30" d="M230.9,29.65c.7.14,1.41.44,2.25.59a19.2,19.2,0,0,0-1.59-6.34,9.12,9.12,0,0,1-1.5,1c-1.63.76-1.2.62-2.61-.86s-4.16-1.2-3.95.35-1.76.5-2.12-.95-2.18-1.45-3.45-3.21-4-1.13-5.29-2-4.3.63-1.41,1.41,2.25,1.62,1.62,3-.63,3.46,1.62,5.29-.84.71-1.13,2.82-4.3.5-5.92-1.76-1.76.28-5,0-3.24.56-3.24-1.9c0-1.75-1.65-2.5-2.62-2.8A19.07,19.07,0,0,0,207,49.29a18.82,18.82,0,0,1,.87-2c.64-1.26,3.32-.16,4.3-2.56s2.68-2,3.11.07,2.89,3.74,4.16,3.54.77-4.1.77-5.37,2.33-1,2.54-2.68,1.91-1.41,3.25-.35-.14,1.69-.22,5.22a7.18,7.18,0,0,0,.13,1.55A19.15,19.15,0,0,0,230.76,41a11.52,11.52,0,0,1-1-2c-.76-2.39,1.06-2.33.78-5.22S229.77,29.44,230.9,29.65Z"/><path class="cls-31" d="M203.77,21.49a1.33,1.33,0,0,0,1.48,0c.95-.48,1.38.16.58,1.11s-1.27.9-.82,2.17-1.77,2.43-2.46,1.48-.37-1.22-1.64-1.75-2.22-2.59,0-2.11S201.92,20.75,203.77,21.49Z"/><path class="cls-31" d="M208.48,23.48s2.11-.53,1.83.92-.56,1,.64,1.8,1.79,2.29.38,1.83-1-.88-2.18-.32-2.15-.18-1.62-1.11S206.36,23.73,208.48,23.48Z"/><path class="cls-31" d="M215.57,15.44c.78-.08.59.92,1.62.92s.95.67,1.37,1.23,0,1.87-.81,1-1.44-1.51-2.18-1.09-2.44-.35-2.79-.67-3.35-.81-3.95-.07-2.93,1.2-2.29.14,1.23-2.22,3-2,2.19.9,2.79,0,1.87-1,2-.5S214.23,15.58,215.57,15.44Z"/><path class="cls-31" d="M221.81,16.49s2.61-.73,2.89,1,1.48,2.19,2.32,2.82-2.89,1.13-3.66,0-1.7-.7-2.68-.7S220.4,16.31,221.81,16.49Z"/><path class="cls-31" d="M217.49,25.21s.75-1.49,1.24,0-.09,1.41,1.49,2,3.46,2.19,2.75,2.58-2.11-1.53-3.37-.84-1.48.45-1.72-1.35S215.3,26.7,217.49,25.21Z"/><path class="cls-31" d="M205.27,31.77c-.09,1.4,1.64-.69,2.58,1s1.57,1.57,3.22,1.57,2.56-.24,1.08.7-.61-.39-3.9,0-4.78,3.37-5.72,1.41,1.41-3.14-2.27-2.74-5.1-2.77-2-3.15a11,11,0,0,1,4.62,0C204.8,30.77,205.35,30.57,205.27,31.77Z"/><path class="cls-31" d="M206.25,40A1.74,1.74,0,0,1,204,38.84c-.4-1.17-1.49-.62-3.61-.7s-.92-.79-1.49-1.06c-2.74-1.35-2.82-.87-2.86.49a19.05,19.05,0,0,0,7.33,9.79,17.2,17.2,0,0,0,.47-2.09c.55-3.29,2.66.47,3.52-2.66S206.84,39.71,206.25,40Z"/><path class="cls-31" d="M212.58,37.43s2.09,1.17,3.26-.35,0-3.17,1.73-2.47,1.72.94,3.44.24,4.24-.37,2.67,1.3-3-.37-3.84,1.71.08,4.2-2.19,3.49-4.18-2.43-4.76-1.41S209.31,37.79,212.58,37.43Z"/><path class="cls-31" d="M225.72,31.08s-.87-2.35,0-2.42,1.46-1.71,1.82-.3-.56,1.2.55,1.92,1.33.84.53,1.84S225.57,32.81,225.72,31.08Z"/><path class="cls-14" d="M217.17,12.84a19.05,19.05,0,0,1-9.06,35.81,19.83,19.83,0,0,1-3-.24,19,19,0,1,0,12.07-35.57Z"/><ellipse class="cls-9" cx="211.14" cy="30.52" rx="14.7" ry="11.65" transform="translate(112.84 219.85) rotate(-70.79)"/><g class="cls-32"><ellipse class="cls-33" cx="214.16" cy="31.65" rx="27.67" ry="27.69"/></g><path class="cls-10" d="M206,29.47A119.35,119.35,0,0,0,187.23,29c-14.75.71-5.81,22.13-35.76,15.5S117.83,10.78,83.65,28.7,53.5,55.82,24.83,40.45C17.74,36.65,9.18,31.85,0,26.91v34c15.16-10.44,35,13.33,53.17,5.58,19-8.09,12.47-17.89,32.15-19.74s26.77-11.28,40.06-3S165,60.33,171,52s11.31-19.39,17.37-19.32,21.89-2.56,21.89-2.56S208.8,29.79,206,29.47ZM27.9,57.67c-6.74-3.17-16.41-13.45-9.74-15.34,0,0,7-.66,8.68,4s-1.19,4.84,5.48,6S34.64,60.83,27.9,57.67Zm13.75,2a16.92,16.92,0,0,1,1.16-5.5s3.17-5.17,6-3-.24,3.33,1.38,8.5S41.65,62.33,41.65,59.67Zm75.62-21.53c-6.83-2.81-14.15,2.07-15,.55s1.18-4.91,5.33-6c0,0,6.16-2.65,9.16,0s1.83,4.13,7.17,4.39S124.1,40.94,117.27,38.14Z"/><path class="cls-10" d="M206.54,16.92s-7.39,5.16-5.77,10.87-.69,5.85-5.65,14-18.91,8.87-18.55,19.43-15.9,24.06-30.89,26.66S105,90.79,99.53,102s-20.66,20.68-31.87,29.49-34,5-45.91,12.29,36.39,9.1,69,5.17,38.24-10,45.31-23.84.22-27.95,20.25-29.84,16.56,4.53,25.06-12.73S176,62.75,187.93,53.75s17.68-3.6,18.32-16.67S206.54,16.92,206.54,16.92Zm-78.11,90.52c-9,2.06-19.4-1-19.44,4.55s-10.93,13.39-7.9,5.43c0,0,1.26-11.65,10.56-12.29s21.13-11,24.45-7.82S137.43,105.38,128.43,107.44ZM179.81,67a5.16,5.16,0,0,1-1.07-3.83c.42-2-.52-2.59,1.07-3.84s1.43.59,1.18,2.75a21.46,21.46,0,0,0,.16,6C181.41,68.92,179.81,67,179.81,67Z"/><g class="cls-34"><ellipse class="cls-35" cx="172.53" cy="86.57" rx="15.41" ry="15.4" transform="translate(85.69 258.97) rotate(-89.91)"/><path class="cls-36" d="M187.93,86.57a15.42,15.42,0,0,0-19.71-14.79h0s5.56-.37,5.79,2.66,1.56,4.61-.75,5.58-2.94.79-3.17,3-1.2,4.14-3.88,3.7-5.08,2.68-5.82-.1c-.45-1.67-2-2.4-2.84-3.56a15.4,15.4,0,1,0,30.38,3.56Z"/><path class="cls-37" d="M175.1,71.38c.71,1.16,4,6.71,2.54,8.88-1.58,2.44.37,4.54-3.28,6.41s.46,3-4.27,3.08-1,2.56-5.7,2.07c-2.57-.26-4.68-.35-6.51-.51A15.4,15.4,0,1,0,175.1,71.38Z"/><path class="cls-38" d="M176.92,71.81c.77,2.15,2.62,7,4.13,7.66,1.94.92,1,5.45,0,7.2s-2.69,1.07-3,4.21.43,5.81-2.61,5.69-4.61-.71-6,0-1,2.55-4.29.55c-2.22-1.38-4.54-2.9-6.22-3.25a15.4,15.4,0,1,0,17.94-22.06Z"/><path class="cls-14" d="M175,71.36a15.41,15.41,0,0,1-7.32,29,16.39,16.39,0,0,1-2.44-.19A15.41,15.41,0,1,0,175,71.36Z"/><path class="cls-39" d="M158.32,80.64c1.34.86,3.58,1,3.68,0,.16-1.62,2.1-.49,2.18,1.87s2.68.32,2.31-3.07.86-1.72,3,0,1.87-1.8,2-3.26-1.13-1.06-3.57-1.18-1-2.78-1-2.79A15.43,15.43,0,0,0,158.32,80.64Z"/><ellipse class="cls-9" cx="170.09" cy="85.66" rx="11.89" ry="9.42" transform="translate(33.23 218.08) rotate(-70.79)"/></g><path class="cls-10" d="M97.79,34.62A10,10,0,0,1,98.36,36c7.5-.86,12.76-.95,12.9-.09.19,1.19-9.7,3.79-22.1,5.8S66.57,44.39,66.38,43.2c-.15-.91,5.55-2.64,13.77-4.3a10.09,10.09,0,0,1,.09-1.48c-15,2.81-26,6-25.76,7.7.32,2,15.94,1.05,34.9-2s34.09-7.15,33.77-9.1C122.89,32.37,112.18,32.71,97.79,34.62Z"/><path class="cls-17" d="M89.11,72.46a4.55,4.55,0,0,1,1.74-3.07,8.22,8.22,0,0,1,4.44-1.8c3.41-.2,7.59,3,14.18,1.53s10-.81,12.24,4.3,3.55,14.27-6.61,14.37-5.56,5.09-12.54,4.6S98,90,96.33,88.21s-8.46-.73-9.2-4.46,1.63-5,1.93-7C89.28,75.16,88.9,74.16,89.11,72.46Z"/><path class="cls-15" d="M96.7,68.41c0,.19-.22.44-.72.71-1.56.85-2.62,1.91-4,2.55-1,.42-1.9.85-2.18.58s-.11-.46.2-1.07a7.19,7.19,0,0,1,3.91-2.85C95.6,67.86,96.68,68,96.7,68.41Z"/><path class="cls-15" d="M120.37,73.93c-.37.2-2.3-2.3-4.35-2.63s-3.75-1-3.66-1.58c0-.22.32-.43.94-.6,0,0,5.44-.75,6.78,3.22C120.44,73.41,120.51,73.86,120.37,73.93Z"/><path class="cls-15" d="M93.38,86.3a6.26,6.26,0,0,1-2.2-.25c-5-.94-3-5.81-3-5.81.16-.37.36-.57.59-.61h0c.65-.11,1.47,1.1,1.87,3.15S93.7,86.06,93.38,86.3Z"/><path class="cls-15" d="M105.13,91.67a12,12,0,0,1-6.35-.52,1.83,1.83,0,0,1-1.08-1.56c-.12-.24-.06-.35.11-.38.72-.11,3.54,1.23,5.42,1.35,1.45.09,2.52.3,2.7.57S105.81,91.48,105.13,91.67Z"/><path class="cls-18" d="M103.11,91.74A11.22,11.22,0,0,1,98.85,91a1.68,1.68,0,0,1-1-1.42v-.07a.28.28,0,0,1,0-.16h0a.24.24,0,0,1,.12,0,8.62,8.62,0,0,1,1.87.5,15.3,15.3,0,0,0,3.44.85c2,.13,2.55.42,2.59.51h0s-.08.14-.72.32a7.73,7.73,0,0,1-2,.21Z"/><path class="cls-15" d="M94.55,76.73S95.76,74,97.64,73.4s4.8-2.3,4.16-.37-2.11,2.75-4.16,5.35S93.21,80.06,94.55,76.73Z"/><path class="cls-18" d="M95.31,79.73a.9.9,0,0,1-.78-.39,2.94,2.94,0,0,1,.16-2.55s1.2-2.68,3-3.24c.45-.15,1-.36,1.47-.56a8,8,0,0,1,2.23-.7c.16,0,.26,0,.31.1s.08.23,0,.6a8.1,8.1,0,0,1-2.11,3c-.59.63-1.27,1.34-2,2.31A3.24,3.24,0,0,1,95.31,79.73Z"/><path class="cls-15" d="M105.13,78.16c.27-.26,3.15-2.07,5.15-2.15a17.43,17.43,0,0,1,6.53.72c1.93.76-.52,2.09-4.15,2.09S103.39,79.79,105.13,78.16Z"/><path class="cls-18" d="M106.48,79c-1.28,0-1.49-.19-1.52-.26s0-.15.27-.44,3.1-2,5.06-2.1l1.33,0a14.61,14.61,0,0,1,5.14.74c.23.09.62.28.58.53-.1.53-1.93,1.28-4.68,1.28-1,0-2.22.07-3.36.15S107.27,79,106.48,79Z"/><path class="cls-15" d="M99.37,83s4.83-1.19,8.31.67.08,2.6-3.63,1.93S97.89,83.72,99.37,83Z"/><path class="cls-18" d="M106.61,85.67a14.31,14.31,0,0,1-2.54-.24c-3.14-.56-4.91-1.41-5-1.92,0-.16.17-.3.34-.39a16.46,16.46,0,0,1,3.42-.36,10.11,10.11,0,0,1,4.77,1c1.35.72,1.41,1.13,1.37,1.27C108.9,85.36,108.14,85.67,106.61,85.67Z"/><path class="cls-18" d="M99.74,77.54l3.11-1a15.21,15.21,0,0,1,2.28-1,9.72,9.72,0,0,0,1.84-.94c.49-.25,1.48-.57,1.33-.83s-1-.91-1.14-1.15-.84-1.79-.84-1.79.35-.59.6-.67,1.18-.56,1.18-.56l0-.27a16.39,16.39,0,0,1-5.39-.19l0,0,2.42,1.89.83,2.69s-1.49,1-1.93,1.37S99.74,77.54,99.74,77.54Z"/><path class="cls-18" d="M121.89,85.06h-2.26a16.15,16.15,0,0,1-2.92-.2,22.91,22.91,0,0,1-2.42-1.18c-.1-.2-1.39-1.49-1.54-1.69a21.71,21.71,0,0,0-2.07-1.33h-4.46l4.16.84,1.48,2,1.24,1.58v.61l-1.43.52-1.64.15-1.71.65-.61.4,2.92-.6,1.72-.14,2.23-.46.7-.52,2.06.15a2.88,2.88,0,0,0,1.6.37,7.4,7.4,0,0,1,1.83,0A5.45,5.45,0,0,0,121.89,85.06Z"/><path class="cls-18" d="M122.94,77.27c-.09-.44-.2-.87-.32-1.3l-3.43-.36-1.85-.94c-.48-.25-4.24-2.53-4.24-2.53l3,2.77,2,1.07,1.68.52,1.29.69.05,1.77a9.2,9.2,0,0,1-.83.41c-.16,0-1.7.36-1.7.36l-1.1,2,1.65-1.29,1.3-.41,1.62-.12v-1.5s-.2-.63.09-.84A4.22,4.22,0,0,1,122.94,77.27Z"/><path class="cls-18" d="M102.81,87l-2.23-.7-1.5-.15L98,85l-.85-1.68L98,82.14l.68-1.24,2.58-.64.61-.53.47-1.25-1.28,1.29H99.5l-2.23.64-.57,1H94.31c-.54,0-.65-1.14-.65-1.14l-.45-1.78-1.14-.94-1.51-.2-1.5-.61a4.71,4.71,0,0,1-.64,1.64l1.25.11,1.76.48.94.66-.2,1.68V83l1.78.25,1.59.3.29,1.23.55,1.06L97.32,87h5.49Z"/><path class="cls-18" d="M98.7,69.42a5.39,5.39,0,0,1-1.06.76,15.07,15.07,0,0,1-1.81.81c-.29,0-1,.93-1,.93l-.49,1.87.68-1.2s2.13-1.24,2.65-1.49a9.07,9.07,0,0,0,1-.64c.2-.1,1.34-.6,1.34-.6l1-1.1c-.68-.18-1.32-.37-1.93-.54A12.15,12.15,0,0,1,98.7,69.42Z"/><path class="cls-40" d="M95.91,70c-.26.42-2.88,2-3.48,2.54s-2.47.53-2.61,1a2.11,2.11,0,0,0-.07-1.28c.28.27,1.23-.16,2.18-.58,1.43-.64,2.49-1.7,4-2.55.5-.27.73-.52.72-.71a1.16,1.16,0,0,0,.59.3C97.8,68.82,96.17,69.58,95.91,70Z"/><path class="cls-41" d="M90.1,73.76h-.3v-.12l-.09.09-.09-.09.06-.07s0,0,0,0v0l0,0,.29-.29-.08.45Z"/><path class="cls-42" d="M96.7,68.41a.32.32,0,0,1-.08-.09"/><path class="cls-18" d="M90,72.19a.22.22,0,0,1-.18-.06c0-.06-.08-.26.24-.89a7.17,7.17,0,0,1,3.81-2.77,7.42,7.42,0,0,1,1.84-.29c.6,0,.8.15.82.22s-.09.3-.64.59A18.19,18.19,0,0,0,94,70.23a13.77,13.77,0,0,1-2.12,1.31A6.42,6.42,0,0,1,90,72.19Z"/><path class="cls-40" d="M120.67,74.83a6.14,6.14,0,0,1-2.43-1.48c-.52-.64-1.78-.5-2.73-1.06a13.06,13.06,0,0,0-2.78-1.07c-.63-.21-2-.93-1.43-1a2.49,2.49,0,0,0,1.06-.51c-.09.59,1.61,1.26,3.66,1.58s4,2.83,4.35,2.63C120.33,74.32,121.53,75.17,120.67,74.83Z"/><path class="cls-18" d="M120.29,73.79a5.29,5.29,0,0,1-.82-.63,7.78,7.78,0,0,0-3.43-2c-2.16-.34-3.52-1-3.54-1.38,0-.17.3-.36.84-.5h0a7.83,7.83,0,0,1,1-.06c1.69,0,4.67.42,5.6,3.17A4.67,4.67,0,0,1,120.29,73.79Z"/><path class="cls-40" d="M93.38,86.3c.32-.24-2.35-1.54-2.74-3.52s-1.22-3.26-1.87-3.15c.08,0,.7-.2.68-.67s.56.24,1.14,1.42.82,2.75,1.61,3.25,1.56,2.35,2.3,2.71S93.38,86.3,93.38,86.3Z"/><path class="cls-18" d="M93.15,86.19a13.43,13.43,0,0,1-1.94-.28,3.84,3.84,0,0,1-2.89-1.81,5,5,0,0,1,0-3.81c.11-.23.29-.52.55-.52.51,0,1.26,1.07,1.64,3a5.76,5.76,0,0,0,2.24,3c.18.15.38.32.48.42Z"/><path class="cls-40" d="M105.93,91.13c-.18-.27-1.25-.48-2.7-.57-1.88-.12-4.7-1.46-5.42-1.35a1.18,1.18,0,0,0-.17-.93c-.32-.45,3.44,1,4.38.92s3.71,1.26,4.7.91S105.93,91.13,105.93,91.13Z"/><path class="cls-14" d="M121.71,73.42c-2.23-5.11-5.64-5.73-12.24-4.3l-.33.06c2,2.35,5.45,6.73,5.08,9.26-.52,3.58.25,5.87-4,4.54s-10.27-.39-11.4,1.15c-1,1.3-6.15.92-9.11,2.1,2.35.85,5.59.8,6.65,2,1.63,1.81-.74,3.68,6.23,4.18s2.38-4.51,12.54-4.6S123.94,78.53,121.71,73.42Z"/><g class="cls-43"><path class="cls-41" d="M108.18,74.59c-.09-1.12-1.83-3.56-3-5.13-4.21-.23-7.25-2-9.85-1.87a8.22,8.22,0,0,0-4.44,1.8,4.55,4.55,0,0,0-1.74,3.07c-.21,1.7.17,2.7,0,4.27-.26,1.76-2,2.9-2.07,5.49a13.42,13.42,0,0,0,7.67-4c1.88-2.41,3.52-1.8,9.19-.69S108.33,76.32,108.18,74.59Z"/><path class="cls-41" d="M86.86,82.36v-.14a6.83,6.83,0,0,1,1.21-3.5,5.57,5.57,0,0,0,.86-2,8.67,8.67,0,0,0,0-2.09,11.44,11.44,0,0,1,0-2.18,4.7,4.7,0,0,1,1.79-3.15,8.36,8.36,0,0,1,4.51-1.84,13.66,13.66,0,0,1,4.27.77,24.45,24.45,0,0,0,5.6,1.11h0l0,0c1.35,1.75,3,4.07,3.07,5.19h0c0,.22,0,.46.09.7.13.81.26,1.64-.3,2.17s-2,.67-4.27.22l-1.47-.3c-4.45-.89-5.94-1.19-7.6.94a13.48,13.48,0,0,1-7.76,4Zm8.75-14.65H95.3a8.14,8.14,0,0,0-4.38,1.78,4.5,4.5,0,0,0-1.69,3,10.92,10.92,0,0,0,0,2.13,9.09,9.09,0,0,1,0,2.14,5.65,5.65,0,0,1-.9,2.1,6.62,6.62,0,0,0-1.16,3.23,13.43,13.43,0,0,0,7.44-3.93c1.76-2.25,3.29-1.94,7.84-1l1.48.29c2.18.43,3.5.38,4.05-.15s.34-1.21.22-2c0-.24-.07-.49-.09-.72h0c-.07-.82-1.13-2.6-3-5a24.45,24.45,0,0,1-5.6-1.11A14.8,14.8,0,0,0,95.61,67.71Z"/></g><path class="cls-17" d="M31.26,13.65a3.18,3.18,0,0,1,1.21-2.14,5.65,5.65,0,0,1,3.09-1.25c2.37-.14,5.28,2.05,9.87,1.06s7-.56,8.51,3,2.47,9.93-4.6,10-3.87,3.54-8.72,3.2-3.2-1.65-4.34-2.91-5.88-.51-6.4-3.1,1.14-3.44,1.34-4.88C31.38,15.52,31.12,14.83,31.26,13.65Z"/><path class="cls-15" d="M36.54,10.83c0,.13-.15.31-.5.49-1.08.59-1.82,1.33-2.82,1.78-.66.29-1.32.59-1.51.4s-.08-.32.13-.75a5,5,0,0,1,2.72-2C35.78,10.44,36.52,10.55,36.54,10.83Z"/><path class="cls-15" d="M53,14.67c-.26.14-1.6-1.6-3-1.83s-2.61-.69-2.55-1.1c0-.15.23-.3.66-.42,0,0,3.78-.52,4.71,2.24C53.05,14.31,53.11,14.62,53,14.67Z"/><path class="cls-15" d="M34.23,23.27c-.09.07-.52,0-1.53-.17-3.51-.65-2.1-4.05-2.1-4.05.12-.25.26-.39.42-.41h0c.46-.07,1,.77,1.3,2.2S34.45,23.1,34.23,23.27Z"/><path class="cls-15" d="M42.4,27A8.31,8.31,0,0,1,38,26.65a1.27,1.27,0,0,1-.75-1.09c-.08-.16-.05-.24.07-.26.51-.08,2.47.85,3.77.93a3.81,3.81,0,0,1,1.88.4C43,26.75,42.88,26.88,42.4,27Z"/><path class="cls-18" d="M41,27.06a8,8,0,0,1-3-.5,1.17,1.17,0,0,1-.69-1v-.05c0-.08,0-.11,0-.11h.08a6.38,6.38,0,0,1,1.3.34,10.81,10.81,0,0,0,2.4.6c1.38.08,1.77.29,1.8.35h0a1.17,1.17,0,0,1-.5.22,5.28,5.28,0,0,1-1.38.15Z"/><path class="cls-15" d="M35,16.62s.85-1.9,2.15-2.32,3.35-1.6,2.9-.26-1.47,1.92-2.9,3.72S34.11,18.94,35,16.62Z"/><path class="cls-18" d="M35.57,18.71a.63.63,0,0,1-.54-.28,2,2,0,0,1,.11-1.77S36,14.8,37.23,14.4c.31-.1.67-.25,1-.39a5.61,5.61,0,0,1,1.56-.48.29.29,0,0,1,.21.06c0,.05,0,.17,0,.42a5.6,5.6,0,0,1-1.47,2.09c-.41.43-.88.93-1.41,1.6A2.24,2.24,0,0,1,35.57,18.71Z"/><path class="cls-15" d="M42.4,17.61A8.38,8.38,0,0,1,46,16.12a12.06,12.06,0,0,1,4.54.5c1.34.52-.36,1.45-2.89,1.45S41.2,18.74,42.4,17.61Z"/><path class="cls-18" d="M43.34,18.17c-.89,0-1-.13-1.05-.19s0-.1.19-.3A8.43,8.43,0,0,1,46,16.22l.93,0a9.9,9.9,0,0,1,3.57.52c.17.06.44.19.41.36-.07.37-1.35.89-3.26.89-.72,0-1.54.05-2.34.1S43.89,18.17,43.34,18.17Z"/><path class="cls-15" d="M38.4,21s3.35-.82,5.78.47,0,1.81-2.53,1.34S37.37,21.48,38.4,21Z"/><path class="cls-18" d="M43.43,22.84a10,10,0,0,1-1.76-.17c-2.19-.39-3.42-1-3.47-1.34,0-.11.11-.21.23-.27a11.35,11.35,0,0,1,2.38-.25,7.06,7.06,0,0,1,3.32.71c.94.5,1,.79.95.89S44.5,22.84,43.43,22.84Z"/><path class="cls-18" d="M38.66,17.18l2.16-.69a10.11,10.11,0,0,1,1.58-.69,5.94,5.94,0,0,0,1.28-.65c.35-.18,1-.4.93-.58s-.72-.63-.79-.8-.59-1.24-.59-1.24.25-.42.42-.47.82-.39.82-.39l0-.19a11.49,11.49,0,0,1-3.75-.13l0,0L42.4,12.7,43,14.57s-1,.68-1.34.95S38.66,17.18,38.66,17.18Z"/><path class="cls-18" d="M54.06,22.41H52.49a11.14,11.14,0,0,1-2-.14,13.21,13.21,0,0,1-1.68-.82c-.07-.14-1-1-1.07-1.17a15.43,15.43,0,0,0-1.45-.93H43.17l2.89.58,1,1.38.86,1.1v.43l-1,.36-1.13.1-1.2.45L44.2,24l2-.41,1.2-.11L49,23.2l.48-.36,1.44.1A2.05,2.05,0,0,0,52,23.2a5,5,0,0,1,1.27,0A3.88,3.88,0,0,0,54.06,22.41Z"/><path class="cls-18" d="M54.79,17a8.45,8.45,0,0,0-.22-.9l-2.39-.26-1.28-.65C50.56,15,48,13.42,48,13.42l2.1,1.93,1.38.75,1.17.35.89.49,0,1.23a5.07,5.07,0,0,1-.57.28c-.11,0-1.18.26-1.18.26L51,20.07l1.15-.9.9-.28,1.13-.08v-1s-.14-.43.07-.58A2.54,2.54,0,0,1,54.79,17Z"/><path class="cls-18" d="M40.79,23.79l-1.55-.49-1-.1-.74-.82-.59-1.17.59-.83.47-.86,1.79-.45.43-.36.33-.88-.89.9H38.48l-1.54.44-.4.69H34.88c-.38,0-.46-.79-.46-.79l-.31-1.24-.79-.65-1-.14-1.05-.42a3.25,3.25,0,0,1-.44,1.14l.87.07,1.23.34.65.46-.14,1.16V21l1.24.18,1.1.2.21.87.38.73.65.85h3.82Z"/><path class="cls-18" d="M37.93,11.53a3.48,3.48,0,0,1-.74.53,9.75,9.75,0,0,1-1.25.56c-.21,0-.72.65-.72.65l-.34,1.3.47-.84s1.48-.86,1.84-1a5.8,5.8,0,0,0,.71-.45l.93-.41.68-.77-1.34-.37A6.82,6.82,0,0,1,37.93,11.53Z"/><path class="cls-40" d="M36,11.93c-.18.3-2,1.42-2.42,1.77s-1.71.37-1.81.69a1.53,1.53,0,0,0-.05-.89c.19.19.85-.11,1.51-.4,1-.45,1.74-1.19,2.82-1.78.35-.18.51-.36.5-.49A.84.84,0,0,0,37,11C37.31,11.12,36.17,11.64,36,11.93Z"/><path class="cls-41" d="M32.1,14.59h-.36v-.12l-.08.09,0,0v-.06h0v-.13l0,0L32,14l-.07.4Z"/><path class="cls-42" d="M36.54,10.83l-.06-.07"/><path class="cls-18" d="M31.9,13.46a.14.14,0,0,1-.13-.05s-.06-.17.16-.61a5,5,0,0,1,2.66-1.93,5.21,5.21,0,0,1,1.28-.2c.41,0,.55.1.56.15s-.06.21-.44.41a12.73,12.73,0,0,0-1.33.86,8.8,8.8,0,0,1-1.48.91A4.36,4.36,0,0,1,31.9,13.46Z"/><path class="cls-40" d="M53.21,15.3a4.5,4.5,0,0,1-1.69-1c-.36-.45-1.24-.35-1.89-.74a9.3,9.3,0,0,0-1.94-.75c-.44-.14-1.35-.65-1-.69a1.66,1.66,0,0,0,.73-.35c-.06.41,1.12.87,2.55,1.1s2.77,2,3,1.83C53,14.94,53.81,15.53,53.21,15.3Z"/><path class="cls-18" d="M53,14.57a3.12,3.12,0,0,1-.57-.44A5.34,5.34,0,0,0,50,12.74c-1.51-.24-2.45-.69-2.47-1,0-.12.21-.25.58-.36h0s.29,0,.7,0c1.18,0,3.25.28,3.89,2.2A2.93,2.93,0,0,1,53,14.57Z"/><path class="cls-40" d="M34.23,23.27c.22-.17-1.64-1.07-1.91-2.44s-.84-2.27-1.3-2.2c.06,0,.49-.14.48-.46s.39.16.79,1,.57,1.91,1.12,2.25,1.08,1.64,1.6,1.89S34.23,23.27,34.23,23.27Z"/><path class="cls-18" d="M34.07,23.2a9.71,9.71,0,0,1-1.35-.2,2.7,2.7,0,0,1-2-1.25,3.53,3.53,0,0,1,0-2.66c.07-.16.2-.36.38-.36.35,0,.87.74,1.14,2.12a4,4,0,0,0,1.56,2c.12.11.26.22.33.3Z"/><path class="cls-40" d="M43,26.63a3.81,3.81,0,0,0-1.88-.4c-1.3-.08-3.26-1-3.77-.93a.79.79,0,0,0-.12-.65c-.22-.31,2.4.68,3.05.64s2.58.88,3.27.63S43,26.63,43,26.63Z"/><path class="cls-14" d="M53.94,14.31c-1.55-3.55-3.93-4-8.51-3l-.23,0C46.61,13,49,16.05,48.73,17.81c-.36,2.48.17,4.08-2.8,3.15s-7.15-.27-7.94.8c-.66.91-4.27.65-6.34,1.47,1.64.58,3.9.55,4.63,1.37,1.14,1.26-.51,2.56,4.34,2.91s1.65-3.14,8.72-3.2S55.49,17.87,53.94,14.31Z"/><g class="cls-43"><path class="cls-41" d="M44.53,15.13c-.07-.78-1.28-2.48-2.12-3.57-2.93-.16-5-1.41-6.85-1.3a5.65,5.65,0,0,0-3.09,1.25,3.18,3.18,0,0,0-1.21,2.14c-.14,1.18.12,1.87,0,3s-1.39,2-1.44,3.82a9.36,9.36,0,0,0,5.34-2.78c1.31-1.68,2.45-1.25,6.4-.48S44.63,16.33,44.53,15.13Z"/><path class="cls-41" d="M29.66,20.57v-.14A4.84,4.84,0,0,1,30.5,18a3.82,3.82,0,0,0,.6-1.38,6.36,6.36,0,0,0,0-1.44,7.2,7.2,0,0,1,0-1.53,3.33,3.33,0,0,1,1.25-2.22,5.89,5.89,0,0,1,3.16-1.28,9.33,9.33,0,0,1,3,.54,17.85,17.85,0,0,0,3.89.77h0l0,0c.94,1.23,2.08,2.85,2.14,3.64h0c0,.15,0,.32.07.48.09.57.18,1.16-.22,1.55s-1.4.47-3,.16l-1-.21c-3.16-.63-4.11-.83-5.25.64a9.42,9.42,0,0,1-5.43,2.82Zm6.12-10.19h-.21a5.64,5.64,0,0,0-3,1.23,3.11,3.11,0,0,0-1.16,2.05,7.35,7.35,0,0,0,0,1.48,6.9,6.9,0,0,1,0,1.5,4.15,4.15,0,0,1-.63,1.47,4.62,4.62,0,0,0-.81,2.19A9.31,9.31,0,0,0,35,17.58c1.24-1.58,2.31-1.37,5.5-.72l1,.2c1.5.3,2.41.26,2.79-.09s.22-.8.14-1.33c0-.17,0-.34-.07-.5h0a9.93,9.93,0,0,0-2-3.46,17.73,17.73,0,0,1-3.89-.77A10.46,10.46,0,0,0,35.78,10.38Z"/></g><path class="cls-17" d="M249.87,96.9l-.13.08v19.28a9.88,9.88,0,0,1-4,.36c-9.43-.67-6.22-3.21-8.43-5.65a1.87,1.87,0,0,0-.36-.32,3.13,3.13,0,0,0-.3-.2l-.43-.22a6,6,0,0,0-.56-.22,12.14,12.14,0,0,0-1.42-.38l-.59-.13c-1.09-.22-2.29-.41-3.44-.67l-.08,0-1-.25-.47-.15-.34-.11c-1.73-.62-3.11-1.59-3.46-3.37a9.17,9.17,0,0,1-.19-2.06,5.66,5.66,0,0,1,0-.6.77.77,0,0,1,0-.15c0-.15,0-.29.06-.43l0-.16c0-.15.07-.3.11-.44a7.51,7.51,0,0,1,.36-1c.07-.16.14-.32.22-.47.28-.59.61-1.12.92-1.65.06-.1.12-.19.17-.29a.6.6,0,0,0,.06-.11.65.65,0,0,0,.09-.16c.05-.09.1-.17.14-.26s0,0,0,0a5.11,5.11,0,0,0,.35-.8,1.61,1.61,0,0,0,.09-.29,3.75,3.75,0,0,0,.13-.58c.3-2.13-.21-3.48.07-5.77a6.14,6.14,0,0,1,2.35-4.15,11,11,0,0,1,6-2.44,12.9,12.9,0,0,1,4.1.59c.32.08.63.17,1,.27l.63.17h0l.2.05a3.31,3.31,0,0,0,.42.12l.5.14.08,0,.08,0,.68.18h.07c.75.2,1.53.39,2.34.54l.31,0,.57.1.31,0,.63.08.18,0,.18,0,.57,0a3.87,3.87,0,0,0,.48,0h.55V96.89Z"/><path class="cls-15" d="M237.78,84.2c0,.26-.29.59-1,1-2.11,1.14-3.54,2.58-5.48,3.45-1.28.57-2.56,1.14-2.94.78-.2-.19-.15-.63.26-1.45a9.75,9.75,0,0,1,5.29-3.85C236.3,83.45,237.75,83.65,237.78,84.2Z"/><path class="cls-15" d="M233.3,108.38c-.18.14-1,0-3-.33-6.83-1.27-4.09-7.86-4.09-7.86.23-.5.5-.77.81-.82h0c.89-.15,2,1.48,2.53,4.26S233.73,108.06,233.3,108.38Z"/><path class="cls-15" d="M249.74,114.62v.84a5.15,5.15,0,0,1-.56.19,16.09,16.09,0,0,1-8.59-.71,2.45,2.45,0,0,1-1.45-2.1c-.16-.32-.08-.48.15-.52,1-.15,4.78,1.66,7.32,1.82A13.54,13.54,0,0,1,249.74,114.62Z"/><path class="cls-18" d="M249.74,114.82v.42a5.8,5.8,0,0,1-.61.21,10,10,0,0,1-2.68.3,15.33,15.33,0,0,1-5.77-1,2.26,2.26,0,0,1-1.34-1.93v0l0,0a.43.43,0,0,1-.06-.21.36.36,0,0,1,.17,0,12,12,0,0,1,2.51.68,21.43,21.43,0,0,0,4.66,1.15A12.4,12.4,0,0,1,249.74,114.82Z"/><path class="cls-15" d="M234.87,95.45s1.64-3.7,4.18-4.5,6.5-3.11,5.63-.5-2.85,3.71-5.63,7.23S233.07,100,234.87,95.45Z"/><path class="cls-18" d="M235.9,99.51a1.21,1.21,0,0,1-1.05-.53c-.47-.7-.39-2,.21-3.45,0,0,1.63-3.62,4.05-4.39.62-.19,1.32-.48,2-.75a10.92,10.92,0,0,1,3-1,.49.49,0,0,1,.41.14c.07.09.11.31,0,.81a10.91,10.91,0,0,1-2.85,4c-.81.85-1.71,1.81-2.74,3.11A4.39,4.39,0,0,1,235.9,99.51Z"/><path class="cls-15" d="M249.74,97V98.6c-1-.13-1.36-.47-.56-1.22A4,4,0,0,1,249.74,97Z"/><path class="cls-18" d="M249.74,97.22V98.4c-.62-.09-.76-.23-.79-.3s0-.2.37-.58A3.21,3.21,0,0,1,249.74,97.22Z"/><path class="cls-15" d="M249.74,103.78v3.9c-.65-.05-1.33-.14-2-.26-3.36-.61-6-1.54-6.71-2.38-.37-.41-.28-.81.38-1.14a22,22,0,0,1,4.06-.49A17,17,0,0,1,249.74,103.78Z"/><path class="cls-18" d="M249.74,104v3.51c-.65,0-1.32-.14-2-.26-3.67-.66-6-1.61-6.58-2.31a.52.52,0,0,1-.17-.3c0-.22.23-.4.46-.52a22.11,22.11,0,0,1,2.71-.41c.58-.05,1.23-.08,1.91-.08A16.68,16.68,0,0,1,249.74,104Z"/><path class="cls-18" d="M249.24,85.63h.5v4l-.56-1.82-3.27-2.55.05-.07.31,0,.57.1.31,0h.06l.57.08.36,0,.57,0,.48,0Z"/><path class="cls-18" d="M247.7,93.33a21.87,21.87,0,0,1,2-1.49v1.84a2,2,0,0,1-.56.18,20.66,20.66,0,0,0-3.08,1.34l-2.07.66-2.12.68,1.51-.79A48.33,48.33,0,0,0,247.7,93.33Z"/><path class="cls-18" d="M246,109.39l-3-1-2-.2-1.43-1.59-1.15-2.28,1.15-1.61.92-1.67,3.48-.87.83-.71.64-1.7-1.74,1.75h-2.14l-3,.86-.77,1.34h-3.23c-.73,0-.88-1.54-.88-1.54l-.61-2.41-1.53-1.26-2.05-.28-2-.82a6.31,6.31,0,0,1-.87,2.22l1.7.14,2.38.65,1.27.9-.27,2.27v2.27l2.41.34,2.14.4.4,1.67.74,1.43,1.27,1.65H246Z"/><path class="cls-18" d="M240.49,85.56a7.3,7.3,0,0,1-1.44,1,18.74,18.74,0,0,1-2.44,1.08c-.4,0-1.4,1.27-1.4,1.27l-.66,2.52.93-1.62s2.87-1.68,3.57-2a14.8,14.8,0,0,0,1.38-.87c.26-.14,1.8-.8,1.8-.8l1.32-1.5c-.91-.24-1.78-.5-2.61-.73A15.53,15.53,0,0,1,240.49,85.56Z"/><path class="cls-40" d="M236.71,86.35c-.35.57-3.9,2.74-4.7,3.43s-3.33.72-3.53,1.34a2.88,2.88,0,0,0-.09-1.73c.38.36,1.66-.21,2.94-.78,1.94-.87,3.37-2.31,5.48-3.45.68-.37,1-.7,1-1a1.64,1.64,0,0,0,.81.41C239.27,84.76,237.06,85.78,236.71,86.35Z"/><path class="cls-41" d="M228.78,91.39h-.33a.12.12,0,0,0,.1,0h0l-.08-.08-.08.09,0,0v0h0l0-.06s0,0,0-.09v0l0,0,.3-.33-.08.44a.31.31,0,0,0,0,.08Z"/><path class="cls-42" d="M237.78,84.2l-.11-.13"/><path class="cls-18" d="M228.76,89.3c-.13,0-.22,0-.25-.08s-.11-.34.32-1.19A9.65,9.65,0,0,1,234,84.28a10.2,10.2,0,0,1,2.48-.39c.82,0,1.08.2,1.11.3s-.13.4-.86.79a25.38,25.38,0,0,0-2.6,1.68,17.47,17.47,0,0,1-2.87,1.77A8.72,8.72,0,0,1,228.76,89.3Z"/><path class="cls-40" d="M233.3,108.38c.43-.32-3.19-2.08-3.71-4.75s-1.64-4.41-2.53-4.26c.1,0,.95-.27.92-.91s.76.32,1.53,1.93,1.12,3.71,2.18,4.38,2.11,3.19,3.12,3.67S233.3,108.38,233.3,108.38Z"/><path class="cls-18" d="M233,108.24a19.32,19.32,0,0,1-2.62-.39,5.18,5.18,0,0,1-3.91-2.43c-1.21-2.23,0-5.13,0-5.16.14-.31.39-.7.74-.7.68,0,1.7,1.44,2.22,4.11.35,1.79,2,3.17,3,4a7.24,7.24,0,0,1,.65.57Z"/><path class="cls-40" d="M249.74,113.5v1.12a13.54,13.54,0,0,0-3.13-.48c-2.54-.16-6.34-2-7.32-1.82a1.59,1.59,0,0,0-.23-1.26c-.44-.6,4.64,1.33,5.91,1.25C245.88,112.25,248.08,113.16,249.74,113.5Z"/><path class="cls-14" d="M249.74,103v13.22a9.88,9.88,0,0,1-4,.36c-9.43-.67-6.22-3.21-8.43-5.65a1.87,1.87,0,0,0-.36-.32,3.13,3.13,0,0,0-.3-.2l-.43-.22a6,6,0,0,0-.56-.22,12.14,12.14,0,0,0-1.42-.38l-.59-.13c-1.09-.22-2.29-.41-3.44-.67l-.08,0-1-.25-.47-.15-.34-.11a11.47,11.47,0,0,1,1.29-.42l.41-.11c.66-.16,1.35-.29,2.06-.39l.27,0c.42-.07.85-.12,1.27-.18,1.13-.14,2.25-.26,3.25-.4a14.48,14.48,0,0,0,2.51-.54,2.54,2.54,0,0,0,1.24-.77A2.27,2.27,0,0,1,241,105l.16-.13a9,9,0,0,1,3-1.23c.41-.1.83-.19,1.28-.27A25.11,25.11,0,0,1,249.74,103Z"/><g class="cls-43"><path class="cls-41" d="M249.74,86.35V96.89c-.65-.06-1.41-.17-2.29-.34-1.29-.25-2.42-.49-3.42-.69l-.61-.11c-.88-.17-1.66-.31-2.36-.4l-.25,0c-2.73-.32-4.2.13-5.79,2.17a5.36,5.36,0,0,1-.46.52l-.18.18a9.75,9.75,0,0,1-1,.87h0a14.27,14.27,0,0,1-1.53,1.09,20.54,20.54,0,0,1-2,1.1q-.42.21-.84.39l-.18.08a15.74,15.74,0,0,1-2.94,1l-.2,0a8,8,0,0,1-1.06.16,5.66,5.66,0,0,1,0-.6.77.77,0,0,1,0-.15c0-.15,0-.29.06-.43l0-.16c0-.15.07-.3.11-.44a7.51,7.51,0,0,1,.36-1c.07-.16.14-.32.22-.47.29-.59.62-1.13.92-1.65.06-.1.12-.19.17-.29a.6.6,0,0,0,.06-.11.65.65,0,0,0,.09-.16c.05-.09.1-.17.14-.26s0,0,0,0a5.11,5.11,0,0,0,.35-.8,1.61,1.61,0,0,0,.09-.29,3.75,3.75,0,0,0,.13-.58c.3-2.13-.21-3.48.07-5.77a6.14,6.14,0,0,1,2.35-4.15,11,11,0,0,1,6-2.44,12.9,12.9,0,0,1,4.1.59l1,.26.63.18h0l.39.1.23.07.5.14.08,0,.83.22c.84.22,1.72.42,2.65.59.31.06.62.11.94.15l.75.1.18,0,1.05.08h0Z"/><path class="cls-41" d="M224.53,103v-.14a6,6,0,0,1,0-.61,1.11,1.11,0,0,1,0-.17c0-.08,0-.18,0-.28s0-.09,0-.14l0-.17c0-.15.07-.3.11-.44a7.43,7.43,0,0,1,.37-1c.07-.16.14-.32.22-.48.23-.47.49-.9.73-1.32l.25-.42a1.28,1.28,0,0,0,.11-.2l0,0,0,0,0,0a.66.66,0,0,0,.08-.13l0-.08.09-.16v0l0,0a4.74,4.74,0,0,0,.34-.78,1.41,1.41,0,0,0,.09-.27,3.51,3.51,0,0,0,.13-.58,13.33,13.33,0,0,0,0-2.81,14.67,14.67,0,0,1,0-3,6.29,6.29,0,0,1,2.39-4.24A11.18,11.18,0,0,1,235.87,83a13.56,13.56,0,0,1,4.14.6l.74.2.94.26.33.09.14,0,.17,0a3.17,3.17,0,0,0,.41.12l.08,0,.36.09.47.13c.9.23,1.77.43,2.64.59.32.06.62.11.94.15l.75.1h0l.18,0h0l1,.08h.12v.09c.12.16.25.32.37.49l.18.23V97l-.14,0a21.4,21.4,0,0,1-2.3-.34l-2.27-.45L244,96l-.1,0-.51-.09c-.74-.14-1.59-.3-2.35-.4h0l-.24,0c-2.78-.32-4.16.19-5.66,2.13-.14.17-.3.35-.47.53l-.06.06a1.59,1.59,0,0,0-.13.13,9.58,9.58,0,0,1-1,.87l0,0a13.54,13.54,0,0,1-1.5,1.08c-.59.37-1.26.74-2,1.1-.28.14-.57.27-.85.39a1.11,1.11,0,0,1-.19.09,15.5,15.5,0,0,1-2.95,1l-.21,0a6.87,6.87,0,0,1-1.07.16Zm2.22-5.39a.2.2,0,0,1,0,.08l0,0a2.25,2.25,0,0,1-.12.21l-.24.41c-.25.42-.5.85-.73,1.32-.08.15-.14.3-.21.46a7.35,7.35,0,0,0-.36,1,3.34,3.34,0,0,0-.1.43l0,.17a1.3,1.3,0,0,0,0,.13,2.4,2.4,0,0,0,0,.28.93.93,0,0,0,0,.14c0,.17,0,.31,0,.46a8.65,8.65,0,0,0,.91-.14l.19,0a16.16,16.16,0,0,0,2.92-1l.17-.08q.43-.18.84-.39a19.58,19.58,0,0,0,2-1.1A13,13,0,0,0,233.29,99l.05,0a9.41,9.41,0,0,0,.95-.83l.12-.11.06-.07a5.14,5.14,0,0,0,.45-.51c1.55-2,3-2.55,5.91-2.21l.22,0h0c.76.09,1.62.25,2.37.4l.51.09.1,0,1.15.23,2.27.46c.78.15,1.5.26,2.14.32V86.39l-.12-.16-.38-.49-1-.07H248l-.77-.11-.94-.15c-.88-.16-1.75-.35-2.66-.59l-.48-.13-.35-.09-.08,0a3.31,3.31,0,0,1-.42-.12l-.08,0-.09,0-.14,0-.32-.08-.11,0-.84-.24-.74-.2a13,13,0,0,0-4.05-.59A10.92,10.92,0,0,0,230,85.63a6,6,0,0,0-2.3,4.06,14.28,14.28,0,0,0,0,2.91,13.91,13.91,0,0,1,0,2.87,4.81,4.81,0,0,1-.14.6,1.88,1.88,0,0,1-.09.3,6.38,6.38,0,0,1-.34.78v0l0,0-.1.2,0,.06A.54.54,0,0,1,226.75,97.62Z"/></g><path class="cls-17" d="M148.5,22.87a1.1,1.1,0,0,1,.42-.73,1.87,1.87,0,0,1,1.05-.43c.82-.05,1.81.7,3.37.36s2.38-.19,2.91,1,.85,3.4-1.57,3.42-1.32,1.21-3,1.09-1.09-.56-1.48-1-2-.17-2.19-1.06.39-1.18.46-1.67S148.46,23.27,148.5,22.87Z"/><path class="cls-15" d="M150.31,21.9c0,.05-.05.11-.17.17-.37.2-.63.45-1,.61s-.45.2-.51.13,0-.11,0-.25a1.75,1.75,0,0,1,.93-.68C150.05,21.77,150.3,21.81,150.31,21.9Z"/><path class="cls-15" d="M155.94,23.22c-.09,0-.55-.55-1-.63s-.89-.24-.87-.38.08-.1.22-.14,1.3-.18,1.62.77C156,23.09,156,23.2,155.94,23.22Z"/><path class="cls-15" d="M149.52,26.15s-.18,0-.52,0a1,1,0,0,1-.72-1.39.24.24,0,0,1,.14-.14h0c.16,0,.35.26.45.75S149.6,26.1,149.52,26.15Z"/><path class="cls-15" d="M152.31,27.43a2.86,2.86,0,0,1-1.51-.12.43.43,0,0,1-.25-.37c0-.06,0-.09,0-.09s.84.29,1.29.32a1.27,1.27,0,0,1,.64.13S152.47,27.39,152.31,27.43Z"/><path class="cls-18" d="M151.83,27.45a2.84,2.84,0,0,1-1-.17.41.41,0,0,1-.24-.34h0a.08.08,0,0,1,0,0h0A2.31,2.31,0,0,1,151,27a3.5,3.5,0,0,0,.82.2c.47,0,.6.1.61.12h0s0,0-.17.08a2,2,0,0,1-.47.05Z"/><path class="cls-15" d="M149.8,23.88s.29-.65.73-.79,1.14-.55,1-.09-.5.65-1,1.27S149.48,24.67,149.8,23.88Z"/><path class="cls-18" d="M150,24.59a.23.23,0,0,1-.19-.09.7.7,0,0,1,0-.61s.29-.63.71-.77a3,3,0,0,0,.35-.13,2.21,2.21,0,0,1,.53-.17.1.1,0,0,1,.08,0s0,0,0,.14a2.05,2.05,0,0,1-.5.71c-.14.15-.3.32-.49.55A.74.74,0,0,1,150,24.59Z"/><path class="cls-15" d="M152.31,24.22a3,3,0,0,1,1.23-.51,4.09,4.09,0,0,1,1.55.17c.46.18-.12.5-1,.5S151.9,24.61,152.31,24.22Z"/><path class="cls-18" d="M152.63,24.41c-.3,0-.35,0-.36-.06s0,0,.07-.11a2.88,2.88,0,0,1,1.2-.5h.31a3.67,3.67,0,0,1,1.23.17s.15.07.13.13-.45.3-1.11.3c-.24,0-.53,0-.8,0Z"/><path class="cls-15" d="M150.94,25.37a3.17,3.17,0,0,1,2,.16c.83.44,0,.61-.86.45S150.59,25.54,150.94,25.37Z"/><path class="cls-18" d="M152.66,26a3.29,3.29,0,0,1-.6-.06c-.75-.14-1.17-.34-1.18-.46s0-.07.08-.09a3.66,3.66,0,0,1,.81-.09,2.28,2.28,0,0,1,1.13.25c.32.17.34.26.33.3S153,26,152.66,26Z"/><path class="cls-18" d="M151,24.07l.74-.23a3.65,3.65,0,0,1,.54-.24,2,2,0,0,0,.44-.22c.12-.06.35-.14.32-.2s-.25-.21-.27-.27l-.2-.43s.08-.14.14-.16a1.92,1.92,0,0,0,.28-.13v-.06a4.1,4.1,0,0,1-1.28-.05h0l.57.45.2.64s-.35.23-.46.33S151,24.07,151,24.07Z"/><path class="cls-18" d="M156.3,25.86h-.54a3.6,3.6,0,0,1-.69-.05,3.5,3.5,0,0,1-.58-.28c0-.05-.33-.35-.36-.4a5.69,5.69,0,0,0-.5-.32h-1.06l1,.2.35.47.3.38V26l-.34.12-.39,0-.41.16-.14.09.69-.14.41,0,.53-.11.17-.12.49,0a.69.69,0,0,0,.38.09,1.9,1.9,0,0,1,.43,0A1.72,1.72,0,0,0,156.3,25.86Z"/><path class="cls-18" d="M156.55,24c0-.11-.05-.21-.08-.31l-.82-.09-.43-.22c-.12-.06-1-.6-1-.6l.71.66.48.25.4.12.3.17v.42a1.54,1.54,0,0,1-.19.1l-.41.08-.26.47.39-.31.31-.09.39,0v-.36s-.05-.15,0-.2Z"/><path class="cls-18" d="M151.76,26.33l-.53-.17-.36,0-.25-.28-.2-.4.2-.28.17-.3.61-.15.14-.13.12-.29-.31.3H151l-.53.15-.13.24h-.57c-.13,0-.15-.27-.15-.27l-.11-.42-.27-.23-.36,0-.36-.15a1.09,1.09,0,0,1-.15.39l.3,0,.42.11.22.16-.05.4v.4l.43.06.37.07.07.29.13.25.23.29h1.3Z"/><path class="cls-18" d="M150.79,22.14a1.37,1.37,0,0,1-.26.18,2.58,2.58,0,0,1-.43.19c-.07,0-.24.23-.24.23l-.12.44.16-.28.63-.36a1.81,1.81,0,0,0,.24-.15l.32-.14.23-.27-.46-.12C150.84,21.94,150.8,22.11,150.79,22.14Z"/><path class="cls-40" d="M150.12,22.28a9.54,9.54,0,0,1-.83.6c-.14.12-.58.13-.62.24a.55.55,0,0,0,0-.31c.06.07.29,0,.51-.13s.6-.41,1-.61c.12-.06.17-.12.17-.17a.22.22,0,0,0,.14.07C150.57,22,150.18,22.18,150.12,22.28Z"/><polygon class="cls-41" points="148.87 23.27 148.67 23.27 148.67 23.15 148.56 23.2 148.52 23.12 148.55 23.08 148.56 23.04 148.62 23.01 148.84 22.9 148.8 23.13 148.87 23.27"/><path class="cls-42" d="M150.31,21.9l0,0"/><path class="cls-18" d="M148.72,22.8s0,0,0,0,0-.06,0-.21a1.71,1.71,0,0,1,.91-.66,1.59,1.59,0,0,1,.44-.07c.14,0,.19,0,.19,0s0,.07-.15.14a5.21,5.21,0,0,0-.46.3,4.19,4.19,0,0,1-.5.31A1.74,1.74,0,0,1,148.72,22.8Z"/><path class="cls-40" d="M156,23.43a1.45,1.45,0,0,1-.58-.35c-.12-.15-.42-.12-.65-.26a3.3,3.3,0,0,0-.66-.25c-.15-.05-.46-.22-.34-.24a.58.58,0,0,0,.25-.12c0,.14.38.3.87.38s.95.67,1,.63S156.21,23.51,156,23.43Z"/><path class="cls-18" d="M155.92,23.18a.84.84,0,0,1-.2-.15,1.88,1.88,0,0,0-.81-.48c-.52-.08-.84-.23-.84-.32s.07-.09.19-.12h0a1.5,1.5,0,0,1,.24,0,1.3,1.3,0,0,1,1.33.76A1.36,1.36,0,0,1,155.92,23.18Z"/><path class="cls-40" d="M149.52,26.15c.08,0-.56-.36-.65-.83s-.29-.78-.45-.75c0,0,.17-.05.17-.16s.13.06.27.34.19.65.38.77.37.56.55.64S149.52,26.15,149.52,26.15Z"/><path class="cls-18" d="M149.47,26.13a3.18,3.18,0,0,1-.47-.07.91.91,0,0,1-.68-.43,1.17,1.17,0,0,1,0-.9c0-.06.07-.13.13-.13s.3.26.39.73a1.49,1.49,0,0,0,.53.7.42.42,0,0,1,.12.1Z"/><path class="cls-40" d="M152.5,27.3a1.27,1.27,0,0,0-.64-.13c-.45,0-1.12-.35-1.29-.32a.24.24,0,0,0,0-.22c-.07-.11.82.23,1,.22s.89.29,1.12.21S152.5,27.3,152.5,27.3Z"/><path class="cls-14" d="M156.25,23.09c-.53-1.21-1.34-1.36-2.91-1l-.07,0c.48.55,1.29,1.6,1.2,2.2-.12.85.06,1.39-.95,1.08a3.28,3.28,0,0,0-2.71.27c-.23.31-1.47.22-2.17.5.56.2,1.33.19,1.58.47s-.18.87,1.48,1,.57-1.07,3-1.09S156.78,24.31,156.25,23.09Z"/><g class="cls-43"><path class="cls-41" d="M153,23.37a3.72,3.72,0,0,0-.73-1.22c-1,0-1.72-.48-2.34-.44a1.87,1.87,0,0,0-1.05.43,1.1,1.1,0,0,0-.42.73c0,.4.05.64,0,1s-.47.69-.49,1.31a3.19,3.19,0,0,0,1.82-1c.45-.58.84-.43,2.19-.17S153.07,23.78,153,23.37Z"/><path class="cls-41" d="M147.87,25.32v-.14a1.69,1.69,0,0,1,.3-.87,1.12,1.12,0,0,0,.2-.45,2.46,2.46,0,0,0,0-.47,2.48,2.48,0,0,1,0-.54,1.22,1.22,0,0,1,.46-.81,2.1,2.1,0,0,1,1.13-.46,3.43,3.43,0,0,1,1,.19,6,6,0,0,0,1.31.26h.06l0,0a3.41,3.41,0,0,1,.75,1.28h0a.88.88,0,0,1,0,.16.64.64,0,0,1-.09.6c-.18.17-.52.19-1.11.08l-.35-.07c-1.06-.22-1.35-.28-1.71.18a3.3,3.3,0,0,1-1.91,1Zm2.18-3.49H150a1.88,1.88,0,0,0-1,.4,1,1,0,0,0-.36.65,2.74,2.74,0,0,0,0,.49,3.12,3.12,0,0,1,0,.53,1.48,1.48,0,0,1-.23.53,1.51,1.51,0,0,0-.25.61,3.14,3.14,0,0,0,1.58-.88c.46-.58.87-.5,2-.28L152,24c.6.12.81.06.88,0s.05-.22,0-.38l0-.18h0c0-.08-.08-.35-.66-1.11a5.84,5.84,0,0,1-1.31-.26A3.26,3.26,0,0,0,150.05,21.83Z"/></g><path class="cls-44" d="M250,96.9l-.13.08v-.09Z"/><path class="cls-45" d="M72,10.31a2.06,2.06,0,0,0,1.82,1.75A2.08,2.08,0,0,0,72,13.81a2.06,2.06,0,0,0-1.81-1.75A2,2,0,0,0,72,10.31Z"/><path class="cls-45" d="M117.34,54.26A2.07,2.07,0,0,0,119.15,56a2.06,2.06,0,0,0-1.81,1.75A2.06,2.06,0,0,0,115.53,56,2.07,2.07,0,0,0,117.34,54.26Z"/><path class="cls-45" d="M166.19,12.34A2.06,2.06,0,0,0,168,14.09a2.07,2.07,0,0,0-1.81,1.75,2.07,2.07,0,0,0-1.81-1.75A2.06,2.06,0,0,0,166.19,12.34Z"/><path class="cls-45" d="M212.58,74.23A2,2,0,0,0,214.39,76a2.06,2.06,0,0,0-1.81,1.75A2.07,2.07,0,0,0,210.77,76,2.06,2.06,0,0,0,212.58,74.23Z"/><path class="cls-45" d="M160.42,113.58a2,2,0,0,0,1.81,1.75,2.06,2.06,0,0,0-1.81,1.75,2.08,2.08,0,0,0-1.82-1.75A2.06,2.06,0,0,0,160.42,113.58Z"/><path class="cls-45" d="M8.33,12.93a2.06,2.06,0,0,0,1.81,1.75,2,2,0,0,0-1.81,1.75,2.06,2.06,0,0,0-1.81-1.75A2.07,2.07,0,0,0,8.33,12.93Z"/><path class="cls-46" d="M51.37,3.83a.69.69,0,0,0,.61.59.71.71,0,0,0-.61.59.71.71,0,0,0-.61-.59A.69.69,0,0,0,51.37,3.83Z"/><path class="cls-46" d="M45.09,38.16a.71.71,0,0,0,.61.59.69.69,0,0,0-.61.59.69.69,0,0,0-.61-.59A.71.71,0,0,0,45.09,38.16Z"/><path class="cls-9" d="M109,13.5a.69.69,0,0,0,.61.59.69.69,0,0,0-.61.59.7.7,0,0,0-.62-.59A.7.7,0,0,0,109,13.5Z"/><path class="cls-46" d="M88.77,57.86a.69.69,0,0,0,.61.59.71.71,0,0,0-.61.59.71.71,0,0,0-.61-.59A.69.69,0,0,0,88.77,57.86Z"/><path class="cls-46" d="M83.58,100.86a.69.69,0,0,0,.61.59.71.71,0,0,0-.61.6.71.71,0,0,0-.61-.6A.69.69,0,0,0,83.58,100.86Z"/><path class="cls-46" d="M159,60.35a.69.69,0,0,0,.61.59.61.61,0,0,1-1.22,0A.69.69,0,0,0,159,60.35Z"/><path class="cls-46" d="M186.49,7.21a.69.69,0,0,0,.61.59.61.61,0,0,1-1.22,0A.69.69,0,0,0,186.49,7.21Z"/><path class="cls-46" d="M237.2,10.27a.71.71,0,0,0,.61.59.61.61,0,0,1-1.22,0A.71.71,0,0,0,237.2,10.27Z"/><path class="cls-46" d="M241.91,46.77a.7.7,0,0,0,.62.59.7.7,0,0,0-.62.59.69.69,0,0,0-.61-.59A.69.69,0,0,0,241.91,46.77Z"/><path class="cls-46" d="M233.55,69.72a.7.7,0,0,0,.62.59.7.7,0,0,0-.62.59.69.69,0,0,0-.61-.59A.69.69,0,0,0,233.55,69.72Z"/><path class="cls-46" d="M194.16,64.05a.71.71,0,0,0,.61.59.61.61,0,0,1-1.22,0A.71.71,0,0,0,194.16,64.05Z"/><path class="cls-46" d="M187.93,112.11a.69.69,0,0,0,.61.59.61.61,0,0,1-1.22,0A.69.69,0,0,0,187.93,112.11Z"/><path class="cls-46" d="M148,100.86a.69.69,0,0,0,.61.59.61.61,0,0,1-1.22,0A.69.69,0,0,0,148,100.86Z"/><path class="cls-46" d="M136.1,83.1a.69.69,0,0,0,.61.59.69.69,0,0,0-.61.59.69.69,0,0,0-.61-.59A.69.69,0,0,0,136.1,83.1Z"/><path class="cls-46" d="M232.94,122.35a.71.71,0,0,0,.61.6.61.61,0,0,1-1.22,0A.71.71,0,0,0,232.94,122.35Z"/><path class="cls-46" d="M149.13,123.44a.69.69,0,0,0,.61.59.61.61,0,0,1-1.22,0A.69.69,0,0,0,149.13,123.44Z"/><g class="cls-47"><circle class="cls-11" cx="57.06" cy="87.04" r="44.82"/></g><g class="cls-48"><circle class="cls-39" cx="171.49" cy="86.89" r="24.75" transform="translate(-8.04 155.66) rotate(-47.83)"/></g><g class="cls-49"><circle class="cls-23" cx="89.67" cy="37.69" r="15.16"/></g><rect class="cls-50" width="249.87" height="160"/></g></g></g></svg>