<svg xmlns="http://www.w3.org/2000/svg" xmlns:xlink="http://www.w3.org/1999/xlink" viewBox="0 0 250 160"><defs><style>.cls-1{fill:url(#radial-gradient);}.cls-2{fill:url(#radial-gradient-2);}.cls-3{fill:url(#radial-gradient-3);}.cls-4{fill:url(#radial-gradient-4);}.cls-5{fill:url(#radial-gradient-5);}.cls-6{fill:url(#radial-gradient-6);}.cls-7{fill:url(#radial-gradient-7);}.cls-8{fill:url(#radial-gradient-8);}.cls-9{fill:url(#radial-gradient-9);}.cls-10{fill:url(#radial-gradient-10);}.cls-11{fill:url(#radial-gradient-11);}.cls-12{fill:url(#radial-gradient-12);}.cls-13{fill:url(#radial-gradient-13);}.cls-14{fill:url(#radial-gradient-14);}.cls-15{fill:url(#radial-gradient-15);}.cls-16{fill:url(#radial-gradient-16);}.cls-17{fill:url(#radial-gradient-17);}.cls-18{fill:url(#radial-gradient-18);}.cls-19{fill:url(#radial-gradient-19);}.cls-20{fill:url(#radial-gradient-20);}.cls-21{fill:url(#radial-gradient-21);}.cls-22{fill:url(#radial-gradient-22);}.cls-23{fill:url(#radial-gradient-23);}.cls-24{fill:url(#radial-gradient-24);}.cls-25{fill:url(#radial-gradient-25);}.cls-26{fill:url(#radial-gradient-26);}.cls-27{fill:url(#radial-gradient-27);}.cls-28{fill:url(#radial-gradient-28);}.cls-29{fill:url(#radial-gradient-29);}.cls-30{isolation:isolate;}.cls-31{fill:url(#linear-gradient);}.cls-32{fill:#0c0b0c;}.cls-32,.cls-37,.cls-39,.cls-57{mix-blend-mode:screen;}.cls-33{fill:#fd6e03;}.cls-34{fill:#f55e1b;}.cls-35{fill:#e84700;}.cls-36{fill:#e6e7e8;}.cls-36,.cls-40{mix-blend-mode:multiply;}.cls-37{fill:#231f20;}.cls-38{fill:#00bdbf;}.cls-39{fill:#141313;}.cls-41{fill:#d1d3d4;}.cls-42{fill:#573f34;}.cls-43{fill:#9a8c85;}.cls-44{fill:#bcb2ae;}.cls-45{fill:#31221b;}.cls-46{fill:#680033;}.cls-47{fill:#a62664;}.cls-48{fill:#f59d44;}.cls-49{fill:#9e0943;}.cls-50{fill:#bf4982;}.cls-51{fill:#87174d;}.cls-52{fill:#c02c74;}.cls-53{fill:#82003f;}.cls-54{fill:#59002c;}.cls-55{fill:#a5336a;}.cls-56{fill:#4d0026;}.cls-57,.cls-59{fill:#fff;}.cls-58{mask:url(#mask);}.cls-60{mask:url(#mask-2);}.cls-61{mask:url(#mask-3);}.cls-62{mask:url(#mask-4);}.cls-63{mask:url(#mask-5);}.cls-64{mask:url(#mask-6);}.cls-65{mask:url(#mask-7);}.cls-66{mask:url(#mask-8);}.cls-67{mask:url(#mask-9);}.cls-68{mask:url(#mask-10);}.cls-69{mask:url(#mask-11);}.cls-70{mask:url(#mask-12);}.cls-71{mask:url(#mask-13);}.cls-72{mask:url(#mask-14);}.cls-73{mask:url(#mask-15);}.cls-74{mask:url(#mask-16);}.cls-75{mask:url(#mask-17);}.cls-76{mask:url(#mask-18);}.cls-77{mask:url(#mask-19);}.cls-78{mask:url(#mask-20);}.cls-79{mask:url(#mask-21);}.cls-80{mask:url(#mask-22);}.cls-81{mask:url(#mask-23);}.cls-82{mask:url(#mask-24);}.cls-83{mask:url(#mask-25);}.cls-84{mask:url(#mask-26);}.cls-85{mask:url(#mask-27);}.cls-86{mask:url(#mask-28);}.cls-87{mask:url(#mask-29);}.cls-88{fill:#c7494c;}.cls-89{fill:#9b3365;}.cls-90{fill:#d45d60;}.cls-91{fill:#d95394;}</style><radialGradient id="radial-gradient" cx="42.35" cy="11.15" r="1.58" gradientTransform="translate(0.15)" gradientUnits="userSpaceOnUse"><stop offset="0" stop-color="#fff"/><stop offset="0.81" stop-color="#414141"/><stop offset="0.91"/></radialGradient><radialGradient id="radial-gradient-2" cx="122.56" cy="41.82" r="1.58" xlink:href="#radial-gradient"/><radialGradient id="radial-gradient-3" cx="86.3" cy="51.87" r="0.37" xlink:href="#radial-gradient"/><radialGradient id="radial-gradient-4" cx="107.03" cy="68.04" r="0.37" xlink:href="#radial-gradient"/><radialGradient id="radial-gradient-5" cx="133.51" cy="33.68" r="0.37" xlink:href="#radial-gradient"/><radialGradient id="radial-gradient-6" cx="149.78" cy="28.74" r="0.37" xlink:href="#radial-gradient"/><radialGradient id="radial-gradient-7" cx="190.85" cy="89.5" r="0.37" xlink:href="#radial-gradient"/><radialGradient id="radial-gradient-8" cx="219.09" cy="9.89" r="0.37" xlink:href="#radial-gradient"/><radialGradient id="radial-gradient-9" cx="243.97" cy="38.15" r="0.37" xlink:href="#radial-gradient"/><radialGradient id="radial-gradient-10" cx="193.64" cy="52.28" r="0.37" xlink:href="#radial-gradient"/><radialGradient id="radial-gradient-11" cx="166.99" cy="25.75" r="0.37" xlink:href="#radial-gradient"/><radialGradient id="radial-gradient-12" cx="193.64" cy="18.89" r="0.37" xlink:href="#radial-gradient"/><radialGradient id="radial-gradient-13" cx="234.51" cy="25.75" r="1.58" xlink:href="#radial-gradient"/><radialGradient id="radial-gradient-14" cx="234.51" cy="34.09" r="0.37" xlink:href="#radial-gradient"/><radialGradient id="radial-gradient-15" cx="238.19" cy="6.89" r="0.37" xlink:href="#radial-gradient"/><radialGradient id="radial-gradient-16" cx="165.12" cy="89.24" r="0.37" xlink:href="#radial-gradient"/><radialGradient id="radial-gradient-17" cx="143.83" cy="73.42" r="0.37" xlink:href="#radial-gradient"/><radialGradient id="radial-gradient-18" cx="92.71" cy="74.23" r="0.37" xlink:href="#radial-gradient"/><radialGradient id="radial-gradient-19" cx="87.52" cy="67.85" r="0.37" xlink:href="#radial-gradient"/><radialGradient id="radial-gradient-20" cx="64.17" cy="36.78" r="0.37" xlink:href="#radial-gradient"/><radialGradient id="radial-gradient-21" cx="74.39" cy="76.27" r="0.37" xlink:href="#radial-gradient"/><radialGradient id="radial-gradient-22" cx="140.96" cy="51.64" r="0.37" xlink:href="#radial-gradient"/><radialGradient id="radial-gradient-23" cx="178.31" cy="9.57" r="1.58" xlink:href="#radial-gradient"/><radialGradient id="radial-gradient-24" cx="70.39" cy="57.19" r="1.58" xlink:href="#radial-gradient"/><radialGradient id="radial-gradient-25" cx="5.32" cy="31.57" r="1.58" xlink:href="#radial-gradient"/><radialGradient id="radial-gradient-26" cx="14.38" cy="9.4" r="0.37" xlink:href="#radial-gradient"/><radialGradient id="radial-gradient-27" cx="30.36" cy="19.14" r="0.37" xlink:href="#radial-gradient"/><radialGradient id="radial-gradient-28" cx="65.32" cy="12.6" r="0.37" xlink:href="#radial-gradient"/><radialGradient id="radial-gradient-29" cx="97.76" cy="24.54" r="0.37" xlink:href="#radial-gradient"/><linearGradient id="linear-gradient" x1="125.35" y1="93" x2="125.35" y2="-30.13" gradientTransform="translate(-0.34)" gradientUnits="userSpaceOnUse"><stop offset="0" stop-color="#64164c"/><stop offset="1" stop-color="#22205f"/></linearGradient><mask id="mask" x="40.9" y="9.57" width="3.17" height="3.17" maskUnits="userSpaceOnUse"><circle class="cls-1" cx="42.49" cy="11.15" r="1.58"/></mask><mask id="mask-2" x="121.07" y="40.23" width="3.17" height="3.17" maskUnits="userSpaceOnUse"><path class="cls-2" d="M121.07,41.82a1.58,1.58,0,1,1,1.58,1.58A1.59,1.59,0,0,1,121.07,41.82Z"/></mask><mask id="mask-3" x="232.96" y="24.17" width="3.17" height="3.17" maskUnits="userSpaceOnUse"><circle class="cls-13" cx="234.54" cy="25.75" r="1.58"/></mask><mask id="mask-4" x="176.79" y="7.99" width="3.17" height="3.17" maskUnits="userSpaceOnUse"><circle class="cls-23" cx="178.37" cy="9.57" r="1.58"/></mask><mask id="mask-5" x="68.93" y="55.61" width="3.17" height="3.17" maskUnits="userSpaceOnUse"><path class="cls-24" d="M68.93,57.19a1.58,1.58,0,1,1,1.58,1.59A1.58,1.58,0,0,1,68.93,57.19Z"/></mask><mask id="mask-6" x="3.89" y="29.99" width="3.17" height="3.17" maskUnits="userSpaceOnUse"><circle class="cls-25" cx="5.47" cy="31.57" r="1.58"/></mask><mask id="mask-7" x="14.15" y="9.03" width="0.74" height="0.75" maskUnits="userSpaceOnUse"><path class="cls-26" d="M14.15,9.4a.38.38,0,0,1,.75,0,.38.38,0,0,1-.75,0Z"/></mask><mask id="mask-8" x="30.12" y="18.77" width="0.74" height="0.75" maskUnits="userSpaceOnUse"><circle class="cls-27" cx="30.49" cy="19.14" r="0.37"/></mask><mask id="mask-9" x="65.07" y="12.23" width="0.74" height="0.75" maskUnits="userSpaceOnUse"><path class="cls-28" d="M65.07,12.6a.38.38,0,0,1,.75,0,.38.38,0,0,1-.75,0Z"/></mask><mask id="mask-10" x="97.49" y="24.17" width="0.74" height="0.75" maskUnits="userSpaceOnUse"><path class="cls-29" d="M97.49,24.54a.38.38,0,1,1,.38.38A.38.38,0,0,1,97.49,24.54Z"/></mask><mask id="mask-11" x="86.04" y="51.49" width="0.74" height="0.75" maskUnits="userSpaceOnUse"><path class="cls-3" d="M86,51.87a.37.37,0,1,1,.37.37A.37.37,0,0,1,86,51.87Z"/></mask><mask id="mask-12" x="106.76" y="67.67" width="0.74" height="0.75" maskUnits="userSpaceOnUse"><circle class="cls-4" cx="107.13" cy="68.04" r="0.37"/></mask><mask id="mask-13" x="133.22" y="33.31" width="0.74" height="0.75" maskUnits="userSpaceOnUse"><path class="cls-5" d="M133.22,33.68a.38.38,0,1,1,.37.37A.37.37,0,0,1,133.22,33.68Z"/></mask><mask id="mask-14" x="149.48" y="28.36" width="0.74" height="0.75" maskUnits="userSpaceOnUse"><circle class="cls-6" cx="149.85" cy="28.74" r="0.37"/></mask><mask id="mask-15" x="190.54" y="89.13" width="0.74" height="0.75" maskUnits="userSpaceOnUse"><path class="cls-7" d="M190.54,89.5a.37.37,0,1,1,.37.38A.37.37,0,0,1,190.54,89.5Z"/></mask><mask id="mask-16" x="218.76" y="9.52" width="0.74" height="0.75" maskUnits="userSpaceOnUse"><path class="cls-8" d="M218.76,9.89a.38.38,0,1,1,.38.38A.38.38,0,0,1,218.76,9.89Z"/></mask><mask id="mask-17" x="243.63" y="37.78" width="0.74" height="0.75" maskUnits="userSpaceOnUse"><path class="cls-9" d="M243.63,38.15a.38.38,0,0,1,.75,0,.38.38,0,1,1-.75,0Z"/></mask><mask id="mask-18" x="193.33" y="51.91" width="0.74" height="0.75" maskUnits="userSpaceOnUse"><path class="cls-10" d="M193.33,52.28a.37.37,0,1,1,.37.37A.36.36,0,0,1,193.33,52.28Z"/></mask><mask id="mask-19" x="166.69" y="25.38" width="0.75" height="0.75" maskUnits="userSpaceOnUse"><path class="cls-11" d="M166.69,25.75a.37.37,0,0,1,.37-.37.38.38,0,0,1,0,.75A.37.37,0,0,1,166.69,25.75Z"/></mask><mask id="mask-20" x="193.33" y="18.52" width="0.74" height="0.75" maskUnits="userSpaceOnUse"><circle class="cls-12" cx="193.7" cy="18.89" r="0.37"/></mask><mask id="mask-21" x="234.17" y="33.72" width="0.74" height="0.75" maskUnits="userSpaceOnUse"><path class="cls-14" d="M234.17,34.09a.38.38,0,0,1,.75,0,.38.38,0,0,1-.75,0Z"/></mask><mask id="mask-22" x="237.85" y="6.52" width="0.74" height="0.75" maskUnits="userSpaceOnUse"><path class="cls-15" d="M237.85,6.89a.38.38,0,0,1,.37-.37.38.38,0,0,1,0,.75A.38.38,0,0,1,237.85,6.89Z"/></mask><mask id="mask-23" x="164.82" y="88.87" width="0.74" height="0.75" maskUnits="userSpaceOnUse"><circle class="cls-16" cx="165.19" cy="89.24" r="0.37"/></mask><mask id="mask-24" x="143.54" y="73.05" width="0.74" height="0.75" maskUnits="userSpaceOnUse"><path class="cls-17" d="M143.54,73.42a.38.38,0,1,1,.38.37A.37.37,0,0,1,143.54,73.42Z"/></mask><mask id="mask-25" x="92.44" y="73.86" width="0.74" height="0.75" maskUnits="userSpaceOnUse"><path class="cls-18" d="M92.44,74.23a.38.38,0,0,1,.75,0,.38.38,0,0,1-.75,0Z"/></mask><mask id="mask-26" x="87.26" y="67.47" width="0.74" height="0.75" maskUnits="userSpaceOnUse"><circle class="cls-19" cx="87.63" cy="67.85" r="0.37"/></mask><mask id="mask-27" x="63.92" y="36.41" width="0.74" height="0.75" maskUnits="userSpaceOnUse"><path class="cls-20" d="M63.92,36.78a.38.38,0,1,1,.37.37A.37.37,0,0,1,63.92,36.78Z"/></mask><mask id="mask-28" x="74.14" y="75.89" width="0.74" height="0.75" maskUnits="userSpaceOnUse"><path class="cls-21" d="M74.14,76.27a.38.38,0,0,1,.37-.38.38.38,0,0,1,0,.75A.38.38,0,0,1,74.14,76.27Z"/></mask><mask id="mask-29" x="140.67" y="51.27" width="0.74" height="0.75" maskUnits="userSpaceOnUse"><circle class="cls-22" cx="141.04" cy="51.64" r="0.37"/></mask></defs><g class="cls-30"><g id="圖層_2" data-name="圖層 2"><g id="Layer_1" data-name="Layer 1"><rect class="cls-31" width="249.99" height="160"/><path class="cls-32" d="M72.17,0C60.23,9.89,48,22.92,40.07,29.81c-15.6,13.47-10.64,23.28,11,11.68S67.33,45.33,59,57.92,50.33,91.67,65.45,68s34.55-29.37,28.39-13,2.16,9,8,15-25.95,34.64,2.06,51.7S151,101,158.33,94.47s8.34-5.8-3.68,17.23,2.51,38.17,31.35,40.72,41-38.75,53.67-67.72-2.34-11.7-46,25.49S181.33,90.33,198,68s-12-2.71-16.93,5.38-15.1,5.91-7.54-3.32,30.11-36.43,25.95-42.92S197,22.67,144.82,87.66,109.67,70.67,120.7,56s7-21.3-11-4.33-.08-20.64,6.61-31.57,21.31-35.74-22.52-1.18C62.26,43.79,80.35,17,92.94,0Z"/><path class="cls-32" d="M44.14,160H62.92c3.74-12.15,16.64-33.66,25.48-45.45,16.69-22.29-12-2.71-16.93,5.37s-15.1,5.92-7.54-3.31S94,80.17,89.87,73.68s-2.5-4.51-54.69,60.48C11.91,163.14,2.41,162.89,0,152.41V160H32.88c7.3-7.55,12.65-16.21,15.82-19C56,134.45,57,135.17,45,158.21,44.7,158.81,44.42,159.41,44.14,160Z"/><path class="cls-32" d="M84.07,156.7c-1.41,1.2-2.73,2.29-4,3.3H117.9c4.33-9.67,8.21-19.83,12.13-28.8C142.7,102.23,127.7,119.5,84.07,156.7Z"/><path class="cls-32" d="M11.06,102.48c11-14.7,7-21.31-11-4.34L0,98.25v38.51C1.78,123.47,6.86,108.08,11.06,102.48Z"/><path class="cls-32" d="M0,53.74V79.23c2.44-5.08,5-9.79,6.72-12.66C12.43,57.26,23.88,37.87,0,53.74Z"/><path class="cls-32" d="M178,19.9c6.29-9.84,13.33-16.57,19-19.9H177a65.71,65.71,0,0,1-5.45,9.77C163.18,22.36,162.85,43.52,178,19.9Z"/><path class="cls-32" d="M250,48.2c-43.14,48.21-27.26-26.42-16.78-40.38A44.62,44.62,0,0,0,238.07,0H226.14c-1.21,1-2.5,2.18-3.88,3.49-8.3,7.87-8.93,4-6.54-3.49h-8.41c.45,1.54.19,3.84-1,6.91-6.16,16.39,2.16,8.94,8,15.05s-25.94,34.64,2.07,51.69C229.74,81.75,241,77.47,250,70Z"/><path class="cls-33" d="M170.15,0a44,44,0,0,1-2.29,4.68c-.35.64-.73,1.26-1.12,1.88l-.6.92c-.2.31-.4.61-.62.9s-.39.56-.59.83c-.69.93-1.41,1.84-2.17,2.71-.41.48-.83.95-1.27,1.4a1,1,0,0,1-.17.18c-.38.41-.77.8-1.17,1.18a8.08,8.08,0,0,1-.6.57c-.37.36-.75.7-1.14,1a2.61,2.61,0,0,1-.31.27c-.47.41-1,.81-1.45,1.2l-.08.06a43.86,43.86,0,0,1-27.12,9.34l-1.34,0a44.6,44.6,0,0,1-6.48-.67l-.85-.16-.53-.11L119.5,26c-.83-.19-1.66-.41-2.48-.65-.39-.11-.78-.23-1.16-.36l-1.21-.41c-.62-.22-1.23-.45-1.84-.71l-.1,0c-.45-.18-.89-.37-1.33-.57l-.4-.18-1.13-.55c-.46-.22-.91-.45-1.35-.7h0l-.07,0L107,21c-.91-.53-1.79-1.09-2.64-1.7l-.29-.2h0l-1-.71c-.1-.08-.21-.15-.31-.24l-.67-.52a.39.39,0,0,1-.1-.08l-.28-.22c-.25-.2-.49-.39-.72-.6l-.39-.33c-.15-.13-.3-.25-.44-.39-.29-.25-.57-.51-.85-.78a.41.41,0,0,1-.1-.09,3.07,3.07,0,0,1-.26-.25q-.72-.68-1.41-1.41c-.17-.17-.33-.34-.49-.52l-.23-.25L96.18,12c-.09-.11-.19-.22-.28-.34q-.47-.53-.9-1.08l0-.05c-.07-.09-.15-.18-.22-.28-.32-.4-.62-.81-.92-1.22l-.42-.58L93.13,8l-.06-.09-.15-.22-.44-.66-.27-.41-.13-.22q-.42-.66-.81-1.35l-.14-.24c-.24-.42-.47-.83-.69-1.25L90.16,3c-.09-.17-.17-.34-.25-.5l-.17-.35c-.08-.17-.16-.33-.23-.49s-.2-.42-.29-.63S89.05.71,89,.53s-.11-.25-.16-.38L88.76,0Z"/><path class="cls-34" d="M165.59,0a25.94,25.94,0,0,0,2.27,4.66c-.35.64-.73,1.26-1.12,1.88l-.6.92c-.2.31-.4.61-.62.9s-.39.56-.59.83c-.69.93-1.41,1.84-2.17,2.71-.41.48-.83.95-1.27,1.4a1,1,0,0,1-.17.18c-.38.4-.76.8-1.17,1.18a8.08,8.08,0,0,1-.6.57c-.37.36-.75.7-1.14,1a2.61,2.61,0,0,1-.31.27c-.47.41-1,.81-1.45,1.2l-.08.06a16.29,16.29,0,0,1-.28-3.6c.16-8.16,3.59-9.62.48-12.07A9.7,9.7,0,0,0,153.59.41c-2.13-.65-4-.08-4.32,2.54-.49,3.92-5.88,3.27-5.88,6.2,0,.74.07,1.86.13,3.14.19,3.79.28,8.93-1.92,9.28-1.89.31-4.92-1.13-7.1-3.5A9.83,9.83,0,0,1,132,13.4a6.56,6.56,0,0,0-1.23-2.88c-1.56-2-4.08-1.47-5.79,2.35-.06.12-.11.24-.16.36-2.28,5.55-8.48,3-10,5.91-.41.81-.93,1.92-1.45,3.2-.19.49-.39,1-.58,1.55l-.1,0-1.33-.57-.08,0c-.49-.22-1-.45-1.45-.69s-.91-.46-1.35-.7h0l-.07,0L107,21c-.9-.53-1.78-1.1-2.64-1.7l-.29-.2h0l-1-.71c-.1-.08-.21-.15-.31-.24l-.67-.52a.39.39,0,0,1-.1-.08l-.28-.22c-.15-.13-.31-.25-.46-.39a2.65,2.65,0,0,1-.26-.21l-.39-.33c-.15-.13-.3-.25-.44-.39-.29-.25-.57-.51-.85-.78a.41.41,0,0,1-.1-.09,3.07,3.07,0,0,1-.26-.25q-.72-.68-1.41-1.41c-.17-.17-.33-.34-.49-.52l-.23-.25L96.18,12c-.09-.11-.19-.22-.28-.34-.31-.35-.6-.71-.9-1.08l0-.05c-.07-.09-.14-.19-.22-.28-.32-.4-.62-.81-.92-1.22l-.69-1-.06-.09-.15-.22-.44-.66-.09-.15-.18-.26-.13-.22q-.42-.66-.81-1.35l-.14-.24c-.24-.42-.47-.83-.69-1.25L90.16,3c-.09-.17-.17-.34-.25-.5l-.17-.35c-.08-.17-.16-.33-.23-.49s-.2-.42-.29-.63S89.05.71,89,.53s-.11-.25-.16-.38L88.76,0h76.82Z"/><path class="cls-35" d="M137.61,5.51c.15,4.43,2.46,9,.73,8.91s-2.94-.74-3.06-6.12c0-.27,0-.53,0-.78,0-4.65.76-5-4.61-5-5.66,0-3.83-1.35-5.66,0s-1.84,3.06-6.12,3.55-5.39-2.82-6.86,0-.24,3.54-3.42,3.79c-1.07.08-1.86,0-2.44.1-1.16.08-1.48.43-1.48,2.47,0,2.66,4.9,7.07-.59,6.65h0l-1-.71c-.1-.08-.21-.15-.31-.24l-.67-.52a.39.39,0,0,1-.1-.08c-.25-.2-.5-.4-.74-.61a2.65,2.65,0,0,1-.26-.21l-.39-.33c-.15-.13-.3-.25-.44-.39-.29-.25-.57-.51-.85-.78a.41.41,0,0,1-.1-.09,3.07,3.07,0,0,1-.26-.25q-.72-.68-1.41-1.41c-.17-.17-.33-.34-.49-.52l-.23-.25L96.18,12c-.09-.11-.19-.22-.28-.34q-.47-.53-.9-1.08l0-.05c-.07-.09-.15-.18-.22-.28-.32-.4-.62-.81-.92-1.22l-.42-.58L93.13,8l-.06-.09-.15-.22-.44-.66-.09-.15c-.11-.16-.21-.32-.31-.48q-.42-.66-.81-1.35l-.14-.24c-.24-.42-.47-.83-.69-1.25L90.16,3c-.09-.17-.17-.34-.25-.5l-.17-.35c-.08-.17-.16-.33-.23-.49s-.2-.42-.29-.63S89.05.71,89,.53s-.11-.25-.16-.38L88.76,0h50.09c-.55,1.43-1.16,1.16-1.25,4.75C137.59,5,137.6,5.26,137.61,5.51Z"/><path class="cls-35" d="M161,0h1.62a6.56,6.56,0,0,1-.83,3.4c-1.22,1.72-3.91,6.24-2,0C160.32,2,160.72.88,161,0Z"/><path class="cls-36" d="M170.15,0a44,44,0,0,1-2.29,4.68c-.35.64-.73,1.26-1.12,1.88l-.6.92c-.2.31-.4.61-.62.9s-.39.56-.59.83c-.69.93-1.41,1.84-2.17,2.71-.41.48-.83.95-1.27,1.4a1,1,0,0,1-.17.18c-.38.41-.77.8-1.17,1.18a8.08,8.08,0,0,1-.6.57c-.37.36-.75.7-1.14,1a2.61,2.61,0,0,1-.31.27c-.47.41-1,.81-1.45,1.2l-.08.06a43.86,43.86,0,0,1-27.12,9.34l-1.34,0a44.6,44.6,0,0,1-6.48-.67l-.85-.16-.53-.11L119.5,26c-.83-.19-1.66-.41-2.48-.65-.39-.11-.78-.23-1.16-.36l-1.21-.41c-.62-.22-1.23-.45-1.84-.71l-.1,0-1.33-.57-.08,0L111,23.1l-1.13-.55c-.46-.22-.91-.45-1.35-.7a41.74,41.74,0,0,0,4.89.49c.68,0,1.37.06,2.06.06a43.69,43.69,0,0,0,19-4.33,43.16,43.16,0,0,0,9-5.78A44.07,44.07,0,0,0,153.59.41c.08-.14.16-.27.23-.41Z"/><path class="cls-37" d="M142.42,0a37.78,37.78,0,0,1-4.81,5.51c-.76.71-1.54,1.39-2.34,2a31.71,31.71,0,0,1-4.53,3A27.82,27.82,0,0,1,125,12.87a22.57,22.57,0,0,1-13.7-.3A21.56,21.56,0,0,1,106.16,10,24.92,24.92,0,0,1,97.82,0Z"/><path class="cls-38" d="M155.18,53.19a14.59,14.59,0,1,1,17.16,11.48A14.61,14.61,0,0,1,155.18,53.19Z"/><path class="cls-38" d="M166.65,36a14.58,14.58,0,0,0-8.16,4.73c2.52-.8,6-1.31,8.62.83,4.46,3.71,4.59,5.81,4.13,8-.41,2-11.38,11.57-16,3.76A14.59,14.59,0,1,0,166.65,36Z"/><path class="cls-38" d="M159.19,60.68A14.61,14.61,0,1,0,161.66,38c2.37-.48,6-.77,8.41,1.12,3.86,3,6.9,10.54,3.48,14.84C171.26,56.89,164.11,60.29,159.19,60.68Z"/><path class="cls-38" d="M172.34,64.67a14.61,14.61,0,0,0-.75-28.78c3.37,3.3,9.51,10.58,6.24,17.26C175,59,170,63,164.31,64A14.52,14.52,0,0,0,172.34,64.67Z"/><path class="cls-36" d="M169,35.75A14.61,14.61,0,0,1,167.49,64a15.17,15.17,0,0,1-2.3.27A14.6,14.6,0,1,0,169,35.75Z"/><path class="cls-37" d="M175.9,51.2c-.86,6.16-5.53,10.59-10.41,9.9s-8.14-6.24-7.28-12.4,5.53-10.6,10.42-9.91S176.77,45,175.9,51.2Z"/><path class="cls-39" d="M181.1,41.54a15.5,15.5,0,0,1,1.3,2c11.28-3.62,19.34-5.36,19.82-4.08.65,1.77-13.77,8.79-32.22,15.67s-33.94,11-34.6,9.24c-.51-1.35,7.74-5.76,19.87-10.82A16.31,16.31,0,0,1,155,51.2c-22.26,8.92-38.19,17.23-37.27,19.72,1.1,2.91,24.85-3.26,53.07-13.79S221,35.72,219.91,32.82C219,30.41,202.65,34.2,181.1,41.54Z"/><g class="cls-40"><path class="cls-41" d="M34.22,129.5a1.78,1.78,0,0,1-.44.17,4.88,4.88,0,0,1-2.29-.12c-.63-.27.08-.27.46-.34a3.32,3.32,0,0,1,1.14.14Z"/></g><path class="cls-42" d="M34.22,129.5a6.21,6.21,0,0,1-1.83.17c-.7-.07-.86-.36-.86-.36a1.61,1.61,0,0,1,.73-.41,5.52,5.52,0,0,0,1.36.07A1.16,1.16,0,0,1,34.22,129.5Z"/><path class="cls-43" d="M33.62,129a5.52,5.52,0,0,1-1.36-.07,2.5,2.5,0,0,1,.87,0C33.67,128.93,33.62,129,33.62,129Z"/><path class="cls-44" d="M33.65,129c.16.14.42.42.3.59l.27-.07A1.22,1.22,0,0,0,33.65,129Z"/><path class="cls-44" d="M32.76,128.91c.43,0,.54,0,.55,0l-.18,0a4.09,4.09,0,0,0-.69,0Z"/><path class="cls-45" d="M33.78,129.6a2.73,2.73,0,0,1-1.75-.27c-.13-.16,0-.31.1-.39a1.31,1.31,0,0,0-.6.37s.16.29.86.36A7.33,7.33,0,0,0,33.78,129.6Z"/><rect class="cls-46" y="113.61" width="250" height="46.39"/><path class="cls-37" d="M0,127.86s42.25-1.32,48.5,0,38.75,3.31,49.5,3.65,49.5,2.32,57.25,2.32-1.5,3.64-30.25,3-27.83.88-27,2,17.33,4,24.33,3.53,15.34,1.1,12.17,3.09,8.5,8,15.33,7.51S207,155.14,203,156.24s27.83-1.32,29.33,3.76H0Z"/><path class="cls-47" d="M60.5,117.85c3.67.7,27.17,1.51,28.83,3.27s45.84,1.77,49.17,2.43-15.33.89-11.83,4,48,.23,54.5-.18,19.16.63,28.66-.07a211.32,211.32,0,0,1,26.84,0c3,.41,13.33-1.07,13.33-1.07V113.61H53.22C43.33,116.78,57.13,117.2,60.5,117.85Z"/><path class="cls-48" d="M0,113.61v8.08c5.88-1.12,20.89,4,24.17,3.52,3.5-.55,22.66,1.33,25.54.55s31.46,3.21,38,3.18,19.92-.2,19.81-.64-3.31-1.6-8.93-1-23.38-.07-32.5-4-26.13-2.48-21.5-5.37-19.38-2.74-19.38-2.74l1.43-1.5Z"/><path class="cls-49" d="M250,129c-3.25.18-17.64,1-23.83,1-7,0-57.31.77-55.17,2.43,2.38,1.85.17,6.85-11.67,7.51s-16,1.07-16.16,3.74,21.83,2,24.83,1.78,40,2,38.49,4.42,9,2.43,14.51,2.87c5.16.42,14.28,3.55,29,2.84Z"/><polygon class="cls-46" points="4.67 143.69 7.87 143.62 10.45 143.01 11.88 142.97 15.07 143.46 21.06 143.95 15.1 143.69 15.97 144.06 11.85 143.57 10.1 143.61 8.05 143.88 4.67 143.69"/><polygon class="cls-46" points="18.41 153.79 21.28 153.73 23.61 153.31 24.9 153.28 27.77 153.58 33.16 153.87 27.8 153.73 28.58 153.97 24.87 153.67 23.29 153.7 21.45 153.9 18.41 153.79"/><path class="cls-50" d="M139.31,110.3c2.26.21,4.76.21,6.13.21h13.82c2,0,8.79,2,13.56,3.32,46.56,0,55.19,4.31,77.18,2.54V101.45c-1.82-.3-4.48-.7-6-.79-2.42-.14-5.74-2-7.67-1.19s-7,.67-9,1a60.45,60.45,0,0,1-7.8.44c-1.25,0-5.44-.44-8-.47h0c-.57,0-1.07,0-1.42,0a51.88,51.88,0,0,0-5.62.49c-2.87.46-5.27,1-7.36.76a43.47,43.47,0,0,0-6,0c-2.21.08-7.95,1.58-11.48,1.1s-7.36.37-9.51.09a25.27,25.27,0,0,0-8.38,1.32,13.3,13.3,0,0,1-4.42,1.79,28.41,28.41,0,0,0-6.81,1,36.76,36.76,0,0,1-6.05,1.6C143.72,108.8,141.36,109.75,139.31,110.3Z"/><path class="cls-50" d="M0,102.44v11.39c51.5,3.84,94.5,6,172.82,0-4.77-1.27-11.61-3.32-13.56-3.32H145.44c-1.37,0-3.87,0-6.13-.21a18.65,18.65,0,0,1-3.11-.49c-2.51-.71-9.15-1.41-11.2-2s-10.33-1-13-1-6-1.4-7.17-1.83a26.3,26.3,0,0,0-9.87.14c-2.78.85-4.93-.42-6.64-.7s-4.58-.28-5.92-.66-4.48,1.09-6.46.94-5.2.42-8,.71-3,.7-5,0A34,34,0,0,0,56.1,104c-1.71-.13-3.86,0-6.37,0s-3.32-.13-7.53-1.44-3.59.18-6.73-.64-6.1,1.39-9.16.36-9.23.46-10.93.11-6.46.22-9.6.07C4,102.41,1.72,102.42,0,102.44Z"/><polygon class="cls-46" points="153.19 149.96 157.16 149.87 160.37 149.18 162.15 149.14 166.11 149.66 173.56 150.18 166.16 149.93 167.24 150.33 162.28 150.16 159.92 150.13 157.39 150.16 153.19 149.96"/><polygon class="cls-46" points="110.69 151.9 114.59 151.81 117.75 151.25 119.49 151.21 123.38 151.61 130.7 152 123.42 151.82 124.49 152.15 119.46 151.73 117.32 151.78 114.82 152.05 110.69 151.9"/><polygon class="cls-47" points="170.79 118.45 70.51 118.45 70.51 108.75 75.71 106.64 81.01 98.06 85.42 96.37 88.51 91.59 96.56 85.54 100.04 84 101.64 82.03 104.3 82.03 106.9 85.65 110.63 90.57 114 87.93 116.01 84.7 120.83 80.09 123.01 78.3 124.62 78.97 126.49 82.24 126.91 83.92 130.04 81.53 132.01 80.27 133.91 80.66 135.7 83.78 135.14 85.26 135.98 89.09 138.58 92.08 141.5 96.8 143.01 100.73 143.01 105.9 148.04 106.61 151.35 108.01 151.35 111.46 154.65 111.7 159.96 112.72 164.89 115.25 170.79 118.45"/><path class="cls-51" d="M110.63,90.57,111.72,96l1,6.55-3,11s5.06-5.69,5.2-6,0-12.5,0-12.5l1.41-7.63L116,84.7l-2,3.23Z"/><polygon class="cls-51" points="88.51 91.59 87.15 98.38 86.49 111.46 85.46 114.93 85.46 109.96 83.59 101.9 81.01 98.06 85.42 96.37 88.51 91.59"/><polygon class="cls-51" points="126.91 83.92 127.84 91.11 126.91 102.74 131.78 110.66 128.69 101.24 130.47 90.83 132.01 80.27 130.04 81.53 126.91 83.92"/><polygon class="cls-51" points="123.11 118.45 119.17 118.45 121.14 113.63 119.17 107.6 121.14 92.99 121.14 106.75 123.81 112.58 122.55 116.2 123.11 118.45"/><polygon class="cls-51" points="101.87 118.45 95.12 118.45 96.81 111.69 99.2 100.3 99.06 88.42 101.87 101.45 99.76 109.87 100.61 114.93 101.87 118.45"/><polygon class="cls-51" points="75.71 106.64 74.58 110.01 74.91 113.19 76.74 116.62 73.41 113.19 72.47 110.43 70.51 108.75 75.71 106.64"/><polygon class="cls-51" points="143.01 105.9 143.5 108.93 143.01 112.87 144.25 114.49 143.63 111.63 144.82 108.74 144.82 106.15 143.01 105.9"/><polygon class="cls-52" points="151.35 111.46 151.62 113.9 153.26 116.34 153.26 117.37 153.82 115.68 152.58 113.71 152.89 111.57 151.35 111.46"/><polygon class="cls-51" points="135.98 89.09 135.21 92.99 136.33 99.12 137.25 109.16 138.44 101.92 136.47 94.82 137.13 90.42 135.98 89.09"/><polygon class="cls-51" points="136.47 118.45 135.21 118.45 136.12 114.93 135.21 111.46 133.59 103.89 135.56 110.19 136.82 113.55 136.54 117.37 136.47 118.45"/><polygon class="cls-51" points="101.64 82.03 101.64 87.46 103 95.05 103.93 98.38 101.64 94.02 100.75 87.64 100.04 84 101.64 82.03"/><polygon class="cls-52" points="154.65 111.7 157.19 114.93 161.6 115.68 164.41 116.71 170.79 118.45 165.98 115.85 159.96 112.72 154.65 111.7"/><polygon class="cls-51" points="148.04 106.61 148.85 109.76 149.9 112.4 150.71 115.6 153.26 116.34 151.62 113.9 151.35 111.46 151.35 108.01 148.04 106.61"/><polygon class="cls-52" points="138.58 92.08 138.58 95.31 140.69 99.32 142.31 103.4 141.68 107.27 141.78 111.46 143.01 112.87 143.5 108.93 143.01 105.9 143.01 100.73 141.5 96.8 138.58 92.08"/><polygon class="cls-52" points="133.91 80.66 133.06 83.39 133.66 88.56 133.59 94.92 135.63 99.92 136.89 105.3 136.33 99.12 135.21 92.99 135.98 89.09 135.14 85.26 135.7 83.78 133.91 80.66"/><polygon class="cls-52" points="123.01 78.3 122.2 85.22 122.76 91.13 124.02 95.77 126.91 102.74 127.84 91.11 126.91 83.92 126.49 82.24 124.62 78.97 123.01 78.3"/><polygon class="cls-52" points="104.3 82.03 103.28 86.17 105.53 92.57 108.9 99.53 112.7 102.55 110.63 90.57 104.3 82.03"/><polygon class="cls-51" points="96.56 85.54 94.56 92.99 95.12 100.65 92.8 112.26 92.38 100.16 91.11 92.99 94.18 87.33 96.56 85.54"/><polygon class="cls-46" points="250 67.85 250 116.77 181.1 116.77 181.49 115.35 182.14 113.03 194.77 103.79 198.37 99.63 201.53 95.98 201.53 71.3 202.91 68.35 205.04 63.8 205.72 63.8 208.12 67.76 208.36 81.62 211 87.89 211 63.3 214.79 59.63 214.79 59.62 217.3 57.19 220.29 61.4 220.29 49.93 222.33 40.28 224.79 40.28 230.97 49.44 230.97 57.85 232.82 60.17 234.98 55.54 236.78 46.72 241.7 46.72 245.54 51.09 248.65 59.84 248.65 83.85 250 67.85"/><polygon class="cls-53" points="224.79 40.27 226.99 58.35 226.99 81.34 224.79 96.19 231.71 109.07 228.59 92.89 231.07 82.77 231.07 69.13 230.97 57.85 230.97 49.44 224.79 40.27"/><polygon class="cls-53" points="241.7 46.71 243.86 57.58 244.26 71 243.7 92.56 246.26 72.76 246.26 60.11 245.54 51.09 241.7 46.71"/><polygon class="cls-53" points="205.72 63.79 205.72 70.67 206.68 81.67 206.2 101.92 207.96 87.5 208.36 81.62 208.12 67.75 205.72 63.79"/><polygon class="cls-53" points="217.29 57.19 217.29 66.71 218.83 74.67 218.83 91.24 217.29 105 218.83 112.26 218.83 104.34 221.39 89.48 221.71 73.09 219.5 65.83 220.29 61.4 217.29 57.19"/><polygon class="cls-53" points="201.53 95.97 201.53 100.48 200.05 105.44 200.05 112.92 197.49 107.75 198.53 101.92 198.37 99.63 201.53 95.97"/><polygon class="cls-54" points="222.33 40.27 223.07 45.36 222.7 52.52 222.33 64.4 223.07 77.05 221.39 89.48 221.71 73.09 219.5 65.83 220.29 61.4 220.29 49.93 222.33 40.27"/><polygon class="cls-54" points="232.82 60.16 233.86 66.71 233.86 80.54 235.3 66.27 235.78 59.67 237.38 52.19 238.22 46.71 236.78 46.71 234.98 55.54 232.82 60.16"/><polygon class="cls-54" points="250 67.85 250 85.73 249.49 86.85 248.65 83.85 250 67.85"/><polygon class="cls-54" points="214.79 59.62 213.88 64.88 213.56 74.41 212.36 90.03 209.96 102.99 211 87.89 211 63.3 214.79 59.62"/><polygon class="cls-54" points="202.91 68.35 202.91 74.67 202.05 80.54 201.53 95.97 201.53 71.3 202.91 68.35"/><polygon class="cls-54" points="194.77 103.78 194.69 104.45 194.37 106.98 190.29 111.05 186.38 114.13 185.5 116.77 181.1 116.77 182.14 113.03 194.77 103.78"/><path class="cls-46" d="M250,115.35v14.21H131.82s16.61-7.87,24.45-7.11,24.83-7.1,24.83-7.1Z"/><polygon class="cls-53" points="236.54 129.55 236.54 122.46 237.38 112.72 236.54 99.68 237.38 86.48 237.38 99.52 238.22 112.56 237.38 122.21 238.22 129.55 236.54 129.55"/><polygon class="cls-54" points="236.54 129.55 231.71 129.55 234.35 121.85 235.67 114.01 235.15 101.99 236.54 99.68 237.38 112.72 236.54 122.2 236.54 129.55"/><polygon class="cls-53" points="250 118.54 250 123.48 249.49 119.65 250 118.54"/><polygon class="cls-53" points="249.49 129.56 250 126.37 250 129.56 249.49 129.56"/><polygon class="cls-53" points="212.36 129.55 213.88 129.55 213.12 125.04 213.88 117.23 213.12 106.89 212.76 114.15 212.36 123.61 212.36 127.02 212.36 129.55"/><polygon class="cls-46" points="122.65 137.83 0 137.83 0 51.38 6.97 64.04 13.46 57.06 17.31 48.5 26.57 36.31 30.76 31.57 33.87 33.34 37.46 41.99 38.27 46.46 44.29 40.13 48.07 36.78 51.72 37.8 55.17 46.08 54.09 49.99 55.71 60.13 57.92 63.63 60.72 68.04 66.33 80.51 69.23 90.93 69.23 104.61 72.7 105.28 78.9 106.47 85.26 110.19 85.26 119.31 91.61 119.96 101.82 122.66 111.29 129.36 113.39 130.93 122.65 137.83"/><path class="cls-54" d="M7,64,9.06,78.4,11,95.75l-5.68,29.1s9.74-15.07,10-15.76,0-33.07,0-33.07L18,55.84l-.67-7.34-3.85,8.56Z"/><polygon class="cls-54" points="38.27 46.46 40.07 65.48 38.27 96.24 47.64 117.2 41.69 92.27 45.12 64.73 48.07 36.78 44.29 40.13 38.27 46.46"/><polygon class="cls-54" points="30.96 137.83 23.39 137.83 27.18 125.06 23.39 109.09 27.18 70.44 27.18 106.86 32.31 122.27 29.88 131.85 30.96 137.83"/><polygon class="cls-54" points="69.23 104.61 70.18 112.62 69.23 123.04 71.62 127.33 70.43 119.77 72.7 112.12 72.7 105.28 69.23 104.61"/><polygon class="cls-54" points="85.26 119.31 85.77 125.77 88.93 132.22 88.93 134.95 90.01 130.49 87.63 125.27 88.23 119.62 85.26 119.31"/><polygon class="cls-54" points="55.71 60.13 54.22 70.44 56.38 86.68 58.14 113.24 60.44 94.07 56.66 75.28 57.92 63.63 55.71 60.13"/><polygon class="cls-54" points="56.66 137.83 54.22 137.83 55.98 128.5 54.22 119.31 51.11 99.28 54.9 115.97 57.33 124.85 56.79 134.95 56.66 137.83"/><polygon class="cls-53" points="91.61 119.96 96.5 128.5 104.97 130.49 110.38 133.21 122.65 137.83 113.39 130.93 101.82 122.66 91.61 119.96"/><polygon class="cls-53" points="78.9 106.47 80.45 114.82 82.48 121.8 84.04 130.27 88.93 132.22 85.77 125.77 85.26 119.31 85.26 110.19 78.9 106.47"/><polygon class="cls-53" points="60.72 68.04 60.72 76.58 64.77 87.19 67.88 97.98 66.66 108.22 66.86 119.31 69.23 123.04 70.18 112.62 69.23 104.61 69.23 90.93 66.33 80.51 60.72 68.04"/><polygon class="cls-53" points="51.72 37.8 50.1 45.04 51.25 58.72 51.11 75.56 55.03 88.77 57.47 103 56.38 86.68 54.22 70.44 55.71 60.13 54.09 49.99 55.17 46.08 51.72 37.8"/><polygon class="cls-53" points="30.76 31.57 29.2 49.88 30.29 65.51 32.72 77.79 38.27 96.24 40.07 65.48 38.27 46.46 37.46 41.99 33.87 33.34 30.76 31.57"/><polygon class="cls-53" points="10.95 95.75 3.65 87.75 0 77.38 0 51.09 6.97 64.04 10.95 95.75"/><path class="cls-37" d="M68.67,137.83h29.2S84.63,136,77.5,136.25s-20.85,1.58-20.85,1.58Z"/><path class="cls-36" d="M127.11,135.05a2.72,2.72,0,0,0,.35-.17l-1.39-.15a4.23,4.23,0,0,0-1.4-.15c-.47.1-1.33.12-.55.44a6,6,0,0,0,2.59.13Z"/><polygon class="cls-36" points="126.69 135.16 126.71 135.15 126.7 135.16 126.69 135.16"/><path class="cls-53" d="M127.46,134.88a7.69,7.69,0,0,1-2.25.26c-.85-.08-1-.42-1-.42a1.92,1.92,0,0,1,.88-.53,7,7,0,0,0,1.68.07A1.4,1.4,0,0,1,127.46,134.88Z"/><path class="cls-55" d="M126.72,134.26a7,7,0,0,1-1.68-.07,3.63,3.63,0,0,1,1.07,0C126.77,134.2,126.72,134.26,126.72,134.26Z"/><path class="cls-55" d="M126.75,134.27c.19.16.52.49.38.71l.33-.1A1.41,1.41,0,0,0,126.75,134.27Z"/><path class="cls-55" d="M125.66,134.2c.52,0,.66,0,.68,0l-.23,0a4.39,4.39,0,0,0-.85,0Z"/><path class="cls-46" d="M126.93,135a3.26,3.26,0,0,1-2.16-.29c-.16-.2,0-.38.12-.48a1.51,1.51,0,0,0-.73.47s.2.34,1,.42A9.19,9.19,0,0,0,126.93,135Z"/><path class="cls-36" d="M198,154a4.73,4.73,0,0,0,.74-.36l-2.93-.31a8.76,8.76,0,0,0-2.93-.32c-1,.21-2.79.24-1.15.92a12.47,12.47,0,0,0,5.43.28Z"/><path class="cls-36" d="M197.16,154.26h0Z"/><path class="cls-53" d="M198.77,153.68a16.11,16.11,0,0,1-4.71.55c-1.8-.17-2.22-.89-2.22-.89a4,4,0,0,1,1.86-1.1,15.13,15.13,0,0,0,3.51.13A3,3,0,0,1,198.77,153.68Z"/><path class="cls-55" d="M197.21,152.37a15.13,15.13,0,0,1-3.51-.13,6.67,6.67,0,0,1,2.23-.09C197.32,152.26,197.21,152.37,197.21,152.37Z"/><path class="cls-55" d="M197.29,152.4c.39.34,1.08,1,.79,1.49a6.22,6.22,0,0,0,.69-.21A3,3,0,0,0,197.29,152.4Z"/><path class="cls-55" d="M195,152.25c1.1.08,1.38,0,1.42-.06l-.48,0a9.86,9.86,0,0,0-1.78,0A7.74,7.74,0,0,0,195,152.25Z"/><path class="cls-46" d="M197.64,154c-1.44.25-3.95,0-4.51-.63-.35-.41,0-.78.24-1a3.35,3.35,0,0,0-1.53,1s.42.72,2.22.89A20.42,20.42,0,0,0,197.64,154Z"/><path class="cls-36" d="M90.88,149.9a12.85,12.85,0,0,0,1.93-.93l-7.68-.82s-5.14-1.37-7.69-.83-7.31.62-3,2.4c4.14,1.71,11.21,1.19,14.22.74Z"/><path class="cls-36" d="M88.59,150.5l.06,0-.06,0Z"/><path class="cls-53" d="M92.81,149c-4.35,1.64-12.35,1.43-12.35,1.43-4.72-.42-5.82-2.31-5.82-2.31,1.17-1.82,4.88-2.9,4.88-2.9,3.51.8,9.19.34,9.19.34A7.87,7.87,0,0,1,92.81,149Z"/><path class="cls-55" d="M88.71,145.53s-5.68.46-9.19-.34a17.87,17.87,0,0,1,5.86-.23C89,145.25,88.71,145.53,88.71,145.53Z"/><path class="cls-55" d="M88.92,145.6c1,.91,2.82,2.72,2.06,3.92a15.3,15.3,0,0,0,1.83-.55A8,8,0,0,0,88.92,145.6Z"/><path class="cls-55" d="M82.9,145.23c2.88.19,3.62,0,3.71-.15L85.38,145a24.67,24.67,0,0,0-4.69,0C81.3,145.08,82,145.17,82.9,145.23Z"/><path class="cls-46" d="M89.86,149.75c-3.79.67-10.36.07-11.83-1.64-.92-1.07-.11-2,.63-2.63-1.17.44-3.21,1.35-4,2.61,0,0,1.1,1.89,5.82,2.31A53,53,0,0,0,89.86,149.75Z"/><path class="cls-36" d="M45.51,149a17,17,0,0,0,2.56-1.22L37.91,146.7s-6.79-1.82-10.16-1.1-9.67.83-4,3.17c5.48,2.27,14.84,1.57,18.82,1C42.57,149.75,45.12,149.12,45.51,149Z"/><path class="cls-36" d="M42.49,149.8l.08-.05-.08.05Z"/><path class="cls-53" d="M48.07,147.79c-5.76,2.16-16.34,1.89-16.34,1.89-6.24-.57-7.7-3.06-7.7-3.06,1.55-2.41,6.46-3.84,6.46-3.84,4.65,1.06,12.16.45,12.16.45C46.13,144.25,48.07,147.79,48.07,147.79Z"/><path class="cls-55" d="M42.65,143.23s-7.51.61-12.16-.45c0,0,2.33-.71,7.75-.29C43.05,142.86,42.65,143.23,42.65,143.23Z"/><path class="cls-55" d="M42.92,143.33c1.38,1.2,3.74,3.6,2.73,5.17a20.43,20.43,0,0,0,2.42-.71A10.5,10.5,0,0,0,42.92,143.33Z"/><path class="cls-55" d="M35,142.83c3.81.26,4.79,0,4.91-.2-.46,0-1-.1-1.63-.14a32.76,32.76,0,0,0-6.2,0A28.88,28.88,0,0,0,35,142.83Z"/><path class="cls-46" d="M44.16,148.81c-5,.89-13.7.1-15.64-2.16-1.22-1.42-.15-2.71.83-3.48-1.54.58-4.24,1.78-5.32,3.45,0,0,1.46,2.49,7.7,3.06A71.18,71.18,0,0,0,44.16,148.81Z"/><path class="cls-36" d="M229.73,144.83a33,33,0,0,0,4.81-2.3l-19.09-2.05s-12.77-3.4-19.1-2.07-18.17,1.56-7.5,6c10.29,4.26,27.88,3,35.35,1.84C224.2,146.22,229,145,229.73,144.83Z"/><path class="cls-36" d="M224.05,146.32l.15-.1a.67.67,0,0,0-.14.09Z"/><path class="cls-53" d="M234.54,142.53c-10.82,4.07-30.71,3.55-30.71,3.55-11.72-1.06-14.46-5.75-14.46-5.75,2.91-4.52,12.14-7.2,12.14-7.2,8.73,2,22.84.84,22.84.84C230.89,135.88,234.54,142.53,234.54,142.53Z"/><path class="cls-55" d="M224.35,134s-14.11,1.14-22.84-.84c0,0,4.38-1.35,14.55-.56C225.1,133.26,224.35,134,224.35,134Z"/><path class="cls-55" d="M224.86,134.15c2.59,2.26,7,6.77,5.13,9.73a36.57,36.57,0,0,0,4.55-1.35S231.08,136.25,224.86,134.15Z"/><path class="cls-55" d="M209.9,133.22c7.16.49,9,.08,9.24-.38-.88-.09-1.89-.18-3.08-.27a60,60,0,0,0-11.65.05C205.92,132.86,207.73,133.08,209.9,133.22Z"/><path class="cls-46" d="M227.19,144.46c-9.42,1.66-25.74.18-29.39-4.07-2.29-2.67-.28-5.09,1.57-6.53-2.91,1.08-8,3.33-10,6.47,0,0,2.74,4.69,14.46,5.75A133.48,133.48,0,0,0,227.19,144.46Z"/><path class="cls-46" d="M45.83,160h5.92l1.33-2.58,2.67-3.8L61,151.68l6.58-1.35s5.59,3.09,6.5,3.29,8.58,1,9.84,1,7.19-.33,7.19-.33L83.65,154s-5.32-1.76-5.57-1.82-4.75-.47-4.75-.47l-3.5-2.63-3.41-1.49,1.66-2.69L75.33,143l8.79-1.12h-9s-2.75.76-3.33,1a42.41,42.41,0,0,1-5,.76l-2.33,1.62-2,2.3-4.59.39H55.08l-3.5.55,1.84.55h3.23l-.4.75-3.75,1.1-1.75.31v2.41l-5.25.71H38.27l-3.5.17s7.54,1.75,7.88,1.75a8.43,8.43,0,0,0,2.85-.42c1-.41,1.83-1.16,3.33-1.16a20.92,20.92,0,0,0,3-.25l1.34-1.89.08,1.09-.83,1.46-3.25,1.5Z"/><path class="cls-56" d="M55,151.5l1.65-.58,2.23-1.4,2.93-.47,2.25-.8,2.32-2.82L65,149.05l2.88.47H64.56l-3.56.81a23.11,23.11,0,0,0-3.67,1.17,25.72,25.72,0,0,1-3.11,1.56Z"/><polygon class="cls-46" points="0 139.13 0 141.83 2.88 140.59 7.88 140.59 12.87 140.59 19.88 142.35 24.03 142.35 30.49 140.74 39.25 141.83 45.5 141.83 39.87 140.74 33.62 139.82 29.2 139.13 25.78 140.59 21.06 140.74 16.5 139.82 17.98 139.78 19.88 138.88 22.13 138.47 19.81 138.47 17.13 138.97 14.34 139.16 9.38 139.69 6.66 139.66 4.06 139.59 2.53 139.53 0.91 139.69 0 139.13"/><path class="cls-46" d="M109.13,140.41H95.75l-4.88,1.91h5.69l5.31-1,5.26,1,9.75,3.08,13.82.49s-3.11-.94-3.59-1-9-1.7-9-1.7l-4-.39Z"/><path class="cls-46" d="M250,131.75v5.06h-2.75l-4.12-1.06-3.5-2.31-5.09-1.12s-5.29-.2-5.66-.57-10.25-.5-10.25-.5H211l15.25-.63h4.88l6.25,1,5.25,1.26,4.62,1.82Z"/><path class="cls-46" d="M205,150.33l6-2h13.36c.39,0,6-1.49,6.77-1.05s7.09-1.22,7.09-1.22l-4.09,2.11-5.88,1.52-1.5.6s4.92,2.11,5.58,2.2,4.21,0,4.21,0l-4.83,1.36-4.52-.75-5.9-1.93-5.74-.88H211l-6,1.35Z"/><polygon class="cls-46" points="148.04 139.98 152.58 141.38 157.63 141.38 166.75 141.83 178.38 140.41 173.56 141.83 166.75 142.71 159.5 142.71 154.65 143.64 153.19 144.87 146 142.71 143.17 143.64 138.44 143.64 143.01 139.98 148.04 139.98"/><path class="cls-57" d="M42.49,9.4a2,2,0,0,0,1.81,1.75,2.06,2.06,0,0,0-1.81,1.75,2.08,2.08,0,0,0-1.82-1.75A2.06,2.06,0,0,0,42.49,9.4Z"/><g class="cls-58"><circle class="cls-59" cx="42.49" cy="11.15" r="1.58"/></g><path class="cls-57" d="M122.65,40.07a2.07,2.07,0,0,0,1.81,1.75,2.06,2.06,0,0,0-1.81,1.75,2.06,2.06,0,0,0-1.81-1.75A2.07,2.07,0,0,0,122.65,40.07Z"/><g class="cls-60"><path class="cls-59" d="M121.07,41.82a1.58,1.58,0,1,1,1.58,1.58A1.59,1.59,0,0,1,121.07,41.82Z"/></g><path class="cls-57" d="M234.54,24a2.06,2.06,0,0,0,1.82,1.75,2.08,2.08,0,0,0-1.82,1.75,2.06,2.06,0,0,0-1.81-1.75A2,2,0,0,0,234.54,24Z"/><g class="cls-61"><circle class="cls-59" cx="234.54" cy="25.75" r="1.58"/></g><path class="cls-57" d="M178.38,7.82a2.06,2.06,0,0,0,1.81,1.75,2,2,0,0,0-1.81,1.75,2.06,2.06,0,0,0-1.82-1.75A2.08,2.08,0,0,0,178.38,7.82Z"/><g class="cls-62"><circle class="cls-59" cx="178.37" cy="9.57" r="1.58"/></g><path class="cls-57" d="M70.51,55.44a2,2,0,0,0,1.81,1.75,2.06,2.06,0,0,0-1.81,1.75,2.08,2.08,0,0,0-1.82-1.75A2.06,2.06,0,0,0,70.51,55.44Z"/><g class="cls-63"><path class="cls-59" d="M68.93,57.19a1.58,1.58,0,1,1,1.58,1.59A1.58,1.58,0,0,1,68.93,57.19Z"/></g><path class="cls-57" d="M5.48,29.82a2.06,2.06,0,0,0,1.81,1.75,2,2,0,0,0-1.81,1.75,2.06,2.06,0,0,0-1.82-1.75A2.08,2.08,0,0,0,5.48,29.82Z"/><g class="cls-64"><circle class="cls-59" cx="5.47" cy="31.57" r="1.58"/></g><path class="cls-57" d="M14.52,9A.49.49,0,0,0,15,9.4a.49.49,0,0,0-.43.41.48.48,0,0,0-.42-.41A.48.48,0,0,0,14.52,9Z"/><g class="cls-65"><path class="cls-59" d="M14.15,9.4a.38.38,0,0,1,.75,0,.38.38,0,0,1-.75,0Z"/></g><path class="cls-57" d="M30.49,18.73a.49.49,0,0,0,.43.41.49.49,0,0,0-.43.41.48.48,0,0,0-.42-.41A.48.48,0,0,0,30.49,18.73Z"/><g class="cls-66"><circle class="cls-59" cx="30.49" cy="19.14" r="0.37"/></g><path class="cls-57" d="M65.45,12.19a.48.48,0,0,0,.42.41.48.48,0,0,0-.42.41A.49.49,0,0,0,65,12.6.49.49,0,0,0,65.45,12.19Z"/><g class="cls-67"><path class="cls-59" d="M65.07,12.6a.38.38,0,0,1,.75,0,.38.38,0,0,1-.75,0Z"/></g><path class="cls-57" d="M97.87,24.13a.47.47,0,0,0,.42.41.48.48,0,0,0-.42.42.5.5,0,0,0-.43-.42A.48.48,0,0,0,97.87,24.13Z"/><g class="cls-68"><path class="cls-59" d="M97.49,24.54a.38.38,0,1,1,.38.38A.38.38,0,0,1,97.49,24.54Z"/></g><path class="cls-57" d="M86.41,51.46a.49.49,0,0,0,.43.41.49.49,0,0,0-.43.41.49.49,0,0,0-.43-.41A.49.49,0,0,0,86.41,51.46Z"/><g class="cls-69"><path class="cls-59" d="M86,51.87a.37.37,0,1,1,.37.37A.37.37,0,0,1,86,51.87Z"/></g><path class="cls-57" d="M107.13,67.63a.49.49,0,0,0,.43.41.43.43,0,0,1-.86,0A.49.49,0,0,0,107.13,67.63Z"/><g class="cls-70"><circle class="cls-59" cx="107.13" cy="68.04" r="0.37"/></g><path class="cls-57" d="M133.59,33.27a.49.49,0,0,0,.43.41.49.49,0,0,0-.43.41.48.48,0,0,0-.42-.41A.48.48,0,0,0,133.59,33.27Z"/><g class="cls-71"><path class="cls-59" d="M133.22,33.68a.38.38,0,1,1,.37.37A.37.37,0,0,1,133.22,33.68Z"/></g><path class="cls-57" d="M149.85,28.32a.5.5,0,0,0,.43.42.48.48,0,0,0-.43.41.47.47,0,0,0-.42-.41A.48.48,0,0,0,149.85,28.32Z"/><g class="cls-72"><circle class="cls-59" cx="149.85" cy="28.74" r="0.37"/></g><path class="cls-57" d="M190.91,89.09a.49.49,0,0,0,.43.41.43.43,0,0,1-.86,0A.49.49,0,0,0,190.91,89.09Z"/><g class="cls-73"><path class="cls-59" d="M190.54,89.5a.37.37,0,1,1,.37.38A.37.37,0,0,1,190.54,89.5Z"/></g><path class="cls-57" d="M219.14,9.48a.48.48,0,0,0,.42.41.48.48,0,0,0-.42.42.5.5,0,0,0-.43-.42A.49.49,0,0,0,219.14,9.48Z"/><g class="cls-74"><path class="cls-59" d="M218.76,9.89a.38.38,0,1,1,.38.38A.38.38,0,0,1,218.76,9.89Z"/></g><path class="cls-57" d="M244,37.74a.48.48,0,0,0,.43.41.5.5,0,0,0-.43.42.48.48,0,0,0-.42-.42A.47.47,0,0,0,244,37.74Z"/><g class="cls-75"><path class="cls-59" d="M243.63,38.15a.38.38,0,0,1,.75,0,.38.38,0,1,1-.75,0Z"/></g><path class="cls-57" d="M193.7,51.87a.49.49,0,0,0,.43.41.43.43,0,0,1-.86,0A.49.49,0,0,0,193.7,51.87Z"/><g class="cls-76"><path class="cls-59" d="M193.33,52.28a.37.37,0,1,1,.37.37A.36.36,0,0,1,193.33,52.28Z"/></g><path class="cls-57" d="M167.06,25.34a.49.49,0,0,0,.43.41.43.43,0,0,1-.86,0A.49.49,0,0,0,167.06,25.34Z"/><g class="cls-77"><path class="cls-59" d="M166.69,25.75a.37.37,0,0,1,.37-.37.38.38,0,0,1,0,.75A.37.37,0,0,1,166.69,25.75Z"/></g><path class="cls-57" d="M193.7,18.48a.49.49,0,0,0,.43.41.43.43,0,0,1-.86,0A.49.49,0,0,0,193.7,18.48Z"/><g class="cls-78"><circle class="cls-59" cx="193.7" cy="18.89" r="0.37"/></g><path class="cls-57" d="M234.54,33.68a.49.49,0,0,0,.43.41.49.49,0,0,0-.43.41.48.48,0,0,0-.42-.41A.48.48,0,0,0,234.54,33.68Z"/><g class="cls-79"><path class="cls-59" d="M234.17,34.09a.38.38,0,0,1,.75,0,.38.38,0,0,1-.75,0Z"/></g><path class="cls-57" d="M238.22,6.48a.49.49,0,0,0,.43.41.43.43,0,0,1-.86,0A.49.49,0,0,0,238.22,6.48Z"/><g class="cls-80"><path class="cls-59" d="M237.85,6.89a.38.38,0,0,1,.37-.37.38.38,0,0,1,0,.75A.38.38,0,0,1,237.85,6.89Z"/></g><path class="cls-57" d="M165.19,88.83a.49.49,0,0,0,.43.41.43.43,0,0,1-.86,0A.49.49,0,0,0,165.19,88.83Z"/><g class="cls-81"><circle class="cls-59" cx="165.19" cy="89.24" r="0.37"/></g><path class="cls-57" d="M143.92,73a.48.48,0,0,0,.42.41.48.48,0,0,0-.42.41.49.49,0,0,0-.43-.41A.49.49,0,0,0,143.92,73Z"/><g class="cls-82"><path class="cls-59" d="M143.54,73.42a.38.38,0,1,1,.38.37A.37.37,0,0,1,143.54,73.42Z"/></g><path class="cls-57" d="M92.81,73.82a.49.49,0,0,0,.43.41.49.49,0,0,0-.43.41.48.48,0,0,0-.42-.41A.48.48,0,0,0,92.81,73.82Z"/><g class="cls-83"><path class="cls-59" d="M92.44,74.23a.38.38,0,0,1,.75,0,.38.38,0,0,1-.75,0Z"/></g><path class="cls-57" d="M87.63,67.43a.5.5,0,0,0,.43.42.49.49,0,0,0-.43.41.48.48,0,0,0-.42-.41A.48.48,0,0,0,87.63,67.43Z"/><g class="cls-84"><circle class="cls-59" cx="87.63" cy="67.85" r="0.37"/></g><path class="cls-57" d="M64.29,36.37a.49.49,0,0,0,.43.41.49.49,0,0,0-.43.41.48.48,0,0,0-.42-.41A.48.48,0,0,0,64.29,36.37Z"/><g class="cls-85"><path class="cls-59" d="M63.92,36.78a.38.38,0,1,1,.37.37A.37.37,0,0,1,63.92,36.78Z"/></g><path class="cls-57" d="M74.51,75.85a.49.49,0,0,0,.43.42.47.47,0,0,0-.43.41.47.47,0,0,0-.43-.41A.49.49,0,0,0,74.51,75.85Z"/><g class="cls-86"><path class="cls-59" d="M74.14,76.27a.38.38,0,0,1,.37-.38.38.38,0,0,1,0,.75A.38.38,0,0,1,74.14,76.27Z"/></g><path class="cls-57" d="M141,51.23a.49.49,0,0,0,.43.41.49.49,0,0,0-.43.41.48.48,0,0,0-.42-.41A.48.48,0,0,0,141,51.23Z"/><g class="cls-87"><circle class="cls-59" cx="141.04" cy="51.64" r="0.37"/></g><polygon class="cls-88" points="15.54 14.49 17.74 13.73 22.87 14.49 18.9 14.94 15.54 14.49"/><polygon class="cls-46" points="18.9 14.94 15.54 14.49 15.89 16.32 17.74 19.03 18.62 22.35 20.46 18.28 22.18 16.51 22.87 14.49 18.9 14.94"/><polygon class="cls-56" points="17.74 19.03 17.86 17.8 17.74 16.74 18.08 15.62 17.19 16.16 17.01 17.32 17.01 17.96 17.74 19.03"/><polygon class="cls-53" points="22.18 16.51 22.87 14.49 18.9 14.94 19.21 16.49 19.05 18.04 18.55 20.26 18.62 22.35 20.46 18.28 22.18 16.51"/><polygon class="cls-89" points="20.46 18.28 20.85 16.16 21.39 15.2 21.39 16.18 21.31 17.41 20.46 18.28"/><polygon class="cls-90" points="19.35 13.97 17.74 13.73 15.54 14.49 15.71 14.51 17.38 14.34 18.75 14.49 19.98 14.34 19.35 13.97"/><polygon class="cls-50" points="145.66 79.17 155.87 75.67 179.79 79.17 161.27 81.31 145.66 79.17"/><polygon class="cls-46" points="161.27 81.31 145.66 79.17 147.29 87.7 155.87 100.34 159.99 115.83 168.57 96.84 176.58 88.62 179.79 79.17 161.27 81.31"/><polygon class="cls-56" points="155.87 100.34 156.46 94.61 155.87 89.68 157.47 84.45 153.31 86.99 152.5 92.4 152.5 95.37 155.87 100.34"/><polygon class="cls-53" points="176.58 88.62 179.79 79.17 161.27 81.31 162.72 88.52 162 95.72 159.69 106.08 159.99 115.83 168.57 96.84 176.58 88.62"/><polygon class="cls-89" points="168.57 96.84 170.37 86.99 172.91 82.53 172.91 87.09 172.51 92.79 168.57 96.84"/><polygon class="cls-91" points="163.4 76.77 155.87 75.67 145.66 79.17 146.42 79.28 154.22 78.49 160.62 79.17 166.31 78.49 163.4 76.77"/><polygon class="cls-46" points="216.42 15.23 209.35 27.91 204.07 37.38 197.78 28.82 190.41 18.79 189.41 7.93 196.76 0 210.2 0 214.91 9.43 216.42 15.23"/><polygon class="cls-50" points="216.42 15.23 209.35 27.91 204.07 37.38 205.98 14.01 202.91 9.16 204.18 0 210.2 0 214.91 9.43 216.42 15.23"/><polygon class="cls-53" points="216.41 15.23 212.81 13.13 209.66 3.56 209.66 3.42 207.41 4.38 208.01 13.13 210.47 16.87 209.35 27.91 216.41 15.23"/><polygon class="cls-56" points="190.41 18.79 194.58 18.87 196.14 12.03 197.78 14.69 195.28 20.16 197.78 28.82 190.41 18.79"/><polygon class="cls-46" points="85.99 56.86 78.3 69.68 78.78 77.52 85.32 86.41 91.22 75.82 90.5 65.89 85.99 56.86"/><polygon class="cls-50" points="91.22 75.82 90.5 65.89 85.99 56.86 84.76 65.75 86.23 72.59 85.32 86.41 91.22 75.82"/><polygon class="cls-53" points="91.22 75.82 89.49 72.16 87.99 67.59 87.99 63.01 86.91 67.98 87.2 72.16 88.38 76.61 87.84 81.89 91.22 75.82"/><polygon class="cls-56" points="78.78 77.52 80.78 74.91 81.52 71.64 82.31 75.56 81.11 78.18 82.31 82.32 78.78 77.52"/><polygon class="cls-53" points="204.18 0 202.91 9.16 189.41 7.93 196.76 0 204.18 0"/></g></g></g></svg>