<svg xmlns="http://www.w3.org/2000/svg" xmlns:xlink="http://www.w3.org/1999/xlink" viewBox="0 0 250 160"><defs><style>.cls-1{fill:#414042;}.cls-2{fill:url(#linear-gradient);}.cls-3{fill:url(#linear-gradient-2);}.cls-4{fill:url(#linear-gradient-3);}.cls-5{isolation:isolate;}.cls-6{fill:url(#linear-gradient-4);}.cls-7{fill:url(#linear-gradient-5);}.cls-8{fill:url(#linear-gradient-6);}.cls-9{fill:url(#linear-gradient-7);}.cls-10{fill:#7a6817;}.cls-11{fill:#87c1b9;}.cls-12{fill:#61b0a5;}.cls-13{fill:#231f20;}.cls-13,.cls-21{mix-blend-mode:screen;}.cls-14{fill:#0a5564;}.cls-15{fill:#55a69b;}.cls-16{fill:#4a9188;}.cls-17{fill:#0c6b7e;}.cls-18{mix-blend-mode:multiply;}.cls-19{fill:#e6e7e8;}.cls-20{fill:#3c808d;}.cls-21{fill:#111010;}.cls-22{fill:#08434f;}.cls-23{mask:url(#mask);}.cls-24{fill:url(#linear-gradient-8);}.cls-25{mask:url(#mask-2);}.cls-26{fill:#07effd;}.cls-27{fill:#5fffff;}.cls-28{mask:url(#mask-3);}.cls-29{mask:url(#mask-4);}.cls-30{fill:#fff;}</style><linearGradient id="linear-gradient" x1="-119.65" y1="-62.41" x2="-119.65" y2="-70.94" gradientTransform="translate(234.95 156.08) rotate(45)" gradientUnits="userSpaceOnUse"><stop offset="0" stop-color="#fff"/><stop offset="1"/></linearGradient><linearGradient id="linear-gradient-2" x1="-188.23" y1="133.87" x2="-188.23" y2="116.16" xlink:href="#linear-gradient"/><linearGradient id="linear-gradient-3" x1="-60.77" y1="-40.76" x2="-60.77" y2="-56.81" xlink:href="#linear-gradient"/><linearGradient id="linear-gradient-4" x1="125" y1="135" x2="125" y2="2.98" gradientUnits="userSpaceOnUse"><stop offset="0" stop-color="#f1f2f2"/><stop offset="0.14" stop-color="#24a7c3"/><stop offset="1" stop-color="#1c0539"/></linearGradient><linearGradient id="linear-gradient-5" x1="152.84" y1="139.21" x2="44.99" y2="27.88" gradientTransform="translate(97.76 -49.32) rotate(45)" gradientUnits="userSpaceOnUse"><stop offset="0.04" stop-color="#24a7c3"/><stop offset="1" stop-color="#1c0539"/></linearGradient><linearGradient id="linear-gradient-6" x1="88" y1="149.79" x2="87" y2="94.54" gradientTransform="matrix(1, 0, 0, 1, 0, 0)" xlink:href="#linear-gradient-5"/><linearGradient id="linear-gradient-7" x1="195.33" y1="148.67" x2="195.33" y2="117.93" gradientTransform="matrix(1, 0, 0, 1, 0, 0)" xlink:href="#linear-gradient-5"/><mask id="mask" x="154.02" y="22.66" width="19.97" height="19.97" maskUnits="userSpaceOnUse"><path class="cls-1" d="M154.63,36.08A10,10,0,1,1,167.44,42,10,10,0,0,1,154.63,36.08Z"/></mask><linearGradient id="linear-gradient-8" x1="-123.08" y1="132.26" x2="-123.08" y2="152.66" gradientTransform="translate(97.1 207.98) rotate(159.9)" xlink:href="#linear-gradient-5"/><mask id="mask-2" x="193.67" y="20.41" width="7.74" height="7.74" maskUnits="userSpaceOnUse"><path class="cls-2" d="M195.18,27.82h0l.05-.07,6.17-7.33-7.34,6.17-.06.05h0l-.09.07a.84.84,0,1,0,1.2,1.19A.27.27,0,0,0,195.18,27.82Z"/></mask><mask id="mask-3" x="5.52" y="103.24" width="16.08" height="16.08" maskUnits="userSpaceOnUse"><path class="cls-3" d="M8.67,118.63h0l0,0,.09-.13L21.6,103.24,6.37,116.06l-.13.09,0,0h0a.8.8,0,0,0-.17.15,1.75,1.75,0,1,0,2.48,2.48Z"/></mask><mask id="mask-4" x="219.28" y="71.24" width="14.57" height="14.57" maskUnits="userSpaceOnUse"><path class="cls-4" d="M222.13,85.18h0l0,0a.83.83,0,0,0,.08-.12l11.62-13.8-13.8,11.62-.12.08h0l-.15.13A1.59,1.59,0,0,0,222,85.34,1,1,0,0,0,222.13,85.18Z"/></mask></defs><g class="cls-5"><g id="圖層_2" data-name="圖層 2"><g id="Layer_1" data-name="Layer 1"><path class="cls-6" d="M250,160H0V0H250Z"/><circle class="cls-7" cx="108.41" cy="93.35" r="59.26" transform="translate(-34.25 104) rotate(-45)"/><path class="cls-8" d="M172.29,135.91l-1.31-.38L169.2,135h0c-1.73-.5-3.38-1-4.74-1.28l-.39-.09-.41-.1h-.05l-.56-.11h0l-.32-.06-.62-.1-.37,0q-7.28-.37-14.55-.6c-1.44-.05-4.07-.12-6.45-.35a24.56,24.56,0,0,1-3.27-.49c-2.63-.67-9.63-1.32-11.8-1.79s-10.93-.79-13.78-.71a24.28,24.28,0,0,1-6.3-1h.14a8.7,8.7,0,0,0-3.29-.8c-1.83,0-4.29-1.74-4.3-1.74h-.19l-2-2.56c-.18-.82-.35-1.63-.53-2.45-.35-.56-.71-1.12-1.06-1.69-.09-2-.17-3.9-.26-5.86-.28-.61-.56-1.23-.83-1.84l-.43.12h0l-.42.11L92,112.82l-.46-.89-1.19.06c-.11.37-.23.74-.34,1.12l-.42,2c-.07,1.59-.13,3.18-.19,4.76l-.24-4.71-.75-1.68-.86-.81-.74,0h-.31c-.09.59-.19,1.17-.29,1.76l-.4.93-.42-.43-.09-1.65-1.42-1.73-.52,0-.33,1.91c0,.75.09,1.5.14,2.25l-.69-.78c-.17.16-.33.33-.5.5h0l-.76.77.3,4.82L80.92,120c-.08-.91-.15-1.81-.22-2.72-.19-.24-.37-.49-.56-.74H80c-.14.31-.27.61-.4.92h0l-.25.6c.1,1.61.21,3.22.31,4.83l-.62.76h0l-.7.87c-.85.66-1.68,1.32-2.52,2,0,.15-.07.31-.1.46h-.08s-3.43,1.8-5.07,1.78c-1.42,0-4.09,1.33-4.79,1.71h0l-.62.11c-2.91.48-3.07.87-5.31.47a40.63,40.63,0,0,0-7.32-.49c-1.81.07-4.07.43-6.73.73s-3.52.29-8.11-.27-3.77.64-7.18.38-6.27,2.07-9.62,1.69S11.2,135,9.36,135s-6.09,1.15-9.36,1.7v10.24c51.86-5.7,96-9.65,175.71-10Z"/><path class="cls-9" d="M250,134.55V148.9c-13-1.87-22.16-5-40.91-8-2.07-.34-4.25-.67-6.56-1-7.38-1-16.13-2.05-26.82-3-2-.59-4.31-1.29-6.52-1.92h0c-2.1-.61-4.09-1.15-5.57-1.48a13.73,13.73,0,0,0-2-.32q-7.28-.37-14.55-.6c-1.44-.05-4.07-.12-6.45-.35,2.17-.43,4.68-1.17,5.46-1.25a51.74,51.74,0,0,0,6.43-1.16,35.24,35.24,0,0,1,7.25-.56,8.57,8.57,0,0,0,1.93-.33,20.3,20.3,0,0,0,2.83-1,31.13,31.13,0,0,1,8.95-.57c2.27.39,6.38,0,10.09.68s9.91,0,12.27.17a51.14,51.14,0,0,1,6.33.66h.07l.56.08a8.8,8.8,0,0,0,1.06.12l.51,0,.36,0c.71,0,1.47,0,2.27,0h.68l.8,0,1.44,0h.24c.81,0,1.45,0,2,0l1.12.08s0,0,.05,0l1.45.13h0c.4,0,.82.07,1.32.09h.33l.83.1.36.05h0l.24,0c.48.06,1,.15,1.55.25l1.08.19,1.6.32,1.81.36c.94.19,1.71.34,2.15.41,1.61.22,6.21.84,8.3.86s7.46,1,9.62.65C245.66,132.5,247.91,133.7,250,134.55Z"/><path class="cls-10" d="M43.3,147.73s-3.24.32-7.46.85l-.17,0c-6.4.8-15,2-17.86,2.68-1.42.31-4,.69-7,1.08h0c-3.52.46-7.57.95-10.82,1.35V152H0a1.15,1.15,0,0,1,.15.41s.41.1.51.11.13.12.09.29-.3.12,0,.18.41-.09.62-.07a.88.88,0,0,0,.48-.09c.26-.09,0,0,.44-.26s.18-.23.48-.29.17.17.31,0a.84.84,0,0,1,.64-.36,1,1,0,0,0,.64-.31c.12-.16.12-.33.31-.26a1.85,1.85,0,0,0,.84-.05c.2-.07.41,0,.43.06s.52.18.7.18.12-.29.17,0,0,.45.15.43.15.06.38.19.11.15.25,0,.13-.18.33-.19.26-.05.3-.09-.05,0,.16-.16a1.38,1.38,0,0,0,.41-.25c.11-.12,0-.12.2-.18l.58-.21h.18s.06,0,.17-.16.19-.26.28-.27.28-.12.35-.09.05.09.19.06a.52.52,0,0,0,.28-.09,1.1,1.1,0,0,0,.21-.14c.13-.08.14-.06.18-.1l.23-.21s.11-.09.19-.05a.53.53,0,0,0,.38-.05,2.35,2.35,0,0,1,.17-.2,2.12,2.12,0,0,1,.2-.17s.25-.19.37-.18a1.43,1.43,0,0,0,.41-.06,2.5,2.5,0,0,1,.64,0c.06,0,0,.13.3.08s.62-.17.71-.19a2,2,0,0,1,.54,0c.14,0,0,.06.31,0s.41-.16.47-.06.26.17.57.07l.52-.15a2.94,2.94,0,0,0,.55.16c.13,0,.18-.06.35,0a.3.3,0,0,1,.22.15.71.71,0,0,0,.45.07c.09,0,.17-.07.26-.06s.19.13.36.1.13-.09.28-.07a1,1,0,0,0,.41,0c.13,0,.12-.13.2,0s0,.12.16.14.13-.08.28,0,.1.13.24.09.29-.09.37-.06.05.1.17,0,.2,0,.28-.1,0-.06.14-.1a1.35,1.35,0,0,1,.35-.07c.08,0,.18-.14.25-.13s.3-.08.35,0,.2.1.32,0,.25-.19.34-.19l.3,0a1.05,1.05,0,0,0,.36-.19c.08-.06.28-.16.28-.18s.08-.13.14-.13a1.09,1.09,0,0,0,.24-.14c.09-.06,0-.14.22-.16a2.12,2.12,0,0,0,.47-.12c.14,0,.46-.22.52-.18a.62.62,0,0,0,.33.07,4.14,4.14,0,0,0,.47,0,1.39,1.39,0,0,0,.35,0c.17,0,.26-.11.37-.09a.74.74,0,0,1,.4.08.37.37,0,0,0,.24.08c.09,0,.13-.08.18,0s.14,0,.22,0,.08,0,.19,0a.45.45,0,0,0,.28,0c.11,0,.21-.08.28,0s.13.14.26.07.16-.14.25-.12.13.06.31-.07a.46.46,0,0,1,.38-.09,4.81,4.81,0,0,0,.6.29c.09,0,0,0,.18-.1a3.33,3.33,0,0,0,.39-.21c.25-.15.28-.18.26-.25s-.16-.16.07-.27a2.76,2.76,0,0,0,.5-.3.82.82,0,0,1,.45-.2c.14,0,.23,0,.41-.11a1.63,1.63,0,0,1,.5-.24.55.55,0,0,0,.37-.14.42.42,0,0,1,.32-.15c.1,0,.15-.13.27-.18s.47-.14.48-.07.32.12.39.11.35-.17.44-.2a.14.14,0,0,1,.16,0s.19.09.27-.13.52-.09.65-.09.3.17.45.19.49.17.63.2,0,.1.19.2a1.18,1.18,0,0,0,.46.21c.13,0,0,.21.16.22s.35.15.52.14.47.19.57.17.21.15.39.14a.89.89,0,0,1,.45,0,2.67,2.67,0,0,0,.72.05c.13,0,0,.14.14.15s.15-.11.27,0,.14.17.25.17.26.07.36.06S43.3,147.73,43.3,147.73Z"/><path class="cls-11" d="M250,144.82V160H0V145L.41,145c1.43-.27,2.86-.52,4.29-.77Q11.41,143,18.12,142c2-.31,4-.62,6.06-.91h.07c2.06-.3,4.12-.6,6.18-.88,1.77-.25,3.53-.48,5.29-.71.94-.13,1.89-.25,2.83-.36l5-.62,5.9-.67q6.21-.68,12.42-1.25c2.46-.22,4.92-.44,7.38-.63,1.74-.15,3.48-.28,5.22-.41l.53,0,6.11-.41c1.77-.12,3.54-.22,5.31-.32l2.17-.12,4.94-.25.84,0c1.92-.09,3.85-.17,5.77-.24l6.32-.2h.06c2.1-.06,4.21-.11,6.31-.14h.38c1.85,0,3.7-.06,5.55-.07h.79c2,0,4,0,6,0q4.11,0,8.21.05,2.06,0,4.11.06c2.77.05,5.53.12,8.3.2h.16c.94,0,1.86.06,2.8.09l3.78.14,4.06.17,4.06.2,4.07.22c1.35.07,2.71.15,4.06.24h0l2.23.14,2.8.19q8.53.6,17.06,1.4h.18a5.8,5.8,0,0,0,.6.06q4.43.44,8.85.91,1.22.12,2.43.27l.43,0,4.35.51,1.34.16c2.07.25,4.15.51,6.22.79l2.34.3c2.92.39,5.85.8,8.77,1.23l1.42.21.43.07c2.31.34,4.61.7,6.92,1.07l.53.08c2,.32,4,.64,6,1l.95.16q3.24.56,6.47,1.14Z"/><path class="cls-12" d="M250,154.37V160H105.1a44.8,44.8,0,0,0,5.37-1.3h0c4.21-1.29,7.23-2.95,5.39-3.68-3.25-1.28,5.25-2.47,12.41-2.13s24.07-1.17,25-1.81,1.87-2.07-27.69-1.9c-29.52.63-39.15-.75-31.18-1.29,7.95-.74,47.93-2.33,59.07-1.69,3.7,0,9.89.13,16.76.35,13.75.43,30.17,1.12,34.54,1.21a13.2,13.2,0,0,1,1.46,0C214,148,239.48,152.32,250,154.37Z"/><path class="cls-13" d="M202.53,139.9h0c-2.74.14-7.62-.2-9.49-.14-3.87,0-28.45-1.31-30.24-.08-1.8.62-47.81-.23-51.27.77-3.46.45,16,.38,12.33,2.51-3.62,1.6-49.72,1.53-56.49,2.34-6.76.28-19.77,2.29-29.62,3.12l-1.9.16-.17,0a246.22,246.22,0,0,0-24.83,3.76h0c-.27,0-.5.11-.68.16-1.88.47-6.72,1-10.14,1.39V145L.41,145c1.43-.27,2.86-.52,4.29-.77Q11.41,143,18.12,142c2-.31,4-.62,6.06-.91h.07c2.06-.3,4.12-.6,6.18-.88,1.77-.25,3.53-.48,5.29-.71.94-.13,1.89-.25,2.83-.36l5-.62,5.9-.67q6.21-.69,12.42-1.25c2.46-.22,4.92-.44,7.38-.63,1.74-.15,3.48-.28,5.22-.41l.53,0,6.11-.41c1.77-.12,3.54-.22,5.31-.32l2.17-.12,4.94-.25.84,0c1.92-.09,3.85-.17,5.77-.24l6.32-.2h.06c2.1-.06,4.21-.11,6.31-.14h.38c1.85,0,3.7-.06,5.55-.07h.79c2,0,4,0,6,0q4.11,0,8.21.05,2.06,0,4.11.06c2.77.05,5.53.12,8.3.2,1,0,2,.06,3,.09l3.78.14,4.06.17,4.06.2,4.07.22,4,.23h0l2.23.14,2.8.19q8.53.6,17.06,1.4h.18a5.8,5.8,0,0,0,.6.06q4.43.44,8.85.91l.55.18C205.64,139.3,204.89,139.78,202.53,139.9Z"/><path class="cls-12" d="M250,144.83v5.53c-7.22-.71-17.36-.37-19.91-1-3.55-1-23.5-2.39-26.41-3.15-2.94-1.06-32.75-1.05-39.54-1.23-6.77-.45-20.49-1-20.49-1.27s3.46-1,9.28-.38,24.2,1.19,33.91-.54c9.73-1.89,27.32,1.26,22.73-1.22-.54-.31-.67-.53-.48-.69,1.43-1.17,20.91,1.5,20.9,1.62-.44-.4-.86-.79-1.3-1.17,0,0,0,0,0,0,2.31.34,4.61.7,6.92,1.07l.53.08c2,.32,4,.64,6,1l.95.16q3.24.56,6.47,1.14Z"/><path class="cls-12" d="M107,154c.21,1.68-22.19,2.19-25.26,2.36-1.92-.17-17,1.74-27.72,3.63H0v-4.39c5.73-.85,16.14-2.31,21.2-3,7.13-1.77,59-6.51,56.92-4.7-2.36,1.43.16,4.51,12.28,4.29S106.81,152.25,107,154Z"/><path class="cls-13" d="M248.22,156.28c.06-.17-30.36-7.73-43.15-8.63-12.72-1.28-33.95-1.12-35.75-1.09A686.19,686.19,0,0,1,248.22,156.28Z"/><path class="cls-14" d="M216.84,160H103.94l1.81-.46a31.57,31.57,0,0,1,4.72-.84h0c15.53-1.77,50,.81,79.4.09A173.58,173.58,0,0,1,216.84,160Z"/><path class="cls-11" d="M191.11,136.84q17.88,1.69,35.67,4.29l.66-4.49-1.72-1.25c-.44-1.42-.88-2.83-1.33-4.25l-1.48-1-.81-2.38-2.54-3.2-1.17-.88-.46-1-1-.13-1.16,1.56c-.55.71-1.1,1.41-1.64,2.12l-1.07-1.38-.54-1.59-1.5-2.36-.7-.92-.62.24c-.29.48-.58,1-.86,1.44l-.25.76-1-1.24-.65-.67-.71.1c-.28.46-.55.92-.82,1.38,0,.24.08.47.13.71l-.51,1.75-1.1,1.29-1.3,2.07c-.25.59-.5,1.18-.74,1.78l-.27,2.4-1.84.14-1.25.53c-.06.53-.11,1.07-.17,1.6h-1.19l-1.95.29-1.88,1Z"/><path class="cls-15" d="M214.16,126.24c-.24.82-.47,1.65-.71,2.47-.25,1-.49,2-.73,3,.14,1.75.28,3.5.41,5.25,0,0-1.47-2.88-1.51-3s.71-5.81.71-5.81c0-1.2,0-2.4-.07-3.61l.29-1.27.54,1.59Z"/><path class="cls-15" d="M222.1,127.76l.06,3.22-.6,6.1c.05.56.09,1.11.14,1.66.11-.77.21-1.53.32-2.3l1.19-3.65,1.18-1.65-1.48-1Z"/><path class="cls-15" d="M208.62,122.43c-.24,1.11-.49,2.21-.73,3.31-.1,1.81-.19,3.63-.29,5.44-.73,1.16-1.46,2.32-2.18,3.49l1.62-4.26c0-1.64-.06-3.28-.08-4.91v-5l.65.67Z"/><path class="cls-15" d="M208.09,138.65l1.4.17c-.14-.77-.28-1.55-.43-2.33l1.05-2.72q0-3.44.11-6.87-.39,3.19-.77,6.4c-.43.86-.86,1.72-1.28,2.59.08.58.17,1.16.25,1.74Z"/><path class="cls-15" d="M215.65,139.59l2.39.32-.18-3.22c-.05-1.8-.1-3.6-.16-5.4l.78-5.51c-.61,2-1.21,3.95-1.81,5.92.09,1.33.17,2.67.25,4l-.61,2.32Z"/><path class="cls-15" d="M225.72,135.39l.18,1.62-.33,1.46-.88,1.49,1.41-1.41c.18-.41.35-.83.53-1.24l.81-.67Z"/><path class="cls-15" d="M201.64,132c-.1.47-.21.93-.32,1.39l0,1.85-.52.71.36-1.31-.27-1.39.12-1.2Z"/><path class="cls-15" d="M198.38,134.27l-.21,1.13-.71,1.07-.05.48c0-.27-.08-.53-.11-.8l.53-.88c0-.33,0-.67,0-1Z"/><path class="cls-15" d="M205.05,124.46c0,.61,0,1.23.08,1.84-.25.94-.49,1.88-.73,2.81-.29,1.55-.57,3.09-.85,4.64l-.06-3.42,1.08-3.23c0-.69,0-1.38,0-2.07Z"/><path class="cls-15" d="M203.34,138.1l.45.05c0-.55-.09-1.11-.14-1.67l.51-1.58c.32-1.15.65-2.31,1-3.46-.35.95-.7,1.9-1,2.86l-.63,1.51c0,.59-.07,1.19-.1,1.78Z"/><path class="cls-15" d="M217.93,122.69l-.33,2.52c-.32,1.15-.63,2.31-.95,3.46-.18.5-.36,1-.53,1.5l1.08-1.91.72-2.92c.15-.55.31-1.11.47-1.66Z"/><path class="cls-16" d="M197.19,134.26l-1.06,1.41-1.61.2-1.05.38-2.36.59,1.84-1.05,2.29-1.24Z"/><path class="cls-16" d="M199.8,132.14c-.14.48-.29,1-.44,1.43l-.51,1.19c-.15.49-.29,1-.44,1.46l-.95.25.71-1.07.21-1.13c.06-.53.11-1.07.17-1.6Z"/><path class="cls-16" d="M204,125.75c-.06.5-.11,1-.17,1.5l-1,1.78c-.27.61-.53,1.22-.79,1.83l0,1.83c-.09.65-.17,1.3-.26,1.95l-.51.6,0-1.85c.11-.46.22-.92.32-1.39l.27-2.4c.24-.6.49-1.19.74-1.78Z"/><path class="cls-16" d="M206.25,120.62c.05.43.11.87.16,1.31-.16.79-.33,1.58-.49,2.38-.1,1-.21,2-.31,3-.33.75-.67,1.49-1,2.24l-.74,2.45c.18-1,.35-1.9.53-2.85s.48-1.87.73-2.81c0-.61-.06-1.23-.08-1.84l.51-1.75c-.05-.24-.09-.47-.13-.71C205.7,121.54,206,121.08,206.25,120.62Z"/><path class="cls-16" d="M210.35,120c0,1.08,0,2.16-.08,3.25l-.54,2.72c-.23.7-.47,1.4-.71,2.1-.48,1-1,2.08-1.42,3.12.1-1.81.19-3.63.29-5.44.24-1.1.49-2.2.73-3.31l.25-.76c.28-.48.57-1,.86-1.44Z"/><path class="cls-16" d="M217,122.56c0,.66.08,1.32.13,2-.41,1-.8,1.92-1.2,2.87l-1.63,3.08-1.54,1.23c.47-1.82,1-3.65,1.44-5.47Z"/><path class="cls-15" d="M219.56,124.56l.27,3.56c-.23,1.17-.46,2.35-.68,3.53,0,1.83.07,3.66.11,5.49q.45-2.79.91-5.59l.9-3.26-.75-2.78Z"/><polygon class="cls-12" points="86.44 144.5 88.17 142.45 99.04 143.76 109.03 142.45 111.69 144.12 99.17 146.05 86.44 144.5"/><polygon class="cls-17" points="88.17 142.45 94.35 141.51 101.24 141.51 109.03 142.45 99.04 143.76 88.17 142.45"/><polygon class="cls-14" points="94.35 142.64 92.3 142.95 99.04 143.76 104.56 143.04 101.24 142.64 94.35 142.64"/><polygon class="cls-17" points="101.24 141.51 101.23 141.51 101.13 142.64 104.56 143.04 109.03 142.45 101.24 141.51"/><polygon class="cls-17" points="94.35 141.51 94.35 142.64 92.3 142.95 88.17 142.45 94.35 141.51"/><path class="cls-13" d="M93,142.84l1.36-.23h0q1.7,0,3.39,0c.56,0,1.13,0,1.69,0h1.7q1.28.16,2.55.36l-2.56-.26H97.74q-1.69,0-3.39,0h0Z"/><polygon class="cls-12" points="25.49 148.31 26.88 146.01 37.82 145.65 47.49 142.81 50.37 144.06 38.3 147.88 25.49 148.31"/><polygon class="cls-17" points="26.88 146.01 32.84 144.14 39.65 143.08 47.49 142.81 37.82 145.65 26.88 146.01"/><polygon class="cls-14" points="33.02 145.25 31.04 145.87 37.82 145.65 43.16 144.08 39.83 144.19 33.02 145.25"/><polygon class="cls-17" points="39.65 143.08 39.64 143.08 39.71 144.21 43.16 144.08 47.49 142.81 39.65 143.08"/><polygon class="cls-17" points="32.84 144.14 33.02 145.25 31.04 145.87 26.88 146.01 32.84 144.14"/><path class="cls-13" d="M31.71,145.66l1.3-.44h0l3.34-.55,1.68-.26,1.67-.24h0c.86,0,1.71,0,2.57,0l-2.57.13h0l-1.67.27-1.68.26c-1.11.18-2.23.34-3.35.49h0Z"/><polygon class="cls-12" points="136.15 142.04 139.16 138.96 156.41 142.38 172.57 141.48 176.63 144.47 156.35 146.06 136.15 142.04"/><polygon class="cls-17" points="139.16 138.96 149.17 138.2 160.21 139.04 172.57 141.48 156.41 142.38 139.16 138.96"/><polygon class="cls-14" points="149.04 140.01 145.72 140.26 156.41 142.38 165.34 141.88 160.08 140.84 149.04 140.01"/><polygon class="cls-17" points="160.21 139.04 160.2 139.03 159.89 140.83 165.34 141.88 172.57 141.48 160.21 139.04"/><polygon class="cls-17" points="149.17 138.2 149.04 140.01 145.72 140.26 139.16 138.96 149.17 138.2"/><path class="cls-13" d="M146.84,140.17,149,140h0c1.81.1,3.62.23,5.43.36.91.06,1.81.14,2.72.21l2.71.22h0c1.35.28,2.69.58,4,.88-1.35-.23-2.71-.47-4.06-.73h0l-2.72-.18-2.71-.2c-1.81-.14-3.62-.29-5.43-.46h0Z"/><g class="cls-18"><path class="cls-19" d="M71.27,151.09a10.16,10.16,0,0,1-2.15,1.32c-1.17.5-8,2.38-12,1.39-3.52-.88.15-1.5,2.06-2.21s6-.25,6-.25Z"/></g><path class="cls-20" d="M71.27,151.09c-3.18,1.77-9.39,2.54-9.39,2.54-3.7.21-4.77-1.12-4.77-1.12.69-1.54,3.44-2.81,3.44-2.81a30.46,30.46,0,0,0,7.15-.8A6.16,6.16,0,0,1,71.27,151.09Z"/><path class="cls-11" d="M67.7,148.9a30.46,30.46,0,0,1-7.15.8,13.94,13.94,0,0,1,4.5-.85C67.9,148.64,67.7,148.9,67.7,148.9Z"/><path class="cls-20" d="M67.87,148.93c.91.58,2.5,1.78,2,2.79a14.23,14.23,0,0,0,1.35-.63A6.21,6.21,0,0,0,67.87,148.93Z"/><path class="cls-11" d="M63.17,149.34c2.25-.18,2.8-.4,2.85-.55l-1,.06a18.29,18.29,0,0,0-3.62.56C61.91,149.41,62.48,149.39,63.17,149.34Z"/><path class="cls-14" d="M69.07,152c-2.85,1-8,1.26-9.34.11-.83-.73-.32-1.57.19-2.11a6.8,6.8,0,0,0-2.81,2.48s1.07,1.33,4.77,1.12A41.59,41.59,0,0,0,69.07,152Z"/><g class="cls-18"><path class="cls-19" d="M204.49,153.46a9.94,9.94,0,0,1-2.43.7c-1.25.18-8.31.19-11.92-1.83-3.17-1.77.54-1.4,2.57-1.58s5.89,1.35,5.89,1.35Z"/></g><path class="cls-20" d="M204.49,153.46c-3.53.87-9.73,0-9.73,0-3.62-.77-4.31-2.33-4.31-2.33,1.08-1.31,4.07-1.8,4.07-1.8a30.5,30.5,0,0,0,7.1,1.11A6.12,6.12,0,0,1,204.49,153.46Z"/><path class="cls-11" d="M201.62,150.4a30.5,30.5,0,0,1-7.1-1.11,13.87,13.87,0,0,1,4.57.36C201.89,150.21,201.62,150.4,201.62,150.4Z"/><path class="cls-20" d="M201.78,150.48c.72.8,1.94,2.37,1.24,3.23a12.14,12.14,0,0,0,1.47-.25A6.22,6.22,0,0,0,201.78,150.48Z"/><path class="cls-11" d="M197.14,149.63c2.22.42,2.81.36,2.9.22l-.95-.2a19,19,0,0,0-3.65-.42A17.46,17.46,0,0,0,197.14,149.63Z"/><path class="cls-14" d="M202.12,153.79c-3,.17-8.05-.91-9-2.37-.62-.92.1-1.6.73-2a6.86,6.86,0,0,0-3.37,1.66s.69,1.56,4.31,2.33A42.11,42.11,0,0,0,202.12,153.79Z"/><polygon class="cls-14" points="46.03 138.2 52.89 139.96 63.09 140.9 70.76 143.04 82.12 145.75 73.75 142.23 66.02 139.96 60.55 139.38 54.95 138.2 55.14 137.21 46.03 138.2"/><polygon class="cls-14" points="151.21 160 143.73 158.07 137.72 155 127.6 152.86 120.23 152.86 128.1 151.56 137.35 153.71 143.09 153.92 145.22 150.73 150.58 149.82 164.46 149.82 176.63 150.36 167.71 150.73 158.34 150.73 148.43 151.56 146.84 154.24 152.71 156.28 161.96 160 151.21 160"/><path class="cls-14" d="M108.32,136.47h8.58l10.16-.64h6.66l6.17.32-6.42.32H128l-5.17,1.11,4,2.36,5.33.65a33.39,33.39,0,0,1-5.25,0A11.83,11.83,0,0,1,124.1,139l-4.95-1.66-3.08-.09-5.67.09h-3.27L99.57,139l6.17-2.21Z"/><path class="cls-14" d="M250,148.9v6l-7-2.43-5.25-1.75h-8.42l-7.78.9-8.84,3.28,3.4-2.43,7.43-2.66-4.4-.92-8.79-2.36s-4.77-1-4.92-1.06-6.79,0-6.79,0l5.81-1.11-1.82-1.86-5.33-.88-11-1.37-4.87-.35,14.84-.09,7.63,1.31,3.14,2.65,2.26.84,5.62,1.13,4.86,1.07,6.5-.28-1.88-1.79,5.38-.69,4.43.63h-4.56l-2.2.79,1.7,1.43L227,148v1.23h3.69l2.5-.33h3.5l4.81-1,3.25,1.88,1.87,1.3Z"/><polygon class="cls-14" points="0.15 147.47 0.15 152.03 8.13 149.82 17.03 149.23 22.27 149.43 20.03 148.31 16.03 147.47 18.03 146.01 22.78 145.56 28.65 143.2 33.65 142.45 26.88 142.45 24.28 143.2 21.79 145.08 17.21 145.08 15.53 146.01 14.56 147.47 10.71 148.31 7.05 148.31 3.88 148.31 0.15 147.47"/><path class="cls-21" d="M214.5,59.49c-28,5.06-19-1.81-40.87-13.93-7.12-4-11-6.36-13.54-7.6H153c-2.11,1-5.09,2.57-10.38,4.56-18.15,6.84-35,3-48,0S80.5,40.93,50.67,53.77,36,62.93,20.56,61.9C12.15,61.35,4.88,65.71,0,69.79v3.45c4.75-2.38,10.7-5,11.46-3.43,1.29,2.62.84,3.39-1.81,6.63C7.55,79,3.82,86.54,0,89.22v8.6A71.48,71.48,0,0,0,14.54,82.93c6.55-9.24,31-6.5,39.38-13.82S81,58.68,100.65,58.49s27.85,1.44,43.15-2.82,27.7-4.24,39.76,6S195,69.43,213.49,70.9s19.13-1.18,31.1-6.53A17,17,0,0,1,250,63.09V56.64C241,55.57,230.25,56.64,214.5,59.49ZM94.3,53c-4.67,2.6-8.42-2.49-14.55,0S65,57.63,66.38,54.66s6.14-3,9.21-5.6c0,0,2.66-4.19,7-2.91s3.75,4.58,8.75,1.68S99,50.34,94.3,53Zm67-3.89c-6.58,0-10.08,1-12.83,2.12s-9.39-3.63,3.47-8.42c0,0,5.36-1.77,7.53-.59S161,45.68,164,46.76,167.83,49,161.25,49.06Zm77.13,15.37c-8.13.75-7.63,2-11.51,2.11s-4.24-2.24-.49-4.86c0,0,5.37-3,10-2s3.87,2.54,7,.89S246.5,63.68,238.38,64.43Z"/><polygon class="cls-12" points="62.34 108.41 67.83 106.53 80.71 108.41 70.74 109.56 62.34 108.41"/><polygon class="cls-14" points="70.74 109.56 62.34 108.41 63.21 113 67.83 119.81 70.05 128.14 74.67 117.92 78.98 113.49 80.71 108.41 70.74 109.56"/><polygon class="cls-22" points="67.83 119.81 68.15 116.72 67.83 114.07 68.69 111.25 66.45 112.62 66.02 115.53 66.02 117.13 67.83 119.81"/><polygon class="cls-17" points="78.98 113.49 80.71 108.41 70.74 109.56 71.52 113.44 71.13 117.32 69.89 122.89 70.05 128.14 74.67 117.92 78.98 113.49"/><polygon class="cls-14" points="74.67 117.92 75.64 112.62 77 110.21 77 112.67 76.79 115.74 74.67 117.92"/><polygon class="cls-13" points="71.89 107.12 67.83 106.53 62.34 108.41 62.74 108.47 66.94 108.04 70.39 108.41 73.45 108.04 71.89 107.12"/><polygon class="cls-14" points="45.39 59.91 33.15 80.31 33.91 92.8 44.32 106.96 53.71 90.1 52.56 74.28 45.39 59.91"/><polygon class="cls-12" points="53.71 90.1 52.56 74.28 45.39 59.91 43.43 74.07 45.77 84.94 44.32 106.96 53.71 90.1"/><polygon class="cls-13" points="53.71 90.1 50.96 84.27 48.57 76.98 48.57 69.7 46.85 77.61 47.31 84.27 49.19 91.35 48.33 99.75 53.71 90.1"/><polygon class="cls-22" points="33.91 92.8 37.09 88.64 38.28 83.44 39.53 89.68 37.62 93.84 39.53 100.44 33.91 92.8"/><polygon class="cls-14" points="147 90.82 144.99 98.45 146.39 102.36 151.02 105.91 152.45 99.67 150.62 94.73 147 90.82"/><polygon class="cls-12" points="152.45 99.67 150.62 94.73 147 90.82 147.69 95.51 149.44 98.76 151.02 105.91 152.45 99.67"/><polygon class="cls-14" points="152.45 99.67 151.03 98.06 149.59 95.96 148.92 93.64 149.1 96.32 149.87 98.4 151.12 100.48 151.63 103.24 152.45 99.67"/><polygon class="cls-22" points="146.39 102.36 147.02 100.74 146.91 98.97 147.89 100.85 147.67 102.35 148.89 104.28 146.39 102.36"/><polygon class="cls-14" points="198.29 117.33 193.42 120.71 192.32 123.62 193.23 127.9 197.09 125.03 198.44 121.33 198.29 117.33"/><polygon class="cls-12" points="197.09 125.03 198.44 121.33 198.29 117.33 196.39 120.34 195.81 123.05 193.23 127.9 197.09 125.03"/><polygon class="cls-14" points="197.09 125.03 197.06 123.43 197.26 121.53 198.01 119.88 196.81 121.5 196.23 123.06 195.93 124.85 194.88 126.67 197.09 125.03"/><polygon class="cls-22" points="192.32 123.62 193.46 123 194.27 121.94 193.91 123.49 193.05 124.24 192.81 125.93 192.32 123.62"/><g class="cls-23"><path class="cls-24" d="M154.63,36.08A10,10,0,1,1,167.44,42,10,10,0,0,1,154.63,36.08Z"/></g><g class="cls-25"><path class="cls-26" d="M195.18,27.82h0l.05-.07,6.17-7.33-7.34,6.17-.06.05h0l-.09.07a.84.84,0,1,0,1.2,1.19A.27.27,0,0,0,195.18,27.82Z"/><path class="cls-26" d="M194,27.79a.69.69,0,0,1,0-1l.07-.06h0l.06,0,4.4-3.46-3.46,4.39,0,.06h0l-.06.07A.69.69,0,0,1,194,27.79Z"/></g><circle class="cls-27" cx="194.52" cy="27.3" r="0.72"/><path class="cls-27" d="M195,27.81a.71.71,0,0,0,0-1,.61.61,0,0,0-.16-.12h0s.2.17.1.27-.1.21-.2.16-.13-.07-.21,0-.17.09-.24,0-.26-.08-.19-.2,0-.14,0-.21a.69.69,0,0,0-.13.11.71.71,0,1,0,1,1Z"/><path class="cls-27" d="M195.1,26.89c0,.06-.09.35-.21.37s-.14.17-.32.11-.08.11-.24,0-.11.05-.25-.12l-.2-.23a.7.7,0,0,0,.13.83.72.72,0,0,0,1.09-.92Z"/><path class="cls-27" d="M195.15,27c-.05.1-.15.32-.12.39s-.15.21-.24.24-.12-.06-.23,0-.18.2-.28.1-.12-.18-.19-.2-.12,0-.16-.12a1.25,1.25,0,0,0-.1-.31.73.73,0,0,0,.18.71.71.71,0,0,0,1,0A.73.73,0,0,0,195.15,27Z"/><path class="cls-27" d="M195.1,26.88a.72.72,0,0,1-1.2.71l-.07-.08a.67.67,0,0,0,.18.3.71.71,0,0,0,1,0A.73.73,0,0,0,195.1,26.88Z"/><path class="cls-27" d="M194.24,26.64c0,.07.09.15.12.12s.09.06,0,.14.08.1.18,0,.09,0,.1.1.12,0,.17,0,0-.07-.08-.16.06-.12.06-.12A.73.73,0,0,0,194.24,26.64Z"/><g class="cls-28"><path class="cls-26" d="M8.67,118.63h0l0,0,.09-.13L21.6,103.24,6.37,116.06l-.13.09,0,0h0a.8.8,0,0,0-.17.15,1.75,1.75,0,1,0,2.48,2.48Z"/><path class="cls-26" d="M6.28,118.56a1.42,1.42,0,0,1,0-2,.58.58,0,0,1,.14-.12h0l.11-.08,9.15-7.2-7.2,9.13-.08.12v0l-.12.14A1.42,1.42,0,0,1,6.28,118.56Z"/></g><circle class="cls-27" cx="7.28" cy="117.55" r="1.49"/><path class="cls-27" d="M8.34,118.6a1.48,1.48,0,0,0,0-2.1,2,2,0,0,0-.34-.25H8s.4.35.21.58-.2.42-.43.33-.25-.15-.42,0-.36.2-.51,0-.53-.17-.4-.41,0-.29,0-.43a2.47,2.47,0,0,0-.27.21,1.49,1.49,0,0,0,2.11,2.1Z"/><path class="cls-27" d="M8.5,116.69c0,.13-.19.73-.44.78s-.28.34-.66.21-.17.24-.5-.08-.24.11-.53-.24-.3-.35-.41-.48a1.46,1.46,0,0,0,.27,1.72,1.49,1.49,0,0,0,2.27-1.91Z"/><path class="cls-27" d="M8.59,116.85c-.09.19-.3.65-.24.8s-.31.44-.49.49-.26-.11-.49.08-.37.43-.57.22-.27-.37-.41-.41-.24.1-.33-.26a2.2,2.2,0,0,0-.2-.64,1.49,1.49,0,1,0,2.73-.28Z"/><path class="cls-27" d="M8.49,116.68A1.49,1.49,0,0,1,6,118.16a1.19,1.19,0,0,1-.15-.18,1.49,1.49,0,0,0,2.48.62A1.49,1.49,0,0,0,8.49,116.68Z"/><path class="cls-27" d="M6.72,116.18c0,.15.18.31.25.25s.17.11,0,.28.16.2.37,0,.17-.06.2.2.25,0,.36-.09,0-.15-.16-.32.12-.26.12-.26A1.51,1.51,0,0,0,6.72,116.18Z"/><g class="cls-29"><path class="cls-26" d="M222.13,85.18h0l0,0a.83.83,0,0,0,.08-.12l11.62-13.8-13.8,11.62-.12.08h0l-.15.13A1.59,1.59,0,0,0,222,85.34,1,1,0,0,0,222.13,85.18Z"/><path class="cls-26" d="M220,85.12a1.28,1.28,0,0,1,0-1.81.65.65,0,0,1,.12-.11h0l.11-.07,8.28-6.53L222,84.87l-.08.1v0l-.11.12A1.28,1.28,0,0,1,220,85.12Z"/></g><path class="cls-27" d="M219.92,83.26a1.35,1.35,0,1,1,0,1.9A1.35,1.35,0,0,1,219.92,83.26Z"/><path class="cls-27" d="M221.83,85.16a1.33,1.33,0,0,0,0-1.9,1.09,1.09,0,0,0-.3-.23h0s.36.32.19.52-.19.38-.39.3-.23-.13-.38,0-.33.18-.47,0-.48-.14-.35-.36,0-.27,0-.4a1.57,1.57,0,0,0-.25.2,1.35,1.35,0,1,0,1.91,1.9Z"/><path class="cls-27" d="M222,83.43c0,.11-.17.66-.4.71s-.25.3-.59.19-.16.21-.46-.07-.22.09-.48-.23-.27-.31-.37-.43a1.35,1.35,0,1,0,2.3-.17Z"/><path class="cls-27" d="M222.06,83.57c-.08.18-.27.59-.22.73s-.27.39-.44.44-.23-.1-.45.08-.33.38-.51.19-.24-.33-.37-.37-.22.09-.3-.23a2.3,2.3,0,0,0-.18-.59,1.35,1.35,0,1,0,2.47-.25Z"/><path class="cls-27" d="M222,83.42a1.35,1.35,0,0,1-2.25,1.34,1.09,1.09,0,0,1-.13-.17,1.32,1.32,0,0,0,.33.57A1.35,1.35,0,0,0,222,83.42Z"/><path class="cls-27" d="M220.36,83c0,.14.17.29.23.23s.16.1,0,.25.15.19.33,0,.16-.06.19.18.22,0,.32-.08,0-.13-.14-.29.1-.24.11-.24A1.39,1.39,0,0,0,220.36,83Z"/><path class="cls-27" d="M35.13,37.11a.46.46,0,0,0,.4.38.46.46,0,0,0-.4.39.46.46,0,0,0-.4-.39A.46.46,0,0,0,35.13,37.11Z"/><path class="cls-27" d="M41.67,38.88a.46.46,0,0,0,.4.38.46.46,0,0,0-.4.39.46.46,0,0,0-.4-.39A.46.46,0,0,0,41.67,38.88Z"/><path class="cls-27" d="M74.67,34.78a.44.44,0,0,0,.4.38.46.46,0,0,0-.4.39.46.46,0,0,0-.4-.39A.44.44,0,0,0,74.67,34.78Z"/><path class="cls-27" d="M93.74,22.27a.46.46,0,0,0,.4.39.4.4,0,0,1-.8,0A.46.46,0,0,0,93.74,22.27Z"/><path class="cls-27" d="M117,22.66a.44.44,0,0,0,.4.38.4.4,0,0,1-.8,0A.44.44,0,0,0,117,22.66Z"/><path class="cls-27" d="M132.91,12.67a.46.46,0,0,0,.4.39.46.46,0,0,0-.4.39.45.45,0,0,0-.39-.39A.45.45,0,0,0,132.91,12.67Z"/><path class="cls-27" d="M158.29,15.88a.46.46,0,0,0,.4.39.4.4,0,0,1-.8,0A.46.46,0,0,0,158.29,15.88Z"/><path class="cls-27" d="M189,14.06a.46.46,0,0,0,.4.39.4.4,0,0,1-.8,0A.46.46,0,0,0,189,14.06Z"/><path class="cls-27" d="M175.84,36.25a.45.45,0,0,0,.4.38.45.45,0,0,0-.4.39.46.46,0,0,0-.4-.39A.46.46,0,0,0,175.84,36.25Z"/><path class="cls-27" d="M163.94,53.36a.46.46,0,0,0,.4.39.46.46,0,0,0-.4.39.45.45,0,0,0-.4-.39A.45.45,0,0,0,163.94,53.36Z"/><path class="cls-27" d="M39.64,107.66a.39.39,0,1,1,0,.77.39.39,0,1,1,0-.77Z"/><path class="cls-27" d="M14.55,96.66a.46.46,0,0,0,.4.39.44.44,0,0,0-.4.38.44.44,0,0,0-.4-.38A.46.46,0,0,0,14.55,96.66Z"/><path class="cls-27" d="M25.49,92.31a.39.39,0,1,1,0,.77.39.39,0,1,1,0-.77Z"/><path class="cls-27" d="M35.53,84.34a.44.44,0,0,0,.4.38.46.46,0,0,0-.4.39.46.46,0,0,0-.4-.39A.44.44,0,0,0,35.53,84.34Z"/><path class="cls-27" d="M27.19,79.76a.46.46,0,0,0,.4.39.46.46,0,0,0-.4.38.46.46,0,0,0-.4-.38A.46.46,0,0,0,27.19,79.76Z"/><path class="cls-27" d="M17,115.14a.39.39,0,1,1,0,.77.39.39,0,1,1,0-.77Z"/><path class="cls-27" d="M160.53,32.66a.46.46,0,0,0,.4.38.4.4,0,0,1-.8,0A.46.46,0,0,0,160.53,32.66Z"/><path class="cls-27" d="M175.44,37.49a.46.46,0,0,0,.4.39.4.4,0,0,1-.8,0A.46.46,0,0,0,175.44,37.49Z"/><path class="cls-27" d="M186.29,46.55a.44.44,0,0,0,.4.38.4.4,0,0,1-.8,0A.44.44,0,0,0,186.29,46.55Z"/><path class="cls-27" d="M200.5,39.26a.46.46,0,0,0,.4.39.4.4,0,0,1-.8,0A.46.46,0,0,0,200.5,39.26Z"/><path class="cls-27" d="M211.66,31.22a.46.46,0,0,0,.4.38.4.4,0,0,1-.8,0A.46.46,0,0,0,211.66,31.22Z"/><path class="cls-27" d="M220.15,21.89a.44.44,0,0,0,.4.38.4.4,0,0,1-.8,0A.44.44,0,0,0,220.15,21.89Z"/><path class="cls-27" d="M226.17,28.14a.46.46,0,0,0,.4.39.4.4,0,0,1-.8,0A.46.46,0,0,0,226.17,28.14Z"/><path class="cls-27" d="M204.25,46.14a.76.76,0,0,0,.66.64.74.74,0,0,0-.66.63.74.74,0,0,0-.66-.63A.75.75,0,0,0,204.25,46.14Z"/><path class="cls-27" d="M180.12,53.5a.75.75,0,0,0,.65.64.73.73,0,0,0-.65.63.74.74,0,0,0-.66-.63A.76.76,0,0,0,180.12,53.5Z"/><path class="cls-27" d="M157.49,45.27a.76.76,0,0,0,.66.64.75.75,0,0,0-.66.64.74.74,0,0,0-.66-.64A.75.75,0,0,0,157.49,45.27Z"/><path class="cls-27" d="M118.93,30.58a.76.76,0,0,0,.66.64.74.74,0,0,0-.66.63.74.74,0,0,0-.66-.63A.76.76,0,0,0,118.93,30.58Z"/><path class="cls-27" d="M44.09,16.94a.76.76,0,0,0,.66.64.74.74,0,0,0-.66.63.74.74,0,0,0-.66-.63A.76.76,0,0,0,44.09,16.94Z"/><path class="cls-27" d="M26.79,67.25a.76.76,0,0,0,.66.64.74.74,0,0,0-.66.63.74.74,0,0,0-.66-.63A.76.76,0,0,0,26.79,67.25Z"/><path class="cls-30" d="M206.47,98.89a1.5,1.5,0,0,0,1.32,1.27,1.51,1.51,0,0,0-1.32,1.28,1.5,1.5,0,0,0-1.32-1.28A1.5,1.5,0,0,0,206.47,98.89Z"/><path class="cls-30" d="M19.17,12a1.5,1.5,0,0,0,1.32,1.27,1.51,1.51,0,0,0-1.32,1.28,1.5,1.5,0,0,0-1.32-1.28A1.5,1.5,0,0,0,19.17,12Z"/><path class="cls-30" d="M98.13,3a1.52,1.52,0,0,0,1.32,1.28A1.5,1.5,0,0,0,98.13,5.5a1.5,1.5,0,0,0-1.32-1.27A1.51,1.51,0,0,0,98.13,3Z"/><path class="cls-30" d="M208.14,7.92a1.5,1.5,0,0,0,1.32,1.28,1.5,1.5,0,0,0-1.32,1.27,1.5,1.5,0,0,0-1.32-1.27A1.51,1.51,0,0,0,208.14,7.92Z"/><path class="cls-30" d="M169.39,120a1.51,1.51,0,0,0,1.32,1.28,1.5,1.5,0,0,0-1.32,1.27,1.5,1.5,0,0,0-1.32-1.27A1.52,1.52,0,0,0,169.39,120Z"/><path class="cls-30" d="M37.06,120.62a1.5,1.5,0,0,0,1.32,1.27,1.5,1.5,0,0,0-1.32,1.28,1.5,1.5,0,0,0-1.32-1.28A1.5,1.5,0,0,0,37.06,120.62Z"/><path class="cls-30" d="M60.28,49.72A1.5,1.5,0,0,0,61.6,51a1.5,1.5,0,0,0-1.32,1.27A1.5,1.5,0,0,0,59,51,1.51,1.51,0,0,0,60.28,49.72Z"/><path class="cls-30" d="M4.91,27.4a.69.69,0,0,0,.61.59.71.71,0,0,0-.61.6.72.72,0,0,0-.62-.6A.7.7,0,0,0,4.91,27.4Z"/><path class="cls-30" d="M42.35,46.34a.69.69,0,0,0,.61.59.71.71,0,0,0-.61.6.72.72,0,0,0-.62-.6A.7.7,0,0,0,42.35,46.34Z"/><path class="cls-30" d="M177,3.63a.71.71,0,0,0,.61.6.61.61,0,0,1-1.22,0A.71.71,0,0,0,177,3.63Z"/><path class="cls-30" d="M233.89,107.06a.71.71,0,0,0,.61.6.69.69,0,0,0-.61.59.7.7,0,0,0-.62-.59A.72.72,0,0,0,233.89,107.06Z"/><path class="cls-30" d="M244.16,121.35a.69.69,0,0,0,.61.59.69.69,0,0,0-.61.6.7.7,0,0,0-.62-.6A.7.7,0,0,0,244.16,121.35Z"/><path class="cls-27" d="M221.11,113.09a.75.75,0,0,0,.66.64.66.66,0,0,1-1.32,0A.75.75,0,0,0,221.11,113.09Z"/><path class="cls-27" d="M235.15,86.43a.74.74,0,0,0,.66.63.66.66,0,0,1-1.32,0A.74.74,0,0,0,235.15,86.43Z"/><path class="cls-27" d="M14.15,39a.76.76,0,0,0,.66.64.74.74,0,0,0-.66.63.74.74,0,0,0-.66-.63A.76.76,0,0,0,14.15,39Z"/><path class="cls-27" d="M71.52,12a.74.74,0,0,0,.66.63.76.76,0,0,0-.66.64.76.76,0,0,0-.66-.64A.74.74,0,0,0,71.52,12Z"/><path class="cls-27" d="M233.89,24.28a.45.45,0,0,0,.39.39.43.43,0,0,0-.39.38.44.44,0,0,0-.4-.38A.46.46,0,0,0,233.89,24.28Z"/><polygon class="cls-12" points="157.46 84.87 170.4 80.44 200.69 84.87 177.24 87.57 157.46 84.87"/><polygon class="cls-14" points="177.24 87.57 157.46 84.87 159.52 95.67 170.4 111.68 175.61 131.29 186.48 107.25 196.63 96.83 200.69 84.87 177.24 87.57"/><polygon class="cls-22" points="170.4 111.68 171.14 104.42 170.4 98.18 172.42 91.56 167.15 94.77 166.12 101.62 166.12 105.39 170.4 111.68"/><polygon class="cls-12" points="196.63 96.83 200.69 84.87 177.24 87.57 179.07 96.7 178.16 105.83 175.23 118.95 175.61 131.29 186.48 107.25 196.63 96.83"/><polygon class="cls-13" points="186.48 107.25 188.75 94.77 191.97 89.12 191.97 94.9 191.47 102.12 186.48 107.25"/><polygon class="cls-13" points="179.93 81.83 170.4 80.44 157.46 84.87 158.43 85 168.31 84 176.41 84.87 183.61 84 179.93 81.83"/></g></g></g></svg>