<svg xmlns="http://www.w3.org/2000/svg" xmlns:xlink="http://www.w3.org/1999/xlink" viewBox="0 0 250 160"><defs><style>.cls-1{fill:url(#White_Black);}.cls-2{fill:url(#radial-gradient);}.cls-3{isolation:isolate;}.cls-4{fill:url(#radial-gradient-2);}.cls-12,.cls-43,.cls-5,.cls-50{mix-blend-mode:screen;}.cls-6{fill:#808285;}.cls-7{fill:#fd6e03;}.cls-8{fill:#f55e1b;}.cls-9{fill:#d94809;}.cls-10{fill:#e84700;}.cls-11{fill:#e6e7e8;}.cls-11,.cls-28{mix-blend-mode:multiply;}.cls-12{fill:#231f20;}.cls-13{fill:#c3d6f3;}.cls-14{fill:#b9cbe6;}.cls-15{fill:#afc0d9;}.cls-16{fill:#a5b5cc;}.cls-17{fill:#cfdef5;}.cls-18{fill:#00e8eb;}.cls-19{fill:#00e0e3;}.cls-20{fill:#00d1d4;}.cls-21{fill:#00bdbf;}.cls-22{mask:url(#mask);}.cls-23{fill:#ffd037;}.cls-24{fill:#f9a303;}.cls-25{fill:#d88002;}.cls-26{fill:#bf7102;}.cls-27{fill:#8a5100;}.cls-29{fill:#d1d3d4;}.cls-30{fill:#573f34;}.cls-31{fill:#9a8c85;}.cls-32{fill:#bcb2ae;}.cls-33{fill:#31221b;}.cls-34{fill:#011825;}.cls-35{fill:#185882;}.cls-36{fill:#0d3056;}.cls-37{fill:#1689c8;}.cls-38{fill:#134769;}.cls-39{fill:#0987be;}.cls-40{fill:#012940;}.cls-41{fill:#3ba6d5;}.cls-42{fill:#010101;}.cls-43{fill:#141313;}.cls-44{fill:#fee39e;}.cls-45{fill:#fdd15d;}.cls-46{fill:#fdc534;}.cls-47{fill:#f79537;}.cls-48{mask:url(#mask-2);}.cls-49{fill:#feee2f;}.cls-50{fill:#111010;}</style><linearGradient id="White_Black" x1="53.06" y1="34.33" x2="53.06" y2="61.19" gradientUnits="userSpaceOnUse"><stop offset="0" stop-color="#fff"/><stop offset="1" stop-color="#231f20"/></linearGradient><radialGradient id="radial-gradient" cx="191.92" cy="32.1" r="31.24" gradientUnits="userSpaceOnUse"><stop offset="0" stop-color="#fff"/><stop offset="0.81" stop-color="#414141"/><stop offset="0.91"/></radialGradient><radialGradient id="radial-gradient-2" cx="200.33" cy="7.67" r="138.48" gradientUnits="userSpaceOnUse"><stop offset="0" stop-color="#00c3e7"/><stop offset="1" stop-color="#010717"/></radialGradient><mask id="mask" x="32.65" y="41.47" width="40.82" height="26.39" maskUnits="userSpaceOnUse"><path class="cls-1" d="M63.12,55.83l0,.19a10.54,10.54,0,0,0,0-1.78c0-.38-.08-.75-.14-1.11h0a.64.64,0,0,1,0-.07,9.41,9.41,0,0,0-.3-1.16s0-.11,0-.16h0a10.06,10.06,0,0,0-10.26-6.82,4.34,4.34,0,0,0-.52.07v0l-.18,0a7.78,7.78,0,0,0-.84.16h0l-.12,0-.11,0-.11,0h0l-.48.15-.11,0a9.59,9.59,0,0,0-2.1,1l.09-.07c-7.85-4.07-14-5.92-15.07-4.25s3.28,6.31,10.3,11.49h0s0,0,0,.08h0c0,.17,0,.34,0,.51s0,.33,0,.5a8.92,8.92,0,0,0,0,1A10.06,10.06,0,0,0,53.81,65h0L54,65c.32,0,.64-.07.95-.13H55c.17,0,.32-.08.48-.12l.5-.13c.22-.06.44-.14.65-.22l.28-.11a10.1,10.1,0,0,0,1.61-.81h0l.28-.2h0c7.59,3.88,13.52,5.61,14.53,4S70.07,61,63.12,55.83Zm-.91,3.39,0,0,.14-.35c0-.09.08-.18.11-.27,0,.07,0,.14-.07.21,1.3,1.22,2,2.15,1.69,2.56s-1.33.25-2.95-.35h0a9.37,9.37,0,0,0,1.07-1.77ZM62.67,58s0,0,0-.05h0Zm-.07.25a.36.36,0,0,0,0,.09v0ZM44,50.57c-1.71-1.5-2.62-2.66-2.32-3.13s1.77-.16,3.94.74l.14-.15h0A10.34,10.34,0,0,0,44,50.57Zm18.76,7.12h0c0-.14.09-.28.12-.43v0C62.86,57.42,62.81,57.55,62.77,57.69Zm-16.9-9.75-.06,0c.11-.1.21-.21.31-.31l.51-.46.19-.15A9.9,9.9,0,0,0,45.87,47.94ZM63,56.87c0,.13,0,.26-.08.38.05-.21.08-.43.11-.64ZM47.18,46.8l-.19.14h0l0,0-.08.06s0-.05.08-.06Z"/></mask><mask id="mask-2" x="160.68" y="0.86" width="62.49" height="62.49" maskUnits="userSpaceOnUse"><circle class="cls-2" cx="191.92" cy="32.1" r="31.24"/></mask></defs><g class="cls-3"><g id="圖層_2" data-name="圖層 2"><g id="Layer_1" data-name="Layer 1"><rect class="cls-4" width="250" height="160"/><g class="cls-5"><path class="cls-6" d="M60.2,23.91a.29.29,0,0,0-.25.25.28.28,0,0,0-.24-.25.26.26,0,0,0,.24-.24A.28.28,0,0,0,60.2,23.91Z"/><path class="cls-6" d="M59.09,28a.24.24,0,1,1-.48,0,.24.24,0,1,1,.48,0Z"/><path class="cls-6" d="M61.65,48.62a.24.24,0,1,1-.48,0,.24.24,0,1,1,.48,0Z"/><path class="cls-6" d="M69.46,60.54a.28.28,0,0,0-.24.25.27.27,0,0,0-.24-.25.28.28,0,0,0,.24-.25A.29.29,0,0,0,69.46,60.54Z"/><path class="cls-6" d="M69.22,75.1a.24.24,0,1,1-.48,0,.24.24,0,1,1,.48,0Z"/><path class="cls-6" d="M75.46,85A.24.24,0,1,1,75,85a.24.24,0,1,1,.48,0Z"/><path class="cls-6" d="M73.46,100.87a.28.28,0,0,0-.24.25.25.25,0,0,1,0-.5A.28.28,0,0,0,73.46,100.87Z"/><path class="cls-6" d="M74.59,120a.29.29,0,0,0-.24.25.25.25,0,0,1,0-.5A.29.29,0,0,0,74.59,120Z"/><path class="cls-6" d="M60.73,111.83a.29.29,0,0,0-.24.25.25.25,0,0,1,0-.5A.29.29,0,0,0,60.73,111.83Z"/><path class="cls-6" d="M50,104.4a.28.28,0,0,0-.24.25.25.25,0,0,1,0-.5A.28.28,0,0,0,50,104.4Z"/><path class="cls-6" d="M41.2,99a.29.29,0,0,0-.24.25.28.28,0,0,0-.24-.25A.27.27,0,0,0,41,98.7.28.28,0,0,0,41.2,99Z"/><path class="cls-6" d="M31.49,101.87a.29.29,0,0,0-.24.25.25.25,0,0,1,0-.5A.29.29,0,0,0,31.49,101.87Z"/><path class="cls-6" d="M22.74,100.62a.28.28,0,0,0-.24.25.25.25,0,0,1,0-.5A.28.28,0,0,0,22.74,100.62Z"/><path class="cls-6" d="M17.7,76.78a.28.28,0,0,0-.24.24.28.28,0,0,0-.24-.24.29.29,0,0,0,.24-.25A.29.29,0,0,0,17.7,76.78Z"/><path class="cls-6" d="M36.29,83.84a.28.28,0,0,0-.24.25.29.29,0,0,0-.24-.25.28.28,0,0,0,.24-.25A.27.27,0,0,0,36.29,83.84Z"/><path class="cls-6" d="M33.54,82.13a.28.28,0,0,0-.24.24.28.28,0,0,0-.24-.24.29.29,0,0,0,.24-.25A.29.29,0,0,0,33.54,82.13Z"/><path class="cls-6" d="M33.78,63.28a.29.29,0,0,0-.24.25.25.25,0,0,1,0-.5A.29.29,0,0,0,33.78,63.28Z"/><path class="cls-6" d="M46.22,53.28a.29.29,0,0,0-.24.25.29.29,0,0,0-.24-.25A.29.29,0,0,0,46,53,.29.29,0,0,0,46.22,53.28Z"/><path class="cls-6" d="M51,77a.29.29,0,0,0-.24.25.29.29,0,0,0-.24-.25.28.28,0,0,0,.24-.24A.28.28,0,0,0,51,77Z"/><path class="cls-6" d="M29,79.09a.29.29,0,0,0-.24.25.29.29,0,0,0-.24-.25.28.28,0,0,0,.24-.25A.28.28,0,0,0,29,79.09Z"/><path class="cls-6" d="M20.86,87.37a.28.28,0,0,0-.24.25.28.28,0,0,0-.24-.25.29.29,0,0,0,.24-.25A.29.29,0,0,0,20.86,87.37Z"/><path class="cls-6" d="M18.47,60.07a.28.28,0,0,0-.24.25.25.25,0,0,1,0-.5A.28.28,0,0,0,18.47,60.07Z"/><path class="cls-6" d="M16.27,45.25a.29.29,0,0,0-.25.25.28.28,0,0,0-.24-.25A.28.28,0,0,0,16,45,.29.29,0,0,0,16.27,45.25Z"/><path class="cls-6" d="M7.48,56.79a.28.28,0,0,0-.24.25A.29.29,0,0,0,7,56.79a.29.29,0,0,0,.24-.25A.28.28,0,0,0,7.48,56.79Z"/><path class="cls-6" d="M22.5,51.88a.29.29,0,0,0-.24.25.29.29,0,0,0-.24-.25.28.28,0,0,0,.24-.24A.28.28,0,0,0,22.5,51.88Z"/><path class="cls-6" d="M22.74,41.78a.29.29,0,0,0-.24.25.28.28,0,0,0-.24-.25.27.27,0,0,0,.24-.25A.28.28,0,0,0,22.74,41.78Z"/><path class="cls-6" d="M19.12,35.48a.29.29,0,0,0-.25.25.28.28,0,0,0-.24-.25.28.28,0,0,0,.24-.25A.29.29,0,0,0,19.12,35.48Z"/><path class="cls-6" d="M16.12,26.74a.28.28,0,0,0-.25.25.27.27,0,0,0-.24-.25.28.28,0,0,0,.24-.25A.29.29,0,0,0,16.12,26.74Z"/><path class="cls-6" d="M23,11.06a.28.28,0,0,0-.24.25.27.27,0,0,0-.24-.25.28.28,0,0,0,.24-.25A.29.29,0,0,0,23,11.06Z"/><path class="cls-6" d="M25.7,17.89a.29.29,0,0,0-.24.25.29.29,0,0,0-.24-.25.28.28,0,0,0,.24-.25A.28.28,0,0,0,25.7,17.89Z"/><path class="cls-6" d="M30.69,24.16a.29.29,0,0,0-.25.25.28.28,0,0,0-.24-.25.27.27,0,0,0,.24-.25A.28.28,0,0,0,30.69,24.16Z"/><path class="cls-6" d="M33.54,19a.28.28,0,0,0-.24.24.28.28,0,0,0-.24-.24.29.29,0,0,0,.24-.25A.29.29,0,0,0,33.54,19Z"/><path class="cls-6" d="M14.17,16a.28.28,0,0,0-.24.24.28.28,0,0,0-.24-.24.29.29,0,0,0,.24-.25A.29.29,0,0,0,14.17,16Z"/><path class="cls-6" d="M6,10.81a.28.28,0,0,0-.25.25.27.27,0,0,0-.24-.25.28.28,0,0,0,.24-.25A.29.29,0,0,0,6,10.81Z"/><path class="cls-6" d="M46.46,65.69a.29.29,0,0,0-.24.25.25.25,0,0,1,0-.5A.29.29,0,0,0,46.46,65.69Z"/><path class="cls-6" d="M63,102.27a.27.27,0,0,0-.24.25.28.28,0,0,0-.25-.25.29.29,0,0,0,.25-.25A.28.28,0,0,0,63,102.27Z"/><path class="cls-6" d="M46,127.74a.28.28,0,0,0-.24.25.28.28,0,0,0-.24-.25.29.29,0,0,0,.24-.25A.29.29,0,0,0,46,127.74Z"/><path class="cls-6" d="M49.8,148.1a.28.28,0,0,0-.24.25.25.25,0,0,1,0-.5A.28.28,0,0,0,49.8,148.1Z"/><path class="cls-6" d="M78.67,152.77a.24.24,0,1,1-.48,0,.24.24,0,1,1,.48,0Z"/><path class="cls-6" d="M78.67,95a.24.24,0,1,1-.48,0,.24.24,0,1,1,.48,0Z"/><path class="cls-6" d="M52.55,87.12a.28.28,0,0,0-.24.25.27.27,0,0,0-.24-.25.28.28,0,0,0,.24-.25A.29.29,0,0,0,52.55,87.12Z"/><path class="cls-6" d="M78.43,35.73a.24.24,0,1,1-.48,0,.24.24,0,1,1,.48,0Z"/><path class="cls-6" d="M54.3,118.36a.28.28,0,0,0-.24.25.29.29,0,0,0-.25-.25.28.28,0,0,0,.25-.25A.27.27,0,0,0,54.3,118.36Z"/><path class="cls-6" d="M58.85,127.24a.24.24,0,1,1-.48,0,.24.24,0,1,1,.48,0Z"/><path class="cls-6" d="M63.88,134.21a.28.28,0,0,0-.24.25.29.29,0,0,0-.25-.25.28.28,0,0,0,.25-.25A.27.27,0,0,0,63.88,134.21Z"/><path class="cls-6" d="M69.7,139.52a.28.28,0,0,0-.24.25.27.27,0,0,0-.24-.25.28.28,0,0,0,.24-.25A.29.29,0,0,0,69.7,139.52Z"/><path class="cls-6" d="M65.8,143.28a.27.27,0,0,0-.24.25.28.28,0,0,0-.24-.25.29.29,0,0,0,.24-.25A.28.28,0,0,0,65.8,143.28Z"/><path class="cls-6" d="M54.55,129.59a.47.47,0,0,0-.4.41.45.45,0,0,0-.39-.41.46.46,0,0,0,.39-.42A.48.48,0,0,0,54.55,129.59Z"/><path class="cls-6" d="M39.26,118.36a.48.48,0,0,0-.4.42.48.48,0,0,0-.39-.42.47.47,0,0,0,.39-.41A.47.47,0,0,0,39.26,118.36Z"/><path class="cls-6" d="M55.09,100.37a.45.45,0,0,0-.39.41.41.41,0,0,1,0-.82A.45.45,0,0,0,55.09,100.37Z"/><path class="cls-6" d="M64.27,76.28a.45.45,0,0,0-.39.41.47.47,0,0,0-.4-.41.48.48,0,0,0,.4-.42A.46.46,0,0,0,64.27,76.28Z"/><path class="cls-6" d="M58.61,52.87a.47.47,0,0,0-.4.41.47.47,0,0,0-.4-.41.47.47,0,0,0,.4-.41A.47.47,0,0,0,58.61,52.87Z"/><path class="cls-6" d="M72.8,29.51a.48.48,0,0,0-.4.42.48.48,0,0,0-.4-.42.47.47,0,0,0,.4-.41A.47.47,0,0,0,72.8,29.51Z"/><path class="cls-6" d="M42.7,5.83a.47.47,0,0,0-.4.41.47.47,0,0,0-.4-.41.47.47,0,0,0,.4-.41A.47.47,0,0,0,42.7,5.83Z"/><path class="cls-6" d="M80.34,22.12a.47.47,0,0,0-.4.41.45.45,0,0,0-.39-.41.45.45,0,0,0,.39-.41A.47.47,0,0,0,80.34,22.12Z"/><path class="cls-6" d="M41.36,18.71a.47.47,0,0,0-.4.41.47.47,0,0,0-.39-.41.48.48,0,0,0,.39-.42A.48.48,0,0,0,41.36,18.71Z"/><path class="cls-6" d="M37.08,39.22a.45.45,0,0,0-.39.41.47.47,0,0,0-.4-.41.48.48,0,0,0,.4-.42A.46.46,0,0,0,37.08,39.22Z"/><path class="cls-6" d="M21.59,131a.93.93,0,0,0-.79.83A1,1,0,0,0,20,131a.94.94,0,0,0,.8-.82A.92.92,0,0,0,21.59,131Z"/><path class="cls-6" d="M8.81,79.34a.93.93,0,0,0-.79.83,1,1,0,0,0-.8-.83.94.94,0,0,0,.8-.82A.92.92,0,0,0,8.81,79.34Z"/><path class="cls-6" d="M75.86,14a.94.94,0,0,0-.8.82.92.92,0,0,0-.79-.82.94.94,0,0,0,.79-.83A1,1,0,0,0,75.86,14Z"/><path class="cls-6" d="M81.54,63.28a1,1,0,0,0-.8.83,1,1,0,0,0-.8-.83.94.94,0,0,0,.8-.82A.94.94,0,0,0,81.54,63.28Z"/><path class="cls-6" d="M78.43,132a1,1,0,0,0-.8.83.93.93,0,0,0-.79-.83.92.92,0,0,0,.79-.82A.94.94,0,0,0,78.43,132Z"/><path class="cls-6" d="M8.42,107.8a1,1,0,0,0-.8.83,1,1,0,0,0-.8-.83.94.94,0,0,0,.8-.82A.94.94,0,0,0,8.42,107.8Z"/><path class="cls-6" d="M8,25.12a1,1,0,0,0-.8.83,1,1,0,0,0-.8-.83.94.94,0,0,0,.8-.82A.94.94,0,0,0,8,25.12Z"/><path class="cls-6" d="M16.67,4.65a.94.94,0,0,0-.8.82.92.92,0,0,0-.79-.82.93.93,0,0,0,.79-.83A1,1,0,0,0,16.67,4.65Z"/><path class="cls-6" d="M51.52,16.82a1,1,0,0,0-.8.83,1,1,0,0,0-.8-.83.94.94,0,0,0,.8-.82A.94.94,0,0,0,51.52,16.82Z"/><path class="cls-6" d="M52.31,39.63a.92.92,0,0,0-.79.82.94.94,0,0,0-.8-.82,1,1,0,0,0,.8-.83A.93.93,0,0,0,52.31,39.63Z"/><path class="cls-6" d="M66.26,5a.45.45,0,0,0-.37.39A.45.45,0,0,0,65.52,5a.43.43,0,0,0,.37-.38A.43.43,0,0,0,66.26,5Z"/><path class="cls-6" d="M54.43,28.43a.42.42,0,0,0-.37.38.43.43,0,0,0-.37-.38.45.45,0,0,0,.37-.39A.43.43,0,0,0,54.43,28.43Z"/><path class="cls-6" d="M28.87,40.45a.45.45,0,0,0-.37.39.45.45,0,0,0-.37-.39.43.43,0,0,0,.37-.38A.43.43,0,0,0,28.87,40.45Z"/><path class="cls-6" d="M41.33,28.72a.45.45,0,0,0-.37.39.43.43,0,0,0-.37-.39.42.42,0,0,0,.37-.38A.43.43,0,0,0,41.33,28.72Z"/><path class="cls-6" d="M51.89,3.82a.43.43,0,0,0-.37.39.45.45,0,0,0-.37-.39.43.43,0,0,0,.37-.38A.42.42,0,0,0,51.89,3.82Z"/><path class="cls-6" d="M35.94,6.24a.44.44,0,0,0-.37.38.44.44,0,0,0-.37-.38.44.44,0,0,0,.37-.38A.44.44,0,0,0,35.94,6.24Z"/><path class="cls-6" d="M80.31,5.42a.43.43,0,0,0-.37.38.42.42,0,0,0-.37-.38A.43.43,0,0,0,79.94,5,.45.45,0,0,0,80.31,5.42Z"/><path class="cls-6" d="M10.44,70.09a.44.44,0,0,0-.37.38.44.44,0,0,0-.37-.38.45.45,0,0,0,.37-.39A.45.45,0,0,0,10.44,70.09Z"/><path class="cls-6" d="M81.11,112.57a.44.44,0,0,0-.37.38.38.38,0,0,1,0-.76A.44.44,0,0,0,81.11,112.57Z"/><path class="cls-6" d="M16.49,148.1a.43.43,0,0,0-.37.38.38.38,0,0,1,0-.76A.43.43,0,0,0,16.49,148.1Z"/><path class="cls-6" d="M7.56,154.52a.44.44,0,0,0-.37.38.38.38,0,0,1,0-.76A.44.44,0,0,0,7.56,154.52Z"/><path class="cls-6" d="M12.72,140.12a.47.47,0,0,0-.4.41.41.41,0,0,1,0-.82A.47.47,0,0,0,12.72,140.12Z"/><path class="cls-6" d="M29.38,148.89a.47.47,0,0,0-.4.41.41.41,0,0,1,0-.82A.47.47,0,0,0,29.38,148.89Z"/><path class="cls-6" d="M8.41,93a.45.45,0,0,0-.39.41.47.47,0,0,0-.4-.41.47.47,0,0,0,.4-.41A.45.45,0,0,0,8.41,93Z"/><path class="cls-6" d="M59,10.81a.47.47,0,0,0-.4.41.47.47,0,0,0-.4-.41.47.47,0,0,0,.4-.41A.47.47,0,0,0,59,10.81Z"/><path class="cls-6" d="M75.86,46.65a.47.47,0,0,0-.4.41.47.47,0,0,0-.4-.41.47.47,0,0,0,.4-.41A.47.47,0,0,0,75.86,46.65Z"/><path class="cls-6" d="M31.89,50.61a.47.47,0,0,0-.4.41.47.47,0,0,0-.4-.41.47.47,0,0,0,.4-.41A.47.47,0,0,0,31.89,50.61Z"/><path class="cls-6" d="M25.27,47.86a.47.47,0,0,0-.4.41.47.47,0,0,0-.4-.41.47.47,0,0,0,.4-.41A.47.47,0,0,0,25.27,47.86Z"/><path class="cls-6" d="M68.21,148.1a.24.24,0,1,1-.48,0,.24.24,0,1,1,.48,0Z"/><path class="cls-6" d="M141.67,23.91a.29.29,0,0,0-.25.25.28.28,0,0,0-.24-.25.26.26,0,0,0,.24-.24A.28.28,0,0,0,141.67,23.91Z"/><path class="cls-6" d="M140.56,28a.24.24,0,1,1-.48,0,.24.24,0,1,1,.48,0Z"/><path class="cls-6" d="M143.12,48.62a.24.24,0,1,1-.48,0,.24.24,0,1,1,.48,0Z"/><path class="cls-6" d="M150.93,60.54a.28.28,0,0,0-.24.25.27.27,0,0,0-.24-.25.28.28,0,0,0,.24-.25A.29.29,0,0,0,150.93,60.54Z"/><path class="cls-6" d="M150.69,75.1a.24.24,0,1,1-.48,0,.24.24,0,1,1,.48,0Z"/><path class="cls-6" d="M156.93,85a.24.24,0,1,1-.48,0,.24.24,0,1,1,.48,0Z"/><path class="cls-6" d="M154.93,100.87a.28.28,0,0,0-.24.25.25.25,0,0,1,0-.5A.28.28,0,0,0,154.93,100.87Z"/><path class="cls-6" d="M156.06,120a.29.29,0,0,0-.24.25.25.25,0,0,1,0-.5A.29.29,0,0,0,156.06,120Z"/><path class="cls-6" d="M142.2,111.83a.29.29,0,0,0-.24.25.25.25,0,0,1,0-.5A.29.29,0,0,0,142.2,111.83Z"/><path class="cls-6" d="M131.51,104.4a.28.28,0,0,0-.24.25.25.25,0,0,1,0-.5A.28.28,0,0,0,131.51,104.4Z"/><path class="cls-6" d="M122.67,99a.29.29,0,0,0-.24.25.28.28,0,0,0-.24-.25.27.27,0,0,0,.24-.25A.28.28,0,0,0,122.67,99Z"/><path class="cls-6" d="M113,101.87a.24.24,0,1,1-.48,0,.24.24,0,1,1,.48,0Z"/><path class="cls-6" d="M104.21,100.62a.28.28,0,0,0-.24.25.25.25,0,0,1,0-.5A.28.28,0,0,0,104.21,100.62Z"/><path class="cls-6" d="M99.17,76.78a.24.24,0,1,1-.48,0,.24.24,0,1,1,.48,0Z"/><path class="cls-6" d="M117.76,83.84a.28.28,0,0,0-.24.25.29.29,0,0,0-.24-.25.28.28,0,0,0,.24-.25A.27.27,0,0,0,117.76,83.84Z"/><path class="cls-6" d="M115,82.13a.24.24,0,0,1-.48,0,.24.24,0,1,1,.48,0Z"/><path class="cls-6" d="M115.25,63.28a.29.29,0,0,0-.24.25.25.25,0,0,1,0-.5A.29.29,0,0,0,115.25,63.28Z"/><path class="cls-6" d="M127.69,53.28a.24.24,0,1,1-.48,0,.24.24,0,1,1,.48,0Z"/><path class="cls-6" d="M132.43,77a.24.24,0,1,1-.48,0,.24.24,0,0,1,.48,0Z"/><path class="cls-6" d="M110.45,79.09a.24.24,0,1,1-.48,0,.24.24,0,1,1,.48,0Z"/><path class="cls-6" d="M102.33,87.37a.24.24,0,1,1-.48,0,.24.24,0,1,1,.48,0Z"/><path class="cls-6" d="M99.94,60.07a.28.28,0,0,0-.24.25.25.25,0,0,1,0-.5A.28.28,0,0,0,99.94,60.07Z"/><path class="cls-6" d="M97.74,45.25a.29.29,0,0,0-.25.25.28.28,0,0,0-.24-.25.28.28,0,0,0,.24-.25A.29.29,0,0,0,97.74,45.25Z"/><path class="cls-6" d="M89,56.79a.28.28,0,0,0-.24.25.29.29,0,0,0-.24-.25.29.29,0,0,0,.24-.25A.28.28,0,0,0,89,56.79Z"/><path class="cls-6" d="M104,51.88a.24.24,0,1,1-.48,0,.24.24,0,1,1,.48,0Z"/><path class="cls-6" d="M104.21,41.78A.29.29,0,0,0,104,42a.28.28,0,0,0-.24-.25.27.27,0,0,0,.24-.25A.28.28,0,0,0,104.21,41.78Z"/><path class="cls-6" d="M100.59,35.48a.29.29,0,0,0-.25.25.28.28,0,0,0-.24-.25.28.28,0,0,0,.24-.25A.29.29,0,0,0,100.59,35.48Z"/><path class="cls-6" d="M97.59,26.74a.28.28,0,0,0-.25.25.27.27,0,0,0-.24-.25.28.28,0,0,0,.24-.25A.29.29,0,0,0,97.59,26.74Z"/><path class="cls-6" d="M104.45,11.06a.28.28,0,0,0-.24.25.27.27,0,0,0-.24-.25.28.28,0,0,0,.24-.25A.29.29,0,0,0,104.45,11.06Z"/><path class="cls-6" d="M107.17,17.89a.24.24,0,1,1-.48,0,.24.24,0,1,1,.48,0Z"/><path class="cls-6" d="M112.16,24.16a.29.29,0,0,0-.25.25.28.28,0,0,0-.24-.25.27.27,0,0,0,.24-.25A.28.28,0,0,0,112.16,24.16Z"/><path class="cls-6" d="M115,19a.24.24,0,1,1-.48,0,.24.24,0,1,1,.48,0Z"/><path class="cls-6" d="M95.64,16a.24.24,0,1,1-.48,0,.24.24,0,1,1,.48,0Z"/><path class="cls-6" d="M87.48,10.81a.28.28,0,0,0-.25.25.27.27,0,0,0-.24-.25.28.28,0,0,0,.24-.25A.29.29,0,0,0,87.48,10.81Z"/><path class="cls-6" d="M127.93,65.69a.24.24,0,1,1-.48,0,.24.24,0,1,1,.48,0Z"/><path class="cls-6" d="M144.45,102.27a.28.28,0,0,0-.25.25.27.27,0,0,0-.24-.25.28.28,0,0,0,.24-.25A.29.29,0,0,0,144.45,102.27Z"/><path class="cls-6" d="M127.45,127.74a.24.24,0,1,1-.48,0,.24.24,0,1,1,.48,0Z"/><path class="cls-6" d="M131.27,148.1a.28.28,0,0,0-.24.25.25.25,0,0,1,0-.5A.28.28,0,0,0,131.27,148.1Z"/><path class="cls-6" d="M160.14,152.77a.24.24,0,1,1-.48,0,.24.24,0,1,1,.48,0Z"/><path class="cls-6" d="M160.14,95a.24.24,0,1,1-.48,0,.24.24,0,1,1,.48,0Z"/><path class="cls-6" d="M134,87.12a.28.28,0,0,0-.24.25.27.27,0,0,0-.24-.25.28.28,0,0,0,.24-.25A.29.29,0,0,0,134,87.12Z"/><path class="cls-6" d="M159.9,35.73a.28.28,0,0,0-.24.25.29.29,0,0,0-.24-.25.29.29,0,0,0,.24-.25A.28.28,0,0,0,159.9,35.73Z"/><path class="cls-6" d="M135.77,118.36a.28.28,0,0,0-.24.25.29.29,0,0,0-.25-.25.28.28,0,0,0,.25-.25A.27.27,0,0,0,135.77,118.36Z"/><path class="cls-6" d="M140.32,127.24a.24.24,0,1,1-.48,0,.24.24,0,1,1,.48,0Z"/><path class="cls-6" d="M145.35,134.21a.29.29,0,0,0-.25.25.28.28,0,0,0-.24-.25.27.27,0,0,0,.24-.25A.28.28,0,0,0,145.35,134.21Z"/><path class="cls-6" d="M151.17,139.52a.28.28,0,0,0-.24.25.27.27,0,0,0-.24-.25.28.28,0,0,0,.24-.25A.29.29,0,0,0,151.17,139.52Z"/><path class="cls-6" d="M147.27,143.28a.27.27,0,0,0-.24.25.28.28,0,0,0-.24-.25A.29.29,0,0,0,147,143,.28.28,0,0,0,147.27,143.28Z"/><path class="cls-6" d="M136,129.59a.47.47,0,0,0-.4.41.45.45,0,0,0-.39-.41.46.46,0,0,0,.39-.42A.48.48,0,0,0,136,129.59Z"/><path class="cls-6" d="M120.73,118.36a.4.4,0,1,1-.8,0,.4.4,0,1,1,.8,0Z"/><path class="cls-6" d="M136.56,100.37a.45.45,0,0,0-.39.41.41.41,0,0,1,0-.82A.45.45,0,0,0,136.56,100.37Z"/><path class="cls-6" d="M145.74,76.28a.45.45,0,0,0-.39.41.47.47,0,0,0-.4-.41.48.48,0,0,0,.4-.42A.46.46,0,0,0,145.74,76.28Z"/><path class="cls-6" d="M140.08,52.87a.4.4,0,1,1-.8,0,.4.4,0,1,1,.8,0Z"/><path class="cls-6" d="M154.27,29.51a.4.4,0,1,1-.8,0,.4.4,0,1,1,.8,0Z"/><path class="cls-6" d="M124.17,5.83a.4.4,0,1,1-.8,0,.4.4,0,1,1,.8,0Z"/><path class="cls-6" d="M161.81,22.12a.47.47,0,0,0-.4.41.45.45,0,0,0-.39-.41.45.45,0,0,0,.39-.41A.47.47,0,0,0,161.81,22.12Z"/><path class="cls-6" d="M122.83,18.71a.4.4,0,1,1-.8,0,.4.4,0,1,1,.8,0Z"/><path class="cls-6" d="M118.55,39.22a.45.45,0,0,0-.39.41.47.47,0,0,0-.4-.41.48.48,0,0,0,.4-.42A.46.46,0,0,0,118.55,39.22Z"/><path class="cls-6" d="M103.06,131a.93.93,0,0,0-.79.83,1,1,0,0,0-.8-.83.94.94,0,0,0,.8-.82A.92.92,0,0,0,103.06,131Z"/><path class="cls-6" d="M90.28,79.34a.93.93,0,0,0-.79.83,1,1,0,0,0-.8-.83.94.94,0,0,0,.8-.82A.92.92,0,0,0,90.28,79.34Z"/><path class="cls-6" d="M157.33,14a.94.94,0,0,0-.8.82.92.92,0,0,0-.79-.82.94.94,0,0,0,.79-.83A1,1,0,0,0,157.33,14Z"/><path class="cls-6" d="M163,63.28a1,1,0,0,0-.8.83,1,1,0,0,0-.8-.83.94.94,0,0,0,.8-.82A.94.94,0,0,0,163,63.28Z"/><path class="cls-6" d="M159.9,132a1,1,0,0,0-.8.83.93.93,0,0,0-.79-.83.92.92,0,0,0,.79-.82A.94.94,0,0,0,159.9,132Z"/><path class="cls-6" d="M89.88,107.8a.94.94,0,0,0-.79.83,1,1,0,0,0-.8-.83.94.94,0,0,0,.8-.82A.94.94,0,0,0,89.88,107.8Z"/><path class="cls-6" d="M89.49,25.12a1,1,0,0,0-.8.83,1,1,0,0,0-.8-.83.94.94,0,0,0,.8-.82A.94.94,0,0,0,89.49,25.12Z"/><path class="cls-6" d="M98.14,4.65a.94.94,0,0,0-.8.82.92.92,0,0,0-.79-.82.93.93,0,0,0,.79-.83A1,1,0,0,0,98.14,4.65Z"/><path class="cls-6" d="M133,16.82a1,1,0,0,0-.8.83,1,1,0,0,0-.8-.83.94.94,0,0,0,.8-.82A.94.94,0,0,0,133,16.82Z"/><path class="cls-6" d="M133.78,39.63a.92.92,0,0,0-.79.82.94.94,0,0,0-.8-.82,1,1,0,0,0,.8-.83A.93.93,0,0,0,133.78,39.63Z"/><path class="cls-6" d="M147.73,5A.37.37,0,1,1,147,5a.37.37,0,1,1,.74,0Z"/><path class="cls-6" d="M135.9,28.43a.42.42,0,0,0-.37.38.44.44,0,0,0-.38-.38.45.45,0,0,0,.38-.39A.43.43,0,0,0,135.9,28.43Z"/><path class="cls-6" d="M110.34,40.45a.37.37,0,1,1-.74,0,.37.37,0,1,1,.74,0Z"/><path class="cls-6" d="M122.8,28.72a.45.45,0,0,0-.37.39.43.43,0,0,0-.37-.39.42.42,0,0,0,.37-.38A.43.43,0,0,0,122.8,28.72Z"/><path class="cls-6" d="M133.36,3.82a.43.43,0,0,0-.37.39.45.45,0,0,0-.38-.39.44.44,0,0,0,.38-.38A.42.42,0,0,0,133.36,3.82Z"/><path class="cls-6" d="M117.41,6.24a.37.37,0,1,1-.74,0,.37.37,0,1,1,.74,0Z"/><path class="cls-6" d="M161.78,5.42a.43.43,0,0,0-.37.38.42.42,0,0,0-.37-.38.43.43,0,0,0,.37-.39A.45.45,0,0,0,161.78,5.42Z"/><path class="cls-6" d="M91.91,70.09a.37.37,0,1,1-.74,0,.37.37,0,1,1,.74,0Z"/><path class="cls-6" d="M162.58,112.57a.37.37,0,1,1-.74,0,.37.37,0,1,1,.74,0Z"/><path class="cls-6" d="M98,148.1a.43.43,0,0,0-.37.38.38.38,0,0,1,0-.76A.43.43,0,0,0,98,148.1Z"/><path class="cls-6" d="M89,154.52a.37.37,0,1,1-.74,0,.37.37,0,1,1,.74,0Z"/><path class="cls-6" d="M94.19,140.12a.4.4,0,1,1-.8,0,.4.4,0,1,1,.8,0Z"/><path class="cls-6" d="M110.85,148.89a.4.4,0,1,1-.8,0,.4.4,0,1,1,.8,0Z"/><path class="cls-6" d="M89.88,93a.45.45,0,0,0-.39.41.47.47,0,0,0-.4-.41.47.47,0,0,0,.4-.41A.45.45,0,0,0,89.88,93Z"/><path class="cls-6" d="M140.48,10.81a.4.4,0,1,1-.8,0,.4.4,0,1,1,.8,0Z"/><path class="cls-6" d="M157.33,46.65a.4.4,0,1,1-.8,0,.4.4,0,1,1,.8,0Z"/><path class="cls-6" d="M113.36,50.61a.4.4,0,1,1-.8,0,.4.4,0,1,1,.8,0Z"/><path class="cls-6" d="M106.74,47.86a.4.4,0,1,1-.8,0,.4.4,0,1,1,.8,0Z"/><path class="cls-6" d="M149.68,148.1a.24.24,0,1,1-.48,0,.24.24,0,1,1,.48,0Z"/><path class="cls-6" d="M223.14,23.91a.29.29,0,0,0-.25.25.28.28,0,0,0-.24-.25.26.26,0,0,0,.24-.24A.28.28,0,0,0,223.14,23.91Z"/><path class="cls-6" d="M222,28a.24.24,0,1,1-.48,0,.24.24,0,1,1,.48,0Z"/><path class="cls-6" d="M224.59,48.62a.24.24,0,1,1-.48,0,.24.24,0,1,1,.48,0Z"/><path class="cls-6" d="M232.4,60.54a.28.28,0,0,0-.24.25.27.27,0,0,0-.24-.25.28.28,0,0,0,.24-.25A.29.29,0,0,0,232.4,60.54Z"/><path class="cls-6" d="M232.16,75.1a.24.24,0,1,1-.48,0,.24.24,0,1,1,.48,0Z"/><path class="cls-6" d="M238.4,85a.24.24,0,1,1-.48,0,.24.24,0,1,1,.48,0Z"/><path class="cls-6" d="M236.4,100.87a.28.28,0,0,0-.24.25.25.25,0,0,1,0-.5A.28.28,0,0,0,236.4,100.87Z"/><path class="cls-6" d="M237.53,120a.29.29,0,0,0-.24.25.25.25,0,0,1,0-.5A.29.29,0,0,0,237.53,120Z"/><path class="cls-6" d="M223.67,111.83a.24.24,0,1,1-.48,0,.24.24,0,1,1,.48,0Z"/><path class="cls-6" d="M213,104.4a.28.28,0,0,0-.24.25.25.25,0,0,1,0-.5A.28.28,0,0,0,213,104.4Z"/><path class="cls-6" d="M204.14,99a.29.29,0,0,0-.24.25.28.28,0,0,0-.24-.25.27.27,0,0,0,.24-.25A.28.28,0,0,0,204.14,99Z"/><path class="cls-6" d="M194.43,101.87a.24.24,0,1,1-.48,0,.24.24,0,1,1,.48,0Z"/><path class="cls-6" d="M185.68,100.62a.28.28,0,0,0-.24.25.25.25,0,0,1,0-.5A.28.28,0,0,0,185.68,100.62Z"/><path class="cls-6" d="M180.64,76.78a.24.24,0,1,1-.48,0,.24.24,0,1,1,.48,0Z"/><path class="cls-6" d="M199.23,83.84a.28.28,0,0,0-.24.25.29.29,0,0,0-.24-.25.28.28,0,0,0,.24-.25A.27.27,0,0,0,199.23,83.84Z"/><path class="cls-6" d="M196.48,82.13a.24.24,0,1,1-.48,0,.24.24,0,1,1,.48,0Z"/><path class="cls-6" d="M196.72,63.28a.29.29,0,0,0-.24.25.25.25,0,0,1,0-.5A.29.29,0,0,0,196.72,63.28Z"/><path class="cls-6" d="M209.16,53.28a.24.24,0,1,1-.48,0,.24.24,0,1,1,.48,0Z"/><path class="cls-6" d="M213.9,77a.24.24,0,1,1-.48,0,.24.24,0,0,1,.48,0Z"/><path class="cls-6" d="M191.92,79.09a.24.24,0,1,1-.48,0,.24.24,0,1,1,.48,0Z"/><path class="cls-6" d="M183.8,87.37a.24.24,0,1,1-.48,0,.24.24,0,1,1,.48,0Z"/><path class="cls-6" d="M181.41,60.07a.28.28,0,0,0-.24.25.25.25,0,0,1,0-.5A.28.28,0,0,0,181.41,60.07Z"/><path class="cls-6" d="M179.2,45.25a.29.29,0,0,0-.24.25.28.28,0,0,0-.24-.25A.28.28,0,0,0,179,45,.29.29,0,0,0,179.2,45.25Z"/><path class="cls-6" d="M170.42,56.79a.28.28,0,0,0-.24.25.29.29,0,0,0-.24-.25.29.29,0,0,0,.24-.25A.28.28,0,0,0,170.42,56.79Z"/><path class="cls-6" d="M185.44,51.88a.24.24,0,1,1-.48,0,.24.24,0,0,1,.48,0Z"/><path class="cls-6" d="M185.68,41.78a.29.29,0,0,0-.24.25.28.28,0,0,0-.24-.25.27.27,0,0,0,.24-.25A.28.28,0,0,0,185.68,41.78Z"/><path class="cls-6" d="M182.05,35.48a.29.29,0,0,0-.24.25.28.28,0,0,0-.24-.25.28.28,0,0,0,.24-.25A.29.29,0,0,0,182.05,35.48Z"/><path class="cls-6" d="M179.06,26.74a.28.28,0,0,0-.25.25.27.27,0,0,0-.24-.25.28.28,0,0,0,.24-.25A.29.29,0,0,0,179.06,26.74Z"/><path class="cls-6" d="M185.92,11.06a.28.28,0,0,0-.24.25.27.27,0,0,0-.24-.25.28.28,0,0,0,.24-.25A.29.29,0,0,0,185.92,11.06Z"/><path class="cls-6" d="M188.64,17.89a.24.24,0,1,1-.48,0,.24.24,0,1,1,.48,0Z"/><path class="cls-6" d="M193.62,24.16a.29.29,0,0,0-.24.25.28.28,0,0,0-.24-.25.27.27,0,0,0,.24-.25A.28.28,0,0,0,193.62,24.16Z"/><path class="cls-6" d="M196.48,19a.24.24,0,0,1-.48,0,.24.24,0,1,1,.48,0Z"/><path class="cls-6" d="M177.11,16a.24.24,0,0,1-.48,0,.24.24,0,1,1,.48,0Z"/><path class="cls-6" d="M168.94,10.81a.28.28,0,0,0-.24.25.27.27,0,0,0-.24-.25.28.28,0,0,0,.24-.25A.29.29,0,0,0,168.94,10.81Z"/><path class="cls-6" d="M209.4,65.69a.24.24,0,1,1-.48,0,.24.24,0,1,1,.48,0Z"/><path class="cls-6" d="M225.92,102.27a.28.28,0,0,0-.25.25.27.27,0,0,0-.24-.25.28.28,0,0,0,.24-.25A.29.29,0,0,0,225.92,102.27Z"/><path class="cls-6" d="M208.92,127.74a.27.27,0,0,0-.24.25.28.28,0,0,0-.24-.25.29.29,0,0,0,.24-.25A.28.28,0,0,0,208.92,127.74Z"/><path class="cls-6" d="M212.74,148.1a.28.28,0,0,0-.24.25.25.25,0,0,1,0-.5A.28.28,0,0,0,212.74,148.1Z"/><path class="cls-6" d="M241.61,152.77a.24.24,0,1,1-.48,0,.24.24,0,1,1,.48,0Z"/><path class="cls-6" d="M241.61,95a.24.24,0,1,1-.48,0,.24.24,0,1,1,.48,0Z"/><path class="cls-6" d="M215.49,87.12a.24.24,0,1,1-.48,0,.24.24,0,1,1,.48,0Z"/><path class="cls-6" d="M241.37,35.73a.28.28,0,0,0-.24.25.29.29,0,0,0-.24-.25.29.29,0,0,0,.24-.25A.28.28,0,0,0,241.37,35.73Z"/><path class="cls-6" d="M217.24,118.36a.28.28,0,0,0-.24.25.29.29,0,0,0-.25-.25.28.28,0,0,0,.25-.25A.27.27,0,0,0,217.24,118.36Z"/><path class="cls-6" d="M221.79,127.24a.28.28,0,0,0-.24.25.25.25,0,0,1,0-.5A.28.28,0,0,0,221.79,127.24Z"/><path class="cls-6" d="M226.82,134.21a.29.29,0,0,0-.25.25.28.28,0,0,0-.24-.25.27.27,0,0,0,.24-.25A.28.28,0,0,0,226.82,134.21Z"/><path class="cls-6" d="M232.64,139.52a.28.28,0,0,0-.24.25.27.27,0,0,0-.24-.25.28.28,0,0,0,.24-.25A.29.29,0,0,0,232.64,139.52Z"/><path class="cls-6" d="M228.74,143.28a.27.27,0,0,0-.24.25.28.28,0,0,0-.25-.25.29.29,0,0,0,.25-.25A.28.28,0,0,0,228.74,143.28Z"/><path class="cls-6" d="M217.49,129.59a.47.47,0,0,0-.4.41.45.45,0,0,0-.39-.41.46.46,0,0,0,.39-.42A.48.48,0,0,0,217.49,129.59Z"/><path class="cls-6" d="M202.2,118.36a.4.4,0,1,1-.8,0,.4.4,0,1,1,.8,0Z"/><path class="cls-6" d="M218,100.37a.45.45,0,0,0-.39.41.41.41,0,0,1,0-.82A.45.45,0,0,0,218,100.37Z"/><path class="cls-6" d="M227.21,76.28a.45.45,0,0,0-.39.41.47.47,0,0,0-.4-.41.48.48,0,0,0,.4-.42A.46.46,0,0,0,227.21,76.28Z"/><path class="cls-6" d="M221.55,52.87a.4.4,0,1,1-.8,0,.4.4,0,1,1,.8,0Z"/><path class="cls-6" d="M235.74,29.51a.4.4,0,1,1-.8,0,.4.4,0,1,1,.8,0Z"/><path class="cls-6" d="M205.64,5.83a.4.4,0,1,1-.8,0,.4.4,0,1,1,.8,0Z"/><path class="cls-6" d="M243.28,22.12a.4.4,0,1,1-.79,0,.4.4,0,1,1,.79,0Z"/><path class="cls-6" d="M204.3,18.71a.4.4,0,1,1-.8,0,.4.4,0,1,1,.8,0Z"/><path class="cls-6" d="M200,39.22a.45.45,0,0,0-.39.41.47.47,0,0,0-.4-.41.48.48,0,0,0,.4-.42A.46.46,0,0,0,200,39.22Z"/><path class="cls-6" d="M184.53,131a.93.93,0,0,0-.79.83,1,1,0,0,0-.8-.83.94.94,0,0,0,.8-.82A.92.92,0,0,0,184.53,131Z"/><path class="cls-6" d="M171.75,79.34a.93.93,0,0,0-.79.83,1,1,0,0,0-.8-.83.94.94,0,0,0,.8-.82A.92.92,0,0,0,171.75,79.34Z"/><path class="cls-6" d="M238.8,14a.94.94,0,0,0-.8.82.92.92,0,0,0-.79-.82.94.94,0,0,0,.79-.83A1,1,0,0,0,238.8,14Z"/><path class="cls-6" d="M244.48,63.28a.8.8,0,1,1-1.6,0,.8.8,0,1,1,1.6,0Z"/><path class="cls-6" d="M241.37,132a.8.8,0,1,1-1.59,0,.8.8,0,1,1,1.59,0Z"/><path class="cls-6" d="M171.35,107.8a.93.93,0,0,0-.79.83,1,1,0,0,0-.8-.83.94.94,0,0,0,.8-.82A.92.92,0,0,0,171.35,107.8Z"/><path class="cls-6" d="M171,25.12a1,1,0,0,0-.8.83,1,1,0,0,0-.8-.83.94.94,0,0,0,.8-.82A.94.94,0,0,0,171,25.12Z"/><path class="cls-6" d="M179.61,4.65a.94.94,0,0,0-.8.82.92.92,0,0,0-.79-.82.93.93,0,0,0,.79-.83A1,1,0,0,0,179.61,4.65Z"/><path class="cls-6" d="M214.46,16.82a.8.8,0,1,1-1.6,0,.8.8,0,1,1,1.6,0Z"/><path class="cls-6" d="M215.25,39.63a.92.92,0,0,0-.79.82.94.94,0,0,0-.8-.82,1,1,0,0,0,.8-.83A.93.93,0,0,0,215.25,39.63Z"/><path class="cls-6" d="M229.2,5a.37.37,0,1,1-.74,0,.37.37,0,1,1,.74,0Z"/><path class="cls-6" d="M217.37,28.43a.42.42,0,0,0-.37.38.44.44,0,0,0-.38-.38A.45.45,0,0,0,217,28,.43.43,0,0,0,217.37,28.43Z"/><path class="cls-6" d="M191.81,40.45a.37.37,0,1,1-.74,0,.37.37,0,1,1,.74,0Z"/><path class="cls-6" d="M204.27,28.72a.45.45,0,0,0-.37.39.43.43,0,0,0-.37-.39.42.42,0,0,0,.37-.38A.43.43,0,0,0,204.27,28.72Z"/><path class="cls-6" d="M214.83,3.82a.43.43,0,0,0-.37.39.45.45,0,0,0-.38-.39.44.44,0,0,0,.38-.38A.42.42,0,0,0,214.83,3.82Z"/><path class="cls-6" d="M198.88,6.24a.37.37,0,1,1-.74,0,.37.37,0,1,1,.74,0Z"/><path class="cls-6" d="M243.25,5.42a.43.43,0,0,0-.37.38.42.42,0,0,0-.37-.38.43.43,0,0,0,.37-.39A.45.45,0,0,0,243.25,5.42Z"/><path class="cls-6" d="M173.38,70.09a.37.37,0,1,1-.74,0,.37.37,0,1,1,.74,0Z"/><path class="cls-6" d="M244.05,112.57a.37.37,0,1,1-.74,0,.37.37,0,1,1,.74,0Z"/><path class="cls-6" d="M179.43,148.1a.43.43,0,0,0-.37.38.38.38,0,0,1,0-.76A.43.43,0,0,0,179.43,148.1Z"/><path class="cls-6" d="M170.5,154.52a.37.37,0,1,1-.74,0,.37.37,0,1,1,.74,0Z"/><path class="cls-6" d="M175.66,140.12a.4.4,0,1,1-.8,0,.4.4,0,1,1,.8,0Z"/><path class="cls-6" d="M192.32,148.89a.4.4,0,1,1-.8,0,.4.4,0,1,1,.8,0Z"/><path class="cls-6" d="M171.35,93a.45.45,0,0,0-.39.41.47.47,0,0,0-.4-.41.47.47,0,0,0,.4-.41A.45.45,0,0,0,171.35,93Z"/><path class="cls-6" d="M222,10.81a.4.4,0,1,1-.8,0,.4.4,0,1,1,.8,0Z"/><path class="cls-6" d="M238.8,46.65a.4.4,0,1,1-.8,0,.4.4,0,1,1,.8,0Z"/><path class="cls-6" d="M194.83,50.61a.4.4,0,1,1-.8,0,.4.4,0,1,1,.8,0Z"/><path class="cls-6" d="M188.21,47.86a.4.4,0,1,1-.8,0,.4.4,0,1,1,.8,0Z"/><path class="cls-6" d="M231.15,148.1a.28.28,0,0,0-.24.25.25.25,0,0,1,0-.5A.28.28,0,0,0,231.15,148.1Z"/></g><circle class="cls-7" cx="165.48" cy="87.12" r="6.77"/><path class="cls-8" d="M171.44,86.41c.25,0,.5.15.8.21a6.83,6.83,0,0,0-.57-2.26,2.87,2.87,0,0,1-.53.37c-.58.27-.43.23-.93-.3s-1.48-.43-1.41.12-.62.18-.75-.33-.78-.52-1.23-1.15-1.4-.4-1.88-.7-1.53.23-.5.5.8.58.58,1.08a1.51,1.51,0,0,0,.57,1.88c.81.65-.3.25-.4,1s-1.53.17-2.1-.63-.63.1-1.78,0-1.16.2-1.16-.68c0-.62-.58-.89-.93-1a6.67,6.67,0,0,0-.51,2.58,6.77,6.77,0,0,0,4.22,6.27,5,5,0,0,1,.31-.73c.22-.45,1.18-.06,1.53-.91s.95-.73,1.1,0A1.65,1.65,0,0,0,167.35,93c.45-.07.28-1.45.28-1.91s.82-.35.9-1,.68-.5,1.15-.12-.05.6-.07,1.85a2.29,2.29,0,0,0,0,.55,7,7,0,0,0,1.74-2,4,4,0,0,1-.35-.72c-.28-.85.37-.83.27-1.86S171,86.33,171.44,86.41Z"/><path class="cls-9" d="M161.79,83.51a.47.47,0,0,0,.53,0c.33-.17.49,0,.2.39s-.45.32-.29.77-.63.87-.87.53-.13-.43-.59-.62-.79-.92,0-.75S161.13,83.24,161.79,83.51Z"/><path class="cls-9" d="M163.46,84.22s.76-.19.66.32-.21.35.22.64.64.82.14.65-.35-.31-.78-.11-.76-.07-.58-.4S162.71,84.3,163.46,84.22Z"/><path class="cls-9" d="M166,81.36c.28,0,.22.32.58.32s.34.24.49.44,0,.67-.29.37-.51-.54-.78-.39-.86-.13-1-.24-1.19-.29-1.4,0-1,.43-.82,0,.44-.79,1.08-.71.78.32,1,0,.67-.34.73-.18S165.51,81.41,166,81.36Z"/><path class="cls-9" d="M168.2,81.73s.93-.26,1,.37.53.77.83,1-1,.4-1.31,0-.6-.25-.95-.25S167.7,81.67,168.2,81.73Z"/><path class="cls-10" d="M171.91,85a.59.59,0,0,0-.28.34c-.19.64-.42.19-1.51-.49s-.68.08-.6.53.34,1.2,0,1.75-.72-.62-1.05-.89a1.93,1.93,0,0,1-1-1.16c-.29-.83.07-.19-1.21-.72s-.08.61.6,1,.75.53.41,1.47-1,.34-1,1.13-.64.9-1.47.64-1.2-.38-1.73.07-.68.49-1.54-.6-.53-.94-1.17-.49-.9.26-1.05-.43a1.8,1.8,0,0,0-.52-.9,6.58,6.58,0,0,0-.06.9,6.74,6.74,0,0,0,2.88,5.53c.84.07.09-.61.09-1s.11-.36.6-.39.3-.15.53-.59.39.08,1.05,0,.66-.33.94-.54,0,0,.87,0,.69,0,.71.88.19.92.47.94-.13-.77-.11-1.48.17-.44.26-1,.71-.75,1.26-.56.56,0,1-.3.51.09.93.39.24.32-.06,1.28.11.26.3,0a2.81,2.81,0,0,0,0-1.67c-.13-.72.13-.61.17-1.15a11.35,11.35,0,0,0-.17-1.58c0-.6.62-.06,1,.18.25.13.42,0,.63-.15A6.7,6.7,0,0,0,171.91,85Z"/><path class="cls-11" d="M166.55,80.43a6.77,6.77,0,0,1-3.22,12.73,6.35,6.35,0,0,1-1.07-.09,6.77,6.77,0,1,0,4.29-12.64Z"/><path class="cls-12" d="M168.32,88.08c-.95,2.73-3.47,4.32-5.63,3.57s-3.14-3.58-2.19-6.3S164,81,166.13,81.79,169.27,85.36,168.32,88.08Z"/><path class="cls-13" d="M219,68.41a5.38,5.38,0,1,1,5.38,5.38A5.38,5.38,0,0,1,219,68.41Z"/><path class="cls-14" d="M229.74,68.41a5.37,5.37,0,0,0-6.89-5.16h0s2-.13,2,.92.54,1.61-.26,2-1,.28-1.11,1-.42,1.45-1.36,1.29-1.77.94-2,0c-.16-.58-.69-.84-1-1.24a5.07,5.07,0,0,0-.15,1.24,5.38,5.38,0,1,0,10.76,0Z"/><path class="cls-15" d="M225.26,63.11c.25.4,1.38,2.34.89,3.1s.12,1.58-1.15,2.23.16,1-1.49,1.08-.34.9-2,.73c-.9-.1-1.64-.13-2.28-.18a5.38,5.38,0,1,0,6-7Z"/><path class="cls-16" d="M225.9,63.26c.26.75.91,2.43,1.44,2.67.68.32.34,1.9,0,2.51s-.94.38-1.05,1.48.15,2-.91,2-1.61-.25-2.08,0-.36.9-1.5.19A8.74,8.74,0,0,0,219.63,71a5.38,5.38,0,1,0,6.27-7.7Z"/><path class="cls-11" d="M225.21,63.1a5.38,5.38,0,0,1-2.56,10.11,6,6,0,0,1-.85-.06,5.38,5.38,0,1,0,3.41-10.05Z"/><path class="cls-17" d="M219.39,66.34c.47.3,1.26.34,1.29,0,.06-.56.74-.17.76.65s.94.11.81-1.07.3-.6,1,0,.65-.63.7-1.14-.39-.37-1.24-.41-.36-1-.36-1A5.44,5.44,0,0,0,219.39,66.34Z"/><path class="cls-12" d="M226.62,69.18c-.76,2.16-2.76,3.43-4.48,2.83s-2.5-2.84-1.74-5,2.76-3.44,4.48-2.84S227.37,67,226.62,69.18Z"/><circle class="cls-18" cx="119.42" cy="19.79" r="2.97"/><path class="cls-19" d="M119.42,16.82a2.93,2.93,0,0,0-1.81.62,1.84,1.84,0,0,1,1.68.51c.75.91.69,1.34.51,1.76s-2.73,1.86-3.35.11a3,3,0,1,0,3-3Z"/><path class="cls-20" d="M117,21.45a3,3,0,1,0,2.47-4.63,2.91,2.91,0,0,0-1.07.2,2.19,2.19,0,0,1,1.63.56c.65.76,1,2.38.11,3.1A5.19,5.19,0,0,1,117,21.45Z"/><path class="cls-21" d="M119.42,22.76a3,3,0,0,0,1-5.77c.55.79,1.48,2.49.56,3.69a3.89,3.89,0,0,1-3.12,1.63A2.88,2.88,0,0,0,119.42,22.76Z"/><path class="cls-11" d="M119.89,16.86a3,3,0,0,1-1.41,5.58,3.59,3.59,0,0,1-.47,0,3,3,0,0,0,1.41.35,3,3,0,0,0,.47-5.9Z"/><path class="cls-12" d="M120.67,20.22a1.87,1.87,0,1,1-3.44-1.2,1.87,1.87,0,1,1,3.44,1.2Z"/><g class="cls-22"><circle class="cls-23" cx="53.08" cy="54.96" r="10.08" transform="translate(-12.94 93.43) rotate(-76.23)"/><path class="cls-24" d="M62.21,59.22a37.28,37.28,0,0,1-12.62-7.06A25.77,25.77,0,0,1,45.76,48,9.78,9.78,0,0,1,47,46.94,24.1,24.1,0,0,0,50.75,51a35.83,35.83,0,0,0,12,6.68A10,10,0,0,1,62.21,59.22Z"/><path class="cls-24" d="M51.82,45a14.16,14.16,0,0,0,2.06,2.24,22.28,22.28,0,0,0,8.75,4.54A10.49,10.49,0,0,1,63,53.13a23.72,23.72,0,0,1-10-5.06,14.54,14.54,0,0,1-2.51-2.84A10.08,10.08,0,0,1,51.82,45Z"/><path class="cls-24" d="M43,55.69a10.66,10.66,0,0,1,0-2,15.77,15.77,0,0,0,15.21,9.94A9.9,9.9,0,0,1,53.81,65,10.06,10.06,0,0,1,43,55.69Z"/><path class="cls-11" d="M50.81,45.15A10.08,10.08,0,0,0,57,63.7a10.2,10.2,0,0,0,1.58-.24,10.08,10.08,0,1,1-7.73-18.31Z"/><path class="cls-12" d="M49,56.7c1.71,3.94,5.63,6,8.75,4.69S62,55.74,60.33,51.8s-5.62-6-8.75-4.69S47.3,52.76,49,56.7Z"/><path class="cls-25" d="M43.1,53.57c2.25,1.66,4.77,3.37,7.49,5.06S56.2,62,58.78,63.27c7.59,3.88,13.52,5.61,14.53,4S70.07,61,63.12,55.83c0,.35-.08.7-.14,1l-.09.41a9.46,9.46,0,0,1-.26.91c-.07.2-.14.4-.22.59,1.3,1.22,2,2.15,1.69,2.56s-1.33.25-2.95-.35a55.85,55.85,0,0,1-9.35-4.83A61.22,61.22,0,0,1,44,50.57c-1.71-1.5-2.62-2.66-2.32-3.13s1.77-.16,3.94.74c.16-.18.32-.35.49-.51l.51-.46L47,47a9.23,9.23,0,0,1,.91-.63c-7.85-4.07-14-5.92-15.07-4.25S36.08,48.39,43.1,53.57Z"/><path class="cls-26" d="M43.73,51.2a74,74,0,0,0,7.73,5.52,69.87,69.87,0,0,0,9.15,4.94c3,1.29,5,1.75,5.46,1.08s-.93-2.39-3.44-4.55c-.07.2-.14.4-.22.59,1.3,1.22,2,2.15,1.69,2.56s-1.33.25-2.95-.35a55.85,55.85,0,0,1-9.35-4.83A61.22,61.22,0,0,1,44,50.57c-1.71-1.5-2.62-2.66-2.32-3.13s1.77-.16,3.94.74c.16-.18.32-.35.49-.51-3.47-1.61-6-2.25-6.42-1.51S40.85,48.82,43.73,51.2Z"/><path class="cls-27" d="M38.91,49.12c1.26,1.1,2.73,2.27,4.37,3.48C45.57,54.28,48.19,56,51,57.75c3,1.85,6,3.5,8.69,4.84,1.58.79,3.08,1.47,4.44,2,2,.8,4.33,1.58,5.7,1.48a1.25,1.25,0,0,0,1-.49c.7-1.14-1.75-3.66-3.93-5.56C65.77,59,64.44,58,63,56.87l-.09.41c1.4,1,2.68,2.07,3.78,3,4.22,3.69,4,4.83,3.86,5.09s-1.09.94-6.28-1.15c-1.32-.53-2.76-1.19-4.29-1.94-2.74-1.35-5.75-3-8.8-4.89-2.81-1.74-5.46-3.51-7.78-5.23-1.58-1.16-3-2.3-4.22-3.36-4.22-3.69-4-4.83-3.86-5.09s.25-.28.77-.31c.79-.06,2.37.19,5.51,1.46,1.54.62,3.25,1.4,5.05,2.31L47,47c-1.88-1-3.64-1.77-5.24-2.41-2.69-1.09-6-2.14-6.74-1S36.73,47.21,38.91,49.12Z"/></g><g class="cls-28"><path class="cls-29" d="M34.22,129.5a1.78,1.78,0,0,1-.44.17,4.88,4.88,0,0,1-2.29-.12c-.63-.27.08-.27.46-.34a3.32,3.32,0,0,1,1.14.14Z"/></g><path class="cls-30" d="M34.22,129.5a6.21,6.21,0,0,1-1.83.17c-.7-.07-.86-.36-.86-.36a1.61,1.61,0,0,1,.73-.41,5.52,5.52,0,0,0,1.36.07A1.16,1.16,0,0,1,34.22,129.5Z"/><path class="cls-31" d="M33.62,129a5.52,5.52,0,0,1-1.36-.07,2.5,2.5,0,0,1,.87,0C33.67,128.93,33.62,129,33.62,129Z"/><path class="cls-32" d="M33.65,129c.16.13.42.41.3.58l.27-.07A1.17,1.17,0,0,0,33.65,129Z"/><path class="cls-32" d="M32.76,128.91c.43,0,.54,0,.55,0l-.18,0a4.09,4.09,0,0,0-.69,0Z"/><path class="cls-33" d="M33.78,129.6a2.73,2.73,0,0,1-1.75-.27c-.13-.16,0-.31.1-.39a1.31,1.31,0,0,0-.6.37s.16.29.86.36A7.33,7.33,0,0,0,33.78,129.6Z"/><rect class="cls-34" y="113.61" width="250" height="46.39"/><path class="cls-12" d="M0,127.86s42.25-1.32,48.5,0,38.75,3.31,49.5,3.65,49.5,2.32,57.25,2.32-1.5,3.64-30.25,3-27.83.88-27,2,17.33,4,24.33,3.53,15.34,1.1,12.17,3.09,8.5,8,15.33,7.51S207,155.14,203,156.25s27.83-1.33,29.33,3.75H0Z"/><path class="cls-35" d="M60.5,117.85c3.67.7,27.17,1.51,28.83,3.27s45.84,1.77,49.17,2.43-15.33.89-11.83,4,48,.23,54.5-.18,19.16.63,28.66-.07a211.32,211.32,0,0,1,26.84,0c3,.41,13.33-1.07,13.33-1.07V113.61H53.22C43.33,116.78,57.13,117.2,60.5,117.85Z"/><path class="cls-35" d="M0,113.61v8.08c5.88-1.12,20.89,4,24.17,3.52,3.5-.55,22.66,1.33,25.54.55s31.46,3.21,38,3.18,19.92-.2,19.81-.64-3.31-1.6-8.93-1-23.38-.07-32.5-4-26.13-2.48-21.5-5.37-19.38-2.74-19.38-2.74l1.43-1.5Z"/><path class="cls-36" d="M250,129c-3.25.18-17.64,1-23.83,1-7,0-57.31.77-55.17,2.43,2.38,1.85.17,6.85-11.67,7.51s-16,1.07-16.16,3.74,21.83,2,24.83,1.78,40,2,38.49,4.42,9,2.43,14.51,2.87c5.16.42,14.28,3.55,29,2.84Z"/><polygon class="cls-34" points="4.67 143.69 7.87 143.62 10.45 143.01 11.88 142.97 15.07 143.46 21.06 143.95 15.1 143.69 15.97 144.06 11.85 143.57 10.1 143.61 8.05 143.88 4.67 143.69"/><polygon class="cls-34" points="18.41 153.79 21.28 153.73 23.61 153.31 24.9 153.28 27.77 153.58 33.16 153.87 27.8 153.73 28.58 153.97 24.87 153.67 23.29 153.7 21.45 153.9 18.41 153.79"/><path class="cls-37" d="M139.31,110.3c2.26.21,4.76.21,6.13.21h13.82c2,0,8.79,2,13.56,3.32,46.56,0,55.19,4.31,77.18,2.54V101.45c-1.82-.3-4.48-.7-6-.79-2.42-.14-5.74-2-7.67-1.19s-7,.67-9,1a60.45,60.45,0,0,1-7.8.44c-1.25,0-5.44-.44-8-.47h0c-.57,0-1.07,0-1.42,0a51.88,51.88,0,0,0-5.62.49c-2.87.46-5.27,1-7.36.76a43.47,43.47,0,0,0-6,0c-2.21.08-7.95,1.58-11.48,1.1s-7.36.37-9.51.09a25.27,25.27,0,0,0-8.38,1.32,13.3,13.3,0,0,1-4.42,1.79,28.41,28.41,0,0,0-6.81,1,36.76,36.76,0,0,1-6.05,1.6C143.72,108.8,141.36,109.75,139.31,110.3Z"/><path class="cls-35" d="M0,102.44v11.39c51.5,3.84,94.5,6,172.82,0-4.77-1.27-11.61-3.32-13.56-3.32H145.44c-1.37,0-3.87,0-6.13-.21a18.65,18.65,0,0,1-3.11-.49c-2.51-.71-9.15-1.41-11.2-2s-10.33-1-13-1-6-1.4-7.17-1.83a26.3,26.3,0,0,0-9.87.14c-2.78.85-4.93-.42-6.64-.7s-4.58-.28-5.92-.66-4.48,1.09-6.46.94-5.2.42-8,.71-3,.7-5,0A34,34,0,0,0,56.1,104c-1.71-.13-3.86,0-6.37,0s-3.32-.13-7.53-1.44-3.59.18-6.73-.64-6.1,1.39-9.16.36-9.23.46-10.93.11-6.46.22-9.6.07C4,102.41,1.72,102.42,0,102.44Z"/><polygon class="cls-34" points="153.19 149.96 157.16 149.87 160.37 149.18 162.15 149.14 166.11 149.66 173.56 150.18 166.16 149.92 167.24 150.33 162.28 150.16 159.92 150.13 157.39 150.16 153.19 149.96"/><polygon class="cls-34" points="110.69 151.9 114.59 151.81 117.75 151.25 119.49 151.21 123.38 151.61 130.7 152 123.42 151.82 124.49 152.15 119.46 151.73 117.32 151.78 114.82 152.05 110.69 151.9"/><polygon class="cls-35" points="145.97 114.65 75.41 114.65 75.41 107.83 79.07 106.34 82.8 100.31 85.9 99.12 88.08 95.75 93.74 91.5 96.19 90.41 97.32 89.02 99.19 89.02 101.02 91.57 103.64 95.03 106.02 93.18 107.42 90.9 110.81 87.66 112.35 86.4 113.49 86.87 114.8 89.17 115.09 90.36 117.3 88.68 118.68 87.79 120.02 88.06 121.28 90.26 120.88 91.3 121.48 94 123.31 96.1 125.36 99.41 126.43 102.19 126.43 105.82 129.96 106.32 132.29 107.31 132.29 109.73 134.62 109.9 138.35 110.62 141.81 112.4 145.97 114.65"/><path class="cls-38" d="M103.64,95l.77,3.81.69,4.62L103,111.2s3.56-4,3.66-4.19,0-8.79,0-8.79l1-5.37-.24-1.95L106,93.18Z"/><polygon class="cls-38" points="88.08 95.75 87.12 100.53 86.66 109.73 85.93 112.17 85.93 108.68 84.61 103 82.8 100.31 85.9 99.12 88.08 95.75"/><polygon class="cls-38" points="115.09 90.36 115.75 95.42 115.09 103.6 118.52 109.17 116.35 102.54 117.6 95.22 118.68 87.79 117.3 88.68 115.09 90.36"/><polygon class="cls-38" points="112.42 114.65 109.65 114.65 111.04 111.26 109.65 107.01 111.04 96.74 111.04 106.42 112.92 110.52 112.03 113.06 112.42 114.65"/><polygon class="cls-38" points="97.48 114.65 92.73 114.65 93.92 109.9 95.6 101.88 95.5 93.52 97.48 102.69 95.99 108.61 96.59 112.17 97.48 114.65"/><polygon class="cls-38" points="79.07 106.34 78.28 108.71 78.51 110.95 79.8 113.36 77.45 110.95 76.8 109.01 75.41 107.83 79.07 106.34"/><polygon class="cls-38" points="126.43 105.82 126.77 107.95 126.43 110.72 127.3 111.86 126.86 109.85 127.69 107.82 127.69 106 126.43 105.82"/><polygon class="cls-39" points="132.29 109.73 132.48 111.45 133.63 113.16 133.63 113.89 134.03 112.7 133.16 111.32 133.38 109.81 132.29 109.73"/><polygon class="cls-38" points="121.48 94 120.93 96.74 121.72 101.05 122.37 108.12 123.21 103.02 121.82 98.02 122.29 94.92 121.48 94"/><polygon class="cls-38" points="121.82 114.65 120.93 114.65 121.58 112.17 120.93 109.73 119.79 104.41 121.18 108.84 122.07 111.2 121.87 113.89 121.82 114.65"/><polygon class="cls-38" points="97.32 89.02 97.32 92.84 98.27 98.19 98.93 100.53 97.32 97.46 96.69 92.98 96.19 90.41 97.32 89.02"/><polygon class="cls-38" points="134.62 109.9 136.4 112.17 139.5 112.7 141.48 113.43 145.97 114.65 142.58 112.82 138.35 110.62 134.62 109.9"/><polygon class="cls-38" points="129.96 106.32 130.53 108.54 131.27 110.39 131.84 112.64 133.63 113.16 132.48 111.45 132.29 109.73 132.29 107.31 129.96 106.32"/><polygon class="cls-39" points="123.31 96.1 123.31 98.37 124.79 101.19 125.93 104.06 125.48 106.78 125.56 109.73 126.43 110.72 126.77 107.95 126.43 105.82 126.43 102.19 125.36 99.41 123.31 96.1"/><polygon class="cls-39" points="120.02 88.06 119.42 89.98 119.84 93.62 119.79 98.1 121.23 101.61 122.12 105.39 121.72 101.05 120.93 96.74 121.48 94 120.88 91.3 121.28 90.26 120.02 88.06"/><polygon class="cls-39" points="112.35 86.4 111.78 91.27 112.17 95.42 113.06 98.69 115.09 103.6 115.75 95.42 115.09 90.36 114.8 89.17 113.49 86.87 112.35 86.4"/><polygon class="cls-39" points="99.19 89.02 98.47 91.94 100.05 96.44 102.43 101.34 105.1 103.47 103.64 95.03 99.19 89.02"/><polygon class="cls-38" points="93.74 91.5 92.33 96.74 92.73 102.13 91.09 110.29 90.8 101.78 89.91 96.74 92.07 92.75 93.74 91.5"/><polygon class="cls-34" points="250 90.57 250 121.48 206.47 121.48 206.72 120.58 207.13 119.11 215.1 113.28 217.38 110.65 219.38 108.34 219.38 92.75 220.25 90.88 221.59 88.01 222.02 88.01 223.54 90.51 223.69 99.27 225.36 103.23 225.36 87.69 227.75 85.37 227.75 85.37 229.34 83.83 231.23 86.49 231.23 79.25 232.52 73.15 234.07 73.15 237.98 78.94 237.98 84.25 239.15 85.72 240.51 82.79 241.65 77.22 244.76 77.22 247.18 79.98 249.15 85.51 249.15 100.68 250 90.57"/><polygon class="cls-39" points="234.07 73.15 235.46 84.57 235.46 99.09 234.07 108.48 238.44 116.61 236.47 106.39 238.04 100 238.04 91.38 237.97 84.25 237.97 78.94 234.07 73.15"/><polygon class="cls-39" points="244.75 77.22 246.12 84.08 246.37 92.56 246.02 106.18 247.63 93.67 247.63 85.68 247.18 79.98 244.75 77.22"/><polygon class="cls-39" points="222.03 88.01 222.03 92.35 222.63 99.3 222.33 112.09 223.44 102.99 223.69 99.27 223.54 90.51 222.03 88.01"/><polygon class="cls-39" points="229.34 83.84 229.34 89.85 230.31 94.88 230.31 105.35 229.34 114.04 230.31 118.63 230.31 113.62 231.93 104.24 232.13 93.88 230.73 89.29 231.23 86.5 229.34 83.84"/><polygon class="cls-39" points="219.37 108.34 219.37 111.19 218.44 114.32 218.44 119.04 216.82 115.78 217.48 112.09 217.38 110.65 219.37 108.34"/><polygon class="cls-40" points="232.52 73.15 232.99 76.36 232.75 80.88 232.52 88.39 232.99 96.38 231.93 104.24 232.13 93.88 230.73 89.29 231.23 86.5 231.23 79.25 232.52 73.15"/><polygon class="cls-40" points="239.15 85.71 239.81 89.85 239.81 98.59 240.71 89.57 241.02 85.4 242.03 80.67 242.56 77.22 241.65 77.22 240.51 82.79 239.15 85.71"/><polygon class="cls-40" points="250 90.57 250 101.86 249.68 102.57 249.15 100.68 250 90.57"/><polygon class="cls-40" points="227.75 85.37 227.18 88.69 226.98 94.71 226.22 104.58 224.7 112.77 225.36 103.23 225.36 87.69 227.75 85.37"/><polygon class="cls-40" points="220.25 90.88 220.25 94.88 219.7 98.59 219.37 108.34 219.37 92.75 220.25 90.88"/><polygon class="cls-40" points="215.11 113.27 215.05 113.69 214.85 115.29 212.28 117.86 209.8 119.81 209.25 121.48 206.47 121.48 207.13 119.11 215.11 113.27"/><path class="cls-34" d="M250,120.58v9H175.33s10.5-5,15.45-4.5,15.69-4.48,15.69-4.48Z"/><polygon class="cls-39" points="241.5 129.56 241.5 125.07 242.03 118.92 241.5 110.68 242.03 102.34 242.03 110.58 242.56 118.81 242.03 124.92 242.56 129.56 241.5 129.56"/><polygon class="cls-40" points="241.5 129.56 238.44 129.56 240.12 124.69 240.95 119.73 240.62 112.14 241.5 110.68 242.03 118.92 241.5 124.91 241.5 129.56"/><polygon class="cls-39" points="250 122.59 250 125.72 249.68 123.3 250 122.59"/><polygon class="cls-39" points="249.68 129.56 250 127.54 250 129.56 249.68 129.56"/><polygon class="cls-39" points="226.22 129.56 227.18 129.56 226.7 126.7 227.18 121.77 226.7 115.23 226.47 119.82 226.22 125.8 226.22 127.96 226.22 129.56"/><polygon class="cls-34" points="74.34 137.83 0 137.83 0 85.43 4.22 93.1 8.16 88.87 10.49 83.68 16.11 76.29 18.64 73.42 20.53 74.49 22.71 79.74 23.2 82.44 26.85 78.61 29.14 76.58 31.35 77.2 33.44 82.22 32.79 84.58 33.77 90.73 35.11 92.85 36.81 95.53 40.21 103.08 41.96 109.4 41.96 117.69 44.07 118.1 47.83 118.82 51.68 121.08 51.68 126.6 55.53 127 61.72 128.63 67.46 132.7 68.73 133.65 74.34 137.83"/><path class="cls-40" d="M4.22,93.1l1.27,8.71,1.15,10.51L3.19,130s5.91-9.13,6.07-9.55,0-20,0-20L10.9,88.13l-.41-4.45L8.16,88.87Z"/><polygon class="cls-40" points="23.2 82.44 24.29 93.97 23.2 112.62 28.88 125.33 25.27 110.22 27.35 93.52 29.14 76.58 26.85 78.61 23.2 82.44"/><polygon class="cls-40" points="18.77 137.83 14.18 137.83 16.47 130.09 14.18 120.41 16.47 96.98 16.47 119.06 19.59 128.4 18.11 134.21 18.77 137.83"/><polygon class="cls-40" points="41.97 117.69 42.54 122.55 41.97 128.87 43.41 131.47 42.69 126.88 44.07 122.25 44.07 118.1 41.97 117.69"/><polygon class="cls-40" points="51.68 126.61 51.99 130.52 53.9 134.43 53.9 136.09 54.56 133.38 53.12 130.22 53.48 126.79 51.68 126.61"/><polygon class="cls-40" points="33.77 90.73 32.87 96.98 34.18 106.82 35.24 122.92 36.64 111.31 34.34 99.91 35.11 92.85 33.77 90.73"/><polygon class="cls-40" points="34.34 137.83 32.87 137.83 33.93 132.17 32.87 126.61 30.98 114.47 33.28 124.58 34.75 129.96 34.42 136.09 34.34 137.83"/><polygon class="cls-39" points="55.53 127 58.49 132.17 63.63 133.38 66.91 135.03 74.34 137.83 68.73 133.65 61.72 128.63 55.53 127"/><polygon class="cls-39" points="47.83 118.82 48.77 123.88 50 128.11 50.94 133.25 53.9 134.43 51.99 130.52 51.68 126.61 51.68 121.08 47.83 118.82"/><polygon class="cls-39" points="36.8 95.53 36.8 100.7 39.26 107.13 41.15 113.67 40.41 119.88 40.53 126.61 41.97 128.87 42.54 122.55 41.97 117.69 41.97 109.4 40.2 103.09 36.8 95.53"/><polygon class="cls-39" points="31.35 77.2 30.37 81.58 31.06 89.87 30.98 100.08 33.36 108.09 34.83 116.72 34.18 106.82 32.87 96.98 33.77 90.73 32.79 84.59 33.44 82.22 31.35 77.2"/><polygon class="cls-39" points="18.65 73.42 17.7 84.52 18.36 93.99 19.83 101.44 23.2 112.62 24.29 93.97 23.2 82.44 22.7 79.74 20.53 74.49 18.65 73.42"/><polygon class="cls-39" points="6.64 112.32 2.21 107.47 0 101.19 0 85.25 4.22 93.1 6.64 112.32"/><path class="cls-12" d="M68.67,137.83h29.2S84.63,136,77.5,136.25s-20.85,1.58-20.85,1.58Z"/><path class="cls-11" d="M127.11,135.05a2.72,2.72,0,0,0,.35-.17l-1.39-.15a4.23,4.23,0,0,0-1.4-.15c-.47.1-1.33.12-.55.44a6,6,0,0,0,2.59.13Z"/><polygon class="cls-11" points="126.69 135.16 126.71 135.15 126.7 135.16 126.69 135.16"/><path class="cls-39" d="M127.46,134.88a7.69,7.69,0,0,1-2.25.26c-.85-.07-1-.42-1-.42a1.92,1.92,0,0,1,.88-.53,7,7,0,0,0,1.68.07A1.4,1.4,0,0,1,127.46,134.88Z"/><path class="cls-41" d="M126.72,134.26a7,7,0,0,1-1.68-.07,3.63,3.63,0,0,1,1.07,0C126.77,134.2,126.72,134.26,126.72,134.26Z"/><path class="cls-41" d="M126.75,134.27c.19.16.52.49.38.71l.33-.1A1.41,1.41,0,0,0,126.75,134.27Z"/><path class="cls-41" d="M125.66,134.2c.52,0,.66,0,.68,0l-.23,0a4.39,4.39,0,0,0-.85,0Z"/><path class="cls-34" d="M126.93,135a3.26,3.26,0,0,1-2.16-.29c-.16-.2,0-.38.12-.48a1.51,1.51,0,0,0-.73.47s.2.35,1,.42A9.19,9.19,0,0,0,126.93,135Z"/><path class="cls-11" d="M198,154a4.73,4.73,0,0,0,.74-.36l-2.93-.31a8.76,8.76,0,0,0-2.93-.32c-1,.2-2.79.24-1.15.92a12.47,12.47,0,0,0,5.43.28Z"/><path class="cls-11" d="M197.16,154.26h0Z"/><path class="cls-39" d="M198.77,153.68a16.11,16.11,0,0,1-4.71.55c-1.8-.17-2.22-.89-2.22-.89a4,4,0,0,1,1.86-1.1,15.13,15.13,0,0,0,3.51.13A3,3,0,0,1,198.77,153.68Z"/><path class="cls-41" d="M197.21,152.37a15.13,15.13,0,0,1-3.51-.13,6.67,6.67,0,0,1,2.23-.09C197.32,152.26,197.21,152.37,197.21,152.37Z"/><path class="cls-41" d="M197.29,152.4c.39.34,1.08,1,.79,1.49a6.22,6.22,0,0,0,.69-.21A3,3,0,0,0,197.29,152.4Z"/><path class="cls-41" d="M195,152.25c1.1.08,1.38,0,1.42-.06l-.48,0a9.86,9.86,0,0,0-1.78,0A7.74,7.74,0,0,0,195,152.25Z"/><path class="cls-34" d="M197.64,154c-1.44.25-3.95,0-4.51-.63-.35-.41,0-.78.24-1a3.35,3.35,0,0,0-1.53,1s.42.72,2.22.89A20.42,20.42,0,0,0,197.64,154Z"/><path class="cls-11" d="M90.88,149.9a12.85,12.85,0,0,0,1.93-.93l-7.68-.82s-5.14-1.37-7.69-.83-7.31.62-3,2.4c4.14,1.71,11.21,1.19,14.22.74Z"/><path class="cls-11" d="M88.59,150.5l.06,0-.06,0Z"/><path class="cls-36" d="M92.81,149c-4.35,1.64-12.35,1.43-12.35,1.43-4.72-.42-5.82-2.31-5.82-2.31,1.17-1.82,4.88-2.9,4.88-2.9,3.51.8,9.19.34,9.19.34A7.87,7.87,0,0,1,92.81,149Z"/><path class="cls-41" d="M88.71,145.53s-5.68.46-9.19-.34a17.87,17.87,0,0,1,5.86-.23C89,145.25,88.71,145.53,88.71,145.53Z"/><path class="cls-41" d="M88.92,145.6c1,.91,2.82,2.72,2.06,3.92a15.3,15.3,0,0,0,1.83-.55A7.94,7.94,0,0,0,88.92,145.6Z"/><path class="cls-41" d="M82.9,145.23c2.88.19,3.62,0,3.71-.15L85.38,145a24.67,24.67,0,0,0-4.69,0C81.3,145.08,82,145.17,82.9,145.23Z"/><path class="cls-34" d="M89.86,149.75c-3.79.67-10.36.07-11.83-1.64-.92-1.07-.11-2,.63-2.63-1.17.44-3.21,1.35-4,2.61,0,0,1.1,1.89,5.82,2.31A53,53,0,0,0,89.86,149.75Z"/><path class="cls-11" d="M45.51,149a17,17,0,0,0,2.56-1.22L37.91,146.7s-6.79-1.82-10.16-1.1-9.67.83-4,3.17c5.48,2.27,14.84,1.57,18.82,1C42.57,149.75,45.12,149.12,45.51,149Z"/><path class="cls-11" d="M42.49,149.8l.08-.05-.08.05Z"/><path class="cls-36" d="M48.07,147.79c-5.76,2.16-16.34,1.89-16.34,1.89-6.24-.57-7.7-3.06-7.7-3.06,1.55-2.41,6.46-3.84,6.46-3.84,4.65,1.06,12.16.45,12.16.45C46.13,144.25,48.07,147.79,48.07,147.79Z"/><path class="cls-41" d="M42.65,143.23s-7.51.61-12.16-.45c0,0,2.33-.71,7.75-.29C43.05,142.86,42.65,143.23,42.65,143.23Z"/><path class="cls-41" d="M42.92,143.33c1.38,1.2,3.74,3.6,2.73,5.17a20.43,20.43,0,0,0,2.42-.71A10.5,10.5,0,0,0,42.92,143.33Z"/><path class="cls-41" d="M35,142.83c3.81.26,4.79,0,4.91-.2-.46,0-1-.1-1.63-.14a32.76,32.76,0,0,0-6.2,0A28.88,28.88,0,0,0,35,142.83Z"/><path class="cls-34" d="M44.16,148.81c-5,.89-13.7.1-15.64-2.16-1.22-1.42-.15-2.71.83-3.48-1.54.58-4.24,1.78-5.32,3.45,0,0,1.46,2.49,7.7,3.06A71.18,71.18,0,0,0,44.16,148.81Z"/><path class="cls-11" d="M229.73,144.83a33,33,0,0,0,4.81-2.3l-19.09-2.05s-12.77-3.4-19.1-2.07-18.17,1.56-7.5,6c10.29,4.26,27.88,3,35.35,1.84C224.2,146.22,229,145,229.73,144.83Z"/><path class="cls-11" d="M224.05,146.32l.15-.1a.67.67,0,0,0-.14.09Z"/><path class="cls-36" d="M234.54,142.53c-10.82,4.07-30.71,3.55-30.71,3.55-11.72-1.06-14.46-5.75-14.46-5.75,2.91-4.52,12.14-7.2,12.14-7.2,8.73,2,22.84.84,22.84.84C230.89,135.88,234.54,142.53,234.54,142.53Z"/><path class="cls-41" d="M224.35,134s-14.11,1.14-22.84-.84c0,0,4.38-1.35,14.55-.56C225.1,133.26,224.35,134,224.35,134Z"/><path class="cls-41" d="M224.86,134.15c2.59,2.26,7,6.77,5.13,9.73a36.57,36.57,0,0,0,4.55-1.35S231.08,136.25,224.86,134.15Z"/><path class="cls-41" d="M209.9,133.22c7.16.49,9,.08,9.24-.38-.88-.09-1.89-.18-3.08-.27a60,60,0,0,0-11.65.05C205.92,132.86,207.73,133.08,209.9,133.22Z"/><path class="cls-34" d="M227.19,144.46c-9.42,1.66-25.74.18-29.39-4.07-2.29-2.67-.28-5.09,1.57-6.53-2.91,1.08-8,3.33-10,6.47,0,0,2.74,4.69,14.46,5.75A133.48,133.48,0,0,0,227.19,144.46Z"/><path class="cls-34" d="M45.83,160h5.92l1.33-2.58,2.67-3.79L61,151.68l6.58-1.35s5.59,3.09,6.5,3.3,8.58,1,9.84,1,7.19-.33,7.19-.33L83.65,154s-5.32-1.76-5.57-1.82-4.75-.47-4.75-.47l-3.5-2.63-3.41-1.49,1.66-2.69L75.33,143l8.79-1.12h-9s-2.75.76-3.33,1a42.41,42.41,0,0,1-5,.76l-2.33,1.62-2,2.3-4.59.39H55.08l-3.5.55,1.84.55h3.23l-.4.75-3.75,1.1-1.75.31v2.42l-5.25.7H38.27l-3.5.17s7.54,1.75,7.88,1.75a8.43,8.43,0,0,0,2.85-.42c1-.41,1.83-1.16,3.33-1.16a20.92,20.92,0,0,0,3-.25l1.34-1.89.08,1.1-.83,1.45-3.25,1.5Z"/><path class="cls-42" d="M55,151.5l1.65-.58,2.23-1.4,2.93-.47,2.25-.8,2.32-2.82L65,149.05l2.88.47H64.56l-3.56.81a23.11,23.11,0,0,0-3.67,1.17,25.72,25.72,0,0,1-3.11,1.56Z"/><polygon class="cls-34" points="0 139.13 0 141.83 2.88 140.59 7.88 140.59 12.87 140.59 19.88 142.35 24.03 142.35 30.49 140.74 39.25 141.83 45.5 141.83 39.87 140.74 33.62 139.82 29.2 139.13 25.78 140.59 21.06 140.74 16.5 139.82 17.98 139.78 19.88 138.88 22.13 138.47 19.81 138.47 17.13 138.97 14.34 139.16 9.38 139.69 6.66 139.66 4.06 139.59 2.53 139.53 0.91 139.69 0 139.13"/><path class="cls-34" d="M109.13,140.41H95.75l-4.88,1.91h5.69l5.31-1,5.26,1,9.75,3.08,13.82.49s-3.11-.94-3.59-1-9-1.7-9-1.7l-4-.39Z"/><path class="cls-34" d="M250,131.75v5.06h-2.75l-4.12-1.06-3.5-2.31-5.09-1.12s-5.29-.19-5.66-.57-10.25-.5-10.25-.5H211l15.25-.62h4.88l6.25,1,5.25,1.25,4.62,1.82Z"/><path class="cls-34" d="M205,150.33l6-2h13.36c.39,0,6-1.5,6.77-1.06s7.09-1.22,7.09-1.22l-4.09,2.11-5.88,1.52-1.5.6s4.92,2.11,5.58,2.2,4.21,0,4.21,0l-4.83,1.36-4.52-.75-5.9-1.93-5.74-.88H211l-6,1.35Z"/><polygon class="cls-34" points="148.04 139.98 152.58 141.38 157.63 141.38 166.75 141.83 178.38 140.41 173.56 141.83 166.75 142.71 159.5 142.71 154.65 143.64 153.19 144.87 146 142.71 143.17 143.64 138.44 143.64 143.01 139.98 148.04 139.98"/><polygon class="cls-35" points="145.03 110.25 144.29 108.15 144.84 108.15 144.84 108.14 144.84 108.14 143.9 105.57 144.3 105.57 144.3 105.57 144.3 105.57 143.4 102.7 142.49 105.57 142.9 105.57 142.9 105.57 142.9 105.57 142.9 105.57 142.16 107.57 141.96 108.14 141.96 108.14 141.95 108.15 142.5 108.15 141.76 110.25 143.24 110.25 143.24 111.96 143.56 111.96 143.56 110.25 145.03 110.25"/><polygon class="cls-35" points="135.66 109.63 134.92 107.53 135.47 107.53 135.47 107.51 135.47 107.51 134.53 104.94 134.93 104.94 134.93 104.94 134.93 104.94 134.03 102.08 133.12 104.94 133.53 104.94 133.53 104.94 133.53 104.94 133.53 104.94 132.79 106.94 132.59 107.51 132.59 107.51 132.58 107.53 133.14 107.53 132.39 109.63 133.87 109.63 133.87 111.33 134.19 111.33 134.19 109.63 135.66 109.63"/><polygon class="cls-35" points="57.05 103.97 56.31 101.88 56.86 101.88 56.86 101.86 56.86 101.86 55.92 99.29 56.32 99.29 56.32 99.29 56.32 99.29 55.42 96.42 54.51 99.29 54.92 99.29 54.92 99.29 54.92 99.29 54.92 99.29 54.18 101.29 53.98 101.86 53.98 101.86 53.97 101.88 54.52 101.88 53.78 103.97 55.26 103.97 55.26 105.68 55.58 105.68 55.58 103.97 57.05 103.97"/><polygon class="cls-35" points="75.98 106.52 75.24 104.42 75.79 104.42 75.79 104.41 75.79 104.41 74.84 101.83 75.25 101.83 75.25 101.83 75.25 101.83 74.34 98.97 73.44 101.83 73.84 101.83 73.84 101.83 73.84 101.83 73.84 101.83 73.11 103.84 72.9 104.41 72.9 104.41 72.9 104.42 73.45 104.42 72.71 106.52 74.19 106.52 74.19 108.23 74.5 108.23 74.5 106.52 75.98 106.52"/><polygon class="cls-35" points="151.49 110.25 150.75 108.15 151.3 108.15 151.3 108.14 151.3 108.14 150.35 105.57 150.76 105.57 150.76 105.57 150.76 105.57 149.85 102.7 148.95 105.57 149.35 105.57 149.35 105.57 149.35 105.57 149.35 105.57 148.62 107.57 148.41 108.14 148.41 108.14 148.41 108.15 148.96 108.15 148.22 110.25 149.7 110.25 149.7 111.96 150.01 111.96 150.01 110.25 151.49 110.25"/><polygon class="cls-37" points="182.74 102.53 182 100.43 182.55 100.43 182.55 100.42 182.55 100.42 181.6 97.85 182.01 97.85 182.01 97.85 182.01 97.85 181.1 94.98 180.2 97.85 180.6 97.85 180.6 97.85 180.6 97.85 180.6 97.85 179.87 99.85 179.66 100.42 179.66 100.42 179.66 100.43 180.21 100.43 179.47 102.53 180.95 102.53 180.95 104.24 181.26 104.24 181.26 102.53 182.74 102.53"/><polygon class="cls-37" points="172.99 103.08 172.51 101.75 172.87 101.75 172.86 101.74 172.86 101.74 172.27 100.11 172.52 100.11 172.52 100.11 172.52 100.11 171.95 98.3 171.38 100.11 171.63 100.11 171.63 100.11 171.63 100.11 171.63 100.11 171.17 101.38 171.04 101.74 171.04 101.74 171.03 101.75 171.38 101.75 170.91 103.08 171.85 103.08 171.85 104.16 172.05 104.16 172.05 103.08 172.99 103.08"/><polygon class="cls-37" points="208.62 102.17 207.88 100.07 208.43 100.07 208.43 100.06 208.43 100.06 207.48 97.49 207.89 97.49 207.89 97.49 207.89 97.49 206.98 94.62 206.08 97.49 206.48 97.49 206.48 97.49 206.48 97.49 206.48 97.49 205.75 99.49 205.54 100.06 205.54 100.06 205.54 100.07 206.09 100.07 205.35 102.17 206.83 102.17 206.83 103.88 207.14 103.88 207.14 102.17 208.62 102.17"/><polygon class="cls-37" points="159.2 106.14 158.46 104.04 159.01 104.04 159.01 104.03 159.01 104.03 158.07 101.45 158.47 101.45 158.47 101.45 158.47 101.45 157.57 98.59 156.66 101.45 157.07 101.45 157.07 101.46 157.07 101.46 157.07 101.46 156.33 103.46 156.13 104.03 156.13 104.03 156.12 104.04 156.68 104.04 155.93 106.14 157.41 106.14 157.41 107.85 157.72 107.85 157.72 106.14 159.2 106.14"/><polygon class="cls-37" points="196.29 103.45 195.55 101.35 196.1 101.35 196.1 101.34 196.1 101.34 195.16 98.76 195.56 98.76 195.56 98.76 195.56 98.76 194.65 95.9 193.75 98.76 194.15 98.76 194.15 98.76 194.15 98.76 194.15 98.76 193.42 100.77 193.21 101.34 193.21 101.34 193.21 101.35 193.76 101.35 193.02 103.45 194.5 103.45 194.5 105.16 194.81 105.16 194.81 103.45 196.29 103.45"/><polygon class="cls-37" points="216.21 101.99 215.46 99.89 216.02 99.89 216.01 99.88 216.01 99.88 215.07 97.31 215.48 97.31 215.48 97.31 215.48 97.31 214.57 94.44 213.67 97.31 214.07 97.31 214.07 97.31 214.07 97.31 214.07 97.31 213.34 99.31 213.13 99.88 213.13 99.88 213.13 99.89 213.68 99.89 212.94 101.99 214.41 101.99 214.41 103.7 214.73 103.7 214.73 101.99 216.21 101.99"/><polygon class="cls-35" points="163.3 112.83 162.56 110.73 163.11 110.73 163.11 110.71 163.11 110.71 162.17 108.14 162.57 108.14 162.57 108.14 162.57 108.14 161.67 105.28 160.76 108.14 161.17 108.14 161.17 108.14 161.17 108.14 161.17 108.14 160.43 110.14 160.22 110.71 160.22 110.71 160.22 110.73 160.77 110.73 160.03 112.83 161.51 112.83 161.51 114.53 161.82 114.53 161.82 112.83 163.3 112.83"/><polygon class="cls-35" points="179.47 114.13 178.72 112.02 179.28 112.02 179.28 112.01 179.28 112.01 178.33 109.44 178.74 109.44 178.74 109.44 178.74 109.44 177.83 106.57 176.93 109.44 177.33 109.44 177.33 109.44 177.33 109.44 177.33 109.44 176.6 111.44 176.39 112.01 176.39 112.01 176.39 112.02 176.94 112.02 176.2 114.13 177.68 114.13 177.68 115.83 177.99 115.83 177.99 114.13 179.47 114.13"/><polygon class="cls-35" points="192.64 116.28 191.9 114.18 192.45 114.18 192.44 114.17 192.44 114.17 191.5 111.6 191.91 111.6 191.91 111.6 191.91 111.6 191 108.73 190.1 111.6 190.5 111.6 190.5 111.6 190.5 111.6 190.5 111.6 189.77 113.6 189.56 114.17 189.56 114.17 189.56 114.18 190.11 114.18 189.37 116.28 190.84 116.28 190.84 117.99 191.16 117.99 191.16 116.28 192.64 116.28"/><polygon class="cls-35" points="206.04 115.01 205.3 112.91 205.85 112.91 205.85 112.9 205.85 112.9 204.91 110.33 205.31 110.33 205.31 110.33 205.31 110.33 204.41 107.46 203.5 110.33 203.91 110.33 203.91 110.33 203.91 110.33 203.91 110.33 203.17 112.33 202.97 112.9 202.97 112.9 202.96 112.91 203.51 112.91 202.77 115.01 204.25 115.01 204.25 116.72 204.56 116.72 204.56 115.01 206.04 115.01"/><polygon class="cls-35" points="153.23 110.73 152.84 109.61 153.13 109.61 153.13 109.6 153.13 109.6 152.63 108.23 152.84 108.23 152.84 108.23 152.84 108.23 152.36 106.7 151.88 108.23 152.09 108.23 152.09 108.23 152.09 108.23 152.09 108.23 151.71 109.3 151.59 109.6 151.59 109.6 151.59 109.61 151.89 109.61 151.49 110.73 152.28 110.73 152.28 111.64 152.45 111.64 152.45 110.73 153.23 110.73"/><polygon class="cls-35" points="165.48 112.28 165.09 111.16 165.38 111.16 165.38 111.15 165.38 111.15 164.88 109.78 165.09 109.78 165.09 109.78 165.09 109.78 164.61 108.26 164.13 109.78 164.34 109.78 164.34 109.78 164.34 109.78 164.34 109.78 163.96 110.85 163.84 111.15 163.84 111.15 163.84 111.16 164.14 111.16 163.74 112.28 164.53 112.28 164.53 113.19 164.7 113.19 164.7 112.28 165.48 112.28"/><polygon class="cls-35" points="173.69 113.83 173.3 112.72 173.59 112.72 173.59 112.71 173.59 112.71 173.09 111.34 173.3 111.34 173.3 111.34 173.3 111.34 172.82 109.81 172.34 111.34 172.56 111.34 172.56 111.34 172.56 111.34 172.56 111.34 172.16 112.41 172.05 112.71 172.05 112.71 172.05 112.72 172.35 112.72 171.95 113.83 172.74 113.83 172.74 114.75 172.91 114.75 172.91 113.83 173.69 113.83"/><polygon class="cls-37" points="163.41 104.78 163.01 103.66 163.31 103.66 163.31 103.65 163.31 103.65 162.8 102.28 163.02 102.28 163.02 102.28 163.02 102.28 162.54 100.75 162.06 102.28 162.27 102.28 162.27 102.28 162.27 102.28 162.27 102.28 161.88 103.35 161.77 103.65 161.77 103.65 161.77 103.66 162.06 103.66 161.67 104.78 162.45 104.78 162.45 105.69 162.62 105.69 162.62 104.78 163.41 104.78"/><polygon class="cls-37" points="198.32 102.31 197.93 101.19 198.22 101.19 198.22 101.18 198.22 101.18 197.72 99.81 197.94 99.81 197.94 99.81 197.94 99.81 197.45 98.29 196.97 99.81 197.19 99.81 197.19 99.81 197.19 99.81 197.19 99.81 196.8 100.88 196.69 101.18 196.69 101.18 196.68 101.19 196.98 101.19 196.58 102.31 197.37 102.31 197.37 103.22 197.54 103.22 197.54 102.31 198.32 102.31"/><polygon class="cls-37" points="217.69 101.61 217.3 100.49 217.59 100.49 217.59 100.48 217.59 100.48 217.09 99.11 217.31 99.11 217.31 99.11 217.31 99.11 216.82 97.58 216.34 99.11 216.56 99.11 216.56 99.11 216.56 99.11 216.56 99.11 216.17 100.18 216.06 100.48 216.06 100.48 216.05 100.49 216.35 100.49 215.95 101.61 216.74 101.61 216.74 102.52 216.91 102.52 216.91 101.61 217.69 101.61"/><polygon class="cls-35" points="184.98 114.37 184.58 113.25 184.88 113.25 184.88 113.24 184.88 113.24 184.37 111.87 184.59 111.87 184.59 111.87 184.59 111.87 184.11 110.35 183.63 111.87 183.84 111.87 183.84 111.87 183.84 111.87 183.84 111.87 183.45 112.94 183.34 113.24 183.34 113.24 183.34 113.25 183.63 113.25 183.24 114.37 184.02 114.37 184.02 115.28 184.19 115.28 184.19 114.37 184.98 114.37"/><polygon class="cls-35" points="201.31 114.37 200.92 113.25 201.21 113.25 201.21 113.24 201.21 113.24 200.71 111.87 200.92 111.87 200.92 111.87 200.92 111.87 200.44 110.35 199.96 111.87 200.18 111.87 200.18 111.87 200.18 111.87 200.18 111.87 199.78 112.94 199.67 113.24 199.67 113.24 199.67 113.25 199.97 113.25 199.57 114.37 200.36 114.37 200.36 115.28 200.53 115.28 200.53 114.37 201.31 114.37"/><polygon class="cls-35" points="70.73 106.83 70.33 105.71 70.63 105.71 70.62 105.71 70.62 105.71 70.12 104.33 70.34 104.33 70.34 104.33 70.34 104.33 69.85 102.81 69.37 104.33 69.59 104.33 69.59 104.34 69.59 104.34 69.59 104.34 69.2 105.4 69.09 105.71 69.09 105.71 69.08 105.71 69.38 105.71 68.98 106.83 69.77 106.83 69.77 107.74 69.94 107.74 69.94 106.83 70.73 106.83"/><polygon class="cls-35" points="65.81 106.83 65.41 105.71 65.71 105.71 65.71 105.71 65.71 105.71 65.2 104.33 65.42 104.33 65.42 104.33 65.42 104.33 64.94 102.81 64.46 104.33 64.67 104.33 64.67 104.34 64.67 104.34 64.67 104.34 64.28 105.4 64.17 105.71 64.17 105.71 64.17 105.71 64.46 105.71 64.07 106.83 64.85 106.83 64.85 107.74 65.02 107.74 65.02 106.83 65.81 106.83"/><polygon class="cls-35" points="59.71 105.52 59.31 104.4 59.6 104.4 59.6 104.39 59.6 104.39 59.1 103.02 59.32 103.02 59.32 103.02 59.32 103.02 58.84 101.5 58.35 103.02 58.57 103.02 58.57 103.02 58.57 103.02 58.57 103.02 58.18 104.09 58.07 104.39 58.07 104.39 58.06 104.4 58.36 104.4 57.96 105.52 58.75 105.52 58.75 106.43 58.92 106.43 58.92 105.52 59.71 105.52"/><polygon class="cls-35" points="81.54 104.36 81.14 103.25 81.44 103.25 81.44 103.24 81.44 103.24 80.93 101.87 81.15 101.87 81.15 101.87 81.15 101.87 80.67 100.34 80.19 101.87 80.4 101.87 80.4 101.87 80.4 101.87 80.4 101.87 80.01 102.94 79.9 103.24 79.9 103.24 79.9 103.25 80.19 103.25 79.8 104.36 80.58 104.36 80.58 105.28 80.75 105.28 80.75 104.36 81.54 104.36"/><polygon class="cls-35" points="157.67 111.85 157.28 110.73 157.57 110.73 157.57 110.72 157.57 110.72 157.07 109.35 157.28 109.35 157.28 109.35 157.28 109.35 156.8 107.83 156.32 109.35 156.54 109.35 156.54 109.36 156.54 109.36 156.54 109.36 156.15 110.42 156.03 110.72 156.03 110.72 156.03 110.73 156.33 110.73 155.93 111.85 156.72 111.85 156.72 112.76 156.89 112.76 156.89 111.85 157.67 111.85"/><polygon class="cls-35" points="196.15 114.75 195.75 113.63 196.05 113.63 196.04 113.62 196.04 113.62 195.54 112.25 195.76 112.25 195.76 112.25 195.76 112.25 195.28 110.72 194.79 112.25 195.01 112.25 195.01 112.25 195.01 112.25 195.01 112.25 194.62 113.32 194.51 113.62 194.51 113.62 194.51 113.63 194.8 113.63 194.41 114.75 195.19 114.75 195.19 115.65 195.36 115.65 195.36 114.75 196.15 114.75"/><polygon class="cls-35" points="207.85 115.25 207.46 114.13 207.75 114.13 207.75 114.12 207.75 114.12 207.25 112.75 207.47 112.75 207.47 112.75 207.47 112.75 206.98 111.23 206.5 112.75 206.72 112.75 206.72 112.75 206.72 112.75 206.72 112.75 206.33 113.82 206.22 114.12 206.22 114.12 206.21 114.13 206.51 114.13 206.11 115.25 206.9 115.25 206.9 116.16 207.07 116.16 207.07 115.25 207.85 115.25"/><polygon class="cls-35" points="79.35 104.36 78.95 103.25 79.25 103.25 79.24 103.24 79.24 103.24 78.74 101.87 78.96 101.87 78.96 101.87 78.96 101.87 78.47 100.34 77.99 101.87 78.21 101.87 78.21 101.87 78.21 101.87 78.21 101.87 77.82 102.94 77.71 103.24 77.71 103.24 77.7 103.25 78 103.25 77.6 104.36 78.39 104.36 78.39 105.28 78.56 105.28 78.56 104.36 79.35 104.36"/><polygon class="cls-35" points="50.58 104.36 50.19 103.25 50.48 103.25 50.48 103.24 50.48 103.24 49.98 101.87 50.19 101.87 50.19 101.87 50.19 101.87 49.71 100.34 49.23 101.87 49.44 101.87 49.44 101.87 49.44 101.87 49.44 101.87 49.05 102.94 48.94 103.24 48.94 103.24 48.94 103.25 49.23 103.25 48.84 104.36 49.63 104.36 49.63 105.28 49.79 105.28 49.79 104.36 50.58 104.36"/><polygon class="cls-35" points="47.83 104.36 47.43 103.25 47.73 103.25 47.72 103.24 47.72 103.24 47.22 101.87 47.44 101.87 47.44 101.87 47.44 101.87 46.96 100.34 46.47 101.87 46.69 101.87 46.69 101.87 46.69 101.87 46.69 101.87 46.3 102.94 46.19 103.24 46.19 103.24 46.19 103.25 46.48 103.25 46.09 104.36 46.87 104.36 46.87 105.28 47.04 105.28 47.04 104.36 47.83 104.36"/><polygon class="cls-35" points="41.97 103.32 41.57 102.2 41.87 102.2 41.86 102.19 41.86 102.19 41.36 100.82 41.58 100.82 41.58 100.82 41.58 100.82 41.1 99.3 40.61 100.82 40.83 100.82 40.83 100.82 40.83 100.82 40.83 100.82 40.44 101.89 40.33 102.19 40.33 102.19 40.33 102.2 40.62 102.2 40.23 103.32 41.01 103.32 41.01 104.23 41.18 104.23 41.18 103.32 41.97 103.32"/><path class="cls-43" d="M199.16,30A115.74,115.74,0,0,0,181,29.6c-14.26.68-5.62,21.39-34.57,15S113.91,12,80.87,29.29,51.72,55.51,24,40.65C17.15,37,8.87,32.33,0,27.56V60.43c14.66-10.1,33.82,12.88,51.4,5.39C69.73,58,63.45,48.53,82.48,46.74s25.89-10.91,38.74-2.92,38.32,16,44.1,8,10.93-18.74,16.79-18.67,21.16-2.48,21.16-2.48S201.86,30.34,199.16,30ZM27,57.29c-6.52-3.06-15.86-13-9.42-14.82,0,0,6.8-.65,8.39,3.86s-1.14,4.68,5.3,5.8S33.49,60.35,27,57.29Zm13.29,1.93a16.28,16.28,0,0,1,1.13-5.31s3.06-5,5.8-2.9-.24,3.22,1.33,8.21S40.26,61.8,40.26,59.22Zm73.11-20.81c-6.6-2.71-13.68,2-14.49.53S100,34.2,104,33.14c0,0,6-2.55,8.86,0s1.77,4,6.93,4.24S120,41.12,113.37,38.41Z"/><path class="cls-43" d="M124.16,105.41c-8.69,2-18.76-.93-18.8,4.4s-10.56,12.94-7.63,5.25c0,0,1.22-11.26,10.2-11.88s20.43-10.66,23.65-7.57S132.86,103.42,124.16,105.41Zm49.68-39.1a5,5,0,0,1-1-3.7c.4-1.94-.5-2.5,1-3.71s1.37.57,1.13,2.66a20.81,20.81,0,0,0,.16,5.79C175.38,68.17,173.84,66.31,173.84,66.31ZM199.67,17.9s-7.14,5-5.57,10.51-.67,5.65-5.47,13.56-18.28,8.58-17.93,18.79S155.33,84,140.83,86.53s-39.36,2.78-44.61,13.6-20,24-30.81,32.55c-7.1,5.58-40.19,6.68-65.41,8.77v10.24c28.18,1.05,69.17.11,87.77-2.13,31.56-3.8,37-13.71,43.81-27.09s.21-27,19.57-28.85,16,4.38,24.23-12.31-5.27-19.1,6.3-27.81S198.77,50,199.39,37.38,199.67,17.9,199.67,17.9Z"/><circle class="cls-44" cx="191.92" cy="32.1" r="22.56" transform="translate(-0.36 2.23) rotate(-0.67)"/><circle class="cls-45" cx="191.92" cy="32.1" r="21.5" transform="translate(116.97 211.68) rotate(-76.84)"/><path class="cls-46" d="M210.83,29.85c.79.15,1.58.49,2.53.66a21.37,21.37,0,0,0-1.79-7.15,10,10,0,0,1-1.7,1.17c-1.83.86-1.35.7-2.94-1s-4.7-1.35-4.46.4-2,.56-2.39-1.07-2.47-1.64-3.9-3.63-4.46-1.27-6-2.23-4.86.72-1.6,1.6,2.55,1.83,1.83,3.42-.71,3.9,1.84,6-1,.8-1.28,3.19-4.85.55-6.69-2-2,.31-5.65,0-3.66.63-3.66-2.15c0-2-1.86-2.83-3-3.16A21.51,21.51,0,0,0,183.8,52a18.63,18.63,0,0,1,1-2.31c.72-1.42,3.74-.18,4.86-2.89s3-2.31,3.5.08,3.27,4.22,4.7,4,.88-4.63.88-6.06,2.62-1.11,2.86-3,2.15-1.6,3.66-.4-.15,1.91-.23,5.89a7.84,7.84,0,0,0,.13,1.76,21.61,21.61,0,0,0,5.51-6.41,13.1,13.1,0,0,1-1.11-2.28c-.86-2.7,1.2-2.62.88-5.89S209.55,29.61,210.83,29.85Z"/><path class="cls-47" d="M180.19,20.64a1.52,1.52,0,0,0,1.68,0c1.07-.54,1.55.18.65,1.25s-1.44,1-.93,2.45-2,2.75-2.77,1.67-.42-1.37-1.85-2-2.51-2.93,0-2.39S178.1,19.8,180.19,20.64Z"/><path class="cls-47" d="M185.51,22.89s2.39-.6,2.07,1-.64,1.12.72,2,2,2.59.43,2.07-1.11-1-2.47-.36-2.42-.2-1.83-1.26S183.12,23.17,185.51,22.89Z"/><path class="cls-47" d="M193.51,13.81c.89-.09.68,1,1.83,1s1.08.76,1.55,1.4,0,2.11-.91,1.15-1.63-1.71-2.47-1.23-2.75-.4-3.14-.76-3.79-.91-4.46-.08-3.31,1.36-2.59.16,1.39-2.51,3.42-2.27,2.47,1,3.15,0,2.11-1.08,2.31-.57S192,14,193.51,13.81Z"/><path class="cls-47" d="M200.56,15s2.94-.83,3.26,1.16,1.67,2.47,2.63,3.18-3.27,1.28-4.14,0-1.91-.79-3-.79S199,14.79,200.56,15Z"/><path class="cls-47" d="M195.68,24.83s.86-1.68,1.4,0-.1,1.59,1.68,2.21,3.91,2.48,3.12,2.92-2.39-1.72-3.81-.95-1.68.51-1.94-1.52S193.21,26.51,195.68,24.83Z"/><path class="cls-47" d="M181.89,32.24c-.11,1.58,1.85-.77,2.91,1.08s1.77,1.77,3.63,1.77,2.9-.26,1.23.8-.7-.44-4.41,0-5.4,3.8-6.46,1.59,1.59-3.55-2.56-3.1-5.75-3.13-2.22-3.55,3.09-.29,5.22,0S182,30.88,181.89,32.24Z"/><path class="cls-47" d="M183,41.55a2,2,0,0,1-2.52-1.33c-.44-1.32-1.68-.7-4.07-.79s-1-.89-1.68-1.2c-3.09-1.52-3.19-1-3.23.55a21.45,21.45,0,0,0,8.28,11,20,20,0,0,0,.52-2.35c.62-3.72,3,.53,4-3S183.65,41.2,183,41.55Z"/><path class="cls-47" d="M190.14,38.63s2.36,1.32,3.69-.4,0-3.58,1.94-2.78,1.95,1.06,3.89.26,4.79-.41,3,1.47-3.36-.42-4.34,1.93.09,4.74-2.48,3.94-4.71-2.74-5.36-1.59S186.45,39,190.14,38.63Z"/><path class="cls-47" d="M205,31.47s-1-2.66,0-2.75,1.66-1.92,2.06-.33-.63,1.35.63,2.17,1.49,1,.59,2.08S204.8,33.41,205,31.47Z"/><path class="cls-11" d="M195.32,10.87a21.5,21.5,0,0,1-10.23,40.41,22.39,22.39,0,0,1-3.4-.26,21.5,21.5,0,1,0,13.63-40.15Z"/><ellipse class="cls-12" cx="188.51" cy="30.83" rx="16.59" ry="13.16" transform="translate(97.24 198.63) rotate(-70.75)"/><g class="cls-48"><circle class="cls-49" cx="191.92" cy="32.1" r="31.24"/></g><path class="cls-50" d="M83.59,6.3a26.54,26.54,0,1,1-53.07,0A26.19,26.19,0,0,1,31.28,0H82.83A26.19,26.19,0,0,1,83.59,6.3Z"/><circle class="cls-50" cx="55.71" cy="101.45" r="12.26"/><circle class="cls-50" cx="84.66" cy="76.15" r="3.81"/><circle class="cls-50" cx="22.98" cy="27.54" r="6.03"/><path class="cls-50" d="M180.66.48a16.74,16.74,0,0,1-33.48,0,3.85,3.85,0,0,1,0-.48h33.45C180.66.16,180.66.32,180.66.48Z"/><path class="cls-50" d="M3,72.85A3,3,0,0,1,0,75.8V69.9A3,3,0,0,1,3,72.85Z"/><circle class="cls-50" cx="216.21" cy="80.43" r="12.26" transform="translate(88.49 272.53) rotate(-76.79)"/><path class="cls-50" d="M233,20.58a4.81,4.81,0,1,1-4.81-4.8A4.81,4.81,0,0,1,233,20.58Z"/></g></g></g></svg>