<svg xmlns="http://www.w3.org/2000/svg" xmlns:xlink="http://www.w3.org/1999/xlink" viewBox="0 0 250 160"><defs><style>.cls-1{fill:url(#linear-gradient);}.cls-2{fill:url(#linear-gradient-2);}.cls-3{fill:url(#radial-gradient);}.cls-4{fill:url(#linear-gradient-3);}.cls-5{fill:url(#linear-gradient-4);}.cls-6{fill:url(#linear-gradient-5);}.cls-7{fill:url(#linear-gradient-6);}.cls-8{isolation:isolate;}.cls-9{fill:url(#linear-gradient-7);}.cls-10{fill:url(#linear-gradient-8);}.cls-11{fill:#f9cb45;}.cls-12{fill:none;}.cls-13{fill:#231f20;}.cls-13,.cls-14,.cls-15,.cls-16{mix-blend-mode:screen;}.cls-14,.cls-21{fill:#fff;}.cls-15{fill:#58595b;}.cls-16{fill:#111010;}.cls-17{mask:url(#mask);}.cls-18{fill:#feee2f;}.cls-19{mask:url(#mask-2);}.cls-20{mask:url(#mask-3);}.cls-22{fill:#c3d6f3;}.cls-23{fill:#b9cbe6;}.cls-24{fill:#afc0d9;}.cls-25{fill:#a5b5cc;}.cls-26{fill:#e6e7e8;mix-blend-mode:multiply;}.cls-27{fill:#cfdef5;}.cls-28{fill:#911731;}.cls-29{fill:#870f29;}.cls-30{fill:#75061e;}.cls-31{fill:#610015;}.cls-32{fill:#590517;}.cls-33{fill:#420411;}.cls-34{mask:url(#mask-4);}.cls-35{mask:url(#mask-5);}.cls-36{mask:url(#mask-6);}.cls-37{mask:url(#mask-7);}</style><linearGradient id="linear-gradient" x1="-139.62" y1="-2.34" x2="-139.62" y2="-13.81" gradientTransform="translate(234.95 156.08) rotate(45)" gradientUnits="userSpaceOnUse"><stop offset="0" stop-color="#fff"/><stop offset="1"/></linearGradient><linearGradient id="linear-gradient-2" x1="-82.21" y1="-5.14" x2="-82.21" y2="-42.07" xlink:href="#linear-gradient"/><radialGradient id="radial-gradient" cx="84.78" cy="98.33" r="60.83" gradientUnits="userSpaceOnUse"><stop offset="0" stop-color="#fff"/><stop offset="0.76" stop-color="#414141"/><stop offset="0.83" stop-color="#242424"/><stop offset="0.91"/></radialGradient><linearGradient id="linear-gradient-3" x1="-205.17" y1="110.78" x2="-205.17" y2="99.3" xlink:href="#linear-gradient"/><linearGradient id="linear-gradient-4" x1="-196.79" y1="-2.76" x2="-196.79" y2="-14.24" xlink:href="#linear-gradient"/><linearGradient id="linear-gradient-5" x1="-232.18" y1="59.36" x2="-232.18" y2="39.14" xlink:href="#linear-gradient"/><linearGradient id="linear-gradient-6" x1="109.97" y1="84.44" x2="211.16" y2="23.5" gradientTransform="matrix(1, 0, 0, 1, 0, 0)" xlink:href="#linear-gradient"/><linearGradient id="linear-gradient-7" x1="125" y1="157.67" x2="125" y2="3.78" gradientUnits="userSpaceOnUse"><stop offset="0" stop-color="#ef684a"/><stop offset="1" stop-color="#ce0a2f"/></linearGradient><linearGradient id="linear-gradient-8" x1="0.11" y1="52.48" x2="0.09" y2="52.45" gradientUnits="userSpaceOnUse"><stop offset="0" stop-color="#8010e0"/><stop offset="1" stop-color="#1a153d"/></linearGradient><mask id="mask" x="136.79" y="46.37" width="10.42" height="10.42" maskUnits="userSpaceOnUse"><path class="cls-1" d="M138.83,56.34h0v0l.06-.08,8.31-9.87-9.87,8.3-.09.06h0l-.12.09a1.15,1.15,0,0,0,0,1.61,1.13,1.13,0,0,0,1.61,0A.52.52,0,0,0,138.83,56.34Z"/></mask><mask id="mask-2" x="176.95" y="64.29" width="33.53" height="33.53" maskUnits="userSpaceOnUse"><path class="cls-2" d="M183.52,96.39h0l0-.06.19-.27,26.74-31.77L178.72,91l-.28.18-.06.05h0a2.11,2.11,0,0,0-.36.31,3.66,3.66,0,0,0,5.18,5.18Z"/></mask><mask id="mask-3" x="23.95" y="37.5" width="121.67" height="121.67" maskUnits="userSpaceOnUse"><circle class="cls-3" cx="84.78" cy="98.33" r="60.83"/></mask><mask id="mask-4" x="10.46" y="80" width="10.42" height="10.42" maskUnits="userSpaceOnUse"><path class="cls-4" d="M12.5,90h0v0l.06-.08L20.88,80,11,88.31l-.09,0,0,0h0l-.11.1a1.13,1.13,0,1,0,1.61,1.6A.52.52,0,0,0,12.5,90Z"/></mask><mask id="mask-5" x="96.67" y="5.64" width="10.42" height="10.42" maskUnits="userSpaceOnUse"><path class="cls-5" d="M98.71,15.61h0v0l.06-.08,8.31-9.87L97.22,14l-.09.06h0l-.11.1a1.13,1.13,0,0,0,1.61,1.6A.52.52,0,0,0,98.71,15.61Z"/></mask><mask id="mask-6" x="26.89" y="17.44" width="18.36" height="18.36" maskUnits="userSpaceOnUse"><path class="cls-6" d="M30.48,35h0l0,0,.1-.15L45.25,17.44,27.86,32.08l-.15.1,0,0h0l-.19.17a2,2,0,0,0,2.83,2.84A1.06,1.06,0,0,0,30.48,35Z"/></mask><mask id="mask-7" x="161.06" y="10.64" width="53.71" height="53.71" maskUnits="userSpaceOnUse"><circle class="cls-7" cx="187.91" cy="37.5" r="26.86"/></mask></defs><g class="cls-8"><g id="圖層_2" data-name="圖層 2"><g id="Layer_1" data-name="Layer 1"><rect class="cls-9" width="250" height="160"/><path class="cls-10" d="M.06,52.47l.07,0H.06Z"/><path class="cls-11" d="M249.84,45.18h.1l-.1.09Z"/><polyline class="cls-12" points="0.1 96.79 0.1 99.12 0.1 99.13"/><circle class="cls-13" cx="104.71" cy="19.13" r="4.31"/><path class="cls-13" d="M195.25,69.48a4.32,4.32,0,1,1-4.32-4.31A4.32,4.32,0,0,1,195.25,69.48Z"/><path class="cls-13" d="M50.25,100.35A4.32,4.32,0,1,1,45.93,96,4.31,4.31,0,0,1,50.25,100.35Z"/><path class="cls-13" d="M152,106.64a4.32,4.32,0,1,1-4.31-4.31A4.31,4.31,0,0,1,152,106.64Z"/><path class="cls-13" d="M15.38,65.27A4.32,4.32,0,1,1,11.07,61,4.31,4.31,0,0,1,15.38,65.27Z"/><path class="cls-13" d="M47.88,23.45a4.32,4.32,0,1,1-4.32-4.32A4.32,4.32,0,0,1,47.88,23.45Z"/><path class="cls-13" d="M225.4,19.13a4.32,4.32,0,1,1-4.31-4.31A4.32,4.32,0,0,1,225.4,19.13Z"/><path class="cls-13" d="M162.91,9.78a.62.62,0,0,1-.61.61.61.61,0,0,1-.61-.61.61.61,0,0,1,.61-.61A.61.61,0,0,1,162.91,9.78Z"/><circle class="cls-13" cx="133.2" cy="3.5" r="0.61"/><path class="cls-13" d="M98.71,48a.61.61,0,1,1-.61-.61A.6.6,0,0,1,98.71,48Z"/><path class="cls-13" d="M98.71,79.57A.61.61,0,1,1,98.1,79,.6.6,0,0,1,98.71,79.57Z"/><path class="cls-13" d="M162.3,64.66a.61.61,0,0,1-.61.61.61.61,0,0,1-.61-.61.61.61,0,0,1,.61-.61A.62.62,0,0,1,162.3,64.66Z"/><circle class="cls-13" cx="192.71" cy="99.6" r="0.61"/><circle class="cls-13" cx="241.42" cy="123.65" r="0.61"/><circle class="cls-13" cx="8.21" cy="9.17" r="0.61"/><circle class="cls-13" cx="10.46" cy="115.65" r="0.61"/><path class="cls-13" d="M50.86,54.27a.61.61,0,1,1-1.22,0,.61.61,0,0,1,1.22,0Z"/><circle class="cls-13" cx="78.94" cy="7.89" r="0.61"/><path class="cls-13" d="M20.53,43.56a.61.61,0,0,1-.61.61.61.61,0,1,1,.61-.61Z"/><circle class="cls-13" cx="68.9" cy="94.71" r="0.61"/><path class="cls-13" d="M164.65,36.58a1.18,1.18,0,1,1-1.18-1.18A1.18,1.18,0,0,1,164.65,36.58Z"/><circle class="cls-13" cx="138.75" cy="17.27" r="1.18"/><circle class="cls-13" cx="19.92" cy="16.09" r="1.18"/><path class="cls-13" d="M11.64,53.66a1.18,1.18,0,1,1-1.18-1.18A1.17,1.17,0,0,1,11.64,53.66Z"/><path class="cls-13" d="M85.32,56.28a1.18,1.18,0,1,1-1.18-1.17A1.18,1.18,0,0,1,85.32,56.28Z"/><path class="cls-13" d="M42.78,81.63a1.18,1.18,0,1,1-1.18-1.18A1.17,1.17,0,0,1,42.78,81.63Z"/><path class="cls-13" d="M144.07,94.61a1.18,1.18,0,1,1-1.18-1.18A1.18,1.18,0,0,1,144.07,94.61Z"/><path class="cls-13" d="M94.93,106.64a1.18,1.18,0,1,1-2.35,0,1.18,1.18,0,0,1,2.35,0Z"/><path class="cls-13" d="M133.77,60.7a1.18,1.18,0,1,1-1.18-1.18A1.18,1.18,0,0,1,133.77,60.7Z"/><circle class="cls-13" cx="190.93" cy="31.41" r="1.18"/><path class="cls-13" d="M237,43.08a1.18,1.18,0,1,1-1.17-1.17A1.17,1.17,0,0,1,237,43.08Z"/><path class="cls-13" d="M229.72,7.89a1.18,1.18,0,1,1-1.18-1.18A1.18,1.18,0,0,1,229.72,7.89Z"/><path class="cls-13" d="M211.21,86.23a1.18,1.18,0,1,1-2.35,0,1.18,1.18,0,0,1,2.35,0Z"/><path class="cls-13" d="M202.47,122.33a1.18,1.18,0,1,1-1.17-1.18A1.17,1.17,0,0,1,202.47,122.33Z"/><path class="cls-13" d="M101.58,59.52a1.18,1.18,0,1,1-1.18-1.17A1.18,1.18,0,0,1,101.58,59.52Z"/><circle class="cls-13" cx="40.42" cy="50.83" r="1.18"/><path class="cls-13" d="M26.6,94.71a1.18,1.18,0,1,1-1.18-1.18A1.17,1.17,0,0,1,26.6,94.71Z"/><path class="cls-13" d="M230.9,76.6a1.18,1.18,0,1,1-1.18-1.17A1.18,1.18,0,0,1,230.9,76.6Z"/><path class="cls-14" d="M51.87,70.18A1.28,1.28,0,0,0,53,71.27a1.28,1.28,0,0,0-1.12,1.09,1.29,1.29,0,0,0-1.13-1.09A1.29,1.29,0,0,0,51.87,70.18Z"/><path class="cls-14" d="M111.6,44.51a.84.84,0,0,0,.74.71.84.84,0,0,0-.74.71.84.84,0,0,0-.74-.71A.84.84,0,0,0,111.6,44.51Z"/><path class="cls-14" d="M74.17,84.81a.84.84,0,0,0,.74.71.84.84,0,0,0-.74.71.84.84,0,0,0-.74-.71A.84.84,0,0,0,74.17,84.81Z"/><path class="cls-14" d="M88.4,8.9a.83.83,0,0,0,.74.71.83.83,0,0,0-.74.71.84.84,0,0,0-.74-.71A.84.84,0,0,0,88.4,8.9Z"/><path class="cls-14" d="M33.57,95.32a.84.84,0,0,0,.74.72.84.84,0,0,0-.74.71.83.83,0,0,0-.73-.71A.83.83,0,0,0,33.57,95.32Z"/><path class="cls-14" d="M207.38,104.5a.84.84,0,0,0,.74.72.74.74,0,0,1-1.48,0A.84.84,0,0,0,207.38,104.5Z"/><path class="cls-14" d="M236.57,74.13a.84.84,0,0,0,.74.72.74.74,0,0,1-1.48,0A.84.84,0,0,0,236.57,74.13Z"/><path class="cls-14" d="M238.33,94.61a.84.84,0,0,0,.74.71.74.74,0,0,1-1.48,0A.84.84,0,0,0,238.33,94.61Z"/><path class="cls-14" d="M148.66,44.75a.84.84,0,0,0,.74.71.84.84,0,0,0-.74.72.84.84,0,0,0-.74-.72A.84.84,0,0,0,148.66,44.75Z"/><path class="cls-14" d="M143.63,70a.84.84,0,0,0,.74.72.84.84,0,0,0-.74.71.84.84,0,0,0-.74-.71A.84.84,0,0,0,143.63,70Z"/><path class="cls-14" d="M92.28,89.05a.83.83,0,0,0,.74.72.83.83,0,0,0-.74.71.84.84,0,0,0-.74-.71A.84.84,0,0,0,92.28,89.05Z"/><path class="cls-14" d="M78.94,38.87a.84.84,0,0,0,.74.71.84.84,0,0,0-.74.71.84.84,0,0,0-.74-.71A.84.84,0,0,0,78.94,38.87Z"/><path class="cls-14" d="M60.54,3.86a.83.83,0,0,0,.73.72.83.83,0,0,0-.73.71.84.84,0,0,0-.74-.71A.84.84,0,0,0,60.54,3.86Z"/><path class="cls-14" d="M164,4.58a.84.84,0,0,0,.74.71A.84.84,0,0,0,164,6a.83.83,0,0,0-.74-.71A.83.83,0,0,0,164,4.58Z"/><path class="cls-14" d="M164.76,74.13a.84.84,0,0,0,.74.72.84.84,0,0,0-.74.71.84.84,0,0,0-.74-.71A.84.84,0,0,0,164.76,74.13Z"/><path class="cls-14" d="M238.33,26.37a.84.84,0,0,0,.74.71.74.74,0,0,1-1.48,0A.84.84,0,0,0,238.33,26.37Z"/><path class="cls-14" d="M223.14,46.64a.84.84,0,0,0,.74.72.74.74,0,0,1-1.48,0A.84.84,0,0,0,223.14,46.64Z"/><path class="cls-14" d="M208.12,8.9a.83.83,0,0,0,.74.71.74.74,0,0,1-1.48,0A.84.84,0,0,0,208.12,8.9Z"/><path class="cls-14" d="M73.43,68.5a.86.86,0,0,0,.74.72.84.84,0,0,0-.74.71.84.84,0,0,0-.74-.71A.86.86,0,0,0,73.43,68.5Z"/><path class="cls-14" d="M72.69,19.51a.84.84,0,0,0,.74.71.84.84,0,0,0-.74.72.84.84,0,0,0-.74-.72A.84.84,0,0,0,72.69,19.51Z"/><path class="cls-14" d="M120.65,73.08a.84.84,0,0,0,.74.72.84.84,0,0,0-.74.71.84.84,0,0,0-.74-.71A.84.84,0,0,0,120.65,73.08Z"/><path class="cls-14" d="M101.58,105.93a.83.83,0,0,0,.74.71.83.83,0,0,0-.74.72.84.84,0,0,0-.74-.72A.84.84,0,0,0,101.58,105.93Z"/><path class="cls-14" d="M59.8,122.33a.83.83,0,0,0,.74.71.83.83,0,0,0-.74.72.84.84,0,0,0-.74-.72A.84.84,0,0,0,59.8,122.33Z"/><path class="cls-14" d="M8.21,84.81a.84.84,0,0,0,.74.71.84.84,0,0,0-.74.71.84.84,0,0,0-.74-.71A.84.84,0,0,0,8.21,84.81Z"/><path class="cls-14" d="M125.06,104.5a.84.84,0,0,0,.74.72.84.84,0,0,0-.74.71.84.84,0,0,0-.74-.71A.84.84,0,0,0,125.06,104.5Z"/><path class="cls-14" d="M164,106.64a.84.84,0,0,0,.74.72.84.84,0,0,0-.74.71.83.83,0,0,0-.74-.71A.83.83,0,0,0,164,106.64Z"/><path class="cls-14" d="M133.2,123.55a.84.84,0,0,0,.74.71.84.84,0,0,0-.74.71.84.84,0,0,0-.74-.71A.84.84,0,0,0,133.2,123.55Z"/><path class="cls-14" d="M93,123.55a.83.83,0,0,0,.73.71A.83.83,0,0,0,93,125a.84.84,0,0,0-.74-.71A.84.84,0,0,0,93,123.55Z"/><path class="cls-14" d="M166.24,124.26a.84.84,0,0,0,.74.71.84.84,0,0,0-.74.72.84.84,0,0,0-.74-.72A.84.84,0,0,0,166.24,124.26Z"/><path class="cls-14" d="M114.73,85.52a.84.84,0,0,0,.74.71.84.84,0,0,0-.74.72.83.83,0,0,0-.73-.72A.83.83,0,0,0,114.73,85.52Z"/><path class="cls-14" d="M195.25,4.58a.83.83,0,0,0,.74.71.74.74,0,0,1-1.48,0A.84.84,0,0,0,195.25,4.58Z"/><path class="cls-14" d="M131.84,47.25a.84.84,0,0,0,.74.72.84.84,0,0,0-.74.71.84.84,0,0,0-.74-.71A.84.84,0,0,0,131.84,47.25Z"/><path class="cls-14" d="M155.61,20.22a.84.84,0,0,0,.73.72.83.83,0,0,0-.73.71.84.84,0,0,0-.74-.71A.86.86,0,0,0,155.61,20.22Z"/><path class="cls-14" d="M131.1,27.08a.84.84,0,0,0,.74.71.84.84,0,0,0-.74.72.84.84,0,0,0-.74-.72A.84.84,0,0,0,131.1,27.08Z"/><path class="cls-14" d="M33.57,61.75a.84.84,0,0,0,.74.72.84.84,0,0,0-.74.71.83.83,0,0,0-.73-.71A.83.83,0,0,0,33.57,61.75Z"/><path class="cls-14" d="M188.05,114.93c.07.67.49.72.49.72s-.42,0-.49.71c-.07-.66-.49-.71-.49-.71S188,115.6,188.05,114.93Z"/><path class="cls-14" d="M58.2,103a1.29,1.29,0,0,0,1.13,1.09,1.29,1.29,0,0,0-1.13,1.09,1.28,1.28,0,0,0-1.13-1.09A1.28,1.28,0,0,0,58.2,103Z"/><path class="cls-14" d="M19.31,119.16a1.28,1.28,0,0,0,1.13,1.09,1.28,1.28,0,0,0-1.13,1.09,1.29,1.29,0,0,0-1.13-1.09A1.29,1.29,0,0,0,19.31,119.16Z"/><path class="cls-14" d="M228.54,111.45a1.29,1.29,0,0,0,1.13,1.09,1.29,1.29,0,0,0-1.13,1.09,1.28,1.28,0,0,0-1.12-1.09A1.28,1.28,0,0,0,228.54,111.45Z"/><path class="cls-15" d="M95.09,33.7a1.28,1.28,0,0,0,1.13,1.09,1.27,1.27,0,0,0-1.13,1.09A1.28,1.28,0,0,0,94,34.79,1.29,1.29,0,0,0,95.09,33.7Z"/><path class="cls-15" d="M215.64,69.22a1.28,1.28,0,0,0,1.13,1.08,1.29,1.29,0,0,0-1.13,1.09,1.28,1.28,0,0,0-1.12-1.09A1.26,1.26,0,0,0,215.64,69.22Z"/><path class="cls-15" d="M146.6,11a1.28,1.28,0,0,0,1.13,1.09,1.28,1.28,0,0,0-1.13,1.09,1.29,1.29,0,0,0-1.13-1.09A1.29,1.29,0,0,0,146.6,11Z"/><path class="cls-15" d="M12.18,28.06a1.28,1.28,0,0,0,1.13,1.09,1.27,1.27,0,0,0-1.13,1.08,1.28,1.28,0,0,0-1.13-1.08A1.29,1.29,0,0,0,12.18,28.06Z"/><path class="cls-15" d="M32.94,7.47a1.29,1.29,0,0,0,1.13,1.09,1.29,1.29,0,0,0-1.13,1.09,1.28,1.28,0,0,0-1.13-1.09A1.28,1.28,0,0,0,32.94,7.47Z"/><path class="cls-15" d="M56,38.49a1.28,1.28,0,0,0,1.12,1.09A1.28,1.28,0,0,0,56,40.67a1.29,1.29,0,0,0-1.13-1.09A1.29,1.29,0,0,0,56,38.49Z"/><path class="cls-15" d="M118.78,9.91A1.29,1.29,0,0,0,119.91,11a1.29,1.29,0,0,0-1.13,1.09A1.28,1.28,0,0,0,117.66,11,1.28,1.28,0,0,0,118.78,9.91Z"/><path class="cls-15" d="M176.63,83a1.29,1.29,0,0,0,1.13,1.09,1.28,1.28,0,0,0-1.13,1.09,1.27,1.27,0,0,0-1.13-1.09A1.28,1.28,0,0,0,176.63,83Z"/><path class="cls-15" d="M240.81,6.38a1.29,1.29,0,0,0,1.13,1.09,1.29,1.29,0,0,0-1.13,1.09,1.28,1.28,0,0,0-1.13-1.09A1.28,1.28,0,0,0,240.81,6.38Z"/><path class="cls-15" d="M242.3,61.13a1.28,1.28,0,0,0,1.13,1.09,1.29,1.29,0,0,0-1.13,1.09,1.28,1.28,0,0,0-1.12-1.09A1.26,1.26,0,0,0,242.3,61.13Z"/><path class="cls-16" d="M165.49,52.23,147.69,48l15.3-.53A26.5,26.5,0,0,0,165.49,52.23Z"/><path class="cls-16" d="M250,44.41v39.3H.09V81.38l90.73-9L.09,74V72.22l175.4-10.94a26.82,26.82,0,0,0,38-15.6Z"/><path class="cls-16" d="M0,22.26l165.51.45a26.32,26.32,0,0,0-4,9.68l-94.28,5L127,52.62H0Z"/><path class="cls-16" d="M214.77,22.84l-3.9.76c-.16-.26-.33-.52-.5-.77Z"/><g class="cls-17"><path class="cls-18" d="M138.83,56.34h0v0l.06-.08,8.31-9.87-9.87,8.3-.09.06h0l-.12.09a1.15,1.15,0,0,0,0,1.61,1.13,1.13,0,0,0,1.61,0A.52.52,0,0,0,138.83,56.34Z"/><path class="cls-18" d="M137.28,56.3a.92.92,0,0,1,0-1.3l.09-.08h0l.07-.06,5.93-4.66-4.66,5.91-.05.08h0a.86.86,0,0,1-.07.1A.94.94,0,0,1,137.28,56.3Z"/></g><circle class="cls-18" cx="137.93" cy="55.64" r="0.96"/><path class="cls-18" d="M138.61,56.32a1,1,0,0,0,0-1.36.78.78,0,0,0-.21-.16h0s.26.23.14.37-.14.27-.28.22-.17-.1-.28,0-.23.13-.33,0-.34-.11-.25-.26a.74.74,0,0,0,0-.29l-.18.14a1,1,0,0,0,0,1.36A1,1,0,0,0,138.61,56.32Z"/><path class="cls-18" d="M138.72,55.08c0,.09-.12.48-.28.51s-.19.22-.43.14-.11.15-.33,0-.15.07-.34-.17l-.26-.31a1,1,0,1,0,1.64-.12Z"/><path class="cls-18" d="M138.78,55.18a1.33,1.33,0,0,0-.16.53c0,.12-.19.28-.31.31s-.17-.07-.32.06-.24.27-.37.13-.17-.23-.26-.26-.16.07-.22-.17a1.32,1.32,0,0,0-.13-.41,1,1,0,1,0,1.77-.19Z"/><path class="cls-18" d="M138.71,55.08a.94.94,0,0,1-.24,1,1,1,0,0,1-1.36,0,.52.52,0,0,1-.1-.11.83.83,0,0,0,.24.4,1,1,0,0,0,1.46-1.24Z"/><path class="cls-18" d="M137.57,54.75c0,.1.11.2.16.17s.11.07,0,.17.11.14.24,0,.11,0,.13.13.16,0,.24,0,0-.1-.11-.21.08-.17.08-.17A1,1,0,0,0,137.57,54.75Z"/><g class="cls-19"><path class="cls-18" d="M183.52,96.39h0l0-.06.19-.27,26.74-31.77L178.72,91l-.28.18-.06.05h0a2.11,2.11,0,0,0-.36.31,3.66,3.66,0,0,0,5.18,5.18Z"/><path class="cls-18" d="M178.53,96.24a3,3,0,0,1,0-4.17,2.63,2.63,0,0,1,.29-.25l0,0a2,2,0,0,1,.25-.16l19.07-15-15,19-.16.25,0,0a1.94,1.94,0,0,1-.25.29A2.93,2.93,0,0,1,178.53,96.24Z"/></g><circle class="cls-18" cx="180.63" cy="94.14" r="3.1"/><path class="cls-18" d="M182.82,96.34a3.11,3.11,0,0,0,0-4.39,3.23,3.23,0,0,0-.7-.53h0s.85.74.45,1.21-.44.88-.9.69-.54-.31-.88,0-.76.42-1.07,0-1.11-.34-.82-.84c.17-.31.06-.63.1-.92a3.45,3.45,0,0,0-.56.45,3.1,3.1,0,1,0,4.38,4.39Z"/><path class="cls-18" d="M183.16,92.35c-.07.26-.39,1.52-.9,1.62s-.6.7-1.38.45-.36.49-1-.17-.5.23-1.11-.52c-.33-.4-.61-.71-.85-1a3.1,3.1,0,1,0,5.29-.38Z"/><path class="cls-18" d="M183.36,92.67a3.83,3.83,0,0,0-.51,1.68c.15.4-.63.91-1,1s-.54-.23-1,.18-.76.88-1.18.43-.55-.75-.85-.84-.51.21-.69-.54a5,5,0,0,0-.42-1.35,3.1,3.1,0,1,0,5.7-.58Z"/><path class="cls-18" d="M183.14,92.33A3.1,3.1,0,0,1,178,95.41a2.8,2.8,0,0,1-.32-.38,3.06,3.06,0,0,0,.78,1.31,3.1,3.1,0,0,0,4.7-4Z"/><path class="cls-18" d="M179.45,91.28c.07.31.37.65.52.52s.37.23.05.58.33.43.76-.11.37-.12.42.43.52,0,.76-.18,0-.31-.34-.68.25-.54.25-.54A3.13,3.13,0,0,0,179.45,91.28Z"/><g class="cls-20"><circle class="cls-21" cx="84.78" cy="98.33" r="60.83"/></g><circle class="cls-22" cx="84.78" cy="98.33" r="45.35"/><path class="cls-23" d="M130.13,98.33a45.33,45.33,0,0,0-58-43.53h0s16.37-1.1,17,7.81,4.62,13.57-2.19,16.44-8.67,2.33-9.35,8.69S74.05,99.92,66.17,98.62s-15,7.9-17.16-.29c-1.31-4.92-5.77-7.07-8.35-10.47a45.35,45.35,0,1,0,89.47,10.47Z"/><path class="cls-24" d="M92.35,53.62C94.44,57,104,73.37,99.83,79.76c-4.65,7.17,1.08,13.35-9.67,18.86s1.36,8.72-12.57,9.08-2.83,7.52-16.79,6.09c-7.57-.78-13.77-1-19.17-1.49A45.35,45.35,0,1,0,92.35,53.62Z"/><path class="cls-25" d="M97.72,54.87c2.25,6.33,7.71,20.5,12.14,22.57,5.73,2.68,2.87,16,0,21.18S102,101.78,101.07,111s1.27,17.1-7.68,16.75-13.58-2.09-17.55,0-3.07,7.52-12.64,1.6c-6.55-4.05-13.37-8.51-18.32-9.54a45.34,45.34,0,1,0,52.84-65Z"/><path class="cls-26" d="M92,53.55A45.36,45.36,0,0,1,70.37,138.8a45.84,45.84,0,0,1-7.17-.57A45.36,45.36,0,1,0,92,53.55Z"/><path class="cls-27" d="M42.91,80.87c4,2.53,10.56,2.9,10.85.1.48-4.77,6.2-1.44,6.44,5.48s7.88,1,6.78-9,2.53-5.08,8.74,0,5.49-5.32,6-9.61-3.35-3.11-10.51-3.49-3-8.18-3-8.21A45.54,45.54,0,0,0,42.91,80.87Z"/><ellipse class="cls-13" cx="77.59" cy="95.65" rx="34.99" ry="27.76" transform="translate(-38.29 137.36) rotate(-70.75)"/><path class="cls-28" d="M250,138.5a20.79,20.79,0,0,1-4.33-1.17c-4.34-1.66-14.67,0-14.67,0L227.67,134,218,131.5l-3,2.17-3,2.2-1.33-2.2V131.5l-8.34,1.83L194,135.87,184.33,133l-2-1.5L180,124.67l-4.67,5v1.83l-9,1.5-6.66-3.67-5-7.66-6.34-3L145,110.83s-.67,2.5-2,3.5.33,4,0,5.34-5,3.66-5,3.66h-9.75c-.42,0-6.25-1.33-6.25-1.33l-2-8-6,3.67L111,121l-7.33,4.33H87.41s-5.74-1.66-8.08-2.66-5.33,0-7.66,0H68.33L54,112l-1.9-4.67A14.19,14.19,0,0,0,49,112c-1,2.67-2.33,0-2.33,0L41,109.67v-2.34l-2.33-11L37,102l-3.5,7.33L28,115.17H24.67l-9,3.16-7-6.33H0v48H250Z"/><path class="cls-29" d="M71.25,134.06v-3.31l2.69-4.5L73.5,125l3.08-2.77c-1.68,0-3.43.44-4.91.44H68.33l1.23,4.83Z"/><path class="cls-29" d="M87.41,130.81c-.1.44-2.85,4.44-2.85,4.44l4.19-2.75,3.94-3,2.62-3.5,4.07-.67h-12v1.8S87.51,130.38,87.41,130.81Z"/><polygon class="cls-29" points="24.69 124.5 27.5 129.75 26.13 125.56 27.31 120.19 28 115.17 24.67 115.17 26.34 119.25 24.69 124.5"/><path class="cls-29" d="M46.67,112l-3-1.25.86,1.69a28.55,28.55,0,0,1-.94,3.12c-.43,1.07,1.32,3.82,1.32,4.25s.5,4.69.5,4.69l.29,5.79,1-3.71v-3.91L47,119l2.42-3.08L49,112C48,114.67,46.67,112,46.67,112Z"/><polygon class="cls-29" points="9.81 125.56 15.67 118.33 8.67 112 9.38 117.19 9.81 125.56"/><path class="cls-29" d="M250,99.13l-4.67-2.8v4l-3-2H239l-4-5.85V89h-6.33V99s-2,2.67-4.67,1.33-13.67-4-13.67-4A5.91,5.91,0,0,1,207,94.85c-2-1.52-6.33-2.37-6.33-2.37l-5,5.52L194,100.71s-2-1.63-3.33,0-5,3.29-5,3.29h-15a17.56,17.56,0,0,0-2.67-3c-2.33-2.33-5-4.67-5-4.67l-4-3.85s-1,4.19,0,5.85,2.67,5.67,2.67,5.67l-3.11,4.67h-2.23l-9,3.33H136.67s-7.5,2.33-8.42,3.33-10.39,4-10.39,4L113,122l-9.33,3.33-2,3L98,131.5a47.92,47.92,0,0,1-5.34,4.37,36.43,36.43,0,0,1-7,3.29L80,142.47,78.33,146s-1.66,3.67-3.33,5-7.67,6.33-7.67,6.33L62.67,160H250Z"/><path class="cls-30" d="M224,100.33c-2.67-1.33-13.67-4-13.67-4a5,5,0,0,1-2.33-.81V98l6.33,2.33,6.67,4.5v8.5l1.67,1.34,3.16-6.84,2.84-4.33V99S226.67,101.67,224,100.33Z"/><path class="cls-30" d="M191.57,100.07l-.15.64-2.59,5.46,1.84,7.16v-5.5l1.83-.83.67-3.5.83-2.79A3,3,0,0,0,191.57,100.07Z"/><path class="cls-30" d="M105.67,130.29c.16-.87,2.5-4,2.5-4l1.75-3.23-5.55,2-.16,1.59-1.38,3.62-3.45,5-.88,3.08,4.33-2.33A56,56,0,0,0,105.67,130.29Z"/><polygon class="cls-30" points="233.67 109 235.17 116.03 237.67 126.5 243 131.83 242 126.33 240.83 119.33 243 112 246.17 107.83 245.33 100.33 242.33 98.33 239 98.33 236.83 102.25 233.67 109"/><polygon class="cls-30" points="158.56 117.17 158.56 120.52 158.56 126.33 156.33 131.83 161 126 161 120.58 163 114.33 162.17 107.83 161.67 104 158.56 108.67 158.56 113.5 158.56 117.17"/><path class="cls-30" d="M181,122.23l8.67,11.83-3.17-7.73s-1.5-12-1.5-13a23.25,23.25,0,0,1,1.5-4.5l-.83-4.83h-15l6.66,5.5Z"/><path class="cls-30" d="M121,122.46l.83,2.87L117,134.06l.83,9.44,1-6,1.67-5.83s2.33-4.84,2.67-5.34l2.66-4.1,2.42-6.9c-.49.54-3.46,1.66-6.1,2.57Z"/><polygon class="cls-30" points="143.5 122.67 146.83 133.33 146.33 126.67 146.33 120.52 147.33 116.32 147.33 112 142.17 112 136.67 112 142.83 117.33 143.5 122.67"/><path class="cls-30" d="M250,160V130.33L248,129c-2-1.33-2,.33-2,.33l-2,6.54-8-4.37V128l-2-4v9h-3l-4-1.5-2.33-5.5L223,122l-3,3.67v7.66l-1.67,2.54-4,3.13-3.66,4.67-6-2.34-5.34-5.46A24.9,24.9,0,0,0,196,139c-.67,1-3,1-3,1h-8.33l-3.34-2.33-2.66-1.8v-6.54l-7.67-8V117l-4.33-5v9.67l-4.34,5v11.16L160,141.67v3.93l-2,3.4-11.67.67-6,1.33.67-2.67-9,2H119.33l-6-.66L108,147.33l-1.33-1.73v-3.27L104,145.6l-2,1.73H97l-4.34-1.73H91l-1.63-3.13H70l-5.3-2.8H60.26l-2.59-3.8L56,134v1.87L54.33,138H37l-5.81-2.13-4.52-2.2-1.67-3v-2.34H23L20.33,132h-11l-4.66-3.67L2,124.67H0V160Z"/><polygon class="cls-31" points="219 136.92 219 140.63 220 143.33 220.67 139.67 221.33 136.58 220 133.33 218.34 135.86 219 136.92"/><polygon class="cls-31" points="238.42 134.42 241.17 137.83 239.92 139.58 239.92 144.67 241.33 142.92 243.67 141.58 244 138.33 244 135.87 236 131.5 238.42 134.42"/><path class="cls-31" d="M229,136h1.92s2-.92,2.25-1,.83-2,.83-2h-3l-4-1.5,1.58,1.5Z"/><polygon class="cls-31" points="205.33 150.08 208.25 147.93 210.33 146 210.67 143.67 204.67 141.33 207.17 145.6 205.33 150.08"/><polygon class="cls-31" points="109.92 151.58 109.92 153.67 111.92 151.33 113.33 149.67 108 147.33 108.33 149.75 109.92 151.58"/><path class="cls-31" d="M193,140h-.68l.18,1.42,3.5,2.08,1.58,3.42.5-2.34v-2.5L196,139C195.33,140,193,140,193,140Z"/><path class="cls-31" d="M181.42,143.83c0,.25,1.66,4.1,1.66,4.1l1.59-7.93-3.34-2.33-2.66-1.8,1.5,3.38S181.42,143.58,181.42,143.83Z"/><polygon class="cls-31" points="174 137.42 174.83 133.33 175.33 129.67 176.26 126.83 171 121.33 171.67 124.83 174 129.42 174 132.33 174 137.42"/><polygon class="cls-31" points="4.04 133 2.83 138.42 3.75 145.25 4.17 139.67 5.25 136.75 4.67 131.92 4.67 128.33 2 124.67 3.17 128.67 4.04 133"/><polygon class="cls-31" points="164.42 136.83 165.33 142.08 166.67 140.58 166.67 135.25 166.67 131.83 167.92 129.42 166.67 121.67 162.33 126.67 164.75 130.29 164.42 136.83"/><polygon class="cls-31" points="29.75 141.75 30.42 143 33.75 139.08 37 138 31.19 135.87 26.67 133.67 29.75 138.83 29.75 141.75"/><path class="cls-31" d="M11.33,135.25V138l-1,2.5,4.17-4.25s.42-1.58,1.17-1.58,4.41-.61,4.41-.61l.25-2.06h-11l1,1.58Z"/><polygon class="cls-31" points="61.08 143.33 61.08 144.58 61.83 142.25 63.17 140.5 64.7 139.67 60.26 139.67 60.75 141.5 61.08 143.33"/><polygon class="cls-31" points="49.38 140.13 51 142.25 51.5 140.5 53.67 139.42 54.33 138 48.75 138 50.33 138.75 49.38 140.13"/><path class="cls-31" d="M93.75,150.5c.33.67,3.83,2.67,3.83,2.67l-2.41-3.79L93.58,147l3.42.33-4.34-1.73H91l1,3.07A9.06,9.06,0,0,1,93.75,150.5Z"/><polygon class="cls-31" points="160.08 150.94 160.42 153.67 161.08 150.17 160.42 147.17 160 145.6 158 149 160.08 150.94"/><polygon class="cls-31" points="134.42 154.33 133.67 152.17 132 150.33 129.67 150.33 131.42 152.75 134.42 154.33"/><path class="cls-32" d="M246,144l-2.33,2-1-.4c-1-.4-3,.73-3.67,0s-3-2.6-3-2.6a14.84,14.84,0,0,1-2-3,3.2,3.2,0,0,0-3-2.67c-2.33-.33,0,2,0,2l-1.67,3.34-2.33-2v-4.8l-2.33,3.46v6.27l-5,3.4v-3.4s-3.67,4.73-3.67,6.73l-5.67.34H204c-1.33,0-8.33-.34-8.33-.34V149l-2-3.4-.58,1.51-1.76,4.56H188L181.67,150,177,145.6l-3,4.07-5.33-1-2-3.07v6.07L163,155.33H147.67l-1.34-2.66v-3l-6,1.33-4.66,4.33H130l-2.33-7-1.34-11L125,141s-2,5.67-2,7.33-2,.34-2,.34l-1.67-3.07v6.73l-5.33,3H100.67L89.32,151H87.41l-6.74-4.33L78.33,146l-7-.33S68,138,68,136.33V138s-.48,1.33-.94,2.68c-.3.89-.59,1.79-.73,2.32-.33,1.33-4.66,2.83-4.66,2.83l-16.34-2.16L42,145.83H33.5l-4.5,1.5v-1.5L26,142v9H19.67l-4-4.67v-5.66L13,144.33l-3.67,3.34v-1.84l-3-3.5v5l-4,2L0,147.25V160H250V145.6C246,144.53,246,144,246,144Z"/><polygon class="cls-33" points="170.67 156.58 170.67 153.67 173.63 151.92 174 149.67 168.67 148.67 169.17 151.5 170.67 156.58"/><polygon class="cls-33" points="155.42 157 159.67 158.92 160.25 157 163 155.33 156.67 155.33 154 155.33 147.67 155.33 152.17 157 155.42 157"/><polygon class="cls-33" points="133.75 158.25 135.67 155.33 130 155.33 132.04 156.67 133.75 158.25"/><path class="cls-33" d="M123.83,153.67,126.5,157l-1.5-3.08V151.5l-2-3.17c0,1.67-2,.34-2,.34l.67,1.83Z"/><path class="cls-33" d="M240.83,149.58l-.83,3.25-.08,3.09,2.83,1.08,5,1.08-3.75-2.5L242.92,153l.08-4,.67-3-1-.4c-1-.4-3,.73-3.67,0l1,1.32Z"/><polygon class="cls-33" points="231.42 151.88 231.83 155.42 234 156.58 234 150.42 232.83 144.67 231.25 141.9 231 139.33 229.33 142.67 231.83 147.25 231.42 151.88"/><polygon class="cls-33" points="187.42 153.67 188.92 157.75 195.2 157.75 192.83 156.58 191.33 153.67 191.33 151.67 188 151.67 181.67 150 184.67 152 187.42 153.67"/><polygon class="cls-33" points="221 150.08 223 151.88 222.58 156.04 225.25 158.08 225.25 153.17 226 150.08 224.67 145.6 219.67 149 221 150.08"/><polygon class="cls-33" points="118.67 157.17 120.42 158.25 119.5 155.33 119.33 152.33 114 155.33 116.17 156 118.67 157.17"/><polygon class="cls-33" points="25.25 156.67 25.92 158.25 25.92 153.33 26 151 19.67 151 22.17 153.25 25.25 156.67"/><path class="cls-33" d="M30,149.38l1.25,3.71s.25,2.91.58,3,1.34-4.83,1.34-4.83v-2.83l.33-2.59-4.5,1.5Z"/><polygon class="cls-33" points="9.33 149.58 10 151.25 11.17 147.93 13 144.33 9.33 147.67 9.33 149.58"/><polygon class="cls-33" points="4.92 154.25 6 157.08 6.83 151.67 6.33 147.33 2.33 149.33 4.42 151.25 4.92 154.25"/><polygon class="cls-33" points="44.08 150.92 45.42 155.08 46.08 151.25 44.42 147.42 45.33 143.67 42 145.83 42.75 148.58 44.08 150.92"/><polygon class="cls-33" points="72.83 148.88 72.08 151.17 72.08 154.17 72.83 151.75 75.92 149.38 77.58 146.75 78.33 146 71.33 145.67 72.46 147.33 72.83 148.88"/><polygon class="cls-33" points="89.25 155.75 94.27 157.67 91.33 154.33 89.75 152.33 89.32 151 87.41 151 87.92 153.67 89.25 155.75"/><path class="cls-33" d="M63.75,150.83l.42,2.84-.42,2.41,1.92-2.91-.59-4.75.59-1.46,2.66,1-1.83-3L66,143.5h0c-1.05,1.18-4.37,2.33-4.37,2.33l1,1.5Z"/><g class="cls-34"><path class="cls-18" d="M12.5,90h0v0l.06-.08L20.88,80,11,88.31l-.09,0,0,0h0l-.11.1a1.13,1.13,0,1,0,1.61,1.6A.52.52,0,0,0,12.5,90Z"/><path class="cls-18" d="M11,89.93a.92.92,0,0,1,0-1.3l.09-.08h0l.08,0,5.93-4.67-4.67,5.92-.05.07v0l-.08.09A.91.91,0,0,1,11,89.93Z"/></g><circle class="cls-18" cx="11.6" cy="89.28" r="0.96"/><path class="cls-18" d="M12.28,90a1,1,0,0,0,0-1.37.89.89,0,0,0-.22-.16h0s.27.23.14.37-.13.28-.28.22-.16-.1-.27,0-.24.13-.33,0-.35-.11-.26-.26,0-.19,0-.28a.7.7,0,0,0-.17.13A1,1,0,1,0,12.28,90Z"/><path class="cls-18" d="M12.39,88.72c0,.08-.13.47-.28.5s-.19.22-.43.14-.11.15-.33,0-.15.07-.34-.16-.19-.22-.27-.31a1,1,0,1,0,1.65-.12Z"/><path class="cls-18" d="M12.45,88.82a1.29,1.29,0,0,0-.16.52c.05.13-.2.28-.32.32s-.16-.07-.32,0-.23.28-.36.14-.18-.24-.27-.27-.16.07-.21-.16a1.61,1.61,0,0,0-.13-.42,1,1,0,0,0,.24,1,1,1,0,0,0,1.36,0A1,1,0,0,0,12.45,88.82Z"/><path class="cls-18" d="M12.38,88.71a1,1,0,0,1-.24,1,1,1,0,0,1-1.36,0l-.1-.12a.91.91,0,0,0,.24.41,1,1,0,0,0,1.46-1.25Z"/><path class="cls-18" d="M11.23,88.38c0,.1.12.21.16.17s.12.07,0,.18.1.13.24,0,.11,0,.13.14.16,0,.23-.06,0-.1-.1-.21.07-.17.07-.17A1,1,0,0,0,11.23,88.38Z"/><g class="cls-35"><path class="cls-18" d="M98.71,15.61h0v0l.06-.08,8.31-9.87L97.22,14l-.09.06h0l-.11.1a1.13,1.13,0,0,0,1.61,1.6A.52.52,0,0,0,98.71,15.61Z"/><path class="cls-18" d="M97.16,15.57a.92.92,0,0,1,0-1.3l.09-.08h0l.08,0,5.92-4.67-4.66,5.92,0,.07v0l-.08.09A.91.91,0,0,1,97.16,15.57Z"/></g><circle class="cls-18" cx="97.81" cy="14.92" r="0.96"/><path class="cls-18" d="M98.49,15.6a1,1,0,0,0,0-1.37,1.12,1.12,0,0,0-.22-.16h0s.27.23.14.37-.13.28-.28.22-.16-.1-.27,0-.24.13-.33,0-.35-.11-.26-.26,0-.19,0-.28a.7.7,0,0,0-.17.13,1,1,0,0,0,1.36,1.37Z"/><path class="cls-18" d="M98.6,14.36c0,.08-.13.47-.29.5s-.18.22-.42.14-.11.15-.33-.05-.15.07-.34-.16L97,14.48a1,1,0,1,0,1.65-.12Z"/><path class="cls-18" d="M98.66,14.46a1.29,1.29,0,0,0-.16.52c0,.13-.2.28-.32.32s-.16-.07-.32,0-.23.28-.36.14-.18-.24-.27-.27-.16.07-.21-.16a1.61,1.61,0,0,0-.13-.42,1,1,0,0,0,.24,1,1,1,0,0,0,1.53-1.14Z"/><path class="cls-18" d="M98.59,14.35a1,1,0,0,1-.24,1,1,1,0,0,1-1.36,0l-.1-.12a.91.91,0,0,0,.24.41,1,1,0,0,0,1.46-1.25Z"/><path class="cls-18" d="M97.44,14c0,.1.12.21.16.17s.12.07,0,.18.1.13.24,0,.11,0,.13.14.16,0,.23-.06,0-.1-.1-.21.07-.17.07-.17A1,1,0,0,0,97.44,14Z"/><g class="cls-36"><path class="cls-18" d="M30.48,35h0l0,0,.1-.15L45.25,17.44,27.86,32.08l-.15.1,0,0h0l-.19.17a2,2,0,0,0,2.83,2.84A1.06,1.06,0,0,0,30.48,35Z"/><path class="cls-18" d="M27.75,34.93a1.61,1.61,0,0,1,0-2.28l.16-.14h0l.14-.09L38.5,24.19,30.29,34.61l-.1.14,0,0a1,1,0,0,1-.13.15A1.62,1.62,0,0,1,27.75,34.93Z"/></g><circle class="cls-18" cx="28.9" cy="33.78" r="1.7"/><path class="cls-18" d="M30.1,35a1.7,1.7,0,0,0,0-2.41,1.49,1.49,0,0,0-.38-.28h0s.46.4.24.65-.23.49-.49.38-.29-.17-.48,0-.41.23-.59,0-.6-.19-.44-.46,0-.34.05-.5a2.34,2.34,0,0,0-.31.24A1.7,1.7,0,0,0,30.1,35Z"/><path class="cls-18" d="M30.29,32.8c0,.15-.22.83-.5.89s-.32.38-.75.24-.2.27-.58-.09-.27.13-.6-.28L27.39,33a1.7,1.7,0,1,0,2.9-.21Z"/><path class="cls-18" d="M30.4,33a2.06,2.06,0,0,0-.28.92c.08.22-.35.5-.56.56s-.29-.13-.56.09-.42.49-.65.24-.3-.41-.46-.46-.28.11-.38-.3a3,3,0,0,0-.23-.73A1.68,1.68,0,0,0,27.7,35a1.7,1.7,0,0,0,2.7-2Z"/><path class="cls-18" d="M30.28,32.79a1.7,1.7,0,0,1-2.83,1.68,1.63,1.63,0,0,1-.17-.2,1.7,1.7,0,1,0,3-1.48Z"/><path class="cls-18" d="M28.26,32.21c0,.17.2.36.28.29s.2.13,0,.32.18.23.41-.06.21-.07.24.23.28,0,.41-.1,0-.17-.19-.37.14-.29.14-.29A1.68,1.68,0,0,0,28.26,32.21Z"/><g class="cls-37"><circle class="cls-18" cx="187.91" cy="37.5" r="26.86"/></g></g></g></g></svg>