<svg xmlns="http://www.w3.org/2000/svg" xmlns:xlink="http://www.w3.org/1999/xlink" viewBox="0 0 250 160"><defs><style>.cls-1{fill:#0c0b0c;}.cls-2{fill:url(#radial-gradient);}.cls-3{isolation:isolate;}.cls-4{fill:url(#linear-gradient);}.cls-5,.cls-6{fill:#fbb040;}.cls-5{mix-blend-mode:color-dodge;}.cls-25,.cls-6,.cls-7{mix-blend-mode:screen;}.cls-7{fill:#141313;}.cls-8{fill:#162493;}.cls-9{fill:url(#linear-gradient-2);}.cls-10{fill:#0e185f;}.cls-11{fill:url(#linear-gradient-3);}.cls-12{fill:#0a1245;}.cls-13{fill:url(#linear-gradient-4);}.cls-14{fill:#0a0d30;}.cls-15{fill:url(#linear-gradient-5);}.cls-16{mask:url(#mask);}.cls-17{fill:#e84700;}.cls-18{mask:url(#mask-2);}.cls-19{mask:url(#mask-3);}.cls-20{mask:url(#mask-4);}.cls-21{fill:#fd6e03;}.cls-22{fill:#f55e1b;}.cls-23{fill:#d94809;}.cls-24{fill:#e6e7e8;mix-blend-mode:multiply;}.cls-25{fill:#231f20;}.cls-26{fill:url(#linear-gradient-6);}.cls-27{fill:url(#linear-gradient-7);}.cls-28{fill:url(#linear-gradient-8);}.cls-29{fill:url(#linear-gradient-9);}.cls-30{fill:url(#linear-gradient-10);}.cls-31{fill:url(#linear-gradient-11);}.cls-32{fill:#532a38;}.cls-33{fill:url(#linear-gradient-12);}</style><radialGradient id="radial-gradient" cx="125" cy="65.17" r="28.27" gradientUnits="userSpaceOnUse"><stop offset="0" stop-color="#fff"/><stop offset="0.72" stop-color="#414141"/><stop offset="1"/></radialGradient><linearGradient id="linear-gradient" x1="125" y1="160" x2="125" y2="3.3" gradientUnits="userSpaceOnUse"><stop offset="0" stop-color="#ef684a"/><stop offset="1" stop-color="#0a0d30"/></linearGradient><linearGradient id="linear-gradient-2" x1="91.37" y1="133.57" x2="-31.3" y2="92.23" gradientUnits="userSpaceOnUse"><stop offset="0" stop-color="#ef684a"/><stop offset="1" stop-color="#002448"/></linearGradient><linearGradient id="linear-gradient-3" x1="164.76" y1="86" x2="164.76" y2="147.69" xlink:href="#linear-gradient-2"/><linearGradient id="linear-gradient-4" x1="243.67" y1="127.75" x2="-3.03" y2="127.75" xlink:href="#linear-gradient-2"/><linearGradient id="linear-gradient-5" x1="0" y1="147.39" x2="250" y2="147.39" xlink:href="#linear-gradient-2"/><mask id="mask" x="69.83" y="10" width="110.35" height="110.35" maskUnits="userSpaceOnUse"><circle class="cls-1" cx="125" cy="65.17" r="55.17"/></mask><mask id="mask-2" x="59.83" y="0" width="130.35" height="130.35" maskUnits="userSpaceOnUse"><circle class="cls-1" cx="125" cy="65.17" r="65.17"/></mask><mask id="mask-3" x="83.08" y="23.25" width="83.85" height="83.85" maskUnits="userSpaceOnUse"><circle class="cls-1" cx="125" cy="65.17" r="41.92"/></mask><mask id="mask-4" x="96.73" y="36.91" width="56.53" height="56.53" maskUnits="userSpaceOnUse"><circle class="cls-2" cx="125" cy="65.17" r="28.27"/></mask><linearGradient id="linear-gradient-6" x1="241.9" y1="72.92" x2="237.73" y2="63.34" gradientTransform="translate(0.96 -115.29) rotate(19.63)" xlink:href="#linear-gradient"/><linearGradient id="linear-gradient-7" x1="241.2" y1="72.35" x2="234.93" y2="65.83" gradientTransform="translate(0.96 -115.29) rotate(19.63)" gradientUnits="userSpaceOnUse"><stop offset="0" stop-color="#c12139"/><stop offset="0.52" stop-color="#7c587d"/><stop offset="1" stop-color="#2f93c5"/></linearGradient><linearGradient id="linear-gradient-8" x1="241.74" y1="71.03" x2="233.51" y2="62.47" xlink:href="#linear-gradient-7"/><linearGradient id="linear-gradient-9" x1="32.08" y1="29.82" x2="23.89" y2="10.98" gradientTransform="translate(16.03 51.61) rotate(-16.73)" xlink:href="#linear-gradient"/><linearGradient id="linear-gradient-10" x1="30.7" y1="28.69" x2="18.38" y2="15.87" gradientTransform="translate(16.03 51.61) rotate(-16.73)" xlink:href="#linear-gradient-7"/><linearGradient id="linear-gradient-11" x1="31.77" y1="26.1" x2="15.59" y2="9.26" gradientTransform="translate(16.03 51.61) rotate(-16.73)" xlink:href="#linear-gradient-7"/><linearGradient id="linear-gradient-12" x1="180.26" y1="77.29" x2="215.7" y2="77.29" xlink:href="#linear-gradient-2"/></defs><g class="cls-3"><g id="圖層_2" data-name="圖層 2"><g id="Layer_1" data-name="Layer 1"><rect class="cls-4" width="250" height="160"/><path class="cls-5" d="M35.6,40.1a.43.43,0,0,0,.39.38.45.45,0,0,0-.39.39.46.46,0,0,0-.4-.39A.44.44,0,0,0,35.6,40.1Z"/><path class="cls-5" d="M42.14,41.87a.44.44,0,0,0,.4.38.46.46,0,0,0-.4.39.46.46,0,0,0-.4-.39A.44.44,0,0,0,42.14,41.87Z"/><path class="cls-5" d="M75.13,37.77a.46.46,0,0,0,.4.39.44.44,0,0,0-.4.38.44.44,0,0,0-.4-.38A.45.45,0,0,0,75.13,37.77Z"/><path class="cls-5" d="M94.21,25.27a.46.46,0,0,0,.4.38.4.4,0,0,1-.8,0A.46.46,0,0,0,94.21,25.27Z"/><path class="cls-5" d="M117.51,25.65a.46.46,0,0,0,.4.39.4.4,0,0,1-.8,0A.46.46,0,0,0,117.51,25.65Z"/><path class="cls-5" d="M133.38,15.67a.46.46,0,0,0,.4.38.4.4,0,0,1-.8,0A.46.46,0,0,0,133.38,15.67Z"/><path class="cls-5" d="M158.76,18.87a.46.46,0,0,0,.4.39.4.4,0,0,1-.8,0A.46.46,0,0,0,158.76,18.87Z"/><path class="cls-5" d="M189.44,17.05a.46.46,0,0,0,.4.39.4.4,0,0,1-.8,0A.46.46,0,0,0,189.44,17.05Z"/><path class="cls-5" d="M176.3,39.24a.44.44,0,0,0,.4.38.4.4,0,0,1-.8,0A.44.44,0,0,0,176.3,39.24Z"/><path class="cls-5" d="M164.41,56.36a.46.46,0,0,0,.4.38.4.4,0,0,1-.8,0A.46.46,0,0,0,164.41,56.36Z"/><path class="cls-5" d="M155.69,70.49a.46.46,0,0,0,.4.39.4.4,0,0,1-.8,0A.46.46,0,0,0,155.69,70.49Z"/><path class="cls-5" d="M160.36,86a.46.46,0,0,0,.4.39.4.4,0,0,1-.8,0A.46.46,0,0,0,160.36,86Z"/><path class="cls-5" d="M158.36,100.05a.44.44,0,0,0,.4.38.4.4,0,0,1-.8,0A.44.44,0,0,0,158.36,100.05Z"/><path class="cls-5" d="M125.63,101.49a.39.39,0,1,1,0,.78.39.39,0,1,1,0-.78Z"/><path class="cls-5" d="M132.66,53.6a.46.46,0,0,0,.4.39.4.4,0,0,1-.8,0A.46.46,0,0,0,132.66,53.6Z"/><path class="cls-5" d="M132.26,77.34a.46.46,0,0,0,.4.39.4.4,0,0,1-.8,0A.46.46,0,0,0,132.26,77.34Z"/><path class="cls-5" d="M53.31,8.11a.46.46,0,0,0,.4.38.46.46,0,0,0-.4.39.46.46,0,0,0-.4-.39A.46.46,0,0,0,53.31,8.11Z"/><path class="cls-5" d="M86.91,83.14a.46.46,0,0,0,.4.39.44.44,0,0,0-.4.38.44.44,0,0,0-.4-.38A.46.46,0,0,0,86.91,83.14Z"/><path class="cls-5" d="M107.49,86.43a.43.43,0,0,0,.39.38.45.45,0,0,0-.39.39.46.46,0,0,0-.4-.39A.44.44,0,0,0,107.49,86.43Z"/><path class="cls-5" d="M146.77,94.92a.44.44,0,0,0,.4.38.4.4,0,0,1-.8,0A.44.44,0,0,0,146.77,94.92Z"/><path class="cls-5" d="M93.46,106.88a.39.39,0,1,1,0,.77.39.39,0,1,1,0-.77Z"/><path class="cls-5" d="M80.36,100.43a.39.39,0,1,1,0,.77.39.39,0,1,1,0-.77Z"/><path class="cls-5" d="M143,6.83a.46.46,0,0,0,.4.39.44.44,0,0,0-.4.38.43.43,0,0,0-.39-.38A.45.45,0,0,0,143,6.83Z"/><path class="cls-5" d="M64.19,100a.46.46,0,0,0,.4.39.44.44,0,0,0-.4.38.44.44,0,0,0-.4-.38A.46.46,0,0,0,64.19,100Z"/><path class="cls-5" d="M54.11,105.85a.39.39,0,1,1,0,.77.39.39,0,1,1,0-.77Z"/><path class="cls-5" d="M40.11,110.65a.44.44,0,0,0,.4.38.46.46,0,0,0-.4.39.46.46,0,0,0-.4-.39A.44.44,0,0,0,40.11,110.65Z"/><path class="cls-5" d="M9.59,99.27a.44.44,0,0,0,.4.38.46.46,0,0,0-.4.39.46.46,0,0,0-.4-.39A.44.44,0,0,0,9.59,99.27Z"/><path class="cls-5" d="M26,95.3a.39.39,0,1,1,0,.78.39.39,0,1,1,0-.78Z"/><path class="cls-5" d="M40.51,85.66a.46.46,0,0,0,.4.38.46.46,0,0,0-.4.39.46.46,0,0,0-.4-.39A.46.46,0,0,0,40.51,85.66Z"/><path class="cls-5" d="M27.66,82.76a.46.46,0,0,0,.4.38.46.46,0,0,0-.4.39.46.46,0,0,0-.4-.39A.46.46,0,0,0,27.66,82.76Z"/><path class="cls-5" d="M17.43,118.14a.39.39,0,1,1,0,.77.39.39,0,1,1,0-.77Z"/><path class="cls-5" d="M102.46,62.08a.45.45,0,0,0,.39.39.43.43,0,0,0-.39.38.44.44,0,0,0-.4-.38A.46.46,0,0,0,102.46,62.08Z"/><path class="cls-5" d="M187.16,78a.46.46,0,0,0,.4.38.4.4,0,0,1-.8,0A.46.46,0,0,0,187.16,78Z"/><path class="cls-5" d="M223.37,58.69a.46.46,0,0,0,.4.39.4.4,0,0,1-.8,0A.46.46,0,0,0,223.37,58.69Z"/><path class="cls-6" d="M241,13.08a.46.46,0,0,0,.4.39.4.4,0,0,1-.8,0A.46.46,0,0,0,241,13.08Z"/><path class="cls-5" d="M214.56,71.2a.46.46,0,0,0,.4.39.4.4,0,0,1-.8,0A.46.46,0,0,0,214.56,71.2Z"/><path class="cls-5" d="M241.39,98.88a.39.39,0,1,1,0,.77.39.39,0,1,1,0-.77Z"/><path class="cls-5" d="M119.4,62.47a.46.46,0,0,0,.4.38.4.4,0,0,1-.8,0A.46.46,0,0,0,119.4,62.47Z"/><path class="cls-5" d="M161,35.65a.44.44,0,0,0,.4.38.4.4,0,0,1-.8,0A.44.44,0,0,0,161,35.65Z"/><path class="cls-5" d="M186.76,49.54a.46.46,0,0,0,.4.39.4.4,0,0,1-.8,0A.46.46,0,0,0,186.76,49.54Z"/><path class="cls-5" d="M201,42.25a.46.46,0,0,0,.4.39.46.46,0,0,0-.4.38.45.45,0,0,0-.4-.38A.45.45,0,0,0,201,42.25Z"/><path class="cls-5" d="M212.13,34.21a.44.44,0,0,0,.4.38.45.45,0,0,0-.4.39.46.46,0,0,0-.4-.39A.44.44,0,0,0,212.13,34.21Z"/><path class="cls-5" d="M220.62,24.88a.45.45,0,0,0,.39.39.43.43,0,0,0-.39.38.44.44,0,0,0-.4-.38A.46.46,0,0,0,220.62,24.88Z"/><path class="cls-6" d="M226.63,31.13a.46.46,0,0,0,.4.39.46.46,0,0,0-.4.38.45.45,0,0,0-.4-.38A.45.45,0,0,0,226.63,31.13Z"/><path class="cls-6" d="M204.72,49.13a.76.76,0,0,0,.66.64.66.66,0,0,1-1.32,0A.76.76,0,0,0,204.72,49.13Z"/><path class="cls-6" d="M180.58,56.49a.76.76,0,0,0,.66.64.74.74,0,0,0-.66.63.74.74,0,0,0-.66-.63A.75.75,0,0,0,180.58,56.49Z"/><path class="cls-6" d="M158,48.26a.75.75,0,0,0,.66.64.66.66,0,0,1-1.32,0A.75.75,0,0,0,158,48.26Z"/><path class="cls-6" d="M119.4,33.57a.76.76,0,0,0,.66.64.74.74,0,0,0-.66.63.74.74,0,0,0-.66-.63A.76.76,0,0,0,119.4,33.57Z"/><path class="cls-6" d="M81.93,42.64a.76.76,0,0,0,.66.64.74.74,0,0,0-.66.63.73.73,0,0,0-.65-.63A.75.75,0,0,0,81.93,42.64Z"/><path class="cls-5" d="M44.56,19.93a.75.75,0,0,0,.65.64.73.73,0,0,0-.65.63.74.74,0,0,0-.66-.63A.76.76,0,0,0,44.56,19.93Z"/><path class="cls-6" d="M14,67.57a.76.76,0,0,0,.66.64.74.74,0,0,0-.66.63.74.74,0,0,0-.66-.63A.76.76,0,0,0,14,67.57Z"/><path class="cls-5" d="M60.09,77.09a.75.75,0,0,0,.65.64.73.73,0,0,0-.65.63.74.74,0,0,0-.66-.63A.76.76,0,0,0,60.09,77.09Z"/><path class="cls-6" d="M206.94,101.88a1.51,1.51,0,0,0,1.32,1.28,1.5,1.5,0,0,0-1.32,1.27,1.5,1.5,0,0,0-1.32-1.27A1.51,1.51,0,0,0,206.94,101.88Z"/><path class="cls-5" d="M124.31,122.34a1.5,1.5,0,0,0,1.32,1.27,1.5,1.5,0,0,0-1.32,1.28,1.51,1.51,0,0,0-1.32-1.28A1.5,1.5,0,0,0,124.31,122.34Z"/><path class="cls-6" d="M17.83,9.37a1.5,1.5,0,0,0,1.32,1.27,1.52,1.52,0,0,0-1.32,1.28,1.51,1.51,0,0,0-1.32-1.28A1.5,1.5,0,0,0,17.83,9.37Z"/><path class="cls-6" d="M98.6,5.94a1.5,1.5,0,0,0,1.32,1.28A1.5,1.5,0,0,0,98.6,8.49a1.5,1.5,0,0,0-1.32-1.27A1.5,1.5,0,0,0,98.6,5.94Z"/><path class="cls-6" d="M208.61,10.92a1.5,1.5,0,0,0,1.32,1.27,1.5,1.5,0,0,0-1.32,1.28,1.51,1.51,0,0,0-1.33-1.28A1.51,1.51,0,0,0,208.61,10.92Z"/><path class="cls-6" d="M176.67,94.72A1.5,1.5,0,0,0,178,96a1.5,1.5,0,0,0-1.32,1.27A1.5,1.5,0,0,0,175.35,96,1.51,1.51,0,0,0,176.67,94.72Z"/><path class="cls-6" d="M45.21,122.34a1.51,1.51,0,0,0,1.33,1.27,1.51,1.51,0,0,0-1.33,1.28,1.5,1.5,0,0,0-1.32-1.28A1.5,1.5,0,0,0,45.21,122.34Z"/><path class="cls-6" d="M60.74,52.72A1.5,1.5,0,0,0,62.06,54a1.51,1.51,0,0,0-1.32,1.28A1.5,1.5,0,0,0,59.42,54,1.5,1.5,0,0,0,60.74,52.72Z"/><path class="cls-5" d="M5.37,30.39A.7.7,0,0,0,6,31a.72.72,0,0,0-.62.6.71.71,0,0,0-.61-.6A.69.69,0,0,0,5.37,30.39Z"/><path class="cls-5" d="M42.81,49.33a.72.72,0,0,0,.62.6.7.7,0,0,0-.62.59.69.69,0,0,0-.61-.59A.71.71,0,0,0,42.81,49.33Z"/><path class="cls-5" d="M62.06,90.23a.72.72,0,0,0,.62.6.7.7,0,0,0-.62.59.69.69,0,0,0-.61-.59A.71.71,0,0,0,62.06,90.23Z"/><path class="cls-5" d="M83.24,116.13a.71.71,0,0,0,.62.59.72.72,0,0,0-.62.6.71.71,0,0,0-.61-.6A.69.69,0,0,0,83.24,116.13Z"/><path class="cls-5" d="M177.49,6.62a.71.71,0,0,0,.61.6.69.69,0,0,0-.61.59.7.7,0,0,0-.62-.59A.72.72,0,0,0,177.49,6.62Z"/><path class="cls-5" d="M234.35,110.05a.7.7,0,0,0,.62.6.7.7,0,0,0-.62.59.69.69,0,0,0-.61-.59A.69.69,0,0,0,234.35,110.05Z"/><path class="cls-5" d="M244.63,124.34a.69.69,0,0,0,.61.59.62.62,0,0,1-1.23,0A.7.7,0,0,0,244.63,124.34Z"/><path class="cls-5" d="M221.58,116.09a.74.74,0,0,0,.66.63.75.75,0,0,0-.66.64.76.76,0,0,0-.66-.64A.74.74,0,0,0,221.58,116.09Z"/><path class="cls-5" d="M235.62,89.42a.75.75,0,0,0,.66.64.74.74,0,0,0-.66.63.74.74,0,0,0-.66-.63A.76.76,0,0,0,235.62,89.42Z"/><path class="cls-5" d="M146.11,123a.75.75,0,0,0,.66.64.76.76,0,0,0-.66.64.75.75,0,0,0-.66-.64A.74.74,0,0,0,146.11,123Z"/><path class="cls-5" d="M14.62,42a.75.75,0,0,0,.66.64.74.74,0,0,0-.66.64.75.75,0,0,0-.66-.64A.76.76,0,0,0,14.62,42Z"/><path class="cls-6" d="M72,15a.75.75,0,0,0,.66.64.74.74,0,0,0-.66.63.74.74,0,0,0-.66-.63A.76.76,0,0,0,72,15Z"/><path class="cls-6" d="M82.59,66.18a.74.74,0,0,0,.66.63.75.75,0,0,0-.66.64.76.76,0,0,0-.66-.64A.74.74,0,0,0,82.59,66.18Z"/><path class="cls-6" d="M73.92,96a.73.73,0,0,0,.65.63.75.75,0,0,0-.65.64.76.76,0,0,0-.66-.64A.74.74,0,0,0,73.92,96Z"/><path class="cls-5" d="M234.35,27.27a.46.46,0,0,0,.4.39.4.4,0,0,1-.8,0A.46.46,0,0,0,234.35,27.27Z"/><path class="cls-7" d="M163.35,0h-50.2c-22.46,74.31-9,84.79-84.59,104.77C19.8,107.08,10.2,109.53,0,112.12V160H40.16c28.63-17.35,74.73-21.73,89.93-56,22-49.7-8.15-56.93,26.49-95.91C159,5.36,161.26,2.66,163.35,0ZM65.45,132.46c-18.7,6-55.85,3.58-46.37-12.06,0,0,12.36-13.93,23.94-7.9s6.41,11.46,21.36,1.72S84.15,126.44,65.45,132.46Zm30.12-20.87c-4.79-5.15-7.64-12.71-7.64-12.71S84.74,83.22,94.1,82.3s5.53,6.86,18,13.92S100.37,116.73,95.57,111.59Z"/><path class="cls-7" d="M222.8,77.75c-4,8.16-15.07,15.09-23.25,21.52s-24.81,3.63-33.5,9,26.56,6.63,50.37,3.77,27.9-7.3,33.06-17.4c.19-.36.36-.73.52-1.09V78.42c-.91,1.34-2.89,2.58-6.11,3.32-6.56,1.5-14.16-.71-14.19,3.31s-8,9.77-5.76,4c0,0,.92-8.5,7.7-9s15.42-8,17.84-5.72A4.17,4.17,0,0,1,250,75V68.39C239.31,69.71,226.06,71,222.8,77.75Z"/><path class="cls-7" d="M53.41.46c.13.42-.36-.09-.69-.46H49c-3.12,6.62-12.6,13.4-21.47,14.93C19.59,16.3,7.53,16.79,0,20.08v8.15a7.21,7.21,0,0,1,2.71-.73c6.78-.46,15.41-8,17.84-5.71s1,5.89-5.59,7.39S.8,28.48.77,32.5A5.15,5.15,0,0,1,0,34.91v22.5c13.05-2.92,16.47-7.36,20.55-15.35,5.16-10.1.16-20.39,14.77-21.77S47.4,23.59,53.6,11c2.5-5.08,2.34-8.41,1.83-11h-2.1A3,3,0,0,0,53.41.46Z"/><path class="cls-8" d="M250,138.5a20.79,20.79,0,0,1-4.33-1.17c-4.34-1.66-14.67,0-14.67,0L227.67,134,218,131.5l-3,2.17-3,2.2-1.33-2.2V131.5l-8.34,1.83L194,135.87,184.33,133l-2-1.5L180,124.67l-4.67,5v1.83l-9,1.5-6.66-3.67-5-7.66-6.34-3L145,110.83s-.67,2.5-2,3.5.33,4,0,5.34-5,3.66-5,3.66h-9.75c-.42,0-6.25-1.33-6.25-1.33l-2-8-6,3.67L111,121l-7.33,4.33H87.41s-5.74-1.66-8.08-2.66-5.33,0-7.66,0H68.33L54,112l-1.9-4.67A14.19,14.19,0,0,0,49,112c-1,2.67-2.33,0-2.33,0L41,109.67v-2.34l-2.33-11L37,102l-3.5,7.33L28,115.17H24.67l-9,3.16-7-6.33H0v48H250Z"/><path class="cls-9" d="M99.38,125.33h-12s-5.74-1.66-8.08-2.66a6.5,6.5,0,0,0-2.75-.44h0a25.14,25.14,0,0,0-2.74.26l-.6.07-.51,0c-.36,0-.72.06-1.06.06H68.33L54,112l-1.9-4.67A14.19,14.19,0,0,0,49,112c-1,2.67-2.33,0-2.33,0L41,109.67v-2.34l-2.33-11L37,102l-3.5,7.33L28,115.17H24.67l-9,3.16-7-6.33H0v1.37H8.13l.83.75.42,3.07.43,8.37,5.26-6.5,2.3,1.46,8.12-3.36.85,2.09-1.65,5.25,2.81,5.25-1.38-4.19,1.19-5.37.55-4,2-.84,4.75-5.21,4-8.25,1.62,9.33L44,113.37l.2.06a19,19,0,0,1-.68,2.13c-.43,1.06,1.32,3.81,1.32,4.25s.5,4.69.5,4.69l.29,5.79,1-3.71v-3.91L47,119l2.42-3.09-.1-.94.47.15,1.79-4.33L57.63,117l5,4.62,6.07,2.66.82,3.22,1.69,6.56v-3.31l2.69-4.5L73.5,125l1-.93h0l8.85,1.26,4,1.44v.35s.1,3.25,0,3.69-2.85,4.44-2.85,4.44l4.19-2.75,3.94-3,1.59-2.13h2l5.38-1,1.09-1Z"/><path class="cls-10" d="M250,99.13l-4.67-2.8v4l-3-2H239l-4-5.86V89h-6.33V99s-2,2.67-4.67,1.33-13.67-4-13.67-4A5.91,5.91,0,0,1,207,94.85c-2-1.52-6.33-2.38-6.33-2.38l-5,5.53L194,100.71s-2-1.63-3.33,0-5,3.29-5,3.29h-15a17.56,17.56,0,0,0-2.67-3c-2.33-2.33-5-4.67-5-4.67l-4-3.86s-1,4.2,0,5.86,2.67,5.67,2.67,5.67l-3.11,4.67h-2.23l-9,3.33H136.67s-7.5,2.33-8.42,3.33-10.39,4-10.39,4L113,122l-9.33,3.33-2,3L98,131.5a47.92,47.92,0,0,1-5.34,4.37,36.43,36.43,0,0,1-7,3.29L80,142.47,78.33,146s-1.66,3.67-3.33,5-7.67,6.33-7.67,6.33L62.67,160H250Z"/><path class="cls-11" d="M245.33,96.33v4l-3-2H239l-4-5.86V89h-6.33V99s-2,2.67-4.67,1.33-13.67-4-13.67-4a5,5,0,0,1-2.33-.81,10.26,10.26,0,0,1-1-.67c-2-1.52-6.33-2.38-6.33-2.38l-5,5.53L194,100.71l-.05,0h0a2.92,2.92,0,0,0-2.37-.59h0a1.87,1.87,0,0,0-.9.64c-1.34,1.62-5,3.29-5,3.29h-15a17.56,17.56,0,0,0-2.67-3c-2.33-2.33-5-4.67-5-4.67l-4-3.86s-1,4.2,0,5.86,2.67,5.67,2.67,5.67l-3.11,4.67h-2.23l-9,3.33H136.67s-7.5,2.33-8.42,3.33a1.14,1.14,0,0,1-.25.2l0,0-.4.22-.06,0-.51.24-.1,0-.6.26a.47.47,0,0,0-.15.06l-.65.26-.21.08-.65.25-.29.11-.47.17-.58.21-.26.09-.89.31h0c-2.27.79-4.29,1.43-4.29,1.43L113,122l-6.69,2.39-1.94.69h0l-.7.25-2,3L98,131.5a47.92,47.92,0,0,1-5.34,4.37,36.43,36.43,0,0,1-7,3.29L80,142.47l-.48,1,.23.43L88.13,141l6.13-3.25,4.24-4.92,2.75-2.54,2.25-2,.13-.1-.8,2.1-3.45,5-.88,3.08,4.33-2.33a56,56,0,0,0,2.84-5.71c.16-.87,2.5-4,2.5-4l.34-.62,3.57-1.09,6-3.29,3.54-1.17-.58,2.3.83,2.87L117,134.06l.83,9.44,1-6,1.67-5.83s2.33-4.84,2.67-5.34l2.66-4.1,1.41-4,3.22-1.14,5.92-2.88,2.73-.09,3.72,3.22.67,5.34,3.33,10.66-.5-6.66v-6.15l1-4.2v-2.41h3.46l5.84-3.12,1.93-.29v15.83l-2.23,5.5L161,126v-5.42l2-6.25-.83-6.5-.12-.92,1.58-3.46-3.17-4.25.12-3.29,7.5,7.92,2.59,3,3.29-.15,3.37,2.78L181,122.23l8.67,11.83-3.17-7.73s-1.5-12-1.5-13a23.25,23.25,0,0,1,1.5-4.5l-.47-2.74,1.43-.09s1.61-1.5,2.62-2.47l-1.25,2.64,1.84,7.16v-5.5l1.83-.83.67-3.5.22-.76,2.61.05,3.83-6.67,4-.79,5.5,3.54,5.41,1.74,6.26,4.22v8.5l1.67,1.34,3.16-6.84,2.84-4.33v-.83l2.79-.72-1-7.45,2.42-3.38,1.25,3.58,3.12,5.25.7.28-1.12,2L233.67,109l1.5,7,2.5,10.47,5.33,5.33-1-5.5-1.17-7L243,112l3.17-4.17-.6-5.32,1.18.24L248,99.91l2,1V99.13Z"/><path class="cls-12" d="M250,160V124.92l-2-1.34c-2-1.33-2,.34-2,.34l-2,6.53-8-4.37v-3.5l-2-4v9h-3l-4-1.5-2.33-5.5-1.67-4-3,3.67v7.67l-1.67,2.53-4,3.13-3.66,4.67-6-2.33-5.34-5.47a24.9,24.9,0,0,0-3.33,3.13c-.67,1-3,1-3,1h-8.33l-3.34-2.33-2.66-1.8v-6.53l-7.67-8v-4.34l-4.33-5v9.67l-4.34,5v11.17L160,136.25v3.93l-2,3.4-11.67.67-6,1.33.67-2.66-9,2H119.33l-6-.67L108,141.92l-1.33-1.74v-3.26L104,140.18l-2,1.74H97l-4.34-1.74H91l-1.63-3.13H70l-5.3-2.8H60.26l-2.59-3.8L56,128.58v1.87l-1.67,2.13H37l-5.81-2.13-4.52-2.2-1.67-3v-2.33H23l-2.67,3.66h-11l-4.66-3.66L2,119.25H0V160Z"/><path class="cls-13" d="M248,123.58c-2-1.33-2,.34-2,.34l-2,6.53-8-4.37v-3.5l-2-4v9h-3l-4-1.5-2.33-5.5-1.67-4-3,3.67v7.67l-1.67,2.53-4,3.13-3.66,4.67-6-2.33-5.34-5.47a24.9,24.9,0,0,0-3.33,3.13c-.67,1-3,1-3,1h-8.33l-3.34-2.33-2.66-1.8v-6.53l-7.67-8v-4.34l-4.33-5v9.67l-4.34,5v11.17L160,136.25v3.93l-2,3.4-11.67.67-6,1.33.67-2.66-9,2H119.33l-6-.67L108,141.92l-1.33-1.74v-3.26L104,140.18l-2,1.74H97l-4.34-1.74H91l-1.63-3.13H70l-5.3-2.8H60.26l-2.59-3.8L56,128.58v1.87l-1.67,2.13H37l-5.81-2.13-4.52-2.2-1.67-3v-2.33H23l-2.67,3.66h-11l-4.66-3.66L2,119.25H0v.54l.88.29,1.53.59.76,2.58L4,127.58,2.83,133l.92,6.83.42-5.58,1.08-2.92-.58-4.83v-2.62l.58.83,1.58.87,2.5,2H10l.37.59,1,1.66v2.75l-1,2.5,4.17-4.25s.42-1.58,1.17-1.58,4.41-.6,4.41-.6l.2-1.64,1.47-.43,1.44-2.5,1.06-.5v1.82l.56,2.85,2.8,1.58,2.14,3.59v2.91l.67,1.25,3.33-3.91,2.1-.7,3.46.68H50.12l-.74,1.06L51,136.83l.5-1.75L53.67,134l.16-.35h.92l.88-1.07,1.06-1.68,2.06,2.37L59.88,135h.58l.29,1.06.33,1.84v1.25l.75-2.34,1.34-1.75.11-.06h1l1.81.81,2.27,1a7.43,7.43,0,0,0,1.93.87c.49,0,3.68,0,4,0s3.25,0,3.25,0l4.13.55,6.43-.17,1.19,1.09.44,1.08,1.15,1.15.45-.17.68,2a9.35,9.35,0,0,1,1.78,1.83c.33.67,3.83,2.67,3.83,2.67L95.17,144l-1.59-2.39.63.06,2.35.88,4.13.4a21.9,21.9,0,0,0,3.06,0c.56-.15,1.94-1.77,1.94-1.77l2.45,1.78.19,1.4,1.59,1.84v2.08l2-2.33.82-1,1.26.38h2.81s5.79,1.11,5.86,1.22,4.52,0,5,0c.29,0,1.81-.08,3-.16l.69.94,3,1.59-.75-2.17-.61-.67,2.61-.75,2.83-1.11.63,2,1.06.71,4.5-.77,2.19-.63,4.93-.6,3.52-.34,3.35-.36,1.4,1.3.34,2.73.66-3.5-.66-3,1-2.44v-2.66l1.62-4.15v-5l.5-4.52,1.25,1.87-.33,6.55.91,5.25,1.34-1.5v-8.75l1.25-2.42-1.12-6.9.33-.45v-2.88l.31-5.12,1.94,2,.87,1.75v4.25l1.08,1,.34,1.77L174,124v8l.83-4.08.5-3.67.56-1.7,1.67,1.41.32,2.5v4.37l1.41,1,.88,2s1.25,4.34,1.25,4.59,1.66,4.1,1.66,4.1l1.45-7.25.53.31,3.07-.06,4.3-.06.07.54,3.5,2.08,1.58,3.42.5-2.33v-2.5l-1.3-1.93.53-.09,1.5-2.07L200,132l3.5,3.92,1.91,1.27,1.76,3-1.84,4.49,2.92-2.15,2.08-1.94.23-1.6c1.19-.42,2.88-1.06,2.88-1.06l2.25-3.65L219,131.5v3.72l1,2.7.67-3.67.66-3.08-.74-1.82.29-.39a5.69,5.69,0,0,1,0-1.81,30.6,30.6,0,0,0,0-4.07l.08-2.56,2-2.12,2.19,5.25,1.12,4.13h2.36l.39,2.8h1.92s2-.91,2.25-1a3,3,0,0,0,.54-1.12l.71-.13v-6l.91.13.21,2.33V127l2,1,.89,1.07,2.75,3.42-1.25,1.75v5.08l1.41-1.75,2.34-1.33.33-3.25V131l1.21.06.75-3.54,1-3.42,1.58.75,1.5.39v-.34Z"/><path class="cls-14" d="M246,144l-2.33,2-1-.4c-1-.4-3,.73-3.67,0s-3-2.6-3-2.6a14.84,14.84,0,0,1-2-3,3.2,3.2,0,0,0-3-2.67c-2.33-.33,0,2,0,2l-1.67,3.34-2.33-2v-4.8l-2.33,3.46v6.27l-5,3.4v-3.4s-3.67,4.73-3.67,6.73l-5.67.34H204c-1.33,0-8.33-.34-8.33-.34V149l-2-3.4-.58,1.51-1.76,4.56H188L181.67,150,177,145.6l-3,4.07-5.33-1-2-3.07v6.07L163,155.33H147.67l-1.34-2.66v-3l-6,1.33-4.66,4.33H130l-2.33-7-1.34-11L125,141s-2,5.67-2,7.33-2,.34-2,.34l-1.67-3.07v6.73l-5.33,3H100.67L89.32,151H87.41l-6.74-4.33L78.33,146l-7-.33S68,138,68,136.33V138s-.48,1.33-.94,2.68c-.3.89-.59,1.79-.73,2.32-.33,1.33-4.66,2.83-4.66,2.83l-16.34-2.16L42,145.83H33.5l-4.5,1.5v-1.5L26,142v9H19.67l-4-4.67v-5.66L13,144.33l-3.67,3.34v-1.84l-3-3.5v5l-4,2L0,147.25V160H250V145.6C246,144.53,246,144,246,144Z"/><path class="cls-15" d="M246,144l-2.33,2-1-.4c-1-.4-3,.73-3.67,0s-3-2.6-3-2.6a14.84,14.84,0,0,1-2-3,3.2,3.2,0,0,0-3-2.67c-2.33-.33,0,2,0,2l-1.67,3.34-2.33-2v-4.8l-2.33,3.46v6.27l-5,3.4v-3.4s-3.67,4.73-3.67,6.73l-5.67.34H204c-1.33,0-8.33-.34-8.33-.34V149l-2-3.4-.58,1.51-1.76,4.56H188L181.67,150,177,145.6l-3,4.07-5.33-1-2-3.07v6.07L163,155.33H147.67l-1.34-2.66v-3l-6,1.33-4.66,4.33H130l-2.33-7-1.34-11L125,141s-2,5.67-2,7.33-2,.34-2,.34l-1.67-3.07v6.73l-5.33,3H100.67L89.32,151H87.41l-6.74-4.33L78.33,146l-7-.33S68,138,68,136.33V138s-.48,1.33-.94,2.68c-.3.89-.59,1.79-.73,2.32a1.18,1.18,0,0,1-.29.5l-.06.06-.18.18-.12.1-.17.13-.15.11-.19.12-.16.11-.21.12-.17.1-.21.11-.18.1-.24.11-.15.08-.32.15-.19.08-.26.12-.15.06-.2.09-.15.06-.17.07-.14.05-.14,0-.11,0-.12.05-.07,0-.07,0-.09,0-16.34-2.16L42,145.83H33.5l-4.5,1.5v-1.5L26,142v9H19.67l-4-4.67v-5.66L13,144.33l-3.67,3.34v-1.84l-3-3.5v5l-4,2L0,147.25v1.19l.56.09L2.09,150l.76-.19,1.57,1.44.5,3L6,157.08l.83-5.41-.44-3.86.44-.28v-3.2l.89.61,1.12,1v2.31l.49.06v1.24l.67,1.67,1.17-3.32,1.07-2.1,1.1-.89,1.38-2.41.59-.5-.12,2.3.12,2-.25.85,2.5,2.4L19.67,152l.87-.18,1.63,1.46,3.08,3.42.67,1.58v-4.92l0-1.39.28,0,.53-1-.22-5.43-.12-2.06,1.68,2.06.5.94v1.32l.65.11.73,1.48,1.25,3.71s.25,2.91.58,3,1.34-4.83,1.34-4.83v-2.83l.24-1.89,1.59-.28,4.34.09,2.54.19.27-.15.6,2.2,1.33,2.34,1.34,4.16.66-3.83-1.66-3.83.68-2.82.43-.29,2.16.28,4.28.72,3.44.36,2.93.58,2.22.09,1.38-.1.73,1.09,1.08,3.5.42,2.84-.42,2.41,1.92-2.91-.59-4.75.59-1.46,2.66,1-1.83-3-.27-.83.65-.42.31-1.95.94-2.63.87,2.16.69,3,1,2,1,.05.72,1.06.37,1.54-.75,2.3v3l.75-2.42,3.09-2.37,1.66-2.63.14-.14H78l2.59.82,3.88,2.78,2.94,1.59h.16l.35,1.86,1.33,2.08,5,1.92-2.93-3.34-1.58-2-.14-.43,3.45,1.32,4,1.11,2.41,1.42h2.41l3.62.56h7.69l2.35-.49.6.18,2.5,1.17,1.75,1.08-.92-2.92-.09-1.58.87-.31-.62-4.22,1.15.15.53.23.33.9,2.16,3.17L126.5,157l-1.5-3.08V151.5l-1.31-2.08.44-.42.31-4,1-2.13.75-1.59.5,4.28.43,4.09.82,4.35,1.75,1.32.53,1h1.31l.54.36,1.71,1.58,1.36-2.07.89-.06,3.16-2.71,1.72-1.57,2.46-1,2.16-.19-.16,2.44,1.32,2,.68.84,2.18.15,2.65,1h3.25l4.25,1.92.58-1.92,1.16-.7,1.59,0,2.69-2.21,1.15-1.5.66-1.25v-3.25l1.3,1.3.37,2.08,1.5,5.08v-2.91l3-1.75.27-1.62c.27,0,.47,0,.54,0a15.47,15.47,0,0,0,2-2.41l.75-1.27,3.09,2.93,1.36,1.16,1.55.28,1.45,1,2.75,1.67,1.5,4.08h6.28l-2.37-1.17-1.5-2.91v-1.2s1.58-1.78,1.58-1.78l.72-2.35,1.43.33v2.27l-.43,2.93,4.75-.65,4.75.44,5-.19,3.15-.13,4.81-.25.32-2.68,1.22-1.38,2,.71.42.34,2,1.79-.42,4.17,2.67,2v-4.91l.75-3.09-1.12-3.78h0l.4-2.55v-2.94l.88-2.53.56,2.91,1.69,1.43,1.21.57,2.21,4.06-.41,4.62.41,3.55,2.17,1.16v-6.16l-1.17-5.75-1.58-2.77-.1-1,.16-.25.5-1.59-.37-1.06,1.53.47.31,1.28.72,1.4.88,2.32,3.53,2.53,1.22,1.18L240,147l.82,2.62-.83,3.25-.08,3.09,2.83,1.08,5,1.08-3.75-2.5L242.92,153l.08-4,.49-2.22a6.48,6.48,0,0,0,.85,0,10.24,10.24,0,0,0,1.07-.94l.78-1.19,1.56.79a6.5,6.5,0,0,0,1.78.53l.47.09v-.43C246,144.53,246,144,246,144Z"/><g class="cls-16"><circle class="cls-17" cx="125" cy="65.17" r="55.17"/></g><g class="cls-18"><circle class="cls-17" cx="125" cy="65.17" r="65.17"/></g><g class="cls-19"><circle class="cls-17" cx="125" cy="65.17" r="41.92"/></g><g class="cls-20"><circle class="cls-17" cx="125" cy="65.17" r="28.27"/></g><circle class="cls-21" cx="125" cy="65.17" r="17.58" transform="translate(-15.13 49.81) rotate(-21.28)"/><path class="cls-22" d="M140.46,63.34c.64.12,1.29.39,2.07.53A17.37,17.37,0,0,0,141.06,58a8.51,8.51,0,0,1-1.38,1c-1.5.7-1.11.57-2.41-.8s-3.84-1.1-3.65.33-1.63.45-2-.88-2-1.33-3.19-3-3.65-1-4.88-1.82-4,.58-1.3,1.3,2.08,1.49,1.49,2.8-.58,3.19,1.5,4.88-.78.65-1,2.6-4,.46-5.47-1.63-1.63.26-4.62,0-3,.53-3-1.75c0-1.61-1.52-2.31-2.41-2.58a17.56,17.56,0,0,0,9.61,23,15.6,15.6,0,0,1,.81-1.89c.59-1.16,3.06-.15,4-2.36s2.48-1.89,2.87.07,2.66,3.45,3.84,3.26.71-3.79.71-5,2.15-.91,2.35-2.47,1.75-1.3,3-.33-.13,1.57-.19,4.82a5.77,5.77,0,0,0,.11,1.44,17.71,17.71,0,0,0,4.5-5.24,10.07,10.07,0,0,1-.9-1.86c-.71-2.21,1-2.15.71-4.82S139.42,63.14,140.46,63.34Z"/><path class="cls-23" d="M115.41,55.8a1.22,1.22,0,0,0,1.37,0c.88-.44,1.27.15.54,1s-1.18.83-.76,2-1.64,2.24-2.27,1.36-.34-1.12-1.51-1.61-2-2.39,0-1.95S113.7,55.12,115.41,55.8Z"/><path class="cls-23" d="M119.76,57.64s1.95-.49,1.69.85-.52.91.59,1.66,1.66,2.11.35,1.69-.91-.82-2-.29-2-.17-1.5-1S117.8,57.87,119.76,57.64Z"/><path class="cls-23" d="M126.3,50.22c.72-.08.55.85,1.5.85s.87.61,1.27,1.13,0,1.73-.75.95-1.34-1.4-2-1-2.25-.33-2.57-.62-3.09-.75-3.65-.06-2.7,1.1-2.11.13,1.14-2.05,2.8-1.86,2,.83,2.57,0,1.72-.89,1.89-.47S125.06,50.35,126.3,50.22Z"/><path class="cls-23" d="M132.06,51.19s2.41-.68,2.67,1,1.37,2,2.15,2.6-2.67,1-3.39,0-1.56-.65-2.47-.65S130.76,51,132.06,51.19Z"/><path class="cls-17" d="M141.69,59.66a1.46,1.46,0,0,0-.74.88c-.47,1.65-1.08.48-3.91-1.27s-1.76.19-1.56,1.36.88,3.13,0,4.54-1.86-1.61-2.74-2.29-1.85-.88-2.61-3,.17-.49-3.15-1.85-.19,1.56,1.56,2.54,2,1.36,1.08,3.8-2.64.88-2.64,2.93-1.66,2.35-3.81,1.66-3.12-1-4.49.2-1.75,1.27-4-1.56-1.37-2.44-3-1.27-2.34.68-2.73-1.13a4.85,4.85,0,0,0-1.34-2.33,17.87,17.87,0,0,0-.16,2.33,17.58,17.58,0,0,0,7.46,14.38c2.2.17.24-1.6.24-2.66,0-1.22.29-.93,1.56-1s.78-.39,1.37-1.52,1,.2,2.73,0,1.71-.88,2.44-1.41,0,0,2.26,0,1.8.14,1.84,2.29.49,2.39,1.22,2.44-.34-2-.29-3.85.44-1.13.69-2.64,1.85-2,3.27-1.47,1.46.1,2.68-.78,1.32.25,2.39,1,.64.83-.14,3.32.29.68.78,0,.39-2.49.05-4.35.34-1.56.44-3a34.94,34.94,0,0,0-.44-4.11c-.1-1.56,1.61-.14,2.68.46.63.36,1.08.15,1.63-.37A17.33,17.33,0,0,0,141.69,59.66Z"/><path class="cls-24" d="M127.78,47.82a17.58,17.58,0,0,1-8.36,33,18.09,18.09,0,0,1-2.78-.22,17.58,17.58,0,1,0,11.14-32.82Z"/><ellipse class="cls-25" cx="122.21" cy="64.13" rx="13.56" ry="10.76" transform="matrix(0.33, -0.94, 0.94, 0.33, 21.37, 158.36)"/><path class="cls-26" d="M208.48,30.14a4.87,4.87,0,1,1-2.95-6.23A4.88,4.88,0,0,1,208.48,30.14Z"/><path class="cls-25" d="M208.68,29.36a.52.52,0,0,1,0,.21c1.13.68,1.71,1.24,1.61,1.54s-1,.37-2.35.16a28.26,28.26,0,0,1-5-1.33A31.34,31.34,0,0,1,199,28.25c-1.68-.87-2.6-1.66-2.47-2s1.27-.37,3,0a1,1,0,0,1,.1-.18c-1.77-.38-3.14-.41-3.33.14s1,1.44,2.65,2.31a29.27,29.27,0,0,0,3.86,1.65,28.24,28.24,0,0,0,4.89,1.33c1.44.24,2.49.21,2.67-.27S209.87,30.06,208.68,29.36Zm0,0a.52.52,0,0,1,0,.21c1.13.68,1.71,1.24,1.61,1.54s-1,.37-2.35.16a28.26,28.26,0,0,1-5-1.33A31.34,31.34,0,0,1,199,28.25c-1.68-.87-2.6-1.66-2.47-2s1.27-.37,3,0a1,1,0,0,1,.1-.18c-1.77-.38-3.14-.41-3.33.14s1,1.44,2.65,2.31a29.27,29.27,0,0,0,3.86,1.65,28.24,28.24,0,0,0,4.89,1.33c1.44.24,2.49.21,2.67-.27S209.87,30.06,208.68,29.36Zm-.08-2.05a.71.71,0,0,1,.06.25c4.88,2.19,8.19,4.58,7.76,5.79s-4.81,1-10.22-.57c-1.24-.34-2.52-.75-3.83-1.22-1-.36-2-.74-3-1.14-5.58-2.33-9.54-5-9.06-6.37s4.95-.92,10.48.66a1,1,0,0,1,.2-.16c-5.84-1.7-10.36-2-10.87-.56s3.44,4.27,9.38,6.71c.87.36,1.8.71,2.75,1.05q1.88.68,3.63,1.17c5.74,1.66,10.17,1.92,10.68.5S213.77,29.6,208.6,27.31Zm.08,2.05a.52.52,0,0,1,0,.21c1.13.68,1.71,1.24,1.61,1.54s-1,.37-2.35.16a28.26,28.26,0,0,1-5-1.33A31.34,31.34,0,0,1,199,28.25c-1.68-.87-2.6-1.66-2.47-2s1.27-.37,3,0a1,1,0,0,1,.1-.18c-1.77-.38-3.14-.41-3.33.14s1,1.44,2.65,2.31a29.27,29.27,0,0,0,3.86,1.65,28.24,28.24,0,0,0,4.89,1.33c1.44.24,2.49.21,2.67-.27S209.87,30.06,208.68,29.36Z"/><path class="cls-27" d="M202.37,31.56c1.31.47,2.59.88,3.83,1.22a1.15,1.15,0,0,1-.27.14q-1.76-.49-3.63-1.17c-1-.34-1.88-.69-2.75-1.05a2.28,2.28,0,0,1-.13-.28C200.36,30.82,201.35,31.2,202.37,31.56Z"/><path class="cls-28" d="M207.9,31.27l-.13.18a28.24,28.24,0,0,1-4.89-1.33A29.27,29.27,0,0,1,199,28.47a.81.81,0,0,1,0-.22A31.34,31.34,0,0,0,203,29.94,28.26,28.26,0,0,0,207.9,31.27Z"/><path class="cls-29" d="M56.66,58.89a9.59,9.59,0,1,1-11.94-6.42A9.58,9.58,0,0,1,56.66,58.89Z"/><path class="cls-25" d="M56.08,57.42a1.84,1.84,0,0,1,.17.38c2.58-.24,4.16,0,4.34.56s-1.1,1.73-3.54,3A55.1,55.1,0,0,1,47.66,65a60.79,60.79,0,0,1-8.17,1.9c-3.69.58-6.06.41-6.28-.33S34.79,64.52,38,63a2.6,2.6,0,0,1,0-.39c-3.24,1.46-5.44,3-5.11,4.1s3.2,1.17,6.9.57a59.72,59.72,0,0,0,8-1.89,57.54,57.54,0,0,0,9.28-3.59c2.57-1.3,4.19-2.59,3.9-3.55S58.76,57.15,56.08,57.42Zm0,0a1.84,1.84,0,0,1,.17.38c2.58-.24,4.16,0,4.34.56s-1.1,1.73-3.54,3A55.1,55.1,0,0,1,47.66,65a60.79,60.79,0,0,1-8.17,1.9c-3.69.58-6.06.41-6.28-.33S34.79,64.52,38,63a2.6,2.6,0,0,1,0-.39c-3.24,1.46-5.44,3-5.11,4.1s3.2,1.17,6.9.57a59.72,59.72,0,0,0,8-1.89,57.54,57.54,0,0,0,9.28-3.59c2.57-1.3,4.19-2.59,3.9-3.55S58.76,57.15,56.08,57.42Zm-2.53-3.16a1.38,1.38,0,0,1,.38.34c10.28-2.23,18.32-2.31,19.05.12s-6.5,7.12-16.85,11c-2.36.89-4.87,1.75-7.49,2.53-2,.62-4,1.16-6,1.62-11.55,2.82-21,3.15-21.77.5s6.75-7.24,17.37-11.2a1.87,1.87,0,0,1,.12-.48C27.13,62.82,19.63,67.64,20.49,70.5s10.43,2.75,22.67-.31c1.82-.45,3.69-1,5.6-1.54,2.5-.75,4.87-1.55,7.1-2.38,11-4.08,18.35-8.82,17.5-11.66S64.4,51.86,53.55,54.26Zm2.53,3.16a1.84,1.84,0,0,1,.17.38c2.58-.24,4.16,0,4.34.56s-1.1,1.73-3.54,3A55.1,55.1,0,0,1,47.66,65a60.79,60.79,0,0,1-8.17,1.9c-3.69.58-6.06.41-6.28-.33S34.79,64.52,38,63a2.6,2.6,0,0,1,0-.39c-3.24,1.46-5.44,3-5.11,4.1s3.2,1.17,6.9.57a59.72,59.72,0,0,0,8-1.89,57.54,57.54,0,0,0,9.28-3.59c2.57-1.3,4.19-2.59,3.9-3.55S58.76,57.15,56.08,57.42Z"/><path class="cls-30" d="M48.64,68.27c2.62-.78,5.13-1.64,7.49-2.53a3.31,3.31,0,0,1-.27.53c-2.23.83-4.6,1.63-7.1,2.38-1.91.57-3.78,1.09-5.6,1.54a2.94,2.94,0,0,1-.52-.3C44.6,69.43,46.61,68.89,48.64,68.27Z"/><path class="cls-31" d="M57.05,61.35c0,.15,0,.31,0,.45a57.54,57.54,0,0,1-9.28,3.59,59.72,59.72,0,0,1-8,1.89,2.12,2.12,0,0,1-.25-.36A60.79,60.79,0,0,0,47.66,65,55.1,55.1,0,0,0,57.05,61.35Z"/><polygon class="cls-12" points="72.42 94.53 65.59 105.91 66.02 112.88 71.82 120.78 77.06 111.37 76.42 102.54 72.42 94.53"/><polygon class="cls-8" points="77.06 111.37 76.42 102.54 72.42 94.53 71.33 102.43 72.63 108.5 71.82 120.78 77.06 111.37"/><polygon class="cls-32" points="77.06 111.37 75.53 108.12 74.2 104.05 74.2 99.99 73.24 104.4 73.49 108.12 74.54 112.07 74.06 116.76 77.06 111.37"/><polygon class="cls-14" points="66.02 112.88 67.79 110.56 68.45 107.65 69.15 111.14 68.09 113.46 69.15 117.14 66.02 112.88"/><polygon class="cls-33" points="180.26 78.81 190.65 74.54 215.7 76.68 196.61 80.05 180.26 78.81"/><polygon class="cls-12" points="196.61 80.05 180.26 78.81 182.49 87.57 192.19 100.16 197.44 115.98 205.16 95.72 212.97 86.68 215.7 76.68 196.61 80.05"/><polygon class="cls-14" points="192.19 100.16 192.44 94.16 191.53 89.09 192.86 83.56 188.69 86.45 188.19 92.12 188.38 95.21 192.19 100.16"/><polygon class="cls-8" points="212.97 86.68 215.7 76.68 196.61 80.05 198.57 87.44 198.26 94.98 196.51 105.88 197.44 115.98 205.16 95.72 212.97 86.68"/><polygon class="cls-32" points="205.16 95.72 206.41 85.39 208.76 80.59 209.05 85.33 209 91.27 205.16 95.72"/><polygon class="cls-25" points="198.53 75.21 190.65 74.54 180.26 78.81 181.06 78.87 189.11 77.56 195.8 77.88 201.66 76.81 198.53 75.21"/></g></g></g></svg>