<svg xmlns="http://www.w3.org/2000/svg" viewBox="0 0 139.51 164.25"><defs><style>.cls-1{fill:#efb6c2;}.cls-2{fill:#f98a93;}.cls-3{fill:#fccdd5;}.cls-4{fill:#c0621c;}.cls-5{fill:#914929;}.cls-6{fill:#774839;}.cls-7{fill:#e06977;}.cls-8{fill:#916553;}.cls-9{fill:#e5936a;}.cls-10{fill:#8d9ba3;}.cls-11{fill:#c5cdd3;}.cls-12{fill:#6b797f;}</style></defs><g id="圖層_2" data-name="圖層 2"><g id="OBJECTS"><path class="cls-1" d="M28.75,46.19c2,4,2.44,12.31,4.52,16.24,1,1.93,9,12.92,14.87,18.19.78-1.94,4.75.3,3.56-1.42-3.73-5.33-11.37-17.56-11.84-20-1.08-5.48-4.75-18.49-4.75-18.49"/><path class="cls-2" d="M10.75,164.24c-2.61-.23-5.2-1.64-6.34-1.74a39.3,39.3,0,0,1-4.21-.95c-.7-.2.57-4.48,1.69-4.62a2.93,2.93,0,0,0,.58.39,5.72,5.72,0,0,0,3,.61c1.58,1.53,1.52,2,3.48,3.14a12.49,12.49,0,0,1,2.39,1.85C12.08,163.72,12.22,164.37,10.75,164.24Z"/><path class="cls-3" d="M2.52,155a8.16,8.16,0,0,1-.77,2.14c2,2.29,3.71,1.07,3.71,1.07v-.31l.49-2.22Z"/><path class="cls-2" d="M47.88,163.17c-2.55.61-5.46.09-6.57.35A38.44,38.44,0,0,1,37,164c-.73,0-.87-4.43.14-4.91a2.86,2.86,0,0,0,.67.18,5.67,5.67,0,0,0,3-.36c2,.95,2.07,1.37,4.3,1.88a12.56,12.56,0,0,1,2.85,1C49,162.25,49.32,162.82,47.88,163.17Z"/><path class="cls-3" d="M37.16,157a8.51,8.51,0,0,1,0,2.28c2.63,1.53,3.85-.16,3.85-.16l-.11-.29-.23-2.26Z"/><path class="cls-4" d="M14,90.06S8.8,79.19,16.32,70.26c0,0,7.25,2.72,12.92,2.74a28.1,28.1,0,0,0,6.69-.58,144.53,144.53,0,0,1,1.79,21.17Z"/><path class="cls-4" d="M31.15,127.91v0c0,11.11,3.85,22.63,5.2,30.67l.43,0a23.86,23.86,0,0,0,4.59-.6l0-.86c-1-13-.75-31.57-.87-38.3a8.08,8.08,0,0,0-.12-1.28c-.82-4.88-5.85-3.92-7.7.73a17.14,17.14,0,0,0-.76,2.45c-.08.35-.15.71-.22,1.08h0a29.2,29.2,0,0,0-.43,3.65v.13c0,.37,0,.73,0,1.09v.09C31.15,127.14,31.15,127.52,31.15,127.91Z"/><path class="cls-4" d="M23.32,94.73q.06.19.12.42c1.21,4.73,4.49,16,6.79,22.75v0s0,0,0,0c.53,1.56,1,2.89,1.4,3.84h0A2.43,2.43,0,0,0,33,123a4.57,4.57,0,0,0,1,.31c2.6.54,6.34-.65,6.35-5.76a12.22,12.22,0,0,0-.14-1.84c-.6-4.11-2.94-26.9-3.26-29.09s-.92-5.39-2.1-5.73C28.89,79.24,21.28,86.55,23.32,94.73Z"/><path class="cls-4" d="M31.39,119.88l-1.15-1.94s0,0,0,0a29.84,29.84,0,0,1,1,7.5v.13c0,.36,0,.73,0,1.09v.09a5.52,5.52,0,0,0,0,1.14v0c.23.95,1.53-3.83,1.82-4.94,0-.14.06-.23.06-.23l-1.16-2Z"/><path class="cls-5" d="M23.44,95.15c1.21,4.73,4.49,16,6.79,22.75a.1.1,0,0,0,0,0s0,0,0,0a29.84,29.84,0,0,1,1,7.5v.13c0,.37,0,.73,0,1.09v.09c0,.37,0,.75,0,1.14v0c0,11.11,3.85,22.63,5.2,30.67l.43,0s-1.57-10.5-3.33-19.62A36.68,36.68,0,0,1,34,123.3c.19-.72.33-1.12.33-1.12l-1.68-3.91C30.71,113.16,29.91,101,29.91,101c3.33-8.79,3.19-19.6,3.19-19.6l-3.28.67-5.5,7.5Z"/><path class="cls-4" d="M13.25,119.16c3.7-4,9.28-2.55,7.09,3.36-2.35,6.31-9.72,21.17-13.54,33.6l-.26.81a24.72,24.72,0,0,1-4.89-1.25c1.68-8,2.41-19,6.34-28.75A25.4,25.4,0,0,1,13.25,119.16Z"/><path class="cls-4" d="M33.11,81.42c.19-9.18-10.81-2.4-16.08,1-2.22,1.41-2.9,4-3.05,6.42s-1.56,27.2-1.87,31.72c-.7,10.21,7.79,4.12,8.45,1.26C22.22,114.57,33,86.42,33.11,81.42Z"/><path class="cls-4" d="M12.5,114.2s-.06,4.87-3.75,11.1c0,0,6.46-3.5,6.76-4a25.33,25.33,0,0,0,1-5.73C16.35,115.12,12.5,114.2,12.5,114.2Z"/><path class="cls-3" d="M39,10.43s1.73,16.31-10.58,12.86c-.63.08-4.39-.86-4.94-5.8A18.42,18.42,0,0,1,26,7.14c.23-.16,8-.39,8.31-.39S39,10.43,39,10.43Z"/><path class="cls-6" d="M28.66,14.59a3,3,0,0,0,1.41-3.45c-.47-2.59-.15-2.75,1.73-1.65s11.37,6.27,9.72-5.8c-1.1.63-4.55.55-5.25-.94s-8.78-5.57-11.84.39c-2.12.08-4.55,2.51-4.31,7.29s2,11,3.76,11.29,2.75-1.1,2.67-3.37c-.08-1.18-3.53-2.74-1-6.27A2,2,0,0,1,28.66,14.59Z"/><path class="cls-3" d="M26.37,21.94s.32,3.47-.78,4.9C28.2,28.89,33,28.46,33,28.46S31.52,27,33,22,26.37,21.94,26.37,21.94Z"/><path class="cls-2" d="M40.33,48.48s-3.42,2.66-5.9,2.87l1.31-14.87,1.39,3.65Z"/><path class="cls-7" d="M40.33,48.48s-3.42,2.66-5.9,2.87l.94-15,.37.12a30.84,30.84,0,0,1,1.6,10.05c0,.36,0,2,0,2.68S39.21,48.83,40.33,48.48Z"/><path class="cls-2" d="M37.38,77C22.18,80.65,14,73.65,14,73.65s3.1-31.83,5-37.42c1.68-4.89,7.07-10.91,7.07-10.91s5,3.15,6.87,3.15c2.28,5.59,4.68,12.82,3.83,18.06-.57,3.49,0,13.6.21,20C37.07,69.7,37.16,73.59,37.38,77Z"/><path class="cls-7" d="M37.71,72l-.43.18c-4.49-3.47-10.39-8.55-12-10.72-1.91-2.62-2.61-7.08-2.84-9l-.93,0a30.41,30.41,0,0,1,1-14.75l8.27,3,3.09,9.34a23.1,23.1,0,0,1-4.1,1.41c.28,2.81.94,7.43,1.4,8.38.35.75,3.3,3.91,6.12,6.84C37.52,69.75,37.71,72,37.71,72Z"/><path class="cls-3" d="M22.59,47c1.75,3.53,6.39,15.26,7.1,16.61,2.82,5.32,17.08,16.78,17.08,16.78a2.87,2.87,0,0,0,2.37-2.81c-4.08-2.77-11.8-14.75-13.39-16.18-1-.93-5.81-19.49-5.81-19.49"/><path class="cls-2" d="M22.59,37.2a35.7,35.7,0,0,0,0,14.11,32.5,32.5,0,0,0,11.27-1.37l-2-10.39"/><path class="cls-3" d="M47.29,77c1.28.24,2.6.76,4.16,1.18a4.2,4.2,0,0,1,1.57.55,3.45,3.45,0,0,1,1,2.72,4,4,0,0,1-.24,1.75,2.13,2.13,0,0,1-2.43,1.22,1.9,1.9,0,0,1-2.47-.19,1.86,1.86,0,0,1-.69-1.05c-.19-.56-.07-1.12.26-1.28a3.36,3.36,0,0,1-1.93-1.28,4,4,0,0,1-.23-2.36"/><path class="cls-8" d="M75.51,150.34a1.68,1.68,0,0,0,.57-.13,1.48,1.48,0,0,0,.77-2L52.43,82.19a1.5,1.5,0,1,0-2.75,1.2L74.1,149.44A1.51,1.51,0,0,0,75.51,150.34Z"/><circle class="cls-8" cx="126.48" cy="157.23" r="6.88"/><path class="cls-9" d="M122.59,157.71a3.91,3.91,0,1,0,3.41-4.37A3.91,3.91,0,0,0,122.59,157.71Z"/><circle class="cls-8" cx="126.48" cy="157.23" r="1.8" transform="translate(-44 265.18) rotate(-83.53)"/><circle class="cls-8" cx="87.52" cy="157.24" r="6.88"/><path class="cls-9" d="M83.63,157.72A3.91,3.91,0,1,0,87,153.35,3.92,3.92,0,0,0,83.63,157.72Z"/><circle class="cls-8" cx="87.52" cy="157.24" r="1.8" transform="translate(-78.58 226.47) rotate(-83.53)"/><rect class="cls-10" x="81.24" y="104.86" width="47.3" height="41.38" rx="3.63" transform="matrix(-1, 0, 0, -1, 209.9, 251)"/><rect class="cls-11" x="86.64" y="104.86" width="47.3" height="41.38" rx="3.63" transform="translate(220.7 250.99) rotate(179.95)"/><rect class="cls-10" x="89.76" y="107.59" width="36.52" height="35.92" rx="1.62" transform="translate(216.16 250.99) rotate(179.95)"/><path class="cls-11" d="M93.91,130.19a1,1,0,0,0,.87-1v-7.28a1,1,0,0,0-1-1,1,1,0,0,0-1,1v7.28a1,1,0,0,0,1,1Z"/><path class="cls-12" d="M106.16,125.55a2.6,2.6,0,1,0,2.6-2.61A2.6,2.6,0,0,0,106.16,125.55Z"/><path class="cls-11" d="M108.77,133.67a8.13,8.13,0,0,1-8.14-8.12,8.14,8.14,0,1,1,8.14,8.12Zm-6.14-8.12a6.13,6.13,0,0,0,6.13,6.12,6.13,6.13,0,1,0,0-12.25,4.73,4.73,0,0,0-.75,0A6.14,6.14,0,0,0,102.63,125.55Z"/><path class="cls-11" d="M108.88,119.41a1,1,0,0,0,.87-1V115a1,1,0,0,0-1-1,1,1,0,0,0-1,1v3.42a1,1,0,0,0,1,1Z"/><path class="cls-11" d="M103.84,121.5a1,1,0,0,0,.58-.28,1,1,0,0,0,0-1.42L102,117.39a1,1,0,0,0-1.41,1.41l2.42,2.42A1,1,0,0,0,103.84,121.5Z"/><path class="cls-11" d="M101.76,126.54a1,1,0,0,0-.13-2H98.21a1,1,0,1,0,0,2h3.55Z"/><path class="cls-11" d="M101.43,134a1,1,0,0,0,.59-.28l2.41-2.42a1,1,0,0,0-1.42-1.42l-2.41,2.42a1,1,0,0,0,.83,1.7Z"/><path class="cls-11" d="M108.89,137.08a1,1,0,0,0,.88-1v-3.42a1,1,0,0,0-1-1,1,1,0,0,0-1,1v3.42a1,1,0,0,0,1,1Z"/><path class="cls-11" d="M116.35,134a1,1,0,0,0,.58-.29,1,1,0,0,0,0-1.41l-2.42-2.42a1,1,0,1,0-1.41,1.42l2.41,2.41A1,1,0,0,0,116.35,134Z"/><path class="cls-11" d="M119.43,126.53a1,1,0,0,0-.13-2h-3.42a1,1,0,0,0-1,1,1,1,0,0,0,1,1h3.54Z"/><path class="cls-11" d="M113.92,121.49a1,1,0,0,0,.58-.28l2.42-2.42a1,1,0,0,0-1.42-1.41l-2.41,2.41a1,1,0,0,0,0,1.42A1,1,0,0,0,113.92,121.49Z"/><rect class="cls-12" x="125.14" y="115.52" width="1.88" height="4.9" rx="0.48" transform="translate(252.25 235.83) rotate(179.95)"/><rect class="cls-12" x="125.15" y="130.64" width="1.88" height="4.9" rx="0.48" transform="translate(252.3 266.07) rotate(179.95)"/><rect class="cls-8" x="75.05" y="146.23" width="64.45" height="4.14" transform="translate(214.69 296.51) rotate(179.95)"/></g></g></svg>