<svg xmlns="http://www.w3.org/2000/svg" xmlns:xlink="http://www.w3.org/1999/xlink" viewBox="0 0 64.45 161.09"><defs><style>.cls-1{fill:none;}.cls-2{isolation:isolate;}.cls-3{fill:#fccdd5;}.cls-4{fill:#c0621c;}.cls-5{fill:#774839;}.cls-6{fill:#f98a93;}.cls-7{fill:#013651;opacity:0.5;mix-blend-mode:multiply;}.cls-8{fill:#914929;}.cls-9{fill:#efb6c2;}.cls-10{fill:#fd9f00;}.cls-11{clip-path:url(#clip-path);}.cls-12{fill:#e38601;}.cls-13{fill:#ffd454;}.cls-14{fill:#fde571;}.cls-15{fill:#ffb127;}</style><clipPath id="clip-path"><path class="cls-1" d="M15.57,28.21,12,29.51,26.37,68.34l3.54-1.28c9.38-3.46,13.79-15,9.83-25.7S25,24.75,15.57,28.21Z"/></clipPath></defs><g class="cls-2"><g id="圖層_2" data-name="圖層 2"><g id="OBJECTS"><path class="cls-3" d="M33,156.59l4-4.12a2.28,2.28,0,0,0,.64-1.8l-3.21-35.45-.61-10.07,10.24-4.59a73.12,73.12,0,0,1-1.84,13.77s1.6,7.29,1.39,12c-.2,4.47-1.5,18.66-1.71,22.23a3.44,3.44,0,0,0,.1,1c.69,2.67.92,4.17.92,4.17l-3.79.78-.06.63s-1.87,1.49-2,1.63-3.62,1.93-4,2-.93-.79-.93-.79Z"/><path class="cls-4" d="M42.64,151.38s1.36,1.17,1.11,4.09c-.15,1.72-1.47,3-1.57,5.49h-.85a13.4,13.4,0,0,1-.24-2c0-2.57-.37-1.93-.37-1.93s-3.24,3.1-4.13,3.85c-1,.37-2.7.2-4.64.2s-3.25.08-3.71-.63.52-1.47,1.39-1.86a28.6,28.6,0,0,0,3.41-2s-.51.75.21,1C36.37,158.55,41.76,151.64,42.64,151.38Z"/><path class="cls-4" d="M49,155.76a20.69,20.69,0,0,1,2.78-4.33l-.2.51,3.74.88s1.59,3,.46,5.39a6.07,6.07,0,0,1-1.13,1.66A3.79,3.79,0,0,1,52,161h-1c-.8,0-1.13-.58-1.5-1.28A3.75,3.75,0,0,1,49,155.76Z"/><path class="cls-3" d="M46.94,103.55S49,110.87,49,114.21s-.24,7.73,0,11.5,3,17.3,2.23,23-2.68,6.77-1,8.29a3.47,3.47,0,0,0,2,1,4.94,4.94,0,0,0,3-1.24c1.39-1.13-.21-4.93-.24-7.09s2.68-20.73,2.57-27.59-.62-6.75-1.25-11.19c0-4.73.4-11.24.4-11.24"/><path class="cls-5" d="M36.06,5.72s-1.84,12.84,4.53,20.9,3.82-4.31,3.82-4.31L42.85,8.21Z"/><path class="cls-3" d="M33.5,34S29.85,40.56,29,42.19,25,48.7,25,48.7L29.38,50,37.32,38.5Z"/><path class="cls-6" d="M59,84.72c-.62,2-1,8.3-1.32,11.89-.4,5.42.26,4.46,0,10.37,0,0-15.92,2.31-24.63-.63,0,0-1.54-.47-.7-25.31.1-2.88.79-10.83,1.76-13.76,0,0,15.51-2.72,22-.92h0c.23.07.45.14.66.22C56.82,66.58,61.88,75.51,59,84.72Z"/><path class="cls-4" d="M32.12,35.84a3.43,3.43,0,0,0,1,.84,15.61,15.61,0,0,0,2.42,1.21l.48.2C39.42,39.42,40.36,34,40.36,34l-.8-8.83s-1.55.54-3.74,4.15S32.12,35.84,32.12,35.84Z"/><path class="cls-7" d="M33.15,36.68a15.61,15.61,0,0,0,2.42,1.21L37.19,30s-1.06,3.23-2,4A8.54,8.54,0,0,0,33.15,36.68Z"/><path class="cls-4" d="M35,43.38c2.63,4.53.07,18.07-.7,24.05,4.16.82,12.88,2,18.7.75.62-.14,1.16-.27,1.61-.4a6.38,6.38,0,0,0,2.22-1q-.12-.54-.24-1.17c-.72-4-1.27-10.48,1.11-20.1,1.59-6.43,2.41-13.86-.08-17.83a0,0,0,0,1,0,0,6.56,6.56,0,0,0-.88-1.07C54,24,48.32,22.77,42.6,24a9.69,9.69,0,0,0-3,1.26c-2.33,1.37-2,6.16-4.33,9.47C34.26,36.05,32,38.36,35,43.38Z"/><path class="cls-8" d="M53.75,52.53A76.2,76.2,0,0,0,54,44a15.33,15.33,0,0,0-1.26-4.54v0c-2-7-1.17-8.12-1.17-8.12l3.28-.74s-.51-2.84-.85-3.9a7.16,7.16,0,0,1,1.37-.11,2.69,2.69,0,0,1,2.18,1.19v0a0,0,0,0,0,0,0,13.24,13.24,0,0,1,1.58,6.82,45.33,45.33,0,0,1-1.5,11,50,50,0,0,0-1.71,11.91,39.43,39.43,0,0,0,.6,8.19q.12.63.24,1.17a6.29,6.29,0,0,1-2.15.93l-.07,0c-.58-4.12-.81-9.88-.81-9.88a39.59,39.59,0,0,1-6,.5Z"/><path class="cls-3" d="M50.78,19s-.42.25-1.13.59c0,.36,0,.71,0,1,.08,2.08.08,3.43.08,3.43a4.83,4.83,0,0,1-5.91,2.2,2.13,2.13,0,0,1-.37-.22,1.76,1.76,0,0,1-.7-1.69,13.21,13.21,0,0,0,.12-2.9,3.92,3.92,0,0,1-2.89,0,6.66,6.66,0,0,1-1.59-2.36c-2.72-4.81-2.35-15-2.35-15S45.05,0,48,3.72,50.78,19,50.78,19Z"/><path class="cls-9" d="M49.76,24a4.83,4.83,0,0,1-5.91,2.2l0,0c3.26.84,3.1-3.18,2.58-3.94s-2.77-1-2.77-1a7.65,7.65,0,0,0,5.62-4.6C49.32,18.73,49.76,24,49.76,24Z"/><path class="cls-5" d="M36.84,3.65A5.55,5.55,0,0,1,34,4.42,2.74,2.74,0,0,0,35.43,8a8.27,8.27,0,0,0,3.39.84,16.2,16.2,0,0,0,4.71-.53A1.36,1.36,0,0,1,45.2,9.81a5.17,5.17,0,0,0,.29,2.89c1,2.19,2.82-2.19,3.9-.5.82,1.3-.72,4.66-.83,8.76A3.61,3.61,0,0,0,52,24.65a7,7,0,0,1,4,1.43s.89-21.26-6.37-24.8C42.73-2.09,39.7,2.09,36.84,3.65Z"/><path class="cls-10" d="M15.57,28.21,12,29.51,26.37,68.34l3.54-1.28c9.38-3.46,13.79-15,9.83-25.7S25,24.75,15.57,28.21Z"/><g class="cls-11"><rect class="cls-12" x="25.99" y="63.47" width="24.64" height="1.03" transform="translate(-19.78 17.22) rotate(-20.25)"/><rect class="cls-12" x="25.06" y="60.97" width="24.64" height="1.03" transform="translate(-18.97 16.74) rotate(-20.25)"/><rect class="cls-12" x="24.01" y="58.11" width="24.64" height="1.03" transform="translate(-18.05 16.2) rotate(-20.25)"/><rect class="cls-12" x="22.7" y="54.55" width="24.64" height="1.03" transform="translate(-16.9 15.53) rotate(-20.26)"/><rect class="cls-12" x="21.25" y="50.63" width="24.64" height="1.03" transform="translate(-15.63 14.78) rotate(-20.25)"/><rect class="cls-12" x="19.67" y="46.36" width="24.64" height="1.03" transform="translate(-14.25 13.97) rotate(-20.25)"/><rect class="cls-12" x="11.64" y="24.58" width="24.64" height="1.03" transform="translate(-7.2 9.84) rotate(-20.25)"/><rect class="cls-12" x="12.56" y="27.08" width="24.64" height="1.03" transform="translate(-8.01 10.32) rotate(-20.25)"/><rect class="cls-12" x="13.61" y="29.93" width="24.64" height="1.03" transform="translate(-8.94 10.86) rotate(-20.25)"/><rect class="cls-12" x="14.93" y="33.5" width="24.64" height="1.03" transform="translate(-10.09 11.54) rotate(-20.25)"/><rect class="cls-12" x="16.37" y="37.41" width="24.64" height="1.03" transform="translate(-11.36 12.28) rotate(-20.25)"/><rect class="cls-12" x="17.95" y="41.68" width="24.64" height="1.03" transform="translate(-12.74 13.09) rotate(-20.25)"/></g><ellipse class="cls-13" cx="18.45" cy="49.22" rx="18.12" ry="20.7" transform="translate(-15.9 9.43) rotate(-20.25)"/><path class="cls-14" d="M2.35,55.87c-4-10.73.45-22.24,9.83-25.7a16.63,16.63,0,0,1,11.89.22,16.78,16.78,0,0,0-12.79-.6c-9.38,3.47-13.78,15-9.83,25.7A21.83,21.83,0,0,0,13.73,68.42,22,22,0,0,1,2.35,55.87Z"/><path class="cls-14" d="M24.34,64.66c-7,2.58-15.18-2.1-18.26-10.43S6.2,37,13.19,34.44s15.18,2.1,18.25,10.43S31.33,62.08,24.34,64.66Z"/><path class="cls-15" d="M24,64.33C17,66.91,8.85,62.23,5.77,53.9s.12-17.21,7.11-19.79,15.18,2.1,18.25,10.43S31,61.75,24,64.33Z"/><path class="cls-12" d="M25.08,63c-7,2.58-15.18-2.1-18.25-10.43C4.75,47,5.53,41.12,8.4,37.1c-3.71,4-4.94,10.54-2.63,16.8C8.85,62.23,17,66.91,24,64.33A11.86,11.86,0,0,0,29.56,60,11.66,11.66,0,0,1,25.08,63Z"/><path class="cls-12" d="M17.66,40.9a7.14,7.14,0,0,1,1.89-.07,6.68,6.68,0,0,1,1.64.38,4.88,4.88,0,0,1,1.27.72,2.82,2.82,0,0,1,.78.94.45.45,0,0,1,0,.36.44.44,0,0,1-.23.25L20.4,44.6a1.09,1.09,0,0,1-.48.11,1.29,1.29,0,0,1-.45-.09l-.28-.12a2.13,2.13,0,0,0-.49-.13,2.8,2.8,0,0,0-.71,0,3.3,3.3,0,0,0-.92.27,4.57,4.57,0,0,0-.7.35,3.19,3.19,0,0,0-.55.43,1.2,1.2,0,0,0-.31.5.82.82,0,0,0,.05.57.76.76,0,0,0,.4.41,1.92,1.92,0,0,0,.79.1,11,11,0,0,0,1.33-.18l2-.41a11.93,11.93,0,0,1,2.15-.26,4.9,4.9,0,0,1,1.72.26,3.53,3.53,0,0,1,1.33.85,5,5,0,0,1,1,1.5,4,4,0,0,1,.34,1.67,4.16,4.16,0,0,1-.37,1.62,5.34,5.34,0,0,1-1,1.49,8.1,8.1,0,0,1-1.58,1.28l.61,1.42a.56.56,0,0,1,0,.44.54.54,0,0,1-.31.32l-2.6,1.12a.58.58,0,0,1-.45,0,.54.54,0,0,1-.32-.31l-.63-1.47a7.15,7.15,0,0,1-2,.11,6.32,6.32,0,0,1-1.71-.36,4.44,4.44,0,0,1-1.33-.76,3.33,3.33,0,0,1-.84-1.09.49.49,0,0,1,.23-.62l2.61-1.11a1.2,1.2,0,0,1,.46-.12,1.32,1.32,0,0,1,.42.07l.34.16a3.2,3.2,0,0,0,.59.18,2.62,2.62,0,0,0,.81,0,3.31,3.31,0,0,0,1.07-.29,6.32,6.32,0,0,0,1.66-1,.93.93,0,0,0,.36-1.13.68.68,0,0,0-.48-.39,2.72,2.72,0,0,0-.93,0,10.65,10.65,0,0,0-1.46.24l-2.07.41A6,6,0,0,1,14,50.49a4.19,4.19,0,0,1-2.12-2.33,4,4,0,0,1-.32-1.45,4.38,4.38,0,0,1,.24-1.51,5,5,0,0,1,.8-1.44A6.58,6.58,0,0,1,14,42.46L13.34,41a.56.56,0,0,1,0-.44.54.54,0,0,1,.31-.32l2.61-1.12a.56.56,0,0,1,.44,0,.54.54,0,0,1,.32.31Z"/><path class="cls-13" d="M17,40.9a7.14,7.14,0,0,1,1.89-.07,6.6,6.6,0,0,1,1.63.38,4.58,4.58,0,0,1,1.27.72,2.7,2.7,0,0,1,.78.94.45.45,0,0,1,0,.36.38.38,0,0,1-.23.25l-2.6,1.12a1.1,1.1,0,0,1-.49.11,1.38,1.38,0,0,1-.45-.09l-.27-.12a2.29,2.29,0,0,0-.49-.13,2.8,2.8,0,0,0-.71,0,3.21,3.21,0,0,0-.92.27,5.21,5.21,0,0,0-.71.35,3.63,3.63,0,0,0-.55.43,1.18,1.18,0,0,0-.3.5.81.81,0,0,0,0,.57.78.78,0,0,0,.41.41,1.89,1.89,0,0,0,.79.1,10.66,10.66,0,0,0,1.32-.18l2-.41a12,12,0,0,1,2.15-.26,5,5,0,0,1,1.73.26,3.53,3.53,0,0,1,1.33.85,5,5,0,0,1,1,1.5,4,4,0,0,1,.34,1.67,4.35,4.35,0,0,1-.37,1.62,5.38,5.38,0,0,1-1,1.49A8,8,0,0,1,23,54.82l.6,1.42a.57.57,0,0,1-.3.76l-2.61,1.12a.56.56,0,0,1-.44,0,.54.54,0,0,1-.32-.31l-.63-1.47a7.17,7.17,0,0,1-2,.11,6.32,6.32,0,0,1-1.71-.36,4.21,4.21,0,0,1-1.33-.76,3.33,3.33,0,0,1-.84-1.09.47.47,0,0,1,0-.37.41.41,0,0,1,.23-.25l2.6-1.11a1.29,1.29,0,0,1,.47-.12,1.26,1.26,0,0,1,.41.07l.35.16a3,3,0,0,0,.59.18,2.62,2.62,0,0,0,.81,0,3.38,3.38,0,0,0,1.07-.29,6.49,6.49,0,0,0,1.66-1A.94.94,0,0,0,22,50.44a.65.65,0,0,0-.47-.39,2.72,2.72,0,0,0-.93,0,10.52,10.52,0,0,0-1.47.24L17,50.67a6,6,0,0,1-3.62-.18,4.18,4.18,0,0,1-2.11-2.33A3.82,3.82,0,0,1,11,46.71a4.38,4.38,0,0,1,.24-1.51A5,5,0,0,1,12,43.76a6.64,6.64,0,0,1,1.34-1.3L12.7,41a.52.52,0,0,1,0-.44.56.56,0,0,1,.32-.32l2.6-1.12a.58.58,0,0,1,.45,0,.54.54,0,0,1,.32.31Z"/><path class="cls-3" d="M64.44,54.13c0,.51-2.36,2.48-6,3.58-7.06,2.13-12.25,3.4-14.51,3.93h0l-1.25.27-.4-1.58-.56.1-.24-1.1a2.24,2.24,0,0,0,.57.07,1.72,1.72,0,0,0,.89-.22,129.72,129.72,0,0,1,15-7.89.69.69,0,0,0,.39-.88L54.06,39l6.77-2.93.06.21C61.36,38.08,64.67,51.2,64.44,54.13Z"/><path class="cls-4" d="M56.68,26.65c2.36,2.3,4,6.57,5,10.88l-7.24,2.89S48.3,31.08,52.1,27.54C53.62,26.13,55.43,25.43,56.68,26.65Z"/><path class="cls-3" d="M43.17,59a7,7,0,0,1-1,.19,1.11,1.11,0,0,1-.52-.08,6.26,6.26,0,0,0-2.35-1l-.51,1s-1.65,1.09-2.21,1.48c0,0-.6.3-.83.38s-2.4,0-2.91,0-.77.34-.74.66c0,0,0,.16.32.2l.37,0h-.57c-.51,0-.77.34-.75.66,0,0,0,.16.32.2l1,.08c-.4.08-.61.34-.59.62,0,0,0,.16.32.2l1,.09a.55.55,0,0,0-.22.46s0,.16.32.2,4.06.49,4.45.41a20.87,20.87,0,0,0,3.43-2.32,11,11,0,0,1,1.16-.61Z"/><path class="cls-3" d="M2,57a2.85,2.85,0,0,0-.33.45.59.59,0,0,0-.05.23c0,.51.22.67.69.84-.17.07-.57.45,0,.79-.26.12-.18.49-.06.63a1.71,1.71,0,0,0,1,.48c-.26.48.26.62.64.84a1.64,1.64,0,0,0,1.28.15.53.53,0,0,0,.27-.16.42.42,0,0,0,0-.5,1.31,1.31,0,0,0-.42-.31l-.21-.11a1.79,1.79,0,0,0,.44-.16.58.58,0,0,0,.12-.1.26.26,0,0,0,0-.3.56.56,0,0,0-.23-.2,3.32,3.32,0,0,0-.62-.24l-.4-.12a1,1,0,0,0,.35-.07.34.34,0,0,0,.2-.28.45.45,0,0,0-.16-.3,1.66,1.66,0,0,0-1-.44.53.53,0,0,0-.11-.69,1.6,1.6,0,0,0-.7-.32C2.56,57,2.26,57,2,57"/></g></g></g></svg>