<svg xmlns="http://www.w3.org/2000/svg" viewBox="0 0 34.76 34.76"><defs><style>.cls-1{fill:#173042;}</style></defs><g id="圖層_2" data-name="圖層 2"><g id="icons"><path class="cls-1" d="M33.09,0l-4.32.7A17.77,17.77,0,0,0,17.9,6.32l-4.85,5.31-6.6-.39a1,1,0,0,0-.89.45l-3.33,5a1,1,0,0,0,.42,1.47l4.69,2.13,7.17,7.17,2.14,4.7a1,1,0,0,0,1.46.42l5-3.35a1,1,0,0,0,.44-.9l-.44-6.6,5.3-4.83A17.81,17.81,0,0,0,34,6l.7-4.33A1.44,1.44,0,0,0,33.09,0Zm-8,13.86a3,3,0,1,1,0-4.24A3,3,0,0,1,25.12,13.88Z"/><path class="cls-1" d="M12,28.32,6.44,22.78a.39.39,0,0,0-.55,0c-.3.3-.72.7-.86.85A17.79,17.79,0,0,0,0,34.76a17.79,17.79,0,0,0,11.14-5c.15-.14.56-.56.85-.86A.39.39,0,0,0,12,28.32Z"/></g></g></svg>