<svg xmlns="http://www.w3.org/2000/svg" xmlns:xlink="http://www.w3.org/1999/xlink" viewBox="0 0 173.5 173.19"><defs><style>.cls-1,.cls-10,.cls-11,.cls-6,.cls-8,.cls-9{fill:none;}.cls-2{isolation:isolate;}.cls-3{fill:#fcf2eb;}.cls-4{fill:#ffe0c7;}.cls-11,.cls-25,.cls-5{opacity:0.45;}.cls-11,.cls-6{stroke:#e5936a;stroke-linecap:round;stroke-linejoin:round;}.cls-12,.cls-7{fill:#fcccb1;}.cls-10,.cls-8,.cls-9{stroke:#ffb127;}.cls-10,.cls-13,.cls-8,.cls-9{stroke-miterlimit:10;}.cls-8{stroke-dasharray:3;}.cls-10{stroke-dasharray:3.02 3.02;}.cls-12,.cls-19,.cls-21{opacity:0.25;}.cls-12,.cls-19,.cls-20,.cls-21,.cls-25,.cls-47{mix-blend-mode:multiply;}.cls-13{fill:#e1eff4;stroke:#bedef4;stroke-width:4px;}.cls-14{fill:#bedef4;}.cls-15{fill:#ffb127;}.cls-16{fill:#fac61b;}.cls-17{fill:#fd9f00;}.cls-18{fill:#e38601;}.cls-19,.cls-20,.cls-25{fill:#bc8c3f;}.cls-20{opacity:0.2;}.cls-21{fill:#a53c0e;}.cls-22{clip-path:url(#clip-path);}.cls-23{fill:#ffd454;}.cls-24{fill:#fde571;}.cls-26{clip-path:url(#clip-path-2);}.cls-27{clip-path:url(#clip-path-3);}.cls-28{clip-path:url(#clip-path-4);}.cls-29{clip-path:url(#clip-path-5);}.cls-30{clip-path:url(#clip-path-6);}.cls-31{clip-path:url(#clip-path-7);}.cls-32{clip-path:url(#clip-path-8);}.cls-33{clip-path:url(#clip-path-9);}.cls-34{clip-path:url(#clip-path-10);}.cls-35{clip-path:url(#clip-path-11);}.cls-36{clip-path:url(#clip-path-12);}.cls-37{clip-path:url(#clip-path-13);}.cls-38{clip-path:url(#clip-path-14);}.cls-39{clip-path:url(#clip-path-15);}.cls-40{clip-path:url(#clip-path-16);}.cls-41{clip-path:url(#clip-path-17);}.cls-42{clip-path:url(#clip-path-18);}.cls-43{clip-path:url(#clip-path-19);}.cls-44{clip-path:url(#clip-path-20);}.cls-45{clip-path:url(#clip-path-21);}.cls-46{clip-path:url(#clip-path-22);}.cls-47{fill:#b5905c;opacity:0.5;}.cls-48{clip-path:url(#clip-path-23);}.cls-49{clip-path:url(#clip-path-24);}.cls-50{fill:url(#linear-gradient);}.cls-51{fill:url(#linear-gradient-2);}.cls-52{clip-path:url(#clip-path-25);}.cls-53{fill:#ce680d;}.cls-54{clip-path:url(#clip-path-26);}.cls-55{clip-path:url(#clip-path-27);}.cls-56{fill:#916553;}.cls-57{fill:#efb59c;}.cls-58{fill:#fccdd5;}.cls-59{fill:#774839;}.cls-60{fill:#f98a93;}.cls-61{fill:#ce6a7b;}.cls-62{fill:#c1621b;}.cls-63{fill:#fccdb1;}</style><clipPath id="clip-path"><path class="cls-1" d="M77.72,79.34l-.53-1.61L62.57,82.61l.52,1.61c.75,2.43,4.63,3.31,8.67,2S78.47,81.77,77.72,79.34Z"/></clipPath><clipPath id="clip-path-2"><path class="cls-1" d="M80.55,87.06l-.89,1.45,13.18,8,.89-1.44c1.37-2.14-.47-5.66-4.12-7.87S81.91,84.92,80.55,87.06Z"/></clipPath><clipPath id="clip-path-3"><rect class="cls-1" x="97.41" y="99.32" width="16.3" height="2.73" transform="translate(-34.94 61.45) rotate(-28.04)"/></clipPath><clipPath id="clip-path-4"><path class="cls-1" d="M106.39,74.88l.55-1.6-14.6-5-.56,1.6c-.87,2.39,1.7,5.43,5.73,6.8S105.52,77.27,106.39,74.88Z"/></clipPath><clipPath id="clip-path-5"><rect class="cls-1" x="75.54" y="64.64" width="11.92" height="1.99" transform="translate(-22.33 52.59) rotate(-31.69)"/></clipPath><clipPath id="clip-path-6"><rect class="cls-1" x="56.77" y="88.17" width="16.3" height="2.73" transform="translate(46.65 -19.54) rotate(26.43)"/></clipPath><clipPath id="clip-path-7"><path class="cls-1" d="M92.41,142.32v2.2c0,.77,3.64,1.39,8.14,1.39s8.13-.62,8.13-1.39v-2.2Z"/></clipPath><clipPath id="clip-path-8"><path class="cls-1" d="M92,137.11v2.21c0,.76,3.64,1.38,8.13,1.38s8.13-.62,8.13-1.38v-2.21Z"/></clipPath><clipPath id="clip-path-9"><path class="cls-1" d="M93.31,134.61v2.2c0,.77,3.64,1.39,8.13,1.39s8.13-.62,8.13-1.39v-2.2Z"/></clipPath><clipPath id="clip-path-10"><path class="cls-1" d="M90.63,124.89v2.2c0,.77,3.64,1.39,8.13,1.39s8.13-.62,8.13-1.39v-2.2Z"/></clipPath><clipPath id="clip-path-11"><path class="cls-1" d="M92,122.38v2.21c0,.76,3.64,1.38,8.13,1.38s8.13-.62,8.13-1.38v-2.21Z"/></clipPath><clipPath id="clip-path-12"><path class="cls-1" d="M68.67,143.73v2.2c0,.76,3.64,1.38,8.13,1.38s8.13-.62,8.13-1.38v-2.2Z"/></clipPath><clipPath id="clip-path-13"><path class="cls-1" d="M67.49,141.23v2.21c0,.76,3.64,1.38,8.13,1.38s8.13-.62,8.13-1.38v-2.21Z"/></clipPath><clipPath id="clip-path-14"><path class="cls-1" d="M68.81,138.73v2.2c0,.77,3.64,1.39,8.13,1.39s8.13-.62,8.13-1.39v-2.2Z"/></clipPath><clipPath id="clip-path-15"><path class="cls-1" d="M69.39,136.19v2.2c0,.77,3.64,1.39,8.13,1.39s8.13-.62,8.13-1.39v-2.2Z"/></clipPath><clipPath id="clip-path-16"><path class="cls-1" d="M67.45,133.68v2.21c0,.76,3.64,1.38,8.13,1.38s8.13-.62,8.13-1.38v-2.21Z"/></clipPath><clipPath id="clip-path-17"><path class="cls-1" d="M69,131.17v2.21c0,.76,3.64,1.38,8.14,1.38s8.13-.62,8.13-1.38v-2.21Z"/></clipPath><clipPath id="clip-path-18"><path class="cls-1" d="M67.61,128.67v2.2c0,.77,3.64,1.39,8.13,1.39s8.13-.62,8.13-1.39v-2.2Z"/></clipPath><clipPath id="clip-path-19"><path class="cls-1" d="M71.29,126.44v2.21c0,.76,3.64,1.38,8.13,1.38s8.13-.62,8.13-1.38v-2.21Z"/></clipPath><clipPath id="clip-path-20"><path class="cls-1" d="M70.11,124v2.21c0,.76,3.64,1.38,8.13,1.38s8.13-.62,8.13-1.38V124Z"/></clipPath><clipPath id="clip-path-21"><path class="cls-1" d="M71.43,121.45v2.2c0,.77,3.64,1.39,8.13,1.39s8.13-.62,8.13-1.39v-2.2Z"/></clipPath><clipPath id="clip-path-22"><path class="cls-1" d="M72,118.91v2.2c0,.77,3.65,1.39,8.14,1.39s8.13-.62,8.13-1.39v-2.2Z"/></clipPath><clipPath id="clip-path-23"><path class="cls-1" d="M79.91,132.8l1.58-.36,4,17.31-1.58.38c-4.18,1-8.47-2.14-9.57-6.92S75.72,133.76,79.91,132.8Z"/></clipPath><clipPath id="clip-path-24"><path class="cls-1" d="M84.12,99.06,83.07,97.8,69.24,109.42l1,1.27c2.81,3.34,8.19,3.45,12,.24S86.93,102.41,84.12,99.06Z"/></clipPath><linearGradient id="linear-gradient" x1="67.67" y1="66.37" x2="67.67" y2="149.59" gradientUnits="userSpaceOnUse"><stop offset="0" stop-color="#fff" stop-opacity="0.4"/><stop offset="1" stop-color="#fff" stop-opacity="0.2"/></linearGradient><linearGradient id="linear-gradient-2" x1="107.11" y1="66.43" x2="107.11" y2="145.52" xlink:href="#linear-gradient"/><clipPath id="clip-path-25"><path class="cls-1" d="M64.92,46.34v6.3c0,2.19,10.41,4,23.25,4s23.24-1.77,23.24-4v-6.3Z"/></clipPath><clipPath id="clip-path-26"><rect class="cls-1" x="75.73" y="27.56" width="24.95" height="19.18"/></clipPath><clipPath id="clip-path-27"><path class="cls-1" d="M89.32,29.87l-1.75,0L87.94,48l1.75,0c4.64-.13,8.33-4.27,8.23-9.27S94,29.74,89.32,29.87Z"/></clipPath></defs><g class="cls-2"><g id="圖層_2" data-name="圖層 2"><g id="OBJECTS"><ellipse class="cls-3" cx="148.66" cy="164.96" rx="15.15" ry="3.64"/><path class="cls-4" d="M125.14,136.65c2.1,2.3,4,4.79,6.57,6.62a7.31,7.31,0,0,0,2.49,1.29,3.62,3.62,0,0,0,2.74-.28c.82-.49,1.42-1.4,2.37-1.58a5.19,5.19,0,0,1,1.86.25,5.2,5.2,0,0,0,4.23-1.06c1.24-1,1.94-2.57,3-3.75a7.07,7.07,0,0,1,3.34-2c-1-2.25-3.09-3.8-4.45-5.86-1-1.57-1.61-3.42-2.71-5a8.84,8.84,0,0,0-9.11-3.33,4.9,4.9,0,0,0-3-3.41,6.37,6.37,0,0,0-4.92.24c-10.9,5.41-14,14.28-14,14.28S124.34,135.77,125.14,136.65Z"/><g class="cls-5"><path class="cls-6" d="M122.67,130.56c2.65-1.44,5.78-1.62,8.79-1.59a35.1,35.1,0,0,1,8.73,1,17.23,17.23,0,0,1,7.63,4.2"/><path class="cls-6" d="M142.05,125.24a24.18,24.18,0,0,0-7.59,3.85"/><path class="cls-6" d="M135.54,129.18a21,21,0,0,1,7.12,9.33"/><path class="cls-6" d="M132.18,122.5c0,4-4.92,6.22-6.29,6.9"/><path class="cls-6" d="M129.44,129a12.72,12.72,0,0,1,5.55,8.37"/><path class="cls-6" d="M145.75,130.45a4.41,4.41,0,0,0-3.27.32"/><path class="cls-6" d="M143.49,131.21a7.08,7.08,0,0,1,2.22,4.37"/></g><ellipse class="cls-3" cx="52.39" cy="169.54" rx="33.33" ry="3.64"/><path class="cls-3" d="M166.61,85.73c-3.49-4.2-7.55-8.13-9.92-12-7.06-11.46-5.12-26.09-7.72-39.3C146.76,23.23,140.74,12.38,131,6.35,123.24,1.52,113.79.12,104.63,0,93.79-.13,82.25,1.7,74.14,8.89,67.38,14.9,63.79,24,56.67,29.56c-9.09,7.11-21.35,7-31.92,10.45-9.12,3-22,10.8-22.7,21.5l0,.33C1.8,67.36,5.15,72.49,9.36,76.08s9.27,6,14,8.9c4.52,2.8,9.24,7.39,8,12.56-.95,3.91-4.89,6.16-7.94,8.78a25.53,25.53,0,0,0-6.18,29.49,25.53,25.53,0,0,0,26.85,13.68c4-.73,8.78-2.21,11.58.72-6.74.41-6.75,5.66-3.14,7.14a34.38,34.38,0,0,0,7.26,1.32c11.84.72,23.71,1.07,35.57.87,11.62-.19,23.67-.3,35-3.18,3.79-1,12.34-3.12,11.73-8.47-.46-4.14-12.07-7.18-16-8.57s-8.49-4.29-7.79-8.4a8.32,8.32,0,0,1,2.75-4.34c6.52-6.36,15.41-10,24.44-11.15,5-.64,10-.6,14.89-1.83s9.64-4.06,11.61-8.66C175,97.7,171.36,91.46,166.61,85.73Z"/><path class="cls-7" d="M108.85,131.4a40,40,0,0,1,8.5-16,51.6,51.6,0,0,1,10.85-10.28c3.63-2.39,5.32.88,8.8,1.33,2.23.29,4.24-1.4,5.51-3.25s2.1-3.87,3.72-5.36A5.24,5.24,0,0,1,151,96.36c2,.63,2.32,3.28,4.8,3a6.1,6.1,0,0,0,3.08-1.52,47.25,47.25,0,0,1,6.63-4.69c2.16-1.22,5.11-2.14,6.92-.43s1.11,4.53,0,6.61c-2.76,5-7.75,8.53-13.11,10.54a16.51,16.51,0,0,0-4.24,2,4.29,4.29,0,0,0-1.9,4c.16.83.65,1.56.85,2.38.55,2.26-1.3,4.48-3.4,5.5-5.4,2.62-10.27-1.54-15.81-1.07-6.29.53-15.43,3.63-18.48,9.73"/><path class="cls-6" d="M118.3,126.59a40.85,40.85,0,0,1,19.49-15.2c4.93-1.83,10.16-2.7,15.16-4.34s10-4.23,12.86-8.49"/><path class="cls-4" d="M144.32,107.37c3.6-.27,7.7-1.07,8.57-4.9.28-1.26,0-2.69.65-3.77a6.78,6.78,0,0,1,2-1.59A7,7,0,0,0,158.37,92c.15-2.16-.72-4.27-.86-6.43a9.64,9.64,0,0,1,1.13-5.13c-3.12-1.12-6.58-.48-9.84-1.06-2.5-.44-4.83-1.59-7.34-1.92a11.93,11.93,0,0,0-11.68,5.84,6.55,6.55,0,0,0-6.1-.22,8.55,8.55,0,0,0-4.31,5c-2.74,9-1.65,17.69.86,26.54-.55-1.92,5.15-4.34,6.25-4.81,4.8-2,10-2,15.14-2.32C142.44,107.47,143.36,107.44,144.32,107.37Z"/><g class="cls-5"><path class="cls-6" d="M126.31,103.75c1-3.92,3.75-7.15,6.56-10.06a46.94,46.94,0,0,1,9.07-7.58,23.06,23.06,0,0,1,11.15-3.58"/><path class="cls-6" d="M139,79.89a32.68,32.68,0,0,0-3.24,11"/><path class="cls-6" d="M136.84,89.89a28.21,28.21,0,0,1,15.7,1.67"/><path class="cls-6" d="M127.21,87c3.89,3.69,1.53,10.56.93,12.54"/><path class="cls-6" d="M131,95.69c4.5-1.22,11.36-1.51,14.77.85"/><path class="cls-6" d="M126.47,103.42c4.13-2.14,13-2.93,16.4-.57"/><path class="cls-6" d="M147.51,81.08a5.93,5.93,0,0,0-2.7,3.5"/><path class="cls-6" d="M146.17,84a9.46,9.46,0,0,1,6.31,1.86"/></g><path class="cls-8" d="M97.23,46.52A194.8,194.8,0,0,0,117.59,46c4.73-.47,13.74.81,15.26-5,.92-3.53-1-5.6-2.92-6.93-1.67-1.12-6.19-3.16-5.82-5.72.28-1.92,2.87-2.28,4.8-2.14"/><path class="cls-9" d="M77.85,45.1c-.45.21-.91.41-1.38.59"/><path class="cls-10" d="M73.58,46.57A39.31,39.31,0,0,1,61.13,47c-5.67-.53-11.34-1.59-17-1.21s-11.62,2.52-14.56,6.9c-1,1.47-1.59,3.3-.9,4.9.9,2.07,3.53,3,5.74,4,3.43,1.53,6.74,4.48,6.17,7.87s-4.29,5.16-7.06,7.35c-2.4,1.89-4.35,4.53-4.29,7.39.08,4.08,4.14,7.26,8.39,8.7a25.35,25.35,0,0,0,22.84-3.7"/><path class="cls-9" d="M61.6,88.22c.37-.34.73-.69,1.07-1"/><path class="cls-4" d="M68.72,115c-3.79-10.37-13.49-20-23-25.57-2.33-1.35-5.73-2.36-6.8.85-.69,2.07-3.1,1.53-4.47.57-1.71-1.18-2.7-3.1-4.15-4.55A8.08,8.08,0,0,0,26,83.93a5.48,5.48,0,0,0-4.59,1.3c-.9.86-1.45,2.08-2.45,2.82-1.68,1.26-4.12.79-5.9-.31S9.85,85,8.12,83.85,4.05,82,2.21,83C-.23,84.29-.45,87.82.58,90.39a17.41,17.41,0,0,0,2.87,5.14A13,13,0,0,0,10.08,99c1.77.35,3.6.34,5.36.75.63.15,1.36.42,1.48,1.15.19,1.05-1.12,1.7-1.88,2.08-1.32.67-2.62,2.11-2,3.46a3,3,0,0,0,2.29,1.37c2.74.46,5.46-.33,8.05-1.13,1.58-.49,3-1.47,4.59-1.89.85-.22,3-.32,2.77,1.11A1.94,1.94,0,0,1,30,107a8,8,0,0,0-1,.9c-1.24,1.51,0,3.3,1.63,3.69a8.48,8.48,0,0,0,3.83-.31c8.23-1.93,16.86-2.67,25.14-1,1.77.35,3.7,1,4.58,2.53"/><path class="cls-11" d="M59.84,108.41A40.84,40.84,0,0,0,37.39,98.06c-5.22-.65-10.51-.3-15.74-.76S11,95.46,7.18,92"/><path class="cls-12" d="M61.72,109.22S47.33,99.64,43.27,89.93a15.74,15.74,0,0,1,6.44,3.2c2.08,2.94,7,7.45,10.39,10.38C60.58,105.11,61.12,107,61.72,109.22Z"/><path class="cls-7" d="M61.18,105.93c-.54-3.38-2-6.74-2.62-10.18a47,47,0,0,1-.06-16.52c.87-4.67,2.31-9.56.73-14.28-.42-1.25-1.19-2.61-2.82-2.6a2.7,2.7,0,0,0-1.74.7c-1.19,1-1.41,2.56-1.6,4l-.64,4.83a1.61,1.61,0,0,1-3.08.23l0,0a10.55,10.55,0,0,1-.21-4,37.94,37.94,0,0,0,.15-8.65c-.53-3.47-2.44-7-6.14-8.29A6.84,6.84,0,0,0,39,51c-3.72,1.06-4.47,4.56-3.72,7.49a24.36,24.36,0,0,0,2.75,5.82c2.6,4.59,1.19,9,1.85,14.08C41.29,89.3,51.93,99.81,61.18,105.93Z"/><path class="cls-6" d="M40.85,57.33c7.78,9.41,5,31.62,18.52,43.62"/><path class="cls-6" d="M56,68.38c.89,4.75-2.17,10.09-2.88,13.05s-1.09,8-.32,11"/><path class="cls-13" d="M113.28,58.41h0a4.36,4.36,0,0,1-4.36-4.36V49.88H67.41v4.17a4.36,4.36,0,0,1-4.36,4.36h0A12.12,12.12,0,0,0,50.93,70.53v67.3a13.6,13.6,0,0,0,11.6,13.43,174.69,174.69,0,0,0,25.64,1.61,174.8,174.8,0,0,0,25.64-1.61,13.59,13.59,0,0,0,11.59-13.43V70.53A12.12,12.12,0,0,0,113.28,58.41Z"/><ellipse class="cls-14" cx="88.17" cy="146.85" rx="28.83" ry="3.83"/><path class="cls-15" d="M59.26,142.44v2.21c0,.76,3.64,1.38,8.13,1.38s8.13-.62,8.13-1.38v-2.21Z"/><path class="cls-16" d="M75.52,142.4c0,.77-3.64,1.39-8.13,1.39s-8.13-.62-8.13-1.39S62.9,141,67.39,141,75.52,141.64,75.52,142.4Z"/><ellipse class="cls-17" cx="67.39" cy="142.26" rx="6.46" ry="0.64"/><path class="cls-18" d="M61.2,142.44a29.25,29.25,0,0,1,6.19-.45,29.13,29.13,0,0,1,6.18.45c.18-.05.28-.12.28-.18,0-.36-2.89-.64-6.46-.64s-6.47.28-6.47.64C60.92,142.32,61,142.39,61.2,142.44Z"/><path class="cls-15" d="M58.88,139.81V142c0,.76,3.64,1.38,8.13,1.38s8.13-.62,8.13-1.38v-2.21Z"/><ellipse class="cls-16" cx="67.01" cy="139.77" rx="8.13" ry="1.38"/><path class="cls-17" d="M73.47,139.62c0,.36-2.89.65-6.46.65s-6.47-.29-6.47-.65S63.44,139,67,139,73.47,139.27,73.47,139.62Z"/><path class="cls-18" d="M60.82,139.81a29,29,0,0,1,6.19-.46,28.91,28.91,0,0,1,6.18.46c.18-.06.28-.12.28-.19,0-.35-2.89-.64-6.46-.64s-6.47.29-6.47.64C60.54,139.69,60.64,139.75,60.82,139.81Z"/><path class="cls-15" d="M59.26,137.13v2.2c0,.77,3.64,1.39,8.13,1.39s8.13-.62,8.13-1.39v-2.2Z"/><path class="cls-16" d="M75.52,137.09c0,.76-3.64,1.38-8.13,1.38s-8.13-.62-8.13-1.38,3.64-1.39,8.13-1.39S75.52,136.32,75.52,137.09Z"/><path class="cls-17" d="M73.85,136.94c0,.36-2.89.65-6.46.65s-6.47-.29-6.47-.65,2.9-.64,6.47-.64S73.85,136.59,73.85,136.94Z"/><path class="cls-18" d="M61.2,137.13a29,29,0,0,1,6.19-.46,28.91,28.91,0,0,1,6.18.46c.18-.06.28-.12.28-.19,0-.35-2.89-.64-6.46-.64s-6.47.29-6.47.64C60.92,137,61,137.07,61.2,137.13Z"/><path class="cls-15" d="M58.88,134.81V137c0,.76,3.64,1.38,8.13,1.38s8.13-.62,8.13-1.38v-2.21Z"/><path class="cls-16" d="M75.14,134.77c0,.77-3.64,1.38-8.13,1.38s-8.13-.61-8.13-1.38,3.64-1.38,8.13-1.38S75.14,134,75.14,134.77Z"/><path class="cls-17" d="M73.47,134.63c0,.35-2.89.64-6.46.64s-6.47-.29-6.47-.64S63.44,134,67,134,73.47,134.27,73.47,134.63Z"/><path class="cls-18" d="M60.82,134.81a29.25,29.25,0,0,1,6.19-.45,29.13,29.13,0,0,1,6.18.45c.18-.06.28-.12.28-.18,0-.36-2.89-.65-6.46-.65s-6.47.29-6.47.65C60.54,134.69,60.64,134.75,60.82,134.81Z"/><path class="cls-15" d="M59.15,132v2.21c0,.76,3.64,1.38,8.13,1.38s8.13-.62,8.13-1.38V132Z"/><path class="cls-16" d="M75.41,132c0,.77-3.64,1.39-8.13,1.39s-8.13-.62-8.13-1.39,3.64-1.38,8.13-1.38S75.41,131.24,75.41,132Z"/><path class="cls-17" d="M73.74,131.86c0,.35-2.89.64-6.46.64s-6.46-.29-6.46-.64,2.89-.65,6.46-.65S73.74,131.5,73.74,131.86Z"/><path class="cls-18" d="M61.09,132a29.25,29.25,0,0,1,6.19-.45,29.06,29.06,0,0,1,6.18.45c.18-.06.28-.12.28-.18,0-.36-2.89-.65-6.46-.65s-6.46.29-6.46.65Q60.82,132,61.09,132Z"/><path class="cls-15" d="M59.67,129.35v2.21c0,.76,3.64,1.38,8.13,1.38s8.13-.62,8.13-1.38v-2.21Z"/><path class="cls-16" d="M75.93,129.31c0,.76-3.64,1.38-8.13,1.38s-8.13-.62-8.13-1.38,3.64-1.38,8.13-1.38S75.93,128.55,75.93,129.31Z"/><path class="cls-17" d="M74.26,129.16c0,.36-2.89.65-6.46.65s-6.46-.29-6.46-.65,2.89-.64,6.46-.64S74.26,128.81,74.26,129.16Z"/><path class="cls-18" d="M61.62,129.35a29.06,29.06,0,0,1,6.18-.45,29.25,29.25,0,0,1,6.19.45c.18-.06.27-.12.27-.19,0-.35-2.89-.64-6.46-.64s-6.46.29-6.46.64C61.34,129.23,61.43,129.29,61.62,129.35Z"/><path class="cls-15" d="M58.65,126.86l0,2.21c0,.76,3.66,1.35,8.15,1.31s8.12-.7,8.11-1.46l0-2.21Z"/><path class="cls-16" d="M74.91,126.67c0,.76-3.62,1.42-8.11,1.46s-8.14-.54-8.15-1.31,3.63-1.42,8.12-1.46S74.91,125.91,74.91,126.67Z"/><path class="cls-17" d="M73.25,126.54c0,.36-2.89.67-6.46.7s-6.47-.22-6.47-.58,2.89-.67,6.46-.7S73.24,126.19,73.25,126.54Z"/><path class="cls-18" d="M60.6,126.85a28.2,28.2,0,0,1,6.18-.52,28.32,28.32,0,0,1,6.19.4c.18-.06.28-.12.28-.19,0-.35-2.9-.61-6.47-.58s-6.46.35-6.46.7C60.32,126.73,60.42,126.79,60.6,126.85Z"/><path class="cls-15" d="M59.66,124.42l0,2.21c0,.76,3.65,1.35,8.14,1.31s8.13-.7,8.12-1.47l0-2.2Z"/><path class="cls-16" d="M75.92,124.23c0,.76-3.63,1.42-8.12,1.46s-8.13-.54-8.14-1.31,3.63-1.42,8.12-1.46S75.91,123.46,75.92,124.23Z"/><path class="cls-17" d="M74.25,124.1c0,.35-2.89.67-6.46.7s-6.46-.23-6.46-.58,2.88-.67,6.45-.7S74.25,123.74,74.25,124.1Z"/><path class="cls-18" d="M61.61,124.4a29.1,29.1,0,0,1,6.18-.51,28.38,28.38,0,0,1,6.19.4c.18-.06.27-.13.27-.19,0-.36-2.9-.62-6.47-.58s-6.46.34-6.45.7C61.33,124.28,61.42,124.35,61.61,124.4Z"/><path class="cls-15" d="M59.66,121.73l0,2.21c0,.76,3.65,1.35,8.14,1.3s8.13-.69,8.12-1.46l0-2.2Z"/><path class="cls-16" d="M75.92,121.54c0,.76-3.63,1.41-8.12,1.46s-8.13-.55-8.14-1.31,3.63-1.42,8.12-1.46S75.91,120.77,75.92,121.54Z"/><path class="cls-17" d="M74.25,121.41c0,.35-2.89.67-6.46.7s-6.46-.23-6.46-.58,2.88-.67,6.45-.71S74.25,121.05,74.25,121.41Z"/><path class="cls-18" d="M61.61,121.71a29.1,29.1,0,0,1,6.18-.51,28.38,28.38,0,0,1,6.19.4c.18-.06.27-.13.27-.19,0-.36-2.9-.62-6.47-.59s-6.46.35-6.45.71C61.33,121.59,61.42,121.65,61.61,121.71Z"/><path class="cls-19" d="M75.94,126.47l0-2.2h0v0a.34.34,0,0,0-.1-.21.39.39,0,0,0,.12-.24l0-2.2h0s0,0,0,0c0-.77-3.65-1.35-8.14-1.31s-8.13.69-8.12,1.46c0,0,0,0,0,0h0l0,2.21a.3.3,0,0,0,.1.2.39.39,0,0,0-.12.24s0,0,0,0h0l0,1.72c-.66.21-1,.44-1,.68a.05.05,0,0,0,0,0h0l0,2.21c0,.24.37.46,1,.65v1.8c-.33.15-.52.31-.52.48s0,0,0,0h0v2.21a.25.25,0,0,0,0,.14c-.2.12-.31.25-.31.38v0h0V137c0,.14.13.28.38.42v1.91c-.25.13-.38.27-.38.42v0h0V142c0,.14.14.29.39.42h0v2.21c0,.76,3.64,1.38,8.13,1.38s8.13-.62,8.13-1.38v-2.21h0s0,0,0,0-.14-.28-.38-.42v-2.17h0v0h0c.25-.14.39-.28.39-.43v-2.2h0v0c0-.15-.14-.29-.38-.42v-1.86h0v0a.24.24,0,0,0,0-.14c.21-.12.32-.25.32-.38V132h0c.34-.15.53-.31.53-.48v-2.21h0v0c0-.24-.36-.47-1-.66v-1.49C75.57,127,75.94,126.72,75.94,126.47Z"/><path class="cls-15" d="M103.64,141.62v2.21c0,.76,3.64,1.38,8.13,1.38s8.13-.62,8.13-1.38v-2.21Z"/><path class="cls-16" d="M119.9,141.58c0,.76-3.64,1.38-8.13,1.38s-8.13-.62-8.13-1.38,3.64-1.38,8.13-1.38S119.9,140.82,119.9,141.58Z"/><ellipse class="cls-17" cx="111.77" cy="141.43" rx="6.46" ry="0.64"/><path class="cls-18" d="M105.58,141.62a29.25,29.25,0,0,1,6.19-.45,29.13,29.13,0,0,1,6.18.45c.18-.06.28-.12.28-.19,0-.35-2.89-.64-6.46-.64s-6.47.29-6.47.64C105.3,141.5,105.4,141.56,105.58,141.62Z"/><path class="cls-15" d="M103.25,139v2.2c0,.77,3.64,1.39,8.13,1.39s8.13-.62,8.13-1.39V139Z"/><ellipse class="cls-16" cx="111.38" cy="138.95" rx="8.13" ry="1.38"/><path class="cls-17" d="M117.85,138.8c0,.35-2.9.64-6.47.64s-6.46-.29-6.46-.64,2.89-.64,6.46-.64S117.85,138.44,117.85,138.8Z"/><path class="cls-18" d="M105.2,139a28.24,28.24,0,0,1,6.18-.46,28.35,28.35,0,0,1,6.19.46c.18-.06.28-.13.28-.19,0-.36-2.9-.64-6.47-.64s-6.46.28-6.46.64C104.92,138.86,105,138.93,105.2,139Z"/><path class="cls-15" d="M103.64,136.31v2.2c0,.77,3.64,1.39,8.13,1.39s8.13-.62,8.13-1.39v-2.2Z"/><path class="cls-16" d="M119.9,136.26c0,.77-3.64,1.39-8.13,1.39s-8.13-.62-8.13-1.39,3.64-1.38,8.13-1.38S119.9,135.5,119.9,136.26Z"/><path class="cls-17" d="M118.23,136.12c0,.35-2.89.64-6.46.64s-6.47-.29-6.47-.64,2.9-.64,6.47-.64S118.23,135.76,118.23,136.12Z"/><path class="cls-18" d="M105.58,136.31a28.35,28.35,0,0,1,6.19-.46,28.24,28.24,0,0,1,6.18.46c.18-.06.28-.13.28-.19,0-.36-2.89-.64-6.46-.64s-6.47.28-6.47.64C105.3,136.18,105.4,136.25,105.58,136.31Z"/><path class="cls-15" d="M103.25,134v2.2c0,.77,3.64,1.39,8.13,1.39s8.13-.62,8.13-1.39V134Z"/><path class="cls-16" d="M119.51,134c0,.76-3.64,1.38-8.13,1.38s-8.13-.62-8.13-1.38,3.64-1.39,8.13-1.39S119.51,133.18,119.51,134Z"/><path class="cls-17" d="M117.85,133.8c0,.36-2.9.64-6.47.64s-6.46-.28-6.46-.64,2.89-.64,6.46-.64S117.85,133.45,117.85,133.8Z"/><path class="cls-18" d="M105.2,134a28.24,28.24,0,0,1,6.18-.46,28.35,28.35,0,0,1,6.19.46c.18-.06.28-.12.28-.19,0-.35-2.9-.64-6.47-.64s-6.46.29-6.46.64C104.92,133.87,105,133.93,105.2,134Z"/><path class="cls-15" d="M103.53,131.22v2.2c0,.77,3.64,1.39,8.13,1.39s8.13-.62,8.13-1.39v-2.2Z"/><ellipse class="cls-16" cx="111.66" cy="131.18" rx="8.13" ry="1.38"/><path class="cls-17" d="M118.12,131c0,.36-2.89.65-6.46.65s-6.47-.29-6.47-.65,2.9-.64,6.47-.64S118.12,130.68,118.12,131Z"/><path class="cls-18" d="M105.47,131.22a29,29,0,0,1,6.19-.46,28.91,28.91,0,0,1,6.18.46c.18-.06.28-.12.28-.19,0-.35-2.89-.64-6.46-.64s-6.47.29-6.47.64C105.19,131.1,105.29,131.16,105.47,131.22Z"/><path class="cls-15" d="M104.05,128.53v2.2c0,.77,3.64,1.39,8.13,1.39s8.13-.62,8.13-1.39v-2.2Z"/><path class="cls-16" d="M120.31,128.49c0,.76-3.64,1.38-8.13,1.38s-8.13-.62-8.13-1.38,3.64-1.39,8.13-1.39S120.31,127.72,120.31,128.49Z"/><path class="cls-17" d="M118.64,128.34c0,.36-2.89.64-6.46.64s-6.47-.28-6.47-.64,2.9-.64,6.47-.64S118.64,128,118.64,128.34Z"/><path class="cls-18" d="M106,128.53a28.35,28.35,0,0,1,6.19-.46,28.24,28.24,0,0,1,6.18.46c.18-.06.28-.12.28-.19,0-.35-2.89-.64-6.46-.64s-6.47.29-6.47.64C105.71,128.41,105.81,128.47,106,128.53Z"/><path class="cls-15" d="M103,126l0,2.21c0,.76,3.65,1.35,8.14,1.3s8.13-.69,8.12-1.46l0-2.2Z"/><path class="cls-16" d="M119.29,125.85c0,.76-3.63,1.41-8.12,1.46S103,126.76,103,126s3.63-1.42,8.12-1.46S119.28,125.08,119.29,125.85Z"/><path class="cls-17" d="M117.62,125.72c0,.35-2.88.67-6.45.7s-6.47-.23-6.47-.58,2.88-.67,6.45-.71S117.62,125.36,117.62,125.72Z"/><path class="cls-18" d="M105,126a29.1,29.1,0,0,1,6.18-.51,28.38,28.38,0,0,1,6.19.4c.18-.06.27-.13.27-.19,0-.36-2.9-.62-6.47-.59s-6.46.35-6.45.71C104.7,125.9,104.8,126,105,126Z"/><path class="cls-15" d="M104,123.6l0,2.2c0,.77,3.65,1.35,8.14,1.31s8.13-.69,8.12-1.46l0-2.2Z"/><path class="cls-16" d="M120.3,123.4c0,.77-3.63,1.42-8.12,1.46s-8.14-.54-8.14-1.3,3.62-1.42,8.11-1.46S120.29,122.64,120.3,123.4Z"/><path class="cls-17" d="M118.63,123.27c0,.36-2.89.67-6.46.71s-6.46-.23-6.47-.58,2.89-.67,6.46-.71S118.63,122.92,118.63,123.27Z"/><path class="cls-18" d="M106,123.58a28.56,28.56,0,0,1,6.18-.51,29.22,29.22,0,0,1,6.19.39c.18-.06.28-.12.28-.19,0-.35-2.9-.61-6.47-.58s-6.46.35-6.46.71C105.7,123.46,105.8,123.52,106,123.58Z"/><path class="cls-15" d="M104,120.91l0,2.2c0,.77,3.65,1.35,8.14,1.31s8.13-.7,8.12-1.46l0-2.21Z"/><path class="cls-16" d="M120.3,120.71c0,.77-3.63,1.42-8.12,1.46s-8.14-.54-8.14-1.3,3.62-1.42,8.11-1.47S120.29,120,120.3,120.71Z"/><path class="cls-17" d="M118.63,120.58c0,.36-2.89.67-6.46.71s-6.46-.23-6.47-.59,2.89-.67,6.46-.7S118.63,120.23,118.63,120.58Z"/><path class="cls-18" d="M106,120.89a29,29,0,0,1,6.18-.52,29.7,29.7,0,0,1,6.19.4c.18-.06.28-.12.28-.19,0-.35-2.9-.61-6.47-.58s-6.46.35-6.46.7C105.7,120.77,105.8,120.83,106,120.89Z"/><path class="cls-20" d="M120.32,125.65l0-2.2h0s0,0,0,0a.31.31,0,0,0-.11-.2.36.36,0,0,0,.13-.24l0-2.21h0s0,0,0,0c0-.76-3.66-1.35-8.15-1.31s-8.12.7-8.11,1.47c0,0,0,0,0,0h0l0,2.2a.34.34,0,0,0,.1.21.35.35,0,0,0-.12.24s0,0,0,0h0v1.72c-.65.2-1,.43-1,.68,0,0,0,0,0,0h0l0,2.21c0,.24.36.46,1,.65v1.79c-.33.16-.52.32-.52.49v0h0v2.2a.28.28,0,0,0,0,.15c-.2.12-.32.25-.32.38s0,0,0,0h0v2.2c0,.15.14.29.39.42v1.9h0c-.25.14-.39.28-.39.43s0,0,0,0h0v2.2c0,.15.14.29.4.43h0v2.21c0,.76,3.64,1.38,8.13,1.38s8.13-.62,8.13-1.38v-2.21h0l0,0c0-.15-.14-.29-.39-.42V139h0a.08.08,0,0,0,0,0v0c.25-.13.39-.27.39-.42v-2.2h0s0,0,0-.05-.14-.28-.39-.41V134h0a.08.08,0,0,0,0,0,.28.28,0,0,0,0-.15c.2-.12.32-.24.32-.38v-2.2h0c.34-.15.53-.32.53-.49v-2.2h0s0,0,0,0c0-.24-.36-.47-1-.67v-1.49C120,126.13,120.32,125.9,120.32,125.65Z"/><path class="cls-15" d="M97.15,139.27v2.21c0,.76-3.64,1.38-8.13,1.38s-8.13-.62-8.13-1.38v-2.21Z"/><path class="cls-16" d="M80.89,139.23c0,.76,3.64,1.38,8.13,1.38s8.13-.62,8.13-1.38-3.64-1.38-8.13-1.38S80.89,138.47,80.89,139.23Z"/><path class="cls-17" d="M82.56,139.08c0,.36,2.89.65,6.46.65s6.47-.29,6.47-.65-2.9-.64-6.47-.64S82.56,138.73,82.56,139.08Z"/><path class="cls-18" d="M95.21,139.27a29.25,29.25,0,0,0-6.19-.45,29.13,29.13,0,0,0-6.18.45c-.18-.06-.28-.12-.28-.19,0-.35,2.89-.64,6.46-.64s6.47.29,6.47.64C95.49,139.15,95.39,139.21,95.21,139.27Z"/><path class="cls-15" d="M97.53,136.64v2.2c0,.77-3.64,1.39-8.13,1.39s-8.13-.62-8.13-1.39v-2.2Z"/><path class="cls-16" d="M81.27,136.59c0,.77,3.64,1.39,8.13,1.39s8.13-.62,8.13-1.39-3.64-1.38-8.13-1.38S81.27,135.83,81.27,136.59Z"/><path class="cls-17" d="M82.94,136.45c0,.35,2.89.64,6.46.64s6.47-.29,6.47-.64-2.9-.64-6.47-.64S82.94,136.09,82.94,136.45Z"/><path class="cls-18" d="M95.59,136.64a28.35,28.35,0,0,0-6.19-.46,28.24,28.24,0,0,0-6.18.46c-.18-.06-.28-.13-.28-.19,0-.36,2.89-.64,6.46-.64s6.47.28,6.47.64C95.87,136.51,95.77,136.58,95.59,136.64Z"/><path class="cls-15" d="M97.15,134v2.2c0,.77-3.64,1.39-8.13,1.39s-8.13-.62-8.13-1.39V134Z"/><path class="cls-16" d="M80.89,133.91c0,.77,3.64,1.39,8.13,1.39s8.13-.62,8.13-1.39-3.64-1.38-8.13-1.38S80.89,133.15,80.89,133.91Z"/><ellipse class="cls-17" cx="89.02" cy="133.77" rx="6.46" ry="0.64"/><path class="cls-18" d="M95.21,134A28.35,28.35,0,0,0,89,133.5a28.24,28.24,0,0,0-6.18.46c-.18-.06-.28-.13-.28-.19,0-.36,2.89-.64,6.46-.64s6.47.28,6.47.64C95.49,133.83,95.39,133.9,95.21,134Z"/><path class="cls-15" d="M97.53,131.64v2.2c0,.77-3.64,1.39-8.13,1.39s-8.13-.62-8.13-1.39v-2.2Z"/><ellipse class="cls-16" cx="89.4" cy="131.6" rx="8.13" ry="1.38"/><path class="cls-17" d="M82.94,131.45c0,.36,2.89.64,6.46.64s6.47-.28,6.47-.64-2.9-.64-6.47-.64S82.94,131.1,82.94,131.45Z"/><path class="cls-18" d="M95.59,131.64a28.35,28.35,0,0,0-6.19-.46,28.24,28.24,0,0,0-6.18.46c-.18-.06-.28-.12-.28-.19,0-.35,2.89-.64,6.46-.64s6.47.29,6.47.64C95.87,131.52,95.77,131.58,95.59,131.64Z"/><path class="cls-15" d="M97.26,128.87v2.2c0,.77-3.64,1.39-8.13,1.39S81,131.84,81,131.07v-2.2Z"/><path class="cls-16" d="M81,128.83c0,.76,3.64,1.38,8.13,1.38s8.13-.62,8.13-1.38-3.64-1.39-8.13-1.39S81,128.06,81,128.83Z"/><path class="cls-17" d="M82.67,128.68c0,.36,2.89.65,6.46.65s6.46-.29,6.46-.65S92.7,128,89.13,128,82.67,128.33,82.67,128.68Z"/><path class="cls-18" d="M95.32,128.87a29,29,0,0,0-6.19-.46,28.91,28.91,0,0,0-6.18.46c-.18-.06-.28-.12-.28-.19,0-.35,2.89-.64,6.46-.64s6.46.29,6.46.64C95.59,128.75,95.5,128.81,95.32,128.87Z"/><path class="cls-15" d="M96.74,126.18v2.2c0,.77-3.64,1.39-8.13,1.39s-8.13-.62-8.13-1.39v-2.2Z"/><path class="cls-16" d="M80.48,126.14c0,.76,3.64,1.38,8.13,1.38s8.13-.62,8.13-1.38-3.64-1.39-8.13-1.39S80.48,125.37,80.48,126.14Z"/><path class="cls-17" d="M82.15,126c0,.36,2.89.64,6.46.64s6.46-.28,6.46-.64-2.89-.64-6.46-.64S82.15,125.64,82.15,126Z"/><path class="cls-18" d="M94.79,126.18a28.17,28.17,0,0,0-6.18-.46,28.35,28.35,0,0,0-6.19.46c-.18-.06-.27-.12-.27-.19,0-.35,2.89-.64,6.46-.64s6.46.29,6.46.64C95.07,126.06,95,126.12,94.79,126.18Z"/><path class="cls-15" d="M97.76,123.69l0,2.21c0,.76-3.66,1.35-8.15,1.3s-8.12-.69-8.11-1.46l0-2.2Z"/><path class="cls-16" d="M81.5,123.5c0,.76,3.62,1.41,8.11,1.46s8.14-.55,8.15-1.31-3.63-1.42-8.12-1.46S81.5,122.73,81.5,123.5Z"/><path class="cls-17" d="M83.16,123.37c0,.35,2.89.67,6.46.7s6.47-.23,6.47-.58-2.89-.67-6.46-.71S83.17,123,83.16,123.37Z"/><path class="cls-18" d="M95.81,123.67a29.1,29.1,0,0,0-6.18-.51,28.32,28.32,0,0,0-6.19.4c-.18-.06-.28-.13-.28-.19,0-.36,2.9-.62,6.47-.59s6.46.35,6.46.71C96.09,123.55,96,123.61,95.81,123.67Z"/><path class="cls-15" d="M98.82,121.25l0,2.2c0,.77-3.65,1.35-8.14,1.31s-8.13-.69-8.12-1.46l0-2.2Z"/><path class="cls-16" d="M82.56,121.05c0,.77,3.63,1.42,8.12,1.46s8.14-.54,8.14-1.3-3.62-1.42-8.11-1.46S82.57,120.29,82.56,121.05Z"/><path class="cls-17" d="M84.23,120.92c0,.36,2.89.67,6.46.71s6.46-.23,6.47-.58-2.89-.67-6.46-.71S84.23,120.57,84.23,120.92Z"/><path class="cls-18" d="M96.88,121.23a28.56,28.56,0,0,0-6.18-.51,29.15,29.15,0,0,0-6.19.39c-.18-.06-.28-.12-.28-.19,0-.35,2.9-.61,6.47-.58s6.46.35,6.46.71C97.16,121.11,97.06,121.17,96.88,121.23Z"/><path class="cls-15" d="M97.54,118.56l0,2.2c0,.77-3.65,1.35-8.14,1.31s-8.12-.7-8.12-1.46l0-2.21Z"/><path class="cls-16" d="M81.28,118.36c0,.77,3.63,1.42,8.12,1.46s8.14-.54,8.14-1.31-3.62-1.41-8.11-1.46S81.29,117.6,81.28,118.36Z"/><path class="cls-17" d="M83,118.23c0,.36,2.89.67,6.46.71s6.47-.23,6.47-.59-2.89-.67-6.46-.7S83,117.88,83,118.23Z"/><path class="cls-18" d="M95.6,118.54a29,29,0,0,0-6.18-.52,29.7,29.7,0,0,0-6.19.4c-.18-.06-.28-.12-.28-.19,0-.35,2.9-.61,6.47-.58s6.46.35,6.46.7C95.88,118.42,95.78,118.48,95.6,118.54Z"/><path class="cls-15" d="M96.75,115.7l0,2.21c0,.76-3.65,1.35-8.14,1.31s-8.13-.7-8.12-1.46l0-2.21Z"/><path class="cls-16" d="M80.49,115.51c0,.76,3.63,1.42,8.12,1.46s8.13-.54,8.14-1.31-3.63-1.42-8.12-1.46S80.5,114.75,80.49,115.51Z"/><path class="cls-17" d="M82.16,115.38c0,.36,2.89.67,6.46.7s6.46-.22,6.46-.58-2.88-.67-6.45-.7S82.16,115,82.16,115.38Z"/><path class="cls-18" d="M94.8,115.69a28.2,28.2,0,0,0-6.18-.52,28.2,28.2,0,0,0-6.18.4c-.18-.06-.28-.12-.28-.19,0-.35,2.9-.61,6.47-.58s6.46.35,6.45.7C95.08,115.57,95,115.63,94.8,115.69Z"/><path class="cls-21" d="M98.82,121.21c0-.28-.47-.54-1.29-.77v-1.88h0s0,0,0,0c0-.21-.29-.42-.81-.61l0-2.2h0s0,0,0,0c0-.76-3.63-1.42-8.12-1.46s-8.13.55-8.14,1.31v0h0l0,2.21c0,.21.3.42.82.61a0,0,0,0,0,0,0h0l0,2.21c0,.28.48.54,1.3.76v1.46c-.67.19-1,.42-1,.67,0,0,0,0,0,0h0l0,1.93c-.64.2-1,.43-1,.67,0,0,0,0,0,0h0v2.2c0,.17.19.34.53.49h0v2.2c0,.14.12.26.32.38a.3.3,0,0,0,0,.15s0,0,0,0h0v1.86c-.24.13-.38.27-.38.41s0,0,0,.05h0v2.2c0,.15.14.29.39.42h0s0,0,0,0h0v2.17c-.24.13-.38.27-.38.42s0,0,0,0h0v2.21c0,.76,3.64,1.38,8.13,1.38s8.13-.62,8.13-1.38v-2.21h0c.25-.14.39-.28.39-.43v-2.2h0s0,0,0,0-.13-.28-.38-.42h0v-1.9c.25-.13.38-.27.38-.42v-2.2h0s0,0,0,0-.11-.26-.31-.38a.28.28,0,0,0,0-.15v-2.2h0v0c0-.17-.19-.33-.52-.49v-1.79c.63-.19,1-.42,1-.65v-1.78c.67-.19,1-.42,1-.67l0-2.2h0S98.82,121.22,98.82,121.21Z"/><path class="cls-17" d="M77.72,79.34l-.53-1.61L62.57,82.61l.52,1.61c.75,2.43,4.63,3.31,8.67,2S78.47,81.77,77.72,79.34Z"/><g class="cls-22"><polygon class="cls-18" points="64.25 88.75 64.61 88.63 62.76 82.65 62.4 82.77 64.25 88.75"/><polygon class="cls-18" points="65.19 88.44 65.55 88.31 63.71 82.34 63.34 82.46 65.19 88.44"/><polygon class="cls-18" points="66.26 88.08 66.63 87.96 64.78 81.98 64.42 82.1 66.26 88.08"/><polygon class="cls-18" points="67.6 87.63 67.97 87.51 66.12 81.53 65.76 81.65 67.6 87.63"/><polygon class="cls-18" points="69.08 87.14 69.44 87.02 67.6 81.04 67.23 81.16 69.08 87.14"/><polygon class="cls-18" points="70.69 86.6 71.05 86.48 69.21 80.5 68.84 80.62 70.69 86.6"/><polygon class="cls-18" points="77.05 77.89 78.89 83.86 79.26 83.74 77.41 77.76 77.05 77.89"/><polygon class="cls-18" points="77.95 84.18 78.31 84.06 76.47 78.08 76.11 78.2 77.95 84.18"/><polygon class="cls-18" points="76.88 84.54 77.24 84.41 75.39 78.44 75.03 78.56 76.88 84.54"/><polygon class="cls-18" points="75.53 84.98 75.9 84.86 74.05 78.89 73.69 79.01 75.53 84.98"/><polygon class="cls-18" points="74.06 85.48 74.42 85.35 72.58 79.38 72.21 79.5 74.06 85.48"/><polygon class="cls-18" points="72.45 86.01 72.81 85.89 70.97 79.91 70.61 80.03 72.45 86.01"/></g><path class="cls-23" d="M71.17,84.37c-4,1.35-7.92.48-8.67-2s1.92-5.49,6-6.84,7.92-.47,8.67,2S75.21,83,71.17,84.37Z"/><path class="cls-24" d="M68.28,75.84c4-1.35,7.92-.48,8.67,2a3.71,3.71,0,0,1-.7,3.19,3.85,3.85,0,0,0,.88-3.44c-.75-2.43-4.63-3.3-8.67-2a10.48,10.48,0,0,0-5.26,3.64A10.67,10.67,0,0,1,68.28,75.84Z"/><path class="cls-24" d="M64,82c-.55-1.81,1.54-4.13,4.68-5.18s6.14-.42,6.7,1.38-1.54,4.13-4.68,5.18S64.55,83.78,64,82Z"/><path class="cls-15" d="M64.13,81.88c-.56-1.81,1.54-4.13,4.68-5.18s6.14-.43,6.7,1.38S74,82.21,70.83,83.26,64.68,83.69,64.13,81.88Z"/><path class="cls-18" d="M64.54,82.13C64,80.32,66.08,78,69.21,77a7.41,7.41,0,0,1,5.46,0c-1.23-.89-3.51-1-5.86-.26-3.14,1-5.24,3.37-4.68,5.18a2.34,2.34,0,0,0,1.24,1.37A2.17,2.17,0,0,1,64.54,82.13Z"/><path class="cls-18" d="M72.86,79.45a1.52,1.52,0,0,1-.09.51,1.67,1.67,0,0,1-.23.44,1.91,1.91,0,0,1-.33.36,1.38,1.38,0,0,1-.38.23.2.2,0,0,1-.13,0,.1.1,0,0,1-.08-.06l-.24-.67a.2.2,0,0,1,0-.13.34.34,0,0,1,.06-.12l0-.08a.47.47,0,0,0,.08-.14.49.49,0,0,0,0-.19.55.55,0,0,0,0-.24.94.94,0,0,0-.2-.32A.46.46,0,0,0,71.2,79,.41.41,0,0,0,71,79a.3.3,0,0,0-.17.11.44.44,0,0,0-.08.22,1.78,1.78,0,0,0,0,.35c0,.14,0,.32,0,.53a2.09,2.09,0,0,1,0,.57,1.5,1.5,0,0,1-.19.47,1.67,1.67,0,0,1-.38.37,2.4,2.4,0,0,1-.6.29,2,2,0,0,1-.61.13,1.72,1.72,0,0,1-.56-.06,1.4,1.4,0,0,1-.47-.24,1.67,1.67,0,0,1-.36-.39l-.54.19a.3.3,0,0,1-.16,0,.14.14,0,0,1-.1-.08l-.24-.67a.11.11,0,0,1,0-.12.32.32,0,0,1,.13-.1l.56-.2a1.59,1.59,0,0,1,.08-.53,1.87,1.87,0,0,1,.23-.47,1.75,1.75,0,0,1,.35-.37,1.48,1.48,0,0,1,.44-.25.19.19,0,0,1,.13,0,.09.09,0,0,1,.07.06l.25.67a.3.3,0,0,1,0,.13.34.34,0,0,1,0,.11l-.08.1-.1.16a.64.64,0,0,0-.06.22.62.62,0,0,0,.05.28,1,1,0,0,0,.25.42.33.33,0,0,0,.38.07.26.26,0,0,0,.16-.13.57.57,0,0,0,.07-.25,2.52,2.52,0,0,0,0-.39c0-.16,0-.34,0-.55a1.44,1.44,0,0,1,.27-1,2.13,2.13,0,0,1,1-.62,1.93,1.93,0,0,1,.53-.11,1.49,1.49,0,0,1,.52,0,1.28,1.28,0,0,1,.47.18,1.55,1.55,0,0,1,.39.33l.56-.2a.3.3,0,0,1,.16,0,.14.14,0,0,1,.1.08l.24.67a.11.11,0,0,1,0,.12.24.24,0,0,1-.13.09Z"/><path class="cls-23" d="M72.82,79.31a1.69,1.69,0,0,1-.08.5,2,2,0,0,1-.24.45,1.61,1.61,0,0,1-.33.36,1.38,1.38,0,0,1-.38.23.28.28,0,0,1-.13,0,.09.09,0,0,1-.07-.06l-.25-.68a.26.26,0,0,1,0-.12.49.49,0,0,1,.06-.13l.06-.07a.46.46,0,0,0,.07-.14.53.53,0,0,0,0-.19.57.57,0,0,0,0-.24.75.75,0,0,0-.08-.18.87.87,0,0,0-.12-.14.33.33,0,0,0-.16-.07.4.4,0,0,0-.21,0,.43.43,0,0,0-.17.12.51.51,0,0,0-.08.21,2,2,0,0,0,0,.36c0,.14,0,.31,0,.52a2.18,2.18,0,0,1,0,.58,1.25,1.25,0,0,1-.19.46,1.37,1.37,0,0,1-.38.38,2.32,2.32,0,0,1-.59.29,2,2,0,0,1-.62.13,1.44,1.44,0,0,1-.55-.07,1.58,1.58,0,0,1-.47-.23,1.41,1.41,0,0,1-.37-.4l-.54.2a.29.29,0,0,1-.16,0s-.08,0-.09-.08l-.25-.68a.15.15,0,0,1,0-.12.25.25,0,0,1,.13-.09l.56-.2a1.55,1.55,0,0,1,.07-.53,2.28,2.28,0,0,1,.23-.47,1.76,1.76,0,0,1,.35-.37,1.61,1.61,0,0,1,.44-.25.2.2,0,0,1,.13,0,.12.12,0,0,1,.08,0l.24.68a.17.17,0,0,1,0,.12.34.34,0,0,1,0,.12l-.08.09a.86.86,0,0,0-.1.16.79.79,0,0,0-.06.22.56.56,0,0,0,0,.28,1.16,1.16,0,0,0,.25.43.35.35,0,0,0,.38.07.3.3,0,0,0,.17-.14.68.68,0,0,0,.07-.25,2.51,2.51,0,0,0,0-.39q0-.23,0-.54a1.38,1.38,0,0,1,.28-1,2.07,2.07,0,0,1,.95-.62,2.62,2.62,0,0,1,.54-.12,1.8,1.8,0,0,1,.52,0,1.35,1.35,0,0,1,.47.18,1.31,1.31,0,0,1,.38.33l.57-.2a.2.2,0,0,1,.15,0s.09,0,.1.07l.25.68a.14.14,0,0,1,0,.12.25.25,0,0,1-.13.09Z"/><path class="cls-25" d="M77.72,79.34l-.53-1.61h0c0-.07,0-.14-.05-.2-.75-2.43-4.63-3.3-8.67-2s-6.71,4.41-6,6.84a1.08,1.08,0,0,0,.08.19h0l.52,1.61c.75,2.43,4.63,3.31,8.67,2S78.47,81.77,77.72,79.34Z"/><path class="cls-17" d="M80.55,87.06l-.89,1.45,13.18,8,.89-1.44c1.37-2.14-.47-5.66-4.12-7.87S81.91,84.92,80.55,87.06Z"/><g class="cls-26"><polygon class="cls-18" points="96.44 91.25 96.11 91.06 92.75 96.33 93.07 96.53 96.44 91.25"/><polygon class="cls-18" points="95.59 90.74 95.26 90.54 91.9 95.81 92.22 96.01 95.59 90.74"/><polygon class="cls-18" points="94.62 90.15 94.29 89.95 90.93 95.23 91.26 95.42 94.62 90.15"/><polygon class="cls-18" points="93.41 89.42 93.08 89.22 89.72 94.49 90.05 94.69 93.41 89.42"/><polygon class="cls-18" points="92.08 88.61 91.75 88.41 88.39 93.69 88.72 93.88 92.08 88.61"/><polygon class="cls-18" points="90.63 87.73 90.3 87.53 86.94 92.81 87.27 93 90.63 87.73"/><polygon class="cls-18" points="79.87 88.52 83.23 83.25 82.91 83.05 79.54 88.32 79.87 88.52"/><polygon class="cls-18" points="84.08 83.76 83.76 83.56 80.39 88.84 80.72 89.03 84.08 83.76"/><polygon class="cls-18" points="85.05 84.35 84.73 84.15 81.36 89.42 81.69 89.62 85.05 84.35"/><polygon class="cls-18" points="86.26 85.08 85.94 84.89 82.57 90.16 82.9 90.36 86.26 85.08"/><polygon class="cls-18" points="87.59 85.89 87.27 85.69 83.9 90.96 84.23 91.16 87.59 85.89"/><polygon class="cls-18" points="89.04 86.77 88.72 86.57 85.35 91.84 85.68 92.04 89.04 86.77"/></g><ellipse class="cls-23" cx="86.15" cy="92.68" rx="4.6" ry="7.71" transform="translate(-37.44 119.84) rotate(-59.49)"/><path class="cls-24" d="M84,96.53c-3.64-2.21-5.49-5.73-4.12-7.87a3.71,3.71,0,0,1,2.89-1.54,3.9,3.9,0,0,0-3.2,1.56c-1.37,2.14.48,5.67,4.12,7.88a10.42,10.42,0,0,0,6.18,1.65A10.55,10.55,0,0,1,84,96.53Z"/><path class="cls-24" d="M91.43,95.83c-1,1.6-4.14,1.5-7-.22s-4.3-4.4-3.29-6,4.15-1.49,7,.22S92.45,94.24,91.43,95.83Z"/><path class="cls-15" d="M91.27,95.79c-1,1.59-4.14,1.5-7-.22s-4.3-4.41-3.28-6,4.14-1.5,7,.22S92.29,94.2,91.27,95.79Z"/><path class="cls-18" d="M91.2,95.32c-1,1.59-4.15,1.49-7-.22a7.44,7.44,0,0,1-3.53-4.17c.12,1.51,1.48,3.35,3.6,4.64,2.83,1.72,6,1.81,7,.22A2.31,2.31,0,0,0,91.51,94,2.2,2.2,0,0,1,91.2,95.32Z"/><path class="cls-18" d="M83.77,90.7a1.56,1.56,0,0,1,.45-.26,1.66,1.66,0,0,1,.49-.11,1.91,1.91,0,0,1,.48,0,1.3,1.3,0,0,1,.42.14.22.22,0,0,1,.1.09s0,.07,0,.1l-.36.62a.13.13,0,0,1-.09.09.33.33,0,0,1-.13,0H85l-.15,0a.54.54,0,0,0-.18.1.45.45,0,0,0-.15.18.66.66,0,0,0-.09.19.57.57,0,0,0,0,.18.49.49,0,0,0,0,.16.34.34,0,0,0,.15.14.41.41,0,0,0,.2.06.42.42,0,0,0,.22-.08,2,2,0,0,0,.28-.22l.38-.36a2.26,2.26,0,0,1,.46-.34,1.19,1.19,0,0,1,.48-.16,1.39,1.39,0,0,1,.53,0,2.78,2.78,0,0,1,.61.26,1.76,1.76,0,0,1,.49.39,1.49,1.49,0,0,1,.31.46,1.37,1.37,0,0,1,.13.52,1.6,1.6,0,0,1-.06.53l.49.29a.23.23,0,0,1,.11.11s0,.09,0,.12l-.36.63a.17.17,0,0,1-.11.06.28.28,0,0,1-.15,0l-.52-.3a1.7,1.7,0,0,1-.46.29,1.72,1.72,0,0,1-1.48-.07.24.24,0,0,1-.1-.1s0-.07,0-.09l.36-.63a.24.24,0,0,1,.08-.09l.12,0h.12l.19,0a.67.67,0,0,0,.21-.1.63.63,0,0,0,.18-.21,1.09,1.09,0,0,0,.16-.47.33.33,0,0,0-.19-.34.26.26,0,0,0-.21,0,.63.63,0,0,0-.24.11,2.64,2.64,0,0,0-.29.25l-.4.37a1.41,1.41,0,0,1-.93.42,2,2,0,0,1-1.08-.32,2.15,2.15,0,0,1-.44-.34,1.58,1.58,0,0,1-.31-.42,1.33,1.33,0,0,1-.17-.47,1.46,1.46,0,0,1,0-.51l-.51-.3a.2.2,0,0,1-.11-.11.11.11,0,0,1,0-.12l.36-.63a.15.15,0,0,1,.11-.06.28.28,0,0,1,.15,0Z"/><path class="cls-23" d="M83.69,90.82a1.5,1.5,0,0,1,.44-.26,1.73,1.73,0,0,1,.49-.11,2,2,0,0,1,.49,0,1.3,1.3,0,0,1,.42.14.26.26,0,0,1,.09.09.09.09,0,0,1,0,.1l-.35.62a.19.19,0,0,1-.09.09l-.13,0H85l-.15,0a.42.42,0,0,0-.17.1.57.57,0,0,0-.16.18.64.64,0,0,0-.08.19.57.57,0,0,0,0,.18.25.25,0,0,0,0,.16.43.43,0,0,0,.15.15.37.37,0,0,0,.2,0,.43.43,0,0,0,.21-.08,1.57,1.57,0,0,0,.28-.21l.39-.37a2.22,2.22,0,0,1,.45-.34,1.28,1.28,0,0,1,.49-.16,1.4,1.4,0,0,1,.53,0,2.94,2.94,0,0,1,.6.26,2.22,2.22,0,0,1,.5.39,1.69,1.69,0,0,1,.31.46,1.58,1.58,0,0,1,.12.52,1.6,1.6,0,0,1-.06.53l.49.29a.26.26,0,0,1,.12.11.13.13,0,0,1,0,.12l-.36.63a.15.15,0,0,1-.11.06.28.28,0,0,1-.15,0l-.52-.3a1.65,1.65,0,0,1-.45.29,1.89,1.89,0,0,1-.51.12,1.75,1.75,0,0,1-.51,0,1.88,1.88,0,0,1-.47-.17.28.28,0,0,1-.09-.1.1.1,0,0,1,0-.09l.36-.63a.36.36,0,0,1,.08-.09l.12,0h.12l.19,0a.67.67,0,0,0,.21-.1.78.78,0,0,0,.19-.21,1.25,1.25,0,0,0,.16-.47.35.35,0,0,0-.2-.34.26.26,0,0,0-.21,0,.59.59,0,0,0-.23.11,2,2,0,0,0-.3.25l-.4.37a1.41,1.41,0,0,1-.92.42,2,2,0,0,1-1.09-.32,2.46,2.46,0,0,1-.44-.34,1.58,1.58,0,0,1-.31-.42,1.47,1.47,0,0,1-.17-.47,1.74,1.74,0,0,1,0-.51l-.52-.3a.23.23,0,0,1-.11-.11c0-.05,0-.09,0-.12l.36-.63a.17.17,0,0,1,.11-.06.28.28,0,0,1,.15,0Z"/><path class="cls-25" d="M80.55,87.06l-.89,1.45h0a1,1,0,0,0-.13.16c-1.37,2.14.48,5.67,4.12,7.88s7.7,2.26,9.07.12c0-.06.06-.12.1-.18h0l.89-1.44c1.37-2.14-.47-5.66-4.12-7.87S81.91,84.92,80.55,87.06Z"/><rect class="cls-15" x="97.41" y="99.32" width="16.3" height="2.73" transform="translate(-34.94 61.45) rotate(-28.04)"/><g class="cls-27"><rect class="cls-18" x="98.64" y="102.04" width="0.39" height="5.06" transform="translate(-37.56 58.74) rotate(-28.04)"/><rect class="cls-18" x="99.52" y="101.57" width="0.39" height="5.05" transform="translate(-37.23 59.1) rotate(-28.04)"/><rect class="cls-18" x="100.53" y="101.04" width="0.39" height="5.05" transform="translate(-36.86 59.51) rotate(-28.04)"/><rect class="cls-18" x="101.78" y="100.37" width="0.39" height="5.06" transform="translate(-36.4 60.02) rotate(-28.04)"/><rect class="cls-18" x="103.16" y="99.63" width="0.39" height="5.05" transform="translate(-35.9 60.59) rotate(-28.04)"/><rect class="cls-18" x="104.66" y="98.83" width="0.39" height="5.05" transform="translate(-35.34 61.2) rotate(-28.04)"/><rect class="cls-18" x="112.34" y="94.74" width="0.38" height="5.06" transform="translate(-32.52 64.32) rotate(-28.04)"/><rect class="cls-18" x="111.46" y="95.21" width="0.39" height="5.06" transform="translate(-32.84 63.97) rotate(-28.04)"/><rect class="cls-18" x="110.45" y="95.75" width="0.39" height="5.05" transform="translate(-33.21 63.56) rotate(-28.04)"/><rect class="cls-18" x="109.2" y="96.42" width="0.39" height="5.05" transform="translate(-33.68 63.05) rotate(-28.04)"/><rect class="cls-18" x="107.82" y="97.15" width="0.39" height="5.06" transform="translate(-34.18 62.47) rotate(-28.04)"/><rect class="cls-18" x="106.31" y="97.95" width="0.39" height="5.05" transform="translate(-34.74 61.87) rotate(-28.04)"/></g><path class="cls-17" d="M106.39,74.88l.55-1.6-14.6-5-.56,1.6c-.87,2.39,1.7,5.43,5.73,6.8S105.52,77.27,106.39,74.88Z"/><g class="cls-28"><polygon class="cls-18" points="89.97 74.24 90.33 74.36 92.47 68.48 92.11 68.36 89.97 74.24"/><polygon class="cls-18" points="90.91 74.56 91.27 74.68 93.41 68.8 93.05 68.68 90.91 74.56"/><polygon class="cls-18" points="91.98 74.92 92.34 75.04 94.48 69.17 94.12 69.04 91.98 74.92"/><polygon class="cls-18" points="93.32 75.37 93.68 75.5 95.82 69.62 95.46 69.5 93.32 75.37"/><polygon class="cls-18" points="94.79 75.87 95.16 75.99 97.3 70.12 96.93 70 94.79 75.87"/><polygon class="cls-18" points="96.4 76.42 96.76 76.54 98.9 70.66 98.54 70.54 96.4 76.42"/><polygon class="cls-18" points="106.73 73.31 104.59 79.19 104.95 79.31 107.09 73.44 106.73 73.31"/><polygon class="cls-18" points="103.65 78.87 104.01 79 106.16 73.12 105.79 73 103.65 78.87"/><polygon class="cls-18" points="102.58 78.51 102.94 78.63 105.08 72.75 104.72 72.63 102.58 78.51"/><polygon class="cls-18" points="101.24 78.06 101.6 78.18 103.74 72.3 103.38 72.18 101.24 78.06"/><polygon class="cls-18" points="99.76 77.56 100.13 77.68 102.27 71.8 101.91 71.68 99.76 77.56"/><polygon class="cls-18" points="98.16 77.01 98.52 77.14 100.66 71.26 100.3 71.14 98.16 77.01"/></g><path class="cls-23" d="M98.13,74.93c-4-1.36-6.6-4.41-5.73-6.79s4.85-3.21,8.88-1.85,6.6,4.41,5.73,6.8S102.16,76.3,98.13,74.93Z"/><path class="cls-24" d="M101,66.38c4,1.37,6.6,4.41,5.73,6.8a3.7,3.7,0,0,1-2.48,2.12A3.86,3.86,0,0,0,107,73.09c.87-2.39-1.7-5.43-5.73-6.8A10.51,10.51,0,0,0,94.89,66,10.64,10.64,0,0,1,101,66.38Z"/><path class="cls-24" d="M93.86,68.68c.65-1.78,3.72-2.36,6.86-1.3s5.15,3.37,4.5,5.15-3.72,2.36-6.85,1.3S93.21,70.46,93.86,68.68Z"/><path class="cls-15" d="M94,68.69c.65-1.78,3.73-2.36,6.86-1.3s5.15,3.37,4.51,5.15-3.73,2.36-6.86,1.3S93.38,70.47,94,68.69Z"/><path class="cls-18" d="M94.2,69.13c.65-1.77,3.72-2.36,6.85-1.3a7.43,7.43,0,0,1,4.35,3.31c-.44-1.45-2.17-3-4.52-3.75-3.13-1.06-6.21-.48-6.86,1.3a2.35,2.35,0,0,0,.17,1.84A2.16,2.16,0,0,1,94.2,69.13Z"/><path class="cls-18" d="M102.45,72a1.4,1.4,0,0,1-.38.35,1.88,1.88,0,0,1-.45.22,1.61,1.61,0,0,1-.48.08,1.53,1.53,0,0,1-.44,0,.23.23,0,0,1-.11-.08.09.09,0,0,1,0-.09l.22-.68a.17.17,0,0,1,.06-.11.35.35,0,0,1,.12-.07l.1,0,.14-.06a.58.58,0,0,0,.15-.13.75.75,0,0,0,.11-.22,1.29,1.29,0,0,0,0-.19.59.59,0,0,0,0-.19.37.37,0,0,0-.08-.15.45.45,0,0,0-.18-.1.31.31,0,0,0-.21,0,.34.34,0,0,0-.19.12,1.33,1.33,0,0,0-.23.27c-.08.12-.18.26-.29.44a2,2,0,0,1-.38.43,1.13,1.13,0,0,1-.43.26,1.31,1.31,0,0,1-.53.07,2.49,2.49,0,0,1-.65-.13,1.67,1.67,0,0,1-.57-.27,1.82,1.82,0,0,1-.4-.38,1.26,1.26,0,0,1-.23-.48,1.57,1.57,0,0,1-.06-.53l-.54-.17a.34.34,0,0,1-.14-.09.14.14,0,0,1,0-.12l.22-.69s0-.06.09-.08a.3.3,0,0,1,.16,0l.57.18a1.52,1.52,0,0,1,.38-.38,2.08,2.08,0,0,1,.47-.24,1.82,1.82,0,0,1,1,0,.41.41,0,0,1,.11.07.13.13,0,0,1,0,.1l-.21.68a.36.36,0,0,1-.06.11l-.11.06-.12,0-.18.07a.73.73,0,0,0-.18.14.55.55,0,0,0-.13.24,1.14,1.14,0,0,0-.06.5.34.34,0,0,0,.26.28.28.28,0,0,0,.22,0,.54.54,0,0,0,.2-.16,3.12,3.12,0,0,0,.24-.3c.08-.13.18-.28.31-.46a1.41,1.41,0,0,1,.81-.61,2.15,2.15,0,0,1,1.13.08,2.1,2.1,0,0,1,.5.24,1.85,1.85,0,0,1,.4.34,1.41,1.41,0,0,1,.26.42,1.72,1.72,0,0,1,.11.5l.57.18a.3.3,0,0,1,.13.09.14.14,0,0,1,0,.12l-.21.68a.14.14,0,0,1-.1.08.2.2,0,0,1-.15,0Z"/><path class="cls-23" d="M102.51,71.89a1.4,1.4,0,0,1-.38.35,1.57,1.57,0,0,1-.45.22,2,2,0,0,1-.48.09,1.52,1.52,0,0,1-.44,0,.18.18,0,0,1-.11-.07.09.09,0,0,1,0-.09l.21-.69a.23.23,0,0,1,.07-.11l.12-.06.09,0,.15-.06a.58.58,0,0,0,.15-.13.68.68,0,0,0,.11-.21,1.77,1.77,0,0,0,0-.2.51.51,0,0,0,0-.18.29.29,0,0,0-.09-.15.34.34,0,0,0-.17-.11.38.38,0,0,0-.21,0,.62.62,0,0,0-.2.12c-.06.07-.14.16-.22.27l-.3.44a2,2,0,0,1-.37.44,1.2,1.2,0,0,1-.44.25A1.26,1.26,0,0,1,99,72a2.37,2.37,0,0,1-.65-.12,2.15,2.15,0,0,1-.57-.27,1.49,1.49,0,0,1-.4-.39,1.4,1.4,0,0,1-.24-.47,1.94,1.94,0,0,1,0-.54L96.58,70a.28.28,0,0,1-.14-.09.14.14,0,0,1,0-.12l.21-.68a.14.14,0,0,1,.1-.08.22.22,0,0,1,.16,0l.57.18a1.37,1.37,0,0,1,.38-.38,1.8,1.8,0,0,1,.46-.23,1.48,1.48,0,0,1,.51-.09,1.68,1.68,0,0,1,.5.07.19.19,0,0,1,.11.07.1.1,0,0,1,0,.09l-.21.69a.29.29,0,0,1-.06.1.39.39,0,0,1-.11.06l-.12,0-.18.07a.73.73,0,0,0-.18.14.66.66,0,0,0-.14.25,1.24,1.24,0,0,0-.05.49.35.35,0,0,0,.26.29.3.3,0,0,0,.21,0,.59.59,0,0,0,.21-.16,2.27,2.27,0,0,0,.23-.31L99.6,70a1.42,1.42,0,0,1,.81-.61,2,2,0,0,1,1.14.08,1.89,1.89,0,0,1,.5.23,1.83,1.83,0,0,1,.39.34,1.48,1.48,0,0,1,.27.43,1.34,1.34,0,0,1,.1.49l.57.18a.28.28,0,0,1,.14.09.14.14,0,0,1,0,.12l-.21.69a.16.16,0,0,1-.1.08.3.3,0,0,1-.16,0Z"/><rect class="cls-23" x="75.54" y="64.64" width="11.92" height="1.99" transform="translate(-22.33 52.59) rotate(-31.69)"/><g class="cls-29"><rect class="cls-15" x="76.63" y="66.93" width="0.28" height="3.7" transform="translate(-24.69 50.59) rotate(-31.69)"/><rect class="cls-15" x="77.25" y="66.55" width="0.28" height="3.7" transform="translate(-24.39 50.86) rotate(-31.69)"/><rect class="cls-15" x="77.96" y="66.11" width="0.28" height="3.7" transform="matrix(0.85, -0.53, 0.53, 0.85, -24.05, 51.15)"/><rect class="cls-15" x="78.84" y="65.56" width="0.28" height="3.7" transform="translate(-23.64 51.54) rotate(-31.69)"/><rect class="cls-15" x="79.82" y="64.96" width="0.28" height="3.7" transform="translate(-23.18 51.97) rotate(-31.69)"/><rect class="cls-15" x="80.88" y="64.31" width="0.28" height="3.7" transform="translate(-22.67 52.43) rotate(-31.69)"/><rect class="cls-15" x="86.28" y="60.97" width="0.28" height="3.7" transform="translate(-20.11 54.76) rotate(-31.69)"/><rect class="cls-15" x="85.66" y="61.35" width="0.28" height="3.7" transform="translate(-20.41 54.49) rotate(-31.69)"/><rect class="cls-15" x="84.96" y="61.79" width="0.28" height="3.7" transform="translate(-20.74 54.18) rotate(-31.69)"/><rect class="cls-15" x="84.07" y="62.34" width="0.28" height="3.7" transform="translate(-21.16 53.8) rotate(-31.69)"/><rect class="cls-15" x="83.1" y="62.94" width="0.28" height="3.7" transform="translate(-21.62 53.38) rotate(-31.69)"/><rect class="cls-15" x="82.04" y="63.59" width="0.28" height="3.7" transform="translate(-22.12 52.92) rotate(-31.69)"/></g><rect class="cls-23" x="56.77" y="88.17" width="16.3" height="2.73" transform="translate(46.65 -19.54) rotate(26.43)"/><g class="cls-30"><rect class="cls-15" x="55.33" y="86.12" width="5.05" height="0.39" transform="translate(-45.19 99.7) rotate(-63.57)"/><rect class="cls-15" x="56.22" y="86.57" width="5.06" height="0.39" transform="translate(-45.09 100.75) rotate(-63.57)"/><rect class="cls-15" x="57.24" y="87.08" width="5.06" height="0.39" transform="translate(-44.98 101.94) rotate(-63.56)"/><rect class="cls-15" x="58.52" y="87.71" width="5.05" height="0.39" transform="translate(-44.84 103.43) rotate(-63.57)"/><rect class="cls-15" x="59.92" y="88.4" width="5.06" height="0.39" transform="translate(-44.69 105.07) rotate(-63.57)"/><rect class="cls-15" x="61.44" y="89.16" width="5.06" height="0.39" transform="translate(-44.52 106.85) rotate(-63.56)"/><rect class="cls-15" x="69.23" y="93.03" width="5.05" height="0.38" transform="translate(-43.67 115.98) rotate(-63.57)"/><rect class="cls-15" x="68.33" y="92.59" width="5.05" height="0.39" transform="translate(-43.76 114.93) rotate(-63.57)"/><rect class="cls-15" x="67.31" y="92.08" width="5.06" height="0.39" transform="translate(-43.88 113.74) rotate(-63.57)"/><rect class="cls-15" x="66.04" y="91.45" width="5.06" height="0.39" transform="translate(-44.01 112.25) rotate(-63.57)"/><rect class="cls-15" x="64.64" y="90.75" width="5.05" height="0.39" transform="translate(-44.17 110.6) rotate(-63.56)"/><rect class="cls-15" x="63.12" y="89.99" width="5.06" height="0.39" transform="translate(-44.34 108.81) rotate(-63.56)"/></g><path class="cls-15" d="M92.09,145v2.2c0,.77,3.64,1.39,8.13,1.39s8.13-.62,8.13-1.39V145Z"/><path class="cls-16" d="M108.35,145c0,.76-3.64,1.38-8.13,1.38s-8.13-.62-8.13-1.38,3.64-1.39,8.13-1.39S108.35,144.2,108.35,145Z"/><path class="cls-17" d="M106.69,144.82c0,.36-2.9.64-6.47.64s-6.46-.28-6.46-.64,2.89-.64,6.46-.64S106.69,144.47,106.69,144.82Z"/><path class="cls-18" d="M94,145a28.24,28.24,0,0,1,6.18-.46,28.35,28.35,0,0,1,6.19.46c.18-.06.28-.12.28-.19,0-.35-2.9-.64-6.47-.64s-6.46.29-6.46.64C93.76,144.89,93.86,145,94,145Z"/><path class="cls-15" d="M92.41,142.32v2.2c0,.77,3.64,1.39,8.14,1.39s8.13-.62,8.13-1.39v-2.2Z"/><g class="cls-31"><rect class="cls-18" x="92.59" y="141.4" width="0.39" height="5.06"/><rect class="cls-18" x="93.59" y="141.4" width="0.38" height="5.06"/><rect class="cls-18" x="94.73" y="141.4" width="0.38" height="5.06"/><rect class="cls-18" x="96.15" y="141.4" width="0.39" height="5.06"/><rect class="cls-18" x="97.71" y="141.4" width="0.39" height="5.06"/><rect class="cls-18" x="99.42" y="141.4" width="0.38" height="5.06"/><rect class="cls-18" x="108.11" y="141.4" width="0.38" height="5.06"/><rect class="cls-18" x="107.11" y="141.4" width="0.39" height="5.06"/><rect class="cls-18" x="105.98" y="141.4" width="0.38" height="5.06"/><rect class="cls-18" x="104.55" y="141.4" width="0.39" height="5.06"/><rect class="cls-18" x="102.99" y="141.4" width="0.39" height="5.06"/><rect class="cls-18" x="101.29" y="141.4" width="0.38" height="5.06"/></g><path class="cls-16" d="M108.68,142.28c0,.76-3.64,1.38-8.13,1.38s-8.14-.62-8.14-1.38,3.64-1.39,8.14-1.39S108.68,141.51,108.68,142.28Z"/><ellipse class="cls-17" cx="100.55" cy="142.13" rx="6.46" ry="0.64"/><path class="cls-18" d="M94.36,142.32a28.35,28.35,0,0,1,6.19-.46,28.24,28.24,0,0,1,6.18.46c.18-.06.28-.12.28-.19,0-.35-2.9-.64-6.46-.64s-6.47.29-6.47.64C94.08,142.2,94.18,142.26,94.36,142.32Z"/><path class="cls-15" d="M90.84,139.69v2.21c0,.76,3.64,1.38,8.13,1.38s8.13-.62,8.13-1.38v-2.21Z"/><path class="cls-16" d="M107.1,139.65c0,.77-3.64,1.39-8.13,1.39s-8.13-.62-8.13-1.39,3.64-1.38,8.13-1.38S107.1,138.89,107.1,139.65Z"/><path class="cls-17" d="M105.43,139.51c0,.35-2.89.64-6.46.64s-6.47-.29-6.47-.64,2.9-.65,6.47-.65S105.43,139.15,105.43,139.51Z"/><path class="cls-18" d="M92.78,139.69a29.25,29.25,0,0,1,6.19-.45,29.13,29.13,0,0,1,6.18.45c.18-.06.28-.12.28-.18,0-.36-2.89-.65-6.46-.65s-6.47.29-6.47.65C92.5,139.57,92.6,139.63,92.78,139.69Z"/><path class="cls-15" d="M92,137.11v2.21c0,.76,3.64,1.38,8.13,1.38s8.13-.62,8.13-1.38v-2.21Z"/><g class="cls-32"><rect class="cls-18" x="92.15" y="136.2" width="0.39" height="5.06"/><rect class="cls-18" x="93.15" y="136.2" width="0.38" height="5.06"/><rect class="cls-18" x="94.29" y="136.2" width="0.38" height="5.06"/><rect class="cls-18" x="95.71" y="136.2" width="0.39" height="5.06"/><rect class="cls-18" x="97.27" y="136.2" width="0.39" height="5.06"/><rect class="cls-18" x="98.98" y="136.2" width="0.39" height="5.06"/><rect class="cls-18" x="107.67" y="136.2" width="0.38" height="5.06"/><rect class="cls-18" x="106.67" y="136.2" width="0.39" height="5.06"/><rect class="cls-18" x="105.53" y="136.2" width="0.39" height="5.06"/><rect class="cls-18" x="104.11" y="136.2" width="0.38" height="5.06"/><rect class="cls-18" x="102.55" y="136.2" width="0.38" height="5.06"/><rect class="cls-18" x="100.84" y="136.2" width="0.38" height="5.06"/></g><path class="cls-16" d="M108.23,137.07c0,.77-3.64,1.39-8.13,1.39S92,137.84,92,137.07s3.64-1.38,8.13-1.38S108.23,136.31,108.23,137.07Z"/><ellipse class="cls-17" cx="100.1" cy="136.93" rx="6.46" ry="0.64"/><path class="cls-18" d="M93.92,137.11a29.13,29.13,0,0,1,6.18-.45,29.25,29.25,0,0,1,6.19.45c.18-.05.28-.12.28-.18,0-.36-2.9-.64-6.47-.64s-6.46.28-6.46.64C93.64,137,93.74,137.06,93.92,137.11Z"/><path class="cls-15" d="M93.31,134.61v2.2c0,.77,3.64,1.39,8.13,1.39s8.13-.62,8.13-1.39v-2.2Z"/><g class="cls-33"><rect class="cls-18" x="93.49" y="133.69" width="0.38" height="5.05"/><rect class="cls-18" x="94.49" y="133.69" width="0.39" height="5.05"/><rect class="cls-18" x="95.63" y="133.69" width="0.39" height="5.05"/><rect class="cls-18" x="97.05" y="133.69" width="0.38" height="5.05"/><rect class="cls-18" x="98.61" y="133.69" width="0.38" height="5.05"/><rect class="cls-18" x="100.32" y="133.69" width="0.38" height="5.05"/><rect class="cls-18" x="109.01" y="133.69" width="0.38" height="5.05"/><rect class="cls-18" x="108.01" y="133.69" width="0.38" height="5.05"/><rect class="cls-18" x="106.87" y="133.69" width="0.38" height="5.05"/><rect class="cls-18" x="105.45" y="133.69" width="0.39" height="5.05"/><rect class="cls-18" x="103.89" y="133.69" width="0.38" height="5.05"/><rect class="cls-18" x="102.18" y="133.69" width="0.39" height="5.05"/></g><path class="cls-16" d="M109.57,134.57c0,.76-3.64,1.38-8.13,1.38s-8.13-.62-8.13-1.38,3.64-1.39,8.13-1.39S109.57,133.8,109.57,134.57Z"/><path class="cls-17" d="M107.91,134.42c0,.36-2.9.64-6.47.64s-6.46-.28-6.46-.64,2.89-.64,6.46-.64S107.91,134.07,107.91,134.42Z"/><path class="cls-18" d="M95.26,134.61a28.24,28.24,0,0,1,6.18-.46,28.35,28.35,0,0,1,6.19.46c.18-.06.28-.12.28-.19,0-.35-2.9-.64-6.47-.64s-6.46.29-6.46.64C95,134.49,95.08,134.55,95.26,134.61Z"/><path class="cls-15" d="M91.31,132.55v2.2c0,.77,3.64,1.39,8.13,1.39s8.13-.62,8.13-1.39v-2.2Z"/><path class="cls-16" d="M107.57,132.5c0,.77-3.64,1.39-8.13,1.39s-8.13-.62-8.13-1.39,3.64-1.38,8.13-1.38S107.57,131.74,107.57,132.5Z"/><path class="cls-17" d="M105.91,132.36c0,.35-2.9.64-6.47.64s-6.46-.29-6.46-.64,2.89-.64,6.46-.64S105.91,132,105.91,132.36Z"/><path class="cls-18" d="M93.26,132.55a28.24,28.24,0,0,1,6.18-.46,28.35,28.35,0,0,1,6.19.46c.18-.06.28-.13.28-.19,0-.36-2.9-.64-6.47-.64S93,132,93,132.36C93,132.42,93.08,132.49,93.26,132.55Z"/><path class="cls-15" d="M90.17,129.85v2.21c0,.76,3.64,1.38,8.13,1.38s8.13-.62,8.13-1.38v-2.21Z"/><path class="cls-16" d="M106.43,129.81c0,.77-3.64,1.39-8.13,1.39s-8.13-.62-8.13-1.39,3.64-1.38,8.13-1.38S106.43,129.05,106.43,129.81Z"/><ellipse class="cls-17" cx="98.3" cy="129.67" rx="6.46" ry="0.64"/><path class="cls-18" d="M92.11,129.85a29.25,29.25,0,0,1,6.19-.45,29.13,29.13,0,0,1,6.18.45c.18,0,.28-.12.28-.18,0-.36-2.89-.65-6.46-.65s-6.47.29-6.47.65C91.83,129.73,91.93,129.8,92.11,129.85Z"/><path class="cls-15" d="M91.42,127.29v2.21c0,.76,3.64,1.38,8.13,1.38s8.13-.62,8.13-1.38v-2.21Z"/><path class="cls-16" d="M107.68,127.25c0,.76-3.64,1.38-8.13,1.38s-8.13-.62-8.13-1.38,3.64-1.39,8.13-1.39S107.68,126.48,107.68,127.25Z"/><ellipse class="cls-17" cx="99.55" cy="127.1" rx="6.46" ry="0.64"/><path class="cls-18" d="M93.37,127.29a28.91,28.91,0,0,1,6.18-.46,29,29,0,0,1,6.19.46c.18-.06.28-.12.28-.19,0-.35-2.9-.64-6.47-.64s-6.46.29-6.46.64C93.09,127.17,93.19,127.23,93.37,127.29Z"/><path class="cls-15" d="M90.63,124.89v2.2c0,.77,3.64,1.39,8.13,1.39s8.13-.62,8.13-1.39v-2.2Z"/><g class="cls-34"><rect class="cls-18" x="90.81" y="123.97" width="0.38" height="5.06"/><rect class="cls-18" x="91.81" y="123.97" width="0.39" height="5.06"/><rect class="cls-18" x="92.95" y="123.97" width="0.39" height="5.06"/><rect class="cls-18" x="94.37" y="123.97" width="0.38" height="5.06"/><rect class="cls-18" x="95.93" y="123.97" width="0.38" height="5.06"/><rect class="cls-18" x="97.64" y="123.97" width="0.38" height="5.06"/><rect class="cls-18" x="106.33" y="123.97" width="0.38" height="5.06"/><rect class="cls-18" x="105.33" y="123.97" width="0.38" height="5.06"/><rect class="cls-18" x="104.19" y="123.97" width="0.38" height="5.06"/><rect class="cls-18" x="102.77" y="123.97" width="0.39" height="5.06"/><rect class="cls-18" x="101.21" y="123.97" width="0.39" height="5.06"/><rect class="cls-18" x="99.5" y="123.97" width="0.39" height="5.06"/></g><path class="cls-16" d="M106.89,124.85c0,.76-3.64,1.38-8.13,1.38s-8.13-.62-8.13-1.38,3.64-1.39,8.13-1.39S106.89,124.08,106.89,124.85Z"/><ellipse class="cls-17" cx="98.76" cy="124.7" rx="6.46" ry="0.64"/><path class="cls-18" d="M92.58,124.89a28.24,28.24,0,0,1,6.18-.46,28.35,28.35,0,0,1,6.19.46c.18-.06.28-.12.28-.19,0-.35-2.9-.64-6.47-.64s-6.46.29-6.46.64C92.3,124.77,92.4,124.83,92.58,124.89Z"/><path class="cls-15" d="M92,122.38v2.21c0,.76,3.64,1.38,8.13,1.38s8.13-.62,8.13-1.38v-2.21Z"/><g class="cls-35"><rect class="cls-18" x="92.15" y="121.46" width="0.39" height="5.05"/><rect class="cls-18" x="93.15" y="121.46" width="0.38" height="5.05"/><rect class="cls-18" x="94.29" y="121.46" width="0.38" height="5.05"/><rect class="cls-18" x="95.71" y="121.46" width="0.38" height="5.05"/><rect class="cls-18" x="97.27" y="121.46" width="0.38" height="5.05"/><rect class="cls-18" x="98.98" y="121.46" width="0.39" height="5.05"/><rect class="cls-18" x="107.67" y="121.46" width="0.38" height="5.05"/><rect class="cls-18" x="106.67" y="121.46" width="0.38" height="5.05"/><rect class="cls-18" x="105.53" y="121.46" width="0.39" height="5.05"/><rect class="cls-18" x="104.11" y="121.46" width="0.38" height="5.05"/><rect class="cls-18" x="102.55" y="121.46" width="0.38" height="5.05"/><rect class="cls-18" x="100.84" y="121.46" width="0.38" height="5.05"/></g><path class="cls-16" d="M108.23,122.34c0,.76-3.64,1.38-8.13,1.38S92,123.1,92,122.34,95.61,121,100.1,121,108.23,121.58,108.23,122.34Z"/><path class="cls-17" d="M106.57,122.19c0,.36-2.9.65-6.47.65s-6.46-.29-6.46-.65,2.89-.64,6.46-.64S106.57,121.84,106.57,122.19Z"/><path class="cls-18" d="M93.92,122.38a29.13,29.13,0,0,1,6.18-.45,29.25,29.25,0,0,1,6.19.45c.18-.06.28-.12.28-.19,0-.35-2.9-.64-6.47-.64s-6.46.29-6.46.64C93.64,122.26,93.74,122.32,93.92,122.38Z"/><path class="cls-15" d="M68.67,143.73v2.2c0,.76,3.64,1.38,8.13,1.38s8.13-.62,8.13-1.38v-2.2Z"/><g class="cls-36"><rect class="cls-18" x="68.85" y="142.81" width="0.39" height="5.06"/><rect class="cls-18" x="69.85" y="142.81" width="0.38" height="5.06"/><rect class="cls-18" x="70.99" y="142.81" width="0.39" height="5.06"/><rect class="cls-18" x="72.41" y="142.81" width="0.39" height="5.06"/><rect class="cls-18" x="73.97" y="142.81" width="0.39" height="5.06"/><rect class="cls-18" x="75.67" y="142.81" width="0.39" height="5.06"/><rect class="cls-18" x="84.37" y="142.81" width="0.38" height="5.06"/><rect class="cls-18" x="83.37" y="142.81" width="0.39" height="5.06"/><rect class="cls-18" x="82.23" y="142.81" width="0.39" height="5.06"/><rect class="cls-18" x="80.81" y="142.81" width="0.38" height="5.06"/><rect class="cls-18" x="79.25" y="142.81" width="0.38" height="5.06"/><rect class="cls-18" x="77.54" y="142.81" width="0.38" height="5.06"/></g><path class="cls-16" d="M84.93,143.68c0,.77-3.64,1.39-8.13,1.39s-8.13-.62-8.13-1.39,3.64-1.38,8.13-1.38S84.93,142.92,84.93,143.68Z"/><ellipse class="cls-17" cx="76.8" cy="143.54" rx="6.46" ry="0.64"/><path class="cls-18" d="M70.62,143.73a28.17,28.17,0,0,1,6.18-.46,28.35,28.35,0,0,1,6.19.46c.18-.06.27-.13.27-.19,0-.36-2.89-.64-6.46-.64s-6.46.28-6.46.64C70.34,143.6,70.44,143.67,70.62,143.73Z"/><path class="cls-15" d="M67.49,141.23v2.21c0,.76,3.64,1.38,8.13,1.38s8.13-.62,8.13-1.38v-2.21Z"/><g class="cls-37"><rect class="cls-18" x="67.67" y="140.32" width="0.38" height="5.05"/><rect class="cls-18" x="68.67" y="140.32" width="0.39" height="5.05"/><rect class="cls-18" x="69.81" y="140.32" width="0.39" height="5.05"/><rect class="cls-18" x="71.23" y="140.32" width="0.38" height="5.05"/><rect class="cls-18" x="72.79" y="140.32" width="0.38" height="5.05"/><rect class="cls-18" x="74.5" y="140.32" width="0.38" height="5.05"/><rect class="cls-18" x="83.19" y="140.32" width="0.38" height="5.05"/><rect class="cls-18" x="82.19" y="140.32" width="0.38" height="5.05"/><rect class="cls-18" x="81.05" y="140.32" width="0.38" height="5.05"/><rect class="cls-18" x="79.63" y="140.32" width="0.39" height="5.05"/><rect class="cls-18" x="78.07" y="140.32" width="0.38" height="5.05"/><rect class="cls-18" x="76.36" y="140.32" width="0.39" height="5.05"/></g><path class="cls-16" d="M83.75,141.19c0,.77-3.64,1.39-8.13,1.39s-8.13-.62-8.13-1.39,3.64-1.38,8.13-1.38S83.75,140.43,83.75,141.19Z"/><path class="cls-17" d="M82.09,141.05c0,.35-2.9.64-6.47.64s-6.46-.29-6.46-.64,2.89-.64,6.46-.64S82.09,140.69,82.09,141.05Z"/><path class="cls-18" d="M69.44,141.23a29.13,29.13,0,0,1,6.18-.45,29.25,29.25,0,0,1,6.19.45c.18,0,.28-.12.28-.18,0-.36-2.9-.64-6.47-.64s-6.46.28-6.46.64C69.16,141.11,69.26,141.18,69.44,141.23Z"/><path class="cls-15" d="M68.81,138.73v2.2c0,.77,3.64,1.39,8.13,1.39s8.13-.62,8.13-1.39v-2.2Z"/><g class="cls-38"><rect class="cls-18" x="68.99" y="137.81" width="0.39" height="5.06"/><rect class="cls-18" x="69.99" y="137.81" width="0.39" height="5.06"/><rect class="cls-18" x="71.13" y="137.81" width="0.38" height="5.06"/><rect class="cls-18" x="72.55" y="137.81" width="0.38" height="5.06"/><rect class="cls-18" x="74.11" y="137.81" width="0.38" height="5.06"/><rect class="cls-18" x="75.82" y="137.81" width="0.38" height="5.06"/><rect class="cls-18" x="84.51" y="137.81" width="0.39" height="5.06"/><rect class="cls-18" x="83.51" y="137.81" width="0.39" height="5.06"/><rect class="cls-18" x="82.37" y="137.81" width="0.39" height="5.06"/><rect class="cls-18" x="80.95" y="137.81" width="0.39" height="5.06"/><rect class="cls-18" x="79.39" y="137.81" width="0.38" height="5.06"/><rect class="cls-18" x="77.69" y="137.81" width="0.39" height="5.06"/></g><path class="cls-16" d="M85.07,138.69c0,.76-3.64,1.38-8.13,1.38s-8.13-.62-8.13-1.38,3.64-1.39,8.13-1.39S85.07,137.92,85.07,138.69Z"/><path class="cls-17" d="M83.41,138.54c0,.36-2.9.64-6.47.64s-6.46-.28-6.46-.64,2.89-.64,6.46-.64S83.41,138.19,83.41,138.54Z"/><path class="cls-18" d="M70.76,138.73a28.24,28.24,0,0,1,6.18-.46,28.35,28.35,0,0,1,6.19.46c.18-.06.28-.12.28-.19,0-.35-2.9-.64-6.47-.64s-6.46.29-6.46.64C70.48,138.61,70.58,138.67,70.76,138.73Z"/><path class="cls-15" d="M69.39,136.19v2.2c0,.77,3.64,1.39,8.13,1.39s8.13-.62,8.13-1.39v-2.2Z"/><g class="cls-39"><rect class="cls-18" x="69.56" y="135.27" width="0.38" height="5.06"/><rect class="cls-18" x="70.56" y="135.27" width="0.38" height="5.06"/><rect class="cls-18" x="71.7" y="135.27" width="0.39" height="5.06"/><rect class="cls-18" x="73.12" y="135.27" width="0.38" height="5.06"/><rect class="cls-18" x="74.69" y="135.27" width="0.39" height="5.06"/><rect class="cls-18" x="76.39" y="135.27" width="0.38" height="5.06"/><rect class="cls-18" x="85.08" y="135.27" width="0.39" height="5.06"/><rect class="cls-18" x="84.09" y="135.27" width="0.38" height="5.06"/><rect class="cls-18" x="82.95" y="135.27" width="0.38" height="5.06"/><rect class="cls-18" x="81.52" y="135.27" width="0.38" height="5.06"/><rect class="cls-18" x="79.96" y="135.27" width="0.39" height="5.06"/><rect class="cls-18" x="78.26" y="135.27" width="0.39" height="5.06"/></g><ellipse class="cls-16" cx="77.52" cy="136.15" rx="8.13" ry="1.38"/><path class="cls-17" d="M84,136c0,.36-2.89.64-6.46.64s-6.47-.28-6.47-.64,2.9-.64,6.47-.64S84,135.65,84,136Z"/><path class="cls-18" d="M71.33,136.19a28.35,28.35,0,0,1,6.19-.46,28.24,28.24,0,0,1,6.18.46c.18-.06.28-.12.28-.19,0-.35-2.89-.64-6.46-.64s-6.47.29-6.47.64C71.05,136.07,71.15,136.13,71.33,136.19Z"/><path class="cls-15" d="M67.45,133.68v2.21c0,.76,3.64,1.38,8.13,1.38s8.13-.62,8.13-1.38v-2.21Z"/><g class="cls-40"><rect class="cls-18" x="67.62" y="132.77" width="0.39" height="5.06"/><rect class="cls-18" x="68.62" y="132.77" width="0.38" height="5.06"/><rect class="cls-18" x="69.76" y="132.77" width="0.39" height="5.06"/><rect class="cls-18" x="71.18" y="132.77" width="0.39" height="5.06"/><rect class="cls-18" x="72.75" y="132.77" width="0.39" height="5.06"/><rect class="cls-18" x="74.45" y="132.77" width="0.39" height="5.06"/><rect class="cls-18" x="83.14" y="132.77" width="0.38" height="5.06"/><rect class="cls-18" x="82.15" y="132.77" width="0.39" height="5.06"/><rect class="cls-18" x="81.01" y="132.77" width="0.39" height="5.06"/><rect class="cls-18" x="79.58" y="132.77" width="0.38" height="5.06"/><rect class="cls-18" x="78.02" y="132.77" width="0.38" height="5.06"/><rect class="cls-18" x="76.32" y="132.77" width="0.39" height="5.06"/></g><path class="cls-16" d="M83.71,133.64c0,.76-3.64,1.38-8.13,1.38s-8.13-.62-8.13-1.38,3.64-1.38,8.13-1.38S83.71,132.88,83.71,133.64Z"/><path class="cls-17" d="M82,133.49c0,.36-2.89.65-6.46.65s-6.47-.29-6.47-.65,2.9-.64,6.47-.64S82,133.14,82,133.49Z"/><path class="cls-18" d="M69.39,133.68a29.25,29.25,0,0,1,6.19-.45,29.13,29.13,0,0,1,6.18.45c.18-.06.28-.12.28-.19,0-.35-2.89-.64-6.46-.64s-6.47.29-6.47.64C69.11,133.56,69.21,133.62,69.39,133.68Z"/><path class="cls-15" d="M69,131.17v2.21c0,.76,3.64,1.38,8.14,1.38s8.13-.62,8.13-1.38v-2.21Z"/><g class="cls-41"><rect class="cls-18" x="69.19" y="130.26" width="0.39" height="5.05"/><rect class="cls-18" x="70.19" y="130.26" width="0.38" height="5.05"/><rect class="cls-18" x="71.33" y="130.26" width="0.38" height="5.05"/><rect class="cls-18" x="72.75" y="130.26" width="0.39" height="5.05"/><rect class="cls-18" x="74.31" y="130.26" width="0.39" height="5.05"/><rect class="cls-18" x="76.02" y="130.26" width="0.38" height="5.05"/><rect class="cls-18" x="84.71" y="130.26" width="0.38" height="5.05"/><rect class="cls-18" x="83.71" y="130.26" width="0.38" height="5.05"/><rect class="cls-18" x="82.58" y="130.26" width="0.38" height="5.05"/><rect class="cls-18" x="81.15" y="130.26" width="0.38" height="5.05"/><rect class="cls-18" x="79.59" y="130.26" width="0.39" height="5.05"/><rect class="cls-18" x="77.89" y="130.26" width="0.38" height="5.05"/></g><path class="cls-16" d="M85.28,131.13c0,.77-3.64,1.39-8.13,1.39S69,131.9,69,131.13s3.64-1.38,8.14-1.38S85.28,130.37,85.28,131.13Z"/><ellipse class="cls-17" cx="77.15" cy="130.99" rx="6.46" ry="0.64"/><path class="cls-18" d="M71,131.17a29.25,29.25,0,0,1,6.19-.45,29.2,29.2,0,0,1,6.18.45c.18,0,.28-.12.28-.18,0-.36-2.9-.65-6.46-.65s-6.47.29-6.47.65C70.68,131.05,70.78,131.12,71,131.17Z"/><path class="cls-15" d="M67.61,128.67v2.2c0,.77,3.64,1.39,8.13,1.39s8.13-.62,8.13-1.39v-2.2Z"/><g class="cls-42"><rect class="cls-18" x="67.78" y="127.75" width="0.38" height="5.06"/><rect class="cls-18" x="68.78" y="127.75" width="0.39" height="5.06"/><rect class="cls-18" x="69.92" y="127.75" width="0.39" height="5.06"/><rect class="cls-18" x="71.34" y="127.75" width="0.39" height="5.06"/><rect class="cls-18" x="72.91" y="127.75" width="0.39" height="5.06"/><rect class="cls-18" x="74.61" y="127.75" width="0.38" height="5.06"/><rect class="cls-18" x="83.3" y="127.75" width="0.38" height="5.06"/><rect class="cls-18" x="82.31" y="127.75" width="0.38" height="5.06"/><rect class="cls-18" x="81.17" y="127.75" width="0.38" height="5.06"/><rect class="cls-18" x="79.75" y="127.75" width="0.39" height="5.06"/><rect class="cls-18" x="78.18" y="127.75" width="0.39" height="5.06"/><rect class="cls-18" x="76.48" y="127.75" width="0.39" height="5.06"/></g><path class="cls-16" d="M83.87,128.63c0,.76-3.64,1.38-8.13,1.38s-8.13-.62-8.13-1.38,3.64-1.39,8.13-1.39S83.87,127.86,83.87,128.63Z"/><path class="cls-15" d="M82.2,128.48c0,.35-2.89.64-6.46.64s-6.47-.29-6.47-.64,2.9-.64,6.47-.64S82.2,128.13,82.2,128.48Z"/><path class="cls-18" d="M69.55,128.67a28.35,28.35,0,0,1,6.19-.46,28.24,28.24,0,0,1,6.18.46c.18-.06.28-.13.28-.19,0-.35-2.89-.64-6.46-.64s-6.47.29-6.47.64C69.27,128.54,69.37,128.61,69.55,128.67Z"/><path class="cls-15" d="M71.29,126.44v2.21c0,.76,3.64,1.38,8.13,1.38s8.13-.62,8.13-1.38v-2.21Z"/><g class="cls-43"><rect class="cls-18" x="71.47" y="125.53" width="0.38" height="5.06"/><rect class="cls-18" x="72.47" y="125.53" width="0.39" height="5.06"/><rect class="cls-18" x="73.6" y="125.53" width="0.39" height="5.06"/><rect class="cls-18" x="75.03" y="125.53" width="0.38" height="5.06"/><rect class="cls-18" x="76.59" y="125.53" width="0.38" height="5.06"/><rect class="cls-18" x="78.29" y="125.53" width="0.38" height="5.06"/><rect class="cls-18" x="86.99" y="125.53" width="0.38" height="5.06"/><rect class="cls-18" x="85.99" y="125.53" width="0.38" height="5.06"/><rect class="cls-18" x="84.85" y="125.53" width="0.38" height="5.06"/><rect class="cls-18" x="83.43" y="125.53" width="0.39" height="5.06"/><rect class="cls-18" x="81.87" y="125.53" width="0.39" height="5.06"/><rect class="cls-18" x="80.16" y="125.53" width="0.39" height="5.06"/></g><path class="cls-16" d="M87.55,126.4c0,.77-3.64,1.39-8.13,1.39s-8.13-.62-8.13-1.39S74.93,125,79.42,125,87.55,125.64,87.55,126.4Z"/><path class="cls-17" d="M85.88,126.26c0,.35-2.89.64-6.46.64s-6.46-.29-6.46-.64,2.89-.64,6.46-.64S85.88,125.9,85.88,126.26Z"/><path class="cls-18" d="M73.23,126.44a29.25,29.25,0,0,1,6.19-.45,29.06,29.06,0,0,1,6.18.45c.19,0,.28-.12.28-.18,0-.36-2.89-.64-6.46-.64s-6.46.28-6.46.64C73,126.32,73.05,126.39,73.23,126.44Z"/><path class="cls-15" d="M70.11,124v2.21c0,.76,3.64,1.38,8.13,1.38s8.13-.62,8.13-1.38V124Z"/><g class="cls-44"><rect class="cls-18" x="70.29" y="123.04" width="0.39" height="5.05"/><rect class="cls-18" x="71.29" y="123.04" width="0.38" height="5.05"/><rect class="cls-18" x="72.43" y="123.04" width="0.38" height="5.05"/><rect class="cls-18" x="73.85" y="123.04" width="0.38" height="5.05"/><rect class="cls-18" x="75.41" y="123.04" width="0.38" height="5.05"/><rect class="cls-18" x="77.12" y="123.04" width="0.39" height="5.05"/><rect class="cls-18" x="85.81" y="123.04" width="0.38" height="5.05"/><rect class="cls-18" x="84.81" y="123.04" width="0.38" height="5.05"/><rect class="cls-18" x="83.67" y="123.04" width="0.39" height="5.05"/><rect class="cls-18" x="82.25" y="123.04" width="0.39" height="5.05"/><rect class="cls-18" x="80.69" y="123.04" width="0.38" height="5.05"/><rect class="cls-18" x="78.98" y="123.04" width="0.38" height="5.05"/></g><path class="cls-16" d="M86.37,123.91c0,.77-3.64,1.39-8.13,1.39s-8.13-.62-8.13-1.39,3.64-1.38,8.13-1.38S86.37,123.15,86.37,123.91Z"/><path class="cls-17" d="M84.71,123.77c0,.35-2.9.64-6.47.64s-6.46-.29-6.46-.64,2.89-.65,6.46-.65S84.71,123.41,84.71,123.77Z"/><path class="cls-18" d="M72.06,124a29.13,29.13,0,0,1,6.18-.45,29.25,29.25,0,0,1,6.19.45c.18-.06.28-.12.28-.18,0-.36-2.9-.65-6.47-.65s-6.46.29-6.46.65C71.78,123.83,71.88,123.89,72.06,124Z"/><path class="cls-15" d="M71.43,121.45v2.2c0,.77,3.64,1.39,8.13,1.39s8.13-.62,8.13-1.39v-2.2Z"/><g class="cls-45"><rect class="cls-18" x="71.61" y="120.53" width="0.38" height="5.06"/><rect class="cls-18" x="72.61" y="120.53" width="0.39" height="5.06"/><rect class="cls-18" x="73.75" y="120.53" width="0.38" height="5.06"/><rect class="cls-18" x="75.17" y="120.53" width="0.39" height="5.06"/><rect class="cls-18" x="76.73" y="120.53" width="0.39" height="5.06"/><rect class="cls-18" x="78.44" y="120.53" width="0.38" height="5.06"/><rect class="cls-18" x="87.13" y="120.53" width="0.39" height="5.06"/><rect class="cls-18" x="86.13" y="120.53" width="0.38" height="5.06"/><rect class="cls-18" x="84.99" y="120.53" width="0.38" height="5.06"/><rect class="cls-18" x="83.57" y="120.53" width="0.39" height="5.06"/><rect class="cls-18" x="82.01" y="120.53" width="0.38" height="5.06"/><rect class="cls-18" x="80.3" y="120.53" width="0.39" height="5.06"/></g><path class="cls-16" d="M87.69,121.4c0,.77-3.64,1.39-8.13,1.39s-8.13-.62-8.13-1.39S75.07,120,79.56,120,87.69,120.64,87.69,121.4Z"/><path class="cls-17" d="M86,121.26c0,.35-2.9.64-6.47.64s-6.46-.29-6.46-.64,2.89-.64,6.46-.64S86,120.9,86,121.26Z"/><path class="cls-18" d="M73.38,121.45a28.24,28.24,0,0,1,6.18-.46,28.35,28.35,0,0,1,6.19.46c.18-.06.28-.13.28-.19,0-.36-2.9-.64-6.47-.64s-6.46.28-6.46.64C73.1,121.32,73.2,121.39,73.38,121.45Z"/><path class="cls-15" d="M72,118.91v2.2c0,.77,3.65,1.39,8.14,1.39s8.13-.62,8.13-1.39v-2.2Z"/><g class="cls-46"><rect class="cls-18" x="72.18" y="117.99" width="0.38" height="5.06"/><rect class="cls-18" x="73.18" y="117.99" width="0.38" height="5.06"/><rect class="cls-18" x="74.32" y="117.99" width="0.38" height="5.06"/><rect class="cls-18" x="75.74" y="117.99" width="0.39" height="5.06"/><rect class="cls-18" x="77.31" y="117.99" width="0.39" height="5.06"/><rect class="cls-18" x="79.01" y="117.99" width="0.39" height="5.06"/><rect class="cls-18" x="87.7" y="117.99" width="0.38" height="5.06"/><rect class="cls-18" x="86.7" y="117.99" width="0.39" height="5.06"/><rect class="cls-18" x="85.57" y="117.99" width="0.39" height="5.06"/><rect class="cls-18" x="84.14" y="117.99" width="0.38" height="5.06"/><rect class="cls-18" x="82.58" y="117.99" width="0.38" height="5.06"/><rect class="cls-18" x="80.88" y="117.99" width="0.38" height="5.06"/></g><path class="cls-16" d="M88.27,118.87c0,.76-3.64,1.38-8.13,1.38S72,119.63,72,118.87s3.65-1.39,8.14-1.39S88.27,118.1,88.27,118.87Z"/><path class="cls-17" d="M86.6,118.72c0,.36-2.89.64-6.46.64s-6.47-.28-6.47-.64,2.9-.64,6.47-.64S86.6,118.37,86.6,118.72Z"/><path class="cls-18" d="M74,118.91a28.35,28.35,0,0,1,6.19-.46,28.24,28.24,0,0,1,6.18.46c.18-.06.28-.12.28-.19,0-.35-2.89-.64-6.46-.64s-6.47.29-6.47.64C73.67,118.79,73.77,118.85,74,118.91Z"/><path class="cls-47" d="M73.37,147.36A9.2,9.2,0,0,1,72,142.87c-.23-5.25,2.28-8.76,6.47-9.72l1.58-.37L83.34,147c-1.48.31-1.73,3.31-2.77,3.1S73.37,147.36,73.37,147.36Z"/><path class="cls-17" d="M79.91,132.8l1.58-.36,4,17.31-1.58.38c-4.18,1-8.47-2.14-9.57-6.92S75.72,133.76,79.91,132.8Z"/><g class="cls-48"><rect class="cls-18" x="74.86" y="150.78" width="10.58" height="0.44" transform="translate(-31.8 21.8) rotate(-12.95)"/><rect class="cls-18" x="74.61" y="149.66" width="10.58" height="0.44" transform="translate(-31.55 21.72) rotate(-12.95)"/><rect class="cls-18" x="74.31" y="148.39" width="10.58" height="0.44" transform="translate(-31.27 21.62) rotate(-12.95)"/><rect class="cls-18" x="73.95" y="146.8" width="10.58" height="0.44" transform="translate(-30.93 21.5) rotate(-12.95)"/><rect class="cls-18" x="73.55" y="145.05" width="10.58" height="0.44" transform="translate(-30.55 21.36) rotate(-12.95)"/><rect class="cls-18" x="73.11" y="143.15" width="10.58" height="0.44" transform="translate(-30.14 21.22) rotate(-12.95)"/><rect class="cls-18" x="70.87" y="133.43" width="10.58" height="0.44" transform="translate(-28.02 20.47) rotate(-12.95)"/><rect class="cls-18" x="71.13" y="134.54" width="10.58" height="0.44" transform="translate(-28.27 20.57) rotate(-12.96)"/><rect class="cls-18" x="71.42" y="135.82" width="10.58" height="0.44" transform="translate(-28.54 20.65) rotate(-12.95)"/><rect class="cls-18" x="71.79" y="137.41" width="10.58" height="0.44" transform="translate(-28.88 20.77) rotate(-12.95)"/><rect class="cls-18" x="72.19" y="139.15" width="10.58" height="0.44" transform="translate(-29.26 20.91) rotate(-12.95)"/><rect class="cls-18" x="72.63" y="141.06" width="10.58" height="0.44" transform="translate(-29.69 21.06) rotate(-12.95)"/></g><path class="cls-23" d="M76.23,142.77c1.1,4.78,5.39,7.88,9.58,6.92s6.69-5.63,5.59-10.41-5.39-7.88-9.58-6.92S75.13,138,76.23,142.77Z"/><path class="cls-24" d="M91.16,139.63c-1.1-4.79-5.38-7.89-9.57-6.92a7.11,7.11,0,0,0-4.22,2.87,7.23,7.23,0,0,1,4.45-3.22c4.19-1,8.48,2.13,9.58,6.92A9.4,9.4,0,0,1,90,146.81,9.42,9.42,0,0,0,91.16,139.63Z"/><path class="cls-24" d="M85.33,148c3.12-.71,5-4.32,4.11-8s-4.09-6.15-7.21-5.43-5,4.32-4.11,8S82.21,148.67,85.33,148Z"/><path class="cls-15" d="M85.36,147.76c3.12-.72,5-4.32,4.11-8s-4.09-6.15-7.2-5.44-5,4.33-4.11,8S82.25,148.48,85.36,147.76Z"/><path class="cls-18" d="M84.68,147.54c3.12-.71,5-4.32,4.11-8a7.23,7.23,0,0,0-4.21-5.19,7,7,0,0,1,4.89,5.41c.86,3.72-1,7.32-4.11,8a5.09,5.09,0,0,1-3-.24A5,5,0,0,0,84.68,147.54Z"/><path class="cls-18" d="M83.59,137.47a2.67,2.67,0,0,1,.81.06,2.45,2.45,0,0,1,.69.24,1.88,1.88,0,0,1,.5.36,1,1,0,0,1,.29.43.18.18,0,0,1,0,.16.21.21,0,0,1-.11.1l-1.17.35a.41.41,0,0,1-.21,0l-.18-.06-.12-.06a.76.76,0,0,0-.2-.08,1.32,1.32,0,0,0-.3,0,1.35,1.35,0,0,0-.41.07,1.43,1.43,0,0,0-.31.12,1.28,1.28,0,0,0-.26.16.45.45,0,0,0-.15.19.36.36,0,0,0,0,.25.32.32,0,0,0,.15.19.74.74,0,0,0,.34.08,3.75,3.75,0,0,0,.57,0l.87-.09a4.87,4.87,0,0,1,.93,0,2.17,2.17,0,0,1,.72.19,1.46,1.46,0,0,1,.53.42,1.86,1.86,0,0,1,.34.69A1.67,1.67,0,0,1,87,142a1.84,1.84,0,0,1-.23.67,2.28,2.28,0,0,1-.5.59,3.76,3.76,0,0,1-.72.48l.19.63a.25.25,0,0,1,0,.19.23.23,0,0,1-.15.12l-1.16.36a.25.25,0,0,1-.19,0,.23.23,0,0,1-.12-.15l-.21-.65a3.36,3.36,0,0,1-.85,0,2.82,2.82,0,0,1-.71-.23,1.78,1.78,0,0,1-.54-.39,1.55,1.55,0,0,1-.31-.5.2.2,0,0,1,0-.15s.06-.09.11-.1l1.16-.36.21,0a.64.64,0,0,1,.17,0l.14.08a1.33,1.33,0,0,0,.24.11,1.23,1.23,0,0,0,.35.05,1.41,1.41,0,0,0,.47-.07,2.62,2.62,0,0,0,.75-.35.4.4,0,0,0,.21-.46.3.3,0,0,0-.19-.19,1.7,1.7,0,0,0-.4-.06,5.42,5.42,0,0,0-.63,0l-.9.08a2.56,2.56,0,0,1-1.54-.24,1.81,1.81,0,0,1-.8-1.09,2,2,0,0,1-.07-.64,2.11,2.11,0,0,1,.17-.63,2.2,2.2,0,0,1,.41-.58A2.64,2.64,0,0,1,82,138l-.2-.66a.21.21,0,0,1,0-.19.24.24,0,0,1,.14-.12l1.17-.36a.22.22,0,0,1,.19,0,.24.24,0,0,1,.12.14Z"/><path class="cls-23" d="M83.77,137.31a2.67,2.67,0,0,1,.81.06,2.8,2.8,0,0,1,.69.23,2.16,2.16,0,0,1,.5.37,1,1,0,0,1,.29.43.18.18,0,0,1,0,.16.21.21,0,0,1-.11.1l-1.17.35a.41.41,0,0,1-.21,0l-.18-.06-.12-.06a.76.76,0,0,0-.2-.08,1.32,1.32,0,0,0-.3,0,1.35,1.35,0,0,0-.41.07A1.43,1.43,0,0,0,83,139a1.28,1.28,0,0,0-.26.16.45.45,0,0,0-.15.19.36.36,0,0,0,0,.25.32.32,0,0,0,.15.19.74.74,0,0,0,.34.08,3.75,3.75,0,0,0,.57,0l.87-.09a4.87,4.87,0,0,1,.93,0,2.17,2.17,0,0,1,.72.19,1.46,1.46,0,0,1,.53.42,1.86,1.86,0,0,1,.34.69,1.67,1.67,0,0,1,.07.73,1.84,1.84,0,0,1-.23.67,2.28,2.28,0,0,1-.5.59,3.76,3.76,0,0,1-.72.48l.19.63a.25.25,0,0,1,0,.19.23.23,0,0,1-.15.12l-1.16.36a.25.25,0,0,1-.19,0,.23.23,0,0,1-.12-.15L84,144a3.36,3.36,0,0,1-.85,0,2.82,2.82,0,0,1-.71-.23,1.78,1.78,0,0,1-.54-.39,1.55,1.55,0,0,1-.31-.5.23.23,0,0,1,0-.16.19.19,0,0,1,.11-.09l1.16-.36a.61.61,0,0,1,.21,0,.64.64,0,0,1,.17.05l.14.08a1.33,1.33,0,0,0,.24.11,1.23,1.23,0,0,0,.35.05,1.41,1.41,0,0,0,.47-.07,2.62,2.62,0,0,0,.75-.35.4.4,0,0,0,.21-.46.3.3,0,0,0-.19-.19,1.7,1.7,0,0,0-.4-.06,5.42,5.42,0,0,0-.63,0l-.9.08a2.56,2.56,0,0,1-1.54-.24,1.81,1.81,0,0,1-.8-1.09,2,2,0,0,1-.07-.64,2.11,2.11,0,0,1,.17-.63,2.2,2.2,0,0,1,.41-.58,2.64,2.64,0,0,1,.63-.49l-.2-.66a.21.21,0,0,1,0-.19.29.29,0,0,1,.14-.13l1.17-.35a.22.22,0,0,1,.19,0,.24.24,0,0,1,.12.14Z"/><path class="cls-17" d="M84.12,99.06,83.07,97.8,69.24,109.42l1,1.27c2.81,3.34,8.19,3.45,12,.24S86.93,102.41,84.12,99.06Z"/><g class="cls-49"><rect class="cls-18" x="72.56" y="108.31" width="0.45" height="10.76" transform="translate(-56.07 73.47) rotate(-40.04)"/><rect class="cls-18" x="73.46" y="107.56" width="0.45" height="10.76" transform="matrix(0.77, -0.64, 0.64, 0.77, -55.38, 73.87)"/><rect class="cls-18" x="74.47" y="106.7" width="0.45" height="10.76" transform="translate(-54.59 74.32) rotate(-40.04)"/><rect class="cls-18" x="75.74" y="105.64" width="0.45" height="10.76" transform="translate(-53.61 74.89) rotate(-40.04)"/><rect class="cls-18" x="77.14" y="104.47" width="0.45" height="10.76" transform="translate(-52.53 75.51) rotate(-40.04)"/><rect class="cls-18" x="78.66" y="103.19" width="0.45" height="10.76" transform="translate(-51.35 76.19) rotate(-40.04)"/><rect class="cls-18" x="86.42" y="96.67" width="0.45" height="10.76" transform="translate(-45.34 79.65) rotate(-40.04)"/><rect class="cls-18" x="85.53" y="97.42" width="0.45" height="10.76" transform="translate(-46.03 79.27) rotate(-40.04)"/><rect class="cls-18" x="84.51" y="98.27" width="0.45" height="10.76" transform="translate(-46.82 78.8) rotate(-40.04)"/><rect class="cls-18" x="83.24" y="99.34" width="0.45" height="10.76" transform="matrix(0.77, -0.64, 0.64, 0.77, -47.8, 78.23)"/><rect class="cls-18" x="81.85" y="100.51" width="0.45" height="10.76" transform="translate(-48.88 77.61) rotate(-40.04)"/><rect class="cls-18" x="80.32" y="101.79" width="0.45" height="10.76" transform="translate(-50.06 76.94) rotate(-40.04)"/></g><path class="cls-23" d="M81,109.4c-3.82,3.21-9.2,3.11-12-.24s-2-8.66,1.83-11.87,9.2-3.1,12,.24S84.83,106.19,81,109.4Z"/><path class="cls-24" d="M70.81,97.72c3.82-3.21,9.2-3.1,12,.24a7.23,7.23,0,0,1,1.66,4.91,7.35,7.35,0,0,0-1.64-5.34c-2.81-3.34-8.19-3.45-12-.24a9.51,9.51,0,0,0-3.49,7A9.58,9.58,0,0,1,70.81,97.72Z"/><path class="cls-24" d="M70.45,108.05c-2.09-2.49-1.38-6.55,1.59-9s7.08-2.5,9.17,0,1.38,6.55-1.58,9S72.54,110.54,70.45,108.05Z"/><path class="cls-15" d="M70.54,107.87c-2.09-2.49-1.38-6.55,1.58-9s7.09-2.49,9.18,0,1.38,6.54-1.58,9S72.63,110.36,70.54,107.87Z"/><path class="cls-18" d="M71.23,108.11c-2.1-2.49-1.38-6.54,1.58-9a7.37,7.37,0,0,1,6.6-1.64,7.18,7.18,0,0,0-7.29,1.4c-3,2.49-3.67,6.55-1.58,9a5.15,5.15,0,0,0,2.58,1.64A5,5,0,0,1,71.23,108.11Z"/><path class="cls-18" d="M79.36,102.14a3.09,3.09,0,0,1,.17.81,2.9,2.9,0,0,1,0,.73,2.49,2.49,0,0,1-.21.6,1.19,1.19,0,0,1-.35.41.16.16,0,0,1-.15,0,.17.17,0,0,1-.13-.08l-.68-1a.75.75,0,0,1-.08-.2.67.67,0,0,1,0-.2.86.86,0,0,0,0-.13.5.5,0,0,0,0-.22,1.17,1.17,0,0,0,0-.3,1.29,1.29,0,0,0-.18-.38,3.17,3.17,0,0,0-.21-.27,1.07,1.07,0,0,0-.22-.21.59.59,0,0,0-.24-.09.36.36,0,0,0-.24.06.33.33,0,0,0-.15.2.87.87,0,0,0,0,.35,3.49,3.49,0,0,0,.18.56c.08.22.19.5.32.82a4.8,4.8,0,0,1,.27.91,2,2,0,0,1,0,.76,1.46,1.46,0,0,1-.26.63,2.25,2.25,0,0,1-.57.53,1.78,1.78,0,0,1-.7.27,1.75,1.75,0,0,1-.72,0,2.53,2.53,0,0,1-.72-.32,4,4,0,0,1-.67-.58l-.56.36a.22.22,0,0,1-.19,0,.23.23,0,0,1-.16-.11l-.68-1a.24.24,0,0,1,0-.2.23.23,0,0,1,.11-.16l.58-.38a3.37,3.37,0,0,1-.2-.85,3.16,3.16,0,0,1,0-.76A1.9,1.9,0,0,1,73,102a1.42,1.42,0,0,1,.4-.44.22.22,0,0,1,.16,0,.17.17,0,0,1,.12.08l.68,1a.46.46,0,0,1,.09.19v.18l-.05.16a1.7,1.7,0,0,0,0,.27,1.56,1.56,0,0,0,0,.35,1.92,1.92,0,0,0,.21.44,2.8,2.8,0,0,0,.55.64.4.4,0,0,0,.51.06.29.29,0,0,0,.13-.23,1.27,1.27,0,0,0-.05-.4,6,6,0,0,0-.22-.61c-.1-.24-.21-.53-.33-.86a2.61,2.61,0,0,1-.2-1.57,1.87,1.87,0,0,1,.84-1.09,1.72,1.72,0,0,1,.6-.24,1.68,1.68,0,0,1,.67,0,2.11,2.11,0,0,1,.68.23,2.59,2.59,0,0,1,.66.47l.59-.38a.21.21,0,0,1,.19,0,.23.23,0,0,1,.16.11l.68,1a.31.31,0,0,1,0,.19.21.21,0,0,1-.11.16Z"/><path class="cls-23" d="M79.23,101.92a3,3,0,0,1,.18.81,3.46,3.46,0,0,1,0,.73,2.25,2.25,0,0,1-.22.6,1,1,0,0,1-.34.4.16.16,0,0,1-.16,0,.2.2,0,0,1-.12-.08l-.68-1a.4.4,0,0,1-.08-.2.67.67,0,0,1,0-.2.86.86,0,0,0,0-.13,1.27,1.27,0,0,0,0-.22,1.32,1.32,0,0,0,0-.31,1.86,1.86,0,0,0-.19-.37,2.83,2.83,0,0,0-.2-.28,1.37,1.37,0,0,0-.23-.2.5.5,0,0,0-.23-.09.33.33,0,0,0-.25.06.31.31,0,0,0-.14.2.84.84,0,0,0,0,.35c0,.15.1.33.18.56s.19.49.33.82a4.8,4.8,0,0,1,.27.91,2.17,2.17,0,0,1,0,.76,1.59,1.59,0,0,1-.26.63,2.15,2.15,0,0,1-.58.53,1.84,1.84,0,0,1-.69.27,1.75,1.75,0,0,1-.72,0,2.28,2.28,0,0,1-.72-.32,3.22,3.22,0,0,1-.67-.57l-.56.36a.26.26,0,0,1-.19,0,.28.28,0,0,1-.17-.11l-.67-1a.25.25,0,0,1,0-.19.26.26,0,0,1,.11-.16l.59-.38a3.07,3.07,0,0,1-.2-.85,2.38,2.38,0,0,1,0-.76,1.81,1.81,0,0,1,.22-.63,1.45,1.45,0,0,1,.41-.44.21.21,0,0,1,.28.05l.68,1a.75.75,0,0,1,.08.2.54.54,0,0,1,0,.18s0,.09,0,.16a1,1,0,0,0,0,.27,1.14,1.14,0,0,0,0,.35,1.57,1.57,0,0,0,.21.44,3,3,0,0,0,.54.64.42.42,0,0,0,.52.06.29.29,0,0,0,.13-.23,1.33,1.33,0,0,0-.06-.4,4.53,4.53,0,0,0-.21-.62c-.1-.24-.21-.52-.34-.85a2.61,2.61,0,0,1-.19-1.57,1.83,1.83,0,0,1,.84-1.09,1.78,1.78,0,0,1,.6-.25,2.09,2.09,0,0,1,.66,0,2.48,2.48,0,0,1,.68.23,3.21,3.21,0,0,1,.67.48l.58-.38a.26.26,0,0,1,.19,0,.24.24,0,0,1,.16.11l.68,1a.26.26,0,0,1,0,.19.26.26,0,0,1-.11.16Z"/><path class="cls-50" d="M66.35,136.3V67.69A1.33,1.33,0,0,0,65,66.37H58.76a1.33,1.33,0,0,0-1.33,1.32v67.94A13.6,13.6,0,0,0,69,149.06c3,.45,8.89,1.05,8.89-.29C77.92,148.08,66.35,145.91,66.35,136.3Z"/><rect class="cls-51" x="95.42" y="66.43" width="23.37" height="79.09" rx="3.96"/><path class="cls-15" d="M64.92,46.34v6.3c0,2.19,10.41,4,23.25,4s23.24-1.77,23.24-4v-6.3Z"/><g class="cls-52"><rect class="cls-18" x="65.43" y="43.72" width="1.1" height="14.45"/><rect class="cls-18" x="68.29" y="43.72" width="1.1" height="14.45"/><rect class="cls-18" x="71.54" y="43.72" width="1.1" height="14.45"/><rect class="cls-18" x="75.61" y="43.72" width="1.1" height="14.45"/><rect class="cls-18" x="80.08" y="43.72" width="1.1" height="14.45"/><rect class="cls-18" x="84.95" y="43.72" width="1.1" height="14.45"/><rect class="cls-18" x="109.8" y="43.72" width="1.1" height="14.45"/><rect class="cls-18" x="106.95" y="43.72" width="1.1" height="14.45"/><rect class="cls-18" x="103.69" y="43.72" width="1.1" height="14.45"/><rect class="cls-18" x="99.63" y="43.72" width="1.1" height="14.45"/><rect class="cls-18" x="95.16" y="43.72" width="1.1" height="14.45"/><rect class="cls-18" x="90.29" y="43.72" width="1.1" height="14.45"/></g><path class="cls-16" d="M111.41,46.22c0,2.19-10.41,4-23.24,4s-23.25-1.77-23.25-4,10.41-4,23.25-4S111.41,44,111.41,46.22Z"/><path class="cls-15" d="M106.65,45.64c0,1.17-8.28,2.12-18.48,2.12s-18.48-.95-18.48-2.12S78,43.53,88.17,43.53,106.65,44.48,106.65,45.64Z"/><path class="cls-18" d="M70.49,46.26c2.3-.87,9.34-1.5,17.68-1.5s15.38.63,17.68,1.5c.52-.2.8-.4.8-.62,0-1.16-8.28-2.11-18.48-2.11s-18.48.95-18.48,2.11C69.69,45.86,70,46.06,70.49,46.26Z"/><polygon class="cls-18" points="99.63 46.74 76.7 46.74 77.94 45.68 98.4 45.68 99.63 46.74"/><rect class="cls-53" x="77.94" y="45.68" width="20.46" height="1.06"/><g class="cls-54"><path class="cls-17" d="M89.32,29.87l-1.75,0L87.94,48l1.75,0c4.64-.13,8.33-4.27,8.23-9.27S94,29.74,89.32,29.87Z"/><g class="cls-55"><polygon class="cls-18" points="99.57 47.91 99.56 47.46 88.11 47.77 88.12 48.22 99.57 47.91"/><polygon class="cls-18" points="99.54 46.74 99.53 46.29 88.09 46.61 88.1 47.05 99.54 46.74"/><polygon class="cls-18" points="99.52 45.41 99.51 44.97 88.06 45.28 88.07 45.73 99.52 45.41"/><polygon class="cls-18" points="99.48 43.76 99.47 43.31 88.03 43.62 88.04 44.07 99.48 43.76"/><polygon class="cls-18" points="99.44 41.94 99.44 41.49 87.99 41.8 88 42.25 99.44 41.94"/><polygon class="cls-18" points="99.4 39.95 99.39 39.5 87.95 39.81 87.96 40.26 99.4 39.95"/><polygon class="cls-18" points="87.76 30.12 99.2 29.81 99.19 29.36 87.75 29.67 87.76 30.12"/><polygon class="cls-18" points="99.22 30.98 99.21 30.53 87.77 30.84 87.78 31.29 99.22 30.98"/><polygon class="cls-18" points="99.25 32.3 99.24 31.86 87.8 32.17 87.81 32.62 99.25 32.3"/><polygon class="cls-18" points="99.28 33.96 99.27 33.51 87.83 33.82 87.84 34.27 99.28 33.96"/><polygon class="cls-18" points="99.32 35.78 99.31 35.34 87.87 35.65 87.88 36.09 99.32 35.78"/><polygon class="cls-18" points="99.36 37.77 99.35 37.32 87.91 37.63 87.92 38.08 99.36 37.77"/></g><path class="cls-23" d="M97.07,38.63c.1,5-3.58,9.14-8.23,9.27s-8.49-3.82-8.59-8.81,3.58-9.14,8.23-9.27S97,33.64,97.07,38.63Z"/><path class="cls-24" d="M80.58,39.37c-.1-5,3.59-9.14,8.23-9.27A8,8,0,0,1,94,31.85a7.93,7.93,0,0,0-5.51-2c-4.65.13-8.33,4.28-8.23,9.27a9.21,9.21,0,0,0,3.41,7.06A9.27,9.27,0,0,1,80.58,39.37Z"/><path class="cls-24" d="M88.89,46.07c-3.46.09-6.34-3-6.42-6.86S85.14,32.1,88.6,32s6.34,3,6.42,6.86S92.35,46,88.89,46.07Z"/><path class="cls-15" d="M88.8,45.89c-3.46.09-6.34-3-6.42-6.86s2.68-7.11,6.14-7.2,6.34,3,6.42,6.86S92.26,45.79,88.8,45.89Z"/><path class="cls-18" d="M83,39c-.07-3.81,2.59-7,6-7.19h-.46c-3.46.09-6.21,3.32-6.14,7.2s3,6.95,6.42,6.86l.17,0C85.72,45.69,83.09,42.73,83,39Z"/><path class="cls-18" d="M90,35.41a3.51,3.51,0,0,1,.78.37,2.83,2.83,0,0,1,.58.49,1.92,1.92,0,0,1,.36.53,1.16,1.16,0,0,1,.1.53.19.19,0,0,1-.08.14.3.3,0,0,1-.15.05l-1.31-.12a.45.45,0,0,1-.22,0,.65.65,0,0,1-.16-.13l-.09-.1A.89.89,0,0,0,89.6,37a1.12,1.12,0,0,0-.29-.14,1.25,1.25,0,0,0-.43-.09,2.32,2.32,0,0,0-.37,0,1.07,1.07,0,0,0-.32.05.56.56,0,0,0-.23.12.34.34,0,0,0-.11.23.28.28,0,0,0,.07.24.86.86,0,0,0,.3.21,5.35,5.35,0,0,0,.58.2l.9.26a5.19,5.19,0,0,1,.93.35,2.11,2.11,0,0,1,.64.46,1.4,1.4,0,0,1,.35.6,1.91,1.91,0,0,1,0,.77,1.65,1.65,0,0,1-.23.71,2,2,0,0,1-.52.55,2.68,2.68,0,0,1-.74.36,3.93,3.93,0,0,1-.93.17l-.07.67a.23.23,0,0,1-.1.17.24.24,0,0,1-.2.06l-1.31-.11a.31.31,0,0,1-.18-.09.23.23,0,0,1-.06-.19l.07-.7a3.32,3.32,0,0,1-.83-.37A2.79,2.79,0,0,1,86,41a1.8,1.8,0,0,1-.37-.57,1.39,1.39,0,0,1-.1-.59.22.22,0,0,1,.08-.14.18.18,0,0,1,.15,0l1.32.11a.81.81,0,0,1,.21,0l.15.12.11.13a1.69,1.69,0,0,0,.19.19,1.44,1.44,0,0,0,.33.19,1.63,1.63,0,0,0,.5.1,2.82,2.82,0,0,0,.89,0c.25-.05.38-.17.4-.36a.27.27,0,0,0-.11-.24,1.34,1.34,0,0,0-.37-.21,5,5,0,0,0-.65-.21l-.93-.28a2.68,2.68,0,0,1-1.43-.82A1.78,1.78,0,0,1,86,37a1.67,1.67,0,0,1,.2-.62,1.86,1.86,0,0,1,.44-.53,2.15,2.15,0,0,1,.64-.39,3,3,0,0,1,.84-.22l.08-.7a.22.22,0,0,1,.09-.17.25.25,0,0,1,.2-.06l1.31.11a.31.31,0,0,1,.19.09.33.33,0,0,1,.06.19Z"/><path class="cls-23" d="M89.69,35.37a3.39,3.39,0,0,1,.79.37,2.83,2.83,0,0,1,.58.49,2.11,2.11,0,0,1,.35.53,1.17,1.17,0,0,1,.11.53.24.24,0,0,1-.09.14.25.25,0,0,1-.15,0L90,37.36a.38.38,0,0,1-.22-.06.56.56,0,0,1-.16-.12l-.08-.1a1,1,0,0,0-.18-.16,1.22,1.22,0,0,0-.28-.14,1.31,1.31,0,0,0-.44-.09,2.2,2.2,0,0,0-.36,0,1,1,0,0,0-.32,0,.5.5,0,0,0-.24.12.38.38,0,0,0-.11.23.29.29,0,0,0,.07.24,1,1,0,0,0,.3.21c.15.06.34.13.58.2l.9.26a5.19,5.19,0,0,1,.93.35,2.33,2.33,0,0,1,.65.45,1.62,1.62,0,0,1,.35.61,2.11,2.11,0,0,1,0,.77,1.66,1.66,0,0,1-.24.71,1.9,1.9,0,0,1-.51.55,2.75,2.75,0,0,1-.75.36A3.75,3.75,0,0,1,89,42l-.07.67a.22.22,0,0,1-.1.17.23.23,0,0,1-.19.06l-1.31-.11a.27.27,0,0,1-.19-.1.23.23,0,0,1-.06-.18l.08-.7a3.16,3.16,0,0,1-.83-.37,2.85,2.85,0,0,1-.62-.49,2,2,0,0,1-.37-.57,1.24,1.24,0,0,1-.09-.59.16.16,0,0,1,.08-.14.17.17,0,0,1,.15,0l1.31.11a.81.81,0,0,1,.21,0,.61.61,0,0,1,.16.12l.1.13a1.24,1.24,0,0,0,.2.19,1.07,1.07,0,0,0,.32.18,1.37,1.37,0,0,0,.5.11,3.24,3.24,0,0,0,.9,0q.36-.08.39-.36a.26.26,0,0,0-.1-.24,1.25,1.25,0,0,0-.37-.21,5.58,5.58,0,0,0-.65-.21l-.94-.28a2.75,2.75,0,0,1-1.43-.82A1.73,1.73,0,0,1,85.73,37a1.6,1.6,0,0,1,.2-.63,1.76,1.76,0,0,1,.43-.52,2.2,2.2,0,0,1,.65-.39,3.48,3.48,0,0,1,.83-.23l.08-.69a.23.23,0,0,1,.1-.17.24.24,0,0,1,.2-.06l1.31.11a.31.31,0,0,1,.18.09.23.23,0,0,1,.06.19Z"/></g><path class="cls-56" d="M117.2,153.62a.6.6,0,0,0,.22,0,1.18,1.18,0,0,0,.58-1.19c-1.58-12.79-3-25.72-4.43-38.23s-2.84-25.42-4.42-38.09c-.06-.49-.42-.76-.8-.6a1.19,1.19,0,0,0-.58,1.19c1.57,12.65,3,25.57,4.41,38.06S115,140.17,116.62,153C116.67,153.37,116.91,153.62,117.2,153.62Z"/><path class="cls-56" d="M133.12,153.62a.62.62,0,0,0,.23,0,1.18,1.18,0,0,0,.58-1.19c-1.59-12.79-3-25.72-4.43-38.23s-2.85-25.42-4.42-38.09c-.06-.49-.42-.76-.8-.6a1.18,1.18,0,0,0-.59,1.19c1.58,12.65,3,25.57,4.42,38.06S131,140.17,132.54,153C132.59,153.37,132.83,153.62,133.12,153.62Z"/><path class="cls-56" d="M114.94,131.09h15.11c.38,0,.74-.42.8-.94s-.2-.94-.58-.94H115.16c-.38,0-.74.42-.8.94S114.56,131.09,114.94,131.09Z"/><path class="cls-56" d="M113.64,118.38h15.11c.39,0,.74-.42.81-.94s-.2-.94-.58-.94H113.87c-.39,0-.75.42-.81.94S113.26,118.38,113.64,118.38Z"/><path class="cls-56" d="M116.23,143.81h15.11c.38,0,.74-.42.81-.94s-.2-.94-.59-.94H116.45c-.38,0-.74.42-.8.94S115.85,143.81,116.23,143.81Z"/><path class="cls-56" d="M111.88,105.67H127c.38,0,.74-.42.8-.94s-.2-1-.58-1H112.1c-.38,0-.74.43-.8,1S111.5,105.67,111.88,105.67Z"/><path class="cls-56" d="M110.81,93h15.11c.38,0,.74-.42.8-.94s-.2-.94-.58-.94H111c-.38,0-.74.42-.8.94S110.43,93,110.81,93Z"/><path class="cls-56" d="M108.82,80.24h15.11c.38,0,.74-.42.8-.94s-.19-.94-.58-.94H109c-.38,0-.74.42-.8.94S108.44,80.24,108.82,80.24Z"/><path class="cls-57" d="M118.61,35.41c-.8-.08-10.36,2-11.33,2.21s-9.56-.7-9.56-.7.1.57.17,1.21c0,.27,8.26,4,9.39,3.58s11.91-2.33,11.91-2.33Z"/><path class="cls-58" d="M123.29,86.61s.29,1.82.38,2.19,1.52.14,1.62-.08a12.42,12.42,0,0,0-.28-2.24"/><path class="cls-59" d="M125.74,88.93a10.46,10.46,0,0,1,.08,1.3l-1.72.3-.13-.28a2.66,2.66,0,0,1-.94.46l-1.45.25c-1.06.18-1.71.15-1.75,0-.09-.54,1.07-.84,1.36-1a7.46,7.46,0,0,0,2-1.3c.24-.3,0-.45.22-.42a.53.53,0,0,1,.34.2.89.89,0,0,0,1,.34,1.11,1.11,0,0,0,.53-.38A.64.64,0,0,1,125.74,88.93Z"/><path class="cls-60" d="M124.92,56.91c-.18,2.48-.71,2.66-.72,3.86-.1,7.95-1.54,10.61-.66,12,.6,1-3.56,1-3.91-.27a12.78,12.78,0,0,1-.47-2.69c0-.31-.07-.69-.13-1.15-.42-3.5-.65-6.82-.65-6.82l-.15-2.43,0-.8-.38-6.38,5.79.13A7.5,7.5,0,0,1,124.92,56.91Z"/><path class="cls-60" d="M123,71s1.79,4.13,1.92,6.67.29,9.29.29,9.29a5.51,5.51,0,0,1-2,.17s-3.68-14.28-3.87-15.86S123,71,123,71Z"/><path class="cls-58" d="M116.32,86.9s.11,1.84.17,2.22,1.5.28,1.62.07a12.42,12.42,0,0,0-.06-2.25"/><path class="cls-59" d="M118.53,89.44c0,.5,0,1.64,0,1.64H116.9l-.05-.21a1.49,1.49,0,0,1-.7.21h-2.88s-.79,0-.81-.23c0-.55,1.14-.73,1.45-.86a7.49,7.49,0,0,0,2.16-1.09c.27-.28.06-.45.26-.4a.53.53,0,0,1,.32.24.89.89,0,0,0,.94.43,1,1,0,0,0,.56-.33A.63.63,0,0,1,118.53,89.44Z"/><path class="cls-61" d="M120.75,60.05c-.51,2.18-.79,3.4-1,5s-.55,4.74-.55,4.74c0-.31-.07-.69-.13-1.15-.42-3.5-.65-6.82-.65-6.82l-.15-2.43,0-.8.21-.75,2.1-1.55A5.77,5.77,0,0,1,120.75,60.05Z"/><path class="cls-60" d="M113.68,68.93a20.15,20.15,0,0,0,.31,3.88c.25,1.32,4.41,1.58,3.88.56-.77-1.48.87-4,1.56-11.94.1-1.2,1-1.68,1.35-4.15s-1.36-5.49-1.36-5.49l-5.74.67-.1,7.19,0,2.43S113.52,65.42,113.68,68.93Z"/><path class="cls-60" d="M117.49,71.53s1.49,4.25,1.44,6.79-.69,8.9-.69,8.9a5.5,5.5,0,0,1-2,0s-2.59-14.28-2.5-17C113.78,68.6,117.49,71.53,117.49,71.53Z"/><path class="cls-58" d="M121,33.44A6.66,6.66,0,0,1,120.8,31c.18-1,.81-2.91.57-4.31s-2-2.57-3.87-2.39-2.41,2-2.72,3a10.73,10.73,0,0,0-.19,3.48,2.45,2.45,0,0,0,.86,1.72c.31.18,1.49-.06,1.69.16a5.47,5.47,0,0,1,.36,1.55"/><path class="cls-60" d="M121.92,34.55a2.4,2.4,0,0,0-.42-1.11c-.31-.3-2.39-.3-3-.22a9.66,9.66,0,0,0-2.36,1c-.21.15.19.94.19.94Z"/><path class="cls-62" d="M121,31.66a1.6,1.6,0,0,1-.3,0c-.26,0-.49.1-.75.11l-1,0a1.83,1.83,0,0,1-1.18-.22,1.74,1.74,0,0,1-.5-1.17c0-.06,0-.12,0-.16a.18.18,0,0,1,.1,0c.87,0,1-1.2.77-1.81-.13-.4-.77-.55-.92-.08,0,.16,0,.36-.14.45a.23.23,0,0,1-.3-.11.59.59,0,0,1,0-.37,4.66,4.66,0,0,1,.4-1.35c.1-.21.65-.66.28-.84a3,3,0,0,0-1-.18,4.36,4.36,0,0,1-1.64-.71,1.67,1.67,0,0,1-.66-.6.62.62,0,0,1,.15-.8,1,1,0,0,1,.44-.1l1.48-.07a19.37,19.37,0,0,1,2.85,0,3.41,3.41,0,0,1,1.43.4,1.65,1.65,0,0,1,.7.92c.11.29.23.32.49.47.47.27.53.93.54,1.42,0,1.62-1,3.58-1.09,4.09a1.57,1.57,0,0,1,0,.53A.23.23,0,0,1,121,31.66Z"/><path class="cls-63" d="M113.74,50.74c-.1.82-.81,2.07-.32,2.25a9.28,9.28,0,0,0,2-.06h.07c.86-.08,1.85-.17,2.68-.23,3.3-.15,5.49.3,5.82.12.16-.1.16-.38.11-.68-.11-.73-.65-1.25-.56-2s.3-8.93.46-11.59c.25-4.16-2.54-4.33-2.54-4.33-5.67-.35-8.34,1.28-8.65,3.72,0,.18,0,.36,0,.56-.14,2.51.62,6.57,1,9.61A15.19,15.19,0,0,1,113.74,50.74Z"/><path class="cls-57" d="M114.58,51.76a1.63,1.63,0,0,1,.45-.59,2.37,2.37,0,0,0,.65-1.28c1.74-6.87.39-10.64.39-10.64s-1.77-.84-1.74-1.09c-.14.27-.53.66-1.63.91a85.06,85.06,0,0,0,1,9.06,15.19,15.19,0,0,1,0,2.61c-.1.82-.81,2.07-.32,2.25a9.28,9.28,0,0,0,2-.06c-.88.07-1-.61-.85-1.06A1.17,1.17,0,0,0,114.58,51.76Z"/><path class="cls-58" d="M97.89,37.53a3.74,3.74,0,0,1-.62-.29c-.15-.1-.23-.72-.42-1a6.38,6.38,0,0,0-.9-.72,10.39,10.39,0,0,0-.83-.63c-.12,0-.2.17-.09.38s.52.6.53.68a.17.17,0,0,1-.13.19,2.43,2.43,0,0,1-.88.08,3,3,0,0,1-.5-.3l-.52-.34a2.84,2.84,0,0,0-.32-.21c-.17-.07-.36.06-.23.22l.13.12a2.27,2.27,0,0,0-.28-.19c-.19-.09-.44,0-.28.21l.2.19c-.16,0-.37.08-.25.22s.24.22.49.43l-.12-.07c-.17-.07-.41.05-.28.2l.47.48.43.34.48.31a6.2,6.2,0,0,0,.69.35,10.73,10.73,0,0,0,1.59.12,3.78,3.78,0,0,1,1.07.48Z"/><path class="cls-63" d="M96.85,38.66S105.76,43,107.06,43s8.1-2.42,8.68-3.08a1.94,1.94,0,0,0,.55-1.66h0a1.79,1.79,0,0,0-1.74-1.06h-.1c.28-1.07,2.35-2.08,2.35-2.08s-1.94-.75-4.72,1.56c-1.21,1-5.21,2.51-5.24,2.54-.42-.34-9.08-1.72-9.08-1.72l-.7.94h0Z"/><path class="cls-58" d="M114.79,27.74l-.81.93a1.05,1.05,0,0,0-.3.58.27.27,0,0,0,0,.15.37.37,0,0,0,.22.16,1.55,1.55,0,0,0,1.13-.25"/><path class="cls-15" d="M20.83,57.52a5.05,5.05,0,0,1,1.36.45,4.17,4.17,0,0,1,1,.7,3.22,3.22,0,0,1,.6.83,2.54,2.54,0,0,1,.24.81.35.35,0,0,1-.12.31.45.45,0,0,1-.31.12h-1.1a.67.67,0,0,1-.41-.1,1,1,0,0,1-.24-.28,2.06,2.06,0,0,0-.72-.68,2.74,2.74,0,0,0-1.43-.3,3.33,3.33,0,0,0-.78.09,2.38,2.38,0,0,0-.65.25,1.51,1.51,0,0,0-.43.4,1,1,0,0,0,0,1.13,1.25,1.25,0,0,0,.56.4,6.54,6.54,0,0,0,1,.31l1.48.33a8.28,8.28,0,0,1,1.6.48,3.61,3.61,0,0,1,1.07.66,2.27,2.27,0,0,1,.6.89,3.43,3.43,0,0,1,.18,1.15,2.83,2.83,0,0,1-.24,1.16,3,3,0,0,1-.68,1,3.93,3.93,0,0,1-1.1.71,5.27,5.27,0,0,1-1.47.39v1.08a.41.41,0,0,1-.42.42H19.13a.41.41,0,0,1-.3-.12.45.45,0,0,1-.13-.3V68.69a5.34,5.34,0,0,1-1.33-.37,4,4,0,0,1-1.09-.64,3.1,3.1,0,0,1-.75-.87,2.42,2.42,0,0,1-.31-1.1.35.35,0,0,1,.12-.31.42.42,0,0,1,.3-.12h1.11a.77.77,0,0,1,.41.1.72.72,0,0,1,.23.28,3.62,3.62,0,0,0,.27.41,1.58,1.58,0,0,0,.43.37,2.84,2.84,0,0,0,.67.26,4.06,4.06,0,0,0,1,.1,5.53,5.53,0,0,0,.92-.07,2.78,2.78,0,0,0,.77-.24,1.75,1.75,0,0,0,.54-.41.93.93,0,0,0,.2-.61.73.73,0,0,0-.22-.56,1.69,1.69,0,0,0-.67-.38,7.85,7.85,0,0,0-1.11-.3c-.44-.1-1-.22-1.53-.37a7.74,7.74,0,0,1-1.38-.44,3.4,3.4,0,0,1-1-.64,2.45,2.45,0,0,1-.58-.9,3.63,3.63,0,0,1-.19-1.22,2.63,2.63,0,0,1,.24-1.13,3.17,3.17,0,0,1,.65-.94,3.71,3.71,0,0,1,1-.7,5,5,0,0,1,1.27-.4V56.42a.42.42,0,0,1,.13-.3.38.38,0,0,1,.3-.13h1.28a.43.43,0,0,1,.42.43Z"/><path class="cls-15" d="M147.15,65.87a3.49,3.49,0,0,1,1,.33,2.88,2.88,0,0,1,.72.51,2.4,2.4,0,0,1,.44.61,1.61,1.61,0,0,1,.17.6.24.24,0,0,1-.08.22.33.33,0,0,1-.23.09h-.81a.51.51,0,0,1-.3-.07.74.74,0,0,1-.17-.21,1.6,1.6,0,0,0-.53-.5,2.11,2.11,0,0,0-1-.22,2.62,2.62,0,0,0-.57.07,1.6,1.6,0,0,0-.48.18,1,1,0,0,0-.32.3.81.81,0,0,0,0,.83,1.07,1.07,0,0,0,.42.29,4.34,4.34,0,0,0,.73.22l1.08.25a6.32,6.32,0,0,1,1.17.35,2.54,2.54,0,0,1,.79.49,1.51,1.51,0,0,1,.44.65,2.48,2.48,0,0,1,.14.85,2,2,0,0,1-.18.84,2.14,2.14,0,0,1-.5.71,2.75,2.75,0,0,1-.81.52,4.08,4.08,0,0,1-1.07.29v.79a.34.34,0,0,1-.1.22.29.29,0,0,1-.22.09h-.94a.31.31,0,0,1-.31-.31v-.79a5,5,0,0,1-1-.27,3.66,3.66,0,0,1-.8-.47,2.44,2.44,0,0,1-.55-.65,1.81,1.81,0,0,1-.23-.8.25.25,0,0,1,.09-.23.35.35,0,0,1,.22-.08h.82a.51.51,0,0,1,.3.07.49.49,0,0,1,.17.2,1.49,1.49,0,0,0,.2.31.9.9,0,0,0,.31.26,1.73,1.73,0,0,0,.49.19,3,3,0,0,0,.74.08,4.91,4.91,0,0,0,.67-.05,2.24,2.24,0,0,0,.57-.18,1.19,1.19,0,0,0,.39-.3.67.67,0,0,0,.15-.44.57.57,0,0,0-.16-.42,1.32,1.32,0,0,0-.49-.28,6.71,6.71,0,0,0-.82-.22l-1.12-.27a5.56,5.56,0,0,1-1-.33,2.19,2.19,0,0,1-.72-.47,1.78,1.78,0,0,1-.42-.65,2.66,2.66,0,0,1-.14-.9,1.9,1.9,0,0,1,.18-.83,2,2,0,0,1,.48-.69,2.39,2.39,0,0,1,.73-.51,4,4,0,0,1,.94-.3v-.78a.29.29,0,0,1,.09-.22.3.3,0,0,1,.22-.1h.94a.27.27,0,0,1,.22.1.3.3,0,0,1,.1.22Z"/><path class="cls-15" d="M130,18.11a3.07,3.07,0,0,1,.87.29,2.67,2.67,0,0,1,.62.45,1.9,1.9,0,0,1,.39.53,1.88,1.88,0,0,1,.15.52.24.24,0,0,1-.08.2.29.29,0,0,1-.2.07H131a.45.45,0,0,1-.26-.06.93.93,0,0,1-.16-.18,1.22,1.22,0,0,0-.46-.44,1.82,1.82,0,0,0-.91-.19,2,2,0,0,0-.5.06,1.4,1.4,0,0,0-.41.16.78.78,0,0,0-.28.26.67.67,0,0,0,0,.72.79.79,0,0,0,.36.25,3.63,3.63,0,0,0,.63.2l1,.21a5.94,5.94,0,0,1,1,.31,2.53,2.53,0,0,1,.69.42,1.36,1.36,0,0,1,.38.58,2.07,2.07,0,0,1,.12.73,1.81,1.81,0,0,1-.15.74,2,2,0,0,1-.44.62,2.48,2.48,0,0,1-.7.45,3.32,3.32,0,0,1-.94.25V26a.27.27,0,0,1-.08.19.26.26,0,0,1-.2.08h-.81a.26.26,0,0,1-.2-.08.27.27,0,0,1-.08-.19v-.69a3.44,3.44,0,0,1-.85-.23,3.15,3.15,0,0,1-.7-.41,2,2,0,0,1-.48-.56,1.58,1.58,0,0,1-.2-.71.2.2,0,0,1,.08-.19.27.27,0,0,1,.19-.08h.71a.39.39,0,0,1,.41.24,2.11,2.11,0,0,0,.18.27.9.9,0,0,0,.27.23,1.75,1.75,0,0,0,.43.17,2.84,2.84,0,0,0,.64.06,3.81,3.81,0,0,0,.59,0,1.76,1.76,0,0,0,.49-.16.91.91,0,0,0,.34-.26.56.56,0,0,0,.14-.39.46.46,0,0,0-.15-.36.92.92,0,0,0-.43-.24,6.63,6.63,0,0,0-.71-.2c-.28-.06-.61-.13-1-.23a4.54,4.54,0,0,1-.88-.29,2.19,2.19,0,0,1-.63-.4,1.69,1.69,0,0,1-.37-.58,2.24,2.24,0,0,1-.12-.78,1.8,1.8,0,0,1,.15-.73,2.24,2.24,0,0,1,.42-.6,2.42,2.42,0,0,1,.64-.44,3.14,3.14,0,0,1,.82-.26V17.4a.29.29,0,0,1,.08-.19.3.3,0,0,1,.2-.08h.81a.3.3,0,0,1,.2.08.29.29,0,0,1,.08.19Z"/><polygon class="cls-15" points="136.43 58.63 139.76 57.92 136.49 57.23 135.78 53.02 135.09 57.17 131.76 57.87 135.03 58.57 135.73 62.77 136.43 58.63"/><polygon class="cls-15" points="53.17 28.29 56.5 27.59 53.23 26.89 52.52 22.68 51.82 26.83 48.49 27.54 51.76 28.23 52.47 32.44 53.17 28.29"/></g></g></g></svg>