<svg xmlns="http://www.w3.org/2000/svg" viewBox="0 0 90.99 90.99"><defs><style>.cls-1{fill:#182749;}.cls-2,.cls-5{fill:#ffb102;}.cls-3{fill:#124f6e;}.cls-4{fill:#5bc4e3;}.cls-5{font-size:12px;font-family:Phosphate-Inline, Phosphate;}</style></defs><g id="圖層_2" data-name="圖層 2"><g id="Layer_1" data-name="Layer 1"><rect class="cls-1" width="90.99" height="90.99"/><path class="cls-2" d="M66.42,79h-3.1a.41.41,0,0,1,0-.81h3.1a.41.41,0,0,1,0,.81Z"/><path class="cls-3" d="M33.62,85.44a.4.4,0,0,1-.39-.34L29.92,62a.41.41,0,0,1,.34-.46.4.4,0,0,1,.45.34L34,85a.41.41,0,0,1-.34.46Z"/><path class="cls-3" d="M58.17,85.44h-.06a.41.41,0,0,1-.34-.46l3.31-23.13a.4.4,0,0,1,.45-.34.41.41,0,0,1,.34.46L58.56,85.1A.39.39,0,0,1,58.17,85.44Z"/><path class="cls-2" d="M45.9,85.44H17.38A.4.4,0,0,1,17,85V69.82a7.24,7.24,0,0,1,5.42-7l12.22-2.71a.39.39,0,0,1,.48.3.4.4,0,0,1-.3.48L22.59,63.6a6.42,6.42,0,0,0-4.81,6.22V84.64H45.9a.4.4,0,1,1,0,.8Z"/><path class="cls-2" d="M74.41,85.44H45.9a.4.4,0,1,1,0-.8H74V69.82a6.44,6.44,0,0,0-4.82-6.23L57.27,61a.4.4,0,0,1-.3-.48.4.4,0,0,1,.48-.3l11.93,2.65a7.24,7.24,0,0,1,5.43,7V85A.4.4,0,0,1,74.41,85.44Z"/><path class="cls-2" d="M45.9,63.57c-8.73,0-15.84-4-15.84-8.94a.4.4,0,1,1,.8,0c0,4.49,6.75,8.14,15,8.14s15-3.65,15-8.14a.4.4,0,1,1,.8,0C61.73,59.56,54.63,63.57,45.9,63.57Z"/><path class="cls-2" d="M45.9,60c-9.77,0-17.71-4.47-17.71-10V47.55a1,1,0,0,0-1-1,1.77,1.77,0,0,1-1.77-1.77V39.33a1.77,1.77,0,0,1,1.77-1.77h1v-.9a17.71,17.71,0,0,1,18-17.7c9.58.17,17.37,8.37,17.37,18.28a.33.33,0,0,0,.32.32h.65a1.77,1.77,0,0,1,1.77,1.77v5.48a1.77,1.77,0,0,1-1.77,1.77,1,1,0,0,0-1,1V50C63.6,55.53,55.66,60,45.9,60ZM27.22,38.36a1,1,0,0,0-1,1v5.48a1,1,0,0,0,1,1A1.77,1.77,0,0,1,29,47.55V50c0,5.06,7.58,9.17,16.91,9.17S62.8,55.09,62.8,50V47.55a1.77,1.77,0,0,1,1.77-1.77,1,1,0,0,0,1-1V39.33a1,1,0,0,0-1-1h-.65a1.13,1.13,0,0,1-1.12-1.12c0-9.47-7.44-17.32-16.59-17.48A16.9,16.9,0,0,0,29,36.66V38a.4.4,0,0,1-.4.4Z"/><path class="cls-2" d="M45.92,53.75c-4.73,0-9.47-.4-11-1.18A6.23,6.23,0,0,1,31.5,47V40.45a6.24,6.24,0,0,1,3.41-5.57c3.09-1.57,18.94-1.57,22,0a6.24,6.24,0,0,1,3.41,5.57V47a6.23,6.23,0,0,1-3.41,5.57C55.39,53.35,50.66,53.75,45.92,53.75Zm0-19.26c-4.6,0-9.21.37-10.65,1.11a5.42,5.42,0,0,0-3,4.85V47a5.42,5.42,0,0,0,3,4.85c2.89,1.48,18.41,1.48,21.3,0a5.42,5.42,0,0,0,3-4.85V40.45a5.42,5.42,0,0,0-3-4.85C55.13,34.86,50.52,34.49,45.92,34.49Z"/><path class="cls-2" d="M33.35,31l-.17,0a.41.41,0,0,1-.19-.54,14.4,14.4,0,0,1,13-8.25.4.4,0,0,1,0,.8,13.6,13.6,0,0,0-12.26,7.79A.4.4,0,0,1,33.35,31Z"/><path class="cls-4" d="M33.53,51.43a.38.38,0,0,1-.28-.12.4.4,0,0,1,0-.57L37,47a.4.4,0,0,1,.57,0,.4.4,0,0,1,0,.56l-3.73,3.73A.39.39,0,0,1,33.53,51.43Z"/><path class="cls-4" d="M41.84,43.11a.39.39,0,0,1-.28-.12.39.39,0,0,1,0-.56l8.49-8.49a.4.4,0,0,1,.56,0,.4.4,0,0,1,0,.57L42.13,43A.4.4,0,0,1,41.84,43.11Z"/><path class="cls-4" d="M41.84,53.64a.43.43,0,0,1-.28-.11.4.4,0,0,1,0-.57l9.21-9.21a.4.4,0,1,1,.57.57l-9.21,9.21A.44.44,0,0,1,41.84,53.64Z"/><text class="cls-5" transform="translate(36.56 73.47)">C C</text><path class="cls-2" d="M15.17,24.56a.4.4,0,0,1-.4-.4v-11a.4.4,0,0,1,.8,0v11A.4.4,0,0,1,15.17,24.56Z"/><path class="cls-2" d="M20.66,19.07h-11a.4.4,0,0,1,0-.8h11a.4.4,0,0,1,0,.8Z"/><path class="cls-2" d="M75.05,30.12a.24.24,0,0,1-.24-.24v-6.5a.23.23,0,0,1,.24-.23.23.23,0,0,1,.23.23v6.5A.23.23,0,0,1,75.05,30.12Z"/><path class="cls-2" d="M78.29,26.87H71.8a.24.24,0,1,1,0-.48h6.49a.24.24,0,0,1,0,.48Z"/><path class="cls-2" d="M72.57,51.43a.17.17,0,0,1-.17-.17V46.65a.17.17,0,1,1,.34,0v4.61A.17.17,0,0,1,72.57,51.43Z"/><path class="cls-2" d="M74.88,49.12H70.26a.17.17,0,0,1-.17-.16.17.17,0,0,1,.17-.17h4.62a.17.17,0,0,1,.17.17A.17.17,0,0,1,74.88,49.12Z"/></g></g></svg>